<?xml version="1.0" standalone="no"?>
<!DOCTYPE svg PUBLIC "-//W3C//DTD SVG 1.1//EN" "http://www.w3.org/Graphics/SVG/1.1/DTD/svg11.dtd" >
<svg xmlns="http://www.w3.org/2000/svg">
<metadata>
This is a custom SVG webfont generated by Font Squirrel.
Copyright   : Copyright c 20092010 Design Science Inc
</metadata>
<defs>
<font id="MathJax_WinIE6Regular" horiz-adv-x="1593" >
<font-face units-per-em="2048" ascent="1638" descent="-410" />
<missing-glyph horiz-adv-x="512" />
<glyph unicode=" "  horiz-adv-x="512" />
<glyph unicode="&#x09;" horiz-adv-x="512" />
<glyph unicode="&#xa0;" horiz-adv-x="512" />
<glyph unicode="&#x2000;" horiz-adv-x="839" />
<glyph unicode="&#x2001;" horiz-adv-x="1679" />
<glyph unicode="&#x2002;" horiz-adv-x="839" />
<glyph unicode="&#x2003;" horiz-adv-x="1679" />
<glyph unicode="&#x2004;" horiz-adv-x="559" />
<glyph unicode="&#x2005;" horiz-adv-x="419" />
<glyph unicode="&#x2006;" horiz-adv-x="278" />
<glyph unicode="&#x2007;" horiz-adv-x="278" />
<glyph unicode="&#x2008;" horiz-adv-x="208" />
<glyph unicode="&#x2009;" horiz-adv-x="335" />
<glyph unicode="&#x200a;" horiz-adv-x="92" />
<glyph unicode="&#x202f;" horiz-adv-x="335" />
<glyph unicode="&#x205f;" horiz-adv-x="419" />
<glyph unicode="&#xe000;" horiz-adv-x="500" d="M0 0v0v0v0v0z" />
<glyph unicode="&#xe200;" horiz-adv-x="2048" d="M113 506q0 14 8 21.5t29 13.5q98 39 174.5 102.5t116.5 125.5t65.5 119.5t34.5 94.5l6 35q4 12 6 17t11 8.5t26 3.5q41 0 41 -23q0 -14 -10 -51q-20 -76 -51 -141.5t-67 -111.5t-63.5 -75t-61.5 -57.5t-40 -34.5h1565q31 -18 30.5 -41t-30.5 -41h-1565q4 -4 34.5 -28.5 t60.5 -55.5t67 -77t68.5 -113.5t52.5 -145.5q10 -37 10 -51q0 -23 -41 -23q-14 0 -20.5 1.5t-12.5 7.5t-10 19t-8 38q-37 150 -140.5 266.5t-248.5 173.5q-31 13 -37 23z" />
<glyph unicode="&#xe201;" horiz-adv-x="1024" d="M35 887v13q0 5 1 9t3 7.5t2 5.5t5 4t7 2t9.5 2t11.5 4q90 23 172 79t123 111q96 119 118 265q4 33 27 32q16 0 21 -20q0 -14 9 -52t38.5 -104.5t72.5 -120.5q41 -49 88.5 -86t86 -57t72.5 -32.5t55.5 -17.5t23.5 -7q8 -8 8 -37q0 -41 -22 -41q-10 0 -29 6 q-238 66 -371 264l-14 21v-1504q-16 -29 -37 -28h-4h-4q-25 0 -37 28v1504l-14 -21q-63 -94 -157.5 -160.5t-156 -87t-88.5 -20.5q-20 0 -20 39z" />
<glyph unicode="&#xe202;" horiz-adv-x="2048" d="M115 512q0 27 28 41h1567q-238 178 -293 457q0 2 -1 6t-1 6q0 25 35 25h6q18 0 25.5 -2.5t11.5 -9.5t6 -17l7 -33.5t16 -50.5q45 -137 150.5 -245.5t242.5 -153.5q18 -6 18 -23q0 -12 -11 -18.5t-49 -20.5t-77 -39q-84 -53 -146.5 -122.5t-92 -137.5t-42 -102.5 t-16.5 -63.5q-4 -20 -11 -25.5t-32 -5.5q-41 0 -41 23q0 14 10 51q66 258 285 420h-1567q-28 14 -28 41z" />
<glyph unicode="&#xe203;" horiz-adv-x="1024" d="M35 137q0 41 22 41q10 0 29 -6q238 -66 371 -264l14 -21v752q0 162 -1 349.5t-1 221.5q0 145 4 174t25 35q2 2 16 2q27 -4 39 -30v-1504l14 21q61 94 156.5 160.5t157 87t88.5 20.5q20 0 20 -39v-13q0 -5 -1 -9t-3 -7.5t-2 -5.5t-5 -4t-7 -2t-9.5 -2t-11.5 -4 q-74 -18 -149.5 -61t-154.5 -142.5t-105 -230.5q0 -4 -2 -11t-3 -13.5t-1 -8.5q-4 -20 -21 -20q-18 0 -26.5 36.5t-36 113.5t-82.5 147q-23 31 -52.5 58.5t-60.5 47t-61.5 35.5t-57 27.5t-48 17.5t-34.5 10l-12 4q-8 8 -8 37z" />
<glyph unicode="&#xe204;" horiz-adv-x="2048" d="M113 506q0 14 8 21.5t29 13.5q145 57 248.5 173.5t140.5 266.5q8 45 16 55.5t35 10.5q41 0 41 -23q0 -14 -10 -51q-20 -76 -51 -141.5t-67 -111.5t-63.5 -75t-61.5 -57.5t-40 -34.5h1372q-217 162 -285 420q-10 37 -10 51q0 23 41 23q18 0 25.5 -2.5t11.5 -9.5t6 -17 l7 -33.5t16 -50.5q45 -137 150.5 -245.5t242.5 -153.5q18 -6 18 -23q0 -12 -11 -18.5t-49 -20.5t-77 -39q-84 -53 -146.5 -122.5t-92 -137.5t-42 -102.5t-16.5 -63.5q-4 -20 -11 -25.5t-32 -5.5q-41 0 -41 23q0 14 10 51q66 258 285 420h-1372q4 -4 34.5 -28.5t60.5 -55.5 t67 -77t68.5 -113.5t52.5 -145.5q10 -37 10 -51q0 -23 -41 -23q-14 0 -20.5 1.5t-12.5 7.5t-10 19t-8 38q-37 150 -140.5 266.5t-248.5 173.5q-31 13 -37 23z" />
<glyph unicode="&#xe205;" horiz-adv-x="1024" d="M35 -23q0 41 22 41q10 0 29 -6q238 -66 371 -264l14 -20v1568l-14 -20q-63 -94 -157.5 -160.5t-156 -87t-88.5 -20.5q-20 0 -20 39v13q0 5 1 9t3 7t2 5t5 4t7 2t9.5 2.5t11.5 4.5q90 23 172 79t123 111q61 76 87.5 152.5t32 110.5t23.5 34t23 -20q0 -10 7 -43t36.5 -104 t74.5 -128q68 -80 146 -127t131 -61l51 -15q8 -8 8 -36q0 -41 -22 -41q-10 0 -29 6q-238 66 -371 264l-14 20v-1568l14 20q61 94 156.5 160.5t157 87t88.5 20.5q20 0 20 -39v-13q0 -5 -1 -9t-3 -7t-2 -5t-5 -4t-7 -2t-9.5 -2.5t-11.5 -4.5q-117 -31 -206 -102.5t-131 -150 t-60 -134t-18 -80.5q-4 -20 -23 -20q-16 0 -22.5 35t-33 110.5t-87.5 151.5q-23 31 -52.5 58.5t-60.5 47t-61.5 36t-57 27.5t-48 17t-34.5 11l-12 4q-8 7 -8 36z" />
<glyph unicode="&#xe206;" horiz-adv-x="2048" d="M59 727q0 6 18.5 36t40 70.5t40 117.5t18.5 165q0 78 -16.5 142.5t-31.5 99.5t-15 41q0 20 20 20q16 0 35 -10q111 -53 250 -53q109 0 200 29.5t138 59.5t51 30q8 0 27.5 -19.5t19.5 -28.5q0 -18 -58.5 -53t-161 -66.5t-200.5 -31.5q-74 0 -121 10q-4 0 141 -145 l664 -666q811 -811 813 -819q2 -4 2 -12q0 -16 -12 -29.5t-29 -13.5q-4 0 -16 4q-8 4 -817 813l-391 390l-328 325l-92 92q10 -18 10 -117q0 -211 -115 -393q-23 -35 -37 -35q-8 0 -27.5 19.5t-19.5 27.5z" />
<glyph unicode="&#xe207;" horiz-adv-x="2048" d="M113 -356q0 8 2 12q4 8 813 819l665 666q143 145 142 145q-47 -10 -123 -10q-201 0 -385 115q-35 23 -35 36q0 8 19.5 28t27.5 20q4 0 51 -30t138.5 -59.5t199.5 -29.5q72 0 139.5 16.5t105.5 32.5t40 16q16 0 20 -18q0 -10 -16 -45t-31.5 -98.5t-15.5 -143.5 q0 -113 29.5 -204t58.5 -136t29 -49q0 -8 -19.5 -27.5t-28.5 -19.5q-14 0 -36 35q-113 178 -113 393q0 100 8 117l-94 -92l-326 -325l-391 -390q-809 -809 -817 -813q-12 -4 -16 -4q-16 0 -28.5 13.5t-12.5 29.5z" />
<glyph unicode="&#xe208;" horiz-adv-x="2048" d="M113 1382q0 16 11 28.5t30 12.5q4 0 16 -4q8 -4 817 -813l252 -251l230 -229l167 -167l124 -123q38 -37 38 -35q-8 8 -8 115q0 215 113 393q23 35 36 35q8 0 28 -19.5t20 -27.5q0 -4 -29 -50t-58.5 -136.5t-29.5 -202.5q0 -78 15.5 -142.5t31.5 -100.5t16 -44 q-4 -18 -20 -18q-4 0 -41 16t-102.5 32.5t-141.5 16.5q-106 0 -198.5 -29.5t-140.5 -59.5t-50 -30q-8 0 -27.5 19.5t-19.5 28.5q0 20 60.5 55t163 65.5t196.5 30.5q76 0 123 -10q2 0 -142 145l-665 666q-809 811 -813 819q-2 4 -2 14z" />
<glyph unicode="&#xe209;" horiz-adv-x="2048" d="M59 297q0 8 19.5 27.5t27.5 19.5q14 0 37 -35q115 -182 115 -393q0 -104 -10 -115q0 -2 38 35l124 123l167 167l230 229l252 251q803 807 817 813q12 4 16 4q16 0 28.5 -13t12.5 -30q0 -8 -2 -12q-2 -8 -813 -819l-664 -666q-144 -145 -141 -145q47 10 121 10 q201 0 385 -115q35 -23 35 -36q0 -8 -19.5 -28t-27.5 -20q-4 0 -51 30t-138.5 59.5t-199.5 29.5q-150 0 -281 -65q-8 -2 -16 5t-8 17q0 6 15 41t31.5 99.5t16.5 142.5q0 113 -28.5 203t-58.5 136t-30 50z" />
<glyph unicode="&#xe20a;" horiz-adv-x="2048" d="M115 313q0 31 32 41h1338l20 17q80 61 240 141q-2 2 -37 18.5t-92 49t-111 73.5l-20 17h-1338q-33 10 -32 41q0 27 28 41h1252l-21 20q-68 72 -127 166t-59 115q0 23 33 22h16q6 0 11 -1t7 -1t5.5 -3t4.5 -5t4 -7t5 -9q76 -152 202 -268.5t227 -167t195 -74.5 q35 -10 35 -26.5t-18.5 -23t-75.5 -22.5t-119 -49q-295 -143 -446 -443q-8 -18 -14.5 -21t-30.5 -3q-41 0 -41 14q0 8 10 35q72 141 176 252l21 20h-1252q-28 14 -28 41z" />
<glyph unicode="&#xe20b;" horiz-adv-x="2048" d="M70 512q0 8 2 13t11 9.5t21.5 8.5t39 16t55.5 29q283 156 413 454q12 27 19 31q20 4 31 4q35 0 34 -24q0 -14 -8 -31q-20 -47 -45 -93t-45 -76l-38 -53q-17 -24 -28 -34l-10 -12q0 -2 502 -2q500 0 500 2l-11 12q-10 10 -27 34l-38 53q-20 30 -45 76t-45 93 q-10 25 -10 33q0 20 45 20q14 -2 20 -4t10 -8t13 -25q133 -303 411 -450q39 -23 76 -37t46 -20.5t9 -18.5q0 -8 -2 -12t-11 -8.5t-21.5 -8.5t-39 -16t-57.5 -31q-285 -156 -411 -450q-8 -18 -12.5 -24.5t-10.5 -8.5t-20 -4q-45 0 -45 20q0 8 10 33q20 47 44.5 93t45.5 76 l38 53q17 24 27 34l11 12q0 2 -500 2q-502 0 -502 -2l10 -12q10 -10 28 -34l38 -53q20 -30 45 -76t45 -93q10 -25 10 -33q0 -20 -45 -20q-14 2 -20 4t-10.5 8t-12.5 25q-133 303 -411 450q-29 16 -55.5 28.5t-39 16.5t-21.5 8.5t-11 9.5t-2 13zM225 512l21 -12 q109 -66 178 -129l18 -17h1162l18 17q70 63 178 129l21 12l-21 12q-109 66 -178 129l-18 17h-1162q-70 -68 -196 -146z" />
<glyph unicode="&#xe20c;" horiz-adv-x="1138" d="M0 1378q0 23 14.5 33t26.5 10q25 0 38 -28.5t89 -231.5l90 -237h623l88 235l44 116l37 93q13 33 13 35q10 18 39 18q37 -4 37 -41q0 -8 -266.5 -706.5t-272.5 -704.5q-10 -14 -30.5 -14t-30.5 14q-6 8 -271.5 703.5t-267.5 705.5zM291 840l278 -727l279 727q0 2 -278.5 2 t-278.5 -2z" />
<glyph unicode="&#xe20d;" horiz-adv-x="1087" d="M86 303v23q0 240 178 433t395 193q125 0 189.5 -64.5t83.5 -135.5l6 22q41 170 41 281q0 180 -85 254.5t-189 74.5q-160 0 -248 -131q84 -12 84 -82q0 -51 -38 -91t-89 -40q-47 0 -68.5 26t-21.5 54q0 20 13 61.5t43 96.5t92.5 105.5t143.5 70.5l66 10h25q68 0 79 -2 q129 -23 216.5 -108.5t122 -191t34.5 -226.5q0 -195 -96 -445.5t-240 -381.5q-166 -154 -366 -154q-205 0 -307 160q-64 94 -64 188zM270 238q0 -195 205 -195q25 0 37 2q158 27 254 184q31 51 73 172t42 226q0 135 -60.5 192.5t-138.5 57.5q-129 0 -227 -95 q-51 -57 -81 -121.5t-67 -207.5q-37 -147 -37 -215z" />
<glyph unicode="&#xe20e;" horiz-adv-x="1138" d="M115 41q0 27 28 41h799v588h-770q-29 14 -29 40.5t29 41.5h770v587h-799q-29 14 -28.5 41t28.5 41h854q20 -16 27 -30v-1360q-6 -10 -27 -29l-426 -2h-428q-28 14 -28 41z" />
<glyph unicode="&#xe20f;" horiz-adv-x="1705" d="M94 1384q0 6 10 15h1495q10 -8 11 -15q0 -4 -347.5 -716.5t-353.5 -720.5q-10 -14 -57 -14.5t-57 14.5q-6 8 -353.5 720.5t-347.5 716.5zM395 1221q4 -10 259 -533.5t257 -523.5l516 1057q0 2 -516 2t-516 -2z" />
<glyph unicode="&#xe210;" horiz-adv-x="1366" d="M172 512q0 250 169 409.5t396 182.5q2 0 35 1t86 1h103h202q31 -16 31 -41q0 -18 -27 -39l-213 -2q-227 -2 -280 -12q-100 -25 -178 -74t-122 -101.5t-73 -111.5t-38 -99t-9 -69v-4h909q31 -16 31 -41t-31 -41h-909v-4q0 -43 21.5 -104.5t66.5 -133t132 -132t198 -83.5 q55 -12 282 -14h213q27 -20 27 -41q0 -25 -31 -41h-198q-14 0 -51 -1t-60 -1q-317 0 -502 176q-180 168 -180 420z" />
<glyph unicode="&#xe211;" horiz-adv-x="1366" d="M170 -41q0 20 27 41h213q227 2 280 12q66 16 131 45q43 23 90 56q80 61 129.5 147t59.5 132t10 75v4h-909q-29 14 -29 41t29 41h909v4q0 16 -6 48t-24.5 84t-62.5 112.5t-106 109.5q-47 33 -90 56q-31 14 -56.5 23t-54.5 16l-45 9q-15 3 -54.5 5t-52.5 3t-70 1h-78 l-213 2q-27 20 -27 39q0 25 31 41h198q14 0 51 1t60 1q317 0 502 -176q180 -166 180 -420q0 -174 -89 -309t-215 -203t-265 -80q-14 -2 -224 -2h-198q-31 16 -31 41z" />
<glyph unicode="&#xe212;" horiz-adv-x="1024" d="M115 -473q0 20 356 1000t363 989q8 20 32 20q18 0 31.5 -12.5t11.5 -28.5q0 -10 -355 -988t-366 -999q-14 -20 -34 -20q-14 0 -26.5 11.5t-12.5 27.5z" />
<glyph unicode="&#xe213;" horiz-adv-x="1705" d="M147 409.5q0 10.5 65 61.5l135 103q71 52 77 59q4 4 10 4h2q12 0 29.5 -36t109.5 -239l64 -141l174 -379q2 0 213 437l423 878q212 442 218 453q12 29 41 28q14 0 25.5 -12t13.5 -24v-13l-477 -989l-482 -995q-8 -14 -38 -15q-18 0 -25 7q-4 4 -201 434l-196 430l-33 -23 l-65 -49q-34 -25 -35 -24q-12 0 -30 17t-18 27.5z" />
<glyph unicode="&#xe214;" d="M115 442.5q0 188.5 105.5 325.5t266.5 137q45 0 87 -9t79 -26.5t69 -36t60 -46.5l51 -49q22 -22 41 -50l32 -44l25.5 -36.5t14.5 -23.5l15 24q176 297 430 297q16 0 88 -10v-80h-9q-16 4 -49 4q-76 0 -145.5 -34.5t-115.5 -83t-81 -99.5t-50 -84t-15 -37q0 -8 52 -88 t69 -100q145 -203 290 -203q43 0 48 4h6v-104q-55 -12 -90 -13q-258 0 -453 312q-4 8 -6 10l-15 -25q-174 -297 -434 -297q-160 0 -263 138.5t-103 327zM190 436q0 -143 68 -258t193 -115q78 0 148.5 35t116.5 83t80.5 99.5t50 84t15.5 36.5q0 8 -52 88t-69 101 q-82 117 -152.5 160t-152.5 43q-102 0 -174 -103.5t-72 -253.5z" />
<glyph unicode="&#xe215;" horiz-adv-x="2048" d="M113 444q0 180 114.5 320.5t292.5 140.5q180 0 338 -125q78 -63 152 -159l28 -39l15 20q213 303 477 303q176 0 289.5 -139t113.5 -328q0 -176 -112.5 -318.5t-298.5 -142.5q-176 0 -334 125q-78 63 -152 160l-28 39l-15 -20q-213 -303 -477 -304q-176 0 -289.5 139.5 t-113.5 327.5zM188 438q0 -141 81 -255.5t220 -114.5q242 0 445 327l-64 82q-125 162 -186 213q-100 88 -207 88q-127 0 -208 -100.5t-81 -239.5zM1112 487l64 -81q63 -82 98 -123t87 -90.5t101 -69t105 -19.5q127 0 209 101.5t82 238.5q0 139 -79 254t-220 115 q-43 0 -85 -10t-78 -28.5t-69 -40t-60 -49.5l-50 -51q-23 -24 -42 -51l-31 -44q-11 -16 -22 -35z" />
<glyph unicode="&#xe216;" horiz-adv-x="1478" d="M113 41q0 4 4 16q20 31 592 682l262 301q248 287 292 334t62 47t28.5 -12t10.5 -29q0 -12 -6 -22q-2 -2 -74 -84l-212 -244l-273 -313l-553 -633l545 -2h546q27 -20 27 -41q0 -25 -31 -41h-1188l-6 4q-6 2 -11 6t-10 12.5t-5 18.5z" />
<glyph unicode="&#xe217;" horiz-adv-x="569" d="M244 -481v995l2 995q20 27 39 27q27 0 41 -31v-1986q-16 -29 -37 -29h-4h-4q-25 0 -37 29z" />
<glyph unicode="&#xe218;" horiz-adv-x="1024" d="M270 512q0 985 2 995q10 29 41 29q23 0 35 -23q4 -8 4 -1001t-4 -1001q-12 -23 -37 -23q-16 0 -28 12l-2 2q-8 4 -9.5 131t-1.5 879zM670 512q0 993 4 1001q10 23 35 23q14 0 30 -12l2 -2q8 -4 9.5 -131t1.5 -879t-1 -878t-10 -132l-2 -2q-12 -12 -28 -12q-25 0 -37 23 q-4 8 -4 1001z" />
<glyph unicode="&#xe219;" horiz-adv-x="1366" d="M113 -8q0 12 134 316l268 602q134 298 136 300q14 14 31 15q23 0 31 -15q2 -2 136 -300l268 -602q134 -304 134 -316q-4 -37 -41 -37q-6 0 -11 2t-9 3t-8 6t-5 7t-5.5 9.5t-4.5 9.5l-485 1089l-485 -1089q-18 -33 -33 -35q-4 -2 -10 -2q-37 0 -41 37z" />
<glyph unicode="&#xe21a;" horiz-adv-x="1366" d="M113 1188q2 14 13 25.5t28 11.5q23 0 43 -37l485 -1090l485 1090q18 33 33 35q4 2 10 2q37 0 41 -37q0 -12 -134 -317l-268 -602q-134 -298 -136 -300q-10 -14 -30.5 -14t-31.5 14q-2 2 -136 300l-268 602q-134 305 -134 317z" />
<glyph unicode="&#xe21b;" horiz-adv-x="1366" d="M113 -14v424v163q2 274 10 304q2 4 2 6q33 141 186.5 241.5t368.5 100.5q227 0 389 -110.5t180 -285.5q2 -12 2 -432v-411q-14 -31 -41 -31q-18 0 -39 27l-4 847q-14 57 -29.5 90t-54.5 74q-63 70 -171.5 110t-227.5 40q-170 0 -318.5 -83t-168.5 -239q-2 -10 -2 -426 v-409q-14 -29 -41 -29t-41 29z" />
<glyph unicode="&#xe21c;" horiz-adv-x="1366" d="M113 786l2 412q20 27 39 27q20 0 41 -27v-424l2 -422l4 -20q29 -137 170 -216t309 -79q170 0 318.5 83t168.5 238q2 10 2 426v410q16 31 41 31h2q25 0 39 -31v-424v-164q-2 -274 -10 -303q-2 -4 -2 -6q-39 -158 -200.5 -250t-356.5 -92q-133 0 -255 44t-211 137t-101 218 q-2 14 -2 432z" />
<glyph unicode="&#xe21d;" horiz-adv-x="854" d="M113 -231q0 45 29.5 72.5t68.5 27.5q41 0 69.5 -28.5t28.5 -69.5q0 -78 -92 -101q0 -8 17.5 -22.5t39.5 -14.5q43 0 74 68q23 53 37 168t36.5 338t53.5 428q49 332 92 526q63 305 236 305q86 0 125 -71.5t39 -139.5q0 -47 -30 -73.5t-69 -26.5q-41 0 -69.5 28.5 t-28.5 69.5q0 78 92 101q0 4 -7 12t-21.5 16.5t-28.5 8.5q-12 0 -27 -9q-41 -20 -61.5 -114t-48.5 -371q-49 -508 -150 -1014q-37 -184 -106 -264q-55 -55 -129 -61q-92 0 -131 72.5t-39 138.5z" />
<glyph unicode="&#xe21e;" d="M113 340q0 154 94 283t248 129q78 0 152.5 -38t134.5 -91l120 -107q59 -53 130 -91t143 -38q127 0 206.5 96.5t79.5 208.5q0 25 9.5 42.5t19.5 17.5q29 0 29 -68q0 -152 -93.5 -281t-234.5 -129h-16q-76 0 -151 37t-136 91l-121 108q-59 53 -130 90t-140 37 q-90 0 -160 -51q-74 -59 -101.5 -139t-31.5 -127.5t-23 -47.5q-28 0 -28 68z" />
<glyph unicode="&#xe21f;" d="M113 174q0 84 34.5 151.5t86 105.5t100.5 57.5t86 19.5q4 0 16.5 1t20.5 1q80 0 150.5 -30.5t197.5 -112.5l102 -66q121 -72 226 -72q115 0 196.5 60.5t91.5 161.5q0 59 29 59t29 -66q0 -131 -97.5 -231t-244.5 -100q-84 0 -178.5 44t-165 96t-162.5 96t-172 44 q-123 0 -204 -67.5t-85 -153.5q-6 -59 -29 -59q-28 0 -28 61zM113 653q0 84 34.5 151.5t86 105.5t100.5 57.5t86 19.5q4 0 16.5 1t20.5 1q80 0 150.5 -30.5t197.5 -112.5l102 -66q121 -72 226 -71q115 0 196.5 60t91.5 161q0 23 8.5 41t20.5 18q29 0 29 -63 q0 -135 -96.5 -234.5t-245.5 -99.5q-84 0 -178.5 44t-165 96t-162.5 96t-172 44q-123 0 -204 -67.5t-85 -153.5q-4 -59 -29 -59q-28 0 -28 61z" />
<glyph unicode="&#xe220;" d="M115 313q0 31 32 41h523l161 316h-684q-33 10 -32 41q0 27 28 41h729q350 686 361 696q6 18 33 18q14 0 24 -9t13.5 -17t3.5 -15q0 -8 -342 -673h483q31 -16 31 -41q0 -23 -29 -39l-526 -2l-164 -316h690q2 -2 6 -5t6 -4t5 -4l6 -5q2 -2 3 -5t2 -7.5t1 -10.5 q0 -27 -31 -41h-729q-360 -702 -371 -706q-8 -6 -22.5 -6t-24.5 7t-13 15t-3 15q0 14 10 28l332 647h-484q-28 14 -28 41z" />
<glyph unicode="&#xe221;" d="M115 115q0 31 32 41h1299q33 -12 33 -41q0 -25 -31 -41h-1305q-28 14 -28 41zM115 512q0 27 28 41h1305q31 -16 31 -41t-31 -41h-1305q-28 14 -28 41zM115 909q0 27 28 41h1305q31 -16 31 -41q0 -29 -33 -41h-1299q-32 10 -32 41z" />
<glyph unicode="&#xe222;" d="M170 713q2 23 27 35q16 8 585.5 277t579.5 273q8 4 18 5q16 0 28.5 -13.5t12.5 -30t-14 -28.5q-2 -2 -553 -264l-545 -258l508 -242q590 -279 598 -289q6 -12 6 -22q0 -37 -37 -41h-12l-590 278q-594 281 -598 285q-14 10 -14 35zM172 -242q0 20 31 41h1186 q33 -12 32 -41q0 -25 -30 -41h-1190q-29 14 -29 41z" />
<glyph unicode="&#xe223;" d="M170 156v3.5v3.5q0 14 31 32q39 20 307 147l266 125l508 242l-545 258l-327 155q-180 84 -210 101.5t-30 38.5q0 16 13.5 28.5t19.5 12.5q16 0 316 -141l593 -280q293 -140 295 -143q14 -10 14 -30.5t-14 -30.5q-4 -4 -598 -285l-590 -278h-12q-37 4 -37 41zM172 -242 q0 20 31 41h1186q33 -12 32 -41q0 -25 -30 -41h-1190q-29 14 -29 41z" />
<glyph unicode="&#xe224;" horiz-adv-x="2048" d="M115 512q0 14 6 23q6 10 567 316t572 310l8 2q6 -2 12 -2q29 -10 29 -39q0 -16 -13 -28q-2 -4 -530 -293l-526 -289l526 -289q528 -289 530 -293q12 -12 13 -28q0 -12 -10.5 -25.5t-30.5 -13.5h-2q-12 0 -168 84l-424 233q-549 301 -553 309q-6 9 -6 23zM739 512 q0 14 6 23q6 10 567.5 316t571.5 310l8 2q6 -2 13 -2q29 -10 28 -39q0 -16 -12 -28q-2 -4 -530 -293l-527 -289l527 -289q528 -289 530 -293q12 -12 12 -28q0 -12 -10 -25.5t-31 -13.5h-2q-12 0 -168 84l-424 233q-549 301 -553 309q-6 9 -6 23z" />
<glyph unicode="&#xe225;" horiz-adv-x="2048" d="M113 -96q0 16 12 28q2 0 70 38l200 111l260 142l2 2h2l3 2h2l2 2l2 2h2l4 2h2l2 3h2l2 2l2 2h2l2 2h2l2 2h2l2 2l2 2h2l2 2h3l2 2h2l2 2l2 2h2l4 2h2l2 2h2l2 2l2 2h2l2 2h2l2 2h2l2 2l2 2h2l3 2h2l2 2h2l2 3h2l2 2l2 2h2l2 2h2l2 2l4 2l406 225q-1051 571 -1053 578 q-14 12 -14 28.5t11 28.5t28 12q14 0 272 -141l324 -176q549 -301 555 -309q6 -12 6 -23q0 -18 -27 -37q-25 -16 -534 -295q-578 -313 -586 -315q-6 -2 -12 -2q-16 0 -26.5 13.5t-10.5 27.5zM737 -96q0 16 13 28q2 0 69 38l201 111l260 142l2 2h2l2 2h2l2 2l2 2h2l4 2h2l3 3 h2l2 2l2 2h2l2 2h2l2 2h2l2 2l2 2h2l2 2h2l2 2h2l2 2l2 2h2l4 2h3l2 2h2l2 2l2 2h2l2 2h2l2 2h2l2 2l2 2h2l2 2h2l2 2h2l2 3h2l2 2l2 2h3l2 2h2l2 2l4 2l405 225q-1051 571 -1052 578q-14 12 -14.5 28.5t11 28.5t27.5 12q14 0 273 -141l323 -176q549 -301 555 -309 q6 -12 6 -23q0 -18 -26 -37q-25 -16 -535 -295q-578 -313 -586 -315q-6 -2 -12 -2q-16 0 -26.5 13.5t-10.5 27.5z" />
<glyph unicode="&#xe226;" d="M172 512q0 250 169 409.5t396 182.5h22q19 0 51 1t72 1h91h100h318q31 -16 30 -41q0 -18 -26 -39l-326 -2h-106h-60q-154 0 -212 -9t-146 -48q-45 -23 -87 -54.5t-92.5 -86t-81 -136.5t-30.5 -178v-10q0 -180 125 -320q121 -131 293 -168q41 -10 77.5 -11t319.5 -3h326 q27 -20 26 -41q0 -25 -30 -41h-314q-33 0 -95 -1t-93 -1q-172 0 -298 34t-239 142q-180 168 -180 420z" />
<glyph unicode="&#xe227;" d="M170 -41q0 20 27 41h325h109h59q154 0 210 8t149 49q43 23 85 54.5t93 86t81.5 136.5t30.5 178q0 186 -127 330q-72 78 -163 125q-90 39 -150.5 48t-212.5 9h-59h-105l-325 2q-27 20 -27 39q0 25 31 41h313q33 0 95.5 1t92.5 1q172 0 298 -34t239 -142q180 -166 180 -420 q0 -174 -89 -309t-215 -203t-265 -80q-16 -2 -336 -2h-313q-31 16 -31 41z" />
<glyph unicode="&#xe228;" d="M172 709q0 250 169 409.5t396 181.5h22q19 0 51 1.5t72 1.5h91h100h318q31 -16 30 -41q0 -18 -26 -39l-326 -2h-106h-60q-154 0 -212 -9.5t-146 -48.5q-45 -23 -87 -54.5t-92.5 -85.5t-81 -136t-30.5 -178v-11q0 -180 125 -319q121 -131 293 -168q41 -10 77.5 -11 t319.5 -3h326q27 -20 26 -41q0 -25 -30 -41h-314q-33 0 -95 -1t-93 -1q-172 0 -298 33.5t-239 142.5q-180 168 -180 420zM213 -241.5q0 26.5 29 40.5h1149q31 -16 30.5 -40.5t-30.5 -41.5h-1149q-29 15 -29 41.5z" />
<glyph unicode="&#xe229;" d="M170 156q0 20 27 41h325h109h59q154 0 210 8t149 49q43 23 85 54.5t93 86t81.5 136t30.5 178.5q0 186 -127 329q-72 78 -163 125q-90 39 -150.5 48.5t-212.5 9.5h-59h-105l-325 2q-27 20 -27 39q0 25 31 41h313q33 0 95.5 1t92.5 1q172 0 298 -34t239 -143 q180 -166 180 -419q0 -174 -89 -309.5t-215 -203t-265 -79.5q-16 -2 -336 -2h-313q-31 16 -31 41zM172 -241.5q0 26.5 29 40.5h1149q31 -16 30.5 -40.5t-30.5 -41.5h-1149q-29 15 -29 41.5z" />
<glyph unicode="&#xe22a;" d="M115 512q0 295 204.5 488.5t466.5 193.5q299 0 496 -200.5t197 -481.5q0 -287 -200 -484.5t-480 -197.5q-289 0 -486.5 199.5t-197.5 482.5zM197 455q16 -147 87.5 -261t164 -170.5t170 -83t131.5 -26.5h6v557h-559v-16zM197 553h559v557h-11q-115 -6 -232.5 -67.5 t-209.5 -187.5t-106 -286v-16zM838 -86h6q35 0 91 13.5t132 52t142.5 96t119.5 157t66 222.5v16h-557v-557zM838 553h557v16q-12 123 -64.5 221.5t-119 156t-142.5 96t-132 53t-93 14.5h-6v-557z" />
<glyph unicode="&#xe22b;" d="M115 512q0 295 204.5 488.5t466.5 193.5q299 0 496 -200.5t197 -481.5q0 -287 -200 -484.5t-480 -197.5q-289 0 -486.5 199.5t-197.5 482.5zM195 512q0 -242 170 -420t432 -178q258 0 429 178t171 420q0 147 -67.5 280.5t-212 225.5t-337.5 92q-223 0 -404 -170 t-181 -428zM637 512q0 72 43 112t88 48q2 0 14.5 1t20.5 1q66 -6 108.5 -49t42.5 -113q0 -68 -44 -114t-113 -46q-72 0 -116 47t-44 113z" />
<glyph unicode="&#xe22c;" d="M113 41q0 12 8 22.5t15 14.5t9 4h611v1253q0 2 3 6.5t4 7.5t5 7t8 6t10.5 4t14.5 2q23 -4 37 -31v-1255h612q31 -16 31 -41t-31 -41h-1305q-2 0 -9 4t-15 14.5t-8 22.5z" />
<glyph unicode="&#xe22d;" horiz-adv-x="1820" d="M121 41q0 8 6 20q6 14 375.5 697.5t374.5 689.5q0 2 4 6t12 8t16 4q14 0 23 -8q8 -4 387 -704l377 -699v-14q0 -27 -29 -41h-1513l-7 4q-6 2 -11 6t-10 12.5t-5 18.5zM231 82h1356q0 4 -338 629l-340 626q-2 0 -340 -626.5t-338 -628.5z" />
<glyph unicode="&#xe22e;" horiz-adv-x="1820" d="M121 983q0 10 5 18.5t10 12.5t11 6l7 4h1513q29 -14 29 -41v-12l-377 -701q-381 -700 -387 -704q-8 -6 -22.5 -6t-22.5 6q-8 4 -187 334l-365 679q-187 349 -204 375q-10 25 -10 29zM231 942q0 -2 338 -628.5t340 -626.5t340 626.5t338 628.5h-1356z" />
<glyph unicode="&#xe22f;" horiz-adv-x="2048" d="M115 512q0 211 79.5 393t206.5 302t286 188.5t319 68.5q168 0 294 -45q121 -41 230.5 -118.5t202 -189.5t146.5 -267.5t54 -331.5q0 -393 -264 -672.5t-645 -279.5q-88 0 -145 10q-317 55 -540.5 315t-223.5 627zM197 512q0 -184 67.5 -348t181 -278.5t264 -180 t314.5 -65.5q336 0 581.5 250.5t245.5 621.5q0 344 -215 586.5t-524 281.5q-18 2 -102 2q-139 0 -279.5 -58t-261.5 -163.5t-196.5 -275.5t-75.5 -373z" />
<glyph unicode="&#xe230;" d="M113 395q0 63 6 111.5t49 143.5t125 190q59 68 186 180q98 92 165 204.5t93.5 183.5t40.5 77q12 4 19 4q12 0 19 -4t15.5 -18.5t14.5 -29.5l21 -52l32 -72q86 -174 215 -293q182 -160 274.5 -297t92.5 -305q0 -127 -24.5 -226.5t-87 -167t-161.5 -67.5 q-143 0 -205.5 60.5t-62.5 117.5v8h-102v-16q0 -82 14 -163t28.5 -132t14.5 -61q0 -39 -61 -39q-8 0 -20.5 1t-16.5 1t-15.5 -1t-19.5 -1q-63 0 -64 41q0 8 14.5 59t29 132t14.5 163v16h-103v-8q0 -18 -10 -45t-35.5 -58.5t-82 -53t-134.5 -21.5h-20q-96 0 -174 99t-84 339z " />
<glyph unicode="&#xe231;" d="M113 1004q0 137 32.5 234t88 143t108.5 65.5t113 19.5q117 0 206 -66.5t136 -160.5q4 10 12 24.5t40 54.5t67.5 69.5t95 54t125.5 24.5q178 0 261 -132t83 -330q0 -72 -10.5 -131.5t-70 -172t-167.5 -235.5q-59 -63 -134 -135t-106.5 -106t-72.5 -95t-76 -145 q-8 -29 -17.5 -40.5t-29.5 -11.5q-14 0 -21.5 4.5t-13.5 17.5t-12.5 30.5t-23.5 52.5t-40 74q-33 55 -77 103t-119.5 121t-129.5 130q-152 170 -199.5 296t-47.5 243zM195 1006q0 -156 86 -297q76 -131 263 -311.5t242 -299.5l11 -18q4 6 17 32l17 33q4 8 18.5 31t26.5 37 l30 38q19 24 44 48l56 53q164 158 249 269q143 190 144 376q0 193 -70 295q-74 92 -190 92q-125 0 -203 -86t-96 -196q-6 -49 -41 -49q-8 0 -21 6q-16 6 -22 40t-28.5 91t-74.5 110q-86 82 -196 82h-13h-18l-8 -2h-12q-113 -20 -162 -125.5t-49 -248.5z" />
<glyph unicode="&#xe232;" d="M113 578q0 10 4 17t15 19.5t25.5 24.5t43 40l59.5 60q143 152 268 333t177 286l53 104q0 6 11 16.5t26 10.5q20 0 30.5 -12.5t28.5 -49.5q6 -10 8 -16q236 -459 590 -788q29 -27 29 -45.5t-29 -45.5q-369 -342 -621 -845q-8 -18 -32 -19h-2q-20 0 -27.5 9.5t-38.5 66.5 q-225 438 -549 750l-51 49q-18 15 -18 35zM215 578l37 -35q178 -174 302 -351.5t243 -392.5l26 49l73 125q44 74 105.5 165t151.5 199.5t188 205.5l37 35l-37 34q-178 174 -302 351.5t-242 392.5l-27 -49l-73 -125q-44 -74 -105.5 -165t-151.5 -199.5t-188 -205.5z" />
<glyph unicode="&#xe233;" d="M57 356q0 166 84 282t217 116q35 0 66 -9.5t52.5 -21.5t36.5 -24.5t23.5 -21.5t10.5 -9l43 92l-17 14q-16 14 -26 27l-29 34q-18 22 -30.5 46t-24.5 56t-19.5 71t-7.5 82q0 170 107.5 283.5t253.5 113.5q147 0 253.5 -112.5t106.5 -284.5q0 -43 -6 -82t-19.5 -70 l-24.5 -54.5t-31 -45.5l-28 -34q-9 -11 -28 -28l-16 -16l43 -92q2 0 10 9t24.5 21.5t37 24.5t53 21.5t69.5 9.5q119 0 207 -108.5t88 -289.5q0 -178 -104.5 -289.5t-245.5 -111.5q-25 0 -53.5 5t-73.5 19.5t-78 53.5t-41 96v14h-102v-16q0 -82 14 -163t28.5 -132t14.5 -61 q0 -39 -61 -39q-8 0 -20.5 1t-16.5 1t-15.5 -1t-19.5 -1q-63 0 -64 41q0 8 14.5 59t29 132t14.5 163v16h-103v-14q-8 -78 -78.5 -126t-171.5 -48q-133 0 -239.5 110.5t-106.5 290.5z" />
<glyph unicode="&#xe234;" horiz-adv-x="796" d="M113 741v584q0 197 10 207q6 4 33 4h14q8 0 25 -12v-635l18 12q82 55 197 55q111 0 190.5 -79.5t79.5 -219.5q0 -356 -467 -680l-33 -22h-26q-27 0 -39 12zM195 70q117 117 203.5 273.5t86.5 315.5q0 78 -25.5 136.5t-84.5 58.5q-51 0 -100.5 -21.5t-67.5 -58.5 q-10 -16 -11 -59t-1 -312v-333z" />
<glyph unicode="&#xe235;" horiz-adv-x="796" d="M133 -184v1661q27 27 60 26q12 0 20 -14v-580l25 11l85 33l103 42q215 84 217 84q8 0 21 -12v-1497q-37 -27 -62 -27q-10 0 -20 15v415l-29 -10q-27 -12 -81 -34l-103 -40q-211 -86 -217.5 -85.5t-18.5 12.5zM213 27q365 145 367 147q2 0 2 342q0 340 -2 340l-109 -45 l-184 -74l-74 -28v-682z" />
<glyph unicode="&#xe236;" horiz-adv-x="796" d="M113 -45q0 29 7 37t40 18l26 10v342q0 340 -2 340q-6 0 -20 -8t-25 -8q-12 0 -24 12l-2 82v58q0 29 7 37t40 18l26 10v209v150q0 55 4.5 65t26.5 16q27 12 41 7q8 -4 9 -30t1 -185v-201l258 96v213l2 211l4 4q2 6 25 14.5t29 8.5q14 0 18 -17.5t4 -89.5v-110 q0 -201 2 -201q6 0 19.5 7t23.5 7q16 0 29 -10v-172l-6 -4q-4 -6 -37 -17l-31 -12v-342q0 -340 2 -340q6 0 19.5 7.5t23.5 7.5q16 0 29 -11v-172l-6 -4q-4 -6 -37 -16l-31 -12v-140v-90q0 -47 -4 -55t-26 -14q-16 -8 -29 -9q-23 0 -23 62v84v131l-258 -96v-283 q-16 -10 -31.5 -17.5t-23.5 -7.5l-6 -2q-14 0 -17.5 13.5t-3.5 58.5v76q0 129 -2 129q-6 0 -20 -8.5t-25 -8.5q-12 0 -24 13l-2 82v57zM268 51l258 96v684l-258 -96v-684z" />
<glyph unicode="&#xe240;" horiz-adv-x="2355" d="M131 514q0 20 20.5 29.5t70.5 25t93 39.5q119 63 199 169t111 237q8 33 17 40t40 7h10q51 -2 60 -17q2 -6 2 -14q0 -6 -9 -39q-39 -170 -157 -313q-68 -74 -107 -100l848 -3h848q43 -27 43 -61q0 -41 -43 -61l-848 -2h-848q215 -178 264 -416q8 -33 9 -39q0 -29 -52 -31 h-10h-12q-31 0 -38 6t-17 41q-14 57 -41 115.5t-78 130.5t-140.5 130t-205.5 89q-29 8 -29 37z" />
<glyph unicode="&#xe241;" horiz-adv-x="1177" d="M29 866q0 45 8 54.5t47 19.5q63 14 118.5 40t98.5 55.5t79 64.5t61.5 69.5t46 68.5t32.5 63.5l20.5 52t12.5 35.5l4 14q8 18 33 18q20 -4 25.5 -10t13.5 -35q49 -164 175 -280.5t292 -155.5q37 -10 45 -19.5t8 -54.5q0 -55 -39 -55q-23 0 -85 18.5t-168.5 79 t-182.5 150.5l-21 24l-2 -716v-717q-23 -45 -61 -45q-47 0 -62 45l-2 717v716l-20 -24q-78 -90 -183.5 -150.5t-168 -79t-86.5 -18.5q-39 0 -39 55z" />
<glyph unicode="&#xe242;" horiz-adv-x="2355" d="M133 514q0 39 45 61h846l848 3q-68 45 -147.5 153.5t-116.5 255.5q-8 37 -9 39q0 23 23 33q4 2 41 2h10q31 0 38 -6t18 -41q41 -170 162.5 -296t289.5 -165q41 -14 41 -39q0 -23 -17.5 -31t-67.5 -23.5t-99 -41.5q-119 -63 -199 -169t-110 -237q-8 -33 -17.5 -40 t-40.5 -7h-10q-51 2 -59 17q-2 6 -3 14q0 6 9 39q57 248 264 416h-848l-846 2q-45 14 -45 61z" />
<glyph unicode="&#xe243;" horiz-adv-x="1177" d="M29 158q0 55 39 55q23 0 84 -17.5t167.5 -79t186.5 -151.5l20 -24v716q0 713 4 725q18 39 62 39q12 -2 22.5 -7t14.5 -9t12 -15.5t10 -13.5v-719l2 -716l21 24q76 88 180 148.5t167.5 80t88.5 19.5q39 0 39 -55q0 -43 -8 -53.5t-45 -20.5q-111 -27 -200 -84t-138 -118.5 t-83 -125t-45.5 -98.5t-11.5 -41q-10 -14 -28 -14q-20 0 -30.5 16t-16.5 44t-30 78t-62 101q-141 188 -367 242q-39 10 -47 19.5t-8 54.5z" />
<glyph unicode="&#xe244;" horiz-adv-x="2355" d="M131 514q0 20 20.5 29.5t70.5 25t93 39.5q119 63 199 169t111 237q8 33 17 40t40 7h10q51 -2 60 -17q2 -6 2 -14q0 -6 -9 -39q-39 -170 -157 -313q-68 -74 -107 -100l346 -3h697l348 3q-70 47 -154 163.5t-110 249.5q-8 33 -9 39q0 29 52 31h10h12q31 0 38 -6t18 -41 q41 -170 162.5 -296t289.5 -165q41 -14 41 -39q0 -23 -17.5 -31t-67.5 -23.5t-99 -41.5q-119 -63 -199 -169t-110 -237q-8 -33 -17.5 -40t-40.5 -7h-10q-51 2 -59 17q-2 6 -3 14q0 6 9 39q57 248 264 416h-1391q215 -178 264 -416q8 -33 9 -39q0 -29 -52 -31h-10h-12 q-31 0 -38 6t-17 41q-14 57 -41 115.5t-78 130.5t-140.5 130t-205.5 89q-29 8 -29 37z" />
<glyph unicode="&#xe245;" horiz-adv-x="1177" d="M29 8q0 55 39 55q23 0 84 -17t167.5 -78.5t186.5 -151.5l20 -25v1442l-20 -25q-78 -90 -183.5 -150.5t-168 -78.5t-86.5 -18q-39 0 -39 55q0 45 8 54t47 20q164 39 290 155.5t175 280.5q14 45 41 45q23 0 32 -25l33 -87q25 -62 72 -128q141 -188 369 -241 q37 -10 45 -19.5t8 -54.5q0 -55 -39 -55q-23 0 -85 18t-168.5 78.5t-182.5 150.5l-21 25l-2 -361v-720l2 -361l21 25q76 88 180 148.5t167.5 79.5t88.5 19q39 0 39 -55q0 -43 -8 -53t-45 -21q-166 -39 -291 -155.5t-176 -280.5q-14 -45 -39 -45q-18 0 -28.5 16.5t-17.5 44 t-32 78t-61 101.5q-141 188 -367 241q-39 10 -47 19.5t-8 54.5z" />
<glyph unicode="&#xe246;" horiz-adv-x="2355" d="M131 1382q0 12 8 24.5t27 12.5q10 0 27 -6q139 -68 282 -67q131 0 240.5 49t144.5 84q4 4 19 4q18 0 46.5 -26.5t28.5 -43.5q0 -18 -28 -39q-186 -141 -430 -147h-50l1102 -951l322 -279l252 -218l84 -72q14 -16 14 -41q0 -35 -20.5 -49t-40.5 -14h-5q-18 0 -231 182 l-260 225q-1294 1114 -1298 1114v-6q2 -8 2 -14q8 -39 8 -115q0 -98 -23.5 -190t-47 -138.5t-38.5 -54.5q-18 -8 -30 -2q-61 35 -62 68q0 6 20.5 46t41 113.5t20.5 163.5q0 111 -31.5 199t-62.5 134t-31 54z" />
<glyph unicode="&#xe247;" horiz-adv-x="2355" d="M131 -336q0 23 16 43q14 14 635 547l1131 973h-51q-147 0 -305 71.5t-158 114.5q0 14 27.5 42t52.5 28q8 0 40.5 -21.5t75.5 -47t122 -47t167 -21.5q80 0 146.5 18t106.5 36.5t52 18.5q14 0 23.5 -12t9.5 -25q0 -8 -19.5 -38.5t-43 -71.5t-43 -116t-19.5 -161 q0 -90 20.5 -163.5t41 -112.5t20.5 -47q0 -14 -15.5 -31.5t-29.5 -26.5l-16 -10q-8 -4 -15 -4q-8 0 -14 4t-12 12.5l-10.5 14.5t-9.5 17t-7 16q-43 90 -61 194q-10 47 -11 133v17q0 74 13 125q-2 0 -441 -379l-879 -760q-441 -381 -452 -385q-8 -4 -26 -4q-33 0 -47.5 19.5 t-14.5 39.5z" />
<glyph unicode="&#xe248;" horiz-adv-x="2355" d="M133 1358q0 35 18.5 49t38.5 14h7q16 0 45.5 -22.5t175.5 -149.5l274 -235q1292 -1114 1297 -1114l-2 6v14q-8 39 -9 117q0 96 23.5 188t48.5 138.5t37 54.5q18 8 31 2q61 -35 61 -68q0 -6 -20.5 -46t-41 -113.5t-20.5 -163.5q0 -86 19.5 -161t43.5 -115l43 -70 q19 -31 19 -41q0 -12 -8 -24.5t-27 -12.5q-12 0 -26 6q-139 68 -279 67q-209 0 -369 -118q-25 -18 -38 -19q-16 0 -48 29q-29 23 -28.5 41t28.5 39q186 141 431 147h49l-1102 951l-322 279l-250 218l-86 72q-14 16 -14 41z" />
<glyph unicode="&#xe249;" horiz-adv-x="2355" d="M131 -358q0 6 31 52t62.5 135t31.5 200q0 90 -20.5 163.5t-41 112.5t-20.5 47q0 14 15.5 31.5t31.5 26.5l15 10q8 4 14 4q8 0 14 -4t12.5 -12.5t10.5 -14.5t9 -17t7 -16q43 -90 62 -194q10 -47 10 -131q0 -49 -3 -85t-7 -48l-3 -11q2 0 435 374l874 756q442 382 465 396 q12 4 23 4q33 0 48 -20.5t15 -40.5q0 -23 -16 -43q-14 -14 -635 -547l-1131 -971l52 -2q147 0 304.5 -71.5t157.5 -114.5q0 -14 -28.5 -42t-46.5 -28q-14 0 -37 19q-166 119 -373 118q-80 0 -146.5 -18t-106.5 -36.5t-52 -18.5q-14 0 -23.5 12.5t-9.5 24.5z" />
<glyph unicode="&#xe24a;" horiz-adv-x="2355" d="M131 285q0 35 47 61h742l743 2l29 21q33 27 69.5 50t65.5 39l53 27l39 19l14 8l-51 29q-109 53 -192 116l-29 23h-741l-742 2q-47 20 -47 59q0 37 47 64h674l674 2l-21 22q-55 63 -110.5 148.5t-55.5 109.5q0 33 52 33h10h10q29 0 44 -15t26.5 -43t55.5 -89.5t114 -130.5 q221 -221 518 -287q2 0 9 -2t9 -3t8.5 -2t8.5 -3t6 -5t6 -7.5t3 -9.5t1 -11q0 -16 -9 -24.5t-35 -14.5l-57 -13q-32 -7 -88.5 -28.5t-117.5 -52.5q-281 -150 -440 -428q-18 -33 -26.5 -39t-35.5 -6h-10q-63 0 -64 31q0 14 17 43q68 123 155 223l17 18h-674l-674 2 q-47 17 -47 62z" />
<glyph unicode="&#xe24b;" horiz-adv-x="2355" d="M96 514q0 6 1 11t4 9.5t6.5 7.5t9.5 5l9 3q3 1 10 3t9 4q358 129 543 461q45 90 55 96q8 6 33 6h10q35 0 43 -4q27 -14 19 -40.5t-51 -104.5t-88 -135l-23 -31h981l-22 31q-45 57 -88.5 135t-51.5 104.5t19 40.5q8 4 43 4q12 0 18 -1t13.5 -1t11.5 -4t8 -6t9 -12.5 t9 -17.5t12.5 -26.5t16.5 -33.5q57 -104 132 -187t149.5 -134.5t130 -81t110.5 -50.5l58 -22q12 -12 12 -29q0 -23 -35 -39q-213 -76 -375 -227q-137 -133 -213 -299q-14 -31 -23 -37t-44 -6t-43 4q-18 8 -19 29q0 31 52.5 119.5t93.5 142.5l16 20h-981l16 -20 q37 -47 72 -106.5t53.5 -96.5t20.5 -47q8 -27 -19 -41q-8 -4 -42.5 -4t-44 6t-23.5 37q-76 166 -213 299q-63 59 -134 106t-117 68.5t-93 40t-53 22.5q-13 13 -13 29zM336 514l24 -14q92 -53 209 -154h1215q117 100 209 154l24 14q-109 59 -211 148l-22 18h-1215 q-29 -23 -51 -43.5t-33.5 -29.5t-46.5 -30z" />
<glyph unicode="&#xe24c;" horiz-adv-x="1308" d="M2 1343v17q-6 43 45 59h8q39 0 56.5 -27.5t97.5 -207.5l94 -211h705l84 194l31.5 68t23.5 55.5t18.5 42t15.5 33.5t12 23.5t12 16.5t11.5 9t13.5 5t17 1q27 0 45.5 -20.5t16.5 -44.5q-4 -18 -302 -690t-309 -682q-16 -16 -43 -17q-29 0 -45 17q-8 8 -309 684zM358 846 l295 -666l297 668h-297q-295 0 -295 -2z" />
<glyph unicode="&#xe24d;" horiz-adv-x="1286" d="M123 326q0 68 22 147q51 215 232 350q164 123 373 123q84 0 150.5 -28.5t117.5 -120.5l10 -19q2 2 13.5 48t22.5 123t11 138q-4 100 -54 162t-106.5 79.5t-121.5 17.5q-129 0 -213 -84q-25 -25 -15 -25q6 0 21.5 -9t33 -34t17.5 -57q0 -66 -49 -115t-117 -49 q-57 0 -85 34.5t-28 69.5t24 91.5t71 124t138 114.5t206 47q84 0 100 -2q117 -16 203 -62.5t132 -101.5t72.5 -125.5t34 -121t7.5 -101.5q0 -102 -35 -242q-47 -190 -122 -330.5t-151.5 -215t-169 -119.5t-157 -56.5t-133.5 -11.5q-227 0 -347 111q-108 105 -108 250z M401 225q0 -141 187 -141q131 0 227 96q49 47 80 129q74 188 74 301q0 180 -131 228q-2 0 -54 4q-137 0 -215 -78q-27 -27 -40 -46.5t-35.5 -81t-49.5 -173.5q-43 -170 -43 -238z" />
<glyph unicode="&#xe24e;" horiz-adv-x="1308" d="M131 61.5q0 36.5 47 63.5h873v524h-420q-420 0 -428 4q-37 18 -37 58q0 25 7 34t40 29h838v522h-437l-436 2q-47 16 -47 62q0 43 41 57q10 4 485 4h473q39 -27 46 -51v-1319q-14 -37 -46 -49h-952q-47 23 -47 59.5z" />
<glyph unicode="&#xe24f;" horiz-adv-x="1961" d="M115 1376v2q0 12 18 27h1694q18 -14 18 -27q0 -10 -383 -701t-395 -708q-6 -6 -31 -18h-110q-25 10 -33 18q-10 14 -204 364l-382 693l-190 344q0 2 -2 6zM608 1133q2 -4 240 -435l233 -419l471 854h-944z" />
<glyph unicode="&#xe250;" horiz-adv-x="1570" d="M199 514q0 291 198.5 477.5t456.5 208.5h39q37 0 95.5 1t113.5 1h225q2 -2 8 -6l13 -8q6 -4 12 -10.5t9 -15.5t3 -21q0 -43 -45 -62l-233 -2h-89h-69q-18 0 -46 -1t-37 -2l-27 -3q-17 -2 -28.5 -5t-31.5 -7q-156 -39 -269.5 -144.5t-154.5 -250.5q-16 -59 -16 -84 q0 -4 499 -5h502q2 -2 8 -6l13 -8q6 -4 12 -10t9 -15.5t3 -21.5q0 -43 -45 -61l-502 -2q-500 0 -499 -5q0 -25 14 -73.5t50 -122.5t117 -147.5t191 -114.5q80 -29 132.5 -33t263.5 -6h233q2 -2 12.5 -8.5t15.5 -11.5t11 -17t6 -27q0 -37 -45 -59l-219 -2q-250 0 -297 8 q-246 35 -429 218t-183 464z" />
<glyph unicode="&#xe251;" horiz-adv-x="1570" d="M197 -113q0 35 47 62h233q252 2 283 8q4 0 45 10q154 39 267.5 145.5t154.5 249.5q16 59 16 84q0 4 -500 5l-499 2q-47 16 -47 61q0 35 47 61h499q500 0 500 5q0 25 -14.5 73.5t-50 122.5t-116.5 147.5t-192 114.5q-80 29 -132 33t-261 6l-233 2q-47 16 -47 62 q0 43 41 57q10 4 231 4q18 0 58 1t63 1q160 0 301 -41t272 -164q209 -205 209 -485q0 -197 -100.5 -354.5t-250 -239.5t-314.5 -94q-18 -2 -246 -2l-217 2q-47 16 -47 61z" />
<glyph unicode="&#xe252;" horiz-adv-x="1177" d="M131 -446q4 27 397.5 982t395.5 959q18 41 57 41q27 0 46.5 -20.5t16.5 -45.5q-4 -20 -393 -970l-401 -975q-20 -37 -55 -37q-27 0 -46.5 18.5t-17.5 47.5z" />
<glyph unicode="&#xe253;" horiz-adv-x="1961" d="M160 424q0 18 12 27q2 2 82 57l170 116q90 60 108 68q18 4 31 -6q2 -2 195 -367l190 -360l482 846q471 834 485 856q18 18 39 18q37 0 53 -19.5t16 -43.5q0 -16 -266 -483l-287 -506q-545 -967 -555 -977q-16 -16 -51 -19q-35 0 -45 11q-2 2 -110 208l-216 413 q-108 206 -110 206l-74 -49q-82 -55 -90 -55q-14 0 -36.5 21.5t-22.5 37.5z" />
<glyph unicode="&#xe254;" horiz-adv-x="1830" d="M133 455q0 123 47 220t116 147t131 76t108 26h24q80 0 96 -2q279 -39 422 -246l23 -29q207 276 493 277q72 0 107 -13v-116q-18 6 -64 6q-84 0 -159.5 -30t-124.5 -72t-86 -84t-54 -70l-16 -31q131 -203 231 -281q104 -82 220 -81h4q35 0 47 6q2 0 2 -80v-80l-21 -4 q-39 -8 -69 -8h-31q-147 0 -284.5 65.5t-215.5 181.5l-22 29q-209 -279 -492 -278q-172 0 -302 131t-130 340zM238 453q0 -61 16 -123t69.5 -127.5t137.5 -89.5q18 -4 63 -4q82 0 157 29.5t123 71.5t86 84t54 71l17 30q-131 203 -232 281q-98 80 -215 80h-16q-96 0 -178 -84 t-82 -219z" />
<glyph unicode="&#xe255;" horiz-adv-x="2355" d="M133 449q0 203 138.5 340t346.5 137q350 0 556 -248l32 -39l15 16q233 270 534 271q186 0 325.5 -135.5t139.5 -329.5q0 -205 -138 -341t-345 -136q-346 0 -557 247l-33 39l-14 -16q-233 -270 -535 -270q-188 0 -326.5 135t-138.5 330zM238 453q0 -145 95 -241.5 t230 -96.5q236 0 428 219l47 59q0 2 -67.5 79t-67.5 79q-176 190 -356 190q-117 0 -213 -78.5t-96 -209.5zM1532 281q133 -115 270 -115q125 0 219.5 81t94.5 212q0 137 -94.5 237.5t-229.5 100.5q-260 0 -465 -262q-13 -14 -12 -20q0 -84 198 -221z" />
<glyph unicode="&#xe256;" horiz-adv-x="1478" d="M113 41q0 2 2 6v4q-2 4 -2 10q0 2 2 7v4q-2 4 -2 10q0 4 4 16q20 31 592 682l352 404q182 209 215 243.5t49 34.5q18 0 28.5 -12t10.5 -29v-4q20 -10 20 -37q0 -12 -6 -22q-2 -2 -73 -84l-212 -244l-274 -313l-518 -592l490 -2h546q27 -20 27 -41v-4q20 -16 20 -37 q0 -25 -30 -41h-1209l-6 4q-6 2 -11 6t-10 12.5t-5 18.5z" />
<glyph unicode="&#xe257;" horiz-adv-x="653" d="M264 -461v973q0 973 4 981q16 43 57.5 43t63.5 -51v-1946q-18 -49 -61 -49q-46 0 -64 49z" />
<glyph unicode="&#xe258;" horiz-adv-x="1177" d="M297 514q0 971 2 981q20 41 61 41q35 -4 60 -47v-1950q-8 -18 -12.5 -25.5t-17.5 -14.5t-31.5 -7t-28.5 4q-20 12 -31 35q-2 10 -2 983zM756 -461v1950l6 10q6 10 11 17.5t16.5 13.5t25.5 6q16 0 31 -6q20 -14 31 -35q4 -20 4 -981q0 -963 -4 -983q-10 -23 -31 -35 q-10 -4 -27 -4q-14 0 -25.5 3t-17.5 10.5l-9 11.5t-7 12z" />
<glyph unicode="&#xe259;" horiz-adv-x="1570" d="M131 29q0 12 2 16l301 586q301 584 305 588q18 18 49 18q27 -4 41 -18q4 -4 306 -588l301 -586q2 -4 2 -14q0 -29 -18.5 -47.5t-45.5 -18.5q-20 0 -41 17q-8 8 -278 532l-271 522l-270 -522q-270 -524 -276 -530q-16 -16 -43 -17q-35 0 -49.5 21t-14.5 41z" />
<glyph unicode="&#xe25a;" horiz-adv-x="1570" d="M131 1171q0 27 17.5 46.5t44 19.5t45.5 -18q6 -6 276 -531l270 -522l271 522q270 524 278 533q20 16 41 16q27 0 45.5 -18.5t18.5 -47.5q0 -10 -2 -14l-301 -586q-301 -584 -306 -587q-2 -2 -8 -6.5t-8 -6.5q-10 -4 -29 -4h-6q-23 0 -39 17q-4 4 -305 587l-301 586 q0 2 -1 6t-1 8z" />
<glyph unicode="&#xe25b;" horiz-adv-x="1570" d="M131 16v412v160q2 268 10 297q2 4 2 6q29 106 114 181t186.5 106.5t170 44t111.5 12.5h37q147 0 264 -27.5t184.5 -64.5t116.5 -89.5t68.5 -89t29.5 -73.5q0 -2 2 -6q8 -31 11 -252v-45v-160v-412q-18 -49 -62 -49q-45 0 -59 39q-4 10 -4 406q0 401 -2 413 q-18 141 -169 213t-358 72q-90 0 -175 -15.5t-161.5 -48t-128 -89t-61.5 -132.5q-2 -12 -2 -413q0 -395 -4 -406q-14 -39 -59 -39q-44 0 -62 49z" />
<glyph unicode="&#xe25c;" horiz-adv-x="1570" d="M131 569v45v160q0 412 2 420q18 43 59 43t60 -41q4 -10 4 -405q0 -401 2 -414q18 -141 172 -214t354 -73q88 0 173 15.5t162 48t129 90t63 133.5q2 12 2 414q0 395 4 405q14 39 59 39q43 0 62 -49v-412v-160q-2 -268 -11 -297q-2 -4 -2 -6q-41 -152 -211 -248t-430 -96 q-242 0 -418 90t-223 254q0 2 -2 6q-8 31 -10 252z" />
<glyph unicode="&#xe25d;" horiz-adv-x="1165" d="M131 -150q0 74 45 111t98 37q57 0 100.5 -38t43.5 -105q0 -76 -47 -110t-90 -34q-10 0 -11 -2q20 -39 45 -39q20 0 66 19q29 14 50.5 35.5t36.5 57.5l26 61q10 26 17 79t10 73.5t8.5 83t7.5 73.5q41 391 147 849q0 2 6 30t9 40l12 44q8 32 16 51l22 52q13 32 28 52l37 48 q22 28 46.5 47t56 37.5t68.5 31.5q61 23 118.5 22.5t98.5 -32t59.5 -81t25.5 -90.5t7 -79q0 -76 -45 -112t-98 -36q-57 0 -100 38t-43 105q0 76 47 110t90 34q10 0 10 2q-20 39 -45 39q-20 0 -66 -19q-29 -14 -50 -35.5t-37 -57.5l-25 -61q-10 -26 -17.5 -79l-10.5 -73.5 t-8 -83t-7 -73.5q-41 -391 -148 -849q-20 -94 -30.5 -133.5t-40 -97.5t-74.5 -103q-115 -115 -264 -121q-31 0 -54.5 6t-54 24.5t-53.5 64.5t-33 116q-6 28 -6 71z" />
<glyph unicode="&#xe25e;" horiz-adv-x="1830" d="M131 317q0 113 42 220.5t135 185.5t218 78q88 0 173 -42t155 -102l138 -117q69 -58 150 -100.5t163 -42.5q133 0 221 102.5t88 252.5q16 49 41 49q14 0 27.5 -21.5t13.5 -56.5v-23q0 -184 -107.5 -330.5t-283.5 -146.5q-88 0 -174.5 42t-155.5 102l-138 117 q-69 58 -150 100.5t-163 42.5q-129 0 -219 -98.5t-90 -258.5q-14 -47 -39 -47q-20 0 -32.5 27.5t-12.5 66.5z" />
<glyph unicode="&#xe25f;" horiz-adv-x="1830" d="M131 158q0 160 112.5 263t268.5 103q106 0 219 -44t194 -98t184 -98t194 -44q129 0 218 64.5t89 131.5q0 37 13 62.5t31.5 25.5t31 -28.5t12.5 -69.5q0 -152 -109.5 -256t-277.5 -104q-100 0 -211 44t-193 98t-186.5 98t-196.5 44q-102 0 -186 -47t-113 -117 q-2 -4 -6 -37.5t-14 -58t-31 -24.5q-16 0 -29.5 26.5t-13.5 65.5zM131 707q0 160 112.5 263t268.5 103q104 0 217 -44t195 -98t186 -98.5t193 -44.5q131 0 219 66t88 131q0 25 10 56.5t33 31.5q20 0 32.5 -25.5t12.5 -66.5q0 -154 -109.5 -260.5t-281.5 -106.5 q-98 0 -208 44t-192 98.5t-187.5 98.5t-195.5 44q-100 0 -185 -45t-114 -119q-2 -4 -6 -37.5t-14 -58.5t-31 -25q-16 0 -29.5 27t-13.5 66z" />
<glyph unicode="&#xe260;" horiz-adv-x="1830" d="M131 285q0 41 45 59q6 2 567 2l201 336h-766q-47 20 -47 59q0 43 41 60q10 4 746 4h98l179 300l148 248q45 75 48 77q14 27 51 26q20 0 39.5 -14.5t19.5 -46.5q0 -18 -6 -29q-2 -6 -43 -75l-131 -220l-160 -266h492q2 -2 8 -6l12 -8q6 -4 12.5 -10.5t9.5 -15.5t3 -22 q0 -37 -45 -61h-563l-203 -336h766l10 -6l12 -9q4 -3 10.5 -10.5t9.5 -16.5t3 -19q0 -43 -45 -62h-838q-371 -623 -383 -635q-18 -18 -45 -18q-20 0 -39.5 15.5t-19.5 47.5q0 16 4 27q6 6 338 563h-492q-47 19 -47 62z" />
<glyph unicode="&#xe261;" horiz-adv-x="1830" d="M131 55q0 43 47 60h12h36h56h73q42 0 89.5 1t103.5 1h114h123h133h735q2 -2 8 -6.5t9 -5.5t8 -6l9 -8q3 -3 6 -9t4 -12.5t1 -14.5q0 -41 -45 -61h-1475q-47 18 -47 61zM131 514q0 43 41 57q10 4 746 4h735q2 -2 8 -6l12 -8q6 -4 12.5 -10t9.5 -15.5t3 -21.5 q0 -43 -45 -61h-1475q-47 18 -47 61zM131 973q0 45 41 57q10 4 746 4h735q2 -2 10 -7t12 -9t10.5 -11.5t9.5 -16.5t3 -19q0 -37 -45 -60h-1475q-47 19 -47 62z" />
<glyph unicode="&#xe262;" horiz-adv-x="1830" d="M197 -346q0 18 13 35.5t34 23.5h10h33h50h67q38 0 81 1t95 1h104h114h120h669q45 -29 45 -61q0 -37 -45 -62h-1343q-47 17 -47 62zM197 737q0 37 36 58l667 319q642 307 650 309q12 4 19 4q29 0 46 -18t17 -45q0 -25 -18 -43q-8 -8 -577 -280l-634 -302l551 -264 q653 -311 664 -323q14 -16 14 -39q0 -20 -14 -41t-47 -21h-17l-665 318q-668 319 -674 325q-18 18 -18 43z" />
<glyph unicode="&#xe263;" horiz-adv-x="1830" d="M197 111q0 25 18 43q8 10 684 333l526 252q-1194 565 -1210 582q-18 18 -18 45q0 25 17 43t48 18q18 -2 681 -319t671 -326q18 -18 18 -45q0 -25 -18 -43q-6 -6 -674 -325l-664 -318h-16q-35 0 -49 20t-14 40zM197 -346q0 18 13 35.5t34 23.5h10h33h50h67q38 0 81 1t95 1 h104h114h120h669q45 -29 45 -61q0 -37 -45 -62h-1343q-47 17 -47 62z" />
<glyph unicode="&#xe264;" horiz-adv-x="2355" d="M131 512q0 27 19 45q29 20 628 350q645 354 654 357h2q37 0 53 -20.5t16 -39.5q0 -41 -35 -57q-25 -12 -577 -320l-569 -315l577 -319q578 -317 588 -328q16 -16 16 -41t-15 -43.5t-46 -18.5h-4q-16 0 -242 125l-418 232q-600 330 -628 350q-19 18 -19 43zM850 512 q0 27 18 45q29 20 629 350q645 354 653 357h2q37 0 53.5 -20.5t16.5 -39.5q0 -41 -35 -57q-25 -12 -577 -320l-570 -315l578 -319q578 -317 588 -328q16 -16 16 -41t-15.5 -43.5t-45.5 -18.5h-4q-16 0 -242 125l-418 232q-600 330 -629 350q-18 18 -18 43z" />
<glyph unicode="&#xe265;" horiz-adv-x="2355" d="M131 -176q0 25 16 41q10 10 588 328l578 319l-570 315l-389 215q-160 88 -187.5 105.5t-31.5 32.5v2q-4 16 -4 22q0 25 17.5 43.5t44.5 18.5h2q16 0 233 -121l430 -238q600 -330 627 -350q18 -18 18 -45q0 -25 -18 -43q-23 -18 -636 -356l-624 -344q-14 -6 -30 -7 q-35 0 -49.5 21t-14.5 41zM850 -176q0 25 16 41q10 10 588 328l578 319l-570 315l-389 215q-160 88 -187.5 105.5t-31.5 32.5v2q-4 16 -4 22q0 25 17.5 43.5t43.5 18.5h2q16 0 234 -121l430 -238q600 -330 627 -350q18 -18 18 -45q0 -25 -18 -43q-23 -18 -636.5 -356 t-623.5 -344q-14 -6 -31 -7q-35 0 -49 21t-14 41z" />
<glyph unicode="&#xe266;" horiz-adv-x="1830" d="M197 514q0 283 195.5 473.5t461.5 212.5h24h57q36 0 81 1t102 1h113h356q2 -2 8 -6l13 -8q6 -4 12 -10.5t9 -15.5t3 -21q0 -43 -45 -62l-364 -2q-381 -2 -414 -8q-10 -2 -51 -12q-174 -45 -304 -189.5t-130 -353.5q0 -246 180 -405q137 -127 332 -156q18 -2 387 -4h364 q2 -2 12.5 -8.5t15.5 -11.5t11 -17t6 -27q0 -37 -45 -59h-577q-176 0 -240 12q-244 49 -408.5 234.5t-164.5 441.5z" />
<glyph unicode="&#xe267;" horiz-adv-x="1830" d="M197 -113q0 35 47 62h362q381 2 414 8q10 2 51 12q176 45 305 189.5t129 355.5t-144 368.5t-368 190.5q-18 2 -387 4l-362 2q-47 16 -47 62q0 43 41 57q10 4 376 4q309 -2 360.5 -4t94.5 -12q225 -47 393 -227.5t168 -444.5q0 -285 -207 -487q-170 -160 -405 -195 q-49 -8 -426 -8l-348 2q-47 16 -47 61z" />
<glyph unicode="&#xe268;" horiz-adv-x="1830" d="M197 739q0 283 195.5 473.5t461.5 212.5h24h57q36 0 81 1t102 1h113h356q2 -2 8 -6l13 -8q6 -4 12 -10t9 -15.5t3 -21.5q0 -43 -45 -61l-364 -2q-381 -2 -414 -9q-10 -2 -51 -12q-174 -45 -304 -189.5t-130 -353.5q0 -246 180 -405q137 -127 332 -156q18 -2 387 -4h364 q2 -2 12.5 -8t15.5 -11t11 -17.5t6 -26.5q0 -37 -45 -60h-577q-176 0 -240 12q-244 49 -408.5 234.5t-164.5 441.5zM260 -346q0 45 45 59h10h32h47h65q37 0 78 1t90 1h99h109h113h639q2 -2 8 -6l13 -8q6 -4 12 -10t9 -15.5t3 -21.5q0 -43 -45 -62h-1282q-45 17 -45 62z" />
<glyph unicode="&#xe269;" horiz-adv-x="1830" d="M197 113q0 35 47 61h362q381 2 414 8q10 2 51 13q176 45 305 189t129 355t-144 369t-368 190q-18 2 -387 5l-362 2q-47 16 -47 61q0 43 41 57q10 4 376 4q309 -2 360.5 -4t94.5 -12q225 -47 393 -227t168 -445q0 -285 -207 -487q-170 -160 -405 -195q-49 -8 -426 -8 l-348 2q-47 17 -47 62zM197 -346q0 43 41 57q10 4 649 4h639q43 -27 43 -63q0 -41 -43 -60h-1282q-47 19 -47 62z" />
<glyph unicode="&#xe26a;" horiz-adv-x="1830" d="M131 512q0 205 70.5 361.5t185.5 244.5t243 132t259 44q104 0 127 -2q156 -20 284 -80q70 -35 131.5 -87t125 -134t101.5 -205.5t38 -273.5q0 -354 -212 -568t-571 -214q-356 0 -569 215t-213 567zM260 451q6 -51 8 -64.5t14.5 -69t24.5 -83t38 -79t56.5 -84t77.5 -72.5 t107 -71q104 -53 254 -69h12v592h-592zM260 578h592v589h-4q-150 -12 -264.5 -72.5t-170 -123t-94 -159.5t-45 -132t-12.5 -92q-2 -8 -2 -10zM979 -141h10q145 18 254 74.5t164 110.5t95 147.5t46 128t17 108.5q4 16 4 23h-590v-592zM979 578h590l-2 12q-10 115 -46 207 t-87.5 150.5t-109.5 101.5t-117.5 64.5t-105.5 33.5t-79 16l-33 4h-10v-589z" />
<glyph unicode="&#xe26b;" horiz-adv-x="1830" d="M131 512q0 205 70.5 361.5t185.5 244.5t243 132t259 44q104 0 127 -2q156 -20 284 -80q70 -35 131.5 -87t125 -134t101.5 -205.5t38 -273.5q0 -354 -212 -568t-571 -214q-356 0 -569 215t-213 567zM258 510q0 -291 176 -472t479 -181q307 0 482.5 181t175.5 478 q0 293 -177 473t-481 180q-293 0 -474 -175t-181 -484zM686 514q0 94 68.5 159.5t148.5 65.5q117 0 177.5 -69.5t60.5 -157.5q0 -98 -65.5 -161.5t-162.5 -63.5q-100 0 -163.5 68.5t-63.5 158.5z" />
<glyph unicode="&#xe26c;" horiz-adv-x="1830" d="M133 63q0 14 2 21.5t11.5 18t31.5 22.5h674v625l2 626q29 43 53 43q51 0 70 -49v-1245h676q2 -2 8 -6l12 -8q6 -4 12.5 -10.5t9.5 -15.5t3 -22q0 -43 -45 -61h-1475q-45 18 -45 61z" />
<glyph unicode="&#xe26d;" horiz-adv-x="2093" d="M141 63q0 16 26 59l177 281l649 1024q16 29 51 29q27 0 46 -18q8 -10 432 -678t426 -676q4 -12 4 -21q0 -39 -45 -61h-1721q-45 18 -45 61zM315 127l367 -2h729l365 2l-363 569l-177 279l-142 225l-45 72q-2 2 -11 -10q-18 -25 -358 -562z" />
<glyph unicode="&#xe26e;" horiz-adv-x="2093" d="M139 963q0 23 15.5 39t31.5 20h4q416 2 859 2h858q2 -2 12 -9t16.5 -12.5t11.5 -16.5t5 -25q0 -8 -4 -21q-2 -8 -426 -675.5t-432 -678.5q-16 -16 -43 -16q-29 0 -46 16q-6 6 -425.5 667.5t-430.5 680.5q-6 13 -6 29zM315 899q2 -4 364.5 -576.5t364.5 -572.5q0 -2 49 73 l136 214l180 285q365 573 365 575q2 2 -126 2h-601h-732z" />
<glyph unicode="&#xe26f;" horiz-adv-x="2355" d="M133 512q0 426 284.5 685t758.5 259q453 0 739 -239q41 -35 81 -81t97 -133.5t92 -215.5t35 -275q0 -426 -284.5 -685t-760 -259t-759 259t-283.5 685zM256 512q0 -260 125 -449.5t329.5 -279.5t463.5 -90q408 0 665.5 215t257.5 604q0 371 -247.5 595t-665.5 224 q-197 0 -357.5 -48t-265 -127t-174.5 -186.5t-100.5 -221t-30.5 -236.5z" />
<glyph unicode="&#xe270;" horiz-adv-x="1830" d="M131 428q0 166 106.5 303t297.5 283q209 162 313 399q23 59 63 60q45 0 68 -54q59 -135 142 -236.5t155 -153.5t163 -132t152 -166q106 -147 107 -317v-11q-6 -141 -44 -237t-94.5 -136t-97.5 -53.5t-80 -13.5q-285 0 -303 164v16h-102v-30q4 -84 20.5 -156t30.5 -112 t14 -52q0 -39 -36 -53q-8 -4 -91 -4q-2 0 -16 -1t-25 -1q-88 0 -88 59q0 12 14.5 52t31 112t20.5 156v30h-102q-4 -37 -13.5 -62.5t-37 -53t-85 -44t-143.5 -18.5h-25q-221 0 -292 275q-23 94 -23 188z" />
<glyph unicode="&#xe271;" horiz-adv-x="1830" d="M133 1006q0 227 116 337.5t255 110.5q264 0 397 -176l14 -18q147 197 392 196q174 0 281.5 -121t107.5 -329q0 -207 -119 -366t-387 -376q-86 -70 -138.5 -135.5t-63.5 -100t-27.5 -56t-47 -21.5t-44 19.5t-40 74.5t-69.5 107q-39 47 -125 117l-166 140 q-80 69 -160 156.5t-128 201.5t-48 239zM256 1001q0 -164 114.5 -309t350.5 -332q115 -92 174 -182l18 -28l21 28q47 70 105.5 123t146.5 123t164 145q223 223 223 432q0 35 -5 72t-20.5 87t-51.5 92t-89 63q-39 14 -100 14q-59 0 -93 -10q-94 -23 -157.5 -83t-77.5 -142 q-10 -59 -64 -60h-4q-51 0 -59 60q-18 88 -91 151.5t-177 81.5q-16 2 -74 2q-125 0 -189.5 -94.5t-64.5 -233.5z" />
<glyph unicode="&#xe272;" horiz-adv-x="1830" d="M131 578q0 29 53 71q397 317 654 756q2 4 6 11l6 10.5l6 10.5t6 9t6 7t7.5 7t7.5 5t9 4l10 2q5 1 11 2q18 0 28.5 -5.5t26 -27t32 -51t58.5 -93t95 -135.5q125 -168 255 -298t205 -188.5t79 -68.5t4 -28q0 -25 -7.5 -35.5t-48.5 -40.5q-215 -172 -388 -381t-275 -393 q-25 -43 -62 -43q-16 0 -26 4t-18.5 13t-22.5 33l-32 53q-17 30 -55 86l-85 120q-123 166 -253 297t-204 188.5t-76 63.5q-12 19 -12 35zM297 578q4 -4 83 -76t146.5 -139.5t176 -200.5t202.5 -279q8 -14 10 -14v2q6 8 59 85l112 160q60 83 182.5 212t265.5 250q-8 8 -57 51 l-82 73l-95 93q-61 61 -111 119.5t-114.5 142.5t-122.5 174q-6 10 -16 24.5t-14 22.5l-7 6v2q-2 0 -23.5 -34.5t-68.5 -102.5t-110.5 -148.5t-169 -190.5t-226.5 -212z" />
<glyph unicode="&#xe273;" horiz-adv-x="1830" d="M66 365q0 150 94 269.5t246 119.5q39 0 72.5 -8.5t55 -20.5t38 -23.5t24.5 -19.5t10 -8l8 14l22 38q13 24 23 38q-168 121 -167 315q0 172 125.5 283t295.5 111t296 -111t126 -283q0 -197 -166 -315q14 -20 27 -44l18 -35q6 -11 9 -11l14 12q14 12 27.5 21.5t41 22.5 t60.5 20q10 0 26.5 2t28.5 2q150 0 246 -119t96 -273q0 -139 -86 -246.5t-217 -140.5q-47 -10 -117 -10q-248 8 -264 162v16h-102v-30q4 -84 20.5 -156t30.5 -112t14 -52q0 -39 -36 -53q-8 -4 -91 -4q-2 0 -16 -1t-25 -1q-88 0 -88 59q0 12 14.5 52t31 112t20.5 156v30h-102 v-16q-20 -152 -265 -162q-219 0 -340 158q-79 105 -79 242z" />
<glyph unicode="&#xe274;" horiz-adv-x="915" d="M131 750v563q0 156 3 184.5t20 34.5q6 4 41 4q45 0 55 -16.5t10 -98.5q0 -18 -1 -84.5t-1 -117.5v-289q117 53 213 53q129 0 219 -82t90 -225v-17q0 -168 -118 -329q-133 -184 -410 -353l-19 -10l-34 -2q-55 0 -64 21q-4 8 -4 764zM258 449q0 -291 4 -291 q10 10 25.5 27.5t55.5 74.5t70.5 115.5t56.5 142.5t26 164q0 147 -62 147h-10q-123 0 -158 -71l-6 -13z" />
<glyph unicode="&#xe275;" horiz-adv-x="915" d="M117 604v615v147q0 49 2 75.5t4 32t6 9.5q61 35 78 35q25 0 31 -19.5t6 -105.5v-170q0 -266 2 -267q2 2 123 59l248 117q128 60 139 64q25 4 37 -20q4 -8 4 -793v-563v-135q0 -45 -2 -70t-4.5 -29t-6.5 -8q-61 -35 -77 -35q-25 0 -31 18.5t-6 73.5v127q0 190 -2 191 l-252 -121l-258 -119q-25 -4 -37 21q-4 8 -4 870zM244 47q2 0 213 100l213 101v307q0 307 -2 307l-422 -200l-2 -308v-307z" />
<glyph unicode="&#xe276;" horiz-adv-x="915" d="M131 -111q0 74 5 87.5t34 29.5l27 12v615q-20 -10 -31 -10q-23 0 -31 22q-4 6 -4 121v68q0 45 5 55t34 26l27 13v305q6 14 9 16t36 19q33 18 45 18q23 0 30 -16.5t7 -59.5v-86v-133l16 8q18 8 53 26l64 32l133 65v152v106q0 14 1 23.5t0 16.5t2 12.5t4 8.5t7 7t7 5t12 6 l14 7q31 16 43 17q23 0 30 -18.5t7 -61.5v-84v-133q16 8 28 8q25 0 33 -18q4 -8 4 -123v-68q0 -45 -5 -55t-34 -27l-26 -12v-615q16 8 28 9q25 0 33 -19q4 -8 4 -123v-67q0 -45 -5 -55.5t-34 -26.5l-26 -12v-138q0 -53 -5 -62t-40 -26q-33 -18 -45 -18q-37 0 -37 59v45v76 l-17 -8q-18 -8 -53 -26l-63 -31l-133 -66v-94v-62q0 -37 -6.5 -45t-41.5 -28q-33 -16 -43 -17q-37 0 -36 66v41v76q-20 -10 -31 -11q-23 0 -31 23q-4 6 -4 121v32zM324 82l16 8q18 8 53 26l64 31l133 66v307q0 307 -2 307l-264 -131v-614z" />
<glyph unicode="&#xe280;" horiz-adv-x="1933" d="M113 0h1706v-82h-29q-70 -4 -111 -25.5t-51 -40t-18 -45.5v-1660q25 -104 180 -113h29v-82h-652v82h29q70 4 112 26.5t51 39t19 47.5v1771h-825v-887l2 -884q25 -104 180 -113h29v-82h-651v82h28q70 4 112 26.5t51 39t20 47.5v1660q-23 57 -56 78q-43 27 -127 33h-28v82z " />
<glyph unicode="&#xe281;" horiz-adv-x="2162" d="M115 -45q0 33 10 41q6 4 876 4h869l84 -225l45 -126l35 -94q12 -32 12 -34h-41l-41 2q-47 127 -150.5 214t-222.5 124q-109 37 -250 47t-448 10h-240q-279 0 -278 -2q6 -6 337.5 -461.5t334.5 -460.5q12 -18 4 -30l-47 -58l-144 -169l-184 -218l-371 -438q0 -2 436 -2 q53 0 151.5 -1t143.5 -1q354 0 558 56.5t323 242.5q20 33 47 100h82l-176 -522l-869 -2q-868 0 -874 4q-12 4 -12 19q0 10 127 159l260 307l375 445q0 2 -381 524l-379 522z" />
<glyph unicode="&#xe282;" horiz-adv-x="2048" d="M227 -1393l312 244q2 0 106 -244l210 -487q105 -244 108 -246l522 1086l526 1099q14 23 39 23q14 0 25.5 -12.5t13.5 -24.5v-12l-571 -1194l-412 -858l-147 -304q-22 -44 -31 -49q-8 -4 -35 -4l-25 2l-223 519q-223 516 -225 516l-70 -54q-68 -53 -69 -53z" />
<glyph unicode="&#xe283;" horiz-adv-x="681" d="M297 -354q0 59 1 115.5t1 100.5v78v52v20q10 31 41 31q33 0 43 -31q2 -4 2 -626.5t-2 -626.5q-6 -31 -43 -31q-35 0 -41 31v20v53v77q0 44 -1 100.5t-1 116.5v128v132v132v128z" />
<glyph unicode="&#xe284;" horiz-adv-x="1138" d="M297 -354q0 59 1 115.5t1 100.5v78v52v20q10 31 41 31q33 0 43 -31q2 -4 2 -626.5t-2 -626.5q-6 -31 -43 -31q-35 0 -41 31v20v53v77q0 44 -1 100.5t-1 116.5v128v132v132v128zM752 -354q0 59 1 115.5t1 100.5v78v52v20q10 31 41 31q33 0 43 -31q2 -4 2 -626.5t-2 -626.5 q-6 -31 -41 -31q-37 0 -43 31v20v53v77q0 44 -1 100.5t-1 116.5v128v132v132v128z" />
<glyph unicode="&#xe285;" horiz-adv-x="966" d="M113 -2050q0 53 33.5 77.5t66.5 24.5q39 0 69.5 -26.5t30.5 -73.5q0 -23 -8 -42t-20.5 -29.5t-24.5 -16.5l-20 -10l-9 -2q0 -4 13.5 -15.5t41 -24t56.5 -12.5q39 0 66 19q43 27 68.5 86t38.5 175t22.5 241t28 349t42.5 433q6 47 17.5 146.5t18.5 151.5t22.5 139t31 137.5 t42 114t59 99t79 66.5t103.5 41q4 0 19.5 1t25.5 1q104 -6 163.5 -73.5t59.5 -151.5q0 -53 -33.5 -78t-66.5 -25q-39 0 -69.5 27t-30.5 74q0 23 8 42t20.5 29.5t24.5 16.5t20 8l8 4q0 4 -14 16.5t-40.5 23.5t-55.5 11q-47 0 -79 -24.5t-52.5 -83t-32.5 -130t-22.5 -190.5 t-18.5 -235.5t-23.5 -294.5t-35.5 -342q-41 -350 -66.5 -481.5t-68.5 -215.5q-96 -203 -275 -202q-102 0 -167.5 69.5t-65.5 155.5z" />
<glyph unicode="&#xe286;" horiz-adv-x="966" d="M113 -2050q0 53 33.5 77.5t66.5 24.5q39 0 69.5 -26.5t30.5 -73.5q0 -23 -8 -42t-20.5 -29.5t-24.5 -16.5l-20 -10l-9 -2q0 -4 13.5 -15.5t41 -24t56.5 -12.5q39 0 66 19q66 39 89 157.5t48 442.5l6 84l-27 10q-25 12 -61.5 38t-72.5 63.5t-61.5 103t-25.5 145.5 q0 168 104.5 265.5t210.5 109.5l9 2l2 21q4 25 13 105.5t15.5 117.5l20.5 111.5t29.5 115.5t41 98.5t57.5 90t77 60.5t98 38q4 0 19.5 1t25.5 1q104 -6 163.5 -73.5t59.5 -151.5q0 -53 -33.5 -78t-66.5 -25q-39 0 -69.5 27t-30.5 74q0 23 8 42t20.5 29.5t24.5 16.5t20 8l8 4 q0 4 -14 16.5t-40.5 23.5t-55.5 11q-55 0 -91 -32.5t-55.5 -121.5t-25.5 -137.5t-17 -183.5q-2 -12 -2 -18l-16 -209l14 -6q12 -6 35 -18.5t49.5 -30t52 -46t48 -64.5t36 -86t13.5 -108q0 -92 -34 -165.5t-86 -116.5t-102.5 -65.5t-93.5 -28.5l-8 -3l-2 -20 q-4 -35 -13 -104.5t-13 -97t-12.5 -78t-14.5 -75.5l-15 -62q-9 -36 -20.5 -63.5t-25.5 -56.5q-96 -203 -275 -202q-102 0 -167.5 69.5t-65.5 155.5zM383 -1139q0 -78 37 -141t69.5 -89t67.5 -42v12q0 70 57 551q0 2 -2 2q-25 0 -75 -26.5t-102 -98.5t-52 -168zM750 -1430 q25 0 74.5 26t103 97.5t53.5 167.5q0 72 -38 149t-136 126v-13q0 -4 -1 -6t-1 -6t-1 -11t-1 -18.5t-2 -30t-4 -43t-6.5 -62.5t-8.5 -82t-11 -106l-15 -134q-6 -44 -6 -54z" />
<glyph unicode="&#xe287;" horiz-adv-x="1366" d="M229 -367l17 7q14 6 33.5 13t50 22.5t61.5 34t69 47t72.5 59t71.5 74.5t68 92l10 18l14 -23q82 -127 187.5 -205.5t253.5 -138.5v-90l-25 8q-201 76 -358 228l-27 24v-1032h-88v1032l-27 -24q-158 -152 -358 -228l-25 -8v90z" />
<glyph unicode="&#xe288;" horiz-adv-x="1366" d="M229 -772l25 -8q201 -76 358 -228l27 -24v1032h88v-1032l27 24q158 152 358 228l25 8v-90l-19 -6q-16 -6 -34.5 -14.5t-49 -24t-61.5 -33.5t-69 -46t-71.5 -59.5t-70.5 -74.5t-68 -90l-10 -19l-14 23q-82 127 -187.5 205.5t-253.5 138.5v90z" />
<glyph unicode="&#xe289;" horiz-adv-x="1366" d="M639 2h88v-1233h-88v1233z" />
<glyph unicode="&#xe290;" horiz-adv-x="2617" d="M115 0h2386v-111h-21q-268 0 -313 -172v-2300q37 -174 313 -174h21v-110h-1016v110h20q264 0 314 168q2 4 2 6v2472h-1026v-1237l2 -1235q33 -174 313 -174h20v-110h-1015v110h20q264 0 314 168q2 4 2 6v2300q0 2 -4.5 14.5t-8.5 20.5l-12 24q-8 15 -19.5 26.5t-28 25.5 t-40 24.5t-52 18.5t-67.5 13t-84 5h-20v111z" />
<glyph unicode="&#xe291;" horiz-adv-x="2957" d="M113 -53q0 43 10 49q6 4 1239 4h1233l119 -276q121 -283 129 -299h-82l-15 28q-43 84 -114 160q-102 98 -227.5 158.5t-290 87t-309 35t-373.5 8.5h-256h-64h-598l16 -23q948 -1296 953 -1309q2 -4 0 -12q-6 -6 -541 -618l-541 -615q0 -2 433 -2q106 0 289.5 -1t260.5 -1 q279 0 451 10.5t343 43t288 100t211 178.5q43 53 84 147h82q0 -2 -16 -43l-50 -133l-63 -172l-119 -317l-1231 -2q-1233 0 -1239 4q-12 4 -12 18q0 4 4 13l1091 1249q0 2 -67 93l-216 295l-266 364l-544 747z" />
<glyph unicode="&#xe292;" horiz-adv-x="2048" d="M227 -2136l207 248l107 123l426 -1479l1046 3305q10 20 37 21q33 0 39 -37q0 -10 -571 -1819l-576 -1816q-14 -14 -49 -14h-25q-2 6 -3 10t-3 10t-5 18.5t-8 28.5t-13 47l-20 70l-29 98l-36 131q-19 72 -50 172l-62 215l-223 774l-133 -159z" />
<glyph unicode="&#xe295;" horiz-adv-x="1138" d="M113 -4313q0 72 38.5 98.5t77.5 26.5q43 0 78 -31t35 -84q0 -98 -109 -117q37 -53 105 -53h4q57 0 114.5 123t107.5 337t91 427l86 465q6 43 11 63q147 870 320 1614t249 967q12 37 21 61l35 91q26 67 55.5 114t69.5 100.5t90 82t104 28.5q115 0 173 -72.5t64 -163.5 q0 -51 -24.5 -82.5t-47 -37.5t-44.5 -6q-43 0 -78 30.5t-35 83.5q0 98 108 117l-6 8q-6 6 -16 14.5t-16 12.5q-31 20 -68 20q-29 0 -54.5 -25.5t-65.5 -113.5t-80 -237.5t-95 -417t-115 -629.5q-121 -686 -253 -1296.5t-204.5 -886t-111.5 -391.5q-158 -477 -389 -478 q-82 0 -150.5 64.5t-74.5 173.5z" />
<glyph unicode="&#xe296;" horiz-adv-x="1138" d="M113 -4313q0 72 38.5 98.5t77.5 26.5q43 0 78 -31t35 -84q0 -98 -109 -117q37 -53 105 -53h4q57 0 114.5 123t107.5 337t91 427l86 465q6 43 11 63q31 166 47 277q-156 78 -234 198q-94 139 -94 308q0 233 153.5 383.5t366.5 169.5h21l18 90q172 770 265.5 1073 t193.5 432q96 127 207 127q115 0 173 -72.5t64 -163.5q0 -51 -24.5 -82.5t-47 -37.5t-44.5 -6q-43 0 -78 30.5t-35 83.5q0 98 108 117l-6 8q-6 6 -16 14.5t-16 12.5q-31 20 -68 20q-137 0 -297 -807q-53 -242 -160 -886q328 -164 328 -506q0 -209 -141.5 -372t-378.5 -181 h-21l-18 -90q-184 -817 -286.5 -1143t-246.5 -438q-70 -51 -147 -52q-82 0 -150.5 64.5t-74.5 173.5zM555 -2275q0 -256 213 -396l45 -26l70 368l110 523h-10q-41 0 -93 -16.5t-111.5 -53.5t-108.5 -89t-82 -134t-33 -176zM1055 -2744h8q53 0 121.5 27.5t140.5 79.5 t121 147.5t49 214.5q0 274 -260 422q0 -2 -13 -70l-31 -161l-26 -136q-108 -520 -110 -524z" />
<glyph unicode="&#xe2a2;" horiz-adv-x="2048" d="M227 -2877l314 497l428 -1982q0 6 520 2209.5t524 2213.5q12 20 37 21q12 0 24.5 -10.5t14.5 -24.5q0 -16 -569.5 -2435t-577.5 -2427q-4 -18 -43 -18h-6q-25 0 -25 4q-4 4 -227 1052.5t-227 1052.5l-66 -100q-10 -14 -26 -43l-41 -64q-12 10 -27 27z" />
<glyph unicode="&#xe2b2;" horiz-adv-x="2048" d="M227 -3619l156 314l158 309q2 -2 215 -1237q207 -1231 213 -1241l520 2758q516 2755 524 2775q10 23 37 23q14 0 25.5 -10.5t13.5 -24.5q0 -14 -570.5 -3049.5t-576.5 -3041.5q-4 -18 -43 -18h-6q-25 0 -25 4l-28 168l-88 505l-113 652l-227 1321l-131 -260z" />
<glyph unicode="&#xe2c0;" horiz-adv-x="1024" d="M119 512q0 33 24.5 43t89.5 10q14 0 54.5 -1t68.5 -1h195l-4 4q-2 6 -21.5 30t-49.5 69t-56 100q-35 70 -35 88q0 41 68 41h24q47 0 61.5 -6t24.5 -35q39 -90 107.5 -172t152.5 -129q31 -18 31 -41q0 -18 -15.5 -29.5t-56.5 -39t-84 -70.5q-53 -55 -86.5 -111.5 t-48 -88.5t-24.5 -38q-8 -4 -66 -4h-24q-45 0 -58.5 16.5t4.5 57.5q18 49 46 97t48 77l38 52q17 24 20 26l4 4h-195h-118q-74 0 -96.5 9t-22.5 42z" />
<glyph unicode="&#xe2c1;" horiz-adv-x="1024" d="M131 512q0 16 10.5 27.5t26.5 18.5t49 31.5t68 61.5q47 49 78.5 97.5t42 76t22.5 46t29 22.5q2 2 59 2h12q70 0 70 -37q0 -39 -63.5 -147.5t-102.5 -147.5h195q27 0 66.5 1t51.5 1q72 0 95.5 -10t23.5 -43t-23.5 -42t-90.5 -9h-123h-195q6 -6 44 -57.5t80 -125t42 -110.5 q0 -23 -14.5 -30t-46.5 -7h-25h-18q-41 0 -52.5 6t-21.5 33q-39 90 -107.5 172t-152.5 129q-29 16 -29 41z" />
<glyph unicode="&#xe2c2;" horiz-adv-x="454" d="M186 -20v874q27 27 41.5 27t40.5 -27v-874q-31 -27 -41 -27t-41 27z" />
<glyph unicode="&#xe2c3;" horiz-adv-x="796" d="M113 -20v874q29 29 43 29t39 -25v-883q-23 -23 -39 -22q-8 0 -14.5 3t-15.5 11.5zM600 -25v883q14 25 35 25l29 -15l14 -14v-874q-31 -27 -45 -27l-25 8z" />
<glyph unicode="&#xe2c4;" d="M113 352q0 98 49 205q33 59 65 96q76 70 172 90q8 2 35 2q102 0 169 -29.5t233 -158.5q131 -102 233 -123q31 -8 68 -8q104 0 186 72q51 51 69.5 108.5t22.5 94t23 47.5q23 0 29 -24t6 -81q-10 -160 -113 -276l-8 -7q-6 -6 -13.5 -12t-20.5 -15l-26.5 -17.5t-33 -16.5 t-39 -14t-45 -10.5t-50.5 -4.5q-80 0 -172 50.5t-161.5 112t-161.5 111.5t-172 50q-125 0 -203 -85t-78 -171q0 -20 -9 -43t-17 -25q-37 0 -37 82z" />
<glyph unicode="&#xe2c5;" d="M170 -322q0 8 2 14.5t4 10.5t6 8t7.5 5t7.5 4.5t6 3.5h1186q33 -23 32 -41q0 -27 -30 -41h-1190q-29 13 -31 36zM170 952q2 23 27 35q16 8 585.5 277.5t579.5 273.5q8 4 18 4q16 0 28.5 -13t12.5 -29.5t-14 -29.5q-2 -2 -553 -264l-545 -258l508 -241q590 -279 598 -289 q6 -12 6 -23q0 -37 -37 -41h-12l-590 279q-594 281 -598 285q-14 9 -14 34zM172 80q0 20 31 41h1186q33 -12 32 -41q0 -27 -30 -41h-1190q-29 14 -29 41z" />
<glyph unicode="&#xe2c6;" d="M170 -322q0 8 2 14.5t4 10.5t6 8t7.5 5t7.5 4.5t6 3.5h1186q33 -23 32 -41q0 -27 -30 -41h-1190q-29 13 -31 36zM170 395v4v4q0 14 31 31q39 20 307 148l266 125l508 241l-545 258l-327 156q-180 84 -210 101.5t-30 37.5q0 16 13.5 28.5t19.5 12.5q16 0 316 -140 l593 -281q293 -140 295 -142q14 -10 14 -30.5t-14 -30.5q-4 -4 -598 -285l-590 -279h-12q-37 4 -37 41zM172 80q0 20 31 41h1186q33 -12 32 -41q0 -27 -30 -41h-1190q-29 14 -29 41z" />
<glyph unicode="&#xe2c7;" d="M168 510q0 8 8 25q12 12 393 196l381 176l133 264l99 196q33 62 42 72.5t19 10.5q16 0 30.5 -13.5t14.5 -27.5q0 -16 -110 -223l-105 -215q0 -2 43 17.5l109 51.5q139 68 153.5 68t27.5 -13.5t13 -27.5q0 -18 -28.5 -35.5t-184.5 -91.5l-196 -92l-273 -541 q12 -4 38 -17.5t108 -51.5l200 -95l328 -163q8 -8 8 -20.5t-13 -28t-24 -15.5q-16 0 -346 160l-331 153q-4 0 -168 -323q-160 -307 -177 -326q-8 -8 -16 -8t-12 2q-14 0 -23.5 11.5t-9.5 25.5q0 25 51 108q45 94 164 324l113 227l-221 105q-115 51 -165.5 76.5t-61.5 36 t-11 22.5zM309 512q0 -4 176.5 -85t178.5 -79l114 219l109 217q-2 4 -290 -132t-288 -140z" />
<glyph unicode="&#xe2c8;" d="M168 -43q0 18 28.5 35.5t184.5 91.5l201 96l133 264l95 194q38 79 36 79q0 2 -328 160q-311 143 -342 167q-8 8 -8 20.5t14.5 28t22.5 15.5q12 0 350 -160q334 -158 336 -157l164 321q160 319 174 334q8 4 14 4q16 0 30.5 -13.5t14.5 -27.5t-164 -332l-119 -244 q-36 -75 -36 -79q0 -5 19 -16.5t49 -25l59 -25.5l57 -23.5l35 -14.5q115 -53 164 -79.5t58 -36t9 -21.5v-2q0 -16 -25.5 -31.5t-205.5 -101.5l-160 -78q-379 -178 -383 -178q-6 -6 -141 -273q-100 -197 -123 -236.5t-37 -39.5q-8 0 -12 2q-14 0 -23.5 11.5t-9.5 25.5 q0 6 111 227l108 219l-72 -34l-151 -71q-78 -36 -90 -36q-10 0 -23.5 13.5t-13.5 27.5zM700 233l578 279q-334 164 -346 164q-1 1 -1 0q-2 0 -4 -3q-3 -5 -9 -17l-15 -26l-22 -42l-28.5 -57.5t-37.5 -73.5z" />
<glyph unicode="&#xe2ca;" horiz-adv-x="1024" d="M113 791v233v197q0 139 4 164.5t22 31.5q6 4 373 4q365 0 373 -4q25 -14 24 -37q0 -18 -24 -37q-8 -4 -350 -4h-340v-342q0 -270 -1 -310t-10 -48q-12 -12 -28 -12q-29 0 -36 26.5t-7 137.5z" />
<glyph unicode="&#xe2cb;" horiz-adv-x="1024" d="M113 1380.5q0 24.5 26 36.5q6 4 373 4h264q109 0 121 -12q10 -10 11 -53t1 -332t-1 -332t-11 -53q-12 -12 -29 -12q-29 0 -41 30v682h-340q-342 0 -348 4q-26 13 -26 37.5z" />
<glyph unicode="&#xe2cc;" horiz-adv-x="1024" d="M113 352v236q0 111 7 136.5t36 25.5q25 0 39 -31v-682h340q342 0 350 -4q25 -14 24 -37q0 -18 -24 -37q-8 -4 -373 -4h-266q-109 0 -121 12q-10 10 -11 53t-1 332z" />
<glyph unicode="&#xe2cd;" horiz-adv-x="1024" d="M113 -4.5q0 24.5 26 37.5q6 4 348 4h340v682q12 31 41 31q27 0 34 -27t7 -133v-238v-205q0 -131 -3 -155.5t-21 -32.5q-8 -4 -373 -4q-367 0 -373 4q-26 12 -26 36.5z" />
<glyph unicode="&#xe2ce;" horiz-adv-x="1820" d="M0 -360q0 14 37 51l1646 1708q27 23 37.5 22.5t25.5 -12.5t15 -29q0 -14 -103 -123l-716 -741q-825 -858 -852 -883q-35 -33 -51 -32q-12 0 -25.5 14.5t-13.5 24.5z" />
<glyph unicode="&#xe2cf;" horiz-adv-x="1820" d="M0 1382q0 12 13.5 25.5t25.5 13.5q16 0 51 -32l852 -883l716 -742q103 -109 103 -122q0 -16 -16 -28.5t-25 -12.5q-10 0 -37 22l-1646 1706q-37 37 -37 53z" />
<glyph unicode="&#xe2d0;" d="M113 33v676l2 675q16 20 28 27h1309q20 -16 27 -31v-1349q-6 -10 -27 -29l-653 -2h-654q-24 8 -32 33z" />
<glyph unicode="&#xe2d1;" d="M113 33v676l2 675q16 20 28 27h1309q20 -16 27 -31v-1349q-6 -10 -27 -29l-653 -2h-654q-24 8 -32 33zM195 82h1202v1247h-1202v-1247z" />
<glyph unicode="&#xe2d2;" horiz-adv-x="1478" d="M172 0q0 10 132 298l265 570l131 285q10 25 37 25q16 0 31 -11q2 -2 135 -287l267 -578q134 -292 135 -302q0 -23 -31 -41h-1071q-31 18 -31 41z" />
<glyph unicode="&#xe2d3;" horiz-adv-x="1478" d="M172 0q0 10 132 298l265 570l131 285q10 25 37 25q16 0 31 -11q2 -2 135 -287l267 -578q134 -292 135 -302q0 -23 -31 -41h-1071q-31 18 -31 41zM276 45q0 -4 461 -4q463 0 463 2l-225 489l-203 437q-27 61 -35 73l-229 -497q-228 -496 -232 -500z" />
<glyph unicode="&#xe2d4;" d="M170 -53v1124q0 2 4 9t14.5 15.5t22.5 8.5q8 0 585.5 -272.5t596.5 -282.5q29 -16 28 -39q0 -20 -14 -31q-4 -4 -598 -284l-590 -279h-12q-23 2 -37 31z" />
<glyph unicode="&#xe2d5;" horiz-adv-x="1478" d="M172 1139q0 23 31 41h1071q31 -18 31 -41q0 -10 -135 -302l-267 -578q-133 -286 -135 -288q-14 -10 -31 -10h-4q-18 0 -32.5 25.5t-94.5 201.5l-174 375q-260 564 -260 576z" />
<glyph unicode="&#xe2d6;" horiz-adv-x="1478" d="M172 1139q0 23 31 41h1071q31 -18 31 -41q0 -10 -135 -302l-267 -578q-133 -286 -135 -288q-14 -10 -31 -10h-4q-18 0 -32.5 25.5t-94.5 201.5l-174 375q-260 564 -260 576zM276 1096l457 -990l6 -10l230 498q227 496 231 500q0 4 -461 4q-463 0 -463 -2z" />
<glyph unicode="&#xe2d7;" d="M170 510q0 27 27 37q10 6 579.5 275.5t585.5 277.5q12 4 18 4q25 0 41 -31v-1126q-16 -29 -37 -31h-12l-590 279q-594 281 -598 284q-14 11 -14 31z" />
<glyph unicode="&#xe2d8;" horiz-adv-x="1366" d="M115 598q0 12 8 27l275 433q249 390 253 394q14 14 29 14q16 0 24.5 -6t266.5 -413q281 -436 280 -449q0 -14 -174 -287l-106 -164q-260 -410 -266 -413q-8 -4 -22.5 -4t-23.5 4q-6 4 -133 204l-259 408q-132 209 -144 223q-8 15 -8 29zM205 600q0 -10 235 -379l242 -373 q2 0 240.5 373t238.5 375t-238.5 377t-240.5 375z" />
<glyph unicode="&#xe2d9;" horiz-adv-x="1366" d="M49 -45q0 53 36 88t87 35q53 0 87 -36t34 -87q0 -49 -34 -86t-89 -37q-53 0 -87 36t-34 87zM559 842q0 53 37 88t88 35q49 0 85 -35t36 -88.5t-36 -88t-87 -34.5q-53 0 -88 36t-35 87zM1073 -45q0 53 36 88t87 35q49 0 85 -35t36 -88q0 -47 -34 -85t-89 -38q-53 0 -87 36 t-34 87z" />
<glyph unicode="&#xe2da;" horiz-adv-x="1366" d="M47 842q0 53 37 88t88 35q49 0 85 -35t36 -88.5t-36 -88t-87 -34.5q-53 0 -88 36t-35 87zM561 -45q0 53 36 88t87 35q45 0 82 -34t37 -89t-35 -89t-86 -34q-53 0 -87 36t-34 87zM1071 842q0 53 37 88t88 35q49 0 85 -35t36 -88.5t-36 -88t-87 -34.5q-53 0 -88 36t-35 87z " />
<glyph unicode="&#xe2db;" d="M31 1108q0 57 36.5 90t86 33t86 -33t36.5 -90q0 -55 -34.5 -89t-88 -34t-88 36t-34.5 87zM115 313q0 31 32 41h1303q2 -2 6 -5t6 -4t5 -4l6 -5q2 -2 3 -5t2 -7.5t1 -10.5q0 -27 -31 -41h-1305q-28 14 -28 41zM115 711q0 27 28 41h1305q31 -16 31 -41q0 -23 -29 -39 l-651 -2h-652q-32 10 -32 41zM1315 -84q0 49 33.5 85t89.5 36q49 0 86 -32t37 -89q0 -53 -36 -88t-87 -35q-53 0 -88 34t-35 89z" />
<glyph unicode="&#xe2dc;" horiz-adv-x="1933" d="M100 786q0 16 19.5 19.5t105.5 3.5h211h316l64 199l90 277q40 122 42 124q0 8 8 8q8 4 11 4q12 0 24.5 -29.5t79.5 -240.5l109 -332l2 -10h315h180q109 0 132.5 -3t23.5 -20q0 -8 -9 -16t-120 -88l-133 -98q-254 -184 -254 -187l96 -301q96 -293 96 -307q0 -16 -20 -16 q-12 0 -272 190l-250 182l-250 -182q-260 -190 -273 -190q-20 0 -20 16q0 14 96 307l96 301q0 2 -123 92l-252 184q-128 93 -137 101q-4 8 -4 12z" />
<glyph unicode="&#xe2dd;" d="M115 686q0 55 20 62q10 8 23 -3q12 -16 14 -60t12 -75q25 -90 96.5 -156.5t176.5 -66.5q72 0 142.5 36t128.5 89l118 105q59 52 132 91.5t148 43.5q160 0 252 -119t101 -283q0 -78 -29 -78q-10 0 -19.5 17.5t-9.5 42.5q0 119 -80.5 212t-203.5 93q-74 0 -144.5 -38 t-130.5 -91l-119 -107q-59 -53 -133.5 -91t-154.5 -38q-154 0 -247 131t-93 283z" />
<glyph unicode="&#xeffd;" horiz-adv-x="614" d="M0 0v205h205v-205h-205zM410 0v205h204v-205h-204z" />
<glyph unicode="&#xeffe;" horiz-adv-x="614" d="M0 0v205h205v-205h-205zM410 0v205h204v-205h-204z" />
<glyph unicode="&#xefff;" horiz-adv-x="204" d="M0 0v205h205v-205h-205z" />
</font>
</defs>
</svg>
