<?xml version="1.0" standalone="no"?>
<!DOCTYPE svg PUBLIC "-//W3C//DTD SVG 1.1//EN" "http://www.w3.org/Graphics/SVG/1.1/DTD/svg11.dtd" >
<svg xmlns="http://www.w3.org/2000/svg">
<metadata>
This is a custom SVG webfont generated by Font Squirrel.
Copyright   : Copyright c 20092010 Design Science Inc
</metadata>
<defs>
<font id="MathJax_SansSerifBold" horiz-adv-x="1126" >
<font-face units-per-em="2048" ascent="1638" descent="-410" />
<missing-glyph horiz-adv-x="512" />
<glyph unicode=" "  horiz-adv-x="512" />
<glyph unicode="&#x09;" horiz-adv-x="512" />
<glyph unicode="&#xa0;" horiz-adv-x="512" />
<glyph unicode="!" horiz-adv-x="751" d="M225 145v50q0 86 54 100q8 4 96 4h35q94 0 110 -51q4 -12 4 -98v-46q0 -86 -53 -100q-10 -4 -100 -4l-88 2q-35 12 -52 41l-4 14zM227 1370v28q0 5 5.5 13t15.5 9t33 1h96h133q12 -16 14 -26q-25 -944 -35 -959q-6 -10 -20 -11t-94 -1t-94.5 1t-20.5 11t-19.5 446.5 t-13.5 487.5z" />
<glyph unicode="&#x22;" horiz-adv-x="1142" d="M76 928q0 10 37 99t39 91q0 4 -31 4l-31 2l-12 13v270q8 12 14 12q2 2 135 2h133q6 -8 15 -14v-268l-80 -113q-10 -14 -20.5 -30.5t-16.5 -24.5t-13 -19.5t-12 -16.5l-9 -11q-5 -6 -8 -8.5t-7 -5.5t-8 -3t-8.5 -1t-10.5 -1h-32h-23q-51 0 -51 23zM561 928q0 10 37 99 t39 91q0 4 -31 4l-31 2l-12 13v270q8 12 15 12q2 2 135 2h133q6 -8 14 -14v-268l-80 -113q-10 -14 -20 -30.5t-16.5 -24.5t-13.5 -19.5t-11 -16.5l-9 -11q-5 -6 -8.5 -8.5l-7.5 -5.5t-8 -3t-8 -1t-10 -1h-33h-23q-51 0 -51 23z" />
<glyph unicode="#" horiz-adv-x="1878" d="M125 276q0 10 2 20.5t6 18t9 13.5t9.5 10t12.5 9l11 7l9 6l9 2h186l188 3l41 143l43 147v7h-229l-229 2q-68 23 -68 84q0 10 2 20t6 17.5t9 13.5t9.5 10t12.5 9l11 7l9 6l9 3h512l75 264q76 270 92 295q10 14 39 24q12 4 25 4q41 0 64.5 -25.5t23.5 -62.5 q0 -12 -69.5 -252.5t-71.5 -242.5q0 -4 149 -4h150l65 233q86 301 96 315q27 37 72 37q39 0 62.5 -26.5t23.5 -59.5q0 -12 -69.5 -252.5t-71.5 -242.5q0 -4 162 -4h164l8 -5l14 -7q6 -3 14.5 -10t14.5 -15.5t10 -21.5t4 -27q0 -57 -65 -84l-189 -2h-188l-41 -144 q-41 -147 -43 -149v-7h461l8 -4l14 -7q6 -3 14.5 -10t14.5 -15.5t10 -21.5t4 -28q0 -57 -65 -83l-256 -3h-256l-68 -233q-86 -301 -96 -315q-27 -37 -72 -37q-39 0 -62.5 26.5t-23.5 59.5q0 14 69.5 253.5t71.5 241.5q0 4 -149 4h-148l-67 -233q-86 -301 -97 -315 q-27 -37 -71 -37q-39 0 -62.5 26.5t-23.5 59.5q0 14 69.5 253.5t71.5 241.5q0 4 -162 4l-161 3q-68 22 -68 83zM748 364.5q0 -2.5 149 -2.5l147 3l41 143l43 147v7h-147q-150 0 -152 -3q-2 -6 -41.5 -149t-39.5 -145.5z" />
<glyph unicode="$" d="M100 137q0 8 18.5 113.5t20.5 109.5q6 12 23 13q8 0 39.5 -27t96 -63.5t144.5 -57.5q25 -4 27 -4h4v369q-131 23 -239.5 139.5t-108.5 286.5q0 84 18.5 152.5t49 110.5t66.5 74.5t73 48t67.5 24t49.5 10.5l18 2h6v20l2 8q0 6 1 12.5t4 14.5t9.5 15.5t14.5 13.5t21.5 10 t29.5 4q96 0 96 -80v-16q154 -23 273 -97q37 -23 39 -32q0 -10 -19 -109l-16 -102q-16 -16 -23 -17q-8 0 -37.5 22.5t-82 51.5t-109.5 41q-4 0 -10.5 1t-10.5 1l-4 2v-313q8 -2 32 -10.5t34 -11.5t30.5 -12t35 -18.5t35 -24.5t40.5 -34q141 -137 141 -342q0 -387 -315 -446 l-33 -6v-19q0 -80 -80 -80h-14q-39 0 -59.5 20.5t-22.5 33t-2 24.5v21h-14q-111 20 -199 57t-122 61.5t-38 34.5zM395 1067q0 -61 39 -100q29 -29 37 -29q2 0 2 129q0 127 -2 127q-8 -2 -20.5 -8t-34 -38t-21.5 -81zM651 229q78 39 78 154q0 102 -78 156v-310z" />
<glyph unicode="%" horiz-adv-x="2107" d="M125 1124q0 377 321 410q4 0 20.5 1t27.5 1q92 0 163.5 -30.5t98 -56.5t41.5 -50q68 -100 67 -277v-20q0 -39 -4 -76t-24.5 -99.5t-56.5 -105.5t-108.5 -76.5t-172.5 -33.5q-373 -1 -373 413zM401 1122q0 -158 21 -192q25 -41 74 -41q102 0 102 235q0 233 -102 234 q-43 0 -64.5 -32t-26 -67.5t-4.5 -99.5v-37zM412 -27q0 23 12 41q4 8 560 745.5t568 751.5q25 25 62 25q35 0 60.5 -24.5t25.5 -59.5q0 -31 -21 -57l-565 -750q-555 -733 -563 -741q-23 -16 -53 -17q-41 0 -63.5 26.5t-22.5 59.5zM1241 299q0 377 322 410q2 0 20.5 1t26.5 1 q92 0 163.5 -31t98 -56.5t41.5 -50.5q66 -96 65 -274v-23q0 -41 -4 -78.5t-24.5 -98t-56 -104.5t-108.5 -77t-171 -33q-373 0 -373 414zM1520 270q0 -51 2 -80.5t10 -62.5t28.5 -48.5t51.5 -15.5q66 0 92 99q10 37 10 137q0 233 -102 233q-41 0 -62.5 -29.5t-25.5 -64.5 t-4 -92v-47v-29z" />
<glyph unicode="&#x26;" horiz-adv-x="1701" d="M96 317q0 68 21.5 125.5t61.5 97.5t65.5 59t64.5 42l64 41l10 6l-12 27q-63 168 -64 321q0 203 125 316.5t279 113.5q143 0 254.5 -99t111.5 -255q0 -53 -16.5 -98t-96 -130t-227.5 -182l-37 -26q0 -6 33 -50t91.5 -114t113.5 -125l18 -16q201 172 299 477l15 47 q4 12 20 12q2 0 101 -26q80 -20 94 -25.5t16 -17.5q0 -14 -23.5 -90t-105.5 -225.5t-198 -270.5q-23 -25 -21 -25q53 -35 166 -34q70 0 121 12t76.5 23.5t33.5 11.5q10 0 25 -15v-219q-20 -20 -104.5 -35.5t-158 -15.5t-143 15.5t-109.5 31.5t-83 37.5t-49 23.5l-33 -16 q-178 -86 -369 -92q-203 0 -316.5 106t-113.5 256zM403 362q0 -55 20.5 -105t55.5 -62q16 -4 35 -5q76 0 176 29l25 6l-43 43q-127 133 -193 240l-14 20q-62 -62 -62 -166zM567 1102q0 -111 37 -223q12 -33 12 -35q1 -2 3 -2q4 0 14 8q180 125 180 264q0 59 -26.5 116.5 t-77.5 57.5q-53 0 -97.5 -46t-44.5 -140z" />
<glyph unicode="'" horiz-adv-x="626" d="M164 928q0 10 37 99t39 91q0 4 -31 4l-31 2l-12 13v270q8 12 14 12q2 2 135 2h134q6 -8 14 -14v-268l-80 -113q-10 -14 -20.5 -30.5t-16.5 -24.5t-13 -19.5t-11 -16.5l-10 -11q-5 -6 -8 -8.5t-7 -5.5t-8 -3t-8.5 -1t-10.5 -1h-32h-23q-51 0 -51 23z" />
<glyph unicode="(" horiz-adv-x="876" d="M162 512q0 209 44 392t106.5 294t125 190.5t107.5 112.5l43 33q2 2 76 2h71q14 -18 15 -25q0 -8 -21.5 -35.5t-54.5 -78.5t-69 -122t-68.5 -187.5t-49.5 -253.5q-16 -125 -16 -322q0 -221 28.5 -400.5t69.5 -280.5t82 -169t70 -103.5t29 -45.5q0 -8 -15 -23h-149l-19 14 q-405 344 -405 1008z" />
<glyph unicode=")" horiz-adv-x="876" d="M125 -487q0 10 27 45q170 211 223 546q29 162 28.5 408t-28.5 408q-18 115 -51 216t-66 163.5t-63.5 108.5t-50 70.5t-19.5 30.5q0 27 49 27h43h72l18 -16q406 -344 406 -1008t-406 -1008l-18 -14l-72 -2h-39q-53 0 -53 25z" />
<glyph unicode="*" d="M137 901q0 23 6.5 40t14.5 27.5t27.5 20.5t32.5 15l45 13q32 9 48 15l113 35l-113 35q-16 6 -48 15l-45 13q-13 4 -32.5 14.5t-27.5 21t-14.5 27.5t-6.5 40q0 49 36 92t97 43q23 -2 40.5 -15.5t92.5 -82.5l91 -84q0 6 -27 122.5t-27 129.5q0 41 38 69.5t77 28.5 q51 0 90 -28.5t39 -69.5v-11q0 -8 -13.5 -67.5l-27.5 -116.5l-12 -57l90 84q76 70 93 83t40 15q61 0 97 -43t36 -92q0 -23 -6 -40t-14.5 -27.5t-27.5 -20.5t-33 -15l-45 -13q-32 -9 -48 -15l-113 -35l113 -35q16 -6 48 -15l45 -13q13 -4 32.5 -14.5t28 -21t14.5 -27.5t6 -40 q0 -49 -36 -92t-97 -43q-23 2 -40 15.5t-93 82.5l-90 84l12 -57l27.5 -116.5t13.5 -67.5q4 -25 -14.5 -54.5t-63.5 -48.5q-16 -4 -43 -4q-70 0 -98 38q-25 33 -25 61q0 14 14 75l25 117l15 57l-91 -84q-76 -70 -93 -83t-40 -15q-61 0 -97 43t-36 92z" />
<glyph unicode="+" horiz-adv-x="1753" d="M125 512q0 53 68 86h598v295v203q0 86 5 110.5t25 36.5q20 20 53 21q63 0 84 -62q4 -12 5 -309v-295h598l8 -4l14 -7q6 -3 14.5 -10.5t14.5 -15.5t10 -21.5t4 -27.5q0 -57 -65 -84l-299 -2h-299v-295q0 -297 -5 -309q-20 -59 -81.5 -59.5t-81.5 59.5q-4 12 -4 309v295 h-299l-299 2q-68 23 -68 84z" />
<glyph unicode="," horiz-adv-x="626" d="M164 -195q0 10 37 99.5t39 91.5q0 4 -31 4l-31 2l-12 12v271q8 12 14 12q2 2 135 2h134q6 -8 14 -14v-269l-80 -112q-10 -14 -20.5 -30.5t-16.5 -25t-13 -19.5t-11 -16l-10 -12q-5 -6 -8 -8t-7 -5t-8 -3t-8.5 -1t-10.5 -1h-32h-23q-51 -1 -51 22z" />
<glyph unicode="-" horiz-adv-x="751" d="M25 471q0 55 29.5 72.5t109.5 17.5q16 0 69.5 -1t90 -1t88 1t69.5 1q84 0 114 -16.5t30 -73.5t-29 -74.5t-115 -17.5q-18 0 -69.5 1t-85.5 1q-33 0 -83 -1t-69 -1q-86 0 -117.5 17.5t-31.5 74.5z" />
<glyph unicode="." horiz-adv-x="626" d="M164 152l2 133q8 12 14 12q2 2 135 2h134q6 -8 14 -14v-271l-8 -6l-6 -6l-134 -2q-106 0 -123.5 1t-23.5 11q-4 7 -4 140z" />
<glyph unicode="/" d="M125 -424q0 12 2 18q4 12 355.5 949.5t355.5 945.5q18 47 73 47q39 0 63.5 -26.5t24.5 -61.5q0 -12 -358 -969q-348 -940 -360 -954q-23 -35 -70 -35q-45 0 -65.5 28.5t-20.5 57.5z" />
<glyph unicode="0" d="M88 688v14v39q0 92 5 161t21.5 171.5t61.5 183t113 129.5q115 78 252 78q102 0 183 -27.5t132 -66.5t87 -108.5t54.5 -125t27.5 -147.5t10 -143t1 -144q0 -68 -1 -103.5t-5 -106t-11 -113.5t-23.5 -106.5t-40 -102.5t-60.5 -84t-83 -70.5t-109.5 -43t-141.5 -17.5 q-96 0 -173 27.5t-126 66.5t-84 106.5t-52 122t-26.5 141.5t-10.5 137t-1 132zM397 727q0 -311 13.5 -407.5t62.5 -145.5q39 -39 90 -39q49 0 88 39q49 49 62.5 145.5t13.5 407.5v94q0 96 -2 153.5t-11 125t-26.5 103.5t-50.5 60.5t-80 24.5q-4 0 -12 -1t-10 -1 q-86 -20 -112 -123.5t-26 -304.5v-131z" />
<glyph unicode="1" d="M156 1229q0 25 2 38t12 27.5t33 24.5q6 2 74.5 5t147.5 27.5t138 82.5q35 33 72 32q88 0 102 -51q4 -12 4 -624v-613h172q37 -23 46.5 -38t9.5 -50q0 -66 -56 -88h-671q-27 12 -37 25.5t-12.5 23.5t-2.5 39v37q14 35 54 51h186v496q0 496 -4 495q-53 -23 -184 -22h-4 q-18 0 -33 3t-31 22.5t-18 56.5z" />
<glyph unicode="2" d="M94 1182q0 29 63.5 112.5t143.5 120.5q92 51 225 51q98 0 193 -32q133 -53 213 -174t80 -275q0 -123 -63.5 -215t-219.5 -225l-141 -126l-130 -120q-50 -47 -50 -49h270q57 0 124.5 1t80.5 1h28q82 0 97 -51q4 -12 4 -74v-31q0 -78 -54 -92q-10 -4 -401 -4l-387 2 q-41 12 -55 55l-2 60v65q8 16 327 353q82 86 124 135t86 137t44 170q0 57 -15 110.5t-62.5 98.5t-120.5 45q-158 0 -217 -201q-6 -20 -12.5 -27.5t-18.5 -7.5q-10 0 -55 58l-25 28q-74 91 -74 101z" />
<glyph unicode="3" d="M94 109q0 6 15.5 94t17.5 94q6 14 18 14q10 0 40 -19l67 -44q37 -25 106.5 -46.5t149.5 -23.5q111 0 150.5 53.5t39.5 182.5q0 127 -25.5 185t-101.5 75l-96 4l-86 2l-12 12v150q12 12 16 12q2 2 26.5 4t55.5 4t41 6q57 12 96 76t39 160v24q0 98 -71 119q-14 4 -54 4 q-66 0 -120 -21.5t-80 -47.5l-48 -48q-22 -22 -32 -22t-38 36t-53.5 76t-27.5 42t-2 12q2 12 45 54t144.5 88t222.5 46q135 0 227 -36.5t133 -99t56.5 -117t15.5 -115.5q0 -201 -201 -328l25 -10q129 -43 183 -136.5t54 -197.5q0 -90 -22.5 -168t-74.5 -149.5t-154.5 -112.5 t-243.5 -41q-76 0 -148 14.5t-122 36t-90 44t-59.5 39t-21.5 20.5z" />
<glyph unicode="4" d="M63 334v92q0 78 5 88q446 864 469 887q12 14 32 18h9q6 0 18 1t29 1h35h40h72q51 0 70.5 -6t38.5 -29q8 -14 9 -63t1 -389v-424h53h23q76 0 90 -51q4 -10 4 -62q0 -33 -1 -47t-13.5 -33.5t-38.5 -25.5q-8 -4 -64 -4h-53v-111v-67q0 -90 -53 -105q-8 -4 -88 -4h-31 q-92 0 -109 51q-4 12 -4 125v111h-239h-115q-39 0 -73 -14.5t-51 -31.5l-32 -32q-14 -14 -20 -14q-13 0 -13 139zM309 512l154 -2h155v342l-2 328q0 -82 -278 -615z" />
<glyph unicode="5" d="M76 192.5q0 6.5 65 116.5q45 70 58 70q16 0 30 -31q31 -72 99.5 -121t163.5 -49q53 0 89.5 14.5t56 35t29 63.5t11.5 75.5t2 96.5q0 166 -17.5 223t-87.5 57q-109 0 -172 -116q-16 -35 -51 -49h-129q-45 16 -53 57v729q0 2 3 9t6 12.5t8.5 11.5t14.5 12t19 10 q8 2 329.5 2t332.5 -4q53 -12 53 -90v-22v-27q0 -74 -53 -88q-10 -4 -215 -4h-203v-142q0 -139 4 -139q29 16 121 17q182 0 302 -105.5t120 -361.5q0 -500 -518 -500q-80 0 -152 23.5t-119 55.5t-82 67.5t-50 60t-15 31z" />
<glyph unicode="6" d="M94 688q0 143 12 227q66 514 533 549l6 2h12q4 0 15.5 -1t17.5 -1q125 0 180 -55v-188q-12 -10 -22 -15q-8 0 -51 23.5t-113 23.5q-121 0 -186 -75q-70 -76 -84 -291v-23l14 19q70 115 221 114q154 0 252 -92q78 -82 103.5 -175t25.5 -247q0 -252 -100 -372 q-68 -84 -151 -120t-208 -36q-33 0 -59.5 2t-73.5 13.5t-85 32t-82 60t-75.5 95t-57 142.5t-36.5 196q-8 73 -8 192zM414 518q0 -106 11 -175t34.5 -104.5t50.5 -48t68 -12.5q86 4 110.5 61.5t24.5 233.5q0 162 -11.5 230.5t-39 91t-95.5 22.5q-57 0 -94 -53t-48 -115.5 t-11 -130.5z" />
<glyph unicode="7" d="M94 1296v31q0 78 53 92q8 4 107 4q20 0 120.5 -1t186.5 -1q406 0 416 -4q53 -12 53 -90v-22q0 -51 -3 -65.5t-21 -35.5q-391 -489 -408 -1110v-20q0 -82 -53 -92q-8 -4 -107 -5h-45q-66 0 -91.5 17.5t-25.5 83.5q0 311 130.5 609t316.5 484h-283q-61 0 -130.5 -1 t-84.5 -1h-28q-84 0 -99 52q-4 12 -4 75z" />
<glyph unicode="8" d="M94 418q0 53 8.5 98t22.5 77t32.5 58.5t39 43t41 29.5t37 20.5t29.5 12.5t19.5 8t4.5 5q-86 27 -144.5 98.5t-58.5 192.5q0 115 37 197.5t100.5 125.5t131 61.5t145.5 18.5h14q57 0 99 -3t113 -25.5t117 -62.5t81.5 -121t35.5 -193q0 -119 -61 -192.5t-139 -96.5 q-4 -2 6 -6q4 -2 10 -4q215 -84 215 -342q0 -463 -467 -463q-135 0 -230 39t-145.5 107.5t-72 145.5t-21.5 171zM410 403q2 -70 5 -98.5t16 -64t45 -48t85 -12.5t85 12.5t46.5 48t17.5 65.5t5 97q0 147 -15 191q-8 39 -46 61.5t-93 22.5q-57 0 -93 -23.5t-44 -60.5 q-14 -44 -14 -191zM418 1061q0 -121 25.5 -163t119.5 -42q109 0 129 66q12 29 13 133v47q0 51 -8.5 81.5t-30 45t-39 18.5t-56.5 6q-96 0 -124.5 -36.5t-28.5 -155.5z" />
<glyph unicode="9" d="M94 958q0 2 1 33t1 38t3 37t5 41t8.5 37.5t12.5 42t17.5 40t23.5 43t30.5 41t39.5 43.5q121 113 329 112q47 0 85 -4t106.5 -33.5t117 -82t92.5 -159t56 -253.5q8 -111 8 -234q0 -465 -227 -641q-143 -104 -330 -104q-139 0 -237 59l-68 49q-12 14 -2 31q72 135 94 158 q6 6 14.5 6t30 -20.5t62.5 -40t96 -19.5q125 0 188 92q10 14 17.5 29.5t12.5 38t9 36t7 45.5l4 42l6 49q4 39 4 47q-2 0 -10.5 -13.5t-26 -32.5t-42 -39.5t-67.5 -34t-94 -13.5q-92 0 -164 33q-70 35 -123 109.5t-73 164.5q-17 73 -17 227zM412 929.5q0 -190.5 20.5 -256 t104.5 -71.5q29 0 48 4t51 34t50 87q25 74 25 188q0 150 -15.5 211.5t-46.5 92.5q-35 35 -82 34q-104 0 -129.5 -66.5t-25.5 -257z" />
<glyph unicode=":" horiz-adv-x="626" d="M164 152l2 133q8 12 14 12q2 2 135 2h134q6 -8 14 -14v-271l-8 -6l-6 -6l-134 -2q-106 0 -123.5 1t-23.5 11q-4 7 -4 140zM164 786q0 106 1 124t11 24q6 4 139 4h134q6 -8 14 -14v-271l-14 -12h-271l-12 12z" />
<glyph unicode=";" horiz-adv-x="626" d="M164 -195q0 10 37 99.5t39 91.5q0 4 -31 4l-31 2l-12 12v271q8 12 14 12q2 2 135 2h134q6 -8 14 -14v-269l-80 -112q-10 -14 -20.5 -30.5t-16.5 -25t-13 -19.5t-11 -16l-10 -12q-5 -6 -8 -8t-7 -5t-8 -3t-8.5 -1t-10.5 -1h-32h-23q-51 -1 -51 22zM164 786q0 106 1 124 t11 24q6 4 139 4h134q6 -8 14 -14v-271l-14 -12h-271l-12 12z" />
<glyph unicode="=" horiz-adv-x="1753" d="M125 276q0 29 17.5 52.5t45.5 29.5q10 4 693 4h680l8 -4l14 -7q6 -3 14.5 -10t14.5 -15.5t10 -21.5t4 -28q0 -57 -65 -83h-1368q-68 22 -68 83zM125 750q0 61 61 79q10 4 693 5h682l12 -7q12 -8 18 -13l17 -14q10 -9 14 -22.5t4 -29.5q0 -55 -65 -84h-1368q-68 23 -68 86 z" />
<glyph unicode="?" horiz-adv-x="1062" d="M125 1319q0 16 53 46t144.5 54.5t177.5 24.5q205 0 320.5 -69.5t115.5 -246.5q0 -72 -22.5 -126t-50 -79.5t-70.5 -61.5t-64 -60q-53 -61 -78.5 -122t-26.5 -81t-3 -82q0 -70 -6.5 -80t-20.5 -11t-94 -1h-49q-53 0 -66 12l-4 4v82q2 55 5 85t20.5 100.5t63.5 147.5 t120 161q37 39 37 129q0 76 -21.5 98.5t-87.5 22.5q-80 0 -139.5 -22.5t-85.5 -50.5l-48 -50q-22 -23 -34 -23q-8 0 -16 8q-4 4 -37 94.5t-33 96.5zM350 145v50q0 86 53 100q8 4 97 4h35q94 0 110 -51q4 -12 4 -98v-46q0 -86 -53 -100q-10 -4 -100 -4l-88 2q-35 12 -52 41 l-4 14z" />
<glyph unicode="@" horiz-adv-x="1501" d="M125 711q0 170 43 301t111.5 209.5t165 130t192.5 71t203 19.5q102 0 125 -2q129 -18 217 -76q115 -88 152.5 -233.5t37.5 -372.5v-58q0 -190 -76 -301q-102 -162 -366 -161q-442 0 -443 473q0 197 78 311q106 162 369 162q66 0 78 -2l20 -4q-59 86 -151 86h-19 q-461 0 -461 -553q0 -270 117 -418q117 -137 356 -137q147 0 275 53l29 10h182q14 -20 14 -26v-11l-16 -16q-199 -188 -494 -189q-117 0 -217 19.5t-198.5 71t-168 131.5t-112.5 211t-43 301zM766 711q0 -233 100 -281q27 -16 64 -16l65 16q102 37 103 281q0 233 -103 280 q-20 12 -34 13q-20 4 -33 4q-49 0 -99 -41q-63 -68 -63 -256z" />
<glyph unicode="A" horiz-adv-x="1501" d="M86 55q0 20 217 661.5t225 649.5q23 41 68 51q8 4 154 4h67q68 0 101.5 -10t52.5 -45q6 -8 224 -650t218 -661q0 -55 -98 -55h-51h-52q-20 0 -35.5 2t-28.5 3t-23.5 8t-17.5 9.5t-15.5 14.5t-12.5 16t-11 22.5t-9 24.5t-11.5 32t-11.5 34l-32 100h-543q0 -4 -35 -105.5 t-39 -105.5q-8 -16 -19.5 -26.5t-20.5 -15.5t-27.5 -8t-27.5 -4t-33 -1h-34h-49q-90 0 -90 55zM530 473h201q201 0 201 2l-33 96q-164 502 -164 549l-4 17l-4 -25q-16 -82 -174 -573z" />
<glyph unicode="B" horiz-adv-x="1501" d="M188 57v1309q12 39 54 53q6 2 315 2h35h117q190 0 315 -26.5t205 -114.5q82 -92 82 -229q0 -127 -80 -203t-199 -103l29 -6q102 -20 172 -65t96.5 -100.5t35.5 -93.5t9 -77q0 -51 -12 -102t-47 -114.5t-116 -111.5t-200 -65q-66 -8 -421 -8h-334q-44 8 -56 55zM506 207 h147h78q131 0 215 27.5t107 115.5q4 10 6 47q0 84 -32 138.5t-89 77t-104.5 29.5t-110.5 7h-49h-15h-153v-442zM506 827h104h56q219 0 288 82q47 53 47 133q0 47 -20 81t-59 51.5t-59.5 23.5t-55.5 12q-14 2 -162 4h-139v-387z" />
<glyph unicode="C" horiz-adv-x="1439" d="M125 711q0 211 65 368q131 281 451 342q90 20 211 21q129 0 207 -10.5t186 -47.5q53 -18 55 -32q0 -14 -22 -140l-25 -131l-6 -8q-10 -6 -16 -6q-12 0 -37 22l-57 48q-33 27 -102.5 48t-157.5 21h-9q-258 0 -356 -194q-53 -115 -53 -301q0 -113 19.5 -198t64.5 -155.5 t131 -107.5t211 -37q115 0 189.5 22.5t162.5 88.5l12 8l10.5 7t8.5 5l4 4q8 4 19.5 -1t13.5 -13q2 -6 11 -110.5t9 -112.5q-2 -10 -45 -36t-116.5 -53.5t-141.5 -35.5q-74 -8 -156 -9q-172 0 -304 41t-213 110t-133 166t-71.5 197.5t-19.5 219.5z" />
<glyph unicode="D" horiz-adv-x="1626" d="M188 57v1309q12 39 54 53h12q14 0 37.5 1t52.5 1h67h74h121q246 0 315.5 -5t153.5 -30q424 -123 424 -686q0 -354 -180 -534q-104 -100 -237.5 -133t-319.5 -33q-33 0 -98.5 1t-98.5 1h-321q-44 8 -56 55zM512 207h145q199 2 277 26q199 61 231 306q8 82 9 176 q0 78 -5.5 132t-25 121.5t-55 111.5t-102 81t-161.5 49q-16 2 -170 4h-143v-1007z" />
<glyph unicode="E" horiz-adv-x="1314" d="M188 57v1303q12 39 54 53q6 2 444 2t449 -4q53 -14 53 -92v-25v-28q0 -74 -53 -92q-2 0 -7.5 -1.5t-17.5 -1.5h-31q-129 0 -333.5 3.5t-213.5 3.5h-14v-334h270h152q133 0 158.5 -16.5t25.5 -96.5q0 -33 -1 -47t-13 -33.5t-39 -25.5q-10 -4 -283 -4h-270v-371h49 q6 0 211 3t336 3q16 0 27.5 -1t16.5 -1h7q53 -18 54 -100v-27v-31q0 -78 -54 -92q-10 -4 -467 -4l-454 2q-42 12 -56 55z" />
<glyph unicode="F" horiz-adv-x="1251" d="M188 57v1303q12 39 54 53q6 2 428 2t432 -4q53 -14 53 -92v-25v-28q0 -74 -53 -92q-2 0 -7 -1.5t-18 -1.5h-28q-125 0 -319.5 3.5t-201.5 3.5h-10v-359h240h125q129 0 153.5 -16.5t24.5 -95.5q0 -78 -23.5 -94.5t-142.5 -16.5h-137h-240v-266q0 -41 1 -99.5t1 -76.5 q0 -106 -19.5 -130t-101.5 -24h-51l-104 2q-42 12 -56 55z" />
<glyph unicode="G" horiz-adv-x="1501" d="M125 711q0 119 19.5 219t71.5 197.5t134 166t215 109.5t307 41q117 0 228.5 -24.5t169 -52.5t61.5 -44q0 -2 -3 -18.5t-8 -51t-11 -69.5l-25 -131l-6 -9q-8 -6 -18.5 -6t-37.5 27l-64 58q-36 32 -109.5 58.5t-167.5 26.5q-424 0 -424 -497.5t426 -497.5q96 0 153 16 q4 0 4 107v104h-75l-76 2l-12 13l-3 94q0 96 5 102q6 10 31.5 11.5t203.5 1.5h221q6 -8 15 -15v-557l-7 -4q-4 -8 -66.5 -33.5t-179 -51.5t-229.5 -26q-119 0 -220 19.5t-200.5 71t-168 131.5t-111.5 211t-43 301z" />
<glyph unicode="H" horiz-adv-x="1626" d="M188 57v1309q18 55 105 55h59h54q94 0 108 -51q4 -12 4 -266v-254h588v254q0 39 -1 94t-1 74q0 106 22.5 127.5t124.5 21.5h21h51q51 0 76.5 -9t34.5 -42q4 -12 4 -659.5t-4 -659.5q-8 -33 -34 -42t-77 -9h-51h-31q-94 0 -115.5 22.5t-21.5 133.5q0 18 1 81.5t1 108.5 v281h-588v-281q0 -45 1 -109.5t1 -82.5q0 -106 -19.5 -130t-103.5 -24h-49l-104 2q-42 12 -56 55z" />
<glyph unicode="I" horiz-adv-x="677" d="M174 57v1309q18 55 105 55h59h53q94 0 109 -51q4 -12 4 -659.5t-4 -659.5q-18 -51 -107 -51h-59l-105 2q-41 12 -55 55z" />
<glyph unicode="J" horiz-adv-x="1062" d="M94 59q35 242 47 254q23 23 47 -14q66 -113 203 -113q63 0 105.5 23.5t50.5 64.5q2 10 2 549q0 535 4 547q10 37 49 47q8 4 109 4h41q53 0 80.5 -9t37.5 -42q4 -12 4 -553q0 -547 -2 -561q-10 -78 -45.5 -137.5t-77.5 -89t-97.5 -48t-93.5 -22.5t-75 -4q-94 0 -189 22.5 t-146.5 47t-53.5 34.5z" />
<glyph unicode="K" horiz-adv-x="1564" d="M188 57v1309q18 55 97 55h49h47q80 0 98 -47q4 -16 4 -291l2 -280l607 594q35 25 116 24h68h119q29 -29 28 -45q0 -4 -4 -16q-10 -14 -270 -268l-266 -263l547 -761q6 -10 6 -21q0 -31 -37 -47h-117h-45q-68 0 -83 4t-38 23q-2 2 -31 42l-85 116l-105 147l-215 297 q-2 0 -98 -97l-99 -94v-188v-117q0 -68 -10 -94.5t-43 -34.5q-10 -4 -100 -4l-86 2q-42 12 -56 55z" />
<glyph unicode="L" horiz-adv-x="1189" d="M188 57v1309q12 35 36 45t67 10h61h54q94 0 108 -51q4 -12 4 -573v-559l51 2q270 4 435 4h10q33 0 45 -8.5t35 -45.5v-61v-31q0 -80 -54 -94q-10 -4 -405 -4l-391 2q-42 12 -56 55z" />
<glyph unicode="M" horiz-adv-x="2002" d="M188 57v1309q12 35 36 46t75 11q12 0 43 -1t51 -1q16 0 45 1t41 1q117 0 146 -63q16 -27 194 -502t178 -520q0 -6 2 -6t2 6q0 45 174.5 509t198.5 513q16 33 49 49q27 12 185 12h88q55 0 80.5 -10t33.5 -41q4 -12 4.5 -659.5t-4.5 -659.5q-16 -51 -106 -51h-31h-31 q-90 0 -106 51q-4 12 -4 549v537l-4 -23q-18 -72 -112 -323l-175 -464q-82 -212 -86 -221q-33 -61 -127 -61h-31h-30q-100 0 -127 61q-6 14 -88 223l-173 461q-91 253 -106 328l-2 4q-2 0 -2 -522q0 -537 -4 -549q-10 -33 -33.5 -42t-71.5 -9h-36l-80 2q-42 12 -56 55z" />
<glyph unicode="N" horiz-adv-x="1626" d="M188 57v1309q12 35 36 45t75 10h80q180 0 192 -4q45 -6 74 -47q14 -18 213 -442l277 -594l16 -41q4 0 4 528q0 537 4 549q16 51 107 51h30h31q90 0 107 -51q4 -12 4 -659.5t-4 -659.5q-8 -31 -35 -41t-84 -10h-94h-93q-63 0 -95 9t-54 42q-14 18 -213 443l-277 596 q-16 37 -16 40l-4 -149v-381q0 -537 -4 -549q-10 -33 -33.5 -42t-71.5 -9h-36l-80 2q-42 12 -56 55z" />
<glyph unicode="O" horiz-adv-x="1626" d="M127 700q0 215 50 370t177 259q147 119 387 135q4 0 29 1t37 1h12q291 0 464 -149.5t206 -444.5q8 -63 8 -172q0 -145 -18 -239q-98 -506 -668 -506q-156 0 -280.5 40t-228 145.5t-144.5 271.5q-31 114 -31 288zM457 717q0 -152 18.5 -253.5t71.5 -182.5 q86 -129 266 -129q74 0 131 23.5t94 56t62.5 88t39 100.5t19.5 112.5t7 103.5t1 95q0 106 -4 156q-35 389 -352 389q-27 0 -54.5 -3t-74.5 -19.5t-84 -44t-71.5 -84t-49.5 -132.5q-20 -88 -20 -276z" />
<glyph unicode="P" horiz-adv-x="1439" d="M188 57v1309q12 39 54 53q6 2 313 2q322 -2 391 -12q367 -66 367 -446q0 -90 -22.5 -162t-55.5 -118t-86 -79t-98 -49t-111 -25.5t-104.5 -10.5t-96.5 -1h-22h-27h-172v-227q0 -35 1 -86t1 -68q0 -72 -10 -98.5t-45 -34.5q-10 -4 -117 -4l-104 2q-42 12 -56 55zM512 711 h121h61q51 0 85 2t77 12t68.5 29.5t46 55.5t24.5 87q2 12 2 59q0 57 -4 89t-23.5 74t-65.5 64.5t-122 28.5q-14 2 -147 2h-123v-503z" />
<glyph unicode="Q" horiz-adv-x="1626" d="M127 700q0 215 50 370t177 259q147 119 387 135q4 0 29 1t37 1q692 0 692 -770q0 -147 -27.5 -266t-67.5 -184.5t-79 -107.5t-66.5 -59.5t-27.5 -19.5t75.5 -104t77.5 -105q6 -10 7 -20q0 -31 -37 -47h-140q-137 0 -147 4q-14 2 -28.5 15.5t-23.5 26.5t-38 58l-47 74 l-8 -2q-12 0 -43 -2t-68 -2q-156 0 -280.5 40t-228 145.5t-144.5 271.5q-31 114 -31 288zM451 707q0 -94 5 -163t23.5 -139.5t49 -118.5t85 -84t129.5 -50q31 -6 62 -7h4l-29 43l-57 92q-29 46 -31 50q-4 8 -4 18q0 33 33 47l18 2h48h57h82h16q6 0 12.5 -1t11.5 -3t9 -3 t8 -5l7 -7q3 -3 8.5 -10.5t9.5 -11.5t11 -14l13 -18l45 -60h1q13 0 52 94q43 115 44 355q0 219 -39 329q-78 231 -334 232q-199 0 -289 -178q-61 -123 -61 -389z" />
<glyph unicode="R" horiz-adv-x="1439" d="M188 57v1309q12 39 54 53h12q14 0 35.5 1t48.5 1h61h70q35 0 105.5 1t105.5 1q117 0 197.5 -8t168 -32.5t147.5 -79t91 -138.5q29 -76 29 -155q0 -238 -213 -332l-82 -29l-8 -2l159 -285q168 -305 170 -313q0 -31 -20.5 -40t-65.5 -9h-71l-115 2q-25 8 -37 25 q-10 14 -168 301l-160 295h-190v-279q0 -43 1 -103.5t1 -80.5q0 -111 -19.5 -135.5t-101.5 -24.5h-49l-100 2q-42 12 -56 55zM512 801h145q12 0 65.5 1t67 2t54.5 5t54 12l39 24q26 15 35 36.5t17 53.5t8 73t-4 67.5t-19.5 57t-52 50t-94.5 27.5q-12 2 -168 4h-147v-413z " />
<glyph unicode="S" horiz-adv-x="1251" d="M100 117q0 2 3 18.5t8.5 51l11.5 69.5l24 131l7 8q10 6 18 6q6 0 42 -29l84 -67q48 -37 136 -66.5t189 -29.5q213 0 213 176q0 55 -25 94t-70 59.5t-89 32t-106.5 23.5t-96.5 24q-143 45 -233.5 160t-90.5 252q0 90 23.5 164t78 137.5t155.5 99t243 35.5q205 0 391 -92 q35 -14 37 -28q0 -2 -3 -18.5t-8.5 -51.5l-11.5 -70l-24 -131l-7 -8q-8 -6 -18 -6h-8l-29 29q-63 68 -136 101.5t-183 33.5q-213 0 -213 -154q0 -88 80.5 -125t214 -64.5t200.5 -74.5q217 -143 217 -389q0 -90 -22.5 -167t-74.5 -146.5t-153.5 -109.5t-242.5 -40 q-262 0 -490 129q-39 23 -41 33z" />
<glyph unicode="T" horiz-adv-x="1501" d="M82 1292l2 62q12 39 53 53q6 2 613 2q604 0 614 -4q53 -12 53 -92v-25v-28q0 -74 -53 -93h-12q-10 -2 -25 -2q-6 0 -50 1t-87 1q-156 0 -217 4h-58v-553q0 -555 -4 -567q-18 -51 -106 -51h-60l-104 2q-41 12 -55 55l-2 557v557h-58q-61 -4 -217 -4q-43 0 -87 -1t-50 -1 q-14 0 -25 2h-12q-37 14 -45 38t-8 87z" />
<glyph unicode="U" horiz-adv-x="1564" d="M188 621v745q18 55 105 55h59h58q86 0 104 -47q4 -16 4 -493q2 -494 4 -502q14 -104 67.5 -160.5t196.5 -56.5q233 0 271 182q8 47 10 539q0 475 4 491q18 47 100 47h50h45q43 0 61.5 -5t34.5 -25q12 -14 12 -54q2 -43 2 -200v-252q-2 -475 -4 -496 q-37 -227 -182.5 -330.5t-405.5 -103.5q-504 0 -583 385q-13 60 -13 281z" />
<glyph unicode="V" horiz-adv-x="1501" d="M55 1366q0 33 24.5 44t74.5 11h53q111 0 119 -4q47 -10 71 -55q16 -27 182 -505t187 -566q4 47 203 620q162 449 164 453q31 57 133 57h43h39q47 0 71.5 -10t24.5 -45q0 -14 -232 -655q-227 -645 -235 -654q-23 -43 -74 -55h-305q-53 12 -76 55q-8 8 -235 654 q-232 641 -232 655z" />
<glyph unicode="W" horiz-adv-x="2127" d="M49 1362q0 41 41 57q6 2 111 2h35q76 0 108 -53q12 -23 138 -515.5t126 -557.5q0 -20 6 18q14 104 127 549t133 506q29 53 125 53h72q129 0 152 -12q31 -10 47 -55t63 -230l45 -178q145 -549 158 -647v-12q35 170 102 439l118 455q50 185 52 187q29 53 113 53h41h74 q37 -23 41 -53q0 -14 -77 -305l-166 -620q-89 -329 -103 -390q-29 -53 -127 -53h-74h-74q-53 0 -79.5 10t-47.5 43q-10 20 -135 504.5t-135 564.5q-2 8 -2 6q-27 -147 -162 -663q-98 -389 -111 -412q-33 -53 -122 -53h-72h-70q-96 0 -125 53q-4 12 -175 656.5t-171 652.5z " />
<glyph unicode="X" horiz-adv-x="1501" d="M76 47q0 6 4 19q0 4 244 348l239 342q0 2 -110 148l-224 297q-113 151 -116 157q-4 12 -4 18q0 31 30 43h8q10 0 24.5 1t32.5 1h39h42h75q55 0 75 -4t36 -20q2 -2 19 -27l53 -73l63 -87l127 -178l123 178q129 186 139 195q10 10 27 12q12 4 143 4h129q37 -18 37 -45 q0 -10 -8 -24q-6 -12 -112 -161l-206 -291q-101 -142 -101.5 -144t255.5 -345t260 -352q2 -4 2 -12q0 -25 -35 -47h-143l-143 2q-29 10 -37 18.5t-168 247.5l-54 80l-42 63l-31 45l-20 29q-8 12 -13 17l-4 4l-18 -31l-60 -91l-73 -116q-125 -193 -147.5 -223.5t-51.5 -42.5 h-275q-30 20 -30 45z" />
<glyph unicode="Y" horiz-adv-x="1501" d="M49 1374q0 31 31 45q6 2 135 2h35h20q63 0 99.5 -10t68.5 -47q23 -25 250 -371q76 -123 76 -133l2 -4q2 2 2 6q6 23 88 148l160 238q78 114 82 118q14 18 31.5 29.5t43 16.5t38 7t49.5 2h40h68q41 0 61.5 -9t20.5 -40q0 -12 -8 -24l-529 -779l-2 -258v-256 q-6 -14 -10 -21t-15.5 -16.5t-27.5 -15.5l-104 -2h-60q-47 0 -69.5 10t-34.5 43q-4 10 -4 262v254l-264 389l-115 168q-119 174 -138.5 205t-19.5 43z" />
<glyph unicode="Z" horiz-adv-x="1376" d="M125 100q0 72 4 84q4 8 182 260l355 500q176 248 176 252q-344 -6 -574 -6q-18 0 -31.5 1t-19.5 1h-8q-37 14 -45 36.5t-8 82.5l2 55q12 39 53 53q6 2 491 2q483 0 494 -4q16 -2 31.5 -17.5t19.5 -31.5q2 -6 2 -45q0 -66 -4 -78q-6 -10 -356 -506l-354 -501 q162 2 289.5 4t180 3t87.5 1h55h24q68 0 86 -51q4 -12 5 -72v-29q0 -76 -54 -90q-10 -4 -514 -4q-506 0 -516 4q-16 2 -31.5 17.5t-19.5 31.5q-2 6 -2 47z" />
<glyph unicode="[" horiz-adv-x="702" d="M162 512q0 961 4 973q8 33 35.5 42t91.5 9h113q25 0 63.5 1t52.5 1q74 0 101.5 -16.5t27.5 -73.5q0 -55 -35 -80q-16 -10 -94 -10h-63v-1692h63q78 0 94 -10q35 -25 35 -78q0 -59 -26.5 -75.5t-102.5 -16.5q-14 0 -53 1t-63 1h-113q-63 0 -91 9t-36 42q-4 12 -4 973z" />
<glyph unicode="]" horiz-adv-x="702" d="M49 -424q0 55 35 80q16 10 94 10h64v1692h-64h-33q-96 0 -96 88q0 57 31 74.5t104 17.5q14 0 50 -1t59 -1h113q66 0 93 -9t36 -42q4 -12 4 -973t-4 -973q-8 -33 -36 -42t-93 -9h-113q-25 0 -64 -1t-53 -1q-74 0 -100.5 16.5t-26.5 73.5z" />
<glyph unicode="^" d="M221 1126q0 8 57 81l112 142q56 69 59 68q4 4 114 4q109 0 113 -2q2 -2 105.5 -132t115.5 -146q6 -10 6 -17q0 -8 -14 -22l-72 -2q-74 0 -76 2q-2 0 -90 76l-88 73q-2 0 -90 -73q-88 -76 -90 -76q-2 -2 -76 -2l-71 2q-15 14 -15 24z" />
<glyph unicode="_" d="M0 -135q0 70 53 84q8 4 508 4q399 0 456.5 -1t72.5 -9q35 -25 34 -80q0 -53 -34 -78q-14 -8 -70.5 -9t-456.5 -1q-500 0 -510 4q-53 14 -53 86z" />
<glyph unicode="a" horiz-adv-x="1075" d="M63 297q0 268 566 295h28v41q0 57 -6 89t-36.5 58.5t-92.5 26.5q-76 0 -141.5 -23.5t-99 -51t-59 -51.5t-29.5 -24h-7q-6 0 -10 2.5t-7 7.5t-5 11t-3 17.5t-2 20.5t-2 26.5t-3 29.5q-6 68 -7 88q0 6 1.5 11.5t1.5 7.5t3 5t5 4t7 3t9 4q166 78 363 78q201 0 309 -72 q100 -70 119 -203q2 -18 2 -327q0 -53 1 -127t1 -94q0 -109 -23.5 -129.5t-130.5 -20.5h-37q-63 0 -88.5 17.5t-25.5 80.5v35q-53 -72 -137.5 -114t-174.5 -42q-129 0 -209 99.5t-80 220.5zM360 299q0 -61 30 -101t83 -40q41 0 72 16q115 51 114 205v15v12l-2 6v67l-26 -4 q-271 -24 -271 -176z" />
<glyph unicode="b" horiz-adv-x="1148" d="M111 57v1309q18 55 98 55h51h49q80 0 99 -47q4 -16 4 -260l2 -250l18 13q121 82 295 81q344 0 344 -485q0 -494 -414 -493q-72 0 -123 17t-116 71q-14 -45 -36 -56.5t-91 -11.5h-33l-92 2q-41 12 -55 55zM418 219q63 -63 143 -63q55 0 94 17t59.5 42t32 71t13.5 84t2 101 q0 178 -35 244.5t-154 66.5q-59 0 -155 -53v-510z" />
<glyph unicode="c" horiz-adv-x="1001" d="M76 475q0 459 424 496q4 0 27.5 1t37.5 1q150 0 254 -41q88 -39 99 -49l6 -13q0 -12 -17 -98q-2 -10 -4 -22.5t-4 -20.5t-3 -17.5t-3 -15.5t-3 -12t-3 -9l-4 -6q-2 -3 -5.5 -4t-5.5 -1q-12 0 -41 24q-61 53 -114 73.5t-142 20.5q-55 0 -93 -18.5t-56 -43t-28.5 -72.5 t-11.5 -78.5t-1 -92.5q0 -70 5 -116t20.5 -94t51.5 -72.5t93 -24.5h20q154 0 287 96q25 16 27 19q25 4 29 -17q2 -6 10 -96t8 -98q-4 -12 -52 -34t-139.5 -42.5t-185.5 -20.5q-483 0 -483 498z" />
<glyph unicode="d" horiz-adv-x="1148" d="M76 465q0 193 53 305q98 190 328 191q141 0 258 -74l20 -15v246q0 37 -1 88t-1 70q0 106 23.5 125.5t130.5 19.5h37q94 0 110 -51q4 -12 4 -659.5t-4 -659.5q-10 -33 -36.5 -42t-75.5 -9h-37h-39q-117 0 -117 74v8q-119 -104 -268 -105q-68 0 -126.5 17.5t-121.5 64.5 t-100 150.5t-37 255.5zM387 399q0 -190 86 -223q41 -20 88 -20q90 0 168 77v502q-61 47 -143 47q-96 0 -146 -49q-53 -57 -53 -209v-55v-53v-17z" />
<glyph unicode="e" horiz-adv-x="1046" d="M61 473q0 143 43 245.5t116 155t151 75t166 22.5h12q51 0 91 -4t109.5 -28t115.5 -66t82 -130t36 -211q0 -61 -28.5 -78.5t-125.5 -17.5q-20 0 -83.5 1t-108.5 1h-283v-6q0 -57 21.5 -129t66.5 -106q57 -41 146 -41q66 0 129 18.5t100 38.5t71 43t36 23q25 4 28 -17 q2 -6 9.5 -91t7.5 -91q-4 -20 -103.5 -53t-189.5 -45q-18 -2 -90 -2q-150 0 -257.5 43t-163.5 116.5t-80 155.5t-24 178zM358 578h365v20q-6 66 -23.5 108t-45 59t-52 22.5t-61.5 5.5q-150 0 -183 -207v-8z" />
<glyph unicode="f" horiz-adv-x="688" d="M59 844q0 27 2 40t20.5 31.5t55.5 22.5h23v90v14q0 59 3 97.5t22.5 97.5t54 97t106.5 70t172 38q2 0 10.5 1t14.5 1t21.5 -1t23.5 -1q158 0 192 -35v-100v-64q0 -33 -6 -45t-24 -12q-8 4 -31 25.5t-57.5 38t-83.5 16.5q-90 0 -115 -64q-4 -12 -6 -139v-125h61 q72 0 92 -10q35 -25 35 -78q0 -33 -7 -51.5t-25.5 -26.5t-35 -10t-47.5 -2h-8h-59v-348q0 -348 -4 -361q-18 -51 -103 -51h-49l-90 2q-41 12 -55 55l-2 351v352h-19q-82 0 -82 84z" />
<glyph unicode="g" d="M35 -139q0 170 133 225l-12 23q-27 53 -27 112q0 70 41 139l-14 17q-84 88 -84 237q0 346 426 347q178 0 290 -66l25 12q111 53 227 54q14 -2 19.5 -6.5t9.5 -22t12 -62.5q12 -68 13 -79q-4 -14 -23 -19q-6 0 -28.5 8t-65.5 18.5t-94 16.5l-13 2q57 -76 58 -209 q0 -59 -16.5 -112.5t-58.5 -108.5t-134 -88t-223 -33q-150 0 -252 47q-4 -25 -4 -34q0 -84 77 -109q12 -4 199 -4q209 -2 225 -4q154 -16 232 -64.5t104 -146.5q12 -37 13 -84q0 -104 -88.5 -186t-303.5 -99q-37 -4 -137 -4h-37q-444 0 -487 250q-2 10 -2 33zM276 -127 q0 -147 285 -147q287 0 287 139q0 23 -6 40t-20.5 30.5t-29 22.5t-40 14l-44 8.5t-50 5.5t-51.5 2h-53h-50h-109q-61 0 -79.5 -8.5t-28.5 -40.5q-11 -31 -11 -66zM365 614q0 -113 22.5 -155.5t112.5 -42.5t112.5 43t22.5 155q0 121 -24.5 159t-123.5 38q-43 0 -69.5 -13.5 t-37.5 -45t-13 -58.5t-2 -80z" />
<glyph unicode="h" horiz-adv-x="1148" d="M109 57v1309q18 55 98 55h51h45q88 0 103 -51q4 -12 4 -293v-278q129 162 329 162q59 0 105.5 -9.5t90.5 -33t70.5 -73.5t32.5 -126q2 -18 2 -340q0 -315 -4 -328q-16 -51 -114 -51h-37h-39q-92 0 -111 47q-4 16 -4 334q-2 326 -4 336q-12 39 -39 53q-25 10 -72 10h-6 q-59 0 -114 -39q-51 -41 -66.5 -95t-15.5 -157q0 -20 1 -76.5t1 -90.5v-154q0 -119 -17.5 -143.5t-99.5 -24.5h-43l-92 2q-41 12 -55 55z" />
<glyph unicode="i" horiz-adv-x="524" d="M94 1268v35l2 69l2 6q4 6 8.5 11.5t9.5 12.5t14 12t20 7h16q16 0 44 1t54 1h107l30 -20q6 -4 14.5 -18.5t9.5 -32t1 -54.5q0 -63 -8 -83.5t-47 -38.5h-224q-35 18 -44 35.5t-9 56.5zM111 57v826q18 55 98 55h51h45q88 0 103 -51q4 -12 4 -418t-4 -418q-18 -51 -103 -51 h-49l-90 2q-41 12 -55 55z" />
<glyph unicode="j" horiz-adv-x="585" d="M-145 -326q0 6 18 73t21 71q6 10 22 10q82 -43 141 -43q80 0 103 41q10 16 11 75.5t1 467.5q0 506 4 518q14 51 103 51h45h45q43 0 59 -5t33 -26q10 -14 12 -51q2 -43 2 -215v-266v-121v-172q0 -195 -9 -260.5t-50 -122.5q-76 -119 -256 -119q-96 0 -200.5 33.5 t-104.5 60.5zM143 1298v29q0 78 54 92q8 4 112 4h51q51 0 77 -9t34 -42q4 -10 4 -74v-28q0 -78 -53 -92q-8 -4 -113 -4h-51q-51 0 -76.5 9t-34.5 42q-4 10 -4 73z" />
<glyph unicode="k" horiz-adv-x="1087" d="M129 57v1309q18 55 92 55h41h37q76 0 94 -47q4 -16 4 -358l2 -350l121 118l55 54q31 31 42.5 41t31 25.5t26.5 18.5t24.5 9t31.5 6h39h68h55q51 0 70.5 -8t19.5 -35q0 -14 -6 -21.5t-66 -64.5l-100 -98l-158 -156q0 -2 81 -112l171 -232l107 -145q4 -4 4 -19 q0 -29 -18.5 -38t-61.5 -9h-62h-59q-63 0 -90 23q-4 2 -135 180l-127 172l-72 -68v-123v-73q0 -49 -10 -74t-43 -33q-10 -4 -84 -4l-70 2q-41 12 -55 55z" />
<glyph unicode="l" horiz-adv-x="524" d="M111 57v1309q18 55 98 55h51h45q88 0 103 -51q4 -12 4 -659.5t-4 -659.5q-18 -51 -103 -51h-49l-90 2q-41 12 -55 55z" />
<glyph unicode="m" horiz-adv-x="1775" d="M109 57v838q10 33 55 55h86h41q51 0 74.5 -9t33.5 -42q4 -10 4 -61v-47q121 168 347 167q78 0 132 -15t83.5 -47t40 -51.5t24.5 -56.5q123 172 334 173q133 0 211 -48.5t92 -195.5q2 -14 2 -338q0 -315 -4 -328q-10 -33 -34.5 -42t-78.5 -9h-43l-92 2q-41 12 -55 55 l-2 324v41v172q0 121 -18.5 153.5t-92.5 32.5q-59 0 -103 -23.5t-63.5 -59t-27.5 -60.5t-11 -41q-2 -10 -2 -274v-154q0 -119 -17 -143.5t-99 -24.5h-43l-92 2q-41 12 -56 55l-2 324v41v172q0 121 -18.5 153.5t-91.5 32.5q-59 0 -103.5 -23.5t-64 -59t-27.5 -60.5t-10 -41 q-2 -10 -2 -274v-154q0 -119 -17.5 -143.5t-99.5 -24.5h-43l-92 2q-41 12 -55 55z" />
<glyph unicode="n" horiz-adv-x="1148" d="M109 57v838q10 33 55 55h86h41q51 0 74.5 -9t33.5 -42q4 -10 4 -61v-47q137 168 314 167q51 0 81.5 -2t80 -14t77 -35.5t52 -72t30.5 -115.5q2 -18 2 -340q0 -315 -4 -328q-16 -51 -114 -51h-37h-39q-92 0 -111 47q-4 16 -4 334q-2 326 -4 336q-12 39 -39 53 q-25 10 -72 10h-6q-59 0 -114 -39q-51 -41 -66.5 -95t-15.5 -157q0 -20 1 -76.5t1 -90.5v-154q0 -119 -17.5 -143.5t-99.5 -24.5h-43l-92 2q-41 12 -55 55z" />
<glyph unicode="o" d="M66 461q0 248 108.5 370.5t335.5 139.5h35h10q63 0 110.5 -6.5t123 -28t136 -79.5t95.5 -148q41 -94 41 -248q0 -483 -500 -484q-495 1 -495 484zM373 477q0 -168 33.5 -237.5t156.5 -69.5h15q74 0 116 43q33 31 45.5 87t12.5 177q0 182 -35 249t-164 67q-61 0 -99 -20.5 t-55.5 -68t-21.5 -95.5t-4 -132z" />
<glyph unicode="p" horiz-adv-x="1148" d="M111 -340v1223q8 33 55 55h90h29q72 0 95 -12.5t34 -65.5l18 12q70 45 158 67t135 22q4 0 14.5 -1.5t16.5 -1.5q152 0 229 -114q86 -117 86 -387q0 -121 -29.5 -212t-72.5 -141.5t-102.5 -80t-106.5 -38t-98 -8.5q-129 0 -244 91v-201q0 -31 1 -76t1 -59q0 -63 -10.5 -90 t-44.5 -35q-10 -4 -107 -4l-92 2q-41 12 -55 55zM418 219l8 -8l21 -16q11 -8 28 -17.5t39.5 -15.5t46.5 -6q100 0 154 82q47 76 47 233q0 299 -184 299q-72 0 -160 -49v-502z" />
<glyph unicode="q" horiz-adv-x="1148" d="M76 483q0 119 28.5 210t71.5 140.5t100.5 79t104.5 39t96 9.5h4q133 0 234 -97l20 -18v24q0 55 35 80q16 10 117 11h45q88 0 102 -52q4 -12 4 -628q0 -614 -4 -627q-10 -33 -36.5 -42t-75.5 -9h-37h-39q-94 0 -113 47q-4 16 -4 221v211l-16 -14q-106 -90 -240 -91h-10 q-387 0 -387 506zM385 467q0 -309 178 -309q96 0 172 88v426q-43 59 -72.5 77.5t-87.5 18.5q-190 0 -190 -301z" />
<glyph unicode="r" horiz-adv-x="761" d="M111 57v838q8 33 55 55h84h51q80 0 96 -51q4 -10 4 -70v-57l15 21q86 141 248 165q2 0 14 1.5t18 1.5q14 0 33 -15v-209q-12 -10 -20.5 -12t-14.5 -1t-27.5 -2t-52.5 -11q-82 -20 -136 -73.5t-64 -121.5q-2 -10 -2 -233q0 -33 1 -82t1 -66q0 -68 -10.5 -95.5t-45.5 -35.5 q-10 -4 -102 -4l-90 2q-41 12 -55 55z" />
<glyph unicode="s" horiz-adv-x="864" d="M61 90q0 8 18.5 113.5t20.5 109.5q6 12 23 13q12 0 20 -13q61 -68 130 -106.5t173 -38.5q27 0 42.5 2t41 9t38 27.5t12.5 51.5q0 47 -47.5 69.5t-123 34t-96.5 19.5q-90 31 -163.5 102.5t-73.5 188.5q0 131 78.5 215t261.5 84q104 0 127 -2q111 -16 215 -64q16 -6 20 -20 q0 -12 -16 -99q-16 -98 -27 -104q-2 -4 -8 -4q-14 0 -37 20q-113 96 -248 97h-16q-37 0 -57.5 -3.5t-40 -20.5t-19.5 -52q0 -37 26.5 -57.5t123.5 -34.5l88 -19q96 -25 180 -104.5t84 -208.5q0 -260 -233 -305q-45 -10 -132 -10q-98 0 -192 24.5t-142.5 49t-50.5 36.5z" />
<glyph unicode="t" horiz-adv-x="827" d="M41 854q2 31 6 41q25 43 76 43h10h37v106l2 107q18 55 96 55h47h41q86 0 101 -51q4 -12 4 -115v-102h100q115 0 131 -10q35 -25 35 -78q0 -55 -35 -80q-16 -10 -131 -10h-100v-213q0 -133 2 -200.5t12 -112t24.5 -55.5t43.5 -11q61 4 109 37t55 33q14 0 19 -12.5 t19 -67.5q18 -63 19 -70q0 -31 -126 -69.5t-249 -38.5q-61 0 -104 23.5t-66.5 57t-36 98t-15.5 121t-3 150.5v98v232h-29h-14q-41 0 -66 31q-14 16 -14 63z" />
<glyph unicode="u" horiz-adv-x="1148" d="M106 559l3 324q18 57 96 57q8 0 26.5 -1t28.5 -1h51q82 0 101 -47q4 -16 4 -354q2 -360 10 -379q2 -6 16 -13q23 -10 86 -10h13q143 0 184 152l4 20l2 287q0 281 4 297q12 29 37 38t72 9h41h37q98 0 114 -51q4 -12 4 -418t-4 -418q-16 -51 -112 -51h-35h-33 q-66 0 -90.5 14.5t-28.5 73.5v31l-16 -19q-111 -123 -313 -123q-131 4 -202 46.5t-91 140.5q-9 41 -9 395z" />
<glyph unicode="v" horiz-adv-x="1024" d="M53 891q0 12 13.5 26.5t23.5 16.5q8 4 84 4h29q94 0 127 -55q2 -4 94 -299l90 -287l88 285q80 258 96 299q20 43 68 53q10 4 94 4h21q41 0 55 -5t29 -26q4 -12 4 -16l-252 -834q-23 -43 -70 -53q-8 -4 -135 -4q-129 0 -137 4q-47 10 -70 53l-26 82l-62 202l-75 239 q-38 121 -63.5 210t-25.5 101z" />
<glyph unicode="w" horiz-adv-x="1523" d="M49 881q0 39 41 55q6 2 72 2q88 0 96 -4q57 -12 76 -76l143 -545q16 70 80 310.5t72 259.5q23 55 125 55q53 0 61 -4q47 -10 66 -51q8 -16 161 -582l78 285q72 266 84 293q25 51 74 57q16 2 47 2h33h74q37 -23 41 -53q0 -12 -109 -414.5t-115 -415.5q-16 -35 -45.5 -45 t-81.5 -10h-73h-62q-104 0 -127.5 35t-73.5 241q-57 217 -65 334v21l-2 -27q-6 -90 -59.5 -307t-65.5 -240q-23 -57 -117 -57h-43h-43q-92 0 -119 55q-6 12 -114.5 414t-108.5 412z" />
<glyph unicode="x" horiz-adv-x="1024" d="M49 45q0 14 18.5 40t149.5 194q162 207 160 208q0 2 -76 95l-153 188q-77 96 -80 104q-4 6 -5 19q0 31 29 43q6 2 105 2h53q61 0 83.5 -17.5t92.5 -113.5l80 -100l72 100l31 46l25 35q5 7 19.5 21.5t19.5 16.5t20.5 7t28.5 5h40h43h96q35 -18 35 -47q0 -14 -15 -34 l-145 -185q-145 -182 -145 -187l166 -204l96 -119q80 -98 80 -115q0 -49 -80 -49q-8 0 -28.5 1t-30.5 1q-96 0 -113 6q-18 6 -33.5 26.5t-91.5 137.5l-90 139l-4 -6l-14 -19q-9 -13 -19 -30l-24 -38l-27 -44q-76 -123 -90.5 -142.5t-38.5 -27.5l-101 -2q-10 0 -31.5 -1 t-29.5 -1q-78 0 -78 47z" />
<glyph unicode="y" horiz-adv-x="1024" d="M59 891q0 27 35 45q6 2 92 2h32q28 0 38 -2t30.5 -7t35 -16.5t26.5 -29.5q27 -43 112 -259t85 -300v-15q2 0 4 25q6 88 69.5 302t81.5 249q25 53 115 53h41h74q39 -25 39 -57q0 -8 -162 -504l-170 -516q-41 -104 -136 -192.5t-249 -88.5q-147 0 -158 31q-4 6 -12 98 t-8 103v8l2 2q8 14 18 14q4 0 56.5 -25.5t107.5 -25.5q41 0 71.5 14.5t49 46t25 46t18.5 51.5l18 57l-190 434q-191 441 -191 457z" />
<glyph unicode="z" horiz-adv-x="974" d="M63 96q0 43 11 62q2 2 31 41l93 118l115 150l236 303q-37 0 -180.5 -2t-180.5 -2q-47 0 -59 12q-35 20 -35 80q0 18 6 37q16 29 50 41q6 2 346 2t350 -4q14 -2 28 -16q25 -20 25 -72q0 -43 -12 -58q-2 -4 -235.5 -305t-233.5 -303q63 0 209.5 2t181.5 2h8q18 0 30.5 -2 t27 -10t22.5 -28.5t8 -51.5q0 -74 -53 -88q-10 -4 -369 -4h-204q-129 0 -153 3t-42 22q-21 22 -21 71z" />
<glyph unicode="~" d="M188 440q0 90 62.5 177.5t167.5 87.5q70 0 124 -31t93 -60.5t67 -29.5q27 0 38.5 21.5t16.5 54t15 45.5h150q14 -20 14 -29q0 -100 -62.5 -185t-168.5 -85q-66 0 -121.5 30.5t-94 60t-67.5 29.5q-37 0 -50.5 -56t-19.5 -62l-71 -2h-35q-37 0 -47.5 4.5t-10.5 29.5z" />
<glyph unicode="&#xad;" horiz-adv-x="751" d="M25 471q0 55 29.5 72.5t109.5 17.5q16 0 69.5 -1t90 -1t88 1t69.5 1q84 0 114 -16.5t30 -73.5t-29 -74.5t-115 -17.5q-18 0 -69.5 1t-85.5 1q-33 0 -83 -1t-69 -1q-86 0 -117.5 17.5t-31.5 74.5z" />
<glyph unicode="&#x131;" horiz-adv-x="524" d="M111 57v826q18 55 98 55h51h45q88 0 103 -51q4 -12 4 -418t-4 -418q-18 -51 -103 -51h-49l-90 2q-41 12 -55 55z" />
<glyph unicode="&#x237;" horiz-adv-x="585" d="M-145 -326q0 6 24 74q18 55 24.5 66.5t18.5 13.5q4 0 49 -22.5t97 -22.5h10q66 6 82 41q10 16 11 76.5t1 468.5q0 506 4 518q14 51 103 51h45h45q43 0 59 -5t33 -26q10 -14 12 -51q2 -43 2 -215v-266v-121v-172q0 -195 -9 -260.5t-50 -122.5q-76 -119 -256 -119 q-96 0 -200.5 33.5t-104.5 60.5z" />
<glyph unicode="&#x300;" horiz-adv-x="0" d="M-938 1397q0 16 13.5 20t52.5 4h92h137l4 -6q2 0 14 -18l38 -56l48 -67l93 -137v-13q0 -10 -13 -22l-71 -2q-74 0 -76 2q-4 2 -165 139t-163 143q-4 9 -4 13z" />
<glyph unicode="&#x301;" horiz-adv-x="0" d="M-684 1124q0 8 47 80t96 139l47 70q2 0 5.5 3t5.5 3q2 2 141 2h137q14 -20 14.5 -26t-2.5 -9q-2 -4 -162.5 -143t-166.5 -141q-2 -2 -72 -2h-41q-49 -1 -49 24z" />
<glyph unicode="&#x302;" horiz-adv-x="0" d="M-905 1126q0 8 56 81l113 142q56 69 58 68q4 4 115 4q109 0 112 -2q2 -2 105.5 -132l116.5 -146q6 -10 6 -17q0 -8 -15 -22l-71 -2q-74 0 -76 2q-2 0 -90 76l-88 73q-2 0 -90 -73q-88 -76 -90 -76q-2 -2 -76 -2l-72 2q-14 14 -14 24z" />
<glyph unicode="&#x303;" horiz-adv-x="0" d="M-938 1157q0 90 62.5 177t166.5 87q70 0 124.5 -30.5t93 -60.5t67.5 -30q27 0 38 21.5t16 54.5t16 45h149q14 -20 15 -28q0 -100 -62.5 -185.5t-169.5 -85.5q-66 0 -121 31t-94 60.5t-68 29.5q-37 0 -50 -56.5t-19 -62.5l-72 -2h-35q-37 0 -47 5t-10 30z" />
<glyph unicode="&#x304;" horiz-adv-x="0" d="M-971 1251l2 86q8 12 15 13q2 2 393 2h389q6 -8 14 -15v-176l-8 -6l-6 -6l-389 -2h-223q-176 0 -181 10l-2 2q-4 6 -4 92z" />
<glyph unicode="&#x306;" horiz-adv-x="0" d="M-963 1341q0 25 5 37q23 43 67 43h8q47 0 72 -18q18 -18 18 -29q6 -20 230 -20q221 0 227 20q0 6 3 13.5t24.5 20.5t56.5 13q88 0 88 -75q0 -63 -40 -115.5t-126 -77.5q-80 -23 -233 -23q-158 0 -234 23q-166 47 -166 188z" />
<glyph unicode="&#x307;" horiz-adv-x="0" d="M-729 1307v16v16v15q0 12 2 14t4 11.5t5 12.5t8 9t12.5 10t17.5 8t119 4h108q39 -25 47.5 -40t8.5 -62q0 -27 -2 -41t-14.5 -31.5t-39.5 -27.5h-221q-35 12 -45 31.5t-10 54.5z" />
<glyph unicode="&#x308;" horiz-adv-x="0" d="M-940 1321q0 49 4 57q18 47 98 47q8 0 27.5 -1t32.5 -1h100q39 -25 47 -39t8 -63q0 -27 -1 -40t-14 -31.5t-40 -28.5l-100 -2h-58q-82 0 -100 45q-4 8 -4 57zM-506 1319q0 29 2 43t14.5 31.5t36.5 27.5q8 2 107 2h53q84 0 103 -47q4 -16 4 -55v-21q0 -45 -31 -67 q-14 -10 -31.5 -12t-101.5 -2l-99 2q-27 8 -40 24.5t-15 29.5t-2 44z" />
<glyph unicode="&#x30a;" horiz-adv-x="0" d="M-748 1262q0 86 70 122.5t154 36.5q6 0 19 -1t22 -1q143 0 198 -55q41 -45 41 -102.5t-41 -104.5q-55 -55 -200 -55h-11q-252 0 -252 160zM-621 1262q0 -49 30 -64.5t95 -15.5q68 0 96.5 15t28.5 65q0 51 -29.5 64t-95.5 13q-33 0 -49 -1t-36.5 -8t-30 -23t-9.5 -45z" />
<glyph unicode="&#x30b;" horiz-adv-x="0" d="M-901 1122q0 25 12 140l8 70l7 54l2 19q4 16 65 16h90h137q12 -16 13 -24q0 -18 -82 -152.5t-90 -142.5l-72 -2h-49q-25 0 -33 4t-8 18zM-526 1122q0 25 12 140l8 70l6 54l2 19q4 16 66 16h90h137q12 -16 12 -24q0 -18 -81.5 -152.5t-90.5 -142.5l-71 -2h-49q-25 0 -33 4 t-8 18z" />
<glyph unicode="&#x30c;" horiz-adv-x="0" d="M-905 1321q0 25 49 25h41h20q10 0 19.5 -1.5t16.5 -1.5h11h5l90 -73l88 -76q2 0 90 74q88 76 90 75q2 2 76 3h71q14 -16 15 -25q0 -6 -6 -16q-12 -16 -116 -146.5t-106 -132.5q-4 -2 -112 -2q-111 0 -115 2q-227 272 -227 295z" />
<glyph unicode="&#x393;" horiz-adv-x="1189" d="M188 57v1303q12 39 54 53q6 2 397 2t401 -4q53 -14 54 -92v-25v-28q0 -74 -54 -92l-12 -3h-27q-6 0 -53 1.5t-96 1.5q-170 0 -256 4h-78v-557q0 -557 -4 -570q-18 -51 -106 -51h-60l-104 2q-42 12 -56 55z" />
<glyph unicode="&#x394;" horiz-adv-x="1878" d="M123 55q4 23 289.5 661t285.5 642q33 51 82 59q10 4 158 4h82q63 0 98 -12t60 -51q2 -10 286.5 -643t288.5 -660q0 -39 -37 -53h-24h-65h-97q-55 0 -125 -1t-143 -1h-159h-165h-165h-159q-74 0 -143.5 1t-124.5 1h-97h-65h-24q-37 14 -37 53zM549 303q0 -2 369 -2 q367 0 366 2q-2 2 -94 210l-182 415l-93 207z" />
<glyph unicode="&#x398;" horiz-adv-x="1753" d="M127 696q0 770 743 770q176 0 309.5 -41t216.5 -110.5t135 -170t72.5 -208t20.5 -238.5q0 -158 -34 -283.5t-113.5 -233t-232 -167t-367.5 -59.5q-750 0 -750 741zM444 707q0 -186 30 -290t97 -171q111 -104 306 -105q193 0 303 105q127 129 127 436q0 66 -2 112 t-10.5 110.5t-23 110.5t-43 96t-68.5 83t-100.5 58.5t-135.5 33.5q-16 2 -50 2q-51 0 -100 -10t-105.5 -33.5t-103.5 -75t-73 -122.5q-48 -119 -48 -340zM571 674v41v49q0 82 54 96q8 4 249 4h123q129 0 156 -16.5t27 -91.5v-41q0 -8 1 -25.5t1 -25.5q0 -82 -56 -97 q-10 -4 -249 -4h-121q-129 0 -157 16.5t-28 94.5z" />
<glyph unicode="&#x39b;" horiz-adv-x="1376" d="M84 57q0 23 189.5 659t195.5 650q27 55 137 55h80h82q57 0 89 -10t48 -45q6 -14 195.5 -650t189.5 -659q0 -35 -23.5 -46t-70.5 -11h-59h-60q-98 0 -125 55q-6 10 -69.5 224.5t-134 482.5t-82.5 375v-19q-10 -88 -79 -349t-133.5 -480t-72.5 -234q-4 -10 -18.5 -24.5 t-24.5 -18.5q-23 -12 -121 -12h-47q-86 0 -86 57z" />
<glyph unicode="&#x39e;" horiz-adv-x="1501" d="M94 133v37q0 88 53 102q16 4 74 4q72 0 242 -2t280 -2q90 0 296 2t255 2h27q61 0 80 -51q4 -12 4 -86v-39q0 -82 -53 -96q-10 -4 -607 -4l-593 2q-35 12 -52 41l-4 14zM106 1239v37l3 78q12 39 53 53q6 2 588 2q580 0 589 -4q53 -14 54 -96v-37v-37q0 -82 -54 -100h-7 q-5 0 -17 -1t-31 -1q-37 0 -235.5 2t-298.5 2q-102 0 -300 -2t-235 -2q-18 0 -30.5 1t-17.5 1h-7q-35 12 -44.5 34.5t-9.5 69.5zM250 737l2 76q12 39 53 53q6 2 445 2q436 0 446 -4q53 -14 53 -94v-37v-37q0 -82 -53 -96q-10 -4 -446 -4h-275q-143 0 -168.5 4t-42.5 27 q-14 18 -14 110z" />
<glyph unicode="&#x3a0;" horiz-adv-x="1626" d="M188 57v1303q12 39 54 53q6 2 569 2t573 -4q39 -10 50 -47q4 -12 4 -657q0 -643 -4 -656q-8 -33 -34 -42t-77 -9h-51h-51q-51 0 -77 9t-34 42q-4 12 -4 578v563h-588v-563q0 -565 -4 -578q-18 -51 -106 -51h-60l-104 2q-42 12 -56 55z" />
<glyph unicode="&#x3a3;" horiz-adv-x="1626" d="M125 1309l2 57q12 39 53 53q6 2 631 2t635 -4q53 -12 53 -92v-25v-28q0 -74 -53 -92h-8q-6 0 -23.5 -1t-42.5 -1l-754 6q0 -2 189.5 -211t196.5 -213q16 -18 16 -49q0 -23 -20.5 -50.5t-163.5 -197.5l-177 -209q8 0 277.5 3t439.5 3h35q66 0 84 -51q4 -12 4 -78v-33 q0 -80 -53 -94q-10 -4 -639 -4l-625 2q-56 17 -55 65v5.5v5.5q0 18 17.5 41.5t113.5 138.5l121 143q240 285 239 287l-235 260q-231 248 -244 269q-14 18 -14 92z" />
<glyph unicode="&#x3a5;" horiz-adv-x="1753" d="M127 1147q0 96 66.5 172t153.5 110.5t171 34.5q41 0 68.5 -4t73 -18.5t85 -55t70.5 -106.5q31 -57 51 -141l11 -33q2 2 16 54t37.5 110.5t81 116t137.5 73.5q18 4 65 4q182 0 296 -96t114 -221q0 -23 -1 -32t-13.5 -23.5t-38.5 -26.5h-199q-49 25 -54 63.5t-24 57.5 q-29 31 -84 31q-106 0 -137 -131.5t-31 -428.5v-215q0 -379 -4 -391q-18 -51 -106 -51h-60l-104 2q-41 12 -55 55l-2 418q-2 229 -2 428q0 2 -6.5 55.5t-16.5 108.5t-47 102.5t-94 47.5q-29 0 -39 -3q-39 -14 -55.5 -35.5t-15.5 -39t-8 -37t-36 -31.5l-12 -6h-199 q-27 14 -39 28.5t-13 22.5t-1 31z" />
<glyph unicode="&#x3a6;" horiz-adv-x="1626" d="M127 710.5q0 112.5 37 200.5t90 136.5t121.5 83t122 46t100.5 19.5l47 6h8v82l2 82q18 55 103 55h55h51q90 0 105 -51q4 -12 4 -90v-78h6q2 0 45 -7t98.5 -18.5t123 -45t122.5 -82t93 -137.5t38 -201q0 -193 -119 -328q-39 -41 -94 -72.5t-106.5 -48t-95.5 -26t-74 -13.5 l-31 -4h-6v-78v-39q0 -84 -53 -98q-10 -4 -111 -4l-98 2q-41 12 -56 55l-2 80v82h-8l-47 6q-47 8 -100.5 19.5t-122 46.5t-121.5 83t-90 136t-37 200.5zM451 711q0 -127 38 -201q18 -31 46 -53.5t51.5 -31.5t44.5 -15l18 -7q4 0 4 307.5t-2 307.5q-4 0 -22.5 -6t-47 -19.5 t-44.5 -27.5q-86 -68 -86 -254zM973 403q88 27 135 72t61 146q2 18 2 90v20q0 61 -6 102t-43 92.5t-106 80.5q-2 0 -5 1t-14 4l-24 7v-615z" />
<glyph unicode="&#x3a8;" horiz-adv-x="1753" d="M125 1198q2 18 2 24.5t5 18.5t17.5 21.5t32.5 19.5h101q119 0 143 -12q72 -37 93 -152q16 -86 16 -176q0 -30 -1 -60l-2 -49q0 -98 23 -201q29 -128 111 -183q35 -29 49 -29q2 0 2 473l2 473q18 55 102 55h56h53q84 0 102 -47q4 -16 4 -481l2 -473q72 35 112 95t51 137 t13.5 151t4.5 165t14 150q25 139 121 162q8 2 96 2h45q74 0 102.5 -16.5t28.5 -73.5q0 -70 -53 -86q-27 -4 -30 -80t-7 -187.5t-28.5 -228t-114.5 -220t-246 -144.5q-20 -8 -98 -23h-13v-80v-41q0 -84 -53 -98q-10 -4 -111 -4l-98 2q-41 12 -55 55l-2 82v84l-31 4 q-76 12 -139.5 38t-108.5 54.5t-80.5 72.5t-58.5 78t-39 88t-24.5 85t-13.5 88t-5 77.5t-2 70.5q-2 221 -37 227q-43 16 -49 51q-4 10 -4 41z" />
<glyph unicode="&#x3a9;" horiz-adv-x="1626" d="M100 121v31q0 82 54 96q12 4 51 4q8 0 49 -1t76 -1h164q-33 66 -103 158l-124 162q-54 71 -98 174.5t-44 205.5q0 68 14.5 130.5t54 131t103 119.5t171 88t247.5 45q10 0 43 1t53 1q293 0 463 -98q74 -43 123 -104.5t68.5 -125t26.5 -105.5t7 -81q0 -102 -43 -205.5 t-98 -174.5l-125 -162q-70 -92 -103 -160h164q35 0 76 1t49 1h8q80 0 93 -51q4 -12 4 -74v-31q0 -78 -54 -92q-10 -4 -260 -4l-245 2q-35 12 -52 41q-4 12 -4 49q0 104 40 224t88 211t88 211t40 223q0 72 -13 125t-50 102t-109.5 74.5t-181.5 25.5q-170 0 -262 -72.5 t-92 -257.5q0 -100 41 -218.5t89 -212t89 -216.5t41 -227q0 -55 -32 -70.5t-120 -15.5q-18 0 -72.5 1t-89.5 1l-245 2q-41 12 -56 55z" />
<glyph unicode="&#x2000;" horiz-adv-x="768" />
<glyph unicode="&#x2001;" horiz-adv-x="1538" />
<glyph unicode="&#x2002;" horiz-adv-x="768" />
<glyph unicode="&#x2003;" horiz-adv-x="1538" />
<glyph unicode="&#x2004;" horiz-adv-x="512" />
<glyph unicode="&#x2005;" horiz-adv-x="382" />
<glyph unicode="&#x2006;" horiz-adv-x="256" />
<glyph unicode="&#x2007;" horiz-adv-x="256" />
<glyph unicode="&#x2008;" horiz-adv-x="190" />
<glyph unicode="&#x2009;" horiz-adv-x="307" />
<glyph unicode="&#x200a;" horiz-adv-x="83" />
<glyph unicode="&#x2010;" horiz-adv-x="751" d="M25 471q0 55 29.5 72.5t109.5 17.5q16 0 69.5 -1t90 -1t88 1t69.5 1q84 0 114 -16.5t30 -73.5t-29 -74.5t-115 -17.5q-18 0 -69.5 1t-85.5 1q-33 0 -83 -1t-69 -1q-86 0 -117.5 17.5t-31.5 74.5z" />
<glyph unicode="&#x2011;" horiz-adv-x="751" d="M25 471q0 55 29.5 72.5t109.5 17.5q16 0 69.5 -1t90 -1t88 1t69.5 1q84 0 114 -16.5t30 -73.5t-29 -74.5t-115 -17.5q-18 0 -69.5 1t-85.5 1q-33 0 -83 -1t-69 -1q-86 0 -117.5 17.5t-31.5 74.5z" />
<glyph unicode="&#x2012;" horiz-adv-x="751" d="M25 471q0 55 29.5 72.5t109.5 17.5q16 0 69.5 -1t90 -1t88 1t69.5 1q84 0 114 -16.5t30 -73.5t-29 -74.5t-115 -17.5q-18 0 -69.5 1t-85.5 1q-33 0 -83 -1t-69 -1q-86 0 -117.5 17.5t-31.5 74.5z" />
<glyph unicode="&#x2013;" d="M0 582q0 70 53 84q8 4 508 4q399 0 456.5 -1t72.5 -10q35 -25 34 -79q0 -53 -34 -78q-14 -8 -70.5 -9t-456.5 -1q-500 0 -510 4q-53 14 -53 86z" />
<glyph unicode="&#x2014;" horiz-adv-x="2252" d="M0 582q0 70 53 84q8 4 1071 4t1074 -4q53 -14 53 -84q0 -72 -53 -86q-10 -4 -1074 -4q-1061 0 -1071 4q-53 14 -53 86z" />
<glyph unicode="&#x2018;" horiz-adv-x="626" d="M166 920v270l78 113l25 35q13 19 20.5 28.5t14.5 21t11 15.5l10 9q5 5 9 6t9 2t11 1h35h23q51 0 51 -22q0 -10 -37 -99.5t-39 -91.5q0 -4 31 -4h31q6 -8 14 -14v-270l-14 -13h-271z" />
<glyph unicode="&#x2019;" horiz-adv-x="626" d="M164 928q0 10 37 99t39 91q0 4 -31 4l-31 2l-12 13v270q8 12 14 12q2 2 135 2h134q6 -8 14 -14v-268l-80 -113q-10 -14 -20.5 -30.5t-16.5 -24.5t-13 -19.5t-11 -16.5l-10 -11q-5 -6 -8 -8.5t-7 -5.5t-8 -3t-8.5 -1t-10.5 -1h-32h-23q-51 0 -51 23z" />
<glyph unicode="&#x201c;" horiz-adv-x="1142" d="M283 920v270l77 113l26 35q13 19 20.5 28.5t14.5 21t11 15.5l9 9q5 5 9.5 6t9.5 2t11 1h35h22q51 0 52 -22q0 -10 -37 -99.5t-39 -91.5q0 -4 31 -4h30q6 -8 15 -14v-270l-15 -13h-270zM768 920v270l78 113l25 35q13 19 20.5 28.5t14.5 21t12 15.5l9 9q5 5 9 6t9 2t11 1 h35h23q51 0 51 -22q0 -10 -37 -99.5t-39 -91.5q0 -4 31 -4h31q6 -8 14 -14v-270l-14 -13h-271z" />
<glyph unicode="&#x201d;" horiz-adv-x="1142" d="M76 928q0 10 37 99t39 91q0 4 -31 4l-31 2l-12 13v270q8 12 14 12q2 2 135 2h133q6 -8 15 -14v-268l-80 -113q-10 -14 -20.5 -30.5t-16.5 -24.5t-13 -19.5t-12 -16.5l-9 -11q-5 -6 -8 -8.5t-7 -5.5t-8 -3t-8.5 -1t-10.5 -1h-32h-23q-51 0 -51 23zM561 928q0 10 37 99 t39 91q0 4 -31 4l-31 2l-12 13v270q8 12 15 12q2 2 135 2h133q6 -8 14 -14v-268l-80 -113q-10 -14 -20 -30.5t-16.5 -24.5t-13.5 -19.5t-11 -16.5l-9 -11q-5 -6 -8.5 -8.5l-7.5 -5.5t-8 -3t-8 -1t-10 -1h-33h-23q-51 0 -51 23z" />
<glyph unicode="&#x202f;" horiz-adv-x="307" />
<glyph unicode="&#x205f;" horiz-adv-x="382" />
<glyph unicode="&#xe000;" horiz-adv-x="940" d="M0 940h940v-940h-940v940z" />
<glyph unicode="&#xeffd;" horiz-adv-x="1024" d="M0 0v205h205v-205h-205zM819 0v205h205v-205h-205z" />
<glyph unicode="&#xeffe;" horiz-adv-x="614" d="M0 0v205h205v-205h-205zM410 0v205h204v-205h-204z" />
<glyph unicode="&#xefff;" horiz-adv-x="204" d="M0 0v205h205v-205h-205z" />
</font>
</defs>
</svg>
