<?xml version="1.0" standalone="no"?>
<!DOCTYPE svg PUBLIC "-//W3C//DTD SVG 1.1//EN" "http://www.w3.org/Graphics/SVG/1.1/DTD/svg11.dtd" >
<svg xmlns="http://www.w3.org/2000/svg">
<metadata>
This is a custom SVG webfont generated by Font Squirrel.
Copyright   : Copyright c 20092010 Design Science Inc
</metadata>
<defs>
<font id="MathJax_MainItalic" horiz-adv-x="1046" >
<font-face units-per-em="2048" ascent="1638" descent="-410" />
<missing-glyph horiz-adv-x="512" />
<glyph unicode=" "  horiz-adv-x="512" />
<glyph unicode="&#x09;" horiz-adv-x="512" />
<glyph unicode="&#xa0;" horiz-adv-x="512" />
<glyph unicode="!" horiz-adv-x="628" d="M219 104q6 66 53 105t95 39q57 0 81.5 -33t24.5 -68q0 -55 -45 -101t-109 -46q-37 0 -68.5 23.5t-31.5 80.5zM377 424q0 18 74.5 475t80.5 471q20 51 76 80l14.5 5l14.5 5t10 2q16 4 29 4q43 0 72.5 -26.5t29.5 -67.5v-22l-155 -463q-152 -463 -158 -469q-4 -12 -45 -12 q-43 0 -43 18z" />
<glyph unicode="&#x22;" horiz-adv-x="1052" d="M360 821q0 6 40 41t97.5 104.5t90.5 153.5q25 59 24 72l-8 -4q-8 -4 -26.5 -9t-36.5 -5q-47 0 -75 25.5t-28 70.5q0 55 45 103t109 48q47 0 76.5 -35.5t29.5 -89.5v-18q0 -74 -28.5 -152.5t-68.5 -139t-83 -110t-75.5 -75t-41.5 -25.5q-10 0 -25.5 18.5t-15.5 26.5z M764 821q0 6 40 41t97 104.5t90 153.5q25 59 25 72l-8 -4q-8 -4 -26.5 -9t-37.5 -5q-47 0 -74.5 25.5t-27.5 70.5q0 55 45 103t108 48q47 0 77 -35.5t30 -89.5v-18q0 -74 -29 -152.5t-68.5 -139t-82.5 -110t-76 -75t-41 -25.5q-10 0 -25.5 18.5t-15.5 26.5z" />
<glyph unicode="#" horiz-adv-x="1675" d="M236 313q0 23 32 41h359l78 158q78 156 77 158h-207h-108q-86 0 -108.5 7t-22.5 34q0 25 24 37q6 4 238 4h229l326 657q12 12 30.5 12t31 -16t8.5 -33q0 -6 -136 -276l-169 -344h339l326 657q12 12 29 12q18 0 30.5 -13t12.5 -28v-4l-2 -4q0 -6 -154 -313l-151 -305 l159 -2h160q29 -23 29 -41q0 -23 -33 -41h-358l-78 -158q-78 -156 -78 -158h207h127q74 0 93 -7t19 -33.5t-19.5 -35t-82.5 -8.5q-16 0 -68.5 1t-91.5 1h-227l-328 -657q-12 -12 -28 -12q-18 0 -30.5 13t-12.5 28l2 4v4q0 6 135 276l170 344h-338l-328 -657q-12 -12 -29 -12 q-18 0 -30.5 13t-12.5 28l3 4v4q0 6 153 313l152 307h-160l-158 2q-30 12 -30 39zM719 354h338l78 158q78 156 77 158h-338l-77 -158q-78 -156 -78 -158z" />
<glyph unicode="%" horiz-adv-x="1675" d="M297 -72q0 12 35 55l344 398l205 237q575 666 575 668l-20 -8q-100 -35 -199 -35q-109 0 -225 55l-31 17v-37q0 -164 -82 -322q-51 -104 -127 -173.5t-156 -69.5q-90 0 -143 72.5t-53 197.5q0 150 81 306.5t208 217.5q49 29 98 29q45 0 72.5 -16.5t58.5 -57.5 q111 -143 303 -143q238 0 401 180q31 37 52 37q16 0 28.5 -13.5t12.5 -27.5q0 -10 -42 -61l-282 -328l-362 -420q-680 -788 -689 -792q-8 -8 -22 -9q-16 0 -28.5 12.5t-12.5 30.5zM553 907q0 -119 68 -119h6h4q37 0 82 46q74 70 125 198.5t51 251.5q0 176 -90 176 q-66 0 -127 -102q-43 -66 -81 -219.5t-38 -214.5v-17zM1051 156q0 109 48 234.5t138 215.5l47 45q88 59 158 60q88 0 130 -76t42 -180q0 -197 -116 -383.5t-253 -186.5q-72 0 -133 68t-61 203zM1184 74q0 -111 71 -111q90 0 177.5 169t87.5 323q0 180 -88 180 q-45 0 -91.5 -52.5t-70.5 -117.5q-25 -61 -55.5 -183t-30.5 -196v-12z" />
<glyph unicode="&#x26;" horiz-adv-x="1570" d="M260 371q0 72 41 182.5t123 212.5l18 25q-14 72 -14 118q0 209 141.5 383t298.5 174q100 0 158.5 -67.5t58.5 -167.5q0 -96 -39.5 -136t-89.5 -40q-43 0 -62.5 25.5t-19.5 52.5q0 51 39 83.5t72 32.5h4v15q-6 49 -38.5 88t-92.5 39q-106 0 -186 -156q-25 -51 -48.5 -133 t-33.5 -139l-12 -56l26 13q27 12 73 26.5t83 14.5q53 0 87 -39t34 -95q0 -84 -61.5 -153.5t-141.5 -69.5q-82 0 -154 55q-2 0 -21.5 -59t-39 -143t-19.5 -133q0 -84 31 -144.5t84 -91.5t110.5 -44t123.5 -13q143 0 255.5 46t178 113.5t108.5 155.5t58.5 162t15.5 141.5 t-20.5 129t-40 89t-23.5 27.5q-8 -4 -21 -12l-50 -32q-36 -24 -64.5 -48.5t-55 -58t-32.5 -64.5q4 -45 6 -45q27 51 94 51q29 0 54.5 -16.5t25.5 -55.5q0 -20 -8 -43.5t-39 -49t-82 -25.5q-63 6 -105 44t-42 115q6 63 41.5 117.5t72.5 84.5t108.5 78t106.5 77q49 37 93.5 92 t63.5 89t19 38q0 2 -4 2q-8 0 -20 5t-25.5 23.5t-13.5 45.5q0 47 35 80.5t82 33.5q72 0 77 -69q0 -72 -72.5 -201t-160.5 -195l12 -18q12 -18 17.5 -28.5l17.5 -33t19.5 -42t14.5 -46t11 -56.5t4 -62q0 -94 -23.5 -189.5t-79.5 -191.5t-138 -169t-210 -119t-286 -46 q-215 0 -361.5 116t-146.5 300zM582 768q0 -8 10 -26.5t35.5 -40t58.5 -21.5q41 0 66.5 37t32 69.5t6.5 57.5q0 41 -41 41q-43 0 -85 -30t-62.5 -56.5t-20.5 -30.5z" />
<glyph unicode="'" horiz-adv-x="628" d="M436 821q0 8 40 42t96.5 103.5t89.5 153.5q25 53 24 72l-8 -4q-8 -4 -26.5 -9t-37.5 -5q-47 0 -74.5 25.5t-27.5 70.5q0 55 45 103t109 48q47 0 76.5 -35.5t29.5 -89.5v-18q0 -119 -69.5 -243t-139 -191.5t-90.5 -67.5q-10 0 -23.5 18.5t-13.5 26.5z" />
<glyph unicode="(" horiz-adv-x="837" d="M295 80q0 244 74.5 510t236.5 524t379 414l12 8h25q37 0 37 -20q0 -8 -45 -50q-197 -176 -336 -461.5t-195.5 -538.5t-56.5 -460q0 -156 33 -273.5t64.5 -172t31.5 -60.5q0 -12 -39 -12h-22q-78 78 -138.5 226.5t-60.5 365.5z" />
<glyph unicode=")" horiz-adv-x="837" d="M35 -492q0 8 45 50q197 176 336 461.5t195.5 538.5t56.5 460q0 100 -13.5 186t-33 138.5t-39 90t-32.5 58t-13 25.5q0 12 10 18l10 2h18h25q78 -78 138.5 -226.5t60.5 -365.5q0 -264 -104.5 -595t-309.5 -587q-55 -70 -137 -148.5t-152 -125.5h-24q-37 0 -37 20z" />
<glyph unicode="*" d="M399 899q6 39 29 54.5t152 74.5l143 66l-109 65q-92 55 -108.5 68.5t-16.5 34.5q0 31 27 58.5t62 27.5q16 0 26 -8.5t82 -79.5l88 -86l27 151q4 20 8 49t6 41l5 32q3 19 7 29l10 20q5 11 12 17.5t17.5 11.5t22.5 9q2 0 10 1t12 1q45 -4 50 -45q0 -10 -26 -89l-50 -153 l-25 -75l125 81q137 92 162 93q18 0 33.5 -18.5t15.5 -37.5q0 -12 -3 -22t-11 -19.5t-16.5 -15.5t-27 -16.5t-32.5 -16.5l-44 -19q-30 -13 -50 -24l-135 -61q-2 -2 10 -11.5t94 -58.5q94 -55 108.5 -67.5t14.5 -38.5q-2 -31 -29.5 -54.5t-56.5 -23.5q-16 0 -31.5 12 t-81.5 78q-86 84 -86 78l-26 -152q-23 -137 -30 -157.5t-42 -40.5q-14 -6 -33 -7h-10q-18 0 -31.5 15.5t-13.5 31.5q0 8 51 158l51 156q-2 0 -128 -83t-128 -85q-12 -6 -26 -6q-18 0 -36 12t-18 45z" />
<glyph unicode="+" horiz-adv-x="1570" d="M285 512q0 27 24.5 34t96.5 7h194h283l69 281l23 92q37 156 49 185.5t39 29.5q14 0 26.5 -11.5t12.5 -27.5q0 -4 -64.5 -265.5t-70.5 -279.5q0 -4 270 -4q272 0 281 -4q25 -14 24 -37q0 -27 -23.5 -35t-93.5 -8q-18 0 -83.5 1t-114.5 1h-281l-2 -8q0 -4 -70 -278 l-71 -281q-10 -20 -37 -21q-14 0 -26.5 13.5t-12.5 27.5q0 12 68 279l67 268h-272q-43 0 -103.5 -1t-78.5 -1q-74 0 -98.5 8t-24.5 35z" />
<glyph unicode="," horiz-adv-x="628" d="M141 -350q0 6 3 10t12 10l19 16q11 9 32.5 30.5t46.5 50.5q45 53 78 115.5t43 94t10 37.5q-2 0 -10 -3t-23.5 -7t-32.5 -4q-55 0 -78.5 29.5t-23.5 64.5q0 45 31 91t94 61q2 0 12.5 1t14.5 1q106 0 106 -127v-10q0 -74 -27.5 -153t-67.5 -139.5t-83 -111.5t-75 -77.5 t-42 -26.5q-8 0 -23.5 19.5t-15.5 27.5z" />
<glyph unicode="-" horiz-adv-x="733" d="M172 389q12 98 39 125h473q14 -14 14 -20q0 -10 -11 -55.5t-17 -57.5q-4 -10 -32 -11t-218 -1h-152q-59 0 -77.5 3t-18.5 17z" />
<glyph unicode="." horiz-adv-x="628" d="M219 102q0 53 46 99.5t106 46.5q45 0 73.5 -27.5t28.5 -73.5q0 -51 -44 -99t-110 -48q-43 0 -71.5 27.5t-28.5 74.5z" />
<glyph unicode="/" d="M41 -463q2 6 571.5 988t577.5 995q16 16 31 16q16 0 29.5 -13.5t13.5 -27.5l-2 -4v-4q-2 -6 -571.5 -988t-577.5 -995q-12 -16 -31 -16q-20 0 -31 14q-14 10 -10 35z" />
<glyph unicode="0" d="M225 295q0 117 35 292t123 375.5t205 294.5q125 104 260 105q303 0 303 -358q0 -131 -57 -353q-170 -694 -580 -694q-59 0 -100 12q-96 35 -140.5 113t-48.5 213zM383 201q0 -80 44 -125t105 -45q123 0 216 139q59 92 154 470t95 480q0 68 -32.5 110t-77.5 54 q-10 2 -51 2q-55 0 -113.5 -39t-85.5 -82q-66 -88 -147.5 -420.5t-100.5 -451.5q-6 -47 -6 -92z" />
<glyph unicode="1" d="M225 23q0 4 7.5 29.5t9.5 29.5q4 12 57 12q102 0 135 7.5t47 23.5q6 10 123 479l119 473l-27 -14q-25 -14 -79 -32.5t-109 -24.5q-41 0 -41 22q0 29 16 62q2 8 21.5 10t59.5 8t79 22q74 31 139.5 88.5t98.5 100.5l32 41q8 4 17 4q29 0 28 -16q0 -23 -149 -613 q-152 -606 -152 -614q0 -14 27 -19.5t111 -7.5h69q12 -18 13 -22q0 -33 -15 -62q-10 -10 -33 -10q-10 0 -91 2t-199 2q-98 0 -161 -1t-87.5 -2t-30.5 -1q-35 0 -35 23z" />
<glyph unicode="2" d="M156 -26.5q0 6.5 8 38t36.5 92t69.5 124t118 137t173 131.5q109 63 184.5 129.5t114.5 133t55.5 117t26.5 113.5q12 63 12 113q0 98 -48 142t-109 44q-104 0 -196.5 -92t-137.5 -199.5t-45 -179.5q0 -18 1 -26.5t9 -17.5t27 -9q74 6 124 100t50 146q0 27 -10.5 50 t-10.5 27q0 12 23.5 32t38.5 9q4 -2 12 -16t15.5 -41t7.5 -53q0 -96 -79 -213t-184 -117q-61 0 -88.5 40t-27.5 83v16q0 59 34.5 147.5t94 176.5t155 150.5t199.5 62.5q145 0 232 -100.5t87 -245.5q0 -49 -12 -105q-23 -119 -129 -231q-84 -84 -261 -191.5t-185 -113.5 q-98 -68 -174 -170l-17 -21q0 -2 12 -2q59 0 189.5 -26.5t198.5 -26.5q39 0 49 2q57 16 104 67.5t70 118.5q8 25 13 30t28 5h47q16 -14 6 -43q-39 -135 -128 -245.5t-216 -110.5q-78 0 -193.5 77t-177.5 77q-68 0 -102 -129l-2 -13q-4 -12 -47 -12h-33q-12 12 -12 18.5z" />
<glyph unicode="3" d="M197 217q0 176 125 176q72 0 81 -71q0 -47 -27.5 -82t-84.5 -43q23 -100 78 -138q43 -29 106 -28q35 0 88 14q66 25 115 72q66 68 99.5 196.5t33.5 190.5q0 31 -6 54.5t-19.5 36.5t-25.5 22.5t-32.5 13.5t-30 6t-29.5 2h-21h-18q-41 0 -52.5 2t-11.5 14q0 6 7.5 35 t7.5 31q2 8 14 10t72 2q80 2 88 4q37 10 66.5 25.5t66.5 51.5t64.5 103.5t41.5 161.5q4 16 4 60q0 150 -149 149q-131 0 -238.5 -100.5t-107.5 -212.5q0 -53 37 -53h2q33 0 61.5 27.5t28.5 66.5q0 25 -12.5 46t-12.5 25q0 10 22.5 28t30.5 18q16 0 33 -39t17 -68 q0 -68 -55.5 -125t-125.5 -57q-53 0 -85.5 37t-32.5 98q0 152 165 287q131 98 277 98q150 0 224.5 -85t74.5 -194q0 -117 -77 -228.5t-193 -170.5l-29 -12q129 -84 129 -252q0 -131 -80 -240.5t-196.5 -168t-235.5 -58.5q-115 0 -193.5 69.5t-78.5 192.5z" />
<glyph unicode="4" d="M94 57q0 14 18.5 30.5t46 35t38.5 29.5q430 375 614 1124q29 88 98 88q31 0 50.5 -18.5t19.5 -47.5q0 -14 -16.5 -80.5t-61.5 -186.5t-108.5 -252t-172 -289.5t-237.5 -286.5l-47 -49h29q82 0 170 -33l88 -33q0 10 43 172q35 139 43 165t24 42q29 29 68 29q25 0 45 -15.5 t20 -42.5q0 -18 -44 -200.5t-48 -186.5q0 -4 19 -4q37 0 64.5 5t41.5 11.5t19 6.5q10 0 30.5 -26t20.5 -34q0 -14 -33 -24q-82 -31 -152 -33h-34l-33 -139q-4 -14 -11 -42l-11 -39l-9 -33q-6 -22 -10 -31t-11.5 -22.5t-14.5 -19.5t-16 -13t-21.5 -9t-26.5 -2q-61 0 -68 59 q0 12 38 168t42 160q-125 70 -252 69q-113 0 -160 -30q-39 -33 -53 -27q-39 39 -39 55z" />
<glyph unicode="5" d="M217 229q0 197 137 197q39 0 61.5 -22.5t22.5 -57.5q0 -53 -39 -90t-80 -37h-6v-14q4 -55 44 -108.5t132 -53.5q12 0 41 4q197 47 273 363q2 10 4 14q37 141 37 215q0 82 -34 113.5t-77 31.5q-143 0 -256 -141q-14 -16 -19 -18t-30 -2h-27q-14 10 -14 20q0 6 87 354.5 t89 354.5q6 12 17 12q8 0 38.5 -16.5t90 -32t137.5 -15.5q70 0 140.5 15.5t113.5 32t45 16.5q4 0 10 -6t6 -10q-4 -43 -20 -60q-59 -59 -171 -115.5t-235 -56.5q-35 0 -65.5 3t-47 7t-20.5 4l-6 -24q-6 -23 -16 -68l-21 -86l-45 -176q115 84 231 84q104 0 188.5 -77.5 t84.5 -247.5q0 -197 -140.5 -367t-340.5 -209q-12 0 -32 -2t-28 -2q-117 0 -188.5 75.5t-71.5 198.5z" />
<glyph unicode="6" d="M246 326q0 127 30.5 273t124 327.5t234.5 300.5q164 135 317 135q205 0 205 -168v-18q0 -63 -39 -103q-37 -37 -86 -37q-27 0 -53.5 17.5t-26.5 58.5q0 86 103 121q-20 49 -101 49q-96 0 -192 -80q-152 -121 -232 -409l-8 -35q66 82 172 121q45 10 78 10 q98 0 163.5 -61.5t86 -129t20.5 -129.5q0 -72 -26.5 -172t-81.5 -182t-150 -160q-125 -100 -260 -100q-233 0 -274 278q-4 34 -4 93zM403 193q0 -55 30 -101.5t99 -46.5q109 0 166.5 72.5t92.5 191.5q78 270 77 373q0 53 -27.5 92t-92.5 39q-96 0 -170 -85t-108 -202.5 t-50.5 -204.5t-16.5 -128z" />
<glyph unicode="7" d="M279 883q0 4 110.5 240.5t116.5 238.5q4 2 39 2h33q12 -12 12 -18q0 -4 -8 -23l-17 -37l-6 -16q131 94 240 94q47 0 71.5 -29.5t27.5 -65.5t11.5 -74t26.5 -50q6 -4 27 -4q55 0 111 51t95 108.5t48 61.5q2 2 36 2h33q12 -12 12 -18q0 -8 -33.5 -58.5t-93 -150 t-128 -235.5t-148.5 -352t-143 -462q-23 -133 -129 -133q-27 0 -54.5 16.5t-29.5 57.5q0 45 37.5 165.5t149.5 357t269 486.5q23 35 19 35q-27 -10 -60 -10q-37 0 -63.5 19.5t-38.5 44t-33.5 44t-48.5 19.5q-106 0 -216 -85t-173 -210q-2 -4 -6 -10t-5 -8.5t-3 -5.5t-4.5 -4 t-6.5 -2t-7 -1h-11h-12q-37 0 -37 2q-10 1 -10 17z" />
<glyph unicode="8" d="M203 240q0 90 41 172t105.5 137t105.5 82.5t75 46.5l27 14l-27 23q-96 82 -102 205q0 197 142.5 320.5t281.5 123.5q135 0 208 -71.5t73 -174.5q0 -68 -29 -131t-72 -106t-84 -74t-76 -49l-32 -21l41 -35q84 -70 108.5 -133t24.5 -137q0 -143 -111 -278 q-160 -197 -385 -197q-145 0 -230 80t-85 203zM334 242q0 -86 54 -142.5t140 -56.5q119 0 225.5 89t106.5 216q0 47 -16.5 79t-36 50.5t-90.5 77.5l-99 84q-8 0 -37.5 -18.5t-71.5 -55.5t-81 -84t-66.5 -111.5t-27.5 -127.5zM571 1034q0 -20 5.5 -36.5l9.5 -28t19 -27.5 l23 -23q7 -7 30.5 -27t31.5 -28q86 -74 88 -73q18 0 82 53t107 121q41 86 41 145q0 90 -47.5 130t-110.5 40q-113 0 -196 -79t-83 -167z" />
<glyph unicode="9" d="M219 113v18q0 49 15.5 83t40 47t41 17.5t30.5 4.5q33 0 55.5 -21.5t22.5 -54.5q0 -39 -23.5 -68.5t-48.5 -40.5l-22 -10q0 -6 12 -15.5t42 -19.5t65 -10q137 0 256 160q41 55 77.5 144t54 147.5t17.5 68.5l-10 -12q-12 -12 -35 -32.5t-51.5 -40t-68.5 -33t-81 -13.5 q-80 0 -137 36t-85 91t-40 103.5t-12 89.5q0 90 41 215t145 231q150 145 301 164q4 0 22.5 1t30.5 1q63 -4 111.5 -29.5t75 -61.5t44 -86t23 -92t5.5 -89q0 -88 -18.5 -198t-60.5 -242t-125 -264t-196 -226q-156 -121 -297 -121q-96 0 -156.5 44t-60.5 114zM508 639 q0 -53 29.5 -92t97.5 -39q88 0 158.5 80t107.5 191.5t55.5 204.5t18.5 146q0 152 -121 152q-100 0 -178 -86q-37 -43 -61.5 -104.5t-61.5 -204.5q-45 -189 -45 -248z" />
<glyph unicode=":" horiz-adv-x="628" d="M219 102q0 53 46 99.5t106 46.5q45 0 73.5 -27.5t28.5 -73.5q0 -51 -44 -99t-110 -48q-43 0 -71.5 27.5t-28.5 74.5zM377 733q0 55 46 102.5t105 47.5q43 0 73 -28t30 -71q0 -59 -49.5 -104t-104.5 -45q-43 0 -71.5 28.5t-28.5 69.5z" />
<glyph unicode=";" horiz-adv-x="628" d="M143 -352q0 6 29 34.5t76 88t82 131.5q39 78 39 104q0 2 -13 -2q-4 0 -17 -2t-20 -2q-43 0 -71.5 26.5t-28.5 69.5q0 61 47 106.5t103 45.5q94 0 94 -123q0 -74 -25.5 -155t-64.5 -143.5t-79 -114.5t-72 -80.5t-42 -28.5t-23.5 18.5t-13.5 26.5zM377 733q0 55 46 102.5 t105 47.5q43 0 73 -28t30 -71q0 -59 -49.5 -104t-104.5 -45q-43 0 -71.5 28.5t-28.5 69.5z" />
<glyph unicode="=" horiz-adv-x="1570" d="M238 313.5q0 20.5 30 40.5h596q596 0 604 -4q23 -10 23 -36.5t-23 -37.5q-8 -4 -604 -4h-596q-30 21 -30 41.5zM336 711q0 25 24 37q6 4 603 4h596q31 -20 30.5 -41t-30.5 -41h-596q-594 0 -603 4q-24 10 -24 37z" />
<glyph unicode="?" d="M399 958q0 45 41 142.5t134.5 207t203.5 140.5q47 18 88 18q4 0 13.5 -1t13.5 -1q100 0 167.5 -69.5t67.5 -186.5q0 -96 -43 -178t-98 -131q-23 -23 -168 -132.5t-168 -131.5q-37 -47 -37 -105q0 -47 31 -47q37 0 77 32t64 99q4 12 48 13h32q12 -12 13 -19 q0 -51 -74 -126.5t-174 -75.5q-43 0 -80 35.5t-37 111.5q0 123 86 213l166 127q6 4 56 42t63.5 49t50.5 46t50 58.5t26.5 60.5t13.5 76q0 33 -4 57q-35 106 -141 107h-9q-70 0 -132 -37t-104 -93.5t-62.5 -90t-32.5 -62.5l-11 -25q0 -2 15.5 -5t34 -19.5t22.5 -48.5 q0 -53 -38 -89t-83 -36q-37 0 -59.5 22t-22.5 53zM428 104q6 66 53 105t94 39q57 0 82 -33t25 -68q0 -55 -45 -101t-109 -46q-37 0 -68.5 23.5t-31.5 80.5z" />
<glyph unicode="@" horiz-adv-x="1570" d="M311 508q0 332 238 622q72 78 115 115q236 199 464 199q123 0 220.5 -46t154 -122t85 -165t28.5 -181q0 -152 -48 -308.5t-93 -228.5q-88 -137 -211 -137q-53 0 -91 24.5t-51.5 47t-13.5 32.5q0 4 -2 5l-12 -11l-39 -26q-25 -16 -55.5 -32.5t-69.5 -28t-76 -11.5 q-115 0 -199 85t-84 241q0 223 158 403t342 180q96 0 164 -65q41 -45 59 -96l11 -21l41 -2q55 0 55 -18q0 -10 -70 -281l-67 -274v-29q-2 -47 22 -47q100 0 172 237q63 211 64 336q0 231 -116 347t-273 116q-176 0 -345.5 -123t-275.5 -323.5t-106 -409.5q0 -195 102 -327 t299 -132q246 0 504 111l20 8h51h17q53 0 53 -16q0 -6 -2 -11q-4 -14 -99.5 -53t-258 -77t-308 -38t-253 72t-160.5 187q-60 108 -60 272zM729 555q0 -104 37 -163.5t100 -59.5q121 0 264 190l48 191q47 188 47 198q0 16 -9.5 52t-50.5 81.5t-104 45.5q-113 0 -222.5 -173.5 t-109.5 -361.5z" />
<glyph unicode="A" horiz-adv-x="1521" d="M119 20q0 8 7 34t9 28q4 12 39 12q55 4 97 21.5t58.5 34t32 39t17.5 24.5q0 4 345 620.5t349 618.5q6 14 55 14q35 0 43 -8l5 -4q4 -4 41 -668q39 -676 47 -680h2q16 -12 110 -12h35q14 -10 14 -20q0 -47 -26 -74h-27q-63 4 -231 4h-117q-53 0 -84 -1t-37 -1 q-33 0 -33 18q0 4 4 29q2 6 4.5 14.5t3.5 11.5t3 8t4 6t7 3t11 2h15q131 0 131 47q0 10 -6 138l-11 149h-438l-66 -117q-78 -139 -77 -159q0 -53 86 -58q33 0 32 -22q0 -4 -4 -29q-6 -29 -12 -36t-27 -7q-6 0 -57 2t-147 2q-49 0 -103.5 -2t-62.5 -2q-41 0 -41 20zM651 524 q0 -2 191 -2h190v10q-2 6 -17.5 301t-19.5 300l-41 -68l-131 -234z" />
<glyph unicode="B" horiz-adv-x="1441" d="M117 23q0 55 24 69l11 2h22h29q72 2 95.5 8.5t33.5 24.5q4 8 146.5 577.5t142.5 577.5q0 2 -3 6v4q-12 12 -124 13h-37q-12 10 -13.5 16t5.5 39q8 27 20 39h373l372 -2l25 -4q23 -4 47.5 -10.5t65.5 -27t70.5 -48t53 -76.5t23.5 -111q0 -57 -12 -90q-33 -104 -131.5 -182 t-216.5 -111l-23 -6l23 -4q98 -18 174 -89t76 -185q0 -135 -116 -265.5t-286 -171.5q-47 -12 -88 -13t-375 -3h-209h-100q-63 0 -80.5 4.5t-17.5 18.5zM516 104q0 -8 174 -10q18 0 50 -1t46 -1q84 0 145.5 20.5t123.5 82.5q121 125 121 286q0 84 -40 141.5t-104 65.5 q-8 2 -192 2q-178 0 -181 -2q0 -4 -35 -149l-72 -289q-36 -144 -36 -146zM680 770q0 -4 156 -4l157 2l21 4q106 27 190 123t84 229q-1 2 -0.5 5.5t1 10t0.5 9.5q0 13 -5 31q-6 25 -16.5 49t-37 44.5t-63.5 29.5q-12 2 -163 2q-37 0 -75 -1t-62 -1h-25q-25 -2 -34 -30 t-63 -249q-63 -252 -65 -254z" />
<glyph unicode="C" horiz-adv-x="1466" d="M307 500q0 324 236 612q152 178 319.5 254t288.5 76q70 0 86 -2q47 -10 88 -29.5t65.5 -40t41 -41t24.5 -33t10 -12.5l76 78q76 80 80 80q2 2 12 2q29 0 29 -14q0 -8 -66 -281q-74 -285 -73 -287q-4 -10 -10.5 -13t-36.5 -3h-33q-12 12 -12 26q4 12 4 37q8 41 8 101 q0 63 -11.5 119.5t-38 107.5t-77.5 82t-123 31q-211 0 -401 -183q-135 -139 -206 -355t-71 -376q0 -184 92 -284q102 -102 254 -103q162 0 293 133t182 310q6 27 12.5 30.5t36.5 3.5q47 0 48 -18q0 -12 -13 -53q-27 -80 -79 -163t-127.5 -160t-182 -126t-223.5 -49 q-238 0 -370 159t-132 384z" />
<glyph unicode="D" horiz-adv-x="1546" d="M115 23q0 55 24 69l8 2h25h29q72 2 95 8.5t34 24.5q4 8 146 577.5t142 577.5v6l-2 4q-12 12 -124 13h-37q-12 10 -13.5 16t4.5 39q8 27 21 39h358q367 0 381 -2q170 -16 275.5 -152.5t105.5 -343.5q0 -262 -135 -474t-301 -316q-123 -82 -266 -107q-18 -2 -387 -4h-195 h-94q-61 0 -77.5 4.5t-16.5 18.5zM520 104q0 -10 193 -10q96 0 151.5 8.5t126.5 42.5q207 102 305 377q94 289 95 455q0 92 -29 158.5t-75 99.5t-85 48t-80 20h-24q-23 0 -54.5 1t-60.5 1q-123 0 -141.5 -2.5t-26.5 -18.5q-4 -8 -149.5 -591t-145.5 -589z" />
<glyph unicode="E" horiz-adv-x="1388" d="M111 23q0 33 14 61q8 10 70 10q74 2 97 8.5t34 24.5l71 283l144 567q72 287 71 299q0 14 -14 16t-90 6q-66 0 -70 9q-2 6 -2 16q0 57 23 66q4 4 526 4h522q14 -8 15 -23q0 -8 -30 -229t-32 -226q-4 -14 -47 -14h-31q-16 10 -16 29q0 2 8 55t8 113q0 96 -35.5 139 t-134.5 57q-37 4 -239 4q-74 0 -105.5 -2t-39 -5t-11.5 -11q-4 -6 -66.5 -254t-62.5 -254q0 -2 64 -2h43q129 0 182 27q33 20 54.5 61t33.5 88t16 55q6 8 43 9q16 0 24.5 -2t10.5 -2t7 -7.5t5 -9.5l-67 -270q-66 -266 -74 -277l-6 -6h-33q-33 0 -39 6q-8 6 -8 19 q0 6 11.5 51t11.5 82q0 55 -41 68.5t-172 13.5h-90l-72 -286q-70 -278 -70 -286t156 -10h59q109 0 172.5 6t137 38t120.5 93q39 49 78 128t62.5 136.5t27.5 61.5q8 4 37 4q47 0 47 -24l-92 -234q-119 -295 -123 -299q-6 -4 -542 -4h-537q-14 9 -14 23z" />
<glyph unicode="F" horiz-adv-x="1337" d="M111 23q0 55 24 69l8 2h25h29q72 2 95 8.5t34 24.5l71 283l144 567q72 287 71 299q0 14 -15 16t-91 6h-57q-12 12 -13.5 16.5t4.5 39.5q6 25 21 39h1022q14 -8 14 -23q0 -8 -29.5 -229t-31.5 -226q-4 -14 -47 -14h-31q-14 8 -15 25q0 10 7.5 67.5t7.5 108.5q0 98 -40 142 t-159 52q-4 0 -63.5 1t-100.5 1h-57q-111 0 -121 -18q-6 -10 -72 -272l-65 -265h98q135 4 172 21q66 33 103 174q8 39 18 43q8 2 37 2h31q14 -10 14 -20q0 -6 -64.5 -268.5t-68.5 -270.5q-4 -14 -47 -14h-31q-14 14 -14 24q2 2 7 27.5t10 58.5t5 49q0 53 -40 66.5t-154 13.5 h-99l-65 -260q-66 -254 -66 -268q0 -10 8.5 -14.5t45 -8.5t110.5 -4h31q8 0 17.5 -2t12.5 -6t3 -10q0 -10 -6 -29q-10 -39 -21 -43q-6 -2 -27 -2q-12 0 -92 1t-200 1q-125 0 -190.5 -1t-72.5 -1h-6q-28 1 -28 21z" />
<glyph unicode="G" horiz-adv-x="1585" d="M307 500q0 324 236 612q152 178 319.5 254t288.5 76q70 0 86 -2q47 -10 88 -29.5t65.5 -40t41 -41t24.5 -33t10 -12.5l76 78q76 80 80 80q2 2 12 2q29 0 29 -14q0 -8 -66 -281q-74 -285 -73 -287q-4 -10 -10.5 -13t-36.5 -3h-33q-12 12 -12 26q4 12 4 37q8 41 8 101 q0 63 -11.5 119.5t-38 107.5t-77.5 82t-123 31q-211 0 -401 -183q-139 -141 -208 -360t-69 -381q0 -106 35 -184t92 -118t113.5 -57.5t113.5 -17.5q92 0 173 45t116 119q10 25 35 120t25 105q0 16 -25 19q-45 8 -135 8h-45q-14 6 -15 22q0 33 15 62q10 10 33 10q8 0 43.5 -1 t100 -2t138.5 -1q168 0 211 4h19q12 -12 13 -18t-5 -37q-8 -27 -21 -39h-26q-90 0 -101 -29l-110 -428q-6 -10 -15 -10q-6 0 -20 13.5t-37 40t-43 57.5q-154 -154 -387 -154q-219 0 -359.5 152.5t-140.5 392.5z" />
<glyph unicode="H" horiz-adv-x="1521" d="M111 23q0 33 14 61q8 10 70 10q74 2 97 8.5t34 24.5q4 8 146 577.5t142 577.5v6l-2 4q-12 12 -125 13h-36q-12 10 -13.5 16t4.5 39q8 27 21 39h26q139 -4 273 -4q221 0 233 4h21q12 -12 13 -18.5t-5 -37.5q-8 -27 -20 -38h-37q-111 0 -136 -15q-12 -6 -21 -36.5 t-58 -229.5l-31 -119l-25 -96l-8 -31q0 -4 266 -4h267q125 500 125 508q0 2 -3 6v4q-12 12 -124 13h-37q-12 10 -13.5 16t5.5 39q8 27 20 39h27q139 -4 272 -4q221 0 233 4h21q14 -14 14 -23q-4 -51 -24 -71h-60q-74 -2 -97.5 -7.5t-31.5 -21.5q-6 -10 -148.5 -579.5 t-142.5 -579.5q0 -14 15.5 -16.5t91.5 -6.5q63 0 68 -12q4 -6 -2 -39q-10 -37 -19 -41q-6 -2 -25 -2q-8 0 -41.5 1t-94 2t-132.5 1q-190 0 -241 -4h-21q-14 14 -14 23q0 33 14 61q8 10 70 10q74 2 97.5 8.5t33.5 24.5q2 4 70.5 275.5t68.5 275.5q0 2 -266 2h-266l-68 -277 q-70 -272 -70 -288q0 -12 16.5 -14.5t90.5 -6.5q63 0 67 -12q4 -6 -2 -39q-10 -37 -18 -41q-6 -2 -25 -2q-8 0 -41.5 1t-94 2t-132.5 1q-190 0 -242 -4h-20q-14 15 -14 23z" />
<glyph unicode="I" horiz-adv-x="790" d="M100 23q4 55 27 71h59q78 2 103.5 8.5t36.5 24.5q4 8 146 577.5t142 575.5q0 25 -133 25q-37 0 -45 3t-8 21q0 49 23 68q4 2 34 2q84 -4 271 -4q72 0 147.5 2t85.5 2q33 0 42 -4t9 -19q0 -4 -7 -29.5t-9 -29.5q-4 -12 -74 -12q-80 -4 -101.5 -8.5t-33.5 -24.5 q-4 -6 -146.5 -575.5t-142.5 -577.5t6.5 -13.5t37 -8.5t89.5 -3q55 0 56 -20q0 -10 -6 -29q-8 -37 -19 -43q-2 0 -6 -1t-10 -1q-8 0 -45 1t-101.5 2t-138.5 1q-195 0 -252 -4h-22q-15 15 -15 23z" />
<glyph unicode="J" horiz-adv-x="1075" d="M160 176q0 90 47 131t98 41q90 0 96 -84q0 -59 -37.5 -100t-82.5 -45l-11 -2q4 -10 12.5 -23.5t46.5 -37t91 -23.5q76 0 139.5 65.5t93.5 151.5q6 14 131 510.5t125 523.5q0 20 -170 21q-57 0 -61 8q-2 6 -2 16q0 49 22 68q4 2 39 2q92 -4 287 -4q104 0 158.5 1t60.5 1 q31 0 31 -19q0 -16 -12 -53q-4 -14 -13.5 -17t-46.5 -3q-82 -2 -94 -27q-6 -12 -132 -513t-130 -511q-45 -123 -165 -210t-257 -87t-200.5 68.5t-63.5 150.5z" />
<glyph unicode="K" horiz-adv-x="1574" d="M111 23q0 55 24 69l8 2h25h29q72 2 95 8.5t34 24.5q4 8 146 577.5t142 577.5v6l-2 4q-12 12 -125 13h-36q-12 10 -13.5 16t4.5 39q8 27 21 39h26q139 -4 273 -4q29 0 86 1t102 1l47 2h19q12 -12 13 -18.5t-5 -37.5q-10 -31 -18 -38h-60q-74 -2 -96.5 -7.5t-32.5 -21.5 q-6 -10 -84 -320l-78 -313q2 0 336 283l139 116q150 125 194 167t44 63q0 29 -47 33q-33 0 -33 22q0 4 7.5 29.5t9.5 29.5q6 10 32 11q8 0 72 -2t156 -2q45 0 95 2t58 2q41 0 41 -21q0 -35 -14 -59q-6 -12 -27 -12q-72 0 -146.5 -33t-103 -54.5t-41.5 -33.5q-2 0 -198 -166 l-195 -164l6 -18l136 -372l91 -247q28 -74 27 -76q27 -45 115 -47h39q12 -16 12 -19t-6 -36q-8 -27 -20 -39h-25q-59 4 -207 4h-113q-52 0 -82 -1t-36 -1q-33 0 -33 18q0 6 4 27q8 33 13.5 40t27.5 7q94 0 94 53q0 6 -102 289l-101 281q-2 0 -64 -52l-126 -108 q-63 -55 -66 -61q0 -2 -6 -26l-18 -73l-23 -90q-45 -182 -45 -194q0 -10 16.5 -12.5t90.5 -6.5h57q12 -12 13.5 -16t-5.5 -39q-8 -27 -20 -39h-31q-74 4 -258 4h-121q-55 0 -86.5 -1t-38.5 -1q-32 1 -32 21z" />
<glyph unicode="L" horiz-adv-x="1284" d="M111 23q0 33 14 61q8 10 70 10q74 2 97 8.5t34 24.5q4 8 146 577.5t142 577.5v6l-2 4q-12 12 -125 13h-36q-12 10 -13.5 16t4.5 39q8 27 21 39h29q72 -4 268 -4q76 0 139.5 1t98.5 1h44q37 0 37 -17q0 -8 -6 -30q-2 -4 -3 -11.5t-2 -10.5t-3 -7l-3 -6q-1 -2 -3 -4t-5 -3 l-6 -2q-3 -1 -10 -1h-11h-15h-33q-92 -2 -125 -8.5t-43 -32.5q-2 -6 -145.5 -580.5t-143.5 -579.5q0 -8 131 -8q139 0 187 10q100 27 171.5 95.5t100.5 133t55.5 135.5t38.5 89h68q12 -18 12 -22q0 -6 -90 -265.5t-92 -261.5q-4 -8 -57 -8q-59 -2 -441 -2h-481q-14 9 -14 23 z" />
<glyph unicode="M" horiz-adv-x="1837" d="M119 23q0 45 16 61q4 10 43 10q129 8 166 78q8 14 143.5 557t135.5 553v6l-2 4q-12 12 -125 13h-37q-12 10 -13.5 16t5.5 39q8 27 20 39h197h139q47 0 57 -2t15 -13l104 -1124l45 74l120 204l167 281q326 549 334 565l24 15h381q14 -10 14 -23q0 -45 -26 -71h-37 q-131 0 -150 -29q-6 -10 -148 -579.5t-142 -579.5q0 -14 15 -16.5t93 -6.5h58q12 -16 12 -19t-6 -36q-6 -25 -21 -39h-28q-72 4 -252 4h-117q-53 0 -85 -1t-38 -1q-31 0 -31 21q0 4 4 28q10 35 21 41l10 2h23h28q72 2 95.5 8.5t33.5 24.5l285 1135l-367 -621 q-371 -627 -372 -627q-12 -14 -49 -14q-39 0 -43 12q-4 8 -57.5 611.5t-57.5 613.5l-135 -524q-133 -543 -133 -545q0 -35 26.5 -52.5t93.5 -21.5h33q12 -16 12 -19t-6 -36q-6 -25 -20 -39h-27q-63 4 -213 4h-99q-46 0 -71.5 -1t-32.5 -1q-28 1 -28 21z" />
<glyph unicode="N" horiz-adv-x="1521" d="M111 22.5q0 8.5 6 32.5q8 29 15 34t38 5q129 8 166 78q6 12 145 569l140 557q-6 2 -103 7h-67q-12 12 -13.5 16t4.5 39q8 27 21 39h180q147 0 170 -1t27 -12q4 -4 186 -509l184 -510q0 -2 2 2t7 18l11 41l19 76l30 117l42 167q109 430 109 453q0 25 -31 44.5t-103 19.5 q-18 0 -25 5t-7 21q0 41 26 68h23q84 -6 194 -6q205 0 224 6h16q14 -14 14 -23q-4 -51 -24 -71h-33q-139 -8 -168 -80q-8 -16 -158 -611l-72 -295l-57 -229l-20 -76q-4 -14 -49 -14h-35q-12 12 -227 608l-218 596q-2 0 -130 -516t-128 -522q0 -66 119 -72q39 0 43 -12 q4 -6 -2 -39q-2 -4 -4 -11t-2 -10.5t-2 -7.5l-3 -6q-1 -2 -4 -4t-6 -2t-7.5 -1t-10.5 -1t-25.5 1t-68.5 2t-127 1q-156 0 -199 -4h-18q-14 14 -14 22.5z" />
<glyph unicode="O" horiz-adv-x="1570" d="M305 485q0 182 77 360.5t195.5 307.5t266 209t286.5 80q137 0 236.5 -53.5t151 -138.5t74 -170t22.5 -171q0 -238 -123 -461t-319.5 -358t-399.5 -135q-209 0 -338 148.5t-129 381.5zM518 416q0 -172 76 -273.5t199 -101.5q109 0 209 65.5t172.5 171t127 232.5t81 254 t26.5 233q0 170 -78 267.5t-209 97.5q-166 0 -308 -149.5t-219 -366.5t-77 -430z" />
<glyph unicode="P" horiz-adv-x="1388" d="M113 23q0 33 14 61q8 10 70 10q74 2 97 8.5t34 24.5q4 8 146 577.5t142 577.5q0 2 -2 6v4q-12 12 -125 13h-36q-12 10 -13.5 16t4.5 39q8 27 21 39h362h56h145q156 0 231.5 -17.5t141.5 -78.5q92 -84 92 -216q0 -141 -119 -276t-301 -180q-51 -12 -246 -15h-176l-61 -243 q-61 -244 -61.5 -260.5t106.5 -18.5q63 0 67 -12q4 -6 -2 -39q-10 -37 -18 -41q-6 -2 -25 -2q-8 0 -41.5 1t-94 2t-132.5 1q-190 0 -242 -4h-20q-14 15 -14 23zM666 705q0 -4 133 -5h75q197 0 287 91q59 59 90 179t31 167v14q0 119 -152 149q-12 2 -145 5q-31 0 -64.5 -1 t-54.5 -1h-22q-23 -2 -29 -19q-4 -10 -76 -293l-36 -139q-19 -74 -27 -111z" />
<glyph unicode="Q" horiz-adv-x="1570" d="M305 485q0 182 77 360.5t195.5 307.5t266 209t286.5 80q229 0 356.5 -150.5t127.5 -386.5q0 -281 -174 -536q-156 -238 -381 -342l-23 -11q0 -2 5.5 -40.5t10.5 -54t17 -43.5t33.5 -40t54.5 -12q80 0 141.5 53t77.5 121q8 23 25 23q18 0 22 -19q0 -6 -10 -45 t-34.5 -100.5t-59.5 -117.5t-92.5 -97t-124.5 -41q-152 0 -160 172v6q0 72 8 133t8 72l-22 -6q-23 -8 -68 -16.5t-92 -8.5q-211 0 -341 147t-130 383zM510 414q0 -197 94 -295q31 -35 39 -35q2 0 2 10q0 76 60.5 148.5t154.5 72.5q61 0 109 -39q41 -43 55 -135l4 -22l21 14 q121 92 207.5 260t120.5 319.5t34 272.5q0 199 -88 288t-195 89q-170 0 -327 -162q-143 -152 -217 -383t-74 -403zM723 104q0 -68 68 -67h2q76 0 174 45v18q0 141 -117 142q-45 0 -86 -42.5t-41 -95.5z" />
<glyph unicode="R" horiz-adv-x="1492" d="M113 23q0 33 14 61q8 10 70 10q74 2 97 8.5t34 24.5q4 8 146 577.5t142 577.5q0 2 -2 6v4q-12 12 -125 13h-36q-12 10 -13.5 16t4.5 39q8 27 21 39h326q344 -2 374 -8q4 -2 23 -7q129 -29 204.5 -109.5t75.5 -182.5q0 -123 -102 -232.5t-285 -169.5l21 -14 q51 -33 83 -90.5t32 -118.5q0 -33 -13.5 -167t-13.5 -167q0 -59 17.5 -79.5t54.5 -20.5h4q39 0 69 43q33 41 51 117q4 23 49.5 22.5t45.5 -20.5q0 -12 -13.5 -48t-39 -80t-73.5 -78t-106 -34q-113 0 -198.5 52t-85.5 173q0 39 31.5 165t31.5 155q0 121 -102 155 q-14 4 -144 7h-127l-65 -269q-68 -264 -68 -280.5t107 -18.5q63 0 67 -12q4 -6 -2 -39q-8 -37 -18 -41q-8 -2 -21 -2q-6 0 -29.5 1t-83 2t-153.5 1q-186 0 -239 -4h-23q-14 15 -14 23zM676 739q53 -2 110 -2h64q139 0 229 45q61 35 96 87.5t62 150.5q16 72 16 123v21 q0 5 -4 25.5t-14 33t-26.5 29t-47.5 28.5t-71 20q-12 2 -127 5q-25 0 -52.5 -1t-46.5 -1h-20q-20 -2 -31 -19l-14 -59l-35 -135l-40 -158l-34 -135q-14 -56 -14 -58z" />
<glyph unicode="S" horiz-adv-x="1150" d="M152 -29q0 6 118 482q4 12 47 12h33q12 -12 12 -25q0 -6 -4 -21.5t-8 -46t-4 -71.5q4 -98 53.5 -157.5t104.5 -76t123 -16.5q106 0 192 92.5t109 202.5q4 23 4 70v14q0 109 -84 154q-10 6 -137 41q-156 47 -191 69q-31 23 -61 66q-53 78 -53 182q0 186 145 344t334 158 q172 0 256 -125l53 59q12 12 21 24l15 17l10 12l7 7q2 2 5 4t6 2h8h4q27 0 26.5 -14.5t-58.5 -249t-64 -240.5l-7 -6h-32h-24q-7 0 -13 2t-8.5 6t-2.5 12q0 6 5.5 47t5.5 89q0 84 -22.5 140t-59.5 81.5t-71 35t-71 9.5q-119 0 -209 -102.5t-90 -223.5q0 -57 18.5 -93 t57.5 -56.5t79 -31.5l105 -29q65 -17 113 -36q88 -47 121 -122.5t33 -133.5v-28q0 -211 -150.5 -378t-337.5 -167q-209 0 -303 129l-18 -21q-12 -12 -36 -38l-40 -47q-16 -19 -22 -21l-7 -2h-12z" />
<glyph unicode="T" horiz-adv-x="1466" d="M350 913q0 10 137 426q10 33 25 47h883h166q61 0 75.5 -3t14.5 -17q0 -12 -38 -233.5t-40 -223.5q0 -14 -45 -14q-39 0 -47 16q0 10 13 96.5t13 143.5q0 55 -17 82t-71 45q-37 12 -145 12h-55q-41 0 -49.5 -2t-14.5 -12q-4 -4 -147.5 -575.5t-143.5 -579.5q0 -23 164 -27 h82q12 -16 12 -19t-6 -36q-8 -27 -20 -39h-37q-86 4 -328 4h-160q-74 0 -115.5 -1t-49.5 -1q-39 0 -39 16q0 10 6 31q10 37 16 41q8 4 33 4h53q117 2 141.5 7t51.5 32l141 572q143 563 143 577q0 6 -6 6q-12 4 -104 4q-96 0 -153.5 -13t-99.5 -57t-66.5 -98.5t-63.5 -167.5 q-18 -51 -29 -61h-65q-11 10 -15 18z" />
<glyph unicode="U" horiz-adv-x="1521" d="M397 342q0 18 1 30.5t4.5 34t7.5 39.5l14 62l20 82l30 119l38 155q102 401 102 418v6l-2 4q-12 12 -125 13h-36q-12 10 -13.5 16t4.5 39q8 27 21 39h26q139 -4 273 -4q221 0 233 4h21q12 -12 13 -18.5t-5 -37.5q-8 -27 -20 -38h-37q-111 0 -136 -15q-12 -6 -25 -55 l-101 -395q-92 -365 -107.5 -435.5t-15.5 -128.5q0 -68 21.5 -116.5t57 -70t67.5 -31t65 -9.5q139 0 263 102.5t181 280.5l100 395q98 387 99 416q0 23 -31 42.5t-102 19.5q-18 0 -25.5 5t-7.5 21q0 41 26 68h23q119 -4 223 -4h39q25 0 50.5 1t48 2t36.5 1h15h16 q14 -14 14 -23q-4 -51 -24 -71h-33q-139 -8 -168 -80q-10 -20 -107.5 -406.5t-101.5 -400.5q-43 -131 -131 -242q-205 -221 -422 -221q-160 0 -268.5 108.5t-108.5 278.5z" />
<glyph unicode="V" horiz-adv-x="1521" d="M420 1327q0 12 7 38t17 32q4 2 27 2q94 -6 203 -6q236 0 260 6h20q12 -12 13.5 -18.5t-4.5 -37.5q-8 -27 -21 -38h-24q-131 0 -132 -45q2 -6 45 -500t43 -502q0 -2 141 235l280 477l147 251q6 16 6 26q0 49 -82 58q-20 0 -27.5 5t-7.5 21q0 41 27 68h24q59 -4 199 -4 q43 0 94 2t60 2q43 0 43 -23q0 -4 -7.5 -29.5t-9.5 -29.5q-6 -12 -24 -12q-129 0 -203 -103l-727 -1233q-14 -14 -57 -14q-41 0 -50 12q-2 6 -59 654q-57 653 -57 655q-4 16 -24.5 22.5t-90.5 6.5q-49 -1 -49 22z" />
<glyph unicode="W" horiz-adv-x="2045" d="M420 1327q0 51 22 70q4 2 31 2q70 -4 223 -4q63 0 132 2t79 2q31 0 40 -4t9 -19q0 -4 -7 -29.5t-9 -29.5q-4 -12 -51 -12q-55 -2 -83 -11.5t-32 -17.5t-4 -21q0 -49 18.5 -483t18.5 -467l240 434l174 324l34 65l-2 70q-4 74 -4 80q-4 27 -104 27h-8q-37 0 -37 20 q0 14 6 35q8 27 20 39h23q80 -6 194 -6q236 0 261 6h18q12 -12 13 -17.5t-5 -33.5q-8 -31 -13 -37t-24 -6h-8q-109 0 -135 -35l18 -482q18 -481 21 -483q0 -2 51 90l123 226l143 267l124 230q52 96 55 103q2 8 2 20q0 8 -2.5 15.5t-7.5 13.5t-9 10t-12 7l-13 5q-5 2 -15.5 4 t-14.5 3t-15.5 3.5t-13.5 2.5q-35 0 -35 22q0 4 4 33q8 27 21 39h27q66 -4 210 -4q39 0 86.5 1t57.5 1q47 0 47 -21q0 -35 -14 -59q-6 -12 -27 -12q-39 0 -71.5 -11.5t-54 -28t-35 -31.5t-23.5 -30l-11 -16l-659 -1221q-12 -12 -55 -12q-35 0 -47 12q-4 4 -21 490 q-20 446 -20 493l-31 -47l-236 -436l-132 -243l-103 -189q-35 -63 -35 -66q-14 -14 -55 -14q-33 0 -41 5t-10 22q0 8 -26 653t-28 649q-8 18 -88 21h-16q-43 -1 -43 22z" />
<glyph unicode="X" horiz-adv-x="1521" d="M102 23q0 8 7 32q8 29 14 33t37 6q156 6 260 111q4 4 219 256l203 237l-8 25q-6 14 -54 154l-93 270q-46 131 -52 137q-18 18 -113 21h-53q-12 12 -13 16t5 39q8 27 20 39h23q86 -6 205 -6q238 0 268 6h20q12 -12 13.5 -18.5t-4.5 -37.5q-6 -25 -12.5 -30.5t-28.5 -7.5 q-20 -4 -35 -5q-72 -18 -68 -32q0 -4 65.5 -195.5t67.5 -191.5t139.5 162.5t143.5 170.5q14 23 14 37q0 23 -20.5 37.5t-46.5 16.5q-31 0 -31 22q0 4 4 25q8 33 12 40t23 7q8 0 71.5 -3t159.5 -3q55 0 114.5 2t68.5 2q43 0 43 -21q0 -45 -17 -61q-6 -10 -41 -10 q-119 -6 -198 -60q-33 -23 -85 -81l-315 -367l-8 -11l115 -331q113 -330 121 -338q18 -20 112 -23q41 0 54.5 -3t13.5 -17q0 -2 -4 -27q-2 -8 -4 -19.5t-3 -14.5t-5.5 -7t-9.5 -5t-15 -1q-29 0 -102.5 2t-133.5 2q-117 0 -178 -1t-67 -1q-33 0 -33 18q0 2 4 31q4 18 6 25.5 t9 11.5t12.5 4t22.5 2t34 6q61 18 61 31q0 2 -81 236.5t-83 236.5l-90 -104l-178 -210q-90 -108 -94 -114q-8 -14 -8 -29q0 -49 69 -53q29 0 29 -28q0 -39 -27 -66h-24q-127 4 -240 4q-166 0 -178 -4q-29 0 -29 23z" />
<glyph unicode="Y" horiz-adv-x="1521" d="M406 1325q0 8 7 36t17 36q4 2 27 2q96 -6 209 -6q242 0 266 6h20q14 -14 15 -23q0 -33 -15 -61q-10 -10 -49 -10q-94 -6 -94 -29q0 -4 88 -298t90 -294t208 258l214 268q0 4 12.5 21.5t12.5 32.5q0 41 -66 41h-4q-23 0 -23 22q0 12 7 33q4 16 5 19t5 10.5t10 8.5t18 1 q6 0 56.5 -3t146.5 -3q51 0 106.5 2t61.5 2q35 0 35 -19q0 -8 -7 -33.5t-9 -27.5q-4 -12 -39 -12q-123 -6 -203 -82q-33 -33 -289 -355l-248 -309l-53 -211l-28 -106l-20 -86q-7 -31 -7 -33q0 -12 5 -17.5t32.5 -8.5t89.5 -3h37q12 -10 13 -16t-5 -39q-8 -27 -21 -39h-26 q-139 4 -269 4q-29 0 -85 -1t-103 -3h-45h-18q-14 14 -15 23q0 33 15 61q8 10 69 10q76 2 99.5 8.5t33.5 28.5q0 2 8.5 30.5t22.5 85.5l27 103l51 211l-107 357q-109 356 -112 364q-16 20 -111 23q-69 0 -69 20z" />
<glyph unicode="Z" horiz-adv-x="1255" d="M164 16q0 45 18 64q2 4 236 286l495 598q262 316 265 318l18 23h-147h-17h-59q-59 0 -100.5 -4.5t-98.5 -24t-98 -55t-84 -103t-72 -162.5q-14 -43 -22 -47t-35 -4q-47 0 -47 21q0 6 67.5 232t69.5 228q0 8 8 9q4 4 438 4h433q10 -10 10 -17q0 -25 -15 -53 q0 -4 -507 -616l-508 -611l133 -2h71q289 0 398 138q61 80 125 276q14 47 19 55.5t28 8.5h12q49 6 49 -23q0 -2 -81 -264l-85 -274.5t-21.5 -14.5t-105.5 -2h-333q-102 0 -218 -1t-135 -1q-39 0 -59.5 1t-30.5 3t-12 5t-2 9z" />
<glyph unicode="[" horiz-adv-x="628" d="M150 -496q0 20 248.5 1019t258.5 1007l7 6h116h74q35 0 47 -4t12 -19l-24 -59h-172l-2 -8q0 -4 -233.5 -937t-235.5 -935q0 -4 80 -4q14 0 32.5 1t24.5 1q37 0 37 -25q0 -37 -23 -59h-116h-64q-67 0 -67 16z" />
<glyph unicode="]" horiz-adv-x="628" d="M-29 -489l25 59h172l2 8q0 4 233.5 937t235.5 935q0 4 -80 4q-14 0 -32.5 -1t-24.5 -1q-37 0 -37 25q0 37 22 59h117h64q68 0 67 -16q0 -20 -248.5 -1019t-259.5 -1007l-6 -6h-117h-73q-35 0 -47.5 4.5t-12.5 18.5z" />
<glyph unicode="^" d="M532 1133q0 12 7 18q4 4 162.5 135t160.5 133t8 2q10 0 17 -6q195 -262 194 -278q0 -12 -28.5 -35t-36.5 -23q-10 0 -53 56l-43 53l-72 92l-125 -96l-61 -48q-33 -26 -52 -38l-16 -15q-8 -4 -10 -4q-12 0 -24.5 13.5t-18.5 25.5z" />
<glyph unicode="_" d="M186 -104q0 41 19 51q4 2 459 2h241h119q74 0 92.5 -4t18.5 -19q0 -29 -13 -41q-4 -8 -20 -10q-37 -2 -449 -2h-452q-15 9 -15 23z" />
<glyph unicode="a" d="M207 299q0 233 156.5 419.5t318.5 186.5q20 0 39.5 -3t34 -7t27.5 -12l22 -14q8 -5 18.5 -15t14.5 -15t11 -15.5t9 -12.5q8 20 35 36.5t51 16.5q29 0 48.5 -18.5t19.5 -36.5q0 -23 -73 -310.5t-79 -318.5q-4 -16 -4 -61v-10q0 -55 41 -56q57 0 115 215q12 41 20 43 q6 2 25 2h10q20 0 27.5 -1t12.5 -5t5 -12q0 -6 -6 -37t-23.5 -79t-41 -92t-64.5 -77t-88 -33q-61 0 -105.5 30t-58.5 55.5t-14 35.5h-2q-2 -2 -8.5 -7t-10.5 -9q-113 -104 -223 -105q-115 0 -187.5 92.5t-72.5 229.5zM377 193q0 -82 47 -121q23 -18 57 -19q90 0 195 133 q27 37 34 56.5t52 201.5q51 205 51 218q0 43 -31.5 105t-99.5 62q-63 0 -127 -67q-45 -47 -74.5 -114.5t-64.5 -207.5q-39 -164 -39 -219v-16v-12z" />
<glyph unicode="b" horiz-adv-x="942" d="M221 291q0 70 14.5 133t104.5 420l49 200l40 161q13 54 13 57q0 27 -14 34t-80 9h-43q-12 12 -13 16t5 39q10 39 27 39q10 0 134 11t156 11q25 0 25 -18.5t-68 -288.5q-74 -285 -73 -289l26 19q25 20 74 40.5t94 20.5q117 0 190.5 -90t73.5 -233q0 -223 -152.5 -414 t-334.5 -191q-111 0 -179.5 89.5t-68.5 224.5zM365 223q0 -168 114 -168q27 0 41 4q84 31 142 134q41 72 82.5 233.5t41.5 253.5q0 45 -4 59q-27 90 -102 90q-102 0 -213 -161l-12 -19l-35 -137q-55 -221 -55 -289z" />
<glyph unicode="c" horiz-adv-x="942" d="M211 317q0 209 143.5 382t335.5 202q8 2 23 2h20q129 0 178.5 -54t49.5 -120q0 -74 -39 -105.5t-82 -31.5q-37 0 -59.5 20.5t-22.5 53.5q0 76 69 108l21 10q-45 39 -100 45q-88 0 -164 -61t-119 -166q-20 -47 -51 -167t-31 -191q0 -188 156 -189q74 0 137 27 q63 23 115.5 64.5t78 71.5t31.5 30q8 0 30.5 -22.5t22.5 -28.5q0 -8 -17 -32t-53 -55.5t-85 -60.5t-121 -49t-152 -20q-152 0 -233.5 96t-81.5 241z" />
<glyph unicode="d" d="M207 299q0 223 150.5 413.5t332.5 190.5q35 0 63.5 -8t46 -21.5t29 -25.5t17.5 -20.5t8 -8.5l111 443q0 27 -14.5 34t-80.5 9h-43q-12 12 -13 16t5 39q10 39 27 39q10 0 134 11t157 11q25 0 24 -16q0 -20 -147 -608l-156 -621q-2 -12 -2 -51v-14q0 -57 41 -58 q57 0 115 215q12 41 20 43q6 2 25 2h10h10q35 0 35 -18q0 -2 -4 -31q-20 -78 -42 -131t-69 -104.5t-108.5 -51.5t-105.5 30t-58 55.5t-14 35.5h-2q-2 -2 -8.5 -7t-10.5 -9q-113 -104 -223 -105q-115 0 -187.5 92.5t-72.5 229.5zM377 205q0 -59 14 -90q27 -61 90 -62 q66 0 133.5 64.5t90.5 111.5q6 10 57 216t51 217q0 12 -6 35.5t-18.5 55t-41 54t-65.5 22.5q-63 0 -127 -67q-45 -47 -74.5 -114.5t-64.5 -207.5q-39 -164 -39 -219v-16z" />
<glyph unicode="e" horiz-adv-x="942" d="M219 340q0 131 50 240.5t127 176t158 104.5t153 42q2 0 14 1t18 1h6q92 0 155 -50t63 -128q0 -174 -213 -238q-119 -33 -304 -32h-26q-33 -121 -33 -201q0 -86 36 -143.5t112 -57.5q98 0 188 47.5t149 120.5q20 25 28.5 25t28 -20.5t25.5 -28.5q6 -10 -22 -41 q-63 -74 -170 -126t-234 -52q-152 0 -230.5 105t-78.5 255zM440 535q0 -2 52 -3q45 2 73.5 4.5t77.5 8.5t80 18t63.5 32.5t49 53.5t16.5 76t-32 73.5t-83 30.5q-78 0 -140 -43t-93 -99t-47.5 -98t-16.5 -54z" />
<glyph unicode="f" horiz-adv-x="628" d="M-47 -274q0 70 41 101.5t82 31.5q35 0 57.5 -22.5t22.5 -57.5q0 -14 -2 -23q-10 -31 -29 -51t-31 -29l-14 -6q0 -2 6 -5t17.5 -6t21.5 -3q33 0 61 47q14 35 29 102l41 193q41 186 43 203q6 23 35 168l54 280q26 135 26 137t-90 2h-91q-12 10 -13 16.5t5 39.5q6 25 21 39 h92q94 0 94 4q4 4 16.5 82t38 181t58.5 159q33 57 90 96t117 39q72 0 121 -40t49 -104q0 -72 -41 -103.5t-82 -31.5q-35 0 -57.5 22.5t-22.5 57.5q0 70 78 109q-43 14 -49 14q-14 0 -27 -8q-6 -2 -11 -7t-10.5 -13.5t-9.5 -15.5t-8 -19.5t-6 -21.5t-6 -25.5t-6 -26.5l-7 -30 q-4 -19 -6 -32l-55 -284q0 -2 106 -2h105q12 -10 13 -16.5t-5 -39.5q-8 -29 -18 -36l-111 -3h-108l-56 -284q-88 -463 -135 -608q-109 -303 -268 -314q-74 0 -120 40.5t-46 103.5z" />
<glyph unicode="g" horiz-adv-x="942" d="M94 -285q0 51 37 87t86 36q43 0 62.5 -25.5t19.5 -48.5q0 -25 -11.5 -47t-22.5 -34.5t-11 -14.5t2 -2q16 -6 92 -10q61 0 96 12q51 18 96.5 65.5t67.5 106.5l18 67l29 113q14 55 15 58q-2 0 -20.5 -14.5t-53.5 -33t-72 -26.5q-14 -2 -51 -2q-100 0 -181 77t-81 255 q6 205 143.5 378t300.5 191q4 0 18.5 1t24.5 1q94 -6 160 -90q2 2 2 4q2 4 11.5 13.5t31 20.5t47.5 11q25 -2 43.5 -18.5t18.5 -34.5q0 -20 -60 -262l-118 -471q-59 -229 -62 -236q-25 -94 -137.5 -178t-267.5 -84q-273 0 -273 135zM379 236q0 -158 108 -158q41 0 84 25.5 t69 54t48 59.5l25 33q2 6 52 206.5t50 207.5q0 12 -7 44.5t-41 76.5t-87 44q-4 0 -12.5 -1t-12.5 -1q-59 -16 -116 -79q-68 -84 -113 -259t-47 -253z" />
<glyph unicode="h" d="M141 39l301 1223q0 27 -14 34t-80 9h-43q-12 12 -13 16t5 39q10 39 27 39q10 0 134 11t156 11q25 0 25 -18q0 -23 -72 -299q-74 -295 -73 -299q2 2 16 13t21 17l24 16q16 11 28.5 17t32 14.5t37 12.5t41 7t47.5 3q125 0 178.5 -65.5t53.5 -147.5q0 -98 -79 -327.5 t-79 -274.5q0 -37 33 -37q35 0 76 35q53 57 92 191q6 25 11 29.5t28 4.5h12q20 0 27.5 -1t13.5 -5t6 -14q0 -20 -20.5 -77.5t-78 -132.5t-130.5 -99q-16 -4 -49 -4q-78 0 -123 46t-45 121q0 43 32 129q113 313 113 439q0 37 -2 47q-20 68 -80 67q-152 0 -264 -194 q-23 -41 -33 -74t-65 -250q-55 -225 -65.5 -258t-27.5 -47q-29 -29 -67 -29q-27 0 -46.5 17.5t-21.5 44.5z" />
<glyph unicode="i" horiz-adv-x="628" d="M154 588q0 10 15 53t43 100.5t79 105.5t110 56h37q70 0 116 -45t46 -127q-2 -39 -8 -56l-90 -249q-106 -279 -107 -332q0 -41 33 -41q39 0 78 35q53 57 92 191q6 25 11 29.5t28 4.5h12q20 0 27.5 -1t13.5 -5t6 -14q0 -20 -20.5 -77.5t-77.5 -132.5t-131 -99 q-16 -4 -49 -4q-90 0 -129 52t-39 113q0 55 101.5 319.5t101.5 321.5q0 25 -7.5 34t-29.5 9q-57 -4 -96 -64t-58.5 -126t-23.5 -68q-2 -2 -39 -2h-33q-12 13 -12 19zM479 1227q0 43 36 79.5t83 36.5q29 0 55.5 -18t26.5 -61q0 -47 -39 -82t-82 -35q-27 0 -53.5 19.5 t-26.5 60.5z" />
<glyph unicode="j" horiz-adv-x="628" d="M-66 -287q0 57 38 91t83 34q43 0 62.5 -24.5t19.5 -46.5q0 -66 -59 -107q8 -4 22 -4q53 0 100.5 43t67 81t31.5 75q8 25 109.5 429t103.5 425q6 29 6 55q0 66 -47 65q-49 0 -94 -38.5t-71.5 -85t-47.5 -89.5l-18 -43q-4 -4 -39 -4h-35q-12 12 -12 19q0 12 23.5 60 t62.5 107.5t105.5 104.5t137.5 45q94 0 140.5 -56t46.5 -116v-53l-101 -406l-38 -152l-28 -117q-9 -38 -20.5 -80t-17.5 -60.5t-14.5 -39t-15.5 -32.5t-17 -26q-47 -74 -133 -129.5t-191 -55.5q-78 0 -119 38t-41 93zM545 1229q0 45 35.5 79.5t78.5 34.5q37 0 61.5 -22.5 t24.5 -58.5q0 -41 -35.5 -78t-84.5 -37q-29 0 -54.5 19.5t-25.5 62.5z" />
<glyph unicode="k" horiz-adv-x="942" d="M141 39l301 1223q0 27 -14 34t-80 9h-43q-12 12 -13 16t5 39q10 39 27 39q10 0 134 11t156 11q25 0 25 -16q0 -14 -102 -426l-105 -420q2 -2 17.5 7t58.5 47t98 102l67 68q24 24 64.5 57.5t80.5 49t81 15.5q47 0 84 -31.5t37 -109.5q0 -90 -40 -124t-85 -34 q-35 0 -57.5 19.5t-22.5 52.5q0 53 31 84t65 39q18 2 7 16q-6 12 -35 12q-47 0 -111 -41q-53 -35 -129 -119.5t-131 -133.5q-14 -8 -14 -15q12 0 74.5 -22.5t99.5 -46.5q78 -57 78 -152q0 -31 -11.5 -76t-11.5 -96v-16q0 -57 43 -58q6 0 23 4q68 16 114 209q12 43 23 45 q6 2 22 2h11q29 0 37 -3t8 -15q0 -6 -7.5 -37t-26 -79t-45 -93t-70.5 -77t-97 -32q-84 0 -136.5 57.5t-52.5 145.5q0 25 7.5 65t7.5 54q0 53 -46 91t-91 51.5t-45 9.5q-2 0 -52 -203q-43 -172 -52 -200t-26 -42q-29 -29 -67 -29q-27 0 -46.5 17.5t-21.5 44.5z" />
<glyph unicode="l" horiz-adv-x="524" d="M178 166q0 31 2 43l262 1053q0 27 -14 34t-80 9h-43q-12 12 -13 16t5 39q10 39 27 39q10 0 134 11t156 11q25 0 25 -16q0 -20 -147 -608l-156 -621q-4 -25 -4 -51q0 -72 43 -72q57 0 114 215q12 41 21 43q6 2 25 2h10h10q35 0 35 -18q0 -2 -4 -31q-20 -78 -42 -131 t-69 -104.5t-108 -51.5q-72 0 -130.5 48.5t-58.5 140.5z" />
<glyph unicode="m" horiz-adv-x="1675" d="M154 592q4 20 28 100q25 72 52.5 119t57.5 65.5t48 23.5t41 5h6q74 -4 127 -51q31 -33 41 -68l8 -20l23 25q115 115 262 114q29 0 53.5 -4t44 -10t35.5 -16.5t28.5 -19.5t21.5 -21.5l15.5 -21.5t11.5 -20l8 -19q3 -7 5 -15l2 -8q45 59 122 107t171 48q127 0 181.5 -64.5 t54.5 -148.5q0 -98 -80 -328.5t-80 -271.5q0 -39 33 -39q109 0 167 226q6 25 11.5 29.5t29.5 4.5h13q20 0 27.5 -1t13.5 -5t6 -14q0 -12 -16.5 -58.5t-46 -105.5t-88 -104t-128.5 -45q-90 0 -130 53t-40 112q0 35 74 247t74 323q0 37 -2 47q-20 68 -80 67 q-55 0 -105.5 -25.5t-86 -67.5t-49.5 -62l-25 -41q-23 -39 -33 -72t-64 -252q-66 -260 -71 -276q-29 -55 -90.5 -55.5t-65.5 59.5q0 16 71.5 305t73.5 301q4 23 5 66q0 53 -11 77q-27 43 -73 43q-152 0 -271 -204q-20 -33 -29.5 -67t-62.5 -249q-66 -260 -72 -276 q-29 -55 -90 -55.5t-65 59.5q0 16 81 336.5t83 337.5q4 29 4 51q0 68 -43 67q-27 0 -45 -28q-29 -35 -55.5 -129t-30.5 -98.5t-39 -4.5h-35q-12 13 -12 23z" />
<glyph unicode="n" horiz-adv-x="1150" d="M154 588q2 12 7 33.5t23.5 77t41 96.5t63.5 75.5t88 34.5q23 0 42 -3t34.5 -9t29 -14.5t23.5 -16.5t18 -18t13.5 -18.5t10.5 -18.5t7 -15.5l4 -11.5l2 -6v-8l27 27q113 113 260 112q123 0 176 -65.5t53 -147.5q0 -98 -78.5 -327.5t-78.5 -274.5q0 -37 32 -37q35 0 76 35 q53 57 92 191q6 25 11.5 29.5t27.5 4.5h12q20 0 27.5 -1t14 -5t6.5 -14q0 -20 -20.5 -77.5t-78 -132.5t-131.5 -99q-16 -4 -49 -4q-78 0 -123 46t-45 121q0 43 33 129q113 313 113 439q0 37 -3 47q-20 68 -79 67q-55 0 -105.5 -25.5t-86.5 -67.5t-49 -62l-26 -41 q-23 -39 -33 -72t-63 -252q-66 -260 -72 -276q-29 -55 -90 -55.5t-65 59.5q0 10 80 334q82 332 82 338q6 29 6 53q0 70 -39 69q-41 0 -72 -65q-12 -29 -26.5 -75t-23.5 -79.5t-13 -38t-39 -4.5h-35q-12 13 -12 19z" />
<glyph unicode="o" d="M211 317q0 227 168 407.5t371 180.5q141 0 225 -99t84 -243q0 -217 -166 -401.5t-371 -184.5q-125 0 -218 88t-93 252zM383 244q0 -106 46 -148.5t103 -42.5q61 0 125 43q68 43 122.5 136.5t92.5 299.5q12 66 13 113q0 94 -49 143q-41 41 -103 41q-80 0 -153.5 -63.5 t-114.5 -163.5q-20 -47 -51 -166.5t-31 -191.5z" />
<glyph unicode="p" d="M12 -375q0 8 6 33q8 29 14.5 33t47.5 6q70 2 80 24q8 16 125 492q123 477 123 498q6 31 6 51q0 70 -41 69q-27 0 -47 -30q-29 -35 -55.5 -129t-30.5 -98.5t-39 -4.5h-35q-12 12 -12 19q37 188 114 266q47 51 119 51q68 -4 112 -39t58 -84l16 17q113 106 224 106 q117 0 190.5 -90t73.5 -233q0 -147 -79 -301t-214 -242q-111 -59 -172 -59h-18h-9q-84 0 -151 77l-4 9l-43 -170q-43 -172 -43 -181q0 -16 92 -18h51q12 -14 12 -19.5t-6 -35.5q-6 -25 -12 -32t-27 -7q-6 0 -24.5 1t-67.5 2t-125 1q-139 0 -178 -4h-16q-15 14 -15 22z M453 227q27 -174 133 -174q43 0 102.5 43t99.5 142q27 63 65 207.5t38 234.5q0 45 -4 59q-27 90 -103 90q-102 0 -213 -161l-12 -19z" />
<glyph unicode="q" horiz-adv-x="942" d="M207 301q0 119 50 244t155.5 227t238.5 131q8 2 31 2q113 0 178 -98l19 18q20 20 53 41t54.5 30t25.5 9q8 0 14 -6t6 -10q0 -18 -141 -584q-145 -582 -146 -590q0 -16 93 -18h51q12 -14 12 -19.5t-6 -35.5q-8 -33 -16 -37q-8 -2 -23 -2q-4 0 -24.5 1t-70.5 2t-128 1 q-102 0 -155.5 -1t-59.5 -1q-29 0 -29 18q0 6 4 31q8 33 14.5 38t41.5 5q96 0 118 14q12 8 58 185l41 163l-19 -14q-94 -68 -180 -68q-115 0 -187.5 90.5t-72.5 233.5zM377 205q0 -59 14 -90q27 -61 90 -62q66 0 133.5 64.5t90.5 111.5q6 10 57 216t51 217q0 12 -6 35.5 t-18.5 55t-41 54t-65.5 22.5q-63 0 -127 -67q-45 -47 -74.5 -114.5t-64.5 -207.5q-39 -164 -39 -219v-16z" />
<glyph unicode="r" horiz-adv-x="864" d="M154 592q4 25 28 102q68 211 193 211q74 0 119 -34.5t61 -84.5l25 25q90 94 206 94q82 0 143.5 -44t61.5 -120q0 -72 -41 -103.5t-82 -31.5q-35 0 -57.5 19.5t-22.5 52.5q0 43 19.5 70.5t40 38t20.5 12.5q-31 31 -94 30q-115 0 -209 -184l-16 -31l-70 -284 q-70 -279 -78 -297q-29 -55 -90 -55.5t-65 59.5q0 10 80 334q82 332 82 338q6 29 6 53q0 68 -41 67q-37 0 -65.5 -58t-45 -124.5t-22.5 -73.5q-4 -4 -39 -4h-35q-12 13 -12 23z" />
<glyph unicode="s" horiz-adv-x="837" d="M156 176q0 45 15 77t37.5 44t39 17t28.5 5q39 0 60.5 -22.5t21.5 -56.5q0 -72 -67 -105q-4 -2 -10 -4q-8 -4 -10.5 -4t-2.5 -2q0 -8 16.5 -24.5t56.5 -32t89 -15.5q82 0 137.5 38t72.5 80t17 81q0 61 -42 88t-108.5 40t-88.5 26q-57 27 -86 88q-18 35 -19 90 q0 131 91.5 226t232.5 95q90 0 154.5 -46t64.5 -130q0 -72 -36 -99.5t-72 -27.5q-59 0 -70 66q0 20 7 38.5t17.5 30t21.5 18.5l17 11l9 4q-2 6 -8.5 15.5t-37 25.5t-73.5 16q-88 0 -128 -55t-40 -106.5t38 -75t87 -27.5t107.5 -34.5t88.5 -94.5q25 -49 25 -100 q0 -63 -34 -140t-93 -128q-111 -88 -258 -89q-109 0 -188.5 49.5t-79.5 149.5z" />
<glyph unicode="t" horiz-adv-x="679" d="M178 809q0 8 6 32.5t11 28.5q4 10 17 11.5t93 1.5h96l39 164q6 20 14.5 57l12.5 53.5t12 42t16.5 36.5t19.5 23.5t26.5 17.5t33.5 5q61 0 70 -59q0 -12 -39 -172t-43 -164q0 -4 92 -4h95q14 -14 14 -23q0 -45 -27 -72h-198l-152 -612q-2 -12 -2 -51v-14q0 -51 27 -56 q25 -8 57 6q49 14 96 74t82 148q8 23 15.5 26.5t37.5 3.5h11q35 0 34.5 -14t-8.5 -33q-59 -137 -143 -213t-180 -76q-90 0 -138.5 59.5t-48.5 129.5l150 618q0 4 -92 4h-92q-15 15 -15 21z" />
<glyph unicode="u" horiz-adv-x="1099" d="M154 588q0 25 28.5 95.5t94 145t143.5 74.5q84 0 132 -43t48 -129q-2 -39 -70.5 -230.5t-68.5 -305.5q0 -141 100 -142q55 0 103.5 36t70 70t21.5 44q0 6 75.5 308t81.5 316q29 55 90.5 55.5t65.5 -59.5q0 -16 -77 -321t-79 -320q-6 -31 -6 -67q0 -57 37 -62q53 0 94 123 q35 90 35 123q0 2 12 14h35q47 0 47 -18q0 -12 -18.5 -72.5t-34.5 -95.5q-29 -68 -65 -102q-41 -47 -119 -48q-51 4 -90 28t-51.5 42.5t-18.5 36.5l-27 -27q-27 -25 -78 -51t-114 -26q-133 0 -190.5 71.5t-57.5 169.5q0 106 75 315t75 248q0 45 -31 45q-57 0 -98 -61 t-61.5 -128t-24.5 -69q-2 -2 -39 -2h-33q-12 13 -12 19z" />
<glyph unicode="v" horiz-adv-x="942" d="M154 588q0 6 8 35.5t29.5 78t52 93.5t80 76.5t106.5 31.5h16q51 0 102.5 -41t51.5 -131q-2 -41 -69.5 -229.5t-67.5 -292.5q0 -156 121 -156q88 0 153.5 94.5t126.5 337.5q14 57 15 109q-2 70 -44 122t-42 75q0 43 38.5 79.5t79.5 36.5q43 0 70 -41t27 -106 q0 -84 -39 -242q-127 -481 -340 -534q-18 -4 -58 -4q-145 0 -205.5 73.5t-60.5 179.5q0 98 74 302t74 251q0 43 -31 43q-59 0 -100 -61t-60.5 -128t-23.5 -69q-2 -2 -39 -2h-33q-12 13 -12 19z" />
<glyph unicode="w" horiz-adv-x="1359" d="M154 588q0 6 8 35.5t29.5 78t52 93.5t80 76.5t106.5 31.5h16q51 0 102.5 -41t51.5 -131q-2 -43 -68.5 -227.5t-66.5 -282.5q0 -168 133 -168h6q76 0 135 137l11 21v33q0 6 2 29.5t4 33.5q6 35 65.5 271.5t65.5 248.5q27 55 90 56q61 0 65 -60q0 -12 -19 -91l-53 -212 q-34 -133 -57 -233q-4 -29 -4 -74v-25q0 -53 31 -94t88 -41h6q45 4 82 36t66.5 92.5t50 124t43.5 157.5q20 80 20 131q-2 70 -44 122t-42 75q0 43 39 79.5t80 36.5q43 0 69.5 -41t26.5 -106q0 -90 -50 -284.5t-103 -301.5q-94 -197 -262 -197q-49 0 -90 11.5t-65 28t-40 33 t-24 28.5l-9 10q-72 -109 -182 -108h-14q-133 0 -206 64.5t-73 191.5q0 100 73 301.5t73 248.5q0 43 -31 43q-59 0 -100 -61t-60.5 -128t-23.5 -69q-2 -2 -39 -2h-33q-12 13 -12 19z" />
<glyph unicode="x" horiz-adv-x="950" d="M119 137q0 66 38 102.5t87 36.5q35 0 57.5 -22.5t22.5 -56.5q0 -14 -2 -23q-16 -57 -66 -82l-20 -8q20 -31 73 -31q41 0 75 39t54 98q6 18 61.5 239.5t59.5 246.5q4 18 4 53q0 55 -26.5 77.5t-59.5 22.5q-76 0 -137 -69.5t-92 -167.5q-4 -18 -10.5 -20.5t-36.5 -2.5h-35 q-8 8 -10 11.5t-2 10.5t6 23q20 66 63 130.5t90 97.5q86 63 168 63q145 0 201 -114q82 115 192 114q70 0 123.5 -43t53.5 -116.5t-40 -106.5t-83 -33q-35 0 -57.5 19.5t-22.5 52.5q0 88 80 119l6 2q-16 29 -72 28h-6q-74 0 -123 -129q-6 -18 -61.5 -234t-61.5 -249 q-6 -31 -6 -61q0 -100 90 -101q53 0 100.5 35t74 81t41 83t14.5 47l12 14h35q33 0 39 -2t6 -16q0 -23 -21.5 -71t-60.5 -105.5t-106.5 -99.5t-145.5 -42q-117 0 -197 115q-82 -115 -186 -115q-78 0 -129 44t-51 116z" />
<glyph unicode="y" horiz-adv-x="995" d="M154 588q0 25 28.5 95.5t94 145t143.5 74.5q84 0 132 -43t48 -129q-2 -39 -70.5 -230.5t-68.5 -305.5q0 -141 100 -142q104 0 191 137l77 312q76 303 84 325q29 55 90.5 55.5t65.5 -59.5q0 -4 -217 -872q-55 -160 -183 -265.5t-268 -105.5q-90 0 -152.5 49t-62.5 127 q0 72 39 108t86 36q37 0 58.5 -22.5t21.5 -55.5q0 -43 -35 -84q-14 -12 -34.5 -21.5t-22.5 -11.5q18 -18 26.5 -25.5t30 -14.5t52.5 -7q61 0 114 38t86 90t57.5 108.5t35 93.5t10.5 43q-66 -51 -160 -51q-133 0 -190.5 71.5t-57.5 169.5q0 106 75 315t75 248q0 45 -31 45 q-57 0 -98 -61t-61.5 -128t-24.5 -69q-2 -2 -39 -2h-33q-12 13 -12 19z" />
<glyph unicode="z" horiz-adv-x="837" d="M111 -4q0 10 14 33q86 152 352 411q238 233 238 252l-97 27q-68 23 -112 22q-41 0 -72 -13t-42 -28.5t-18 -30t-9 -14.5q-6 -6 -37 -6h-11q-39 0 -38 15q0 55 72.5 148t180.5 93q66 0 125.5 -66.5t90.5 -70.5h8q31 0 71 68l43 67q4 2 39 2h33q12 -12 12 -16 q0 -31 -82 -137q-80 -109 -270 -297.5t-237 -239.5l-17 -20l23 -2q35 -2 113.5 -28t119.5 -26q68 0 125 43t80 107q6 18 12 21t37 3q45 0 45 -18q0 -70 -97 -194t-228 -124q-63 0 -125 70t-103 70q-29 0 -57.5 -20.5t-46 -43t-33.5 -47t-18 -26.5q-4 -2 -39 -3h-33 q-12 13 -12 19z" />
<glyph unicode="~" d="M506 467q0 10 6 17.5t49 45.5q125 121 195 121q51 0 105 -54t89 -54q43 0 107.5 54t68.5 54q8 0 25.5 -14t17.5 -29q-2 -8 -42 -50t-100 -86t-103 -44h-9q-53 0 -104 53.5t-84 53.5q-43 0 -110.5 -54.5t-71.5 -54.5q-8 0 -23.5 14.5t-15.5 26.5z" />
<glyph unicode="&#xa3;" horiz-adv-x="1574" d="M180 80q0 70 78 137.5t201 67.5q25 0 48 -3t38 -8l14 -4q4 0 59 219l44 175h-132q-12 12 -12 16q0 37 25 78h71l70 2l43 168q2 8 11.5 49t12.5 50t12 43t14 47l16 41q10 28 20 44.5t25.5 39t31.5 42.5q57 76 148.5 127t175.5 51q117 0 177.5 -78.5t60.5 -199.5 q0 -215 -132 -215q-78 0 -81 71q0 104 120 125v15q0 88 -35.5 147t-113.5 59q-74 0 -140.5 -62t-101.5 -175q-6 -14 -53 -199.5t-47 -189.5q0 -2 90 -2h90q12 -12 12 -17q-6 -57 -26 -77h-191l-41 -170q-10 -35 -19 -73t-13 -52l-11 -35q-6 -20 -7 -24.5t-7 -19l-8 -19.5 t-12 -25l-13.5 -27.5t-3.5 -11.5l37 -23q90 -55 140 -74.5t110 -19.5q80 0 130 59.5t71 122.5q8 23 13 27t36 4q49 0 49 -18q0 -2 -4 -19q-37 -115 -133.5 -202t-221.5 -87q-106 0 -266 101l-47 26q-47 -47 -125 -85.5t-160 -38.5q-78 0 -107.5 31.5t-29.5 68.5zM291 86 q0 -33 37 -33h6q98 8 168 103q-70 18 -103 18q-45 0 -76.5 -29.5t-31.5 -58.5z" />
<glyph unicode="&#xad;" horiz-adv-x="733" d="M172 389q12 98 39 125h473q14 -14 14 -20q0 -10 -11 -55.5t-17 -57.5q-4 -10 -32 -11t-218 -1h-152q-59 0 -77.5 3t-18.5 17z" />
<glyph unicode="&#x131;" horiz-adv-x="628" d="M154 588q0 10 15 53t43 100.5t79 105.5t110 56h37q70 0 116 -45t46 -127q-2 -39 -8 -56l-90 -249q-106 -279 -107 -332q0 -41 33 -41q39 0 78 35q53 57 92 191q6 25 11 29.5t28 4.5h12q20 0 27.5 -1t13.5 -5t6 -14q0 -20 -20.5 -77.5t-77.5 -132.5t-131 -99 q-16 -4 -49 -4q-90 0 -129 52t-39 113q0 55 101.5 319.5t101.5 321.5q0 25 -7.5 34t-29.5 9q-57 -4 -96 -64t-58.5 -126t-23.5 -68q-2 -2 -39 -2h-33q-12 13 -12 19z" />
<glyph unicode="&#x237;" horiz-adv-x="679" d="M-66 -287q0 57 38 91t83 34q43 0 62.5 -24.5t19.5 -46.5q0 -66 -57 -107l10 -2h31h2q106 0 174 190q6 18 108.5 427t108.5 436q2 12 2 47q0 25 -2 37t-12 23t-31 11q-53 0 -113 -55q-37 -37 -62.5 -84t-38.5 -79.5t-17 -37t-39 -4.5h-35q-12 12 -12 18.5t12 37t41 79 t66.5 93.5t96 76.5t122.5 31.5q68 -4 123 -46t55 -142v-37l-101 -406l-51 -199l-42 -167q-13 -53 -15 -58q-35 -102 -130 -185t-220 -83q-94 0 -142 47q-35 35 -35 84z" />
<glyph unicode="&#x300;" horiz-adv-x="0" d="M-455 1333q0 35 33 64.5t66 29.5q39 0 59 -34q10 -18 77.5 -166t67.5 -150q0 -8 -29.5 -30.5t-37.5 -22.5q-4 0 -12.5 4t-110.5 135t-107 142q-6 12 -6 28z" />
<glyph unicode="&#x301;" horiz-adv-x="0" d="M-354 1081q0 2 2 4v5l153 159q150 156 156 160q27 18 51 18q31 0 51.5 -19t20.5 -50t-19 -51q-8 -14 -163 -133l-174 -136q-18 -14 -27 -14q-12 0 -31.5 22.5t-19.5 34.5z" />
<glyph unicode="&#x302;" horiz-adv-x="0" d="M-514 1133q0 12 6 18q4 4 163 135t161 133t8 2q10 0 16 -6q195 -262 195 -278q0 -12 -29 -35t-37 -23q-10 0 -53 56l-43 53l-72 92l-125 -96l-61 -48l-49 -38l-19 -15q-8 -4 -10 -4q-12 0 -24.5 13.5t-20.5 25.5z" />
<glyph unicode="&#x303;" horiz-adv-x="0" d="M-541 1184q0 10 6.5 17t49.5 46q125 121 194 121q51 0 105.5 -54t89.5 -54q43 0 107.5 54t68.5 54q8 0 25.5 -14.5t17.5 -28.5q-2 -8 -42 -50t-100.5 -86t-103.5 -44h-8q-53 0 -104.5 53t-83.5 53q-43 0 -111 -54t-72 -54q-8 0 -23.5 14.5t-15.5 26.5z" />
<glyph unicode="&#x304;" horiz-adv-x="0" d="M-578 1135q0 14 7.5 38.5t15.5 30.5q4 2 328 2h172h80q53 0 69.5 -4t16.5 -18q0 -8 -6.5 -31t-8.5 -27q-4 -8 -30 -10q-35 -2 -308 -2h-321q-15 9 -15 21z" />
<glyph unicode="&#x306;" horiz-adv-x="0" d="M-485 1313q0 109 39 108h10q37 0 37 -20q0 -2 -1 -11.5t-3.5 -24.5t-2.5 -34q0 -80 46.5 -126t119.5 -46q88 0 171 64.5t116 165.5q8 23 14.5 27.5t26.5 4.5q39 0 39 -20q0 -27 -26.5 -81t-72.5 -114.5t-122 -105.5t-158 -45q-106 0 -169.5 71.5t-63.5 186.5z" />
<glyph unicode="&#x307;" horiz-adv-x="0" d="M-338 1227q6 66 53 104.5t95 38.5q57 0 81.5 -32.5t24.5 -67.5q0 -55 -45 -101.5t-109 -46.5q-37 0 -68.5 24t-31.5 81z" />
<glyph unicode="&#x308;" horiz-adv-x="0" d="M-514 1231q0 51 43 95t102 44q84 0 97 -90q0 -61 -46.5 -103t-97.5 -42q-41 0 -69.5 27.5t-28.5 68.5zM-147 1227q0 68 49 105.5t94 37.5q41 0 68.5 -25.5t27.5 -68.5q0 -63 -47 -102t-96 -39q-88 0 -96 92z" />
<glyph unicode="&#x30a;" horiz-adv-x="0" d="M-408 1249q0 90 79 153.5t167 63.5q82 0 129 -47q39 -39 39 -94q0 -82 -75.5 -148.5t-172.5 -66.5q-166 0 -166 139zM-319 1237q0 -53 88 -53h10q29 0 45 2t35.5 15t34.5 38q23 53 22.5 102.5t-86.5 49.5h-12q-82 0 -109 -48q-8 -12 -18 -50t-10 -56z" />
<glyph unicode="&#x30b;" horiz-adv-x="0" d="M-508 1071q0 10 88 162l27 44l24 42q8 14 21.5 34.5t21.5 30.5l18 22q9 11 17 15t17 4q4 2 26 2q68 -6 68 -67q0 -25 -18.5 -50.5t-112.5 -133.5q-127 -143 -133 -146q-8 0 -36 14.5t-28 26.5zM-195 1071q0 10 89 162l26 44l25 42q8 14 21.5 34.5t21.5 30.5l17 22 q9 11 17.5 15t16.5 4q4 2 27 2q68 -6 67 -67q0 -25 -18.5 -50.5t-112.5 -133.5q-127 -143 -133 -146q-8 0 -36 14.5t-28 26.5z" />
<glyph unicode="&#x30c;" horiz-adv-x="0" d="M-483 1245q0 8 25.5 35t35.5 27l8 -2l13 -11q12 -8 34 -25l43 -34l86 -68q14 4 131 71t130 67q10 0 23 -28t13 -34q0 -2 -4 -10q-2 -4 -152.5 -102.5t-158.5 -102.5h-4q-12 0 -117 105q-106 100 -106 112z" />
<glyph unicode="&#x393;" horiz-adv-x="1284" d="M111 23q0 33 14 61q8 10 70 10q74 2 97 8.5t34 24.5l71 283l144 567q72 287 71 299q0 14 -14 16t-90 6q-66 0 -70 9q-2 6 -2 16q0 57 23 66q4 4 487 4h484q14 -8 14 -23q0 -8 -30 -229t-32 -226q-4 -14 -47 -14h-30q-14 10 -15 23q0 2 4 32.5t8.5 75.5t4.5 80 q0 53 -13.5 89t-34 55.5t-60.5 28.5t-76 11t-99 2h-27q-125 0 -149.5 -2t-30.5 -16q-4 -8 -147.5 -579.5t-143.5 -579.5q0 -10 8.5 -14.5t45 -8.5t110.5 -4h10q37 0 44.5 -3t7.5 -21q0 -43 -17 -60q-6 -10 -33 -10q-8 0 -47 1t-106.5 2t-147.5 1q-201 0 -254 -4h-22 q-14 15 -14 23z" />
<glyph unicode="&#x394;" horiz-adv-x="1675" d="M143 12l998 1436q10 18 51 18h10q43 0 53 -12q6 -12 144 -721q141 -715 137 -721q0 -8 -6 -8q-4 -4 -692 -4h-490h-119q-39 0 -59 2t-23.5 4t-3.5 6zM356 174q0 -2 469 -2t469 4q0 2 -104 524l-103 523q-2 0 -366.5 -523.5t-364.5 -525.5z" />
<glyph unicode="&#x398;" horiz-adv-x="1570" d="M305 485q0 182 77 360.5t195.5 307.5t266 209t286.5 80q137 0 236.5 -53.5t151 -138.5t74 -170t22.5 -171q0 -238 -123 -461t-319.5 -358t-399.5 -135q-209 0 -338 148.5t-129 381.5zM504 414q0 -113 29.5 -193t76.5 -117.5t92.5 -54t90.5 -16.5q43 0 94 13t125.5 59.5 t139.5 119t130.5 207.5t103.5 311q29 123 29 240q0 182 -80 283.5t-207 101.5q-190 0 -376 -217q-123 -158 -185.5 -369.5t-62.5 -367.5zM618 563q0 12 32 146.5t42 140.5l6 6h31q49 0 49 -20q0 -6 -5 -21.5t-5 -26.5q0 -2 215 -2h215l6 29q8 29 21 41h30q47 0 48 -18 q0 -6 -31 -142l-19 -69q-18 -70 -28 -80l-2 -2h-31q-49 0 -49 20q0 6 5 21.5t5 25.5q0 2 -215 2h-215l-6 -28q-8 -29 -21 -41h-30q-48 0 -48 18z" />
<glyph unicode="&#x39b;" horiz-adv-x="1417" d="M119 23q0 45 20 65q6 6 19 6q59 0 105 26.5t57.5 42t33.5 50.5q2 4 168 312l330 615q164 306 166 308q10 18 45 18h12q37 0 45 -10q6 -8 28.5 -641t22.5 -682q2 -16 5.5 -22.5t26 -11.5t73.5 -5q47 0 47 -20q0 -2 -6 -27q-2 -4 -4 -12t-2 -11.5t-2 -8.5t-3 -6l-4 -4 q-3 -3 -6.5 -3t-7.5 -1t-10 -1q-4 0 -24.5 1t-70.5 2t-130 1q-98 0 -164 -1t-74 -1q-35 0 -35 21q0 4 4 24q8 35 14.5 41t32.5 6q111 0 136 35l-17 481q-14 481 -18 488v2q-6 0 -247 -450.5t-247 -465.5q-6 -20 -6 -30q0 -45 68 -58q4 0 14 -1t14 -1q25 0 25 -24 q0 -2 -4 -31q-8 -27 -21 -39h-22q-127 4 -213 4q-135 0 -148 -4q-26 0 -26 23z" />
<glyph unicode="&#x39e;" horiz-adv-x="1359" d="M152 23q0 6 31.5 160.5t33.5 160.5q12 12 43 12q23 0 31 -1t13 -5t5 -14q0 -2 -8 -43q-14 -86 -16 -105q0 -23 2 -22q6 -6 256 -6h172h276h99q29 0 48 4t21 7t8 15q10 25 39 111q12 43 18.5 51t26.5 8h13h10q39 0 39 -22q0 -2 -46 -158t-48 -162q-4 -10 -22.5 -12 t-111.5 -2h-401h-518q-14 9 -14 23zM410 1075q0 2 42 142.5t46 150.5q0 4 14 18h799q43 0 96 1.5t66 1.5q45 0 58 -4.5t13 -18.5t-28.5 -148.5t-28.5 -148.5q-2 -2 -4 -5t-3 -5t-5.5 -3t-12.5 -2t-20 -1q-29 0 -39 3t-10 19q0 12 6 37q14 72 14 96v15h-8q-33 6 -447 6 q-381 -2 -395 -8q-16 -10 -49 -117q-10 -37 -16 -44t-31 -7h-8q-49 -7 -49 22zM455 567l39 158q8 29 18 72q23 88 33 98l2 2h65q14 -14 15 -20q0 -4 -1 -9.5t-3 -13.5l-5 -16l-10 -37h273l270 2l10 41q10 39 25 53h65q8 -8 11 -12l4 -4q0 -14 -39 -160q-37 -158 -45 -168 q-6 -6 -19 -6h-20q-47 0 -47 20q0 10 7 40t9 32q0 4 -270 4h-273l-2 -8q0 -2 -10 -39t-12 -39q-4 -10 -43 -10q-16 0 -24.5 2t-10.5 2t-7 7t-5 9z" />
<glyph unicode="&#x3a0;" horiz-adv-x="1521" d="M111 23q0 33 14 61q8 10 70 10q74 2 97 8.5t34 24.5l71 283l144 567q72 287 71 299q0 14 -14 16t-90 6q-66 0 -70 9q-2 6 -2 16q0 57 23 66q4 4 645 4h641q14 -8 14 -23q0 -33 -14 -61q-8 -10 -70 -11q-74 -2 -97.5 -8t-33.5 -24l-71 -283l-144 -567q-72 -287 -72 -299 q0 -14 15.5 -16.5t91.5 -6.5q63 0 68 -12q4 -6 -2 -39q-10 -37 -19 -41q-6 -2 -25 -2q-8 0 -41.5 1t-94 2t-132.5 1q-190 0 -241 -4h-21q-14 14 -14 23q0 33 14 61q8 10 70 10q74 2 97.5 8.5t33.5 24.5q4 10 77 301l144 578q72 287 74 288q0 4 -267 4h-266l-2 -8 q0 -2 -18 -76l-57 -224l-70 -285q-145 -582 -146 -588q0 -14 15.5 -16.5t91.5 -6.5q63 0 67 -12q4 -6 -2 -39q-10 -37 -18 -41q-6 -2 -25 -2q-8 0 -41.5 1t-94 2t-132.5 1q-190 0 -242 -4h-20q-14 15 -14 23z" />
<glyph unicode="&#x3a3;" horiz-adv-x="1466" d="M164 23q0 6 2 8q0 2 307 299q307 293 307 295l-145 348q-145 350 -145.5 354t7 29.5t9.5 29.5q0 8 8 9q4 4 539 4h534q10 -10 15 -19q0 -12 -31 -235t-33 -227q-8 -10 -45 -11q-29 0 -37 3t-8 18q0 2 6 53t6 102q0 53 -9 91t-37 63t-56.5 38t-90 20.5t-112.5 8.5t-147 1 h-72q-207 0 -207 -5q4 -2 125 -298.5t125 -299.5q0 -6 -9 -17t-77 -78l-217 -206l-297 -284l223 -2h92q227 0 327.5 18.5t168.5 89.5q45 45 81 112.5t53 118t22 54.5q6 4 36 4q49 6 50 -23l-37 -104l-79 -220l-52 -147q-6 -14 -24.5 -17t-109.5 -3q-23 0 -158.5 1t-258.5 1 h-535q-14 15 -14 23z" />
<glyph unicode="&#x3a5;" horiz-adv-x="1570" d="M436 1112q0 68 101.5 200t238.5 132q262 0 262 -357q0 -35 -4 -79l-2 -21l21 47q20 47 59 115t91 134.5t135 113.5t173 47q92 0 142.5 -62.5t50.5 -164.5q0 -121 -49 -121h-13q-45 0 -45 14q0 2 3.5 16.5t3.5 26.5q0 53 -38 88t-100 35q-262 0 -399 -551q0 -2 -74.5 -299 t-74.5 -305q0 -27 165 -27q61 0 62 -20q0 -10 -6 -29q-8 -37 -19 -43q-2 0 -7 -1t-11 -1q-8 0 -50 1t-115 2t-159 1q-223 0 -284 -4h-27q-12 12 -13 18.5t5 36.5q8 27 20 39h47q133 0 162 12q20 4 27 21q4 4 47 170l91 368q48 202 58 279q2 20 2 92q0 45 -3 73t-17 73 t-53 68.5t-101 23.5q-86 0 -136 -46t-68 -98q-8 -27 -25 -32q-8 -2 -33.5 -2t-30.5 2l-8 8v2q-2 2 -2 4z" />
<glyph unicode="&#x3a6;" horiz-adv-x="1466" d="M326 633v10q0 23 6 50.5t25.5 73.5t66.5 96t117 95q143 102 350 129l22 5l23 90q20 88 20 96q0 14 -26.5 19.5t-110.5 7.5q-80 0 -84 12q-2 2 -2 12q0 49 23 68q4 2 37 2q88 -4 297 -4q76 0 140 1t101 2t45 1q35 0 35 -23q0 -4 -7 -29.5t-9 -29.5q-4 -12 -84 -12 q-92 -2 -125 -8.5t-43 -32.5q-4 -8 -22.5 -86t-18.5 -86q0 -2 6 -2q29 0 84 -16.5t126 -50.5t122 -101.5t51 -155.5q0 -129 -113 -242q-106 -109 -252.5 -162t-214.5 -53q-4 0 -8 -4q-2 -6 -23.5 -93t-21.5 -91q0 -27 166 -27q61 0 61 -20q0 -10 -6 -29q-8 -37 -18 -43 q-2 0 -6 -1t-11 -1q-10 0 -50 1t-111.5 2t-155.5 1q-219 0 -281 -4h-26q-12 12 -13 18.5t5 36.5q8 27 20 39h47q135 0 162 12q20 4 27 21q10 10 47 180q0 2 -6 2q-27 0 -81.5 15.5t-126 48.5t-123.5 101.5t-52 158.5zM532 582q0 -55 19.5 -93t58.5 -58.5t62.5 -29 t62.5 -16.5l158 627q-14 0 -40 -4t-89.5 -31t-110.5 -72q-63 -70 -92 -163.5t-29 -159.5zM924 385q8 0 23.5 3t57.5 15.5t77.5 32t76.5 58t66 90.5q57 115 57 231q0 82 -43 128t-135 67l-23 4q-2 0 -80.5 -313.5t-76.5 -315.5z" />
<glyph unicode="&#x3a8;" horiz-adv-x="1570" d="M424 1065q0 16 5 29.5t11 19.5l6 4h80q98 0 117 -12q49 -20 49 -113q0 -61 -25.5 -170.5t-25.5 -183.5q0 -193 135 -244q14 -2 17 -2q0 8 110 443q109 436 109 446q-2 2 -3 4t-3 3t-5.5 3t-9.5 3t-15 3t-23.5 3.5t-34 2.5t-46.5 1q-80 0 -84 12q-2 2 -2 12q0 49 23 68 q4 2 37 2q88 -4 297 -4q76 0 140.5 1t101 2t45.5 1q35 0 34 -23q0 -4 -7 -29.5t-9 -29.5q-4 -12 -84 -12q-92 -2 -125 -8.5t-43 -32.5l-217 -869q16 4 42 13.5t90.5 60.5t111.5 127q59 90 100 254q25 92 51.5 148.5t57 81t56 31.5t66.5 7h37h49q47 0 48 -20q-4 -55 -31 -56 q-96 0 -152 -211q-57 -217 -190 -352t-330 -166l-29 -4l-22 -92q-23 -90 -23 -96q0 -27 166 -27q61 0 62 -20q0 -10 -6 -29q-8 -37 -19 -43q-2 0 -6 -1t-10 -1q-10 0 -50 1t-112 2t-156 1q-219 0 -280 -4h-27q-12 12 -13 18.5t5 36.5q8 27 20 39h47q135 0 162 12q20 4 27 21 q4 4 26.5 91t22.5 91q-4 2 -10 2q-23 2 -50.5 9.5t-74.5 32t-83 59t-63.5 100.5t-27.5 150q0 74 20.5 168t20.5 132.5t-12.5 57t-26.5 19.5t-26.5 6.5t-12.5 19.5z" />
<glyph unicode="&#x3a9;" horiz-adv-x="1466" d="M205 25q0 25 7 168t9 145q4 14 47 14h31q8 -6 14 -14l-2 -49v-51q0 -66 2 -70q6 -14 131 -14h72v18q0 86 -70.5 302t-70.5 331q0 119 48 224.5t124 179t167 128t177 80t153 25.5q6 2 31 2q217 0 348 -112.5t131 -297.5q0 -104 -55 -221t-124 -202l-162 -196 q-93 -112 -134 -175q-49 -74 -49 -84q0 -2 37 -2q113 0 137 4q2 0 8.5 2t7.5 2t6 2t7 5t6 8t8 12l10 18q6 10 13 23l14 31l19 40q20 45 26 47q4 4 37 4h31q14 -10 14 -20q0 -8 -71.5 -167t-75.5 -161q-6 -4 -179 -4h-170q-12 10 -13 18.5t7 38.5q35 117 112 266.5t144.5 261 t120.5 252t53 257.5q0 119 -67.5 196.5t-192.5 77.5q-80 0 -161.5 -39t-158.5 -115.5t-125 -217t-48 -320.5q0 -57 8 -170t8 -225q0 -211 -29 -269q-4 -10 -25.5 -11t-158.5 -1h-170q-14 11 -14 25z" />
<glyph unicode="&#x2000;" horiz-adv-x="768" />
<glyph unicode="&#x2001;" horiz-adv-x="1536" />
<glyph unicode="&#x2002;" horiz-adv-x="768" />
<glyph unicode="&#x2003;" horiz-adv-x="1536" />
<glyph unicode="&#x2004;" horiz-adv-x="512" />
<glyph unicode="&#x2005;" horiz-adv-x="382" />
<glyph unicode="&#x2006;" horiz-adv-x="256" />
<glyph unicode="&#x2007;" horiz-adv-x="256" />
<glyph unicode="&#x2008;" horiz-adv-x="190" />
<glyph unicode="&#x2009;" horiz-adv-x="307" />
<glyph unicode="&#x200a;" horiz-adv-x="83" />
<glyph unicode="&#x2010;" horiz-adv-x="733" d="M172 389q12 98 39 125h473q14 -14 14 -20q0 -10 -11 -55.5t-17 -57.5q-4 -10 -32 -11t-218 -1h-152q-59 0 -77.5 3t-18.5 17z" />
<glyph unicode="&#x2011;" horiz-adv-x="733" d="M172 389q12 98 39 125h473q14 -14 14 -20q0 -10 -11 -55.5t-17 -57.5q-4 -10 -32 -11t-218 -1h-152q-59 0 -77.5 3t-18.5 17z" />
<glyph unicode="&#x2012;" horiz-adv-x="733" d="M172 389q12 98 39 125h473q14 -14 14 -20q0 -10 -11 -55.5t-17 -57.5q-4 -10 -32 -11t-218 -1h-152q-59 0 -77.5 3t-18.5 17z" />
<glyph unicode="&#x2013;" d="M186 530q0 41 19 52q4 2 459 2h241h119q74 0 92.5 -4.5t18.5 -18.5q0 -29 -13 -41q-4 -8 -20 -10q-37 -2 -449 -2h-452q-15 8 -15 22z" />
<glyph unicode="&#x2014;" horiz-adv-x="2093" d="M240 530q0 41 18 52q4 2 927.5 2t930.5 -2q8 -8 8 -13q2 -4 2 -8q0 -43 -19 -49q-6 -4 -929 -4h-924q-14 8 -14 22z" />
<glyph unicode="&#x2018;" horiz-adv-x="628" d="M403 918q0 174 152 366l14 16l35 36q18 19 39 39t38 33t24 13q10 0 23 -19.5t13 -27.5q0 -6 -35.5 -35.5t-90 -94t-91.5 -144.5q-37 -90 -32 -94q2 0 11 5t25.5 9t34.5 4q43 0 74 -24.5t31 -69.5q0 -57 -46.5 -105.5t-111.5 -48.5q-43 0 -75 35t-32 107z" />
<glyph unicode="&#x2019;" horiz-adv-x="628" d="M436 821q0 8 40 42t96.5 103.5t89.5 153.5q25 53 24 72l-8 -4q-8 -4 -26.5 -9t-37.5 -5q-47 0 -74.5 25.5t-27.5 70.5q0 55 45 103t109 48q47 0 76.5 -35.5t29.5 -89.5v-18q0 -119 -69.5 -243t-139 -191.5t-90.5 -67.5q-10 0 -23.5 18.5t-13.5 26.5z" />
<glyph unicode="&#x201c;" horiz-adv-x="1052" d="M498 918q0 174 151 366q18 23 76.5 80t75.5 57q8 0 22.5 -17.5t14.5 -25.5q0 -10 -35 -39.5t-90.5 -93t-94.5 -145.5q-37 -90 -32 -94q2 0 11 5t25.5 9t34.5 4q43 0 74 -24.5t31 -69.5q0 -57 -46 -105.5t-112 -48.5q-43 0 -74.5 35t-31.5 107zM901 918q0 174 152 366 q18 23 76.5 80t74.5 57q8 0 22.5 -19.5t14.5 -25.5t-36 -36.5t-91 -95t-92 -144.5q-37 -90 -33 -94q2 0 11.5 5t25.5 9t35 4q43 0 73.5 -24.5t30.5 -69.5q0 -57 -46 -105.5t-111 -48.5q-43 0 -75 35t-32 107z" />
<glyph unicode="&#x201d;" horiz-adv-x="1052" d="M360 821q0 6 40 41t97.5 104.5t90.5 153.5q25 59 24 72l-8 -4q-8 -4 -26.5 -9t-36.5 -5q-47 0 -75 25.5t-28 70.5q0 55 45 103t109 48q47 0 76.5 -35.5t29.5 -89.5v-18q0 -74 -28.5 -152.5t-68.5 -139t-83 -110t-75.5 -75t-41.5 -25.5q-10 0 -25.5 18.5t-15.5 26.5z M764 821q0 6 40 41t97 104.5t90 153.5q25 59 25 72l-8 -4q-8 -4 -26.5 -9t-37.5 -5q-47 0 -74.5 25.5t-27.5 70.5q0 55 45 103t108 48q47 0 77 -35.5t30 -89.5v-18q0 -74 -29 -152.5t-68.5 -139t-82.5 -110t-76 -75t-41 -25.5q-10 0 -25.5 18.5t-15.5 26.5z" />
<glyph unicode="&#x202f;" horiz-adv-x="307" />
<glyph unicode="&#x205f;" horiz-adv-x="382" />
<glyph unicode="&#x210f;" horiz-adv-x="1105" d="M86 53q0 39 115 473l108 447h-2q-6 0 -65.5 -18.5t-73.5 -18.5q-18 0 -37.5 20.5t-19.5 40.5q0 6 2 11q16 29 18 28q6 12 111 41q90 31 104 41q8 27 12 60q12 43 13 59q0 18 -31 27q-4 0 -27.5 2t-36.5 2q-33 0 -43 4t-10 18q0 12 11.5 54t15.5 51q6 8 164 14 q143 14 172 14q37 0 37 -22q0 -4 -27 -115l-27 -104l222 71q164 47 184 47t33.5 -17t13.5 -40q0 -29 -21 -43q-8 -6 -237 -82l-227 -69q0 -2 -30 -118t-30 -118t6 1t17 13q104 76 231 76q98 0 180 -50t82 -171q0 -100 -74.5 -317.5t-74.5 -246t28 -28.5q41 0 82 49 q39 39 70 127l18 45h45h25q39 0 39 -16q0 -33 -33 -104.5t-107.5 -144.5t-160.5 -73q-61 0 -115.5 33t-75.5 84q-8 16 -8 68q0 45 70 243.5t70 288.5q0 100 -82 101q-57 0 -123 -33q-39 -18 -85 -65.5t-69 -94.5q-8 -10 -37 -118l-64 -249l-48 -188q-20 -29 -33 -35 q-35 -33 -80 -33q-35 0 -59.5 21.5t-24.5 56.5z" />
<glyph unicode="&#xe000;" horiz-adv-x="905" d="M0 905h905v-905h-905v905z" />
<glyph unicode="&#xeffd;" horiz-adv-x="1433" d="M0 0v205h205v-205h-205zM1229 0v205h205v-205h-205z" />
<glyph unicode="&#xeffe;" horiz-adv-x="614" d="M0 0v205h205v-205h-205zM410 0v205h204v-205h-204z" />
<glyph unicode="&#xefff;" horiz-adv-x="204" d="M0 0v205h205v-205h-205z" />
</font>
</defs>
</svg>
