<?xml version="1.0" standalone="no"?>
<!DOCTYPE svg PUBLIC "-//W3C//DTD SVG 1.1//EN" "http://www.w3.org/Graphics/SVG/1.1/DTD/svg11.dtd" >
<svg xmlns="http://www.w3.org/2000/svg">
<metadata>
This is a custom SVG webfont generated by Font Squirrel.
Copyright   : Copyright c 20092010 Design Science Inc
</metadata>
<defs>
<font id="MathJax_MainRegular" horiz-adv-x="1024" >
<font-face units-per-em="2048" ascent="1638" descent="-410" />
<missing-glyph horiz-adv-x="512" />
<glyph unicode=" "  horiz-adv-x="512" />
<glyph unicode="&#x09;" horiz-adv-x="512" />
<glyph unicode="&#xa0;" horiz-adv-x="512" />
<glyph unicode="!" horiz-adv-x="569" d="M160 1354q0 43 37 78t86 34q49 0 88 -32q37 -35 37 -80q0 -596 -84 -932q-4 -16 -39 -16q-37 0 -41 16q-84 336 -84 932zM162 125q0 57 37 90t90 33q117 -8 117 -123q0 -123 -121 -123q-123 0 -123 123z" />
<glyph unicode="&#x22;" d="M70 1298q0 51 32 86q35 37 88 37q57 0 99 -47q55 -61 55 -188q0 -158 -90 -297q-74 -113 -104 -113q-8 0 -27 19q-20 18 -21 26q0 -1 1 -1q7 0 77 100q80 111 88 251q0 25 -2 25l-22 -10q-25 -12 -51 -12q-51 0 -87 34q-36 35 -36 90zM487 1298q0 51 33 86q35 37 88 37 q57 0 99 -47q55 -61 55 -188q0 -158 -90 -297q-74 -113 -105 -113q-8 0 -26 19q-20 18 -21 26q0 -1 1 -1q7 0 77 100q80 111 88 251q0 25 -2 25l-22 -10q-25 -12 -52 -12q-51 0 -86 34q-37 35 -37 90z" />
<glyph unicode="#" horiz-adv-x="1705" d="M113 313q0 31 32 41h385l84 314q0 2 -235 2h-234q-33 10 -32 41q0 27 28 41h498l86 321q70 270 82 301q14 47 43 47q37 0 41 -37q0 -8 -82 -315q-84 -303 -84 -313l-2 -4h387l86 321q84 317 92 330q12 18 33 18q39 0 39 -32q0 -20 -80 -320q-84 -303 -84 -313l-2 -4h365 q31 -16 30 -41q0 -27 -22 -35q-20 -6 -90 -6h-308l-84 -314q0 -2 238 -2h150q74 0 94 -6q23 -8 22 -35q0 -25 -30 -41h-498l-86 -321q-84 -317 -92 -330q-12 -18 -33 -18q-39 0 -39 35q0 20 80 319q84 299 84 311l2 4h-387l-86 -321q-84 -317 -92 -330q-12 -18 -33 -18 q-39 0 -39 35q0 20 80 319q84 299 84 311l2 4h-365q-28 14 -28 41zM614 356q0 -2 193 -2h194l84 314q0 2 -192 2h-195z" />
<glyph unicode="$" d="M113 360v13q0 92 82 114q16 4 26 5q43 0 74 -29q37 -31 37 -80q0 -47 -33 -80q-33 -31 -76 -31h-12v-6q10 -31 25 -51q53 -102 229 -141v567q-76 14 -133 45q-219 109 -219 354q0 256 225 363q45 23 123 39h4v94h94v-94l27 -2q170 -27 260 -148q57 -88 63 -205 q0 -35 -2 -45q-20 -84 -106 -84q-47 0 -80 31q-31 33 -31 80q0 49 33 80q33 29 76 29q10 0 8 6q-39 94 -135 135q6 -4 -113 29v-512l31 -7q84 -23 137 -59q182 -125 182 -362q0 -141 -75 -252q-74 -111 -193 -154q-55 -20 -76 -20h-6v-97h-94v95h-12q-324 61 -340 380z M248 1102q0 -119 104 -191q72 -51 113 -51v244q0 242 -4 242q-45 0 -115 -54q-98 -73 -98 -190zM559 76q104 27 164 106q51 72 51 164q0 125 -90 207q-72 63 -123 63q-2 0 -2 -270v-270z" />
<glyph unicode="%" horiz-adv-x="1705" d="M115 1122q0 182 96 303q88 111 203 111q80 0 143 -63q178 -158 393 -158q238 0 381 184q29 37 47 37q42 0 42 -36q0 -6 -1 -13q-1055 -1583 -1071 -1593q-8 -8 -20 -9q-27 0 -37 23q-10 18 0 37q2 6 452 678q449 668 447 667q-106 -51 -238 -51q-106 0 -209 37 q-91 33 -91 36l1 1q27 -68 27 -191q0 -184 -82 -301q-78 -111 -184 -110q-117 0 -203 108q-96 119 -96 303zM270 1079q0 -186 68 -254q37 -37 78 -37h8q57 0 108 76q66 96 66 258q0 141 -51 236q-53 100 -137 100q-109 0 -136 -198q-4 -41 -4 -138v-43zM1024 299 q0 180 94 299q88 113 207 113q106 0 182 -111q82 -117 82 -301t-82 -303q-78 -111 -184 -111q-115 0 -203 109q-96 121 -96 305zM1182 254q0 -291 143 -291h8q57 0 109 78q66 96 65 258q0 141 -51 236q-53 98 -137 98q-109 0 -135 -199q-2 -25 -2 -135v-45z" />
<glyph unicode="&#x26;" horiz-adv-x="1593" d="M86 276q0 100 66 185q18 23 167 170l80 80q-80 227 -80 395q0 164 99 266q86 94 200 94q106 0 162 -104q41 -80 41 -178q0 -150 -233 -393l-27 -27q72 -180 291 -461l27 -33l16 21q76 100 217 342l39 65v17q0 74 -131 73h-10v95h18q12 -2 254 -6q170 0 195 6h12v-95h-31 q-133 -8 -192 -63q-12 -10 -82 -121q-117 -205 -199 -317q-55 -78 -55 -74q0 -18 88 -86q94 -78 180 -78q68 0 127 47q66 51 72 135v17h82v-19q-8 -92 -64 -166q-82 -109 -239 -108q-170 6 -328 131l-25 18l-22 -18q-162 -131 -342 -131q-164 0 -273 100q-100 94 -100 221z M287 336q0 -125 55 -205q57 -82 150 -82q92 0 190 51q84 43 84 58q-162 162 -285 379l-51 98l-35 -35q-108 -108 -108 -264zM475 1171q0 -154 47 -299l8 -30l17 18q193 203 192 320q0 211 -114 211q-68 0 -109 -62t-41 -158z" />
<glyph unicode="'" horiz-adv-x="569" d="M160 1298q0 51 35 86q35 37 88 37q57 0 98 -47q53 -61 53 -188q0 -158 -90 -297q-72 -113 -102 -113q-8 0 -27 19q-20 18 -20 26v-1q7 0 77 100q80 111 88 251q0 25 -2 25l-22 -10q-25 -12 -51 -12q-51 0 -88 34q-37 37 -37 90z" />
<glyph unicode="(" horiz-adv-x="796" d="M193 512q0 662 425 1024h35q29 0 29 -18q0 -6 -53 -66q-68 -76 -117 -162q-170 -301 -170 -778t170 -778q49 -86 117 -162q53 -59 53 -66q0 -18 -31 -18h-33l-57 49q-368 336 -368 975z" />
<glyph unicode=")" horiz-adv-x="796" d="M113 -487l22 26q317 330 318 973q0 643 -318 973l-22 26q0 16 10 23l10 2h43l57 -49q369 -336 369 -975q0 -647 -426 -1024h-24q-39 0 -39 25z" />
<glyph unicode="*" d="M131 915q0 29 23 48l141 69l135 62l-135 65q-119 55 -133 64q-31 20 -31 55q0 31 25 53q23 20 49 21q14 0 22 -6q10 -6 125 -91l117 -86q0 14 -14 148q-14 135 -15 160q4 59 68 59q70 0 74 -59l-29 -308l117 86l125 91q10 6 22 6q27 0 49 -21q25 -20 25 -53 q0 -35 -31 -55q-16 -10 -133 -64l-135 -65l135 -62l141 -69q23 -16 23 -48q0 -33 -25 -55q-23 -23 -49 -22q-12 0 -22 6t-125 90l-117 86l29 -307q-8 -57 -70 -58q-61 0 -72 58l29 307l-117 -86q-115 -84 -125 -90q-8 -6 -22 -6q-27 0 -49 22q-25 24 -25 55z" />
<glyph unicode="+" horiz-adv-x="1593" d="M113 512q0 27 28 41h613l2 614q20 27 39 27q27 0 41 -31v-610h610q31 -16 31 -41t-31 -41h-610v-610q-16 -29 -37 -29h-8q-25 0 -37 29v610h-613q-28 14 -28 41z" />
<glyph unicode="," horiz-adv-x="569" d="M160 123q0 51 33 88q35 37 88 37q150 0 149 -232q0 -162 -88 -301q-72 -113 -102 -112q-8 0 -27 20q-18 18 -18 25q0 -8 73 94q76 106 86 252v24q4 0 -18 -8q-23 -10 -49 -10q-55 0 -92 37q-35 35 -35 86z" />
<glyph unicode="-" horiz-adv-x="681" d="M23 367v149h544v-149h-544z" />
<glyph unicode="." horiz-adv-x="569" d="M160 123q0 49 35 84q35 39 88 39q49 0 86 -33q39 -35 39 -88q0 -51 -37 -88q-35 -37 -86 -37t-88 37q-37 35 -37 86z" />
<glyph unicode="/" d="M115 -473q0 20 358 1003q354 977 361 986q8 20 32 20q47 0 43 -41q0 -10 -356 -989q-354 -977 -365 -998q-14 -20 -34 -20q-39 0 -39 39z" />
<glyph unicode="0" d="M80 655q0 356 117 543q115 166 313 166q248 0 356 -242q76 -170 76 -467q0 -317 -88 -485q-104 -215 -342 -215t-344 215q-88 168 -88 485zM281 682q0 -324 18 -436q16 -94 72 -152q57 -61 141 -61q82 0 139 61q59 61 76 182q14 100 14 406q0 451 -84 541q-61 66 -145 65 q-86 0 -147 -65q-51 -53 -66 -140q-18 -104 -18 -401z" />
<glyph unicode="1" d="M170 1139v94h39q233 8 350 125q4 6 25 6q18 0 34 -12l3 -1227q31 -31 200 -31h53v-94h-22q-43 6 -326 6q-279 0 -321 -6h-25v94h53q160 0 203 31v1059q1 0 2 -1q0 -2 -63 -20q-76 -23 -166 -24h-39z" />
<glyph unicode="2" d="M102 0v63q0 16 177 218q248 272 305 352q119 168 118 317q0 129 -65 219q-76 98 -203 99q-94 0 -162 -68q-49 -51 -49 -74q0 -2 10 -2q37 0 70 -24q45 -33 45 -99q0 -51 -33 -86q-35 -37 -92 -36q-55 0 -88 36q-33 37 -33 91q0 145 109 249q111 109 270 109 q186 0 312 -113q127 -117 127 -299q0 -127 -84 -239q-59 -80 -220 -219q-74 -63 -204 -189l-121 -115l155 -2q322 0 342 11q14 4 50 182v6h82l-29 -192q-25 -182 -29 -189v-6h-760z" />
<glyph unicode="3" d="M86 266q0 57 39 94q37 35 90 35q57 0 94 -37t37 -92q0 -70 -55 -106q-16 -12 -39 -19l-19 -6q104 -92 254 -92q113 0 170 109q35 68 35 206v41q0 195 -131 260q-31 12 -125 15l-86 2l-6 4q-4 6 -4 33q0 37 16 37q57 0 119 10q70 10 121 78q63 86 63 237v17q0 117 -71 161 q-45 29 -96 29q-92 0 -166 -47q-63 -39 -56 -47l19 -4q20 -6 37 -17q55 -33 55 -102q0 -117 -121 -117q-119 0 -119 125q0 113 99 199q100 90 237 90q72 0 90 -2q152 -25 238 -113q76 -80 76 -178q0 -106 -68 -203q-72 -104 -195 -149l-6 -4l45 -15q57 -18 111 -53 q168 -109 168 -287q0 -162 -125 -280q-131 -123 -324 -123q-164 0 -280 86q-121 90 -121 225z" />
<glyph unicode="4" d="M57 338v94l310 473q313 475 317 477q4 4 43 4h37l12 -12v-942h189v-94h-189v-105q0 -111 12 -122q16 -14 117 -17h60v-94h-19q-37 6 -264 6q-238 0 -274 -6h-19v94h64q119 2 133 31q2 4 2 111v102h-531zM152 434l448 -2v684z" />
<glyph unicode="5" d="M102 315q0 123 117 123q51 0 86 -37q31 -35 31 -79q0 -49 -35 -82q-33 -33 -78 -33h-14q94 -162 250 -162q143 0 209 123q39 68 39 262q0 211 -56 285q-53 68 -119 67h-12q-160 0 -241 -139q-12 -20 -46 -20q-35 0 -38 12q-4 8 -5 358v264q0 102 11 103q4 4 8 4h-1 q0 -3 95 -33q104 -33 215 -33q145 0 279 58q16 8 26 8q16 0 17 -37v-27q-168 -199 -420 -198q-61 0 -115 12l-20 4v-352q121 94 239 94q166 0 281 -133t115 -315q0 -188 -132 -322q-133 -135 -319 -135q-166 0 -272 119q-95 104 -95 241z" />
<glyph unicode="6" d="M86 641q0 334 178 541q156 182 357 182q141 0 210 -84q53 -66 54 -154q0 -113 -109 -112q-109 0 -108 108q0 90 96 109q-45 45 -127 51q-145 0 -240 -123q-96 -135 -96 -414q0 -6 2 -8q10 12 16 27q84 123 220 123h8q94 0 166 -39q111 -61 178 -199q43 -100 43 -219v-37 q0 -47 -10 -88q-23 -121 -121 -223q-121 -127 -285 -127q-168 0 -280 131q-152 176 -152 555zM303 442q0 -283 103 -362q49 -37 108 -37q104 0 160 78q47 66 47 307q0 246 -47 311q-55 74 -148 74q-119 0 -176 -125q-47 -101 -47 -246z" />
<glyph unicode="7" d="M113 932l67 448q0 4 41 4h41v-8q0 -20 31 -35q45 -23 452 -22h248v-80l-139 -190q-182 -250 -215 -334q-70 -170 -76 -551l-2 -125q-18 -84 -108 -84q-109 0 -109 127q0 324 199 672q41 66 172 247l94 129h-191q-356 0 -374 -12q-16 -8 -33 -94q-18 -88 -16 -86v-6h-82z " />
<glyph unicode="8" d="M88 317q0 221 264 369l-37 27q-43 27 -55 41q-117 100 -117 258t117 260q106 92 248 92q145 0 256 -84q115 -90 115 -225q0 -137 -107 -234q-31 -27 -76 -53q-33 -23 -32 -25q37 0 118 -81q154 -121 154 -306q0 -162 -117 -278q-123 -123 -309 -123q-184 0 -305 106 q-117 104 -117 256zM219 322q0 -121 90 -201q86 -78 203 -78q119 0 205 70t86 168q0 92 -80 161q-20 18 -162 111l-131 84q-31 0 -111 -82q-100 -106 -100 -233zM262 1094q0 -72 57 -125q29 -27 148 -101l119 -77q174 119 174 260q0 88 -64 153q-57 57 -133 74q-14 2 -67 2 q-84 0 -156 -51q-78 -55 -78 -135z" />
<glyph unicode="9" d="M86 893v16q0 190 141 332q123 123 271 123l37 -2q197 0 311 -215q88 -180 88 -463q0 -287 -123 -485q-154 -244 -385 -244q-125 0 -201 57q-86 63 -86 178t109 115q106 0 106 -108q0 -94 -78 -107q-4 0 -8 -2q0 -8 37 -22q51 -20 117 -21h12q123 0 207 131q80 115 80 397 v15q-96 -156 -246 -156q-160 0 -272 131q-94 111 -113 248q-4 33 -4 82zM301 903q0 -262 51 -325q51 -70 148 -70q98 0 159 100q59 102 60 273q0 160 -17 229q-35 170 -198 170q-78 0 -133 -55q-70 -76 -70 -322z" />
<glyph unicode=":" horiz-adv-x="569" d="M160 123q0 49 35 84q35 39 88 39q49 0 86 -33q39 -35 39 -88q0 -51 -37 -88q-35 -37 -86 -37t-88 37q-37 35 -37 86zM160 758q0 49 35 84q35 39 88 39q49 0 86 -33q39 -35 39 -88q0 -51 -37 -88q-35 -37 -86 -37t-88 37q-37 35 -37 86z" />
<glyph unicode=";" horiz-adv-x="569" d="M160 123q0 51 33 86q33 39 88 39q133 0 133 -232q0 -154 -78 -295q-66 -119 -94 -118q-20 0 -47 41l55 82q61 92 78 196q15 56 14 75q0 11 -4 11q0 2 -47 -8q-66 0 -101 41q-30 35 -30 82zM160 758q0 49 35 84q35 39 88 39q49 0 86 -33q39 -35 39 -88q0 -51 -37 -88 q-35 -37 -86 -37t-88 37q-37 35 -37 86z" />
<glyph unicode="&#x3c;" horiz-adv-x="1593" d="M170 512q0 23 16 33q1174 561 1203 561q6 0 18 -12q14 -14 14 -31q0 -16 -14 -29q-2 -2 -553 -264l-545 -258l545 -258q551 -262 553 -264q14 -12 14 -29q0 -16 -14 -31q-12 -12 -18 -12q-33 0 -1205 563q-14 11 -14 31z" />
<glyph unicode="=" horiz-adv-x="1593" d="M113 313q0 31 32 41h1303q29 -20 29 -41q0 -25 -31 -41h-1305q-28 14 -28 41zM113 711q0 27 28 41h1305q31 -16 31 -41q0 -23 -29 -39l-1303 -2q-32 10 -32 41z" />
<glyph unicode="&#x3e;" horiz-adv-x="1593" d="M168 -41q0 23 59 53q27 14 545 258l508 242l-508 242q-590 279 -598 288q-4 8 -4 23q0 35 31 41q33 0 1204 -563q14 -10 14 -31q0 -20 -14 -31q-4 -4 -598 -284l-590 -279h-12q-37 4 -37 41z" />
<glyph unicode="?" horiz-adv-x="966" d="M113 1159q0 121 98 201q86 70 197 82l59 2q205 0 307 -98q78 -76 78 -185q0 -131 -113 -215q-193 -137 -233 -325q-10 -49 -10 -127v-35q0 -39 -7 -47q-4 -6 -34 -6q-27 0 -35 6q-6 8 -6 34v64q6 252 108 399q119 172 123 191q4 18 4 76v26q0 74 -26 111q-41 55 -160 55 q-166 0 -230 -96q98 -14 99 -111q0 -47 -31 -78t-78 -30q-110 0 -110 106zM332 125q0 57 37 90t90 33q117 -8 116 -123q0 -123 -120 -123q-123 0 -123 123z" />
<glyph unicode="@" horiz-adv-x="1593" d="M115 711q0 330 221 542q199 190 455 191q279 0 479 -207q209 -213 209 -522q0 -457 -234 -457q-137 0 -194 102q-10 14 -9 15q-2 0 -20 -19q-23 -23 -47 -39q-82 -59 -187 -59q-152 0 -270 119q-129 129 -129 334q0 207 133 338q117 115 266 114q209 0 299 -182h50 q51 0 55 -2q12 -4 12 -287v-160q0 -123 10 -157q12 -41 54 -41q129 0 129 332v10q0 197 -72 348q-74 141 -201 236q-150 109 -329 108q-240 0 -414 -182q-184 -190 -184 -475q0 -268 170 -459q176 -199 444 -199q238 0 535 119h120q12 -12 13 -20q0 -35 -215 -101 q-240 -74 -461 -74q-281 0 -481 205q-207 212 -207 529zM561 711q0 -166 74 -275q68 -104 164 -104q133 0 221 149l12 21v418l-12 20q-92 150 -227 150q-82 0 -150 -95q-82 -108 -82 -284z" />
<glyph unicode="A" horiz-adv-x="1536" d="M66 0v94h30q147 6 189 86l215 639q209 627 213 631q6 16 37 16h20q41 -2 49 -14q6 -4 221 -653l224 -662q20 -41 143 -43h61v-94h-18q-18 6 -260 6q-252 0 -295 -6h-21v94h27q143 0 143 37q0 4 -49 152l-49 145h-477l-41 -121q-41 -121 -41 -133q0 -27 39 -51 q45 -29 104 -29h11v-94h-19q-31 6 -235 6q-188 0 -207 -6h-14zM500 524q0 -2 207 -2h208l-208 619z" />
<glyph unicode="B" horiz-adv-x="1449" d="M57 0v94h68q115 2 143 31v1149q-29 29 -143 31h-68v94h652q266 0 378 -66q190 -106 191 -284q0 -104 -84 -191q-84 -88 -219 -121l-21 -6q150 -18 258 -108q121 -98 121 -240q0 -139 -102 -246q-106 -106 -270 -131q-27 -4 -465 -6h-439zM469 238q0 -121 10 -132 q12 -10 205 -10h100q86 0 123 13q193 63 193 276q0 104 -53 188q-61 92 -166 115l-412 2v-452zM469 766l342 2l20 4q53 12 109 53q106 84 107 226q0 96 -54 166q-55 70 -141 86l-170 2q-197 0 -207 -19q-6 -8 -6 -264v-256z" />
<glyph unicode="C" horiz-adv-x="1478" d="M115 700q0 342 241 560q207 184 445 184l35 -2q186 0 329 -139l27 -25l61 80q55 76 64 84l29 2q6 0 18 -12v-574l-12 -12h-70q-12 12 -14 35q-18 168 -99 290q-80 123 -194 162q-39 14 -103 15q-213 0 -356 -144q-162 -162 -162 -504q0 -248 78 -391q141 -260 445 -260 q182 0 299 150q106 133 106 301q0 14 12 26h58l12 -12v-31q-10 -211 -150 -360q-154 -166 -389 -166q-289 0 -495 209q-215 217 -215 534z" />
<glyph unicode="D" horiz-adv-x="1564" d="M55 0v94h68q115 2 143 31v1149q-29 29 -143 31h-68v94h412q424 -2 477 -15q195 -43 338 -213q168 -199 168 -483q0 -258 -150 -448q-154 -195 -395 -234q-27 -4 -438 -6h-412zM473 705q0 -578 2 -584q2 -20 37 -23q29 -4 182 -4h23q217 0 338 101q160 133 159 497 q0 401 -204 541q-111 72 -283 72h-125q-113 0 -123 -19q-6 -8 -6 -581z" />
<glyph unicode="E" horiz-adv-x="1394" d="M51 0v94h68q115 2 143 31v1143q-29 29 -143 30h-68v95h1172v-9q4 -10 28 -237q25 -225 29 -238v-8h-82l-6 51q-31 236 -139 301q-78 45 -330 45q-182 0 -213 -4q-27 -2 -33 -22q-2 -4 -2 -254v-248h111q160 4 196 25q66 35 70 174v41h82v-574h-82v41q-4 139 -70 176 q-41 20 -196 23h-111v-443q0 -117 10 -127q12 -10 107 -10h209q158 0 235 31q113 45 160 172q27 74 41 164l16 96h82l-43 -278q-39 -268 -43 -275v-6h-1198z" />
<glyph unicode="F" horiz-adv-x="1337" d="M51 0v94h68q115 2 143 31v1143q-29 29 -143 30h-68v95h1141v-9q4 -10 29 -237q25 -225 28 -238v-8h-82v8q-14 100 -18 117q-29 176 -129 231q-72 39 -254 39h-180q-100 0 -109 -24q-2 -4 -2 -268v-261h107q176 6 215 45q37 37 43 152v43h82v-573h-82v43q-6 113 -43 153 q-41 37 -215 43h-107l2 -524q31 -31 205 -31h55v-94h-24q-49 6 -340 6q-268 0 -299 -6h-23z" />
<glyph unicode="G" horiz-adv-x="1607" d="M115 700q0 342 241 560q207 184 445 184l35 -2q186 0 329 -139l27 -25l61 80q55 76 64 84l29 2q6 0 18 -12v-574l-12 -12h-70q-12 12 -14 35q-18 168 -99 290q-80 123 -194 162q-39 14 -103 15q-164 0 -290 -86q-190 -131 -220 -420q-8 -86 -8 -156q0 -358 197 -522 q137 -115 332 -115q96 0 170 43q72 43 92 113q6 23 6 123v106q-43 31 -203 31h-53v94h25q16 -2 327 -6q217 0 242 6h16v-94h-28q-96 0 -109 -25q-4 -8 -4 -219v-209q-12 -12 -18 -12q-8 0 -37 20q-45 31 -80 66l-27 25q-92 -156 -371 -156q-283 0 -493 205 q-223 214 -223 540z" />
<glyph unicode="H" horiz-adv-x="1536" d="M51 0v94h68q115 2 143 31v1149q-29 29 -143 31h-68v94h23q43 -6 295 -6q276 0 295 6h22v-94h-68q-123 -2 -141 -31l-2 -500h584v500q-29 29 -144 31h-67v94h22q43 -6 295 -6q276 0 295 6h23v-94h-68q-123 -2 -141 -31v-1149q18 -29 141 -31h68v-94h-23q-43 6 -295 6 q-276 0 -295 -6h-22v94h67q115 2 144 31v555h-584l2 -555q18 -29 141 -31h68v-94h-22q-43 6 -295 6q-276 0 -295 -6h-23z" />
<glyph unicode="I" horiz-adv-x="739" d="M43 0v94h45q152 0 170 29q4 6 4 577q0 569 -4 576q-18 29 -170 29h-45v94h23q43 -6 303 -6t303 6h22v-94h-45q-152 0 -170 -29q-4 -6 -4 -576q0 -571 4 -577q18 -29 170 -29h45v-94h-22q-43 6 -303 6t-303 -6h-23z" />
<glyph unicode="J" horiz-adv-x="1052" d="M51 225q0 70 43 107q37 31 88 30q53 0 90 -34q39 -37 39 -99q0 -102 -102 -123q-6 -2 -2 -6q10 -12 57 -41q61 -29 125 -28q86 0 141 75q45 61 56 152l2 170v688l-2 156q-18 33 -213 33h-58v94h25q43 -6 340 -6q219 0 256 6h16v-94h-32q-55 0 -99 -7q-16 -6 -24 -22 q-2 -4 -2 -506t-2 -518q-20 -127 -134 -213q-113 -84 -262 -84l-69 4q-131 23 -209 104q-68 74 -68 162z" />
<glyph unicode="K" horiz-adv-x="1593" d="M51 0v94h68q115 2 143 31v1149q-29 29 -143 31h-68v94h23q43 -6 295 -6q276 0 295 6h22v-94h-45q-160 0 -164 -35q-2 -4 -2 -324l2 -317l299 291q311 305 311 325q0 45 -57 58l-29 2v94h21q37 -6 268 -6q152 0 176 6h13v-94h-29q-154 -8 -244 -82q-375 -322 -375 -365 q0 -37 461 -694q45 -68 172 -70h43v-94h-16q-18 6 -231 6q-250 0 -293 -6h-23v94h17q94 0 94 53q0 12 -6 25l-361 547q-8 -6 -119 -113l-94 -92v-195q0 -190 6 -200q16 -23 137 -25h68v-94h-22q-43 6 -295 6q-276 0 -295 -6h-23z" />
<glyph unicode="L" horiz-adv-x="1280" d="M51 0v94h68q115 2 143 31v1149q-29 29 -143 31h-68v94h23q25 -6 299 -6q291 0 340 6h24v-94h-55q-174 0 -205 -31l-2 -1010q0 -147 10 -158q12 -10 156 -10q145 0 199 13q217 61 258 344l12 104q0 2 41 2h41l-29 -278q-25 -264 -28 -271v-10h-1084z" />
<glyph unicode="M" horiz-adv-x="1878" d="M59 0v94h35q137 8 176 82v1098q-29 29 -143 31h-68v94h217q217 0 234 -17q2 -2 215 -567l213 -561l213 561q213 565 217 567q8 16 231 17h218v-94h-68q-123 -2 -141 -31v-1149q18 -29 141 -31h68v-94h-23q-43 6 -287 6q-268 0 -286 -6h-23v94h68q115 2 143 31v586 q0 584 -2 583q-88 0 -170.5 -133t-137 -317.5t-96.5 -378.5t-61.5 -317.5t-19.5 -133.5q-8 -12 -41 -12t-41 12l-480 1264q-2 2 -2 -549l2 -553q23 -74 175 -82h34v-94h-18q-31 6 -236 6q-209 0 -239 -6h-17z" />
<glyph unicode="N" horiz-adv-x="1536" d="M51 0v94h35q137 8 176 82v1122h-8q-20 6 -148 7h-55v94h424l6 -6q6 -2 355 -516l348 -512v860q-39 72 -176 80h-35v94h16q31 -6 240 -6q217 0 235 6h19v-94h-35q-150 -8 -174 -80l-2 -1213l-15 -12h-28q-31 0 -37 6q-8 8 -410 600q-410 604 -432 633l2 -1063 q23 -74 174 -82h35v-94h-18q-31 6 -236 6q-209 0 -239 -6h-17z" />
<glyph unicode="O" horiz-adv-x="1593" d="M115 696q0 334 221 551q201 197 459 197q272 0 473 -209q211 -217 211 -537q0 -330 -215 -542q-201 -201 -469 -201t-467 199q-213 212 -213 542zM356 725q0 -430 211 -600q102 -84 221 -84h13q170 0 299 162q135 182 135 522q0 117 -10 174q-43 313 -269 426 q-84 37 -161 37q-133 0 -246 -94q-147 -125 -182 -369q-11 -57 -11 -174z" />
<glyph unicode="P" horiz-adv-x="1394" d="M55 0v94h68q115 2 143 31v1149q-29 29 -143 31h-68v94l623 2q338 0 483 -139q117 -109 117 -261q0 -139 -109 -243q-100 -98 -245 -129q-45 -10 -252 -13h-193v-245q0 -242 6 -252q16 -23 138 -25h67v-94h-22q-43 6 -295 6q-276 0 -295 -6h-23zM473 700h221q213 0 291 82 q53 59 53 217q0 135 -28 191q-49 90 -197 110q-25 4 -184 5h-43q-100 0 -107 -19q-6 -8 -6 -297v-289z" />
<glyph unicode="Q" horiz-adv-x="1593" d="M115 698q0 324 215 543q201 203 465 203q272 0 473 -209q211 -217 211 -537q0 -317 -203 -530q-63 -68 -141 -115q-63 -41 -64 -37q59 -172 189 -172q78 0 129 41q51 43 57 109q2 27 20 26q10 0 25 -10l-2 -37q0 -154 -59 -254q-66 -115 -189 -114q-164 0 -221 225 q-31 123 -31 154q0 -2 -57 -15q-72 -14 -137 -14q-274 0 -473 207q-207 217 -207 536zM348 694q0 -401 219 -577q49 -37 58 -37l-2 14q-6 16 -7 45q0 68 48 121q53 57 137 57q129 0 213 -174l12 -24q98 68 158 217q59 143 59 358q0 350 -156 529q-121 139 -288 139 q-170 0 -293 -139q-158 -179 -158 -529zM692 137q0 -39 25 -67q29 -33 71 -33q57 0 123 20q55 16 56 25q-27 127 -123 154q-29 4 -53 4q-39 0 -70 -31q-29 -31 -29 -72z" />
<glyph unicode="R" horiz-adv-x="1507" d="M55 0v94h68q115 2 143 31v1149q-29 29 -143 31h-68v94h559q274 0 410 -72q195 -98 223 -268q2 -10 2 -33q0 -152 -157 -258q-78 -53 -158 -76q6 -6 22 -12q137 -76 177 -203q14 -45 26 -129q16 -115 25 -155q33 -160 127 -160h10q86 0 96 145q0 37 41 37t41 -31 q0 -166 -123 -217q-33 -12 -86 -12q-305 12 -352 229q-4 23 -6 154q0 123 -12 166q-39 119 -156 151l-21 4l-270 3l2 -537q18 -29 141 -31h68v-94h-22q-43 6 -291 6q-250 0 -293 -6h-23zM473 737h119q207 0 289 35q98 41 120 162q4 23 5 88v20q0 104 -37 158 q-59 88 -228 103l-161 2q-90 0 -101 -19q-6 -8 -6 -278v-271z" />
<glyph unicode="S" horiz-adv-x="1138" d="M113 -33v240q0 244 2 248q6 10 41 10h26q12 -12 13 -27q0 -150 92 -256q115 -133 338 -133q96 0 166 78t69 190q0 88 -45 160q-47 74 -119 98l-151 39q-160 41 -189 54q-121 49 -182 155q-61 102 -61 215q0 170 120 289q115 115 265 115h28q174 0 303 -129l43 63 q48 64 49 67l-1 -1l28 2q6 0 19 -12v-486l-13 -12h-36q-23 0 -27 6t-10 41q-35 258 -207 342q-76 33 -154 33q-109 0 -178 -76q-66 -72 -66 -170q0 -152 134 -219q20 -8 178 -47q154 -39 170 -47q117 -45 188 -150q78 -113 78 -256q0 -166 -98 -291q-115 -143 -310 -143 q-162 0 -278 68q-94 53 -88 59q-96 -139 -90 -127q-4 -2 -21 -2h-8q-6 0 -18 12z" />
<glyph unicode="T" horiz-adv-x="1478" d="M74 895l39 491h1251l39 -491h-82l-6 66q-4 51 -10 86q-16 123 -56 167q-35 43 -112 66q-43 10 -158 10h-72q-53 0 -59 -24q-2 -4 -2 -572v-565q25 -35 235 -35h62v-94h-27q-18 2 -377 6q-358 -4 -377 -6h-26v94h61q215 0 236 35v997q0 143 -10 154q-10 10 -68 10h-96 q-143 0 -215 -59q-51 -45 -70 -168l-18 -168h-82z" />
<glyph unicode="U" horiz-adv-x="1536" d="M51 1305v94h23q43 -6 295 -6q276 0 295 6h22v-94h-68q-123 -2 -141 -31l-2 -678q0 -356 98 -459q92 -88 224 -88q133 0 233 78q113 88 139 248q8 47 9 465v385q-39 72 -177 80h-34v94h18q31 -6 240 -6t239 6h19v-94h-35q-150 -8 -174 -80l-2 -408q-2 -422 -12 -467 q-41 -180 -177 -291q-129 -104 -286 -104q-174 0 -322 102q-172 123 -209 336q-2 18 -4 451v430q-29 29 -143 31h-68z" />
<glyph unicode="V" horiz-adv-x="1536" d="M39 1305v94h18q37 -6 254 -6q248 0 291 6h23v-94h-43q-125 -6 -125 -35q0 -4 184 -508t186 -504l177 475q174 471 174 490q0 39 -50 63q-39 18 -88 19h-10v94h19q31 -6 235 -6q186 0 199 6h12v-94h-14q-154 0 -197 -84l-229 -625q-231 -623 -234 -625q-10 -16 -39 -16 h-30q-29 0 -39 16q-4 4 -240 650q-240 643 -240 649q-33 33 -135 35h-59z" />
<glyph unicode="W" horiz-adv-x="2105" d="M37 1305v94h18q86 -4 260 -4l295 4v-94h-26q-147 0 -148 -35q0 -8 156 -490l153 -485l129 399q129 401 134 424q-49 152 -56 160q-20 25 -116 27h-58v94h17q18 -6 245 -6q248 0 291 6h21v-94h-27q-145 0 -145 -37q0 -8 309 -969q291 889 291 930q0 18 -33 41 q-43 31 -121 35h-22v94h18q37 -6 250 -6q158 0 182 6h12v-94h-26q-133 -8 -166 -80q-8 -16 -207 -639q-197 -616 -201 -621q-10 -10 -45 -10t-43 14q-4 4 -164 504l-161 504l-162 -498l-90 -291q-39 -123 -51 -157q-25 -76 -52 -76h-20q-35 2 -43 14q-2 2 -209 649t-213 656 q-12 20 -35 22q-29 8 -106 9h-35z" />
<glyph unicode="X" horiz-adv-x="1536" d="M47 0v94h35q182 8 248 86q334 467 334 514q0 4 -183 289q-182 285 -188 291q-37 31 -176 31h-41v94h18q37 -6 258 -6q256 0 299 6h23v-94h-10q-115 0 -125 -33q0 -6 123 -197q121 -193 124 -192q2 0 109 166q106 164 106 165q2 4 3 13q0 66 -111 78h-16v94h18 q37 -6 264 -6q195 0 225 6h17v-94h-35q-168 -6 -238 -78q-6 -6 -149 -221q-135 -211 -135 -213q0 -4 211 -332q209 -328 215 -334q29 -31 153 -33h64v-94h-19q-37 6 -258 6q-256 0 -299 -6h-22v94h12q121 0 121 37q0 8 -150 240l-149 233q-4 4 -137 -205 q-139 -213 -140 -227q0 -68 111 -78h16v-94h-20q-37 6 -264 6q-195 0 -226 -6h-16z" />
<glyph unicode="Y" horiz-adv-x="1536" d="M23 1305v94h18q18 -6 262 -6q256 0 299 6h23v-94h-37q-98 -2 -105 -33q0 -4 174 -299l177 -293l155 262q164 276 164 295q0 57 -94 68h-19v94l242 -4q141 0 215 4h14v-94h-30q-170 -8 -226 -101l-385 -645v-364q0 -59 7 -74q6 -14 32 -21q31 -6 127 -6h45v-94h-20 q-43 6 -295 6q-248 0 -291 -6h-22v94h67q121 2 137 25q6 10 7 223v217l-211 354q-213 356 -220 363q-29 29 -170 29h-40z" />
<glyph unicode="Z" horiz-adv-x="1251" d="M113 43v29q10 18 393 628q379 602 379 605h-183q-172 0 -251 -21q-104 -29 -162 -110q-66 -102 -66 -263q0 -4 -41 -4h-41q0 18 13 228q10 209 10 264h960q12 -12 13 -39q0 -31 -2 -33l-222.5 -326l-214.5 -311l-167 -249.5t-123.5 -211t-40.5 -127.5q0 -2 172 -2h79 q170 0 254 37q127 55 166 217q12 55 27 205v19h82l-35 -578l-987 2l-6 4q-6 10 -6 37z" />
<glyph unicode="[" horiz-adv-x="569" d="M242 -512v2048h280v-82h-198v-1884h198v-82h-280z" />
<glyph unicode="\" d="M115 1497q0 39 39 39q20 0 34 -20q8 -14 365 -992q356 -983 356 -997q0 -39 -41 -39q-20 0 -34 20q-6 8 -361 986q-358 983 -358 1003z" />
<glyph unicode="]" horiz-adv-x="569" d="M45 -430h199v1884h-199v82h281v-2048h-281v82z" />
<glyph unicode="^" d="M229 1147l281 274l16 -16q266 -252 267 -258l-54 -60q-4 2 -118 103l-109 94l-225 -194q-4 -4 -31 28z" />
<glyph unicode="_" d="M0 -51h1022v-76h-1022v76z" />
<glyph unicode="`" d="M217 1341q0 33 27 62q29 29 63 29q33 0 55 -23l242 -317q0 -2 -26 -29l-31 -29l-146 119q-184 151 -184 188z" />
<glyph unicode="a" d="M70 219q0 121 112 205q143 109 441 125h28v45q0 70 -12 102q-45 145 -199 146q-137 0 -137 -17q45 -31 45 -90q0 -51 -35 -82q-33 -29 -77 -28q-45 0 -76 32q-31 31 -31 78q0 182 317 183q150 0 250 -72q86 -59 115 -150q12 -37 12 -299v-143q0 -98 8 -131q12 -41 46 -41 q51 0 51 141v74h82v-80q-2 -82 -6 -96q-39 -133 -185 -133q-113 0 -145 123v8q-71 -71 -71 -73l1 1q-90 -70 -215 -70q-123 0 -215 60q-104 69 -104 182zM258 217q0 -63 49 -113q49 -51 121 -51q78 0 139 49q59 47 78 121q4 14 6 135q0 119 -2 119q-98 -2 -194 -37 q-197 -67 -197 -223z" />
<glyph unicode="b" horiz-adv-x="1138" d="M41 1305v47q0 47 4 47l322 22v-309q0 -311 2 -311q-2 0 20 16q25 20 55 37q98 51 218 51q160 0 278 -123q129 -135 129 -340q0 -207 -137 -340q-127 -125 -303 -125q-150 0 -285 136l-61 -111l-82 -2v610q0 616 -2 625q-6 39 -29 53q-25 12 -92 17h-37zM373 201 q109 -147 231 -148q178 0 240 178q25 72 24 203q0 154 -24 228q-55 168 -230 167q-143 0 -229 -118l-12 -17v-493z" />
<glyph unicode="c" horiz-adv-x="909" d="M70 438q0 213 137 350q129 129 305 130q315 0 315 -187q0 -47 -34 -78q-35 -29 -78 -28q-43 0 -74 32q-33 31 -33 76q0 47 31 78q10 12 -10 16q-53 8 -101 9q-100 0 -163 -66q-96 -96 -97 -321q0 -168 64 -265q84 -125 225 -125q158 0 209 181q6 25 43 24h29 q12 -12 12 -18q0 -53 -66 -140q-100 -129 -274 -129q-176 0 -305 129q-135 133 -135 332z" />
<glyph unicode="d" horiz-adv-x="1138" d="M70 440q0 205 133 338q127 127 297 127q154 0 270 -100l2 358q0 92 -20 115t-105 27h-37v47q0 47 4 47l322 22v-622q0 -627 2 -633q6 -41 31 -55q23 -12 90 -17h37v-94q-182 0 -318 -23h-14v113l-16 -14q-119 -98 -267 -99q-158 0 -278 121q-133 133 -133 342zM268 432 q0 -227 86 -311q61 -68 160 -68q145 0 250 158v489q-92 129 -232 129q-100 0 -178 -73q-86 -88 -86 -324z" />
<glyph unicode="e" horiz-adv-x="909" d="M57 446q0 217 144 355q123 117 268 117q207 0 305 -138q76 -109 76 -278q0 -14 -14 -29h-578v-31q0 -303 205 -368q41 -12 90 -13q86 0 147 66q35 35 56 84l20 51q6 6 33 6h6q35 0 35 -20q0 -8 -6 -27q-86 -244 -332 -244q-195 0 -328 146q-127 137 -127 323zM260 547 h422v16q-23 262 -195 279h-4q-197 0 -223 -281v-14z" />
<glyph unicode="f" horiz-adv-x="626" d="M53 0v94h33q57 0 100 6q16 6 25 23q2 4 2 336v329h-145v95h145l2 272l4 21q68 236 326 266l47 2q84 -6 131 -58q39 -43 39 -102q0 -104 -105 -104q-104 0 -104 104q0 41 37 82l-31 2q-121 0 -172 -156q-12 -41 -14 -194v-135h227v-95h-221v-327q0 -332 2 -336 q14 -27 133 -31h64v-94h-19q-37 6 -260 6q-211 0 -229 -6h-17z" />
<glyph unicode="g" d="M59 -154q0 131 129 191l23 12q-74 63 -74 172q0 96 60 174q-90 90 -91 203q0 129 105 219q102 88 246 88q104 0 194 -53l23 -14q90 90 205 90q61 0 92 -45q23 -33 22 -72q0 -74 -73 -74q-68 0 -76 62q-4 29 6 43l2 8q-57 -6 -109 -45q-16 -10 -16 -14q0 2 1 1q5 0 38 -55 q37 -63 37 -139q0 -127 -101 -217q-102 -88 -247 -88q-102 0 -203 57q-23 -37 -23 -78q0 -72 54 -106q23 -14 182 -16q172 -2 221 -13q125 -18 197 -84q80 -80 80 -200q0 -137 -160 -211q-123 -63 -291 -64q-170 0 -293 64q-160 71 -160 204zM195 -152q0 -57 57 -110 q86 -80 260 -80q141 0 231 61q82 53 82 127q0 154 -323 154h-56q-137 0 -163 -12q-88 -40 -88 -140zM291 598q0 -160 76 -205q35 -20 88 -20q139 0 157 123q6 35 6 102q0 72 -6 104q-25 125 -159 125q-133 0 -156 -125q-6 -32 -6 -104z" />
<glyph unicode="h" horiz-adv-x="1138" d="M51 0v94h62q80 0 96 29l2 174v756l-2 182q-6 39 -29 53q-25 12 -92 17h-37v47q0 47 4 47l322 22v-669q123 154 295 153q252 0 276 -231q2 -14 2 -285v-176q0 -78 4 -94q4 -12 23 -19q43 -6 100 -6h33v-94l-246 6q-211 0 -229 -6h-17v94h33q125 0 125 33q2 4 2 283 q-2 276 -4 292q-27 125 -143 125q-92 0 -162 -69q-86 -86 -86 -283v-254q0 -84 4 -100q4 -12 23 -21q43 -6 100 -6h33v-94l-246 6q-211 0 -229 -6h-17z" />
<glyph unicode="i" horiz-adv-x="569" d="M53 0v94h33q57 0 100 6q27 10 27 109v391q0 158 -33 174q-29 14 -96 14h-23v48q0 47 5 47l313 22v-778q14 -31 96 -33h47v-94h-16q-31 6 -213 6zM141 1247q0 57 37 90t90 33q117 -8 117 -123q0 -123 -121 -123q-123 0 -123 123z" />
<glyph unicode="j" horiz-adv-x="626" d="M-113 -240q0 47 31 78t78 31t78 -31q33 -31 32 -80q0 -51 -49 -92q61 -10 74 -10q123 0 145 186q4 25 5 447q0 422 -2 434q-12 61 -132 65h-41v48q0 47 5 47l335 22v-528q-2 -541 -14 -578q-33 -96 -119 -157q-88 -61 -194 -62q-100 0 -168 53q-64 53 -64 127zM201 1247 q0 57 37 90t90 33q117 -8 116 -123q0 -123 -120 -123q-123 0 -123 123z" />
<glyph unicode="k" horiz-adv-x="1081" d="M41 0v94h61q80 0 97 29l2 174v756l-2 182q-6 39 -29 53q-25 12 -92 17h-37v47q0 47 4 47l322 22l2 -944l123 111q123 111 131 123q12 18 12 34q0 39 -43 43h-10v95h18q31 -6 244 -6q129 0 147 6h10v-95h-26q-141 -10 -238 -90q-152 -129 -151 -137q0 -33 274 -399 q51 -68 164 -68h23v-94h-13q-18 6 -178 6q-197 0 -227 -6h-17v94h15q49 4 49 39q0 14 -8 29q-168 293 -201 293l-107 -95v-188q0 -61 27 -72q43 -6 100 -6h33v-94h-16q-31 6 -223 6q-193 0 -224 -6h-16z" />
<glyph unicode="l" horiz-adv-x="569" d="M53 0v94h62q80 0 96 29l2 174v756l-2 182q-6 39 -29 53q-25 12 -92 17h-37v47q0 47 4 47l322 22v-645q0 -649 2 -653q8 -16 25 -23q43 -6 100 -6h33v-94l-242 6z" />
<glyph unicode="m" horiz-adv-x="1705" d="M51 0v94h62q80 0 96 29l2 94l-2 502q-6 39 -29 53q-25 12 -92 16h-37v48q0 47 4 47l316 22v-82q0 -78 2 -78q-1 0 -2 2q0 7 53 58q68 66 160 90q41 10 104 10q186 -6 248 -166q133 166 299 166q258 0 281 -231q2 -14 2 -285v-176q0 -78 4 -94q4 -12 22 -19q43 -6 101 -6 h32v-94l-245 6q-211 0 -230 -6h-16v94h33q125 0 124 33q2 4 3 283q-2 276 -5 292q-27 125 -143 125q-92 0 -162 -69q-86 -86 -86 -283v-254q0 -84 4 -100q4 -12 23 -21q43 -6 100 -6h33v-94l-246 6q-211 0 -229 -6h-17v94h33q125 0 125 33q2 4 2 283q-2 276 -4 292 q-27 125 -143 125q-92 0 -162 -69q-86 -86 -86 -283v-254q0 -84 4 -100q4 -12 23 -21q43 -6 100 -6h33v-94l-246 6q-211 0 -229 -6h-17z" />
<glyph unicode="n" horiz-adv-x="1138" d="M51 0v94h62q80 0 96 29l2 94l-2 502q-6 39 -29 53q-25 12 -92 16h-37v48q0 47 4 47l316 22v-82q0 -78 2 -78q-1 0 -2 2q0 7 53 58q68 66 160 90q41 10 104 10q233 -8 260 -231q2 -14 2 -285v-176q0 -78 4 -94q4 -12 23 -19q43 -6 100 -6h33v-94l-246 6q-211 0 -229 -6 h-17v94h33q125 0 125 33q2 4 2 283q-2 276 -4 292q-27 125 -143 125q-92 0 -162 -69q-86 -86 -86 -283v-254q0 -84 4 -100q4 -12 23 -21q43 -6 100 -6h33v-94l-246 6q-211 0 -229 -6h-17z" />
<glyph unicode="o" d="M57 438q0 195 133 336q133 143 322 144q184 0 319 -140q133 -141 134 -338q0 -195 -131 -327q-131 -133 -322 -133q-199 0 -330 141q-125 133 -125 317zM258 463q0 -197 39 -277q66 -125 215 -125q250 0 250 334v117q0 127 -31 195q-49 104 -182 133q-10 2 -33 2 q-61 0 -117 -25q-141 -72 -141 -313v-41z" />
<glyph unicode="p" horiz-adv-x="1138" d="M41 -303h61q80 0 97 29l2 155v676l-2 162q-6 39 -29 53q-25 12 -92 16h-37v48q0 47 4 47l322 22l2 -106l16 14q121 90 283 90q166 0 282 -131q119 -133 119 -330q0 -207 -139 -342q-129 -123 -295 -123q-139 0 -246 91l-16 14v-289q0 -80 26 -90q43 -6 101 -6h32v-94 l-245 6q-211 0 -230 -6h-16v94zM373 201q82 -147 229 -148q104 0 182 107q84 115 84 286q0 152 -69 265q-72 113 -174 112q-145 0 -252 -133v-489z" />
<glyph unicode="q" horiz-adv-x="1081" d="M68 446q0 184 129 322q125 135 286 135h21q172 0 276 -141l13 -17q2 0 34 80l33 80h76v-586q0 -590 2 -593q8 -16 25 -23q43 -6 100 -6h33v-94l-246 6q-211 0 -229 -6h-17v94h33q57 0 100 6q27 10 27 80v317q-123 -123 -281 -123q-168 0 -288 129q-127 135 -127 340z M268 438q0 -158 70 -268q72 -115 180 -115q170 0 252 187v372q-61 182 -201 207l-34 2q-102 -4 -179 -100q-88 -111 -88 -285z" />
<glyph unicode="r" horiz-adv-x="802" d="M41 0v94h61q80 0 97 29l2 94l-2 502q-6 39 -29 53q-25 12 -92 16h-37v48q0 47 4 47l311 22v-141q80 139 199 139h12q92 0 142 -51q37 -39 36 -88q0 -43 -26 -72q-29 -33 -78 -33q-51 0 -80 37q-23 29 -22 66q0 25 10 47q10 23 10 20q-4 4 -47 -8q-33 -16 -49 -30 q-96 -92 -96 -367l2 -299q14 -27 133 -31h63v-94h-18q-37 6 -260 6q-211 0 -230 -6h-16z" />
<glyph unicode="s" horiz-adv-x="806" d="M68 -10v280q0 43 4 54q4 8 20 8h19q37 0 43 -35q14 -74 53 -139q72 -104 199 -105q199 0 198 160q0 59 -37 96q-41 49 -153 72q-145 29 -187 49q-160 76 -159 221q0 150 122 217q84 47 193 47h23q82 0 143 -30l31 -17l18 15q20 20 45 35h25q6 0 18 -13v-270l-12 -12h-58 q-12 12 -12 24q0 82 -51 137q-59 63 -164 64q-74 0 -127 -27q-61 -39 -61 -106q-1 -7 -1 -13q0 -80 122 -114q240 -59 245 -64q168 -80 168 -252q0 -293 -329 -292h-17q-106 0 -196 73l-82 -76h-25q-6 1 -18 13z" />
<glyph unicode="t" horiz-adv-x="796" d="M37 788v76h18q109 8 172 125q55 98 62 240v31h82v-377h276v-95h-276v-294q2 -317 16 -355q29 -80 100 -80q90 0 111 146q2 16 2 94v72h82v-97q0 -158 -86 -239q-55 -55 -143 -55q-131 0 -199 88q-45 57 -53 137q-2 14 -2 303v280h-162z" />
<glyph unicode="u" horiz-adv-x="1138" d="M51 788v48q0 47 4 47l328 22l2 -737q4 -61 33 -86q41 -29 123 -29q121 0 186 99q41 63 49 143l2 350q0 94 -20 117q-18 25 -103 26h-37v95q182 0 318 22h14v-364q0 -369 2 -375q6 -41 31 -55q23 -12 90 -17h37v-94q-176 0 -311 -23h-15v142q-115 -139 -260 -139h-14 q-256 0 -295 202q-2 14 -4 281q-2 272 -14 293q-20 33 -123 32h-23z" />
<glyph unicode="v" horiz-adv-x="1081" d="M39 788v95l211 -6q195 0 225 6h17v-95h-29q-80 -2 -86 -30q0 -8 104 -279l105 -270l186 489v17q0 74 -86 73h-8v95h14q12 -4 172 -4q117 0 166 4h10v-95h-22q-119 -8 -152 -81q-4 -8 -137 -353l-139 -358q-10 -18 -51 -19q-39 0 -50 19q-287 739 -288 749q-16 41 -113 43 h-49z" />
<glyph unicode="w" horiz-adv-x="1478" d="M37 788v95l201 -6q184 0 215 6h16v-95h-29q-78 -4 -78 -34l181 -523l151 441l-12 35q-20 57 -31 65q-16 14 -82 16h-41v95h13q12 -6 172 -6q186 0 217 6h14v-95h-18q-98 0 -99 -32q0 14 189 -551l84 244q86 250 86 262q0 70 -101 77h-16v95h14q25 -6 195 -6q139 0 152 6 h10v-95l-43 -2q-96 -14 -129 -102l-123 -354q-107 -303 -105 -303v2q-20 -51 -43 -52h-16q-39 0 -47 15q-2 2 -100 280l-95 275q-4 -8 -194 -555q-10 -14 -47 -15h-11q-27 0 -36 17q-2 2 -267 760q-16 31 -102 34h-45z" />
<glyph unicode="x" horiz-adv-x="1081" d="M23 0v94h28q129 8 197 64q25 20 121 149l94 123l-119 160q-115 156 -121 162q-20 27 -59 32l-74 4h-57v95h14q74 -4 211 -4q190 0 211 4h16v-95q-74 -8 -73 -32q0 12 137 -195l8 -8l51 70q66 84 66 110q0 33 -45 55h-11v95h15q31 -6 203 -6q162 0 174 6h12v-95h-14 q-100 0 -166 -34q-57 -27 -203 -228l-33 -43l127 -174q147 -199 180 -207q37 -8 109 -8h35v-94l-209 6l-244 -6v94h6q68 0 68 35q0 4 -82 117l-84 112q-37 -18 -133 -178q-8 -10 -8 -28q0 -57 51 -58q4 0 4 -47v-47h-14q-25 6 -203 6q-156 0 -174 -6h-12z" />
<glyph unicode="y" horiz-adv-x="1081" d="M39 -238q0 102 102 103q45 0 74 -31q27 -29 27 -72q0 -70 -56 -90q-12 -6 7 -10q14 -6 34 -6q137 0 234 256l35 88l-148 375q-143 354 -143 359l2 -3q-18 43 -47 51q-25 6 -90 6h-31v95l211 -6l244 6v-95h-19q-100 0 -96 -38q4 -14 207 -521l184 469v19q0 72 -86 71h-6 v95l186 -4q113 0 166 4h10v-95h-22q-115 -10 -154 -81q-2 -2 -178 -453q-180 -461 -221 -522q-96 -150 -234 -150q-90 0 -145 60q-47 50 -47 120z" />
<glyph unicode="z" horiz-adv-x="909" d="M57 35q0 27 2 28q274 274 543 744h-119q-137 -2 -172 -12q-51 -12 -80 -43q-49 -47 -63 -211v-19h-82v17q4 14 12 170l11 174h696q12 -12 12 -33q0 -25 -2 -27q10 10 -272 -372l-269 -367l148 -2q197 0 256 76q43 57 57 221l4 33q0 2 41 2h41l-35 -414l-716 2l-7 4 q-6 11 -6 29z" />
<glyph unicode="{" d="M133 512q0 27 6 33t29 6q70 0 139 37q80 45 109 119q12 31 12 376v103q0 180 72 244q53 53 164 86q76 16 108 18l105 2q12 -12 12 -37q0 -27 -6 -33q-4 -6 -33 -6q-109 -6 -178 -55q-53 -39 -66 -80q-10 -27 -10 -303v-168q0 -145 -41 -211q-63 -88 -178 -121l-29 -10 l29 -10q197 -63 217 -221q2 -12 2 -279q0 -276 10 -303q47 -125 244 -135q29 0 33 -6q6 -6 6 -31q0 -27 -12 -39h-37q-264 0 -369 135q-41 55 -43 377q-2 291 -12 317q-29 74 -109 119q-68 37 -139 37q-23 0 -29 6t-6 33z" />
<glyph unicode="|" horiz-adv-x="569" d="M244 -481l2 1990q20 27 39 27q27 0 41 -31v-1986q-16 -29 -37 -29h-8q-25 0 -37 29z" />
<glyph unicode="}" d="M131 -471q0 35 25 35q219 0 266 151q2 10 4 291l2 279q27 117 143 186q72 35 103 41q-51 16 -103 41q-113 70 -139 168l-4 20l-2 279q-2 281 -4 291q-25 82 -125 123q-70 27 -141 26q-25 0 -25 37q0 29 8 35q6 4 39 4q297 0 391 -164q23 -51 25 -346q2 -285 4 -295 q27 -92 119 -141q68 -39 135 -39q23 0 29 -6t6 -33t-6 -33t-29 -6q-76 0 -145 -43q-74 -45 -99 -108q-14 -37 -14 -379v-105q0 -180 -72 -244q-111 -106 -342 -106q-37 0 -43 6t-6 35z" />
<glyph unicode="~" d="M170 487q0 43 121 136q47 29 92 28q45 0 135 -37t137 -36q66 0 140 73l57 -47q-84 -121 -147 -149q-29 -14 -64 -15q-43 0 -133 37q-92 37 -141 37q-66 0 -140 -74z" />
<glyph unicode="&#xa8;" d="M195 1253q0 43 32 80q37 37 86 37t84 -37q33 -35 33 -80q0 -49 -33 -84q-35 -35 -86 -34l-51 12q-65 34 -65 106zM592 1251q0 47 35 82q27 29 59 35l23 2q47 0 84 -35q35 -35 34 -82q0 -47 -34 -84q-35 -35 -84 -34q-47 0 -82 34q-35 33 -35 82z" />
<glyph unicode="&#xac;" horiz-adv-x="1366" d="M113 688q0 27 28 41h1078q14 -6 30 -27v-493q-27 -27 -41 -27q-12 0 -39 27l-2 438h-1026q-28 14 -28 41z" />
<glyph unicode="&#xad;" horiz-adv-x="681" d="M23 367v149h544v-149h-544z" />
<glyph unicode="&#xaf;" d="M141 1114v94h740v-94h-740z" />
<glyph unicode="&#xb0;" d="M301 1286q0 84 72 135q59 43 127 43q111 0 170 -57q51 -49 51 -119q0 -76 -59 -127t-152 -51q-96 0 -154 53q-55 49 -55 123zM383 1288q0 -59 23 -80q25 -23 106 -22h31q98 0 98 100q0 66 -33 88q-23 14 -78 15l-51 2q-96 -1 -96 -103z" />
<glyph unicode="&#xb1;" horiz-adv-x="1593" d="M113 41q0 27 28 41h613v559h-613q-29 14 -28 41q0 27 28 41h613v305q0 305 4 313q12 23 35 23q29 0 36 -25q6 -25 7 -118v-498h610q31 -16 31 -41t-31 -41h-610v-559h610q31 -16 31 -41t-31 -41h-1305q-28 14 -28 41z" />
<glyph unicode="&#xb4;" d="M418 1092l223 297q43 43 74 43q37 0 63 -29q27 -27 27 -60q0 -39 -184 -190l-146 -119l-31 29q-28 29 -26 29z" />
<glyph unicode="&#xd7;" horiz-adv-x="1593" d="M301 59q0 18 221 240l213 213l-213 213q-221 221 -221 240q0 39 43 39q10 0 14 -3q6 -4 224 -217l215 -215l213 213q223 223 237 224q43 0 43 -41q0 -16 -221 -238l-213 -215l213 -215q221 -221 221 -238q0 -41 -43 -41q-14 0 -237 224l-213 213l-215 -215 q-217 -213 -224 -217q-8 -4 -14 -5q-43 0 -43 41z" />
<glyph unicode="&#xf7;" horiz-adv-x="1593" d="M113 512q0 27 28 41h1303q31 -16 31 -41t-31 -41h-1303q-28 14 -28 41zM649 70q0 70 49 110q39 35 90 35q66 0 109 -43q39 -41 39 -102q0 -57 -35 -99q-39 -45 -108 -45q-68 0 -107 45q-37 42 -37 99zM649 954q0 70 49 111q39 35 90 35q66 0 109 -43q39 -41 39 -103 q0 -57 -35 -98q-39 -45 -108 -45q-68 0 -107 45q-37 41 -37 98z" />
<glyph unicode="&#x131;" horiz-adv-x="569" d="M53 0v94h33q57 0 100 6q27 10 27 109v391q0 158 -33 174q-29 14 -96 14h-23v48q0 47 5 47l313 22v-778q14 -31 96 -33h47v-94h-16q-31 6 -213 6z" />
<glyph unicode="&#x237;" horiz-adv-x="626" d="M-113 -240q0 47 31 78t78 31t78 -31q33 -31 32 -80q0 -51 -49 -92q61 -10 74 -10q123 0 145 186q4 25 5 447q0 422 -2 434q-12 61 -132 65h-41v48q0 47 5 47l335 22v-528q-2 -541 -14 -578q-33 -96 -119 -157q-88 -61 -194 -62q-100 0 -168 53q-64 53 -64 127z" />
<glyph unicode="&#x2c6;" d="M229 1147l281 274l16 -16q266 -252 267 -258l-54 -60q-4 2 -118 103l-109 94l-225 -194q-4 -4 -31 28z" />
<glyph unicode="&#x2c7;" d="M233 1251l27 39q8 16 19 29q4 0 116 -66q113 -63 117 -63l115 63q113 66 116 66l45 -68l-278 -200z" />
<glyph unicode="&#x2c9;" d="M141 1114v94h740v-94h-740z" />
<glyph unicode="&#x2ca;" d="M418 1092l223 297q43 43 74 43q37 0 63 -29q27 -27 27 -60q0 -39 -184 -190l-146 -119l-31 29q-28 29 -26 29z" />
<glyph unicode="&#x2cb;" d="M217 1341q0 33 27 62q29 29 63 29q33 0 55 -23l242 -317q0 -2 -26 -29l-31 -29l-146 119q-184 151 -184 188z" />
<glyph unicode="&#x2d8;" d="M188 1399v22h76l2 -39q14 -90 78 -151q68 -70 164 -70q115 0 188 92q61 76 62 158v10h76v-22q-8 -135 -89 -234q-92 -111 -233 -110q-145 0 -236 110q-80 97 -88 234z" />
<glyph unicode="&#x2d9;" d="M389 1247q0 57 37 90t90 33q117 -8 117 -123q0 -123 -121 -123q-123 0 -123 123z" />
<glyph unicode="&#x2da;" d="M301 1286q0 84 72 135q59 43 127 43q111 0 170 -57q51 -49 51 -119q0 -76 -59 -127t-152 -51q-96 0 -154 53q-55 49 -55 123zM383 1288q0 -59 23 -80q25 -23 106 -22h31q98 0 98 100q0 66 -33 88q-23 14 -78 15l-51 2q-96 -1 -96 -103z" />
<glyph unicode="&#x2dc;" d="M170 1204q0 43 121 135q47 29 92 29t135 -37t137 -37q66 0 140 74l57 -47q-84 -121 -147 -150q-29 -14 -64 -14q-43 0 -133 37q-92 37 -141 37q-66 0 -140 -74z" />
<glyph unicode="&#x300;" horiz-adv-x="0" d="M-807 1341q0 33 27 62q29 29 63 29q33 0 55 -23l242 -317q0 -2 -26 -29l-31 -29l-146 119q-184 151 -184 188z" />
<glyph unicode="&#x301;" horiz-adv-x="0" d="M-604 1092l223 297q43 43 74 43q37 0 63 -29q27 -27 27 -60q0 -39 -184 -190l-146 -119l-31 29q-28 29 -26 29z" />
<glyph unicode="&#x302;" horiz-adv-x="0" d="M-795 1147l281 274l16 -16q266 -252 267 -258l-54 -60q-4 2 -118 103l-109 94l-225 -194q-4 -4 -31 28z" />
<glyph unicode="&#x303;" horiz-adv-x="0" d="M-854 1204q0 43 121 135q47 29 92 29t135 -37t137 -37q66 0 140 74l57 -47q-84 -121 -147 -150q-29 -14 -64 -14q-43 0 -133 37q-92 37 -141 37q-66 0 -140 -74z" />
<glyph unicode="&#x304;" horiz-adv-x="0" d="M-883 1114v94h740v-94h-740z" />
<glyph unicode="&#x306;" horiz-adv-x="0" d="M-836 1399v22h76l2 -39q14 -90 78 -151q68 -70 164 -70q115 0 188 92q61 76 62 158v10h76v-22q-8 -135 -89 -234q-92 -111 -233 -110q-145 0 -236 110q-80 97 -88 234z" />
<glyph unicode="&#x307;" horiz-adv-x="0" d="M-635 1247q0 57 37 90t90 33q117 -8 117 -123q0 -123 -121 -123q-123 0 -123 123z" />
<glyph unicode="&#x308;" horiz-adv-x="0" d="M-829 1253q0 43 32 80q37 37 86 37t84 -37q33 -35 33 -80q0 -49 -33 -84q-35 -35 -86 -34l-51 12q-65 34 -65 106zM-432 1251q0 47 35 82q27 29 59 35l23 2q47 0 84 -35q35 -35 34 -82q0 -47 -34 -84q-35 -35 -84 -34q-47 0 -82 34q-35 33 -35 82z" />
<glyph unicode="&#x30a;" horiz-adv-x="0" d="M-723 1286q0 84 72 135q59 43 127 43q111 0 170 -57q51 -49 51 -119q0 -76 -59 -127t-152 -51q-96 0 -154 53q-55 49 -55 123zM-641 1288q0 -59 23 -80q25 -23 106 -22h31q98 0 98 100q0 66 -33 88q-23 14 -78 15l-51 2q-96 -1 -96 -103z" />
<glyph unicode="&#x30b;" horiz-adv-x="0" d="M-774 1081q0 59 104 303q23 51 72 52q29 0 57 -21q37 -25 37 -67q0 -18 -8 -35q-4 -8 -98 -139q-92 -129 -95 -130q-1 0 -69 37zM-434 1081q0 59 104 303q23 51 72 52q29 0 57 -21q37 -25 37 -67q0 -18 -8 -35q-4 -8 -98 -139q-92 -129 -95 -130q-1 0 -69 37z" />
<glyph unicode="&#x30c;" horiz-adv-x="0" d="M-791 1251l27 39q8 16 19 29q4 0 116 -66q113 -63 117 -63l115 63q113 66 116 66l45 -68l-278 -200z" />
<glyph unicode="&#x338;" horiz-adv-x="0" d="M-1309 -403q0 14 11 28q885 1769 938 1823q6 18 32 18q41 0 41 -41q0 -10 -475 -931q-475 -924 -483 -928q-8 -6 -23 -6q-41 0 -41 37z" />
<glyph unicode="&#x393;" horiz-adv-x="1280" d="M51 0v94h68q115 2 143 31v1143q-29 29 -143 30h-68v95h1084v-9q4 -10 28 -237q25 -225 29 -238v-8h-82l-8 57q-6 53 -12 89q-27 125 -82 178q-78 74 -293 73h-31q-143 0 -172 -4q-33 -2 -35 -22q-2 -6 -2 -578l2 -569q31 -31 205 -31h55v-94h-24q-49 6 -340 6 q-268 0 -299 -6h-23z" />
<glyph unicode="&#x394;" horiz-adv-x="1705" d="M94 14q0 4 348 717q346 713 353 721q6 14 57 14q47 0 57 -14q6 -8 355 -721q346 -713 346 -717q0 -6 -11 -14h-1495q-10 8 -10 14zM281 188l1009 -2q0 4 -252 519l-252 516z" />
<glyph unicode="&#x398;" horiz-adv-x="1593" d="M115 696q0 334 221 551q201 197 459 197q272 0 473 -209q211 -217 211 -537q0 -330 -215 -542q-201 -201 -469 -201t-467 199q-213 212 -213 542zM344 694q0 -133 16 -213q57 -328 304 -424q66 -25 131 -24q168 0 288 129q166 174 166 532q0 350 -153 529 q-125 145 -310 145q-205 0 -333 -209q-109 -166 -109 -465zM457 539v325h82v-69h514v69h82v-325h-82v69h-514v-69h-82z" />
<glyph unicode="&#x39b;" horiz-adv-x="1421" d="M66 0v94h26q137 10 168 92q2 2 199 633l196 631q12 16 41 16h31q25 0 35 -16q4 -4 209 -657l207 -666q16 -27 120 -33h56v-94h-17q-18 6 -247 6q-248 0 -291 -6h-23v94h27q147 0 147 39q-2 10 -151 490q-150 483 -152 481l-143 -457q-141 -453 -142 -475q0 -25 41 -51 q45 -27 105 -27h10v-94h-16q-31 6 -236 6q-170 0 -188 -6h-12z" />
<glyph unicode="&#x39e;" horiz-adv-x="1366" d="M86 369h41q41 0 41 -4q0 -92 14 -150q10 -35 39 -39q59 -6 461 -6q403 0 461 6q29 4 39 39q14 57 14 150q0 4 41 4h41l-16 -369h-1160zM96 1042l17 342q0 2 569 2t569 -2l17 -342q0 -2 -41 -2t-41 4q0 152 -31 162q-29 10 -473 11q-444 0 -473 -11q-31 -10 -31 -162 q0 -4 -41 -4t-41 2zM285 532v379h82v-104h630v104h82v-379h-82v105h-630v-105h-82z" />
<glyph unicode="&#x3a0;" horiz-adv-x="1536" d="M51 0v94h68q115 2 143 31v1143q-29 29 -143 30h-68v95h1432v-95h-68q-123 -2 -141 -30v-1143q18 -29 141 -31h68v-94h-23q-43 6 -295 6q-276 0 -295 -6h-22v94h67q115 2 144 31v1173h-584l2 -1173q18 -29 141 -31h68v-94h-22q-43 6 -295 6q-276 0 -295 -6h-23z" />
<glyph unicode="&#x3a3;" horiz-adv-x="1478" d="M115 1348q0 39 10 47q6 4 596 4h588v-8q4 -10 28 -238q25 -225 29 -238v-8h-82v8q-35 244 -137 324q-96 66 -463 66h-295l213 -293q219 -305 219 -316q0 -4 -2 -6l-502 -573q518 0 562 2q219 10 301 92q94 102 104 303h82l-29 -256q-27 -244 -28 -250v-8h-588 q-596 0 -602 12t0 23l508 577l-510 707z" />
<glyph unicode="&#x3a5;" horiz-adv-x="1593" d="M113 1128q0 109 65 201q82 115 219 115q211 0 326 -236q59 -119 74 -237q-2 -2 16 76q23 90 57 163q113 233 326 234q139 0 219 -119q63 -94 64 -197q0 -23 -9 -26q-6 -4 -38 -4q-39 0 -46 10l-2 14q0 57 -53 99q-53 41 -127 41h-12q-90 0 -158 -70q-131 -133 -131 -541 l2 -100v-426q31 -31 205 -31h55v-94h-24q-49 6 -344 6t-344 -6h-25v94h55q166 0 207 31v303q0 356 -8 422q-41 412 -295 412q-72 0 -123 -39q-57 -39 -57 -101q0 -25 -47 -24q-47 -1 -47 30z" />
<glyph unicode="&#x3a6;" horiz-adv-x="1478" d="M115 700q0 147 153 261q141 104 334 124l37 7v182q-45 31 -207 31h-55v94h24q49 -6 338 -6t338 6h25v-94h-55q-174 0 -205 -31v-182l28 -5q205 -25 347 -131q145 -113 145 -256q0 -160 -168 -272q-139 -94 -324 -117l-28 -4v-182q31 -31 205 -31h55v-94h-25q-49 6 -338 6 t-338 -6h-24v94h55q166 0 207 31v182h-4q2 -2 -96 17q-111 20 -211 75q-213 113 -213 301zM348 700q0 -276 281 -315h10v629h-6q-39 0 -105 -27q-106 -41 -147 -121q-33 -70 -33 -166zM840 385h10q279 43 278 315q0 193 -129 267q-39 23 -94 34l-55 13h-10v-629z" />
<glyph unicode="&#x3a8;" horiz-adv-x="1593" d="M111 1077q0 31 8 35q8 6 55 6h70q94 0 131 -37q29 -29 41 -71q8 -18 28 -256q16 -188 111 -283q68 -63 137 -78q2 0 2 441v440q-45 31 -207 31h-55v94h25q49 -6 338 -6t338 6h24v-94h-55q-174 0 -205 -31l-2 -440q0 -440 2 -441q49 10 104 53q111 86 138 259q6 43 10 165 q4 92 22 140q29 88 97 104q14 4 104 4h90l15 -12v-51q-16 -12 -29 -13q-78 -10 -92 -147q-29 -233 -39 -266q-92 -266 -395 -316l-27 -4l2 -184q31 -31 205 -31h55v-94h-24q-49 6 -338 6t-338 -6h-25v94h55q166 0 207 31v184q-438 55 -456 522q-4 199 -99 211q-28 0 -28 35z " />
<glyph unicode="&#x3a9;" horiz-adv-x="1478" d="M90 362h82l2 -10q0 -84 39 -162q16 -25 152 -26h90v6q-29 86 -205 371q-137 223 -137 389q0 238 217 389q178 123 360 123h31q90 0 106 -2q252 -33 402 -189q135 -141 135 -321q0 -166 -137 -389q-176 -285 -205 -371v-6h90q135 2 152 26q39 78 39 162l2 10h81l-67 -362 h-320q-55 0 -65 6t-10 35q0 141 100 440q98 299 98 451q0 223 -131 342q-106 94 -252 94q-139 0 -243 -86q-139 -117 -140 -348q0 -156 99 -457q98 -301 98 -436q0 -27 -14 -41h-381z" />
<glyph unicode="&#x2000;" horiz-adv-x="921" />
<glyph unicode="&#x2001;" horiz-adv-x="1843" />
<glyph unicode="&#x2002;" />
<glyph unicode="&#x2003;" horiz-adv-x="2045" />
<glyph unicode="&#x2004;" horiz-adv-x="681" />
<glyph unicode="&#x2005;" horiz-adv-x="512" />
<glyph unicode="&#x2006;" horiz-adv-x="342" />
<glyph unicode="&#x2007;" horiz-adv-x="307" />
<glyph unicode="&#x2008;" horiz-adv-x="229" />
<glyph unicode="&#x2009;" horiz-adv-x="342" />
<glyph unicode="&#x200a;" horiz-adv-x="169" />
<glyph unicode="&#x2010;" horiz-adv-x="681" d="M23 367v149h544v-149h-544z" />
<glyph unicode="&#x2011;" horiz-adv-x="681" d="M23 367v149h544v-149h-544z" />
<glyph unicode="&#x2012;" horiz-adv-x="681" d="M23 367v149h544v-149h-544z" />
<glyph unicode="&#x2013;" d="M0 508v76h1022v-76h-1022z" />
<glyph unicode="&#x2014;" horiz-adv-x="2048" d="M0 508v76h2046v-76h-2046z" />
<glyph unicode="&#x2018;" horiz-adv-x="569" d="M131 1012q0 158 90 297q74 113 107 112q6 0 26 -18q18 -18 19 -27q0 1 -1 1q-7 0 -77 -99q-80 -111 -88 -252q0 -25 2 -25l22 13q25 10 52 10q51 0 86 -33q37 -37 37 -90t-35 -90q-35 -35 -86 -35q-59 0 -101 47q-53 62 -53 189z" />
<glyph unicode="&#x2019;" horiz-adv-x="569" d="M160 1298q0 51 35 86q35 37 88 37q57 0 98 -47q53 -61 53 -188q0 -158 -90 -297q-72 -113 -102 -113q-8 0 -27 19q-20 18 -20 26v-1q7 0 77 100q80 111 88 251q0 25 -2 25l-22 -10q-25 -12 -51 -12q-51 0 -88 34q-37 37 -37 90z" />
<glyph unicode="&#x201c;" d="M262 1012q0 158 90 297q72 113 105 112q6 0 26 -18q20 -20 19 -31q-2 -4 -29 -35q-33 -35 -55 -65q-76 -109 -82 -246q0 -25 2 -25l22 13q25 10 52 10q51 0 88 -33q37 -37 37 -90t-37 -90q-35 -35 -86 -35q-152 0 -152 236zM680 1012q0 158 90 297q72 113 104 112 q6 0 27 -18q18 -18 19 -27q0 1 -1 1q-7 0 -77 -99q-80 -111 -88 -252q0 -25 2 -25l22 13q25 10 51 10q51 0 89 -33q37 -37 36 -90q0 -53 -36 -90q-35 -35 -87 -35q-151 0 -151 236z" />
<glyph unicode="&#x201d;" d="M70 1298q0 51 32 86q35 37 88 37q57 0 99 -47q55 -61 55 -188q0 -158 -90 -297q-74 -113 -104 -113q-8 0 -27 19q-20 18 -21 26q0 -1 1 -1q7 0 77 100q80 111 88 251q0 25 -2 25l-22 -10q-25 -12 -51 -12q-51 0 -87 34q-36 35 -36 90zM487 1298q0 51 33 86q35 37 88 37 q57 0 99 -47q55 -61 55 -188q0 -158 -90 -297q-74 -113 -105 -113q-8 0 -26 19q-20 18 -21 26q0 -1 1 -1q7 0 77 100q80 111 88 251q0 25 -2 25l-22 -10q-25 -12 -52 -12q-51 0 -86 34q-37 35 -37 90z" />
<glyph unicode="&#x2020;" horiz-adv-x="909" d="M113 883q0 84 88 84q37 0 110 -21q88 -23 109 -26l-4 49q-6 55 -21 151q-23 147 -22 221v41q27 61 82 62q47 0 84 -62l-2 -41q0 -72 -21 -211q-23 -152 -24 -200v-10q218 44 218 46l-1 1q88 0 88 -84t-88 -84q-39 0 -121 22q-80 23 -90 23h-6v-15q47 -332 47 -368 q0 -848 -50 -897q-6 -6 -34 -6h-11q-27 0 -30 14l-6 84q-37 422 -37 805q0 33 47 368v15h-6q-10 0 -90 -23q-82 -23 -121 -22q-88 0 -88 84z" />
<glyph unicode="&#x2021;" horiz-adv-x="909" d="M113 45q0 84 88 84q39 0 121 -23q80 -23 90 -22h6v14q-47 330 -47 316q0 96 84 96t84 -96q0 1 -1 1q-3 0 -46 -317v-14h6q10 0 90 22q82 23 121 23q88 0 88 -84t-88 -84q-39 0 -121 23q-80 23 -90 22h-6v-14q47 -330 47 -316q0 -96 -84 -96t-84 96v-1q3 0 47 317v14h-6 q-10 0 -90 -22q-82 -23 -121 -23q-88 0 -88 84zM115 979q0 84 88 84q37 0 123 -23q86 -25 90 -24q2 0 2 6q0 16 -23 152q-25 133 -24 174q0 96 84 96t84 -96q0 -51 -23 -177q-25 -125 -24 -153q0 -2 2 -2q4 0 90 24q86 23 123 23q88 0 88 -84q0 -51 -56 -82h-34 q-53 0 -127 23q-76 20 -84 20q-2 -2 -2 -6q0 -14 24 -148q23 -135 23 -178q0 -96 -84 -96t-84 96q0 53 24 178q23 123 23 152q0 2 -2 2q-10 0 -84 -20q-74 -23 -125 -23h-35q-57 31 -57 82z" />
<glyph unicode="&#x2026;" horiz-adv-x="2400" d="M160 123q0 49 35 84q35 39 88 39q49 0 86 -33q39 -35 39 -88q0 -51 -37 -88q-35 -37 -86 -37t-88 37q-37 35 -37 86zM1075 123q0 49 35 84q35 39 88 39q49 0 86 -33q39 -35 39 -88q0 -51 -37 -88q-35 -37 -86 -37t-88 37q-37 35 -37 86zM1991 123q0 49 34 84q35 39 89 39 q49 0 86 -33q39 -35 38 -88q0 -51 -36 -88q-35 -37 -86 -37t-88 37q-37 35 -37 86z" />
<glyph unicode="&#x202f;" horiz-adv-x="368" />
<glyph unicode="&#x2032;" horiz-adv-x="563" d="M61 125q0 14 113 473q115 463 125 483q31 66 107 66q41 0 79 -27q51 -35 52 -94q0 -10 -5 -31q-2 -14 -180 -456q-176 -442 -180 -447q-4 -4 -10 -4q-12 0 -53 12q-48 15 -48 25z" />
<glyph unicode="&#x205f;" horiz-adv-x="460" />
<glyph unicode="&#x20d7;" horiz-adv-x="1026" d="M61 1266q0 14 27 41h735q-49 78 -49 120q0 41 41 41q29 0 49 -57q23 -72 80 -108q23 -14 23 -37q0 -25 -52 -52q-76 -41 -137 -120q-29 -31 -45 -31q-41 0 -41 41q0 25 47 74q39 41 49 47l-700 2q-27 27 -27 39z" />
<glyph unicode="&#x210f;" horiz-adv-x="1105" d="M86 53q0 20 254 1032q0 10 -76 11l-35 -2q-78 0 -77 57q0 45 45 55q10 4 86 6l90 7v8q0 25 -17 33q-18 8 -84 8q-49 0 -49 22q0 51 27 105q6 8 164 14q143 14 172 14q37 0 37 -22q0 -53 -45 -178q0 -10 159 -11h80q125 0 125 -59q0 -23 -18 -45l-19 -12h-360l-31 -138 q-37 -147 -37 -141q0 -8 23 10q104 76 231 76q98 0 168 -43q94 -57 94 -178q0 -100 -73 -317q-76 -217 -76 -246t28 -29q43 0 82 49q39 39 70 127l18 45h70q39 0 39 -16q0 -63 -78 -178q-98 -143 -223 -144q-145 0 -191 117q-8 16 -8 68q0 45 70 243q70 199 70 289 q0 100 -82 101q-57 0 -123 -33q-100 -45 -154 -160q1 1 1 -1q0 -28 -150 -554q-20 -29 -33 -35q-35 -33 -80 -33q-84 0 -84 78z" />
<glyph unicode="&#x2111;" horiz-adv-x="1478" d="M111 334q0 29 6 35t35 6h67q141 0 203 -27q63 -29 203 -158q143 -133 233 -163q111 25 174 102q57 68 58 150q0 72 -115 170q-117 98 -117 174v16q0 113 96 182q86 61 199 62q100 0 174 -52q82 -53 90 -143q0 -23 -8 -26q-8 -6 -45 -7q-41 0 -41 31q-4 51 -51 84 q-49 35 -115 35h-6q-94 0 -94 -166q0 -74 117 -170t116 -199q-6 -119 -98 -198q-80 -72 -197 -90q-18 -2 -143 -2h-61q-160 0 -353 161q-174 150 -295 158q-25 0 -28 8q-4 4 -4 27zM111 1038q0 168 125 289q125 117 294 117q276 0 545 -336q49 -59 84 -59q164 0 164 77 q0 23 47 23q33 0 39 -4q8 -4 8 -23q0 -68 -74 -108q-74 -41 -188 -41q-186 0 -350 196q-166 197 -277 197q-133 0 -225 -92q-96 -92 -96 -234q0 -158 127 -252q104 -78 223 -77q29 0 29 -37q0 -39 -31 -39q-162 0 -295 106q-149 117 -149 297z" />
<glyph unicode="&#x2113;" horiz-adv-x="854" d="M12 193q0 10 105 108l67 66l2 43q0 274 162 641q174 393 338 393q125 0 125 -141v-19q0 -356 -416 -807l-59 -65l-4 -31q-8 -90 -8 -129q0 -217 100 -217q90 0 260 158q20 20 29 20q8 0 24 -18q16 -20 17 -31q0 -10 -35 -43q-172 -162 -299 -162q-133 0 -191 150 q-18 45 -28 104l-11 51q0 2 -61 -57q-66 -63 -74 -64q-12 0 -28 21q-15 19 -15 29zM365 559q0 -2 1 -1q8 0 85 101q217 268 274 549q10 47 10 90q0 70 -49 70q-59 0 -131 -156q-92 -209 -190 -653z" />
<glyph unicode="&#x2118;" horiz-adv-x="1302" d="M137 -242q0 160 76 373l12 35q-59 76 -59 190q0 193 108 381q111 190 232 191q25 0 24 -17q0 -27 -12 -51q-4 -8 -22 -8q-68 -10 -136 -154q-70 -145 -69 -282q0 -78 14 -78l19 31q117 205 288 331q188 139 381 140q129 0 209 -86q78 -86 78 -232q0 -201 -147 -368 q-150 -174 -336 -174h-13q-70 0 -118 49q-47 47 -52 123q0 121 78 120q51 0 51 -49q0 -43 -47 -67q0 -25 17 -54q29 -49 92 -49q86 0 166 84t127 266q31 123 30 191q0 170 -137 170q-248 0 -465 -246q-170 -190 -170 -252q164 -205 187 -246q23 -51 22 -104q0 -123 -82 -238 q-86 -121 -192 -120q-154 -1 -154 200zM215 -252q0 -113 82 -113q20 0 31 5q111 59 110 210q0 43 -82 148l-34 45q-35 45 -37 45q-6 0 -37 -123q-33 -135 -33 -217z" />
<glyph unicode="&#x211c;" horiz-adv-x="1478" d="M82 195q0 14 35 28v8q0 10 20 29q20 20 29 21q14 0 24 -29q25 8 31 6q31 -16 39 -39q0 -16 -18 -26q-23 -10 -23 -9q0 -23 41 -75q53 -70 127 -78h6q78 0 96 166q10 80 11 487q0 360 -4 426q-12 86 -19 111q-45 147 -137 147q-61 0 -100 -57q-35 -51 -35 -115q0 2 1 2 q10 0 134 -203q57 -82 57 -174v-24q-10 -299 -164 -299q-66 0 -98 69q-23 45 -22 92q0 29 41 29t41 -29q0 -86 36 -86q66 0 70 195v33q0 90 -94 196q-92 109 -92 174v17q0 102 57 174q66 80 174 80q162 0 268 -185q184 184 473 207l54 2q27 0 30 -4q4 -2 150 -276 q143 -272 143 -277q0 -6 -4 -10q-92 -92 -336 -174l15 -238q10 -203 10 -225q0 -12 -2 -26t-2 -29q0 -78 65 -156l17 -14l65 67q70 70 82 70q29 0 64 -35q4 -10 0 -18q0 -2 -88 -82q-88 -78 -95 -82q-2 -2 -30 -2q-162 0 -234 100q-47 66 -47 152q0 18 2 31q2 12 2 26 q0 346 -22 414v14h-224v-119q-2 -174 -20 -251q-35 -190 -135 -297q-70 -70 -152 -70q-176 0 -248 197q-2 4 -10 0q-14 -6 -39 16q-16 19 -16 27zM664 1151q37 -141 38 -277v-88l332 2q66 23 162 76l51 27q2 0 -121 235q-129 233 -127 234l-24 -4q-262 -60 -311 -205z" />
<glyph unicode="&#x2135;" horiz-adv-x="1251" d="M111 41q0 23 6 29q4 6 37 6q131 8 131 67q0 53 -58 160q-59 106 -59 180q0 129 80 297q72 154 76 146q-213 213 -213 329q0 88 26 136q16 31 35 30q18 0 18 -26q8 -100 82 -191q25 -33 570 -620l41 245q27 162 30 213v21l-18 14q-102 92 -102 187q0 82 26 127 q18 31 35 30q14 0 18 -20q23 -98 125 -201q2 -4 33 -29l68 -65q37 -49 37 -109q0 -145 -56 -159q-23 0 -26 30q-6 51 -25 80q-23 37 -27 37q-74 -444 -73 -481q0 -12 104 -127q102 -115 103 -215q0 -96 -35 -144q-14 -16 -29 -16q-16 0 -16 25q-8 100 -82 190 q-358 410 -576 627q-61 -184 -61 -352q0 -33 2 -41q10 -43 98 -146q78 -92 78 -162q0 -121 -158 -141q-10 -2 -123 -2h-73q-37 0 -45 6q-4 6 -4 35z" />
<glyph unicode="&#x2190;" horiz-adv-x="2048" d="M113 506q0 23 37 35q219 86 329 290q55 102 68 187q8 29 43 29q41 0 41 -23q0 -14 -10 -51q-47 -184 -283 -420h1565q31 -18 30 -41q0 -23 -30 -41h-1565l49 -41q43 -37 78 -78q111 -127 156 -301q10 -37 10 -51q0 -23 -41 -23q-25 0 -33 9q-10 12 -18 57 q-78 317 -389 440q-31 13 -37 23z" />
<glyph unicode="&#x2191;" d="M35 887q0 29 6 35q4 4 33 12q188 47 295 190q96 119 118 265q4 33 27 32q16 0 21 -20q0 -127 120 -277q88 -109 213 -161q35 -16 78 -29q33 -8 35 -10q8 -8 8 -37q0 -41 -22 -41q-10 0 -29 6q-238 66 -371 264l-14 21v-1504q-16 -29 -37 -28h-8q-25 0 -37 28v1504 l-14 -21q-90 -135 -240 -213q-106 -55 -162 -55q-20 0 -20 39z" />
<glyph unicode="&#x2192;" horiz-adv-x="2048" d="M113 512q0 27 28 41h1567q-238 178 -293 457l-2 12q0 25 35 25h6q35 0 41 -19q-2 2 6 -35l19 -59q98 -301 393 -399q18 -6 18 -23q0 4 -137 -78q-250 -156 -297 -426q-6 -31 -43 -31q-41 0 -41 23q0 14 10 51q66 258 285 420h-1567q-28 14 -28 41z" />
<glyph unicode="&#x2193;" d="M35 137q0 41 22 41q10 0 29 -6q238 -66 371 -264l14 -21v1100l-2 223q0 145 6 179q2 25 23 30q2 2 16 2q27 -4 39 -30v-1504l14 21q88 133 240 213q106 55 162 55q20 0 20 -39q0 -29 -6 -35q-4 -4 -33 -12q-125 -31 -229 -123q-141 -123 -180 -311l-6 -33q-4 -20 -21 -20 q-18 0 -41 88q-31 117 -104 209q-70 94 -203 155q-43 20 -86 35q-39 12 -37 10q-8 8 -8 37z" />
<glyph unicode="&#x2194;" horiz-adv-x="2048" d="M113 506q0 23 37 35q311 123 389 440q8 45 16 57q8 8 35 9q41 0 41 -23q0 -14 -10 -51q-47 -184 -283 -420h1372q-217 162 -285 420q-10 37 -10 51q0 23 41 23q35 0 41 -19q-2 2 6 -35l19 -59q98 -301 393 -399q18 -6 18 -23q0 4 -137 -78q-250 -156 -297 -426 q-6 -31 -43 -31q-41 0 -41 23q0 14 10 51q66 258 285 420h-1372l49 -41q43 -37 78 -78q111 -127 156 -301q10 -37 10 -51q0 -23 -41 -23q-25 0 -33 9q-10 12 -18 57q-78 317 -389 440q-31 13 -37 23z" />
<glyph unicode="&#x2195;" d="M35 -23q0 41 22 41q10 0 29 -6q238 -66 371 -264l14 -20v1568l-14 -20q-90 -135 -240 -213q-106 -55 -162 -55q-20 0 -20 39q0 29 6 34q4 4 33 13q188 47 295 190q82 100 108 215q18 82 35 82q18 0 23 -20q0 -125 118 -275q94 -113 217 -166q33 -14 76 -26q33 -8 35 -11 q8 -8 8 -36q0 -41 -22 -41q-10 0 -29 6q-238 66 -371 264l-14 20v-1568l14 20q88 133 240 213q106 55 162 55q20 0 20 -39q0 -29 -6 -34q-4 -4 -33 -13q-217 -55 -336 -249q-80 -133 -79 -218q-4 -20 -23 -20q-16 0 -35 82q-29 115 -108 215q-70 94 -203 156q-43 20 -86 34 q-39 12 -37 11q-8 7 -8 36z" />
<glyph unicode="&#x2196;" horiz-adv-x="2048" d="M59 727q0 -2 1 -2q6 0 59 111q57 123 57 280q0 106 -31 199q-33 92 -32 84q0 20 20 20q16 0 35 -10q111 -53 250 -53q152 0 278 59q112 53 113 59q0 1 -2 1q8 0 27 -19q20 -20 20 -29q0 -33 -129 -88q-147 -63 -291 -63q-74 0 -121 10q-6 0 805 -811q811 -809 813 -819 q2 -4 2 -12q0 -43 -41 -43q-4 0 -16 4q-8 4 -817 813l-811 807q10 -18 10 -117q0 -211 -115 -393q-23 -35 -37 -35q-8 0 -28 20q-19 19 -19 27z" />
<glyph unicode="&#x2197;" horiz-adv-x="2048" d="M113 -356q0 8 2 12q4 10 813 819q811 811 807 811q-47 -10 -123 -10q-201 0 -385 115q-35 23 -35 36q0 8 20 29q18 18 27 19q-2 0 -2 -1q0 -6 113 -59q127 -59 278 -59q100 0 199 33q87 29 87 32h-1q16 0 20 -18l-30 -88q-33 -90 -33 -199q0 -158 59 -280 q51 -110 57 -111q1 0 1 2q0 -8 -19 -27q-20 -20 -29 -20q-14 0 -36 35q-113 178 -113 393q0 100 8 117l-811 -807q-809 -809 -817 -813q-12 -4 -16 -4q-41 0 -41 43z" />
<glyph unicode="&#x2198;" horiz-adv-x="2048" d="M113 1382q0 41 41 41q4 0 16 -4q8 -4 817 -813q811 -807 811 -805q-8 8 -8 115q0 215 113 393q23 35 36 35q8 0 29 -20q18 -18 19 -27q0 2 -1 2q-6 0 -57 -111q-59 -125 -59 -280q0 -106 33 -199l30 -88q-4 -18 -20 -18q8 0 -86 32q-94 33 -199 33q-150 0 -278 -59 q-35 -16 -76 -41q-31 -18 -35 -19q-8 0 -27 19q-20 20 -20 29q0 33 133 90q150 61 287 61q76 0 123 -10q4 0 -807 811q-809 811 -813 819q-2 4 -2 14z" />
<glyph unicode="&#x2199;" horiz-adv-x="2048" d="M59 297q0 8 19 27q20 20 28 20q14 0 37 -35q115 -182 115 -393q0 -104 -10 -115q0 -2 811 805q803 807 817 813q12 4 16 4q41 0 41 -43q0 -8 -2 -12q-2 -8 -813 -819t-805 -811q47 10 121 10q201 0 385 -115q35 -23 35 -36q0 -8 -20 -29q-18 -18 -27 -19q2 0 2 1 q0 6 -113 59q-127 59 -278 59q-150 0 -281 -65q-25 -4 -24 22q0 -6 32 84q31 90 31 199q0 156 -57 280q-53 110 -59 111q-1 0 -1 -2z" />
<glyph unicode="&#x21a6;" horiz-adv-x="2048" d="M111 266l2 246q0 350 4 358q8 25 37 25q41 0 41 -90v-252h1515q-238 178 -293 457l-2 12q0 25 35 25h6q35 0 41 -19q-2 2 6 -35l19 -59q98 -301 393 -399q18 -6 18 -23q0 4 -137 -78q-250 -156 -297 -426q-6 -31 -43 -31q-41 0 -41 23q0 14 10 51q66 258 285 420h-1515 v-248q0 -94 -41 -94q-29 0 -35 23q-8 24 -8 114z" />
<glyph unicode="&#x21a9;" horiz-adv-x="2306" d="M113 506q0 23 37 35q219 86 329 290q55 102 68 187q8 29 43 29q41 0 41 -23q0 -14 -10 -51q-47 -184 -283 -420h1558q139 23 183 76q31 37 30 82q0 45 -32 84q-53 63 -174 73h-2q-51 0 -52 41q0 41 54 41q96 0 182 -55q106 -70 106 -184q0 -119 -110 -187 q-84 -53 -178 -53h-1565l49 -41q43 -37 78 -78q111 -127 156 -301q10 -37 10 -51q0 -23 -41 -23q-25 0 -33 9q-10 12 -18 57q-78 317 -389 440q-31 13 -37 23z" />
<glyph unicode="&#x21aa;" horiz-adv-x="2306" d="M113 711q0 125 118 192q84 47 172 47q51 0 52 -41q0 -35 -80 -45q-102 -12 -150 -71q-31 -37 -30 -82q0 -45 32 -84q53 -63 174 -74h1567q-238 178 -293 457l-2 12q0 25 35 25h6q35 0 41 -19q-2 2 6 -35l19 -59q98 -301 393 -399q18 -6 18 -23q0 4 -137 -78 q-250 -156 -297 -426q-6 -31 -43 -31q-41 0 -41 23q0 14 10 51q66 258 285 420h-1567q-96 0 -182 55q-106 70 -106 185z" />
<glyph unicode="&#x21bc;" horiz-adv-x="2048" d="M113 500q0 23 28 43q205 121 326 321q37 57 65 125q25 51 27 53q6 4 31 5q33 0 37 -13q6 -8 -6 -43q-72 -193 -318 -438h1600q31 -18 30 -41q0 -23 -30 -41h-1776q-12 13 -14 29z" />
<glyph unicode="&#x21bd;" horiz-adv-x="2048" d="M113 524q2 16 14 29h1776q31 -18 30 -41q0 -23 -30 -41h-1600q248 -248 318 -438q12 -35 6 -43q-4 -12 -37 -13q-33 0 -43 27q-31 80 -74 150q-121 201 -332 327q-28 20 -28 43z" />
<glyph unicode="&#x21c0;" horiz-adv-x="2048" d="M113 512q0 27 28 41h1602q-145 109 -250 293q-80 137 -80 178q0 23 41 23q33 0 43 -27q31 -80 74 -150q147 -242 338 -331q23 -14 22 -37q0 -16 -14 -31h-1776q-28 14 -28 41z" />
<glyph unicode="&#x21c1;" horiz-adv-x="2048" d="M113 512q0 27 28 41h1776q14 -14 14 -29q0 -27 -22 -37q-285 -174 -408 -473q-14 -37 -47 -37t-37 13q-6 8 6 43q100 274 320 438h-1602q-28 14 -28 41z" />
<glyph unicode="&#x21cc;" horiz-adv-x="2048" d="M113 524q2 16 14 29h1776q31 -18 30 -41q0 -23 -30 -41h-1600q248 -248 318 -438q12 -35 6 -43q-4 -12 -37 -13q-33 0 -43 27q-31 80 -74 150q-121 201 -332 327q-28 20 -28 43zM115 840q0 27 28 41h1602q-145 109 -250 293q-80 137 -80 178q0 23 41 22q33 0 43 -26 q31 -80 74 -150q150 -244 338 -332q23 -14 22 -37q0 -16 -14 -30h-1776q-28 14 -28 41z" />
<glyph unicode="&#x21d0;" horiz-adv-x="2048" d="M115 512q0 18 47 31q86 25 166 63q293 143 444 443q14 27 49 26q37 -2 37 -20q0 -10 -10 -31q-72 -141 -176 -252l-21 -20h1252q31 -16 30 -41q0 -23 -28 -39l-1344 -2l-20 -17q-80 -61 -240 -141q-6 6 78 -39q88 -45 162 -102l20 -17h1344q29 -20 28 -41q0 -25 -30 -41 h-1252l21 -20q104 -111 176 -252q10 -27 10 -35q0 -14 -41 -14q-33 0 -45 24q-205 401 -625 510q-32 11 -32 27z" />
<glyph unicode="&#x21d1;" horiz-adv-x="1251" d="M63 690v27q0 33 31 49q385 178 504 620q6 23 12 31q8 4 15 4q16 0 26 -35q119 -442 504 -620q31 -16 31 -49v-27q-14 -14 -19 -14q-12 0 -39 16q-131 66 -237 166l-25 23l-2 -1252q-27 -27 -43 -26q-20 0 -39 35v1335l-18 24q-86 111 -139 236q-80 -158 -138 -234 l-18 -24l-2 -1342q-23 -31 -41 -30q-25 0 -39 26l-2 1252l-25 -23q-111 -102 -239 -166q-27 -16 -39 -16q-5 0 -19 14z" />
<glyph unicode="&#x21d2;" horiz-adv-x="2048" d="M113 313q0 31 32 41h1338l20 17q80 61 240 141q6 -6 -78 39q-88 45 -162 102l-20 17h-1338q-33 10 -32 41q0 27 28 41h1252l-21 20q-186 199 -186 281q0 23 33 22q37 0 53 -26q201 -401 624 -510q35 -10 35 -27q0 2 -3 2q-22 0 -210 -96q-295 -143 -446 -443 q-12 -25 -45 -24q-41 0 -41 14q0 8 10 35q72 141 176 252l21 20h-1252q-28 14 -28 41z" />
<glyph unicode="&#x21d3;" horiz-adv-x="1251" d="M63 307v27q14 14 19 14q12 0 39 -16q129 -63 239 -166l25 -23l2 1252q20 27 39 26q23 0 41 -28l2 -1342l18 -26q84 -111 138 -234q80 162 139 236l18 24v1338q10 29 39 32q23 0 43 -26l2 -1252l25 23q106 100 237 166q27 16 39 16q4 0 19 -14v-27q0 -33 -31 -49 q-387 -193 -504 -620q-10 -35 -26 -35t-43 86q-39 127 -121 248q-137 207 -367 321q-31 16 -31 49z" />
<glyph unicode="&#x21d4;" horiz-adv-x="2048" d="M70 512q0 16 22 27q57 20 107 49q283 156 413 454q12 27 19 31q20 4 31 4q35 0 34 -24q0 -14 -8 -31q-45 -106 -110 -199q-55 -78 -56 -69q0 -2 502 -2q500 0 500 2q0 -8 -56 69q-66 92 -110 199q-10 25 -10 33q0 20 45 20q29 -2 43 -37q133 -303 411 -450 q37 -20 103 -49q29 -12 28 -27q0 -14 -22 -25q-57 -20 -109 -51q-285 -156 -411 -450q-14 -35 -43 -37q-45 0 -45 20q0 8 10 33q45 106 110 199q55 78 56 69q0 2 -500 2q-502 0 -502 -2q0 8 56 -69q66 -92 110 -199q10 -25 10 -33q0 -20 -45 -20q-29 2 -43 37 q-133 303 -411 450q-49 29 -107 51q-22 9 -22 25zM225 512l21 -12q109 -66 178 -129l18 -17h1162l18 17q70 63 178 129l21 12l-21 12q-109 66 -178 129l-18 17h-1162q-68 -68 -196 -146z" />
<glyph unicode="&#x21d5;" horiz-adv-x="1251" d="M76 6v27q0 41 18 41q12 0 43 -13q63 -27 260 -163v1228q-195 -135 -260 -163q-31 -12 -43 -13q-18 0 -18 41v27q-2 -2 -1 -2q7 0 136 74q137 78 246 206q102 121 149 250q18 35 31 35q14 0 49 -76q47 -109 131 -209q109 -129 246 -206q129 -73 136 -74q1 0 -1 2v-27 q0 -41 -18 -41q-12 0 -41 13q-133 55 -260 163l-2 -921l2 -307q127 109 260 163q31 12 41 13q18 0 18 -41v-27q1 1 0 1q-6 0 -125 -66q-129 -74 -256 -211q-86 -106 -133 -215q-33 -72 -47 -72t-45 72q-47 109 -135 215q-133 145 -258 213q-131 71 -123 63zM479 -182l17 -19 q37 -39 141 -198q133 190 141 198l17 19v1388l-17 19q-37 39 -141 198q-133 -190 -141 -198l-17 -19v-1388z" />
<glyph unicode="&#x2200;" horiz-adv-x="1138" d="M0 1378q0 43 41 43q25 0 39 -35q12 -23 88 -225l90 -237h623l182 479q10 18 39 18q37 -4 37 -41q0 -8 -267 -706q-266 -698 -272 -705q-10 -14 -31 -14q-20 0 -30 14q-6 8 -273 705q-264 694 -266 704zM291 840l278 -727l279 727q0 2 -279 2q-278 0 -278 -2z" />
<glyph unicode="&#x2202;" horiz-adv-x="1087" d="M86 303v23q0 240 178 434q178 193 395 192q221 0 273 -200l6 22q41 170 41 281q0 180 -96 266q-74 63 -178 63q-160 0 -248 -131q84 -12 84 -82q0 -51 -37 -90q-39 -41 -90 -41q-90 0 -90 80q0 66 57 160q84 135 235 174l66 10h25q68 0 79 -2q190 -35 289 -196 q84 -139 84 -330q0 -195 -92 -436q-100 -260 -244 -391q-166 -154 -366 -154q-205 0 -307 160q-64 96 -64 188zM270 238q0 -195 205 -195q25 0 37 2q158 27 254 184q115 195 115 398q0 135 -70 200q-51 49 -129 50q-129 0 -227 -95q-88 -96 -148 -329q-37 -147 -37 -215z " />
<glyph unicode="&#x2203;" horiz-adv-x="1138" d="M113 41q0 27 28 41h799v588h-770q-29 14 -29 41t29 41h770v587h-799q-29 14 -28 41q0 27 28 41h854q20 -16 27 -30v-1360q-6 -10 -27 -29l-854 -2q-28 14 -28 41z" />
<glyph unicode="&#x2205;" d="M80 705q0 516 201 677q102 84 233 84q59 0 164 -41q10 29 20 68t15 49q12 39 39 39q43 0 43 -37q0 -16 -23 -86l-22 -80l24 -24q168 -176 168 -649q0 -471 -178 -650q-111 -100 -252 -100q-72 0 -143 31q-25 8 -25 6l-18 -60q-27 -92 -56 -92q-43 0 -43 37q0 16 23 86 l22 80l-16 16q-176 169 -176 646zM248 729q0 -442 61 -565l342 1175q0 4 -49 31l-37 14q-25 6 -61 7q-102 0 -178 -99q-78 -106 -78 -563zM371 86q53 -53 141 -53q84 0 152 63q61 63 84 166q27 135 26 467q0 430 -59 533z" />
<glyph unicode="&#x2207;" horiz-adv-x="1705" d="M94 1384q0 6 10 15h1495q10 -8 11 -15q0 -4 -346 -716q-348 -713 -355 -721q-10 -14 -57 -15q-47 0 -57 15q-6 8 -353 721q-348 712 -348 716zM395 1221l258 -533q256 -524 258 -524l516 1057q0 2 -516 2t-516 -2z" />
<glyph unicode="&#x2208;" horiz-adv-x="1366" d="M172 512q0 250 178 418q160 152 387 174l74 2h352q31 -14 31 -41q0 -18 -27 -39l-213 -2q-227 -2 -280 -12q-227 -57 -342 -232q-78 -119 -78 -223v-4h909q31 -16 31 -41t-31 -41h-909v-4q0 -111 90 -238q119 -172 328 -215q55 -12 282 -14h213q27 -20 27 -41 q0 -25 -31 -41h-250l-59 -2q-317 0 -502 176q-180 168 -180 420z" />
<glyph unicode="&#x2209;" horiz-adv-x="1366" d="M172 -403q0 14 10 28l219 426q-229 172 -229 461q0 250 178 418q160 152 387 174l205 2l178 342q6 18 33 18q41 0 41 -41q0 -6 -160 -319h129q31 -14 31 -41q0 -18 -27 -39l-176 -2l-241 -471h413q31 -16 31 -41t-31 -41h-454l-203 -393q76 -45 166 -64q55 -12 282 -14 h213q27 -20 27 -41q0 -25 -31 -41h-248l-57 -2q-236 0 -391 90q-227 -438 -231 -440q-8 -6 -23 -6q-41 0 -41 37zM254 467q0 -188 184 -342l178 346h-362v-4zM254 553h403l244 471q-178 -2 -227 -12q-227 -57 -342 -232q-78 -119 -78 -223v-4z" />
<glyph unicode="&#x220b;" horiz-adv-x="1366" d="M170 -41q0 20 27 41h213q227 2 280 12q66 16 131 45q43 23 90 56q199 154 199 354v4h-909q-29 14 -29 41t29 41h909v4q0 201 -199 354q-47 33 -90 56q-127 55 -411 57l-213 2q-27 20 -27 39q0 27 31 41l309 2q317 0 502 -176q180 -166 180 -420q0 -258 -186 -426 q-164 -147 -383 -166q-14 -2 -224 -2h-198q-31 16 -31 41z" />
<glyph unicode="&#x2212;" horiz-adv-x="1593" d="M170 512q0 27 29 41h1190q31 -16 30 -41q0 -25 -30 -41h-1190q-29 14 -29 41z" />
<glyph unicode="&#x2213;" horiz-adv-x="1593" d="M113 342q0 27 28 41h613v559h-613q-29 14 -28 41q0 27 28 41h1305q31 -16 31 -41t-31 -41h-610v-559h610q31 -16 31 -41t-31 -41h-610v-491q0 -104 -7 -127q-6 -23 -34 -23q-27 0 -35 23t-8 102l2 90v426h-613q-28 14 -28 41z" />
<glyph unicode="&#x2215;" d="M115 -473q0 20 358 1003q354 977 361 986q8 20 32 20q47 0 43 -41q0 -10 -356 -989q-354 -977 -365 -998q-14 -20 -34 -20q-39 0 -39 39z" />
<glyph unicode="&#x2216;" d="M115 1497q0 39 39 39q20 0 34 -20q8 -14 365 -992q356 -983 356 -997q0 -39 -41 -39q-20 0 -34 20q-6 8 -361 986q-358 983 -358 1003z" />
<glyph unicode="&#x2217;" d="M131 330q0 37 49 61q14 8 90 43l160 78l-278 133q-18 18 -19 47q0 74 68 74q25 0 149 -94l119 -86q-27 274 -27 307q0 37 50 57l22 2q66 -4 66 -59q0 -35 -13 -166q-14 -129 -14 -141l119 86q115 84 125 90t20 6q74 0 74 -76q0 -27 -21 -47q-141 -94 -278 -133l135 -63 l143 -72q18 -18 19 -47q0 -74 -68 -74q-25 0 -149 94l-119 86q27 -274 27 -307q0 -57 -68 -57q-70 0 -70 57q0 35 15 166q12 129 12 141l-119 -86q-115 -84 -125 -90q-8 -6 -20 -6q-74 0 -74 76z" />
<glyph unicode="&#x2218;" d="M113 514q0 158 114 274q119 121 283 121t281 -114q119 -117 118 -285q0 -160 -114 -279q-117 -119 -283 -118q-164 0 -283 116q-116 119 -116 285zM197 512q0 -137 94 -227q92 -88 221 -88q172 0 256 131q57 76 57 184q0 129 -84 219q-92 94 -239 94q-117 0 -207 -82 q-98 -92 -98 -231z" />
<glyph unicode="&#x2219;" d="M113 514q0 158 114 274q119 121 283 121t281 -114q119 -117 118 -285q0 -160 -114 -279q-117 -119 -283 -118q-164 0 -283 116q-116 119 -116 285z" />
<glyph unicode="&#x221a;" horiz-adv-x="1705" d="M147 410q0 14 132 112l145 111q4 4 10 4h2q16 0 203 -416l174 -379q4 0 424 875l430 893q12 29 41 28q33 0 39 -36v-13l-959 -1984q-8 -14 -38 -15q-18 0 -25 7q-4 4 -201 434l-196 430l-133 -96q-12 0 -29 16q-19 19 -19 29z" />
<glyph unicode="&#x221d;" horiz-adv-x="1593" d="M115 442q0 188 102 322q109 141 270 141q244 0 459 -321l15 24q176 297 430 297q16 0 88 -10v-80h-9q-16 4 -49 4q-170 0 -305 -166q-102 -127 -102 -172q0 -27 121 -188q145 -203 290 -203q43 0 48 4h6v-104q-55 -12 -90 -13q-250 0 -459 322l-15 -25 q-174 -297 -434 -297q-160 0 -266 142q-100 135 -100 323zM190 436q0 -143 64 -250q72 -123 197 -123q174 0 311 166q100 125 100 172q0 27 -121 189q-143 203 -305 203q-102 0 -174 -103q-72 -104 -72 -254z" />
<glyph unicode="&#x221e;" horiz-adv-x="2048" d="M113 444q0 180 112 318q117 143 295 143q180 0 338 -125q78 -63 152 -159l28 -39l15 20q213 303 477 303q176 0 293 -143q111 -135 110 -324q0 -176 -106 -311q-119 -150 -305 -150q-176 0 -334 125q-78 63 -152 160l-28 39l-15 -20q-213 -303 -477 -304q-176 0 -293 144 q-110 135 -110 323zM188 438q0 -141 76 -250q86 -121 225 -120q242 0 445 327l-64 82q-117 152 -172 201q-109 100 -221 100q-127 0 -209 -102q-80 -99 -80 -238zM1112 487l64 -81q125 -162 188 -216q98 -86 203 -86q127 0 211 103q80 100 80 237q0 139 -74 246 q-84 123 -225 123q-230 0 -447 -326z" />
<glyph unicode="&#x2220;" horiz-adv-x="1478" d="M113 41q0 4 4 16q20 31 592 682q594 682 616 682q39 0 39 -41q0 -12 -6 -22q23 23 -559 -641l-553 -633l1091 -2q27 -20 27 -41q0 -25 -31 -41h-1188q-32 33 -32 41z" />
<glyph unicode="&#x2223;" horiz-adv-x="569" d="M244 -481l2 1990q20 27 39 27q27 0 41 -31v-1986q-16 -29 -37 -29h-8q-25 0 -37 29z" />
<glyph unicode="&#x2225;" d="M270 512q0 985 2 995q10 29 41 29q23 0 35 -23q4 -8 4 -1001t-4 -1001q-12 -23 -37 -23q-16 0 -28 12q-13 15 -13 1012zM670 512q0 993 4 1001q12 23 35 23q14 0 30 -12q12 -14 13 -1012q0 -997 -13 -1012q-12 -12 -28 -12q-25 0 -37 23q-4 8 -4 1001z" />
<glyph unicode="&#x2227;" horiz-adv-x="1366" d="M113 -8q0 18 268 618q266 596 270 600q14 14 31 15q23 0 31 -15q4 -4 270 -600q268 -600 268 -618q-4 -37 -41 -37q-23 0 -43 37l-485 1089l-485 -1089q-20 -37 -43 -37q-37 0 -41 37z" />
<glyph unicode="&#x2228;" horiz-adv-x="1366" d="M113 1188q4 37 41 37q23 0 43 -37l485 -1090l485 1090q20 37 43 37q37 0 41 -37q0 -18 -268 -619q-266 -596 -270 -600q-10 -14 -31 -14q-20 0 -31 14q-4 4 -270 600q-268 601 -268 619z" />
<glyph unicode="&#x2229;" horiz-adv-x="1366" d="M113 -14v424q2 434 12 473q33 141 182 239q158 102 373 103q227 0 387 -111q164 -111 182 -285q2 -12 2 -432v-411q-14 -31 -41 -31q-18 0 -39 27l-4 847q-25 102 -84 164q-139 150 -399 150q-170 0 -305 -76q-162 -90 -182 -246q-2 -10 -2 -426v-409q-14 -29 -41 -29 t-41 29z" />
<glyph unicode="&#x222a;" horiz-adv-x="1366" d="M113 786l2 412q20 27 39 27q20 0 41 -27l2 -846l4 -20q29 -137 176 -219q135 -76 303 -76q170 0 305 76q162 90 182 245q2 10 2 426v410q16 31 41 31h2q25 0 39 -31v-424q-2 -434 -12 -473q-39 -158 -207 -254q-156 -88 -350 -88q-209 0 -371 102q-178 111 -196 297 q-2 14 -2 432z" />
<glyph unicode="&#x222b;" horiz-adv-x="854" d="M113 -231q0 45 30 73q29 27 68 27q41 0 70 -29t28 -69q0 -78 -92 -101q0 -8 16 -20q18 -16 41 -17q43 0 74 68q29 68 55 319q39 393 72 615q49 332 92 526q63 305 236 305q86 0 131 -84q33 -59 33 -127q0 -100 -99 -100q-41 0 -69 29q-29 29 -29 69q0 78 92 101 q0 8 -16 20q-20 16 -41 17q-12 0 -27 -9q-63 -31 -110 -485q-49 -508 -150 -1014q-37 -184 -106 -264q-55 -55 -129 -61q-92 0 -140 86q-30 59 -30 125z" />
<glyph unicode="&#x223c;" horiz-adv-x="1593" d="M113 340q0 154 90 276q98 135 252 136q143 0 348 -183q205 -182 332 -182t211 102q76 90 75 203q0 59 29 60q29 0 29 -68q0 -152 -90 -274q-96 -135 -238 -136h-16q-141 0 -349 183q-205 180 -329 180q-90 0 -160 -51q-100 -80 -123 -209l-10 -76q-6 -29 -23 -29 q-28 0 -28 68z" />
<glyph unicode="&#x2240;" horiz-adv-x="569" d="M113 184q0 125 114 332q113 209 113 326q0 104 -43 190q-49 100 -127 105q-57 2 -57 28q0 29 57 29q152 0 227 -129q57 -96 58 -223q0 -125 -113 -332q-115 -209 -115 -328q0 -104 43 -192q51 -98 129 -103q55 -4 56 -28q0 -29 -68 -29q-121 0 -199 104q-75 100 -75 250z " />
<glyph unicode="&#x2243;" horiz-adv-x="1593" d="M113 580q0 150 98 260q100 109 233 108q150 0 365 -166q203 -154 326 -153h8q113 0 194 78q78 76 84 180q0 63 29 63t29 -65q0 -156 -103 -267q-98 -104 -221 -104h-20q-135 0 -344 160q-207 160 -334 160h-8q-113 0 -199 -82q-63 -70 -76 -148q-12 -80 -18 -86t-15 -6 q-28 0 -28 68zM115 115q0 31 32 41h1299q33 -12 33 -41q0 -25 -31 -41h-1305q-28 14 -28 41z" />
<glyph unicode="&#x2245;" horiz-adv-x="2048" d="M113 795q0 154 90 276q98 135 252 135q143 0 348 -182t332 -182t211 102q76 90 75 203q0 59 29 59t29 -67q0 -152 -90 -275q-96 -135 -238 -135h-16q-141 0 -349 182q-205 180 -329 181q-90 0 -160 -52q-100 -80 -123 -209l-10 -75q-6 -29 -23 -29q-28 0 -28 68zM115 86 q0 31 32 41h1303q29 -20 29 -41q0 -25 -31 -41h-1305q-28 14 -28 41zM115 483q0 27 28 41h1305q31 -16 31 -41q0 -23 -29 -39l-1303 -2q-32 10 -32 41z" />
<glyph unicode="&#x2248;" horiz-adv-x="1593" d="M113 174q0 158 120 256q94 78 187 78l37 2q123 0 348 -143l102 -66q121 -72 226 -72q115 0 194 60q84 61 94 162q0 59 29 59t29 -66q0 -131 -95 -229q-100 -102 -247 -102q-129 0 -344 141q-215 139 -334 139q-123 0 -207 -69q-78 -66 -82 -152q-6 -59 -29 -59 q-28 0 -28 61zM113 653q0 158 120 256q94 78 187 78l37 2q123 0 348 -143l102 -66q121 -72 226 -71q115 0 194 59q84 61 94 162q0 59 29 59t29 -63q0 -135 -95 -232q-98 -102 -247 -102q-129 0 -344 141q-215 139 -334 139q-123 0 -207 -69q-78 -66 -82 -152q-4 -59 -29 -59 q-28 0 -28 61z" />
<glyph unicode="&#x224d;" horiz-adv-x="1593" d="M113 74q0 6 4 18q39 57 219 156q233 127 444 127q412 0 695 -283q4 -12 4 -18q0 -41 -39 -41q1 0 1 1q0 9 -202 130q-219 131 -442 131q-217 0 -437 -125q-66 -39 -133 -90q-57 -43 -59 -43q-12 -4 -16 -4q-39 0 -39 41zM113 950q0 41 39 41h-2q0 -8 204 -131 q221 -131 443 -131q215 0 434 127q66 37 133 88q57 43 59 43q12 4 17 4q39 0 39 -41q0 -18 -31 -45q-322 -258 -651 -258q-236 0 -475 135q-180 102 -205 152q-4 12 -4 16z" />
<glyph unicode="&#x2250;" horiz-adv-x="1593" d="M113 313q0 31 32 41h1303q29 -20 29 -41q0 -25 -31 -41h-1305q-28 14 -28 41zM113 711q0 27 28 41h1305q31 -16 31 -41q0 -23 -29 -39l-1303 -2q-32 10 -32 41zM672 1249q0 49 35 84q35 39 88 39q49 0 86 -33q39 -35 39 -88q0 -51 -37 -88q-35 -37 -86 -37t-88 37 q-37 35 -37 86z" />
<glyph unicode="&#x2260;" horiz-adv-x="1593" d="M113 313q0 31 32 41h523l161 316h-684q-33 10 -32 41q0 27 28 41h729q350 686 361 696q6 18 33 18q41 0 41 -41q0 -8 -342 -673h483q31 -16 31 -41q0 -23 -29 -39l-526 -2l-164 -316h690q29 -20 29 -41q0 -25 -31 -41h-729q-360 -702 -371 -706q-8 -6 -22 -6 q-41 0 -41 37q0 14 10 28l332 647h-484q-28 14 -28 41z" />
<glyph unicode="&#x2261;" horiz-adv-x="1593" d="M113 115q0 31 32 41h1299q33 -12 33 -41q0 -25 -31 -41h-1305q-28 14 -28 41zM113 512q0 27 28 41h1305q31 -16 31 -41t-31 -41h-1305q-28 14 -28 41zM113 909q0 27 28 41h1305q31 -16 31 -41q0 -29 -33 -41h-1299q-32 10 -32 41z" />
<glyph unicode="&#x2264;" horiz-adv-x="1593" d="M170 713q2 23 27 35q698 317 1165 550q8 4 18 5q41 0 41 -43q0 -16 -14 -29q-2 -2 -553 -264l-545 -258l508 -242q590 -279 598 -289q6 -12 6 -22q0 -37 -37 -41h-12l-590 278q-594 281 -598 285q-14 10 -14 35zM172 -242q0 20 31 41h1186q33 -12 32 -41q0 -25 -30 -41 h-1190q-29 14 -29 41z" />
<glyph unicode="&#x2265;" horiz-adv-x="1593" d="M168 156q0 23 59 53q27 14 545 258l508 242l-872 413q-133 61 -168 80q-72 35 -72 60q0 41 33 41q23 0 614 -281q584 -276 590 -283q14 -10 14 -30t-14 -31q-4 -4 -598 -285l-590 -278h-12q-37 4 -37 41zM170 -242q0 20 31 41h1185q33 -12 33 -41q0 -25 -30 -41h-1190 q-29 14 -29 41z" />
<glyph unicode="&#x226a;" horiz-adv-x="2048" d="M115 512q0 14 6 23q6 10 569 319q559 303 570 307q4 0 8 2q6 -2 12 -2q29 -10 29 -39q0 -16 -13 -28q-2 -4 -530 -293l-526 -289l526 -289q528 -289 530 -293q12 -12 13 -28q0 -39 -41 -39h-2q-8 0 -592 317q-549 301 -553 309q-6 9 -6 23zM739 512q0 14 6 23 q6 10 570 319q559 303 569 307q4 0 8 2q6 -2 13 -2q29 -10 28 -39q0 -16 -12 -28q-2 -4 -530 -293l-527 -289l527 -289q528 -289 530 -293q12 -12 12 -28q0 -39 -41 -39h-2q-8 0 -592 317q-549 301 -553 309q-6 9 -6 23z" />
<glyph unicode="&#x226b;" horiz-adv-x="2048" d="M125 -96q0 16 12 28h-1q-2 0 532 291q524 288 524 291q0 77 -58.5 150.5t-150 129.5t-206.5 106t-223 83.5t-206 59.5t-150 37t-59 12q-14 12 -14 28q0 41 39 41q12 0 596 -317q549 -301 555 -309q6 -12 6 -23q0 -20 -66 -59q-16 -10 -495 -273q-586 -317 -598 -317 q-37 0 -37 41zM750 -96q0 16 12 28h-1q-2 0 531 291q524 288 525 291q0 77 -58.5 150.5t-151 129.5t-205.5 105.5t-224 84t-205.5 59.5t-150.5 37t-58 12q-14 12 -14 28q0 41 38 41q12 0 596 -317q549 -301 555 -309q6 -12 7 -23q0 -20 -66 -59q-16 -10 -496 -273 q-586 -317 -598 -317q-36 0 -36 41z" />
<glyph unicode="&#x227a;" horiz-adv-x="1593" d="M172 510q0 43 68 43l41 -2q991 18 1056 498q8 55 47 55q38 -5 38 -39q0 -125 -71 -232.5t-188 -179.5q-139 -84 -399 -143q207 -51 328 -102q303 -154 329 -443q0 -49 -41 -49q-33 0 -43 49q-35 279 -356 402q-248 94 -700 102h-48q-61 0 -61 41z" />
<glyph unicode="&#x227b;" horiz-adv-x="1593" d="M170 -35q27 258 258 402q139 84 399 143q-219 55 -325 102q-246 121 -314 346q-16 70 -16 101q0 45 37 45q35 0 49 -76q18 -111 92 -201q217 -264 961 -276h43q68 0 67 -41q0 -41 -67 -41h-43q-481 -10 -733 -117q-291 -123 -324 -387q-12 -49 -43 -49q-41 0 -41 49z" />
<glyph unicode="&#x2282;" horiz-adv-x="1593" d="M172 512q0 250 178 418q160 152 387 174l107 2h547q31 -14 30 -41q0 -18 -26 -39l-492 -2q-233 0 -358 -57q-291 -145 -291 -455v-10q0 -180 125 -320q121 -131 293 -168q49 -12 397 -14h326q27 -20 26 -41q0 -25 -30 -41h-410l-92 -2q-352 0 -537 176q-180 168 -180 420 z" />
<glyph unicode="&#x2283;" horiz-adv-x="1593" d="M170 -41q0 20 27 41h493q227 0 359 57q291 150 290 455q0 186 -127 330q-72 78 -163 125q-129 57 -363 57l-489 2q-27 20 -27 39q0 27 31 41l501 2q352 0 537 -176q180 -166 180 -420q0 -258 -186 -426q-164 -147 -383 -166q-16 -2 -336 -2h-313q-31 16 -31 41z" />
<glyph unicode="&#x2286;" horiz-adv-x="1593" d="M172 709q0 250 178 417q160 152 387 174l107 3h547q31 -14 30 -41q0 -18 -26 -39l-492 -2q-233 0 -358 -58q-291 -145 -291 -454v-11q0 -180 125 -319q121 -131 293 -168q49 -12 397 -14h326q27 -20 26 -41q0 -25 -30 -41h-410l-92 -2q-352 0 -537 176q-180 168 -180 420 zM213 -242q0 27 29 41h1149q31 -16 30 -41q0 -25 -30 -41h-1149q-29 14 -29 41z" />
<glyph unicode="&#x2287;" horiz-adv-x="1593" d="M170 156q0 20 27 41h493q227 0 359 57q291 150 290 455q0 186 -127 329q-72 78 -163 125q-129 57 -363 58l-489 2q-27 20 -27 39q0 27 31 41l501 2q352 0 537 -177q180 -166 180 -419q0 -258 -186 -426q-164 -147 -383 -166q-16 -2 -336 -2h-313q-31 16 -31 41zM172 -242 q0 27 29 41h1149q31 -16 30 -41q0 -25 -30 -41h-1149q-29 14 -29 41z" />
<glyph unicode="&#x228e;" horiz-adv-x="1366" d="M113 786l2 412q20 27 39 27q20 0 41 -27l2 -846l4 -20q29 -137 176 -219q135 -76 303 -76q170 0 305 76q162 90 182 245q2 10 2 426v410q16 31 41 31h2q25 0 39 -31v-424q-2 -434 -12 -473q-39 -158 -207 -254q-156 -88 -350 -88q-209 0 -371 102q-178 111 -196 297 q-2 14 -2 432zM276 625q0 41 33 41h332v225l-2 49q0 90 43 90q41 0 41 -86v-278h332q33 0 32 -41q0 -41 -32 -41h-332v-273q0 -92 -41 -92q-43 0 -43 92l2 47v226h-332q-33 0 -33 41z" />
<glyph unicode="&#x2291;" horiz-adv-x="1593" d="M170 -242q0 31 33 41h1224q33 -12 33 -41q0 -25 -30 -41h-1231q-29 14 -29 41zM190 1270q8 25 33 33h1207q31 -16 30 -41q0 -25 -30 -41h-1158v-1024h1155q33 -12 33 -41q0 -25 -30 -41h-1209q-10 6 -28 26z" />
<glyph unicode="&#x2292;" horiz-adv-x="1593" d="M129 156q0 31 33 41h1153v1024h-1157q-29 14 -29 41t29 41h1208q14 -6 31 -27v-1135q-16 -20 -31 -26h-1208q-29 14 -29 41zM129 -242q0 20 31 41h1226q33 -12 33 -41q0 -25 -30 -41h-1231q-29 14 -29 41z" />
<glyph unicode="&#x2293;" horiz-adv-x="1366" d="M125 33l2 1165q16 20 29 27h1056q20 -16 27 -31v-1163q-14 -27 -37 -31q-25 0 -45 33v1110h-950v-1112q-14 -27 -37 -31q-25 0 -45 33z" />
<glyph unicode="&#x2294;" horiz-adv-x="1366" d="M125 33l2 1165q20 27 39 27q27 0 41 -31v-1112h950v1112q16 31 41 31q27 0 41 -31v-1163q-6 -10 -27 -29l-1054 -2q-25 8 -33 33z" />
<glyph unicode="&#x2295;" horiz-adv-x="1593" d="M115 512q0 295 211 496q199 186 460 186q299 0 500 -205q193 -197 193 -477q0 -287 -201 -485q-199 -197 -479 -197q-289 0 -488 201q-196 198 -196 481zM197 455q29 -276 249 -430q160 -111 304 -111h6v557h-559v-16zM197 553h559v557h-11q-184 -8 -344 -147 q-184 -156 -204 -394v-16zM838 -86h6q135 0 295 109q227 152 256 432v16h-557v-557zM838 553h557v16q-29 281 -254 432q-158 109 -297 109h-6v-557z" />
<glyph unicode="&#x2296;" horiz-adv-x="1593" d="M115 512q0 295 211 496q199 186 460 186q299 0 500 -205q193 -197 193 -477q0 -287 -201 -485q-199 -197 -479 -197q-289 0 -488 201q-196 198 -196 481zM197 455q25 -236 196 -389q170 -152 402 -152q231 0 401 152q174 154 199 389v16h-1198v-16zM197 553h1198v16 q-25 219 -174 371q-172 170 -441 170q-201 0 -368 -135q-188 -156 -215 -406v-16z" />
<glyph unicode="&#x2297;" horiz-adv-x="1593" d="M115 512q0 295 211 496q199 186 460 186q299 0 500 -205q193 -197 193 -477q0 -287 -201 -485q-199 -197 -479 -197q-289 0 -488 201q-196 198 -196 481zM195 512q0 -231 147 -393l393 393l-393 393q-147 -164 -147 -393zM401 59q145 -145 394 -145q203 0 397 145 l-397 396zM401 965l396 -396l395 396q-190 145 -412 145q-234 0 -379 -145zM856 512l393 -393q147 164 148 393q0 231 -148 393z" />
<glyph unicode="&#x2298;" horiz-adv-x="1593" d="M115 512q0 295 211 496q199 186 460 186q299 0 500 -205q193 -197 193 -477q0 -287 -201 -485q-199 -197 -479 -197q-289 0 -488 201q-196 198 -196 481zM195 514q0 -244 147 -395l850 846q-195 145 -412 145q-223 0 -397 -162q-188 -174 -188 -434zM401 59 q145 -145 394 -145q256 0 430 178q172 174 172 420q0 231 -148 393z" />
<glyph unicode="&#x2299;" horiz-adv-x="1593" d="M115 512q0 295 211 496q199 186 460 186q299 0 500 -205q193 -197 193 -477q0 -287 -201 -485q-199 -197 -479 -197q-289 0 -488 201q-196 198 -196 481zM195 512q0 -242 165 -416q174 -182 437 -182q258 0 432 182q168 174 168 416q0 231 -158 406q-174 193 -459 192 q-223 0 -397 -164q-188 -176 -188 -434zM637 512q0 72 49 117q37 35 82 43l35 2q152 -14 151 -162q0 -68 -43 -113q-45 -47 -114 -47q-72 0 -117 49q-43 45 -43 111z" />
<glyph unicode="&#x22a2;" horiz-adv-x="1251" d="M113 33v1356q20 33 45 32q23 -2 37 -30v-639h911q31 -16 31 -41t-31 -41h-911v-639q-14 -27 -37 -31q-25 0 -45 33z" />
<glyph unicode="&#x22a3;" horiz-adv-x="1251" d="M113 711q0 41 32 41h910v637q20 33 45 32q23 -2 37 -30v-1360q-14 -27 -37 -31q-25 0 -45 33v637h-910q-32 0 -32 41z" />
<glyph unicode="&#x22a4;" horiz-adv-x="1593" d="M113 1327q0 41 32 41h1305q31 -16 31 -41t-31 -41h-612v-1255q-14 -27 -37 -31q-25 0 -45 33v1253h-611q-32 0 -32 41z" />
<glyph unicode="&#x22a5;" horiz-adv-x="1593" d="M113 41q0 41 32 41h611v1253q20 33 45 33q23 -2 37 -31v-1255h612q31 -16 31 -41t-31 -41h-1305q-32 0 -32 41z" />
<glyph unicode="&#x22a8;" horiz-adv-x="1775" d="M244 -481l2 1990q20 27 39 27q27 0 41 -31v-753h1304q31 -16 31 -41q0 -23 -29 -39l-1302 -2l-4 2v-320l4 2h1302q29 -20 29 -41q0 -25 -31 -41h-1304v-753q-16 -29 -37 -29h-8q-25 0 -37 29z" />
<glyph unicode="&#x22c4;" d="M25 512q0 10 4 16q4 10 229 236q225 225 238 231q6 4 16 4q12 0 16 -4q10 -4 238 -231q227 -227 229 -236q4 -8 4 -16t-4 -16q-2 -8 -229 -236q-227 -227 -238 -231q-4 -4 -16 -4q-10 0 -16 4q-10 4 -236 229q-225 225 -231 238q-4 6 -4 16zM125 512l387 -387l387 387 l-387 387z" />
<glyph unicode="&#x22c5;" horiz-adv-x="569" d="M160 512q0 49 35 84q35 39 88 39q49 0 86 -33q39 -35 39 -88q0 -51 -37 -88q-35 -37 -86 -37t-88 37q-37 35 -37 86z" />
<glyph unicode="&#x22c6;" d="M6 618q0 25 19 25h2q6 0 202 -31l201 -34q0 311 64 405q0 8 8 8q8 4 12 4q14 0 21 -26q6 -20 30 -191q29 -193 29 -200l201 34q197 31 202 31h2q18 0 19 -25q0 -10 -191 -104l-182 -92l94 -180q98 -188 95 -185q0 -25 -25 -24l-10 2l-287 291l-287 -291l-10 -2 q-25 0 -25 24q-4 -4 95 185l94 180l-182 92q-191 94 -191 104z" />
<glyph unicode="&#x22c8;" horiz-adv-x="1843" d="M53 23v978q14 33 35 33q16 0 444 -246l388 -227l811 469q12 4 16 4q27 0 41 -30v-984q-14 -31 -39 -30q-6 0 -18 4l-811 469l-388 -227q-428 -246 -444 -246q-21 0 -35 33zM135 512q0 -410 2 -410l357 205q350 203 350 205l-707 410q-2 0 -2 -410zM997 512q0 -2 351 -205 l356 -205q2 0 2 410t-2 410t-354 -205q-353 -203 -353 -205z" />
<glyph unicode="&#x22ee;" horiz-adv-x="569" d="M160 61q0 49 35 84q35 39 88 39q49 0 86 -32q39 -35 39 -89q0 -51 -37 -88q-35 -37 -86 -36q-51 0 -88 36q-37 35 -37 86zM160 901q0 49 35 84q35 39 88 39q49 0 86 -33q39 -35 39 -88q0 -51 -37 -88q-35 -37 -86 -37t-88 37q-37 35 -37 86zM160 1720q0 49 35 84 q35 39 88 39q49 0 86 -33q39 -35 39 -88q0 -51 -37 -88q-35 -37 -86 -37t-88 37q-37 35 -37 86z" />
<glyph unicode="&#x22ef;" horiz-adv-x="2400" d="M160 512q0 49 35 84q35 39 88 39q49 0 86 -33q39 -35 39 -88q0 -51 -37 -88q-35 -37 -86 -37t-88 37q-37 35 -37 86zM1075 512q0 49 35 84q35 39 88 39q49 0 86 -33q39 -35 39 -88q0 -51 -37 -88q-35 -37 -86 -37t-88 37q-37 35 -37 86zM1991 512q0 49 34 84q35 39 89 39 q49 0 86 -33q39 -35 38 -88q0 -51 -36 -88q-35 -37 -86 -37t-88 37q-37 35 -37 86z" />
<glyph unicode="&#x22f1;" horiz-adv-x="2625" d="M272 1556q0 49 35 84q35 39 88 39q49 0 86 -32q39 -35 39 -88q0 -51 -37 -89q-35 -37 -86 -36q-51 0 -88 36q-37 35 -37 86zM1188 942q0 49 35 84q35 39 88 39q49 0 86 -33q39 -35 39 -88q0 -51 -37 -88q-35 -37 -86 -37t-88 37q-37 35 -37 86zM2103 328q0 49 35 84 q35 39 88 39q49 0 86 -33q39 -35 39 -88q0 -51 -37 -88q-35 -37 -86 -37t-88 37q-37 35 -37 86z" />
<glyph unicode="&#x2308;" horiz-adv-x="909" d="M356 -479v1982q8 25 33 33h367q63 0 84 -6q25 -8 24 -35q0 -43 -102 -43l-55 2h-269v-1935q-14 -27 -37 -31q-25 0 -45 33z" />
<glyph unicode="&#x2309;" horiz-adv-x="909" d="M43 1495q0 27 25 35q20 6 86 6h370q20 -16 27 -31v-1986q-14 -27 -37 -31q-25 0 -45 33v1933h-266l-58 -2q-102 0 -102 43z" />
<glyph unicode="&#x230a;" horiz-adv-x="909" d="M356 -479v1982q20 33 45 33q23 -2 37 -31v-1935h326q100 0 100 -41q0 -43 -108 -43l-64 2h-303q-25 8 -33 33z" />
<glyph unicode="&#x230b;" horiz-adv-x="909" d="M43 -471q0 43 104 43l322 -2v1933q20 33 45 33q23 -2 37 -31v-1986q-6 -10 -27 -29l-366 -2q-70 0 -90 6q-25 8 -25 35z" />
<glyph unicode="&#x2322;" horiz-adv-x="2048" d="M113 289q0 82 221 262q287 231 645 244h98q252 -10 490 -142q145 -84 266 -219q100 -111 100 -145q0 -39 -41 -39q-25 6 -45 35q-279 387 -823 387q-389 0 -649 -203q-80 -63 -146 -143q-59 -72 -57 -72q-6 -4 -18 -4q-41 10 -41 39z" />
<glyph unicode="&#x2323;" horiz-adv-x="2048" d="M113 733q0 41 41 41q6 0 18 -4l55 -61q63 -74 142 -129q258 -184 655 -185q262 0 479 88q219 94 346 260q23 31 41 31q43 0 43 -41q0 -53 -174 -203q-305 -256 -735 -256q-434 0 -737 256q-174 158 -174 203z" />
<glyph unicode="&#x23b0;" horiz-adv-x="843" d="M113 -461q0 14 14 21q184 127 219 360q4 29 6 324v205q0 53 2 61q-2 18 -2 260v172q0 193 58 309q88 172 258 267l14 6h41l6 -6v-31q0 -12 -16 -23q-180 -123 -219 -360q-4 -35 -7 -320l2 -702q0 -211 -79 -348q-94 -156 -252 -234h-29q-16 0 -16 27v12z" />
<glyph unicode="&#x23b1;" horiz-adv-x="843" d="M115 1481v16q0 27 20 27h25q330 -168 329 -516v-416l-2 -74q2 -4 2 -61v-357q0 -180 31 -274q35 -104 209 -279q2 -2 2 -22v-19l-6 -6h-41q-307 156 -328 475q-2 12 -2 220l2 317q-2 16 -2 270v142q0 186 -28 274q-39 117 -129 207q-82 82 -82 76z" />
<glyph unicode="&#x25b3;" horiz-adv-x="1820" d="M121 41q0 8 6 20q422 950 750 1387q0 18 32 18q14 0 23 -8q8 -4 387 -704l377 -699v-14q0 -27 -29 -41h-1513q-33 33 -33 41zM231 82h1356q0 4 -338 629l-340 626q-2 0 -340 -626q-338 -627 -338 -629z" />
<glyph unicode="&#x25b9;" d="M53 23v978q14 33 35 33q16 0 444 -246l398 -231q39 -27 39 -45t-39 -45l-398 -231q-428 -246 -444 -246q-21 0 -35 33zM135 512q0 -410 2 -410l357 205q350 203 350 205l-707 410q-2 0 -2 -410z" />
<glyph unicode="&#x25bd;" horiz-adv-x="1820" d="M121 983q0 8 33 41h1513q29 -14 29 -41v-12l-377 -701q-381 -700 -387 -704q-8 -6 -23 -6q-14 0 -22 6q-10 4 -369 670q-373 696 -387 718q-10 25 -10 29zM231 942q0 -2 338 -629t340 -626q2 0 340 626q338 627 338 629h-1356z" />
<glyph unicode="&#x25c3;" d="M53 512q0 23 19 33q305 219 839 485q12 4 17 4q27 0 41 -30v-984q-14 -31 -39 -30q-6 0 -19 4q8 -6 -417 239q-412 238 -422 246q-19 10 -19 33zM178 512q0 -2 350 -205l357 -205q2 0 2 410t-2 410t-355 -205q-352 -203 -352 -205z" />
<glyph unicode="&#x25ef;" horiz-adv-x="2048" d="M115 512q0 416 286 694q264 258 605 258q168 0 294 -45q258 -88 433 -309q201 -256 200 -598q0 -393 -262 -672q-266 -281 -647 -280q-88 0 -145 10q-317 55 -535 307q-229 268 -229 635zM197 512q0 -373 249 -627q242 -246 578 -245q336 0 580 247q248 254 247 625 q0 344 -219 592q-211 238 -520 276q-18 2 -102 2q-301 0 -541 -223q-272 -252 -272 -647z" />
<glyph unicode="&#x2660;" horiz-adv-x="1593" d="M113 395q0 238 180 445q59 68 186 180q135 125 219 303q76 160 80 162q12 4 19 4q25 0 41 -35l22 -53q18 -47 39 -88q86 -174 215 -293q367 -324 367 -602q0 -461 -273 -461q-143 0 -217 72q-51 49 -51 106v8h-102v-16q0 -111 28 -236l29 -120q0 -39 -61 -39l-37 2 l-35 -2q-63 0 -64 41q0 -4 29 118q29 125 29 236v16h-103v-8q0 -53 -47 -104q-72 -74 -215 -74h-20q-96 0 -164 86q-88 112 -94 352z" />
<glyph unicode="&#x2661;" horiz-adv-x="1593" d="M113 1004q0 258 118 376q88 86 224 86q229 0 342 -227q27 57 82 115q113 113 258 112q178 0 268 -141q76 -123 76 -321q0 -260 -248 -539q-338 -360 -389 -481q-16 -51 -47 -52q-27 0 -41 35q-37 86 -70 144q-10 18 -326 354q-247 279 -247 539zM195 1006q0 -156 86 -297 q76 -131 268 -318q182 -174 237 -293q4 -10 11 -18q82 154 209 272q164 158 249 269q143 190 144 376q0 193 -70 295q-74 92 -190 92q-125 0 -209 -92q-72 -80 -90 -190q-6 -49 -41 -49q-8 0 -21 6q-14 6 -33 82q-25 90 -92 159q-86 82 -196 82l-51 -2q-211 -36 -211 -374z " />
<glyph unicode="&#x2662;" horiz-adv-x="1593" d="M113 578q0 6 147 161q324 342 498 723q0 27 37 27q27 0 67 -78q236 -459 590 -788q29 -27 29 -45t-29 -46q-369 -342 -621 -845q-8 -18 -32 -19h-2q-25 0 -66 76q-225 438 -549 750l-51 49q-18 15 -18 35zM215 578l37 -35q295 -291 545 -744q-4 -4 43 76q49 90 104 176 q180 279 397 492l37 35l-37 34q-295 291 -544 744q4 4 -43 -76q-49 -90 -105 -176q-180 -279 -397 -492z" />
<glyph unicode="&#x2663;" horiz-adv-x="1593" d="M57 356q0 166 84 281q84 117 217 117q76 0 138 -43q53 -36 53 -42q0 -1 -2 -1l43 92q-154 154 -154 330q0 170 111 286q104 111 250 111q147 0 252 -111q109 -115 108 -286q0 -176 -153 -330l43 -92q-2 0 -2 1q0 6 53 42q63 43 143 43q119 0 203 -105q92 -113 92 -293 q0 -178 -106 -293q-102 -109 -244 -108q-221 0 -246 174v14h-102v-16q0 -111 28 -236l29 -120q0 -39 -61 -39l-37 2l-35 -2q-63 0 -64 41q0 -4 29 118q29 125 29 236v16h-103v-14q-8 -78 -80 -127q-70 -47 -170 -47q-133 0 -233 104q-113 117 -113 297z" />
<glyph unicode="&#x266d;" horiz-adv-x="796" d="M113 1325q0 197 10 207q6 4 33 4h14q8 0 25 -12v-635l18 12q82 55 197 55q111 0 186 -75q84 -84 84 -224q0 -356 -467 -680l-33 -22h-26q-27 0 -39 12zM195 70q291 291 290 589q0 195 -110 195q-127 0 -168 -80q-12 -23 -12 -371v-333z" />
<glyph unicode="&#x266e;" horiz-adv-x="796" d="M133 -184v1661q27 27 60 26q14 0 20 -14v-580l213 86l217 84q8 0 21 -12v-1497q-37 -27 -62 -27q-10 0 -20 15v415q4 0 -213 -84q-211 -86 -217 -86q-7 1 -19 13zM213 27q365 145 367 147q2 0 2 342q0 340 -2 340l-367 -147v-682z" />
<glyph unicode="&#x266f;" horiz-adv-x="796" d="M113 -45q0 29 8 37q6 8 39 18l26 10v342q0 340 -2 340q-6 0 -20 -8t-25 -8q-12 0 -24 12l-2 140q0 29 8 36q6 8 39 19l26 10v359q0 55 7 67q2 8 24 14q27 12 41 7q10 -6 10 -215v-201l258 96l2 424l4 4q12 23 54 23q23 0 22 -107v-110q0 -201 2 -201q6 0 19 8q14 6 24 6 q16 0 29 -10v-172l-6 -4q-4 -6 -37 -17l-31 -12v-342q0 -340 2 -340q6 0 19 8q14 6 24 7q16 0 29 -11v-172l-6 -4q-4 -6 -37 -16l-31 -12v-230q0 -47 -4 -55t-26 -14q-16 -8 -29 -9q-23 0 -23 62v215l-258 -96v-283q-35 -25 -61 -27q-20 0 -21 72v76q0 129 -2 129 q-6 0 -20 -8t-25 -9q-12 0 -24 13zM268 51l258 96v684l-258 -96v-684z" />
<glyph unicode="&#x27e8;" horiz-adv-x="796" d="M225 512q0 10 189 502l192 502q6 10 21 18l14 2q37 0 41 -37q0 -10 -184 -498q-186 -485 -187 -489q0 -4 187 -489q184 -487 184 -498q-4 -37 -41 -37q-20 0 -35 20q-381 762 -381 1004z" />
<glyph unicode="&#x27e9;" horiz-adv-x="796" d="M113 -475q0 10 184 498q186 485 186 489t-186 489q-184 487 -184 498q4 37 41 37q20 0 34 -20q381 -762 381 -1004q0 -10 -188 -502l-193 -502q-14 -20 -34 -20q-37 0 -41 37z" />
<glyph unicode="&#x27ee;" horiz-adv-x="843" d="M354 195l2 317q-2 20 -2 258v172q0 193 58 309q88 172 258 267l14 6h41l6 -6v-31q0 -12 -16 -23q-180 -123 -219 -360q-4 -27 -4 -297v-129q0 -147 -3 -166q2 -16 3 -268v-144q0 -186 28 -274q35 -104 209 -279q2 -2 2 -22v-19l-6 -6h-41q-307 156 -328 475q-2 13 -2 220 z" />
<glyph unicode="&#x27ef;" horiz-adv-x="843" d="M115 -473q0 25 16 33q182 125 217 360q6 43 8 324l-2 680q0 186 -28 274q-39 117 -129 207q-82 82 -82 76v16q0 27 20 27h25q330 -168 329 -516v-420l-2 -72q4 -33 5 -262v-172q0 -215 -78 -348q-94 -156 -252 -234h-29q-18 0 -18 27z" />
<glyph unicode="&#x27f5;" horiz-adv-x="3295" d="M113 506q0 23 37 35q219 86 329 290q55 102 68 187q8 29 43 29q41 0 41 -23q0 -14 -10 -51q-47 -184 -283 -420h2754q31 -16 31 -41t-31 -41h-2754l49 -41q43 -37 78 -78q111 -127 156 -301q10 -37 10 -51q0 -23 -41 -23q-25 0 -33 9q-10 12 -18 57q-78 317 -389 440 q-31 13 -37 23z" />
<glyph unicode="&#x27f6;" horiz-adv-x="3354" d="M170 512q0 27 29 41h2756q-238 178 -293 457l-2 12q0 25 35 25h6q35 0 41 -19q-2 2 6 -35l19 -59q98 -301 393 -399q18 -6 18 -23q0 4 -137 -78q-250 -156 -297 -426q-6 -31 -43 -31q-41 0 -41 23q0 14 11 51q66 258 284 420h-2756q-29 14 -29 41z" />
<glyph unicode="&#x27f7;" horiz-adv-x="3807" d="M113 506q0 23 37 35q219 86 329 290q55 102 68 187q8 29 43 29q41 0 41 -23q0 -14 -10 -51q-47 -184 -283 -420h3131q-238 178 -293 457l-2 12q0 25 35 25h6q35 0 41 -19q-2 2 6 -35l19 -59q98 -301 393 -399q18 -6 19 -23q0 4 -138 -78q-250 -156 -297 -426 q-6 -31 -43 -31q-41 0 -41 23q0 14 11 51q66 258 284 420h-3131l49 -41q43 -37 78 -78q111 -127 156 -301q10 -37 10 -51q0 -23 -41 -23q-25 0 -33 9q-10 12 -18 57q-78 317 -389 440q-31 13 -37 23z" />
<glyph unicode="&#x27f8;" horiz-adv-x="3295" d="M115 512q0 18 47 31q86 25 166 63q293 143 444 443q14 27 49 26q37 -2 37 -20q0 -10 -10 -31q-72 -141 -176 -252l-21 -20h2499q31 -16 31 -41q0 -23 -29 -39l-2591 -2l-20 -17q-80 -61 -240 -141q-6 6 78 -39q88 -45 162 -102l20 -17h2591q29 -20 29 -41q0 -25 -31 -41 h-2499l21 -20q104 -111 176 -252q10 -27 10 -35q0 -14 -41 -14q-33 0 -45 24q-205 401 -625 510q-32 11 -32 27z" />
<glyph unicode="&#x27f9;" horiz-adv-x="3354" d="M113 313q0 31 32 41h2644l21 17q80 61 239 141q6 -6 -77 39q-88 45 -162 102l-21 17h-1337l-6 2l-1301 -2q-33 10 -32 41q0 27 28 41h2558l-20 20q-186 199 -187 281q0 23 33 22q37 0 53 -26q201 -401 625 -510q35 -10 35 -27q0 2 -3 2q-22 0 -210 -96 q-295 -143 -447 -443q-12 -25 -45 -24q-41 0 -41 14q0 8 11 35q72 141 176 252l20 20h-2558q-28 14 -28 41z" />
<glyph unicode="&#x27fa;" horiz-adv-x="3805" d="M115 512q0 18 47 31q86 25 166 63q293 143 444 443q14 27 49 26q37 -2 37 -20q0 -10 -10 -31q-72 -141 -176 -252l-21 -20h2501l-21 20q-186 199 -186 281q0 23 33 22q37 0 53 -26q201 -401 625 -510q35 -10 34 -27q0 2 -2 2q-22 0 -210 -96q-295 -143 -447 -443 q-12 -25 -45 -24q-41 0 -41 14q0 8 10 35q72 141 176 252l21 20h-2501l21 -20q104 -111 176 -252q10 -27 10 -35q0 -14 -41 -14q-33 0 -45 24q-205 401 -625 510q-32 11 -32 27zM301 512q-6 6 78 -39q88 -45 162 -102l20 -17h2681l20 17q80 61 240 141q6 -6 -78 39 q-88 45 -162 102l-20 17h-1337l-7 2l-1337 -2l-20 -17q-80 -61 -240 -141z" />
<glyph unicode="&#x27fc;" horiz-adv-x="3354" d="M111 266l2 246q0 350 4 358q8 25 37 25q41 0 41 -90v-252h2762q-238 178 -293 457l-2 12q0 25 35 25h6q35 0 41 -19q-2 2 6 -35l19 -59q98 -301 393 -399q18 -6 19 -23q0 4 -138 -78q-250 -156 -297 -426q-6 -31 -43 -31q-41 0 -41 23q0 14 11 51q66 258 284 420h-2762 v-248q0 -94 -41 -94q-29 0 -35 23q-8 24 -8 114z" />
<glyph unicode="&#x2a3f;" horiz-adv-x="1536" d="M57 47q0 35 9 41q6 6 49 6q133 0 149 23q4 12 4 583q0 569 -4 582q-16 23 -149 23q-43 0 -49 6q-8 6 -9 41q0 33 6 41q6 6 31 6h8q76 -4 271 -4l272 2q23 0 27 -6q8 -8 8 -39q0 -35 -10 -41q-8 -6 -47 -6q-133 0 -150 -23q-4 -12 -4 -598v-590h596v590q0 586 -4 598 q-16 23 -150 23q-39 0 -47 6q-10 6 -10 41q0 45 31 45l280 -2q147 0 209 2h66q25 0 28 -6q8 -6 9 -39q0 -35 -11 -41q-8 -6 -47 -6q-133 0 -149 -23q-2 -6 -2 -582q0 -578 2 -583q16 -23 149 -23q43 0 51 -6q6 -6 7 -41q0 -37 -13 -45q-4 -2 -698 -2q-692 0 -696 2 q-13 8 -13 45z" />
<glyph unicode="&#x2aaf;" horiz-adv-x="1593" d="M170 -242q0 27 29 41h1190q31 -16 30 -41q0 -25 -30 -41h-1190q-29 14 -29 41zM170 709q0 43 68 43l41 -2q991 18 1056 497q8 55 47 56q38 -5 38 -39q0 -125 -71 -232.5t-188 -179.5q-139 -84 -399 -143q207 -51 328 -103q176 -88 262 -229q68 -109 67 -217 q0 -43 -41 -43q-35 0 -47 73q-18 109 -92 201q-217 264 -960 277h-48q-61 0 -61 41z" />
<glyph unicode="&#x2ab0;" horiz-adv-x="1593" d="M170 164q27 258 258 401q139 84 399 144q-219 55 -325 102q-246 121 -314 346q-16 70 -16 100q0 45 37 46q35 0 49 -76q18 -111 92 -201q217 -264 961 -276h43q68 0 67 -41q0 -41 -67 -41h-43q-436 -10 -676 -95q-342 -121 -381 -403q-6 -53 -43 -53q-16 0 -37 20 q-4 9 -4 27zM172 -242q0 27 29 41h1190q31 -16 30 -41q0 -25 -30 -41h-1190q-29 14 -29 41z" />
<glyph unicode="&#xe000;" horiz-adv-x="885" d="M0 885h885v-885h-885v885z" />
<glyph unicode="&#xe100;" horiz-adv-x="2048" d="M-31 510q0 29 31 39h2048q31 -18 31 -41t-31 -41h-2048q-31 12 -31 43z" />
<glyph unicode="&#xe101;" horiz-adv-x="1019" d="M-31 510q0 29 31 39h1020q31 -18 31 -41t-31 -41h-1020q-31 12 -31 43z" />
<glyph unicode="&#xe102;" horiz-adv-x="512" d="M-31 510q0 29 31 39h512q31 -18 31 -41t-31 -41h-512q-31 12 -31 43z" />
<glyph unicode="&#xe103;" horiz-adv-x="204" d="M-31 510q0 29 31 39h205q31 -18 31 -41t-31 -41h-205q-31 12 -31 43z" />
<glyph unicode="&#xe104;" horiz-adv-x="104" d="M-31 510q0 29 31 39h109q31 -18 30 -41q0 -23 -30 -41h-109q-31 12 -31 43z" />
<glyph unicode="&#xe110;" horiz-adv-x="2048" d="M-35 768q0 23 29 53h162h1902q31 -18 31 -41t-31 -41h-2078q-13 13 -15 29zM-33 455q0 27 29 41h2079q14 -14 14 -31q0 -23 -18 -51h-170h-1905q-29 14 -29 41z" />
<glyph unicode="&#xe111;" horiz-adv-x="1026" d="M-35 768q0 23 29 53h162h872q31 -18 31 -41t-31 -41h-1048q-13 13 -15 29zM-33 455q0 27 29 41h1048q14 -14 15 -31q0 -23 -19 -51h-170h-874q-29 14 -29 41z" />
<glyph unicode="&#xe112;" horiz-adv-x="509" d="M-35 768q0 23 29 53h162h354q31 -18 31 -41t-31 -41h-530q-13 13 -15 29zM-33 455q0 27 29 41h530q14 -14 15 -31q0 -23 -19 -51h-170h-356q-29 14 -29 41z" />
<glyph unicode="&#xe113;" horiz-adv-x="204" d="M-35 768q0 23 29 53h162h43q31 -18 30 -41q0 -23 -30 -41h-219q-13 13 -15 29zM-33 455q0 27 29 41h219q14 -14 14 -31q0 -23 -18 -51h-113h-102q-29 14 -29 41z" />
<glyph unicode="&#xe114;" horiz-adv-x="104" d="M-35 768q0 23 29 53l51 -2h43q31 -18 31 -41t-31 -41l-108 2q-13 13 -15 29zM-33 455q0 27 29 41l108 -2q14 -14 15 -31q0 -23 -19 -51l-2 2h-102q-29 14 -29 41z" />
<glyph unicode="&#xe120;" horiz-adv-x="2050" d="M-33 313q0 27 29 41h2070q14 -14 15 -30q0 -23 -19 -52h-170h-1896q-29 14 -29 41zM-33 698q0 23 29 54h162h1894q31 -18 31 -41t-31 -41h-2070q-13 12 -15 28z" />
<glyph unicode="&#xe124;" horiz-adv-x="106" d="M-27 313q0 27 29 41h119q14 -14 14 -30q0 -23 -18 -52h-41h-74q-29 14 -29 41zM-27 698q0 23 29 54h41h63q31 -18 31 -41t-31 -41h-118q-13 12 -15 28z" />
<glyph unicode="&#xe150;" horiz-adv-x="1021" d="M-10 471q-32 23 -32 43.5t32 38.5l704 2q139 23 183 76q31 37 30 82q0 45 -33 84q-53 63 -174 73h-2q-51 0 -51 41t53 41q96 0 183 -55q106 -70 106 -184q0 -119 -110 -187q-84 -53 -179 -53z" />
<glyph unicode="&#xe151;" horiz-adv-x="1026" d="M68 711q0 125 118 192q84 47 172 47q51 0 52 -41q0 -35 -80 -45q-102 -12 -150 -71q-31 -37 -30 -82q0 -45 32 -84q53 -63 174 -74h750v-82h-750q-96 0 -182 55q-106 70 -106 185z" />
<glyph unicode="&#xe152;" horiz-adv-x="1026" d="M111 266l2 246q0 350 4 358q8 25 37 25q41 0 41 -90v-252h884v-82h-884v-248q0 -94 -41 -94q-29 0 -35 23q-8 24 -8 114z" />
<glyph unicode="&#xe153;" horiz-adv-x="2048" d="M113 465q2 16 14 29h1776q31 -18 30 -41q0 -23 -30 -41h-1600q248 -248 318 -439q12 -35 6 -43q-4 -12 -37 -12t-43 27q-31 80 -74 149q-121 201 -332 328q-28 20 -28 43zM115 780q0 27 28 41h1602h174q14 -29 14 -51q0 -16 -14 -31h-1776q-28 14 -28 41z" />
<glyph unicode="&#xe154;" horiz-adv-x="2048" d="M113 768q0 23 28 43q211 127 332 328q43 70 74 149q10 27 43 27t37 -12q6 -8 -6 -43q-70 -190 -318 -439h1598q31 -18 30 -41q0 -23 -30 -41h-1774q-12 13 -14 29zM115 455q0 27 28 41h1774q14 -14 14 -31q0 -23 -18 -49l-170 -2h-1600q-28 14 -28 41z" />
<glyph unicode="&#xe155;" horiz-adv-x="2048" d="M115 465q2 16 14 29h1776q31 -18 30 -41q0 -23 -30 -41h-1600l-158 -2q-32 32 -32 55zM117 780q0 27 28 41h1602q-145 109 -250 293q-80 137 -80 178q0 23 41 23q33 0 43 -27q31 -80 74 -149q150 -244 338 -332q23 -14 22 -37q0 -16 -14 -31h-1776q-28 14 -28 41z" />
<glyph unicode="&#xe156;" horiz-adv-x="2048" d="M115 768q0 23 28 53h162h1598q31 -18 30 -41q0 -23 -30 -41h-1774q-12 13 -14 29zM117 455q0 27 28 41h1774q14 -14 14 -31q0 -23 -22 -37q-188 -88 -338 -332q-43 -70 -74 -149q-10 -27 -43 -27q-41 0 -41 23q0 41 80 178q104 184 250 293h-1600q-28 14 -28 41z" />
<glyph unicode="&#xe170;" horiz-adv-x="2048" d="M-6 1556v82h2064q31 -16 31 -41t-31 -41h-2064z" />
<glyph unicode="&#xe171;" horiz-adv-x="1026" d="M-6 1556v82h1036q31 -16 31 -41t-31 -41h-1036z" />
<glyph unicode="&#xe172;" horiz-adv-x="514" d="M-6 1556v82l520 -2q31 -16 31 -41t-31 -41z" />
<glyph unicode="&#xe173;" horiz-adv-x="204" d="M-6 1556v82h213q31 -16 31 -41t-31 -41h-213z" />
<glyph unicode="&#xe174;" horiz-adv-x="104" d="M-6 1556v82l115 -2q31 -16 30 -41q0 -25 -30 -41z" />
<glyph unicode="&#xe900;" horiz-adv-x="3108" d="M53 840q0 27 29 41h2785q-145 109 -250 293q-80 137 -80 178q0 23 41 22q33 0 43 -26q31 -80 74 -150q150 -244 338 -332q23 -14 23 -37q0 -16 -15 -30h-2959q-29 14 -29 41zM944 524q2 16 14 29h1289q31 -18 30 -41q0 -23 -30 -41h-1112q248 -248 317 -438q12 -35 6 -43 q-4 -12 -37 -13q-33 0 -43 27q-31 80 -73 150q-121 201 -332 327q-29 20 -29 43z" />
<glyph unicode="&#xe901;" horiz-adv-x="1802" d="M160 512q0 49 35 84q35 39 88 39q49 0 86 -33q39 -35 39 -88q0 -51 -37 -88q-35 -37 -86 -37t-88 37q-37 35 -37 86zM774 512q0 49 35 84q35 39 88 39q49 0 86 -33q39 -35 39 -88q0 -51 -37 -88q-35 -37 -86 -37t-88 37q-37 35 -37 86zM1389 510q0 49 34 84q35 39 88 39 q49 0 86 -33q39 -35 39 -88q0 -51 -37 -88q-35 -37 -86 -37t-88 37q-36 35 -36 86z" />
<glyph unicode="&#xe902;" horiz-adv-x="2406" d="M160 512q0 49 35 84q35 39 88 39q49 0 86 -33q39 -35 39 -88q0 -51 -37 -88q-35 -37 -86 -37t-88 37q-37 35 -37 86zM774 512q0 49 35 84q35 39 88 39q49 0 86 -33q39 -35 39 -88q0 -51 -37 -88q-35 -37 -86 -37t-88 37q-37 35 -37 86zM1389 510q0 49 34 84q35 39 88 39 q49 0 86 -33q39 -35 39 -88q0 -51 -37 -88q-35 -37 -86 -37t-88 37q-36 35 -36 86zM2005 516q0 49 35 84q35 39 88 39q49 0 86 -33q39 -35 39 -88q0 -51 -37 -88q-35 -37 -86 -37t-88 37q-37 35 -37 86z" />
<glyph unicode="&#xe903;" horiz-adv-x="1593" d="M113 115q0 31 32 41h1299q33 -12 33 -41q0 -25 -31 -41h-1305q-28 14 -28 41zM113 512q0 27 28 41h1305q31 -16 31 -41t-31 -41h-1305q-28 14 -28 41zM117 911q0 27 28 41h263q31 -16 30 -41q0 -29 -32 -41h-256q-33 10 -33 41zM670 909q0 27 28 41h263q31 -16 30 -41 q0 -29 -33 -41h-256q-32 10 -32 41zM1155 909q0 27 29 41h262q31 -16 31 -41q0 -29 -33 -41h-256q-33 10 -33 41z" />
<glyph unicode="&#xe904;" horiz-adv-x="1593" d="M104 909q0 27 29 41h1305q31 -16 30 -41q0 -25 -30 -41h-1305q-29 14 -29 41zM109 510q0 27 28 41h262q31 -16 31 -41q0 -29 -33 -41h-256q-32 10 -32 41zM113 115q0 31 32 41h1299q33 -12 33 -41q0 -25 -31 -41h-1305q-28 14 -28 41zM668 514q0 27 28 41h262 q31 -16 31 -41q0 -29 -33 -41h-256q-32 10 -32 41zM1153 514q0 27 29 41h262q31 -16 31 -41q0 -29 -33 -41h-256q-33 10 -33 41z" />
<glyph unicode="&#xe905;" horiz-adv-x="1593" d="M109 510q0 27 28 41h262q31 -16 31 -41q0 -29 -33 -41h-256q-32 10 -32 41zM668 514q0 27 28 41h262q31 -16 31 -41q0 -29 -33 -41h-256q-32 10 -32 41zM1153 514q0 27 29 41h262q31 -16 31 -41q0 -29 -33 -41h-256q-33 10 -33 41z" />
<glyph unicode="&#xe906;" horiz-adv-x="1593" d="M109 707q0 27 28 41h262q31 -16 31 -41q0 -29 -33 -41h-256q-32 10 -32 41zM113 313q0 31 32 41h1303q29 -20 29 -41q0 -25 -31 -41h-1305q-28 14 -28 41zM668 711q0 27 28 41h262q31 -16 31 -41q0 -29 -33 -41h-256q-32 10 -32 41zM1153 711q0 27 29 41h262 q31 -16 31 -41q0 -29 -33 -41h-256q-33 10 -33 41z" />
<glyph unicode="&#xe907;" horiz-adv-x="3108" d="M53 840q0 27 29 41h2785q-145 109 -250 293q-80 137 -80 178q0 23 41 22q33 0 43 -26q31 -80 74 -150q150 -244 338 -332q23 -14 23 -37q0 -16 -15 -30h-2959q-29 14 -29 41zM70 524q2 16 14 29h2939q31 -18 31 -41t-31 -41h-2763q248 -248 318 -438q12 -35 6 -43 q-4 -12 -37 -13q-33 0 -43 27q-31 80 -74 150q-121 201 -332 327q-28 20 -28 43z" />
<glyph unicode="&#xeffd;" horiz-adv-x="614" d="M0 0v205h205v-205h-205zM410 0v205h204v-205h-204z" />
<glyph unicode="&#xeffe;" horiz-adv-x="614" d="M0 0v205h205v-205h-205zM410 0v205h204v-205h-204z" />
<glyph unicode="&#xefff;" horiz-adv-x="204" d="M0 0v205h205v-205h-205z" />
</font>
</defs>
</svg>
