<?xml version="1.0" standalone="no"?>
<!DOCTYPE svg PUBLIC "-//W3C//DTD SVG 1.1//EN" "http://www.w3.org/Graphics/SVG/1.1/DTD/svg11.dtd" >
<svg xmlns="http://www.w3.org/2000/svg">
<metadata>
This is a custom SVG webfont generated by Font Squirrel.
Copyright   : Copyright c 20092010 Design Science Inc
</metadata>
<defs>
<font id="MathJax_SansSerifRegular" horiz-adv-x="1024" >
<font-face units-per-em="2048" ascent="1638" descent="-410" />
<missing-glyph horiz-adv-x="512" />
<glyph unicode=" "  horiz-adv-x="512" />
<glyph unicode="&#x09;" horiz-adv-x="512" />
<glyph unicode="&#xa0;" horiz-adv-x="512" />
<glyph unicode="!" horiz-adv-x="653" d="M225 0v201h201v-201h-201zM225 1419q0 2 100.5 2t100.5 -2q0 -78 -10 -518t-10 -518q0 -2 -80 -2t-80 2q0 78 -10.5 518t-10.5 518z" />
<glyph unicode="&#x22;" d="M66 965l30 125q31 125 33 127q0 4 -31 4h-30v200h200v-198l-100 -258h-102zM463 965l31 125q31 125 32 127q0 4 -30 4h-31v200h201v-198l-101 -258h-102z" />
<glyph unicode="#" horiz-adv-x="1705" d="M115 307q0 31 32 41h383l13 51q16 55 45 164l30 113h-237l-238 2q-14 6 -24 16q-4 8 -4 23q0 27 28 41h250q250 0 250 2l86 317q82 307 92 326q10 18 31 18q14 0 26.5 -10t14.5 -25q0 -8 -82 -316t-84 -310q0 -2 193 -2q195 0 194 2l86 317q86 319 90 326q12 18 33 18 q14 0 26.5 -11t12.5 -21l-164 -629q0 -2 180 -2h183q31 -16 30 -41q0 -27 -20.5 -34t-89.5 -7h-113h-194l-13 -51q-14 -47 -45 -162l-31 -113l238 -2h154q72 0 93 -7t21 -34q0 -25 -30 -41h-250q-250 0 -250 -2l-86 -317q-86 -319 -90 -326q-12 -18 -33 -18q-14 0 -26.5 11 t-12.5 21l164 629q0 2 -193 2q-195 0 -194 -2l-86 -317q-86 -319 -90 -326q-12 -18 -33 -18q-14 0 -26.5 11t-12.5 21l164 629q0 2 -180 2h-183q-28 14 -28 41zM614 350l193 -2h194l89 328h-388l-12 -51q-14 -47 -45 -162z" />
<glyph unicode="$" d="M90 123q0 2 16 84l15 80l20 -17q18 -14 38 -27.5t40 -24.5l35 -19q14 -8 35.5 -15.5t32 -11.5t33 -9t28.5 -7t28.5 -7.5t24.5 -5.5v506l-22 4q-125 33 -213 137.5t-88 251.5q0 156 99 264.5t224 129.5v100h150v-96h6q47 0 133 -29q37 -14 93 -47t56 -41l-28 -158 q0 -2 -21 13q-104 82 -229 100h-10v-449q145 -33 234 -151.5t89 -269.5q0 -145 -87 -266.5t-236 -155.5v-101h-150v97q-94 12 -181 46.5t-126 62.5t-39 32zM293 1069q0 -137 143 -201v402l-20 -10q-123 -58 -123 -191zM586 154q143 72 143 229q0 43 -13.5 82t-31.5 64.5 t-38.5 44t-36 26.5t-21.5 8q-2 0 -2 -227v-227z" />
<glyph unicode="%" horiz-adv-x="1705" d="M115 1124q0 184 87 298t197 114q109 0 195 -114.5t86 -299.5q0 -190 -87 -300.5t-194 -110.5q-111 0 -197.5 115.5t-86.5 297.5zM297 1124q0 -258 102 -258q49 0 79 74t30 184q0 109 -29.5 182.5t-79.5 73.5q-102 0 -102 -256zM360 -72q0 4 5 17q2 4 453.5 784t457.5 789 q6 18 33 18q18 0 30.5 -12.5t10.5 -30.5q-4 -16 -460 -804.5t-466 -794.5q-8 -8 -21 -9q-20 0 -31.5 14.5t-11.5 28.5zM1024 299q0 182 87 297t198 115q109 0 194.5 -112t85.5 -300q0 -190 -88 -302t-192 -112q-106 0 -195.5 110.5t-89.5 303.5zM1206 299q0 -258 103 -258 q49 0 78.5 73.5t29.5 184.5q0 109 -29.5 182.5t-78.5 73.5q-103 0 -103 -256z" />
<glyph unicode="&#x26;" horiz-adv-x="1552" d="M86 311q0 66 19.5 121t60.5 100.5t62.5 63.5t66.5 53l82 64l-12 35q-45 133 -46 280q0 201 87.5 319.5t211.5 118.5q133 0 212 -105.5t79 -236.5q0 -37 -4 -53q-33 -158 -282 -358l-35 -29q37 -76 109.5 -175t126 -161.5t57.5 -62.5t26.5 20.5t59.5 65.5t76.5 103 t81.5 147.5t69 185.5q2 8 6 20q2 8 2 11q2 0 80 -21.5t80 -21.5q-4 -14 -10 -39t-34 -97.5t-61.5 -141t-95 -158t-133.5 -158.5l-22 -23q88 -61 190 -61q141 0 238 37q4 0 4 -84t-4 -84q-98 -31 -234 -31h-12q-154 0 -299 98l-27 17q-4 -2 -33.5 -18.5t-62.5 -30t-79 -30 t-104.5 -26.5t-119.5 -10q-170 0 -273.5 108.5t-103.5 247.5zM276 326q0 -74 36 -128.5t94 -72.5q18 -6 59 -6q121 0 266 63l-24 27q-170 180 -265 358q-2 0 -25 -20l-49 -41l-30 -23q-62 -57 -62 -157zM477 1096q6 -125 41 -242l8 -20l29 24q84 72 121 123q59 72 59 149 q0 74 -28.5 127.5t-88.5 53.5q-20 0 -40.5 -8.5t-45 -29t-40 -66t-15.5 -111.5z" />
<glyph unicode="'" horiz-adv-x="569" d="M182 965l31 125q31 125 33 127q0 4 -31 4h-31v200h201v-198l-100 -258h-103z" />
<glyph unicode="(" horiz-adv-x="796" d="M152 512q0 643 340 989l34 35h156l-20 -23q-319 -340 -319.5 -1001.5t319.5 -1000.5l20 -23h-156l-34 35q-340 348 -340 989z" />
<glyph unicode=")" horiz-adv-x="796" d="M113 -512l20 23q319 340 319.5 1001.5t-319.5 1000.5l-20 23h155l35 -35q340 -340 340 -989t-340 -989l-35 -35h-155z" />
<glyph unicode="*" d="M129 901q0 14 5 26.5t9 19.5t20.5 18.5t26 16.5l37 19.5t41.5 22.5l107 57l-107 58q-109 57 -125 73q-14 18 -14 50q0 37 27.5 63.5t60.5 26.5q6 0 10 -1t8.5 -1t9.5 -3l10 -7q5 -3 15 -10l19 -13l25 -20q17 -13 34 -23l90 -64l-4 54q-2 53 -5 117.5t-3 86.5 q6 29 29.5 48.5t56.5 19.5q31 0 55.5 -19.5t28.5 -48.5q0 -23 -3 -87t-7 -117l-2 -54l90 64q82 59 97 67.5t34 8.5q37 0 62.5 -25t25.5 -63q0 -14 -5 -26.5t-9.5 -20t-20.5 -18.5t-25.5 -16l-37 -19.5t-41.5 -22.5l-107 -58l107 -57q109 -57 125 -74q14 -18 14 -49 q0 -37 -27.5 -63.5t-60.5 -26.5q-6 0 -10 1t-8.5 1t-9.5 3l-10 6q-5 3 -15 11l-19 13l-25 19q-17 13 -34 24l-90 63q-2 0 1 -55t7 -116.5t4 -69.5q0 -41 -26.5 -62.5t-57.5 -21.5q-33 0 -57.5 19.5t-28.5 47.5q0 23 3 87.5t5 117.5l4 53l-90 -63q-82 -59 -96 -67.5t-35 -8.5 q-37 0 -62.5 24.5t-25.5 63.5z" />
<glyph unicode="+" horiz-adv-x="1593" d="M115 512q0 27 28 41h613v307l2 307q20 27 39 27q27 0 41 -31v-610h610q31 -16 31 -41t-31 -41h-610v-610q-16 -29 -37 -29h-4h-4q-25 0 -37 29v610h-613q-28 14 -28 41z" />
<glyph unicode="," horiz-adv-x="569" d="M182 -256l31 125q31 125 33 127q0 4 -31 4h-31v201h201v-199l-100 -258h-103z" />
<glyph unicode="-" horiz-adv-x="681" d="M23 381v149h544v-149h-544z" />
<glyph unicode="." horiz-adv-x="569" d="M184 0v201h201v-201h-201z" />
<glyph unicode="/" d="M115 -473q0 20 356 1000t363 989q8 20 32 20q18 0 31.5 -12.5t11.5 -28.5q0 -10 -355 -988t-366 -999q-14 -20 -34 -20q-14 0 -26.5 11.5t-12.5 27.5z" />
<glyph unicode="0" d="M80 647q0 461 160 625q117 117 266 117q119 0 213 -64q92 -61 149 -184q74 -174 74 -469q0 -117 -10 -213q-14 -143 -57.5 -246.5t-105.5 -157t-125.5 -77t-133.5 -23.5q-98 0 -183 48t-141 134q-106 178 -106 510zM270 678q0 -66 2 -111t8.5 -119.5t21.5 -126t41 -103.5 t69 -78.5t100 -26.5q49 0 88 22.5t63.5 55t42 88t26.5 100.5t13.5 112.5t5.5 105.5t1 99q0 68 -1 110t-7.5 114.5t-22.5 118.5t-41 94.5t-68 73t-100 24.5q-68 0 -115 -36t-71.5 -85t-38 -130t-15.5 -139.5t-2 -144.5v-18z" />
<glyph unicode="1" d="M170 1104v149h23q160 8 239.5 41t149.5 95h47v-1239h252v-150h-701v150h256v499q0 498 -2 498q-4 -4 -31.5 -12.5t-85 -17.5t-120.5 -11z" />
<glyph unicode="2" d="M86 1077l10 27q51 141 149.5 211.5t215.5 70.5q162 0 266 -67q193 -133 193 -389q0 -166 -181 -336q-20 -20 -94 -81.5t-237 -217.5l-127 -121l319 2h320v-176h-818v162l340 334q139 123 208 220t69 218q0 125 -74 209t-190 84q-66 0 -116 -30t-76.5 -72t-42 -84 t-21.5 -71.5t-9 -29.5l-53 68z" />
<glyph unicode="3" d="M86 139l14 76l13 76l6 -8l16 -17q8 -8 23 -20l28 -25q14 -12 36 -25l42 -26q20 -12 48 -23.5t55.5 -18.5t60.5 -12t68 -5q88 0 157.5 65.5t69.5 200.5q0 96 -45 171t-146 97l-96 2h-96v78q0 78 2 78q135 6 184 26q68 27 112 93.5t44 144.5q0 68 -42 119t-142 51 q-182 0 -295 -184l-43 65q-45 63 -45 68q0 2 12 20.5t41 45t66.5 54t97 51t123.5 29.5q4 0 18 1.5t23 1.5h6q150 0 264.5 -90.5t114.5 -233.5q0 -76 -27 -140.5t-72 -109.5t-63.5 -59.5t-44.5 -30.5l-2 -2q84 -41 92 -47q72 -49 122 -127t50 -172q0 -166 -124 -294 t-316 -128q-227 0 -392 164z" />
<glyph unicode="4" d="M57 326v155l248 426q246 428 250 432l2 4h221v-862h187v-155h-187v-326h-192v326h-529zM252 483q0 -2 172 -2h174v762q0 -6 -5 -33.5t-7 -40t-12.5 -47.5t-22.5 -64l-36 -83q-24 -53 -53 -111l-75 -139l-100 -178l-17 -30q-8 -15 -12 -25z" />
<glyph unicode="5" d="M68 158q2 2 22 37l41 67l19 33q41 -66 90 -105q98 -80 217 -79q96 0 169.5 65.5t80.5 226.5q0 313 -181 314q-43 0 -80.5 -16.5t-59 -39t-37 -46t-21.5 -40.5l-6 -16q0 -2 -84 -2h-84v786h698v-161h-520v-187q0 -184 2 -184t23.5 15.5t66.5 30.5t104 15q166 0 279 -135 t113 -321q0 -184 -129 -321.5t-328 -137.5h-6q-72 0 -138.5 20.5t-110.5 49t-77 59.5t-48 50.5t-15 21.5z" />
<glyph unicode="6" d="M86 651q0 160 40 292t98.5 212t130 134t132 75.5t105.5 21.5h24h33q86 0 187 -38v-76q0 -74 -2 -74h-3q-96 41 -200 41q-127 0 -216 -101.5t-116 -275.5q-6 -37 -4 -37q2 -2 16 13q131 123 301 123q70 0 119 -26t103 -106q102 -154 102 -366q0 -205 -113 -346 q-127 -162 -309 -162q-72 0 -140.5 30.5t-136 102.5t-109.5 217t-42 346zM289 498q0 -184 63 -285q41 -74 119 -98q16 -4 43 -4q123 0 186 127q37 74 37 225q0 145 -32 217q-49 102 -138 123q-4 0 -15 1t-20 1q-90 0 -148 -57.5t-76.5 -122t-18.5 -127.5z" />
<glyph unicode="7" d="M86 1167v176h850v-161l-21 -27q-209 -256 -312 -563t-103 -592v-23h-203v48q31 651 432 1101q8 12 19.5 23.5t17.5 19.5l-340 -2h-340z" />
<glyph unicode="8" d="M88 377q0 137 80 223t178 123q4 2 -6 6q-2 0 -6 2q-102 43 -161.5 122t-59.5 171q0 139 111.5 252t287.5 113q158 0 277.5 -105.5t119.5 -257.5q0 -115 -69.5 -187.5t-151.5 -107.5l-14 -8h2q98 -37 178 -123t80 -223q0 -186 -130 -304t-294 -118t-293 118t-129 304z M285 367q0 -205 170 -250q18 -4 57 -4h8q84 0 150 59q68 74 67 213q0 135 -69 199q-63 63 -166 63q-82 0 -149.5 -63.5t-67.5 -204.5v-12zM289 1016q0 -102 61.5 -156.5t161.5 -54.5q98 0 159.5 54t61.5 157q0 125 -68.5 174t-152.5 49q-90 0 -156.5 -51t-66.5 -172z" />
<glyph unicode="9" d="M86 881q0 57 4 94q27 174 147.5 292.5t264.5 118.5h20q109 0 193 -61q88 -57 154.5 -209.5t66.5 -431.5q0 -319 -154.5 -524t-361.5 -205q-160 0 -268 92l-5 4q2 0 39 68l39 67q35 -27 53.5 -39t56.5 -24t81 -12q72 0 128 34.5t88 80.5t55.5 110.5t30.5 102.5t13 79v8 l-20 -18q-129 -125 -301 -125q-72 0 -123 28.5t-109 116.5q-92 152 -92 353zM287 880.5q0 -98.5 2 -116.5q10 -78 47 -135.5t88 -77.5q33 -12 82 -12q106 6 166.5 93t60.5 222q0 37 -5 80t-20.5 112.5t-56.5 122t-100 68.5q-8 2 -31 2q-66 0 -114 -29.5t-70.5 -74.5 t-32.5 -77t-14 -61q-2 -18 -2 -116.5z" />
<glyph unicode=":" horiz-adv-x="569" d="M184 0v201h201v-201h-201zM184 709v200h201v-200h-201z" />
<glyph unicode=";" horiz-adv-x="569" d="M182 -256l31 125q31 125 33 127q0 4 -31 4h-31v201h201v-199l-100 -258h-103zM184 709v200h201v-200h-201z" />
<glyph unicode="=" horiz-adv-x="1593" d="M115 307q0 31 32 41h1303q29 -20 29 -41q0 -25 -31 -41h-1305q-28 14 -28 41zM115 717q0 27 28 41h1305q31 -16 31 -41q0 -23 -29 -39l-651 -2h-652q-32 10 -32 41z" />
<glyph unicode="?" horiz-adv-x="966" d="M113 1335q16 12 44.5 29.5t113.5 47.5t167 30t105 -2q78 -10 137 -39t91 -63.5t51.5 -79t24.5 -76t5 -64.5q0 -145 -115 -246q-72 -61 -117 -125.5t-61 -127t-20 -96.5t-4 -81v-61h-160v80q2 115 22 198q25 94 78 179.5t90 122t62 53.5q35 45 35 112q0 94 -53.5 128 t-151.5 34q-74 0 -135 -22q-72 -23 -136 -72l-16 -14zM354 0v201h201v-201h-201z" />
<glyph unicode="@" horiz-adv-x="1366" d="M115 711q0 219 105.5 391t254 256t299.5 84q139 0 234.5 -50.5t146.5 -146.5t72.5 -208.5t23.5 -266.5q0 -115 -8 -158q-25 -147 -126 -258.5t-253 -111.5q-162 0 -275.5 137t-113.5 332q0 199 113.5 334t275.5 135q37 0 71 -7.5t48 -13.5l16 -6q0 4 -8 17.5t-25.5 34 t-40 39t-58.5 31.5t-74 13q-190 0 -342 -161.5t-152 -415.5q0 -233 131 -393t318 -183q23 -2 71 -2q133 6 240 43l31 10h163l-28 -30q-178 -178 -430 -179q-283 0 -481.5 213.5t-198.5 520.5zM662 711q0 -158 65.5 -237t136.5 -79q66 0 133.5 75t67.5 241q0 168 -68.5 241.5 t-134.5 73.5q-74 0 -137 -82.5t-63 -232.5z" />
<glyph unicode="A" horiz-adv-x="1366" d="M57 0l258 709l258 710q2 2 109 2h106l259 -706q256 -707 260 -711q0 -4 -111 -4h-111l-135 375h-573l-2 -4q0 -4 -64.5 -184.5t-68.5 -186.5h-185zM430 524q0 -4 233.5 -4t233.5 2l-18 53l-21 56l-50 143l-60 178q-31 92 -54.5 176t-29.5 123v-10q-10 -57 -66.5 -234.5 t-110 -328t-57.5 -154.5z" />
<glyph unicode="B" horiz-adv-x="1366" d="M184 0v1421h281q299 -2 346 -10q180 -33 281.5 -135t101.5 -217q0 -47 -18.5 -90t-47 -75t-63.5 -57.5t-68.5 -43t-63.5 -28.5t-46 -15l-17 -7q27 0 83.5 -20.5t125 -59t119.5 -111.5t51 -159q0 -123 -100 -233.5t-277 -145.5q-45 -10 -79.5 -11t-300.5 -3h-308zM385 145 h176q186 2 234 13q117 23 187.5 90t70.5 141q0 113 -106.5 185.5t-244.5 84.5q-14 2 -172 3h-145v-517zM385 817h150h51q299 0 393 156q25 43 25 84q0 23 -10.5 47t-37 59t-90 64.5t-155.5 44.5q-14 2 -174 4h-152v-459z" />
<glyph unicode="C" horiz-adv-x="1308" d="M121 711q0 190 84 357t242.5 271.5t355.5 104.5q166 0 323 -51q55 -20 56 -27q-2 -2 -11 -51l-16 -97q-8 -48 -10 -49q-90 61 -164 87t-178 26q-188 0 -327.5 -157.5t-139.5 -413.5q0 -238 133 -405t344 -167q115 0 189.5 24.5t160.5 82.5l27 18l2 -39q4 -39 7 -81t3 -50 q-14 -12 -43 -31.5t-131 -52.5t-217 -33q-205 0 -365.5 106.5t-242.5 273t-82 354.5z" />
<glyph unicode="D" horiz-adv-x="1478" d="M180 0v1421h305h43h119q137 0 223 -17.5t177 -76.5q137 -90 227 -252t90 -373q0 -313 -209 -526q-143 -139 -336 -170q-27 -4 -334 -6h-305zM387 145h160q10 0 39.5 -1t48.5 -1q309 0 444 234q78 137 78 321q0 139 -40 251t-104.5 178.5t-135 102.5t-142.5 42 q-23 4 -188 4h-160v-1131z" />
<glyph unicode="E" horiz-adv-x="1222" d="M176 0v1415h932v-164h-358l-361 2v-440h662v-156h-662v-483h373l373 2v-176h-959z" />
<glyph unicode="F" horiz-adv-x="1165" d="M176 0v1415h901v-164h-344l-344 2v-467h604v-155h-604v-631h-213z" />
<glyph unicode="G" horiz-adv-x="1366" d="M121 709q0 313 201.5 523t463.5 210q106 0 169 -9.5t153 -41.5q20 -10 40 -19l30 -12q10 -4 17 -8t10 -5t3 -4q0 -8 -16 -104t-18 -98l-19 14q-154 127 -352 127q-186 0 -326.5 -157.5t-140.5 -413.5t141 -414t326 -158q100 0 233 33v285h-241v155h432v-534l-23 -10 q-193 -90 -399 -91q-199 0 -357.5 104.5t-242.5 271t-84 356.5z" />
<glyph unicode="H" horiz-adv-x="1449" d="M176 0v1421h213v-604h670v604h213v-1421h-213v662h-670v-662h-213z" />
<glyph unicode="I" horiz-adv-x="569" d="M178 0v1421h213v-1421h-213z" />
<glyph unicode="J" horiz-adv-x="966" d="M88 41l6 45l17 94l8 45q0 2 14 -12q86 -104 238 -104q39 0 70.5 7t53 20.5t37 26.5t25.5 32l16 29q6 11 11 26l4 14v1157h207v-571v-381q0 -193 -6.5 -240t-32.5 -100q-10 -25 -29.5 -49.5t-55.5 -55t-97.5 -50t-139.5 -19.5q-82 0 -168 21.5t-132 41t-46 23.5z" />
<glyph unicode="K" horiz-adv-x="1421" d="M180 0v1421h205v-358l2 -361l688 719h232l-539 -563l565 -858h-225l-475 719l-248 -258v-461h-205z" />
<glyph unicode="L" horiz-adv-x="1110" d="M178 0v1421h213v-1259l217 2h316l98 2v-166h-844z" />
<glyph unicode="M" horiz-adv-x="1792" d="M188 0v1421h279l10 -28q6 -10 105 -274l201 -557q103 -294 110 -345q45 199 418 1176l10 28h281v-1421h-191v625l-2 616q0 -59 -385 -1081l-43 -113h-178l-58 150q0 2 -46 124l-94 253l-101 282q-53 150 -88 258.5t-35 132.5v-43q-2 -41 -2 -145v-186v-248v-625h-191z " />
<glyph unicode="N" horiz-adv-x="1449" d="M180 0v1421h301l35 -71q18 -41 229 -474.5t332 -703.5v1249h191v-1421h-301l-35 72l-257 530q-253 522 -296 629l-8 20v-1251h-191z" />
<glyph unicode="O" horiz-adv-x="1507" d="M113 707q0 326 192.5 541.5t433.5 215.5q51 0 92 -4q236 -35 399 -249t163 -506q0 -309 -185.5 -529.5t-453.5 -220.5q-264 0 -452.5 218.5t-188.5 533.5zM326 737q0 -258 119.5 -437t308 -179t307.5 179t119 437q0 231 -104.5 379t-254.5 182q-61 6 -80 7 q-160 0 -287.5 -155t-127.5 -413z" />
<glyph unicode="P" horiz-adv-x="1308" d="M180 0v1421h291q240 -2 288 -4t81 -12q158 -39 256 -153.5t98 -258.5q0 -156 -115.5 -280.5t-302.5 -147.5q-20 -4 -205 -4h-178v-561h-213zM387 711h162q168 2 182 4q27 4 53.5 11t67.5 27.5t70.5 48t51 78t21.5 113.5q0 78 -30.5 135.5t-80.5 86t-84 40t-69 17.5 q-14 2 -182 4h-162v-565z" />
<glyph unicode="Q" horiz-adv-x="1507" d="M113 707q0 326 192.5 541.5t433.5 215.5q51 0 92 -4q236 -35 399 -249t163 -506q0 -123 -31 -233t-74 -179.5t-86 -119.5t-74 -75l-30 -26l229 -318l8 -10h-248l-161 240l-25 -9q-68 -20 -145 -20q-266 0 -454.5 219.5t-188.5 532.5zM319 707q0 -250 121 -419t314 -169 h18h15q7 0 12.5 1t9.5 1t6 1t4 1t3 1t2 1h3q0 4 -91 137t-91 135h217l66 -90q66 -92 67 -92q8 6 20.5 16.5t44.5 52.5t56.5 90t46 132t23.5 178v23q0 262 -128 430t-302 168q-184 0 -310.5 -171t-126.5 -427z" />
<glyph unicode="R" horiz-adv-x="1323" d="M180 0v1421h285h65h88q129 0 199 -11t154 -52q111 -53 173 -140.5t62 -185.5q0 -45 -11 -86t-30.5 -73.5t-44 -61.5t-52.5 -49l-54 -39q-27 -18 -51.5 -30.5t-43.5 -20.5l-30 -13l-10 -4l22 -41l77 -128l93 -158l193 -326l-107 -2q-106 0 -108 2q0 2 -181 317l-178 314 h-303v-633h-207zM387 788h168q188 2 240 15q90 20 151.5 77.5t61.5 151.5q0 197 -256 238q-27 4 -197 6h-168v-488z" />
<glyph unicode="S" horiz-adv-x="1138" d="M90 102q2 2 10 52l17 97q8 48 10 48l6 -6q6 -6 19 -15l28 -23q16 -13 40 -27.5t49.5 -28t59 -26.5t68.5 -22.5t78 -15.5t86 -6h25q84 0 164.5 68.5t80.5 175.5q0 129 -110 200q-47 33 -179 63t-188 58q-100 49 -170.5 143.5t-70.5 215.5q0 154 123.5 283.5t343.5 129.5 q66 0 128 -10t104 -24.5t74 -30t50 -25.5t20 -10q0 -2 -17 -101.5t-19 -101.5q-135 135 -342 135q-139 0 -205 -69.5t-66 -153.5q0 -37 11.5 -68.5t35 -55t45 -39t56 -29t52 -18.5t50.5 -13t35 -8q131 -33 182 -58q111 -53 180.5 -157.5t69.5 -231.5q0 -172 -128 -307 t-339 -135q-117 0 -232.5 35t-175 68.5t-59.5 43.5z" />
<glyph unicode="T" horiz-adv-x="1394" d="M74 1245v164h1245v-164h-258l-258 2v-1247h-213v1247l-258 -2h-258z" />
<glyph unicode="U" horiz-adv-x="1409" d="M178 922v499h213v-501q2 -504 4 -523q14 -94 55.5 -158.5t94.5 -92t92 -37t74 -9.5q117 0 203.5 72t111.5 193q8 35 9 82t3 473v501h191v-499v-193q-2 -324 -10 -358q-2 -6 -2 -9q-39 -180 -183.5 -293.5t-326.5 -113.5q-178 0 -331 114.5t-194 331.5q-2 19 -4 521z" />
<glyph unicode="V" horiz-adv-x="1366" d="M29 1417q0 4 110 4h111l49 -125q367 -958 395 -1112q2 -6 4 -6q0 76 387 1090l58 153h96q96 0 96 -4q-4 -4 -265 -692t-271 -705l-6 -20h-222l-6 20q-10 16 -271 704.5t-265 692.5z" />
<glyph unicode="W" horiz-adv-x="1933" d="M29 1419q0 2 102 2h105q0 -2 83.5 -294.5t158.5 -581.5t75 -361l2 -10q2 2 2 14q0 125 272 1074l45 159h199l60 -213q244 -852 262 -1013l2 -23l4 23q10 88 90 393l154 565q74 260 77 264q0 4 90.5 4t90.5 -2q0 -4 -205 -710l-203 -709h-104l-105 2l-45 152 q-262 920 -278 1075l-2 22l-5 -22q-18 -168 -264 -1022l-57 -207h-199l-203 709q-204 706 -204 710z" />
<glyph unicode="X" horiz-adv-x="1366" d="M29 0q4 10 267 376.5t267 375.5l-250 329l-134 179l-93 121q-25 32 -29 40h250l160 -225q178 -248 180 -252l21 -26l350 503h231l-2 -4q-6 -6 -239 -336l-171 -241q-65 -90 -63 -90q0 -2 281 -377l280 -373h-248l-419 598q0 2 -56 -79l-149 -220l-201 -299h-233z" />
<glyph unicode="Y" horiz-adv-x="1366" d="M8 1419l123 2h125l100 -149q330 -498 340 -527l2 -4q41 74 111 181l334 499h215l-574 -854v-567h-206v569l-285 424l-139 208l-111 167z" />
<glyph unicode="Z" horiz-adv-x="1251" d="M113 0v109l372 575q375 575 375 580q-14 2 -67 2q-14 0 -109.5 -1t-181.5 -1h-361v157h996v-104l-373 -576q-375 -575 -375 -579h90q20 0 77.5 1t149 2t152.5 1h289v-166h-1034z" />
<glyph unicode="[" horiz-adv-x="591" d="M193 -512v2048h352v-156h-174v-1736h174v-156h-352z" />
<glyph unicode="]" horiz-adv-x="591" d="M45 -356h174v1736h-174v156h352v-2048h-352v156z" />
<glyph unicode="^" d="M162 1083q6 6 137 170l135 168h154l135 -168l72 -88.5l51.5 -63t14.5 -19t-5 -3.5h-72h-77l-195 230q-12 -12 -104 -121l-93 -109h-77q-76 2 -76 4z" />
<glyph unicode="_" d="M0 -78h1022v-155h-1022v155z" />
<glyph unicode="a" horiz-adv-x="985" d="M78 258q0 33 2 41q33 109 187.5 159t336.5 58h39v51q0 57 -2 68q-10 66 -53 112t-105 46q-55 0 -107 -10.5t-87 -26t-61.5 -30.5t-41 -25.5t-16.5 -10.5l-2 37q-4 37 -7 78t-3 49q0 4 8 8q10 4 20 10q131 70 279 70h22q166 0 267 -123q51 -59 66.5 -121.5t15.5 -181.5 q0 -25 -1 -92.5t-1 -112.5v-311h-185v80l-22 -14q-127 -86 -301 -86h-15q-88 0 -153 65q-80 80 -80 213zM254 258q0 -43 41 -83t131 -40q156 0 207 119q10 25 10 86v41h-22q-367 -12 -367 -123z" />
<glyph unicode="b" horiz-adv-x="1058" d="M154 0v1421h184v-295l2 -297q166 102 348 103q125 0 212 -136.5t87 -332.5q0 -227 -111.5 -356.5t-254.5 -129.5q-47 0 -91.5 10.5t-76 25t-56 29.5t-38 25.5t-15.5 10.5v-78h-190zM344 242q72 -106 184 -107q119 0 195 83t76 235q0 127 -59.5 225t-196.5 98 q-104 0 -181 -76l-18 -16v-442z" />
<glyph unicode="c" horiz-adv-x="909" d="M70 457q0 213 134 349t298 136q92 0 114 -2q55 -8 109.5 -28.5t84.5 -38t30 -23.5l-29 -158l-20 13l-51 27q-32 17 -54 26q-61 23 -158 22h-12q-143 0 -217 -135q-41 -82 -41 -186q0 -135 67.5 -227.5t196.5 -92.5q152 0 285 78l29 16l4 -43l4 -84l4 -40 q-14 -10 -42 -24.5t-114 -38t-176 -23.5q-197 0 -321.5 140t-124.5 337z" />
<glyph unicode="d" horiz-adv-x="1058" d="M68 459q0 199 99 336t236 137q164 0 297 -84l19 -12v585h184v-1421h-190v90l-21 -14q-123 -96 -286 -96q-43 0 -62 4q-141 39 -217 200q-59 119 -59 275zM258 451q0 -266 203 -314q12 -2 51 -2h10q104 0 178 101l13 18v436q-84 84 -174 84q-6 0 -14.5 1t-10.5 1 q-25 0 -58.5 -10t-82.5 -40t-82 -101.5t-33 -173.5z" />
<glyph unicode="e" horiz-adv-x="909" d="M57 463q0 211 129 346t295 135q47 0 91 -10t94.5 -41t87.5 -80t64.5 -133t31.5 -193v-38h-619v-9q0 -106 78 -206.5t199 -100.5q51 0 102.5 10.5t88 24.5t66.5 30l46 23l14 10q0 -14 6.5 -75.5t6.5 -77.5q0 -8 -3.5 -11.5t-29.5 -17.5q-139 -70 -289 -69q-199 0 -329 142 t-130 341zM252 592h444l-4 16l-10 28q-4 11 -13.5 31.5t-19.5 35t-27.5 32t-37 28.5t-47 18t-60.5 7q-43 0 -82 -19t-64.5 -47t-44 -56.5t-26.5 -49t-8 -24.5z" />
<glyph unicode="f" horiz-adv-x="626" d="M55 760v149h138v99q0 106 2 118q14 137 114.5 227.5t227.5 90.5h10q68 0 164 -23v-168l-23 9q-68 25 -127 24h-16q-86 0 -137 -47q-25 -31 -31 -54.5t-6 -76.5v-70v-129h217v-149h-211v-760h-184v760h-138z" />
<glyph unicode="g" d="M57 -139q0 33 7.5 63.5t17.5 51t24.5 40t24.5 28.5l23 21q12 11 14 13q-45 61 -45 139q0 80 41 152l12 18l-12 21q-51 84 -51 178q0 145 102 245.5t244 100.5q115 0 203 -70l-3 4l-8 8q0 2 43 15.5t118 28t140 14.5h13l14 -80l14 -80q-2 0 -22.5 4t-60.5 8t-89 4 q-8 0 -21.5 -1t-19.5 -1l-39 -2l-10 9q2 -2 14.5 -25t22.5 -44.5t19.5 -59t9.5 -76.5q0 -143 -101.5 -243.5t-242.5 -100.5q-88 0 -170 47q-10 6 -15 2q-12 -25 -12 -53q0 -72 61 -93l148 -2h49q43 0 60.5 -1t60.5 -4t67.5 -8t62.5 -15.5t61.5 -23.5t50 -32.5t43.5 -46.5 q45 -68 45 -141v-18q0 -133 -179 -220q-119 -57 -274 -57q-186 0 -303 70.5t-148 163.5q-4 16 -4 49zM231 -135q0 -18 1 -28.5t28 -36t80 -48.5q76 -27 172 -26q98 0 165.5 25.5t91.5 53t24 54.5q0 98 -166 127q-37 4 -185 4q-113 0 -129 -4q-14 -4 -29.5 -12.5t-34 -38 t-18.5 -70.5zM287 588q0 -90 44 -143.5t120 -53.5q68 0 120 43t52 153.5t-52.5 153.5t-119.5 43q-63 0 -113.5 -45t-50.5 -151z" />
<glyph unicode="h" horiz-adv-x="1058" d="M150 0v1421h184v-612q123 123 295 123q225 0 268 -207q8 -47 10 -389v-336h-190v322q-2 324 -4 333q-29 119 -183 119h-12q-59 0 -100 -41q-49 -49 -64.5 -117.5t-15.5 -187.5q0 -23 1 -77t1 -87v-264h-190z" />
<glyph unicode="i" horiz-adv-x="489" d="M137 1180v213h213v-213h-213zM152 0v909h184v-909h-184z" />
<glyph unicode="j" horiz-adv-x="546" d="M-121 -350q0 4 17.5 78.5t19.5 74.5l6 -6q8 -6 21.5 -15t31 -18.5t41 -15.5t47.5 -6q18 0 36 3t29 6t23 10l17 12q6 4 14 13t10.5 12t8.5 14l8 12v1085h184v-540q-2 -461 -3 -512.5t-13 -87.5q-27 -80 -91.5 -134.5t-156.5 -54.5q-59 0 -121.5 17.5t-95.5 33t-33 19.5z M180 1180v213h213v-213h-213z" />
<glyph unicode="k" horiz-adv-x="1001" d="M156 0v1421h178v-895l362 383h224l-334 -352l12 -18q8 -8 176 -257t174 -257l17 -25h-203l-129 188l-66 97l-56 83l-26 38l-18 26l-139 -147v-285h-172z" />
<glyph unicode="l" horiz-adv-x="489" d="M152 0v1421h184v-1421h-184z" />
<glyph unicode="m" horiz-adv-x="1626" d="M150 0v922h178v-119q129 129 295 129q113 0 168 -39t90 -109l14 17q119 131 301 131q225 0 268 -207q8 -47 11 -389v-336h-191v322q-2 324 -4 333q-29 119 -182 119h-13q-59 0 -100 -41q-49 -49 -64.5 -117.5t-15.5 -187.5q0 -23 1 -77t1 -87v-264h-190v322 q-2 324 -4 333q-29 119 -183 119h-12q-59 0 -100 -41q-49 -49 -64.5 -117.5t-15.5 -187.5q0 -23 1 -77t1 -87v-264h-190z" />
<glyph unicode="n" horiz-adv-x="1058" d="M150 0v922h178v-119q111 111 252 127q4 0 18 1t23 1h6q227 0 270 -207q8 -47 10 -389v-336h-190v322q-2 324 -4 333q-29 119 -183 119h-12q-59 0 -100 -41q-49 -49 -64.5 -117.5t-15.5 -187.5q0 -23 1 -77t1 -87v-264h-190z" />
<glyph unicode="o" d="M57 455q0 207 137.5 347t305.5 140q63 0 75 -2q170 -29 280 -168t110 -323q0 -195 -130 -332t-323 -137q-188 0 -321.5 137t-133.5 338zM250 471q0 -172 76.5 -251t185.5 -79h6q20 0 43 3t64 21.5t70.5 51.5t53 98.5t23.5 155.5q0 96 -27.5 163.5t-72.5 98.5t-85 43 t-79 12q-31 0 -60.5 -6t-66.5 -27.5t-64.5 -54t-47 -92t-19.5 -137.5z" />
<glyph unicode="p" horiz-adv-x="1058" d="M154 -397v1306h184v-41l2 -41q57 41 154.5 73t195.5 32h8q141 0 226 -174q66 -129 65 -303q0 -193 -102.5 -334t-259.5 -141q-49 0 -95.5 10t-78 24.5t-56 28.5t-38 24.5t-15.5 10.5v-475h-190zM344 242q66 -106 182 -107q115 0 194 95.5t79 224.5q0 133 -75 224 t-179.5 91t-182.5 -74l-18 -16v-438z" />
<glyph unicode="q" horiz-adv-x="1058" d="M68 451q0 215 110.5 347t243.5 132q164 0 276 -99l21 -16v117h184v-1329h-190v481l-21 -12q-127 -88 -286 -95q-55 0 -91 13q-106 35 -176.5 163t-70.5 298zM258 451q0 -123 71.5 -220.5t184.5 -97.5q111 0 205 119v358l-2 6q-2 6 -6 15.5t-10.5 22t-13.5 24.5 t-18.5 25.5t-24.5 24.5t-29.5 20.5t-34.5 15.5q-20 4 -56 4q-98 0 -182 -88t-84 -229z" />
<glyph unicode="r" horiz-adv-x="700" d="M152 0v922h174v-150l24 25q135 135 305 135h15v-168h-21q-113 -8 -198.5 -77t-108.5 -179q-4 -18 -6 -264v-244h-184z" />
<glyph unicode="s" horiz-adv-x="784" d="M57 72q2 2 9.5 43t13.5 81t8 40t17.5 -10.5t42 -24t61.5 -27.5t85 -24.5t101 -10.5q166 0 166 113q0 59 -53 90q-29 23 -126 40t-146 42q-100 45 -142 135q-27 51 -26 109q0 102 56 167.5t116.5 86t117.5 20.5h31q113 0 168 -12t150 -51q0 -2 -15 -84l-14 -80 q-109 76 -293 76h-10q-131 0 -131 -103q0 -59 48 -83.5t138 -40t139 -40.5q168 -88 168 -258q0 -45 -12 -87t-45 -91t-104.5 -78.5t-176.5 -29.5q-88 0 -173 22.5t-127 43t-42 26.5z" />
<glyph unicode="t" horiz-adv-x="739" d="M37 760v149h164v260h172v-260h274v-149h-274v-242q2 -256 14 -305q20 -74 92 -74q88 8 164 62q2 -10 19.5 -77t19.5 -69q0 -6 -40 -23.5t-115.5 -34.5t-149.5 -17h-25q-53 0 -90 49t-47 90t-12 67q-8 45 -8 328v246h-158z" />
<glyph unicode="u" horiz-adv-x="1058" d="M150 549v360h190v-360l2 -361q8 -27 14 -37t38 -20t93 -10q162 0 218 117q10 25 11 65.5t1 292.5v313h190v-909h-184v80q-2 -2 -18.5 -11.5t-26.5 -14.5t-32.5 -15t-42 -17.5t-50.5 -15.5t-60.5 -13t-68.5 -9t-80 -4h-12q-29 0 -51.5 4t-53 20t-50 57t-25.5 105 q-2 16 -2 383z" />
<glyph unicode="v" horiz-adv-x="944" d="M29 905q0 4 94 4q96 0 96 -4q2 -2 60.5 -159.5t122 -349t73.5 -259.5q2 63 99.5 342t154.5 426q0 4 92 4t92 -4l-335 -905h-213q-334 903 -336 905z" />
<glyph unicode="w" horiz-adv-x="1398" d="M29 909h186l6 -20q172 -561 189 -737v-19l2 21q10 141 166 663l28 92h174l37 -129q166 -551 166 -639l2 2q0 88 166 648l37 118h180l-274 -907l-105 -2h-104l-6 20q-176 582 -187 732l-2 20q-2 -4 -2 -14q0 -61 -47 -245.5t-91 -333t-48 -156.5l-6 -23h-97l-96 2z" />
<glyph unicode="x" horiz-adv-x="944" d="M0 0q2 2 97 119l191 232q95 116 95 118l-371 440h207l246 -307l240 307h100l100 -2q-6 -12 -293 -358l-65 -80l395 -469h-207l-133 180l-65 89q-37 50 -54 71l-18 22l-260 -362h-205z" />
<glyph unicode="y" horiz-adv-x="944" d="M29 907q0 2 96 2h98l27 -67q221 -524 233 -688l2 -21v19q16 178 228 716l16 41h92q92 0 92 -2l-102 -266l-212 -541q-108 -274 -116 -290q-92 -227 -231 -228h-21q-45 0 -75.5 4t-46 7.5t-21.5 3.5q0 2 -7 81.5t-7 81.5l24 -8q66 -25 135 -24q20 0 33 3t31 21.5t37 54.5 q12 25 44 108t32 87l-25 57l-74 177l-92 221l-93 220l-73 175z" />
<glyph unicode="z" horiz-adv-x="890" d="M57 0v104l502 656l-237 -2h-236v151h733v-100l-500 -653l252 2h252v-158h-766z" />
<glyph unicode="~" d="M170 395v23q6 102 62.5 177t148.5 75q51 0 133 -58.5t125 -58.5q51 0 57 92v25h156v-23q-6 -119 -69.5 -185.5t-137.5 -66.5q-53 0 -135 58.5t-127 58.5q-51 0 -57 -92v-25h-156z" />
<glyph unicode="&#xad;" horiz-adv-x="681" d="M23 381v149h544v-149h-544z" />
<glyph unicode="&#x131;" horiz-adv-x="489" d="M152 0v909h184v-909h-184z" />
<glyph unicode="&#x237;" horiz-adv-x="546" d="M-121 -350l25 78l24 77q63 -63 142 -63q49 0 87 21.5t48 56.5q4 12 4 551v538h184v-540q-2 -461 -3 -512.5t-13 -87.5q-27 -80 -91.5 -134.5t-156.5 -54.5q-59 0 -121.5 17.5t-95.5 33t-33 19.5z" />
<glyph unicode="&#x300;" horiz-adv-x="0" d="M-854 1421h190l127 -168l61 -82l50 -67l16 -23l-75 -2h-78l-142 166l-69 81l-57 68q-18 22 -19 23z" />
<glyph unicode="&#x301;" horiz-adv-x="0" d="M-616 1081l16 23l50 67l61 82l127 168h190l-4 -4q0 -2 -19 -23l-57 -68l-70 -81l-141 -166h-78z" />
<glyph unicode="&#x302;" horiz-adv-x="0" d="M-862 1083q6 6 137 170l135 168h154l135 -168l72 -88.5l51.5 -63t14.5 -19t-5 -3.5h-72h-77l-195 230q-12 -12 -104 -121l-93 -109h-77q-76 2 -76 4z" />
<glyph unicode="&#x303;" horiz-adv-x="0" d="M-854 1112v23q6 102 62.5 176.5t148.5 74.5q51 0 133 -58t125 -58q51 0 57 92v24h156v-22q-6 -119 -69.5 -185.5t-137.5 -66.5q-53 0 -135 58.5t-127 58.5q-51 0 -57 -92v-25h-156z" />
<glyph unicode="&#x304;" horiz-adv-x="0" d="M-883 1130v162h740v-162h-740z" />
<glyph unicode="&#x306;" horiz-adv-x="0" d="M-874 1411v10h155v-18q6 -74 62.5 -133.5t144.5 -59.5q90 0 144.5 58.5t60.5 134.5v18h155v-10q0 -133 -99 -252t-261 -119q-166 0 -264 121t-98 250z" />
<glyph unicode="&#x307;" horiz-adv-x="0" d="M-618 1180v213h212v-213h-212z" />
<glyph unicode="&#x308;" horiz-adv-x="0" d="M-813 1192v201h201v-201h-201zM-414 1192v201h201v-201h-201z" />
<glyph unicode="&#x30a;" horiz-adv-x="0" d="M-653 1251q0 78 70.5 124t150.5 46q96 0 162.5 -47t66.5 -123q0 -80 -69.5 -126t-155.5 -46t-155.5 45t-69.5 127zM-539 1249q0 -82 107 -82h4h4q106 0 107 82q0 51 -34 67.5t-89 16.5q-99 0 -99 -84z" />
<glyph unicode="&#x30b;" horiz-adv-x="0" d="M-817 1079l115 342h96q94 0 94 -2q-137 -305 -150 -340h-155zM-477 1079l115 342h96q94 0 94 -2q-137 -305 -150 -340h-155z" />
<glyph unicode="&#x30c;" horiz-adv-x="0" d="M-863 1336.5q0 1.5 5 2.5h72h77l93 -108l53 -63q25 -30 35 -41t16 -17l195 229h77q76 -2 76 -4q-6 -6 -137 -170l-135 -168h-154l-135 168l-72 88.5l-51.5 63.5t-14.5 19.5z" />
<glyph unicode="&#x393;" horiz-adv-x="1110" d="M178 0v1415h844v-164h-315l-316 2v-1253h-213z" />
<glyph unicode="&#x394;" horiz-adv-x="1705" d="M86 2q2 2 330 711l325 708h222l325 -708q328 -709 330 -711q0 -2 -766 -2t-766 2zM369 203l460 -2h461q0 2 -103 224l-219 482q-116 260 -139 342l-4 -20q-31 -115 -434 -979z" />
<glyph unicode="&#x398;" horiz-adv-x="1593" d="M115 705q0 176 61.5 323.5t160.5 240.5t219 145t239 52q123 0 242.5 -52t219 -146t161 -241.5t61.5 -321.5q0 -319 -202 -533.5t-480 -214.5q-281 0 -481.5 214.5t-200.5 533.5zM313 705q0 -262 142.5 -426t339.5 -164q203 0 343 168t140 424q0 160 -55.5 294t-172 221 t-272.5 87q-76 0 -154.5 -38t-149.5 -108.5t-116 -190.5t-45 -267zM428 612v201h735v-201h-735z" />
<glyph unicode="&#x39b;" horiz-adv-x="1251" d="M57 2q0 2 232 711l231 708h211l230 -708q231 -709 231 -711t-113 -2l-110 2l-8 21q0 4 -87 267l-172 553q-86 290 -96 384l-4 22v-8q0 -66 -87 -360l-181 -586q-94 -291 -94 -295h-93q-90 0 -90 2z" />
<glyph unicode="&#x39e;" horiz-adv-x="1366" d="M86 0v180h1192v-180h-1192zM96 1229v180h1172v-180h-1172zM227 643v178h910v-178h-910z" />
<glyph unicode="&#x3a0;" horiz-adv-x="1449" d="M176 0v1415h1096v-1415h-213v1260h-670v-1260h-213z" />
<glyph unicode="&#x3a3;" horiz-adv-x="1478" d="M113 0q2 6 238.5 342t238.5 338q0 4 -238 291l-239 289v161h1251v-164h-487l-488 3l455 -549l-185 -265q-176 -248 -192 -274l448 2h449v-174h-1251z" />
<glyph unicode="&#x3a5;" horiz-adv-x="1593" d="M113 1137v20q8 123 102 216t234 93h6q180 0 268 -182q47 -90 68 -211l6 -29l8 46q8 47 28.5 107t54.5 122.5t100.5 104.5t152.5 42q131 0 230 -88t108 -221v-20h-191v16q-4 59 -45 106.5t-102 47.5q-55 0 -95 -19.5t-66 -62.5t-41 -93.5t-23.5 -133.5t-10.5 -156.5 t-2 -188.5v-239v-414h-213v414q0 514 -12 604q-37 281 -215 289q-84 0 -121 -53.5t-39 -100.5v-16h-190z" />
<glyph unicode="&#x3a6;" horiz-adv-x="1478" d="M113 711q0 100 45 187t110.5 141.5t141 92t134 54t93.5 16.5q2 0 2 111v108h201v-219h6q129 -23 227 -72t151.5 -103t87.5 -118.5t43 -110.5t9 -87q0 -43 -11.5 -92.5t-46 -113t-90 -117.5t-151.5 -101t-219 -68h-6v-219h-201v111q0 109 -2 108q-51 0 -169 43t-212 131 q-143 140 -143 318zM322 710.5q0 -77.5 28.5 -139t68.5 -95.5t88 -56.5t78.5 -30.5t49.5 -12h4v334q0 334 -4 333q-10 0 -40 -7t-79 -30.5t-91 -57.5t-72.5 -97.5t-30.5 -141zM840 377q6 0 33.5 6t77.5 27.5t94.5 54.5t77 98.5t32.5 147.5q0 78 -30.5 141t-72.5 97 t-89.5 56.5t-76 29.5t-38.5 7l-8 2v-667z" />
<glyph unicode="&#x3a8;" horiz-adv-x="1593" d="M113 1116v156h106q109 0 115 -2q57 -14 80 -96q23 -76 22.5 -206t14 -250t73.5 -208q12 -20 29.5 -38.5t31 -30t33 -22.5t29.5 -16l28 -11q17 -7 21 -9v1038h201v-1038q88 39 117 66q47 41 77.5 98t42 134t13.5 109.5t4 100.5q0 289 63 354q31 27 91 27h67h107v-156h-6 q-2 0 -8.5 -1t-10.5 -1q-63 -16 -90 -117q-4 -27 -8 -120t-16.5 -172.5t-44 -175t-108.5 -171t-192 -114.5q-74 -20 -98 -23v-221h-201v221l-28 4q-418 80 -428 625q-2 92 -13 147q-27 100 -90 117q-4 0 -10 1t-8 1h-6z" />
<glyph unicode="&#x3a9;" horiz-adv-x="1478" d="M90 0v176h166q43 0 89 -1t50 -1l27 2q0 35 -48 127t-106.5 191.5t-106.5 226.5t-48 225q0 203 176 361.5t446 158.5q272 0 450.5 -156.5t178.5 -363.5q0 -113 -50 -235.5t-128 -257t-103 -195.5q-29 -72 -28 -82q4 -2 26 -2q4 0 50.5 1t89.5 1h165v-176h-516v29 q8 133 82 315l56 123q4 8 24.5 54t25.5 59.5t22.5 55.5t23.5 61l18 57q12 37 16.5 63.5t8.5 60t4 64.5q0 145 -106.5 256t-305.5 111q-201 0 -307 -112t-106 -255q0 -78 23.5 -168t45 -141t74.5 -166l55 -123q74 -182 82 -315v-29h-516z" />
<glyph unicode="&#x2000;" horiz-adv-x="768" />
<glyph unicode="&#x2001;" horiz-adv-x="1536" />
<glyph unicode="&#x2002;" horiz-adv-x="768" />
<glyph unicode="&#x2003;" horiz-adv-x="1536" />
<glyph unicode="&#x2004;" horiz-adv-x="512" />
<glyph unicode="&#x2005;" horiz-adv-x="382" />
<glyph unicode="&#x2006;" horiz-adv-x="256" />
<glyph unicode="&#x2007;" horiz-adv-x="256" />
<glyph unicode="&#x2008;" horiz-adv-x="190" />
<glyph unicode="&#x2009;" horiz-adv-x="307" />
<glyph unicode="&#x200a;" horiz-adv-x="83" />
<glyph unicode="&#x2010;" horiz-adv-x="681" d="M23 381v149h544v-149h-544z" />
<glyph unicode="&#x2011;" horiz-adv-x="681" d="M23 381v149h544v-149h-544z" />
<glyph unicode="&#x2012;" horiz-adv-x="681" d="M23 381v149h544v-149h-544z" />
<glyph unicode="&#x2013;" d="M0 483v156h1022v-156h-1022z" />
<glyph unicode="&#x2014;" horiz-adv-x="2048" d="M0 483v156h2046v-156h-2046z" />
<glyph unicode="&#x2018;" horiz-adv-x="569" d="M184 965v198l103 258h100l-31 -125q-31 -125 -32 -127q0 -4 30 -4h31v-200h-201z" />
<glyph unicode="&#x2019;" horiz-adv-x="569" d="M182 965l31 125q31 125 33 127q0 4 -31 4h-31v200h201v-198l-100 -258h-103z" />
<glyph unicode="&#x201c;" d="M356 965v198l103 258h100l-31 -125q-31 -125 -32 -127q0 -4 30 -4h31v-200h-201zM754 965v198l102 258h100l-30 -125q-31 -125 -33 -127q0 -4 31 -4h30v-200h-200z" />
<glyph unicode="&#x201d;" d="M66 965l30 125q31 125 33 127q0 4 -31 4h-30v200h200v-198l-100 -258h-102zM463 965l31 125q31 125 32 127q0 4 -30 4h-31v200h201v-198l-101 -258h-102z" />
<glyph unicode="&#x202f;" horiz-adv-x="307" />
<glyph unicode="&#x205f;" horiz-adv-x="382" />
<glyph unicode="&#xe000;" horiz-adv-x="910" d="M0 910h910v-910h-910v910z" />
<glyph unicode="&#xeffd;" horiz-adv-x="614" d="M0 0v205h205v-205h-205zM410 0v205h204v-205h-204z" />
<glyph unicode="&#xeffe;" horiz-adv-x="614" d="M0 0v205h205v-205h-205zM410 0v205h204v-205h-204z" />
<glyph unicode="&#xefff;" horiz-adv-x="204" d="M0 0v205h205v-205h-205z" />
</font>
</defs>
</svg>
