<?xml version="1.0" standalone="no"?>
<!DOCTYPE svg PUBLIC "-//W3C//DTD SVG 1.1//EN" "http://www.w3.org/Graphics/SVG/1.1/DTD/svg11.dtd" >
<svg xmlns="http://www.w3.org/2000/svg">
<metadata>
This is a custom SVG webfont generated by Font Squirrel.
Copyright   : Copyright c 20092010 Design Science Inc
</metadata>
<defs>
<font id="MathJax_FrakturRegular" horiz-adv-x="1028" >
<font-face units-per-em="2048" ascent="1638" descent="-410" />
<missing-glyph horiz-adv-x="512" />
<glyph unicode=" "  horiz-adv-x="512" />
<glyph unicode="&#x09;" horiz-adv-x="512" />
<glyph unicode="&#xa0;" horiz-adv-x="512" />
<glyph unicode="!" horiz-adv-x="606" d="M186 98q0 49 34 82t83 33q47 0 81 -35t34 -80q0 -53 -34 -88t-79 -35q-51 0 -85 37t-34 86zM209 1270q0 78 21.5 109.5t80.5 31.5q78 0 78 -104q0 -68 -47 -543l-39 -381l-31 -6q-63 815 -63 893z" />
<glyph unicode="&#x22;" horiz-adv-x="440" d="M16 1327q0 31 3.5 48.5t19.5 32.5t49 15q41 0 64 -28q4 -6 4 -64v-55l-21 -186q-18 -182 -22 -197v-8h-45v8q-52 342 -52 434zM262 1364q0 51 69.5 51t69.5 -47q0 -70 -20 -281q-20 -184 -21 -202h-20q-23 0 -23 4l-26 227l-25 209q-4 35 -4 39z" />
<glyph unicode="&#x26;" horiz-adv-x="1511" d="M100 399q0 74 23.5 136.5t73 110.5t93.5 80t113 73l23 14q-55 127 -55 252q0 172 102 267t199 95l4 3h10q2 0 10.5 -1.5t12.5 -1.5q90 0 147 -56t57 -134q0 -102 -65 -190q-61 -90 -234 -193l-34 -23q-4 -2 27.5 -66.5t104 -179t158.5 -212.5q84 -96 91 -97q2 0 8 11 l14 24q8 14 12 27q47 92 47 201q0 39 -4 59q-18 51 -38.5 82t-47 42t-45 14t-51.5 3q-61 0 -125 -6l-22 -4l2 37q0 41 2 45v6h14q23 -6 369 -6q262 0 315 4l29 2q0 -2 -3 -49t-3 -49l-25 4q-68 6 -178 8q-98 0 -98 -4q18 -47 18 -125q0 -29 -3 -55.5t-11 -52.5l-15 -49 q-6 -22 -19 -47l-21 -40q-7 -14 -22.5 -38.5t-20.5 -31.5l-21 -30l-17 -22l15 -17q109 -109 205 -108q55 0 99 27.5t67.5 67.5t40 81t22.5 69l4 27v2l2 4q6 0 25.5 -6t19.5 -8q0 -8 -2 -22.5t-12 -55.5t-24.5 -79t-41 -84t-60.5 -78.5t-85 -55.5t-111 -23q-141 0 -258 107 l-18 16l-19 -14q-158 -104 -307 -104q-49 0 -86 6q-94 10 -166.5 49t-110.5 86t-62.5 105.5t-31 98t-6.5 72.5zM260 444q0 -147 95.5 -262.5t240.5 -115.5q55 0 115.5 21.5t93.5 42t33 24.5q-51 51 -172 224t-201 341q-8 31 -14 31q-10 0 -86 -58q-105 -82 -105 -248z M496 1145q0 -53 14 -116.5t27.5 -100.5t15.5 -37t19 11l39 26q22 14 32 22q123 80 123 232q0 61 -38 106t-91 45q-45 0 -82 -30q-59 -45 -59 -158z" />
<glyph unicode="'" horiz-adv-x="434" d="M141 1341v23q0 29 20.5 44t51.5 15q16 0 27.5 -3t22.5 -20.5t11 -49.5l-61 -453q0 -4 -16.5 -4t-16.5 4q0 18 -19.5 209.5t-19.5 234.5z" />
<glyph unicode="(" horiz-adv-x="796" d="M233 563q0 442 89.5 662.5t277.5 283.5v-36q-4 -2 -17.5 -10.5t-18.5 -12.5t-16 -12t-19.5 -15.5t-17.5 -18.5t-17 -24q-158 -213 -158 -802q0 -651 135 -822q88 -106 127 -106q2 0 2 -17v-14h-8q-39 12 -62 23q-172 88 -234.5 311t-62.5 610z" />
<glyph unicode=")" horiz-adv-x="796" d="M182 -348l25 10q96 39 146 113.5t77 252t27 502.5q0 260 -23.5 441.5t-70 276.5t-85 138.5t-96.5 75.5v43q66 -18 103 -45q281 -186 280 -901q0 -358 -61 -606q-43 -170 -118 -238.5t-204 -97.5v35z" />
<glyph unicode="*" horiz-adv-x="569" d="M70 1057l172 117q0 4 -86 59l-86 55l32 37l11 10l22 -20l51 -45l54 -45l22 -17q0 150 -6 199v10h53v-6v-4q0 -4 -1 -8t-1 -10v-13q-10 -90 -12 -137v-27l154 123l26 -37q0 -4 -24 -20q-51 -29 -134 -86l-18 -14l25 -17q41 -31 80.5 -56.5t56 -34.5t16.5 -13 q0 -2 -14 -21.5t-19 -21.5l-133 110l-18 13v-52q2 -43 5 -78.5t5 -53t2 -23.5q0 -10 -14 -10h-35v26q6 123 6 178v27l-26 -21l-115 -94l-29 -22q-2 0 -13 20.5t-9 22.5z" />
<glyph unicode="+" horiz-adv-x="1548" d="M96 498l8 20l8 21q5 14 7 18l8 21h604v618l86 29v-647h635l-14 -39l-13 -41h-608v-629l-41 -19l-43 -18q-2 0 -2 334v332h-635z" />
<glyph unicode="," horiz-adv-x="569" d="M203 127q0 41 31.5 66.5t60.5 25.5q31 0 71 -62.5t54 -103.5q16 -43 16 -100q0 -53 -12 -87t-53 -97q-109 -156 -121 -160q-2 0 -12.5 15.5t-10.5 19.5q0 2 23.5 38.5t46 91t22.5 99.5q0 37 -9 57.5t-50 77.5l-47 68q-10 24 -10 51z" />
<glyph unicode="-" horiz-adv-x="1548" d="M94 483l33 78q0 2 659 2h660l-14 -41l-13 -39h-1325z" />
<glyph unicode="." horiz-adv-x="569" d="M178 88q0 53 35 87t78 34q45 0 82 -34t37 -85q0 -49 -36 -85t-85 -36q-47 0 -79 36t-32 83z" />
<glyph unicode="/" d="M70 -371l401 924q401 924 406 924l38 -9l39 -8l-36 -84q-758 -1745 -760 -1747q0 -2 -45 -2z" />
<glyph unicode="0" d="M86 399q0 238 184 412q78 76 163 136.5t104 60.5q20 0 79.5 -32t133 -87t129 -152.5t55.5 -208.5q0 -199 -161 -377t-339 -178q-57 0 -115.5 22.5t-111.5 70t-87 134t-34 199.5zM244 512q0 -168 82 -279.5t213 -111.5q92 0 166.5 70.5t74.5 236.5q0 98 -32.5 177 t-76.5 122t-94.5 71.5t-80 38t-39.5 9.5q-6 0 -40 -20.5t-76 -56.5t-60 -71q-37 -73 -37 -186z" />
<glyph unicode="1" d="M96 -4v92h152h100q51 0 64.5 4t15.5 23q6 29 6 323q0 244 -6 310.5t-31 89.5q-23 16 -68.5 28.5t-80.5 14.5l-35 4q-2 0 -2 28v27h41q45 0 97 2t95 4t80 4t58 4l22 2q2 0 2 1t2 1l25 -18q-4 -10 -10.5 -72.5t-10.5 -170t-4 -216.5q0 -197 3 -275.5t8.5 -93t21.5 -22.5 q6 -2 111 -2l190 6q0 -23 -2 -49v-47h-18q-98 6 -347 14q-121 0 -225 -4t-163.5 -7t-71.5 -3z" />
<glyph unicode="2" d="M123 2v33l96 90q211 201 291 301q123 154 123 252q0 66 -50.5 119t-115.5 53q-33 0 -91.5 -24.5t-101.5 -49.5l-41 -24l-20 34l60.5 51t134 82.5t167.5 51.5q82 0 144.5 -56.5t68.5 -140.5q0 -102 -107.5 -252.5t-214 -261t-106.5 -113.5q0 -10 15 -14q2 0 42 1l115 3 l146 4l295 9l18 -13q0 -6 -24 -69l-25 -66h-819z" />
<glyph unicode="3" d="M80 -289q0 4 14 29l15 27l32 -17q123 -55 209 -55q96 0 168 38t108 98t51 116.5t15 111.5q0 25 -4 53.5t-16.5 70.5t-41 78t-71.5 52q-92 37 -227 37q-8 0 -21.5 -1t-19.5 -1h-31v70h14q201 20 289 108q61 72 62 146q0 90 -54.5 140t-132.5 50h-6q-80 0 -170 -76l-43 29 l19 14q72 66 153.5 103t122.5 37h18q111 0 166.5 -38t83.5 -124q4 -16 4 -55t-4 -60q-41 -154 -227 -248l-31 -14l2 -8l4 -8q2 0 28 -2t48.5 -6.5t57 -13.5t64.5 -26.5t59.5 -44t52 -69.5t34.5 -98q4 -23 5 -70q0 -205 -157 -331t-347 -126l-195 37q-14 4 -39 15l-43 21 q-18 9 -18 11z" />
<glyph unicode="4" d="M20 37q0 10 295 446l295 437q0 2 84 28l82 27q12 -6 10 -12v-9v-18q0 -12 -1 -26.5t-1 -35.5v-38q-4 -164 -4 -328q0 -414 6 -426h7q72 0 149 8h21h16l6 2q0 -4 -7 -44t-9 -46q0 -4 -19 -4q-4 0 -26.5 1t-42.5 1h-88v-156l4 -163v-11l-160 -61q-25 20 -25 24 q14 47 15 269v98h-604v14q-3 7 -3 23zM162 88q0 -2 231 -2h234v150q0 379 -15 499v10h-24l-21 -24q-88 -113 -186 -263.5t-152.5 -245.5t-66.5 -124z" />
<glyph unicode="5" d="M96 -326l13 25l10 27q4 0 32.5 -10.5t73.5 -19.5t94 -9q102 0 179 37.5t115 98t54.5 117t16.5 111.5q0 152 -78 223.5t-182 71.5q-109 0 -205 -94l-18 -19l-19 13l-18 10v682h696q0 -4 -22 -82l-25 -80q0 -2 -272 -2h-273q-2 -2 -7 -5t-5 -4t-3 -5t-3 -6t-1 -10.5 t-1 -15.5v-21v-136v-182l18 -8l21 8q115 49 245 49q104 0 181.5 -34.5t115 -90t55 -112t17.5 -115.5t-15.5 -118.5t-55 -123t-101 -111.5t-164 -79t-231.5 -31h-15q-94 0 -202 43z" />
<glyph unicode="6" d="M92 492q0 180 57.5 340.5t144.5 266t188.5 183.5t188.5 114t146 36q2 0 10.5 1t14.5 1q27 0 62.5 -8.5t35.5 -14.5q0 -37 -16 -106q0 -8 -9 -11l-6 -6l-20 8q-43 14 -103 15h-14q-160 0 -317 -154q-82 -70 -136.5 -209t-54.5 -303v-18h15l26 18q164 125 342 125h4 q154 0 234 -103.5t80 -230.5q0 -172 -141.5 -317.5t-338 -145.5t-295 148t-98.5 371zM272 537l2 -27q41 -444 271 -444q100 0 178 66.5t78 219.5q0 121 -77 206t-196 85q-57 0 -119.5 -25.5t-93.5 -47t-43 -33.5z" />
<glyph unicode="7" d="M76 -344l41 57l291 430l286 445q115 182 115 184l-8 10h-340q-340 0 -340 2l31 82q31 84 30 86q2 6 11 6q106 -16 524 -20h303v-33l-51 -74q-475 -678 -713 -1150l-25 -52h-149z" />
<glyph unicode="8" d="M82 322q0 135 76 223q53 59 161.5 126.5t141.5 96.5q45 37 45 39l-84 -68q-2 0 -26.5 15.5t-59.5 47.5t-69 71.5t-58.5 97t-24.5 116.5q0 100 49 173q66 92 254 170l33 14l17 -2q53 0 144 -23.5t142 -75.5q66 -74 66 -180q0 -102 -67.5 -190t-164.5 -150l-32 -22l63 -47 q6 -4 36 -25.5l38 -27t34.5 -26t35 -29.5l30 -30.5t28.5 -36t21.5 -37t18.5 -42.5l9 -46q5 -26 5 -55q0 -182 -148.5 -300.5t-344.5 -118.5q-106 0 -183.5 33.5t-115 89t-54 110t-16.5 109.5zM252 362q0 -63 18.5 -123.5t79 -112.5t152.5 -52q63 0 113.5 19.5t78 48t45 67.5 t22.5 70.5t5 64.5q0 88 -68 178q-35 41 -73.5 70t-143.5 88q-8 -4 -40.5 -23.5t-46 -29t-41 -31t-41 -41.5t-30 -49t-23.5 -65t-7 -79zM338 1161q0 -143 197 -293l24 -18q158 106 158 266q0 68 -26.5 115t-68.5 68.5t-77 29.5t-66 8l-20 2l-41 -30q-16 -10 -27.5 -20.5 t-17.5 -16.5t-12.5 -14.5t-7.5 -11.5t-5 -12t-4 -11q-6 -25 -6 -62zM508 807l4 2q4 4 4 6q-2 0 -6 -4zM520 817l4 2q4 4 4 6q-2 0 -6 -4zM535 829l4 5q-2 -1 -4 -5z" />
<glyph unicode="9" d="M57 479q0 80 19.5 143.5t46.5 105.5t84 84t104 67.5t135 66.5l33 15h19q215 -16 311 -107q145 -141 145 -442q0 -264 -141 -471t-381 -275q-115 -33 -246 -39h-39v58h17q131 0 251 48t193 144q96 131 123 311q-8 2 -10 2t-66.5 -29.5t-140.5 -60t-102 -30.5 q-152 6 -234 92q-121 120 -121 317zM238 545q0 -150 77.5 -250t171.5 -100h23q246 0 246 231q0 66 -14.5 132.5t-48.5 136t-99.5 112.5t-155.5 43q-88 0 -144 -89t-56 -216z" />
<glyph unicode=":" horiz-adv-x="442" d="M102 819q0 47 29 82t72 35q59 0 97 -36t38 -83q0 -49 -40 -83t-89 -34t-78 36t-29 83zM109 88q0 49 27.5 88t74.5 39q53 0 93 -38t40 -93q0 -49 -44 -79t-91 -30q-45 0 -72.5 32t-27.5 81z" />
<glyph unicode=";" horiz-adv-x="442" d="M96 817q0 51 32 86t79 35t86 -34t39 -85t-38 -84t-87 -33q-47 0 -79 35t-32 80zM135 106q0 29 10.5 48.5t10.5 21.5q0 4 8 10.5t22.5 11.5t30.5 5q27 0 51 -27q98 -104 99 -227q0 -80 -69 -184.5t-116 -151.5q-6 4 -12 9t-9 6t-5 4t-1 6.5t3 7.5t6 10q84 123 84 213 q0 41 -56.5 120.5t-56.5 116.5z" />
<glyph unicode="=" horiz-adv-x="1548" d="M111 274q2 2 10 38t8 38h678q678 0 678 -4q-2 -2 -8.5 -34.5t-10.5 -37.5v-4h-678q-677 0 -677 4zM111 678q2 2 10 38t8 38h678q678 0 678 -4q-2 -2 -8.5 -35t-10.5 -37v-4h-678q-677 0 -677 4z" />
<glyph unicode="?" horiz-adv-x="741" d="M94 1141q0 115 117 196.5t254 81.5q123 0 194.5 -69.5t71.5 -194.5q0 -96 -63.5 -194.5t-138 -163t-138 -131t-63.5 -109.5q0 -66 55 -104q12 -8 12 -11q-23 -14 -47 -32l-47 -33q-41 16 -70.5 52t-29.5 83q0 82 194 258q193 160 193 340q0 80 -51.5 152.5t-151.5 72.5 q-92 0 -128 -43t-36 -88q0 -59 66 -125l-125 -75q-68 51 -68 137zM221 96q0 43 31 79t76 36q39 0 77.5 -27.5t38.5 -89.5q-4 -45 -32.5 -81t-75.5 -36q-45 0 -80 35t-35 84z" />
<glyph unicode="A" horiz-adv-x="1470" d="M45 1034q0 119 147.5 244t362.5 125h18q279 0 334 -256q8 -51 8 -115q-6 -184 -86 -356l-12 -23l-348 -336q8 -2 24.5 -5t24.5 -6t24.5 -10t33 -19.5t41 -34t55.5 -52.5l59 -59l92 57l146 93l55 34v379q0 387 -10 520v17l131 98q127 96 133 96l29 -20l-19 -19 q-61 -55 -74 -79q-23 -49 -24 -275q-2 -29 -2 -125q0 -264 8 -420v-29q0 -24 1 -28t2 -23.5t2 -24.5t3 -21.5t6 -25.5t9.5 -24.5t12.5 -30.5l15 -32q43 -90 64 -90q43 0 129 49q2 -12 6 -23l2 -8v-4l-145 -113l-73 -56l-55 -42q-19 -14 -20 -12l-131 299q-2 0 -207 -150 l-205 -151q-2 0 -16 22.5t-39 54t-55.5 63.5t-74.5 54.5t-89 22.5q-92 0 -219 -76l-21 -12l-16 10l-16 12l184 142q152 115 244 192q160 141 210 238.5t50 244.5q0 180 -105 277q-109 104 -241 104q-90 0 -159 -57t-73 -129q0 -49 97.5 -153.5t97.5 -163.5q0 -80 -84 -160 q-55 -57 -137 -101l-19 -10l-29 21l19 16q109 70 108 148q0 37 -46 86t-92 111t-46 130z" />
<glyph unicode="B" horiz-adv-x="1810" d="M98 1036q0 127 148.5 253t302.5 126q193 0 321 -198l13 -19l20 19q76 70 179.5 129t205.5 59q74 0 119 -33q33 -25 64.5 -176.5t70.5 -159.5q6 -2 21 -2q31 0 84 15l22 8l10 -41q0 -4 -24.5 -13.5t-70.5 -29t-85 -43.5l-49 -35l-68 -45q-6 -4 -22.5 -13.5t-28.5 -17.5 t-20 -12l-31 -23q2 -2 20 -2q35 0 73 -7t86 -29.5t85 -57.5t62.5 -96.5t25.5 -140.5q0 -98 -43 -201q-14 -33 -21 -42t-42 -36q-186 -150 -259 -188.5t-165 -38.5q-113 0 -309.5 75.5t-282.5 75.5q-63 0 -130 -26.5t-108 -53t-43 -26.5t-16 25.5t-14 27.5l202 125 q129 78 181 119q100 84 137 151q35 76 35 285q0 481 -287 547q-12 2 -47 2q-92 0 -135 -51q-45 -55 -45 -99q0 -45 93 -159.5t93 -169.5q0 -72 -60.5 -137.5t-152.5 -114.5q-33 -16 -37 -17q-6 0 -33 21l25 16q106 72 106 141q0 18 -8 33q-25 37 -62.5 87t-56 77t-34 63.5 t-15.5 73.5zM623 242l30 -4q127 -10 320.5 -86t259.5 -76q109 0 168 86t59 198q0 156 -106.5 245t-272.5 89q-33 0 -69.5 -6t-58 -13t-21.5 -9q-2 0 -6 -29t-17.5 -85t-38.5 -108l-10 -20zM928 1081q8 -66 8 -223l2 -127l61 21q135 47 275 118q104 49 104 58l-4 2 q-4 4 -12 13t-16.5 25.5t-18.5 52.5t-18 87q-20 115 -47 147q-35 41 -101 41q-68 0 -151 -69q-45 -45 -74 -121z" />
<glyph unicode="C" horiz-adv-x="1255" d="M121 653v19q6 172 76 325l10 27l35 25q145 104 260 161l43 21l67 -33q158 113 422 205q2 0 17.5 -47t36 -100.5t34.5 -67.5q10 -8 31 -8q25 0 86 18q4 0 4 -20v-23q-143 -66 -227 -76q-43 31 -82 83t-59.5 87t-24.5 35q-10 0 -34.5 -18.5t-33.5 -30.5q-18 -31 -18 -92.5 t27.5 -170t27.5 -155.5q0 -127 -69 -196q-47 -45 -118 -76t-113 -40t-56 -9l-25 30q0 2 19.5 7.5t56.5 25t74 53.5q35 35 35 125q0 74 -31 186.5t-31 166.5q0 43 6 59v6h-16q-131 -12 -198.5 -130t-67.5 -292q0 -309 179 -474t443 -165q10 0 29.5 1t26.5 1l30 2l238 119 q2 0 2 -27v-26l-175 -113q-71 -47 -88.5 -60.5t-28.5 -18.5t-34 -11q-70 -10 -155 -10q-14 0 -34 1t-32 2t-18 1q-279 41 -413 224t-134 474z" />
<glyph unicode="D" horiz-adv-x="1703" d="M55 774v31q12 268 181 430q92 92 236 130t276 38q119 0 141 -2q637 -63 637 -572q0 -254 -105 -520l-14 -37l-61 -61q-272 -266 -383 -266q-29 0 -285 93t-356 93q-72 0 -150 -74q-35 -39 -55 -69l-15 -21l-14 17l-16 16q0 6 22.5 45t75.5 106.5t119 120.5h26 q111 6 204 58.5t93 140.5q0 59 -46 123.5t-92 118t-46 90.5q0 86 92 179t213 157l21 10l28 -23q0 -2 -2 -4t-8 -6l-12 -8q-37 -29 -93.5 -93.5t-56.5 -105.5q0 -29 93.5 -163t93.5 -179q0 -76 -74 -154.5t-176 -133.5l-31 -19q106 -18 303 -91t232 -73q72 0 142.5 66.5 t106.5 134.5q74 129 74 365q0 137 -41 242.5t-106.5 170t-155.5 105.5t-178 56t-184 15q-94 0 -174 -14t-137.5 -42t-103.5 -59.5t-76 -73.5t-51.5 -77t-34.5 -78t-19.5 -67.5t-10.5 -55t-4 -32.5l-22 10z" />
<glyph unicode="E" horiz-adv-x="1357" d="M176 645q0 193 78 361q8 18 31 34q147 106 272 170l43 21l66 -33l26 19q164 104 398 186q2 0 16 -46t34.5 -99.5t35.5 -67.5q12 -12 34 -12q18 0 52 10t36 10v-43l-22 -10q-104 -49 -186 -62l-21 -4q-63 41 -164 205q0 2 -4 0t-11 -6t-13 -8q-37 -20 -48.5 -47t-11.5 -78 v-12q0 -39 21 -136q20 -115 36 -241l101 63q102 63 102 66q10 -12 23 -25q57 -78 133 -125q18 -12 16 -14t-72.5 -42t-76.5 -40q-2 0 -65.5 47t-86.5 47q-25 0 -50.5 -13t-27.5 -30q-63 -193 -331 -233l-25 -4l-16 16l-17 14l21 6q59 16 119 56q35 23 45 50.5t10 92.5 q0 119 -31 235.5t-31 163.5q0 37 7 62q0 6 -5 6q-125 0 -201.5 -117.5t-76.5 -298.5q0 -166 52 -293t142.5 -202.5t201 -112.5t237.5 -37q35 0 51 2l25 2l239 119v-53l-264 -174l-5 -5q-3 -3 -6 -5.5t-8.5 -5.5t-10.5 -5t-14 -4t-19.5 -4t-25.5 -4t-33.5 -3t-43.5 -2t-53 -1 q-287 8 -457 186t-170 508z" />
<glyph unicode="F" horiz-adv-x="1251" d="M23 338q158 111 270 111q41 0 70.5 -45.5t29.5 -143.5q0 -51 -13 -127t-13 -125q0 -131 64.5 -189.5t125.5 -58.5q96 0 184 87t88 221q0 80 -87 218l-174 269q-87 131 -87 199q0 35 16.5 73.5t43 72.5t58.5 66.5t65 58.5l59 45l43 32l16 10q0 2 -63.5 39t-157.5 75 t-155 38q-43 0 -81 -17.5t-62.5 -45t-45 -61.5t-32 -68t-18.5 -61l-11 -44l-2 -19q-2 0 -17.5 10.5t-15.5 12.5q0 29 8 74t36 110.5t68.5 118.5t115.5 92t169 39q39 0 86 -12q72 -16 183.5 -72.5t170.5 -95.5q61 -37 115 -37q51 0 146 94l34 35v-55l-26 -35 q-158 -203 -240 -203q-33 0 -96 29l-31 14q-66 -10 -146.5 -71.5t-80.5 -145.5q0 -39 29.5 -100.5t58.5 -104.5t31 -43q0 -2 16 14.5t47 44t64 60.5l125 119q96 -113 106 -160q0 -4 -23 -35l-43 -59l-22 -27q-41 82 -102 82q-57 0 -146 -86l33 -43q102 -137 156 -248 q29 -68 28 -119q0 -184 -168 -321t-366 -137h-6q-92 0 -170 67q-70 63 -70 230q0 41 6 99t6 114q0 74 -13 103.5t-63 29.5q-53 0 -114 -37l-4 22z" />
<glyph unicode="G" horiz-adv-x="1607" d="M135 653q0 252 96 381l160 96q160 98 162 99h2q4 0 18 -8l27 -16q12 -7 12 -5q2 0 119 76q115 74 119 74l22 -21q-109 -92 -108 -182q0 -35 10 -105.5t20.5 -125t12.5 -54.5q4 0 45 25.5t119 84t151 128.5l-20 12q-117 55 -176 174l71 64q70 63 72 63l8 -12 q6 -14 19.5 -34.5t32 -43.5t49 -44.5t65.5 -33.5q20 -4 29 -4q47 0 80 33l8 -45l-342 -297q-4 -4 61 -4h39q168 0 244 -94l2 -3q90 -100 90 -223q0 -207 -162 -385l-20 -22l-90 -60q-217 -156 -256 -172q-80 -23 -168 -22q-268 0 -441 174q-182 182 -182 532zM295 741 q0 -305 173 -480t392 -175q193 0 303.5 126t110.5 310v10q0 123 -90 199q-106 88 -256 88q-39 0 -88 -8l-23 -4l2 -33v-12q0 -86 -24.5 -146.5t-83 -95.5t-88 -46t-107.5 -30q-14 -4 -20 -6l-17 -2l-16 15l-14 16q176 70 176 207v28q0 84 -23.5 187.5t-23.5 173.5 q0 88 10 98q0 4 -2 4q-131 -27 -195 -100q-96 -115 -96 -324z" />
<glyph unicode="H" horiz-adv-x="1474" d="M2 0q12 12 50 55l65.5 72t68.5 54.5t76 25.5q63 -4 137 -72l17 -14l16 16q57 57 57 135q0 51 -59 165l-119 239q-59 125 -59 205q0 96 102.5 217t197.5 193.5t103 72.5q115 -115 246 -123h6q29 0 48.5 11.5t107.5 72.5l47 35q2 0 2 -21v-22l-43 -43q-180 -174 -244 -174 q-31 0 -75.5 12t-76.5 24.5t-74 31t-46 20.5l-18 10l-17 -22q-96 -117 -96 -203q0 -47 24.5 -121t49.5 -123l26 -51q2 0 31 28.5t112 95t197 138.5l33 18h33q188 -10 317 -96l21 -12l10 -47q43 -174 43 -326q0 -279 -66 -459q-16 -39 -22 -49t-41 -41q-156 -141 -234 -182 q-43 -18 -73 -18q-35 2 -67 14t-47 23.5t-15 15.5q0 2 49 65l47 66q35 -49 59.5 -61.5t57.5 -12.5h4q10 0 21.5 3t34 17.5t40.5 40t35.5 76t25.5 119.5q14 104 15 275q0 106 -2 133q-8 66 -20.5 113t-40 100t-81 82.5t-131.5 29.5q-164 0 -303 -223q-8 -14 -6 -20 q55 -141 55 -240q0 -14 -1 -25.5t-3 -21.5t-3 -16.5t-7 -16.5t-8 -12t-12.5 -15.5t-12.5 -17.5q-133 -172 -202 -246l-25 -26l-35 35q-84 84 -139 84q-37 0 -123 -80l-20 -19z" />
<glyph unicode="I" horiz-adv-x="1134" d="M61 969l11 30q78 217 146.5 303.5t189.5 100.5q2 2 24 2q80 0 235.5 -69.5t186.5 -71.5q37 0 78 19.5t87 53t50 35.5q20 -20 21 -33q-129 -129 -291 -213l-25 -14l-72 27q-246 92 -313 92q-59 0 -109.5 -28.5t-82 -70.5t-53 -84t-33 -71t-13.5 -29q-8 4 -18 10zM78 0 l20 27q57 76 154 172l55 57q8 12 19 12q14 0 25 -30.5t22.5 -72.5t21.5 -56q12 -20 48 -42t92 -22q94 0 170 94q70 92 69 287q0 84 -18.5 225.5t-18.5 216.5q0 12 1 32t1 24l2 22q111 131 246 223l27 19l16 -6l17 -4l-25 -27q-117 -123 -117 -199q0 -59 20.5 -198.5 t20.5 -249.5q0 -158 -42 -243t-116 -146q-190 -168 -389 -168q-92 0 -186 82l-16 14l-109 -76q0 2 -1 4t-4 9.5t-5 19.5z" />
<glyph unicode="J" horiz-adv-x="1130" d="M-20 164q10 10 46.5 37.5t102.5 60.5t113 33q63 0 93 -32t33 -72.5t5 -112.5t10 -117q25 -158 186 -158q33 0 65 10.5t68.5 37t59 86t22.5 143.5q0 117 -55 336t-55 323q0 6 1 18.5t1 16.5l2 21l16 22q47 61 112.5 129t107.5 104.5t47 36.5q2 0 16 -9t14 -11l-20 -25 q-129 -154 -129 -266q0 -78 48 -319.5t48 -288.5q0 -166 -140.5 -309.5t-308.5 -143.5q-117 0 -179 46t-76.5 113t-19.5 132.5t-27.5 111.5t-80.5 46q-51 0 -114 -33zM113 1038q0 4 10 29q55 133 147 235.5t185 102.5q59 0 138 -54l151 -109q73 -54 120 -54q41 0 90.5 16.5 t81.5 32.5l33 16v-43l-72 -34q-238 -117 -262 -117h-4q-51 10 -158.5 91t-175.5 81q-39 0 -80 -22.5t-70.5 -54.5t-53 -63.5t-37.5 -54.5l-15 -22q-28 16 -28 24z" />
<glyph unicode="K" horiz-adv-x="1368" d="M35 63q0 4 65 78l64 76q63 -141 151 -141q133 8 134 215q0 125 -60.5 328.5t-60.5 269.5q0 23 24.5 78t76.5 127.5t122 139t174 113t217 46.5h25q213 0 299 -129v-37q0 -43 -7.5 -91.5t-14.5 -77t-11 -32.5q-12 -12 -31 -12q-2 0 -2 8q0 2 -1 12t-1 17q-37 236 -348 235 q-63 0 -120.5 -15.5t-112 -50t-86 -103t-31.5 -163.5q0 -102 28 -182l7 -20l30 30q37 39 84 82t142.5 101.5t166.5 58.5q66 0 103 -47t53 -113.5t21 -72.5q2 -8 12 -20.5t32.5 -26t51.5 -13.5q23 0 45 8q0 -2 -5 -21.5t-7 -21.5l-156 -71l-156 -68q8 -2 22.5 -5t26 -7 t27.5 -13l21 -10l14 -26q29 -63 55.5 -175t36.5 -131q41 -82 109 -81q66 0 133 43v-41l-15 -17q-59 -59 -129.5 -104t-117.5 -45q-16 0 -34 8t-43.5 29.5t-47 75t-31.5 128.5q-27 166 -62.5 223.5t-142.5 57.5q-84 0 -182 -43l-2 -23q0 -74 -8 -118q-2 -27 -45 -82 q-158 -199 -308 -250l-20 -6l-23 4q-90 24 -151 114zM547 666l8 -25q35 -115 35 -162q2 0 219 86t219 88q-2 2 -7 8.5l-11 14.5t-16.5 30.5t-20.5 53.5q-4 14 -14.5 35.5t-39 57.5t-57.5 36q-20 4 -33 4q-72 0 -142.5 -60.5t-123.5 -142.5z" />
<glyph unicode="L" horiz-adv-x="1363" d="M68 0q0 16 67.5 142t91.5 132q287 45 287 199q0 47 -93 225.5t-93 259.5q0 125 159 281q154 147 383 164l15 2h26q154 0 206 -60.5t52 -164.5q0 -57 -7 -121t-7 -76q0 -29 17.5 -42t72.5 -15h31v-43l-8 -2q-2 0 -16.5 -4.5t-41.5 -10.5l-51 -12l-102 -27q-39 23 -51.5 31 t-22.5 28.5t-10 57.5q0 18 5 76.5t5 97.5q0 31 -1 47.5t-11 47t-30.5 48t-62.5 32t-102 14.5q-117 0 -197.5 -66.5t-89.5 -163.5q-4 -94 84 -270q80 -172 82 -258v-37q-25 -31 -155 -166l-84 -84h14q10 0 95 -32.5t207 -65.5t222 -33q123 0 202 49t124 201q2 4 4 9t2 7l2 4 q29 -18 31 -20q-53 -238 -82 -297q-55 -115 -186 -133q-35 -4 -76 -4q-119 0 -271.5 49t-272.5 97t-159 48q-37 0 -73.5 -39t-65.5 -89t-33 -54l-8 8l-16 21q-8 10 -8 12z" />
<glyph unicode="M" horiz-adv-x="2150" d="M55 0l13 20q16 25 42.5 61t83 86t99.5 50q72 0 168 -90l20 -18q98 59 148 131q92 150 92 495q0 100 -15.5 188.5t-51.5 170.5t-107.5 130t-171.5 48q-49 0 -74 -9.5t-55 -37.5q-47 -49 -49 -86q0 -57 97 -178t97 -188.5t-62.5 -135.5t-119.5 -101.5t-66 -33.5 q-2 0 -22.5 14t-20.5 16l15 9q14 8 35.5 23.5t42 32.5t35 43t14.5 52q0 35 -47.5 94.5t-93.5 127t-46 122.5q8 125 152.5 247t314.5 122q86 0 154.5 -32t106.5 -79t55.5 -76.5t23.5 -46.5v-2l19 19q49 61 136 111.5t187 50.5h4q133 0 191 -152l8 -14q6 16 65.5 70.5 t154.5 108.5t169 54q66 0 100.5 -46t56 -114.5t40.5 -89.5q20 -18 55 -20q47 0 98 18v-32l-28 -15q-63 -37 -128 -86t-79 -78q-57 -129 -58 -413q0 -121 9.5 -189.5t21.5 -94.5t41 -71q23 -35 39 -34.5t78 26.5l61 27v-43l-145 -107l-71 -52l-56 -42l-19 -14q-4 0 -63 108 l-59 109v229q2 250 10 305q2 8 6 31q14 86 23 98q55 82 155 174l-6 5l-13 9q-7 5 -15.5 12t-10.5 13q-10 16 -43 110.5t-51 111.5q-25 25 -70 24q-137 0 -237 -178l-11 -18l7 -35q16 -98 16 -197q-4 -145 -37 -293.5t-58.5 -218.5t-37.5 -88l-19 -20q-16 -23 -48 -61 l-60 -73l-121 -149l-16 14q-90 74 -127 74q-43 0 -119 -76l-21 43l5 8l81 105q47 55 70 72.5t53 17.5q2 0 10.5 -1t12.5 -1q35 -10 90 -45l37 -25q74 55 97.5 206t23.5 370q0 279 -41 396.5t-166 117.5q-68 0 -121 -64.5t-53 -95.5q0 -14 4 -64.5t4 -99.5q0 -395 -137 -635 l-13 -22l-170 -148q-150 -135 -180 -157l-20 18q-94 90 -156 90q-20 0 -39.5 -6t-37.5 -19l-27 -22q-10 -8 -23 -22l-14 -17z" />
<glyph unicode="N" horiz-adv-x="1703" d="M55 1018q0 115 137.5 250t276.5 135q2 0 14.5 1t20.5 1q117 0 211 -66q106 -78 155 -233l2 -4l58 78q41 57 65.5 85.5t69.5 67.5t101.5 55.5t129.5 16.5q72 -4 112 -26.5t52.5 -46t34.5 -85.5q0 -2 5 -19.5t8 -23.5t9.5 -20.5t12.5 -20.5l15 -15q9 -9 22.5 -12t27.5 -3 q20 0 78 18q4 -10 4 -14v-17l-59 -43q-96 -70 -124 -97.5t-36 -64.5q-31 -160 -31 -340q0 -236 60 -354q31 -66 59 -82q8 -4 25 -4q45 0 119 55v-22q0 -23 -7 -25q-2 -2 -120 -88l-127 -92l-19 -14l-49 82l-37 61l-31 51l-16 31v45q0 31 -3 114t-3 251q0 197 16 231 q12 23 39 55l50 60l43 48q19 22 22 23h-23q-27 2 -35 6.5t-21 31t-32 89.5q-23 76 -53.5 117t-87.5 41q-25 0 -49.5 -7t-45 -18.5t-40 -27.5t-34.5 -32.5t-31.5 -38t-26.5 -38.5l-22 -35l-17 -31q-6 -11 -12 -26l-7 -14q-16 -35 -16 -47q0 -4 5 -27.5t9 -82t4 -148.5 q0 -293 -84 -459q-18 -39 -27 -50t-48 -44q-115 -94 -184.5 -142.5t-89 -55.5t-42.5 -7q-47 0 -91 24.5t-63.5 46t-19.5 25.5t63.5 84t65.5 80q2 -6 4 -14t13.5 -31t26 -39t41 -30.5t57.5 -14.5q86 0 159 98q70 90 70 365q0 264 -70.5 460.5t-212.5 256.5q-41 20 -90 20 q-74 0 -133 -49t-59 -115q0 -49 48 -113l97 -126q49 -61 49 -103q0 -72 -58.5 -129t-158.5 -119l-33 -20l-32 33l18 12q100 57 100 127q0 45 -87 156.5t-87 177.5z" />
<glyph unicode="O" horiz-adv-x="1693" d="M25 0q0 2 40.5 54t90 106.5t67.5 62.5q74 29 117 84t43 117q0 76 -109.5 227.5t-109.5 192.5q0 86 66.5 177t130 139t75.5 48q6 0 23 -10l20 -10l-18 -14q-18 -14 -36.5 -33t-39 -43.5t-34 -52t-13.5 -54.5q0 -74 98.5 -238.5t98.5 -222.5q0 -37 -19.5 -82t-48.5 -81.5 t-57.5 -67.5t-49.5 -49l-18 -21q6 -2 14 -2q29 -2 122 -41t216 -74.5t234 -35.5q113 0 211 63.5t143 171.5q59 137 59 361q0 440 -251 520q-98 29 -213 29q-33 0 -86.5 -3.5t-73.5 -3.5q-125 0 -164 66q-6 14 -6 31q0 33 26.5 66.5t65.5 67.5t49 48h14q16 0 17 -2 q-18 -37 -19 -51q0 -41 83 -56.5t226.5 -28t227.5 -38.5q90 -33 150.5 -90.5t88 -132t38 -141t10.5 -150.5q0 -154 -25.5 -271.5t-74 -191.5t-76 -103.5t-76.5 -66.5q-8 -6 -12 -10q-266 -215 -488 -215q-117 4 -216 36.5t-173 62.5t-133 30h-12q-104 0 -179 -101l-4 -4z " />
<glyph unicode="P" horiz-adv-x="1695" d="M57 1018q0 139 138.5 269t300.5 130q39 0 72.5 -6t60 -14t50.5 -26l40 -30q16 -12 33 -36l24 -37q8 -12 18.5 -40t14.5 -36t12 -36t8 -30q8 8 35 41t64 69t96 77q150 104 281 104q39 0 68.5 -12t45 -29.5t26.5 -51.5t15 -58.5t10 -69.5q4 -33 7.5 -46t13.5 -31.5 t29.5 -26t52.5 -7.5q16 2 28.5 5.5l19.5 5.5t9 2q6 0 17 -31q-6 -4 -31 -16.5t-51.5 -28.5t-53.5 -39q-84 -68 -118 -135q-6 -14 -7 -37q0 -53 75 -172t75 -209q0 -174 -131 -313.5t-258 -139.5q-41 0 -174 50l-133 49v-13q0 -82 5 -165.5t10 -139t5 -65.5q-2 0 -96 -69.5 t-96 -69.5l-43 20q0 2 5 24.5t13 64.5t16.5 99.5t13.5 144.5t5 181v41l-27 6q-98 29 -139 29q-35 0 -76 -21q-61 -27 -153 -149l-21 -27l-20 43l14 31q139 274 322 274q55 0 100 -16v289q0 322 -8 373q-12 109 -54 186q-35 61 -102.5 105t-136.5 44q-78 0 -133.5 -53 t-55.5 -117q0 -23 5 -32q12 -37 100 -152t88 -151q0 -41 -34 -103.5t-103 -112.5q-35 -35 -101 -63l-43 20l15 13q16 10 33.5 25.5t37 36t31.5 44t12 43.5q0 31 -43 85.5t-86 119t-43 119.5zM840 250l116 -39q29 -8 73 -23l64 -20l48 -15q29 -9 44 -12.5t32.5 -6.5t31.5 -3 q76 0 127 47t51 117q0 74 -97 217t-97 195q0 25 12 53t29.5 53t40 49.5t40.5 40.5l34 31l16 12q-47 23 -69.5 50.5t-27.5 53t-10 83.5q-6 84 -20 112.5t-64 46.5q-12 2 -53 2q-57 0 -144 -66.5t-165 -209.5l-12 -27v-741z" />
<glyph unicode="Q" horiz-adv-x="1693" d="M23 0l32 41q135 168 168 182q74 29 117 84t43 117q0 76 -109.5 227.5t-109.5 192.5q0 86 66.5 177t130 139t75.5 48q6 0 23 -10l20 -10l-18 -14q-18 -14 -36.5 -33t-39 -43.5t-34 -52t-13.5 -54.5q0 -74 98.5 -238.5t98.5 -222.5q0 -37 -19.5 -82t-48.5 -81.5 t-57.5 -67.5t-49.5 -49l-18 -21q6 -2 14 -2q29 -2 122 -41t216 -74.5t234 -35.5q113 0 211 63.5t143 171.5q59 137 59 361q0 440 -251 520q-98 29 -213 29q-33 0 -86.5 -3.5t-73.5 -3.5q-76 0 -122 26t-46 67q0 12 2 20t11 20.5t20 23.5l35 40l51 59l20 23h14q16 0 17 -2 q-18 -37 -19 -51q0 -41 83 -56.5t226.5 -28t227.5 -38.5q287 -104 287 -502q0 -203 -74 -380t-127 -222l-88 -74l22 -26q115 -123 197 -123q33 0 70 13t57 26l18 12q2 0 3 -27v-26l-23 -15q-201 -115 -217 -114l-37 12q-195 68 -272 145h-4q-6 0 -25.5 -10t-59.5 -25.5 t-87 -27.5q-47 -8 -105 -8q-147 6 -306 67.5t-212 61.5q-113 0 -199 -107q-8 6 -16 17z" />
<glyph unicode="R" horiz-adv-x="1695" d="M55 0l17 20q16 23 47 58t95.5 87t109.5 52q43 0 122 -84l35 -35q6 0 41 24.5t82 81t70 120.5q47 150 47 411q0 401 -225 522q-66 29 -113 29q-96 0 -146.5 -57.5t-50.5 -106.5q0 -53 96.5 -172t96.5 -168v-12q0 -63 -56.5 -130t-111.5 -101l-55 -35q-4 -4 -25 14l-20 14 l22 15q53 37 72 71q23 33 22 72q0 37 -86 149.5t-86 176.5q8 150 154.5 268.5t269.5 118.5q4 0 15.5 1t19.5 1q74 0 137.5 -28.5t101.5 -69.5t65.5 -82t37.5 -70l10 -29q2 8 22.5 36t59.5 69t87 79t115 65.5t132 27.5q94 0 127 -54.5t45 -177.5q6 -80 23.5 -100t91.5 -20 q31 0 43 3t14 3l8 -15.5t6 -10.5t2 -5t-30 -16q-174 -66 -334 -189l-35 -24q98 -12 166 -64l18 -12v-21q4 -25 5 -92q10 -180 22 -254.5t49 -142.5q35 -70 64 -70q8 0 84 29l37 14v-32q-2 -2 -134.5 -102.5t-134.5 -102.5q-2 0 -67 119l-66 118l2 43q4 98 4 135 q0 207 -35 252q-61 82 -186 82q-47 0 -114.5 -15t-73.5 -15q-4 0 -4 -7q-2 -2 -6.5 -28.5t-12.5 -68.5t-21.5 -91t-37 -107.5t-51.5 -107.5l-17 -27l-33 -26l-150 -125l-114 -98q-37 -33 -41 -33q-2 0 -61.5 53t-95.5 53q-70 0 -136 -69l-16 -17l-14 17zM885 719l198 78 l150 75q145 74 145 76h-2q-57 14 -71.5 41t-30.5 144q-29 154 -123 153q-119 0 -244 -248l-16 -32l2 -25q2 -16 2 -68q0 -102 -10 -194z" />
<glyph unicode="S" horiz-adv-x="1697" d="M135 629q0 111 30 216t95.5 210.5t185 191.5t283.5 137l66 17l65 16l45 -22q211 -115 295 -150t139 -35q70 0 115 38t55 75l11 39l28 -23l-8 -24q-33 -98 -95.5 -155.5t-172.5 -104.5l-29 -11q-55 6 -163 67l-218 117q-111 56 -176 56q-129 0 -248 -119 q-154 -141 -153 -401q0 -133 41 -258t118.5 -227.5t203.5 -164t284 -61.5q133 0 227 36t140.5 96.5t65.5 118.5t19 120q0 117 -55 184.5t-141 83.5q-12 2 -58 2q-74 0 -226 -29.5t-234 -29.5h-6q-43 0 -70 4t-64.5 32.5t-54.5 84.5q-4 12 -4 43q0 74 59 145q55 55 162 94 q27 -18 27 -24l-10 -6q-8 -4 -15.5 -8.5t-18.5 -12.5t-19.5 -18.5t-17.5 -23.5t-13 -30.5t-4 -37.5q0 -123 129 -123q55 0 247.5 42t257.5 42q88 0 171 -50.5t106 -160.5q4 -25 4 -62q0 -276 -215 -448t-547 -172q-315 0 -475 192q-164 197 -164 492z" />
<glyph unicode="T" horiz-adv-x="1370" d="M70 967q0 109 62.5 206t170.5 162q121 70 289 70q100 0 307 -38t258 -38q84 0 156 47q31 23 48 38.5t19 19.5l2 2q2 -6 2 -19v-22l-71 -92q-68 -92 -80 -99q-51 -27 -152 -26q-78 0 -184 16l-25 4l-20 -14q-166 -119 -166 -232q0 -57 120 -202.5t120 -219.5 q0 -68 -95 -180q-39 -51 -112 -114l-21 -19l35 -18q164 -80 240 -80q102 0 252 135l20 18q18 -29 19 -30q0 -8 -23 -31q-190 -211 -323 -266l-21 4q-76 12 -207 80.5t-211 68.5q-98 0 -229 -104l-21 -17l-12 17l-10 16l18 21q102 98 203 184l31 25h176q152 94 151 190 q0 57 -113.5 191.5t-133.5 193.5q-2 4 -2 12q0 47 57 148.5t160 212.5q31 33 26 33q-135 53 -313 53q-141 0 -226 -60.5t-85 -156.5q0 -70 41 -113t88 -61l-66 -66l-65 -65q-84 74 -84 215z" />
<glyph unicode="U" horiz-adv-x="1323" d="M-51 23l82 94l80 90q33 4 65 31q16 10 55 49t50 53q47 72 47 166q0 90 -103.5 276.5t-103.5 251.5q0 76 96 189.5t207 189.5l22 14l23 -30q0 -4 -27.5 -26.5t-59.5 -52.5t-59.5 -81t-27.5 -107q0 -53 43 -143t86 -194.5t43 -196.5q0 -29 -1 -49.5t-8 -41l-10.5 -30.5 t-18.5 -32l-21 -29q-6 -8 -31 -37l-37 -43l-98 -115q12 -4 28.5 -5t58.5 -13.5t122 -42.5q160 -61 198 -62q76 0 189 119q72 76 86 115t14 170v67q0 127 -7 370t-16 284l263 184l32 -21l-16 -16q-68 -74 -86 -167t-18 -281v-158v-152q0 -205 36 -309q45 -139 113 -139 q25 0 54.5 11t49.5 22l19 10v-43l-143 -107l-72 -52l-57 -42l-19 -14q-2 0 -67 139l-66 141l-125 -125l-47 -47q-31 -31 -40 -39l-31 -26q-22 -18 -30 -23l-28 -12q-18 -8 -34.5 -9t-41.5 -1q-86 4 -251 67.5t-238 63.5q-14 -2 -33 -14.5t-31 -25.5l-25 -29q-13 -15 -16 -17 q-18 31 -18 33z" />
<glyph unicode="V" horiz-adv-x="1701" d="M55 1010q-2 76 66.5 175t150.5 148q111 72 252 72q88 0 156 -27.5t102.5 -67.5t56 -81t30 -68.5t10.5 -27.5q6 0 48 43l95 93q53 50 126 93t130 43q80 0 187.5 -70.5t168.5 -70.5q29 0 56 10v-33l-21 -14q-61 -47 -108 -109q-78 -104 -78 -233q0 -72 26.5 -237t26.5 -204 q0 -141 -80 -247q-29 -43 -148.5 -128t-123.5 -89q-31 -23 -48.5 -28t-66.5 -5q-131 0 -326 112q-225 123 -311 123q-39 0 -79 -13t-68.5 -31.5t-51.5 -37.5l-36 -30l-13 -15l-20 33l31 33q53 57 108 104t89 68.5t44 21.5q98 0 178 84q57 55 82 148.5t25 283.5 q0 319 -199 420q-68 33 -139 33h-10q-80 0 -137 -59q-39 -39 -39 -80q0 -63 98 -182t98 -183q0 -68 -73.5 -138.5t-155.5 -117.5l-21 -12l-32 33q131 84 131 149q0 43 -90.5 152t-96.5 164zM535 309q0 -2 6 -2q2 2 -2 2h-4zM565 305q8 0 8 2h-8v-2zM602 307q55 -14 261 -129 t284 -115q98 0 151 68q53 78 54 275q0 57 -10.5 192t-10.5 195q0 63 17 133l4 20l153 176h-16q-53 4 -158.5 73t-169.5 69q-14 0 -26 -4q-45 -10 -109.5 -73t-114.5 -161l-16 -33v-41q-10 -285 -121 -495z" />
<glyph unicode="W" horiz-adv-x="2142" d="M66 1026q6 129 145 254t330 125q127 0 207 -70q76 -70 112 -180l43 43q92 92 201 174l41 33l26 -29q133 -135 191 -231l35 35q215 225 334 225q66 0 173 -62.5t128 -66.5q14 -4 49 -4q51 0 78 14l-7 -22l-8 -23q-10 -8 -20 -18q-111 -82 -140.5 -155t-29.5 -179 q0 -82 14 -202t14 -234q0 -41 -4 -76t-6 -59.5t-14 -50t-16.5 -37t-26 -34t-26.5 -28.5t-34.5 -32.5l-37.5 -33.5l-146 -106q-2 -2 -13 -9t-17.5 -10.5t-20.5 -9.5t-28.5 -9t-37 -6t-49.5 -3q-90 0 -237.5 60.5t-233.5 66.5h-18l-68 -33q-88 -43 -151 -84l-23 -14h-33 q-94 0 -179 36.5t-149.5 74.5t-105.5 38h-8q-66 0 -178 -104l-23 -23l-14 21l-16 20q0 8 90 103q70 68 133 118l24 21h25q150 10 250 123q119 127 119 458q0 170 -42 269.5t-137 148.5q-63 37 -131 37q-82 0 -137 -45t-55 -117q0 -66 93 -173t93 -169q0 -70 -74.5 -148.5 t-144.5 -113.5l-20 -8l-23 16l-18 17q2 2 38.5 21.5t63.5 51t27 76.5q0 47 -88 151.5t-88 180.5zM494 215q16 -14 44.5 -35.5t110.5 -57.5t156 -36q174 0 315 137q123 127 123 510q0 27 -1 45.5t-5 75.5t-18.5 103.5t-37 101.5t-63.5 100t-94 72l-43 -43q-61 -61 -94 -111 l-15 -20v-27q0 -393 -141 -620l-10 -19l-115 -86q-112 -86 -112 -90zM1182 209q0 -4 10 -4q74 0 283 -101q84 -39 143 -38h8q100 0 154 104q31 55 30 217q0 90 -11 216t-11 216q2 68 12 106t21.5 54t53.5 59t75 82q-51 16 -154.5 80t-165.5 64q-106 0 -233 -189l-13 -18 l2 -37q2 -25 3 -150q0 -254 -54 -448q-6 -23 -79.5 -114t-73.5 -99z" />
<glyph unicode="X" horiz-adv-x="1472" d="M57 66q0 2 62 73l57 68q16 -41 60.5 -76t101.5 -35q84 0 172 76q109 90 156 283q18 84 22 184v45h-49q-233 0 -305 -20h-4q2 4 43 49l33 39h282v63q-6 225 -57 311q-27 41 -71 73t-95 32q-47 0 -94 -24.5t-74 -49t-61.5 -65.5t-38.5 -45l-37 32l145 156q119 129 160 170 l20 -2q84 -10 141.5 -37t92.5 -74t52 -89t38 -111l10 -35l12 22q68 150 240 258q31 23 131 72q4 0 18.5 -33l35 -76t32.5 -59q27 -37 74 -37q18 0 38.5 8.5t35 15.5t16.5 7v-37l-209 -121q-49 20 -109.5 77.5t-84.5 102.5q-104 -88 -158.5 -219t-61.5 -258v-28h361l-37 -41 q-4 -6 -10 -14l-10 -12q-4 -5 -8.5 -9t-6.5 -8l-2 -2h-8q-8 0 -108.5 9t-157.5 9h-13v-18q0 -260 101 -414q88 -141 233 -141q53 0 105.5 20.5t83.5 40.5l32 23v-43l-227 -185l-24 -8q-51 -14 -84 -14q-41 0 -77 12t-63.5 33.5t-52.5 48.5t-42 57.5t-31.5 61t-23.5 57.5 t-15.5 48.5t-10.5 33.5l-2 12q-6 0 -37 -31l-93 -93q-62 -60 -126 -109q-164 -121 -244 -121q-47 0 -91 27.5t-63.5 52.5t-19.5 31z" />
<glyph unicode="Y" horiz-adv-x="1705" d="M55 1016q0 76 74 168t119 125q123 94 276 94q100 0 156.5 -18.5t105.5 -84.5q72 -96 84 -190q88 88 208 176t188 119q29 -39 83 -85t94 -73.5t40 -29.5q33 -168 33 -429v-20v-29q0 -477 -119 -745q-53 -125 -262 -282.5t-396 -157.5q-86 0 -151.5 31.5t-91 61t-25.5 46.5 q0 4 76 84l76 82q14 -94 75.5 -150.5t143.5 -56.5q129 0 253 105.5t183 265.5q74 205 74 616q0 276 -56 442l-43 43q-70 70 -123 97l-18 10l-31 -19q-55 -37 -92 -69q-59 -61 -96 -131l-10 -21v-22q0 -293 -113 -498q-20 -35 -35.5 -50t-107.5 -95l-115 -97 q57 -14 157.5 -62t147.5 -48q45 0 85 23.5t63.5 47t25.5 23.5h2l17 -29l-27 -34q-55 -70 -104 -123q-74 -72 -117 -72q-61 0 -229 77t-220 77q-115 0 -215 -142l-20 43q16 35 74.5 100.5t109.5 110.5l31 29h24q145 10 246 94q158 139 158 473q0 209 -88 339t-230 130 q-84 0 -139 -43t-55 -110q0 -74 92 -185.5t92 -163.5q0 -123 -239 -272l-33 33q131 98 131 162q0 27 -98.5 143.5t-98.5 165.5z" />
<glyph unicode="Z" horiz-adv-x="1232" d="M23 -53l22 16q147 111 264 111h19q23 0 37 -6.5t21 -12.5t11 -29.5t5 -37t1 -54.5q2 -96 19 -118q23 -35 92 -35q174 0 282.5 151.5t108.5 384.5q0 174 -71 244q-92 92 -250 92q-100 0 -191 -43q-8 0 -22 23l88 129q6 2 21.5 4t23.5 4l23 6q15 4 28 10l30 16q17 9 35 22 l37 30q129 111 129 252q0 45 -36.5 84t-122.5 39q-29 0 -151 -10.5t-173 -10.5q-109 4 -117 76v12l142 197h32q-14 -33 -14 -49q0 -72 154 -72q51 0 125.5 5t105.5 5q98 0 154.5 -28.5t72.5 -106.5q2 -8 3 -26q0 -49 -19 -115q-55 -158 -326 -344q49 12 119 12 q147 0 231.5 -57.5t96.5 -108.5q27 -98 27 -202q0 -170 -66 -324t-119 -199q-219 -168 -491 -168q-76 0 -158 17l-27 4v59q0 104 -13 137t-62 33q-41 0 -91 -37l-18 -14z" />
<glyph unicode="[" horiz-adv-x="569" d="M240 625v891h10q39 -6 199 -9h120v-26q0 -25 -2 -25l-241 -24v-1622h6q10 0 119.5 -6.5t113.5 -8.5q4 0 4 -18v-21h-32q-78 -2 -145.5 -8t-103.5 -10t-46 -4q-2 0 -2 891z" />
<glyph unicode="]" horiz-adv-x="569" d="M-8 -211h10q4 2 114.5 11.5t114.5 11.5h11v1622l-111 6q-119 8 -125 10h-14v49h51q27 2 88 2q51 0 94 3t68.5 5t30.5 2h4v-1779h-13q-109 12 -233 14h-90v43z" />
<glyph unicode="^" horiz-adv-x="1024" d="M0 950l512 553l25 -24q25 -20 249 -254l228 -230l-58 -39l-22 -16l-426 436l-193 -188l-268 -262q-12 4 -26.5 13t-20.5 11z" />
<glyph unicode="a" horiz-adv-x="1024" d="M135 319q0 43 1 86.5t4 77.5l6 67q3 32 6.5 57.5l6.5 48t6 38t6 26.5t5 17v6q0 4 86 59l172 107l88 54q2 0 16.5 -10.5t41 -25t51.5 -22.5q61 -23 78 -22q8 0 24 10l115 59l14 -12l-6 -51q-29 -195 -29 -352q0 -236 9 -293l34 -45q37 -47 39 -47l47 24l50 23q2 0 12 -29 l-125 -113q-121 -111 -127 -110l-88 147l-4 92l-357 -258q-6 0 -84.5 92.5t-93.5 112.5l-2 43q-2 28 -2 143zM297 403q0 -150 12 -161q10 -16 74 -82l43 -45h12q14 2 80 41l113 67l43 29v27q-2 14 -2 247v222h-29q-59 4 -121.5 18t-99.5 25l-39 12q-12 0 -30.5 -34 t-37 -132.5t-18.5 -233.5z" />
<glyph unicode="b" horiz-adv-x="1050" d="M178 145l4 37q23 135 23 471q0 371 -12 631v23v20q0 8 -1.5 16.5t-1.5 12.5v4l35 12l17 -76l18 -75q0 -2 10 2q8 4 129 92l123 88l35 -25q-6 -6 -33.5 -28.5t-47 -45t-45 -58.5t-42 -89t-22.5 -117q-4 -29 -5 -166q0 -129 9 -129q6 0 23.5 13.5t62.5 51.5t98 77 q94 74 107 74q4 0 30 -16l81 -45q54 -30 112 -54l16 -8l2 -27q0 -4 1 -49t1 -78q0 -268 -35 -463l-4 -22l-47 -29q-109 -70 -213 -128t-152 -81.5t-53 -23.5q-8 4 -97 88zM365 252l41 -41q125 -125 178 -125q29 0 60.5 27.5t49.5 60.5q49 96 49 301q0 160 -10 227v13l-26 12 q-31 16 -103 45l-43 16q-2 0 -20 -9l-46 -22q-28 -13 -38 -18l-72 -43l-20 -14v-430z" />
<glyph unicode="c" horiz-adv-x="796" d="M147 426q0 236 25 313q0 4 170 109q166 106 170 106q10 -2 20 -2q47 -10 97.5 -31.5t75.5 -39.5l26 -17l-104 -162l-11 -2l-10 -4q-59 45 -101 65.5t-63.5 26t-79.5 11.5q-47 -84 -47 -312q0 -37 4 -163v-27l25 -27l82 -81q59 -58 74 -68q2 -2 4 -2q18 0 114.5 51 t98.5 51l4 -8q6 -8 8 -16l4 -9q0 -2 -173 -123.5t-177 -123.5l-21 18q-35 29 -117.5 115t-86.5 98q0 6 -5.5 69.5t-5.5 184.5z" />
<glyph unicode="d" horiz-adv-x="1021" d="M27 1110q0 4 132 70.5t142 66.5q14 0 78.5 -22.5t201 -96t267.5 -178.5l26 -20v-29q0 -8 1.5 -57t1.5 -82q0 -117 -5.5 -209t-15.5 -150.5t-18.5 -92.5t-18.5 -63l-12 -36l-184 -139l-89 -68l-73 -55l-23 -17q-133 82 -239 189l-43 43l-2 22v164q0 102 3 170t5 93.5 t2 27.5q0 4 -4 16v11l-2 8q4 12 113.5 110.5t160.5 128.5l17 -4q4 0 10 -2l8 -2q2 0 -1 -4l-14 -18q-11 -14 -30 -35l-31 -41q-33 -35 -59 -115q-20 -68 -21 -182q0 -68 15 -225v-13l24 -26q47 -45 131 -97.5t101 -52.5q25 0 54.5 56.5t54 165t24.5 227.5q0 162 -27 272 l-43 41q-141 141 -285 215q-100 41 -167 41h-43l-95 -37z" />
<glyph unicode="e" horiz-adv-x="821" d="M143 389q0 78 6.5 166t13.5 137t9 56l21 14q23 12 66 41l81 51l164 102q76 -102 211 -200l30 -23l-18 -18q-217 -205 -381 -346l-37 -29l2 -29v-26l27 -27q43 -43 103.5 -87t90.5 -44q14 0 101 41l90 43q0 -12 10 -33l-43 -33l-184 -133q-115 -74 -119 -73 q-2 0 -33.5 28.5t-88 87t-109.5 119.5l-4 29q-9 82 -9 186zM305 432q4 0 45 25.5t100.5 70.5t98.5 84l29 29l-31 21q-43 29 -77 55t-52.5 42.5t-31.5 30t-19.5 18.5t-10.5 5q-51 -33 -51 -364v-17z" />
<glyph unicode="f" horiz-adv-x="667" d="M61 719l70 72h66q66 0 65 2q0 8 -33.5 141t-40.5 184v19l19 26q66 100 168 209l20 23l23 -17q70 -51 119 -51q29 0 61 16l20 11l13 -17q0 -2 -62 -71l-59 -68h-31q-82 4 -153 21q-2 0 -7 2h-6l-6 2q2 -8 4 -33t4 -36t7.5 -33.5t14.5 -48t23 -60.5q47 -119 56 -193v-16h8 l238 -12q0 -4 -29 -37l-27 -35h-190v-359q-4 -379 -10 -426q-8 -59 -66 -167l-27 -50q-80 -156 -88 -170q-10 0 -24 2l-23 2v7q2 2 39 135t37 139q8 18 10 485v402h-203z" />
<glyph unicode="g" horiz-adv-x="1032" d="M35 -268l133 114l131 113l-41 53q-55 63 -70 86l-28 35l-2 29q-4 49 -4 162q0 121 7 226t15 153.5t10 50.5q2 4 37 28.5t100 64.5l132 79q37 27 55 35l4 2q92 -55 203 -86l31 -9l147 84l10 -12q0 -6 -3 -13t-8 -17.5t-10 -42t-10.5 -80t-8.5 -138.5t-3 -209v-168l4 -28 q0 -16 66 -279q0 -8 -154.5 -186t-183.5 -191q0 -2 -12.5 -6t-32 -7t-33.5 -3q-164 0 -362 152l-27 18q-4 0 -37 -18l-35 -19zM305 -117q158 -158 295 -157q66 0 105.5 33.5t39.5 99.5v20q0 45 -12 120t-23.5 132t-11.5 59q-10 0 -182 -134t-211 -173zM317 530 q0 -131 9 -254l2 -22l20 -25q20 -23 69.5 -71.5t53.5 -48.5q2 0 115 71l110 72v37q0 193 17 385v21v18l2 6q-168 16 -350 78q-2 -4 -11.5 -28t-13.5 -37t-10 -43t-9.5 -69t-3.5 -90z" />
<glyph unicode="h" horiz-adv-x="1067" d="M158 133v27q6 53 14 305t8 409q0 121 -3 242t-6 183.5t-5 66.5q0 12 2 13t14 5h11l47 -155l170 125l36 26q20 14 31 21l10 8l33 -20q-66 -66 -78 -84q-106 -133 -106 -316v-84v-145q47 39 164.5 123t138.5 96q66 -66 203 -113l35 -12l2 -43q10 -203 10 -365 q-8 -430 -58 -516q-123 -158 -294 -329l-23 -21l-4 4q-2 0 -11.5 8.5t-15.5 12.5q-20 20 -18 22q2 0 35 28l70 59q38 32 46 38q59 66 80 203q31 168 31 395q0 59 -5 150.5t-10 157t-7 67.5q-23 18 -76.5 46t-96.5 28q-39 0 -165 -82l-31 -19v-450l76 -113l24 -33 q-6 -8 -85 -79.5t-83 -71.5q-2 0 -17 26l-43 74q-27 47 -50 82z" />
<glyph unicode="i" horiz-adv-x="571" d="M29 782l24 21q117 98 191 168q80 -80 102 -97l21 -14l-7 -51q-20 -190 -20 -344q0 -115 16 -180q18 -94 70 -131q96 51 109 51q2 0 7 -16.5t5 -18.5q0 -6 -121 -108.5t-129 -102.5q-4 0 -55 76l-56 78q14 127 15 282q0 299 -21 361q-35 43 -41 43q-10 0 -59 -29l-25 -14 q-12 14 -26 26zM147 1264q0 2 61.5 58t63.5 56h2q0 -10 84 -94l25 -24l-117 -123l-28 26q-91 97 -91 101z" />
<glyph unicode="j" horiz-adv-x="575" d="M-18 -375q135 100 182 158q47 51 62.5 179t15.5 405q0 236 -10.5 307t-55.5 110q-16 12 -20 13q-6 0 -39 -21l-37 -24q-27 27 -27 28l15 13l42 36l52 48l104 94q35 -35 115 -94l18 -13l2 -94q0 -504 -9 -652.5t-36 -189.5q-4 -8 -143 -162l-174 -192q-57 47 -57 51z M147 1260q0 4 60 59l63 57l27 -30q20 -31 49 -60l27 -29l-27 -28q-43 -43 -59 -62l-31 -30l-27 26q-6 4 -44 49.5t-38 47.5z" />
<glyph unicode="k" horiz-adv-x="796" d="M49 635l55 65h86v13q0 63 -6 317t-6 318v24q0 2 15 2l12 2l24 -73q25 -68 25 -74l41 33q106 88 184 135l25 14q12 -6 20 -8t25 -10l-29 -27q-59 -53 -88 -85t-55.5 -95.5t-32.5 -151.5v-16l21 14q51 39 120 82l129 82l21 -22q100 -104 100 -189q0 -10 -1 -19.5t-2 -16.5 t-6 -16t-7 -15.5t-10 -16.5l-13 -15q-4 -5 -16 -19l-18 -20q-6 -7 -23.5 -23.5t-26.5 -26.5l-90 -95l92 -2h95l-54 -67h-293v-371l33 -31q43 -43 105 -92l20 -16l101 49q98 49 100 49l20 -24q-14 -23 -174.5 -135.5t-169.5 -112.5l-49 43l-103 92l-63 55q10 35 11 205 q0 33 -1.5 103.5t-1.5 101.5v84h-71zM344 700h8q92 0 164 65.5t72 145.5q0 55 -66 121q-27 27 -28 27q-80 -39 -112 -101.5t-38 -209.5v-48z" />
<glyph unicode="l" horiz-adv-x="573" d="M201 115l2 67q16 324 16 582q0 248 -12 508q0 66 -4 78v12l14 6l14 8l11 -35q8 -27 26 -77l15 -41q4 0 39 28l170 121l49 31q2 0 13 -10.5t11 -12.5t-15 -14t-45 -41t-56 -61q-45 -61 -69 -136t-27 -118t-3 -113q0 -127 8.5 -320.5t8.5 -275.5v-61q10 -16 44.5 -50 t41.5 -34l94 47q2 -2 4 -7.5t4 -15.5t-2 -12l-16 -12q-14 -14 -43 -39l-56 -47l-135 -111z" />
<glyph unicode="m" horiz-adv-x="1570" d="M16 776q2 2 113 95.5t113 93.5q25 -23 51 -52l51 -51v-47l2 -45l258 203q137 -86 246 -117v-39q0 -39 2 -39t43 29l97 70q56 41 91 69l31 25l25 -15q70 -37 119 -60.5t65 -27.5l14 -6l25 -8l-2 -10v-10q0 -8 -1 -21.5t-1 -26.5q-6 -86 -6 -100q-4 -66 -4 -184 q0 -121 4 -191l2 -53l16 -22q23 -39 57 -74l21 8l34 15q15 7 23 13l14 8q5 3 9 3l2 2v-2l6 -14q6 -14 6 -17l-250 -215q-2 2 -19.5 31t-66.5 94l-26 35l6 24q27 152 26 299q0 96 -16 211q-6 49 -12 59.5t-37 26.5q-51 27 -131 48l-31 8q-12 -6 -115 -66l-20 -14v-232v-165 v-47q0 -15 5 -30.5t8 -19.5l18 -25l22 -34l49 -70q-6 -6 -14 -13l-31 -26q-23 -18 -47 -41l-82 -69l-96 149l6 31q6 31 12.5 96.5t6.5 153.5q0 80 -8.5 207t-16.5 129q-23 33 -154 69l-36 13l-146 -84l-2 -219q0 -250 6 -267l6 -8q8 -10 19.5 -26.5t23.5 -30.5l45 -62 q0 -2 -43 -38l-86 -70q-43 -35 -43 -33l-6 10l-17 33l-22 39q-45 76 -45 84q12 33 13 190q0 176 -15 377v58l-53 53l-86 -49z" />
<glyph unicode="n" horiz-adv-x="1079" d="M41 778q0 2 106 96l101 89l16 -15q16 -16 53 -45t43 -33v-118l295 221l19 -12q45 -31 115.5 -66t99.5 -41l-4 -31q-6 -82 -6 -350v-211l20 -35q6 -8 12.5 -18l9.5 -14.5l7 -10.5t7 -8t6 -5t7 -3h8q2 0 45 23.5t45.5 23.5t6.5 -20v-15l-244 -217l-113 170l2 25 q12 70 15 207q0 338 -11 358v10l-22 10q-70 29 -139 39q-8 0 -18.5 1t-12.5 1q-4 0 -78 -43l-72 -43v-229v-168q0 -27 1 -41t1 -24.5t5.5 -19.5t7.5 -13t12 -16.5l16 -20.5q8 -10 18.5 -25.5t16.5 -23.5l6 -8q0 -2 -86 -78t-88 -76q0 4 -36.5 56t-53.5 73q-8 8 -8 18 q20 135 21 314q0 49 -2.5 123.5t-2.5 124.5l-4 81l-47 50l-35 -21q-37 -20 -39 -20q-22 22 -22 24z" />
<glyph unicode="o" horiz-adv-x="1001" d="M137 139v109q6 295 35 487v10l27 15q82 47 164.5 103.5t124.5 88t44 31.5l37 -25q35 -23 101.5 -54.5t136.5 -47.5l24 -8q12 -53 13 -234q0 -76 -4 -147.5t-10.5 -118.5t-13.5 -83l-11 -55q-4 -19 -4 -22l-21 -12q-219 -139 -442 -233l-8 8q-8 6 -22 18l-30 28l-36 32 q-18 16 -35 33l-32 33q-15 15 -23 28zM291 489q0 -96 18 -215q2 -20 8.5 -28t40.5 -43q45 -45 90.5 -73t67 -34t31.5 -6t28.5 17.5t43 57.5t36.5 89q31 119 31 315q0 16 -1 52t-1 65l-2 29v14h-14q-78 8 -242 66l-51 18q-10 -8 -23.5 -28.5t-37 -103.5t-23.5 -192z" />
<glyph unicode="p" horiz-adv-x="1024" d="M25 78l47 43q96 88 106 94v504l-39 55q-53 74 -53 90q0 31 51 102.5t96 118.5l23 23q2 0 14.5 -8t12.5 -10q-35 -53 -35 -91q0 -72 80 -153l14 -17l-2 -30l-2 -37q8 0 139 100.5t148 116.5q4 2 20 -12q164 -104 221 -117q4 0 4 -2l2 -8v-20v-25q8 -109 9 -238 q0 -272 -45 -393q-2 -4 -140 -119l-137 -113q-150 115 -221 115q-2 0 -2 -113q2 -117 8 -251v-31l-154 -86q-4 2 -9 6t-10 7t-11 5q14 317 18 449v63h-16q-53 -6 -115 -45q-16 17 -22 27zM264 123q2 -4 6 -6zM283 102q35 -43 41 -43q2 0 -7.5 11.5t-20.5 21.5t-13 10z M338 193h20q90 -8 254 -89l41 -20q55 109 62 350q0 135 -13 268v17l-26 12q-25 12 -123 49l-31 13l-20 -9q-68 -27 -137 -77l-25 -19v-100q-2 -55 -2 -248v-147z" />
<glyph unicode="q" horiz-adv-x="1001" d="M123 315q0 223 39 408l8 31l23 14l109 62q50 30 80 50l53 34q24 15 35 25l18 15q7 6 10.5 8.5t7.5 2.5l26 -15l72 -33.5t72 -27.5l22 -4l142 96l4 -2q4 -4 8 -7t6 -3l-4 -25q-37 -211 -37 -905q0 -291 17 -395v-11l-154 -82l-21 19l-20 16l4 35q12 209 19 490v84l-25 -21 q-115 -92 -305 -213q-33 -20 -35 -16q-10 10 -86 96l-82 92v17q-4 20 -4 86q0 14 -1 40.5t-1 38.5zM285 324q0 -41 5 -54.5t27 -36.5l11 -10q102 -104 104 -104l14 8q16 10 45 26.5t54 32.5l108 68v147q0 283 13 338v13h-19q-133 12 -287 61h-2q-4 0 -19 -31.5t-34.5 -139 t-19.5 -259.5v-59z" />
<glyph unicode="r" horiz-adv-x="796" d="M35 778q0 8 67.5 72.5t116.5 105.5l17 15l26 -27q88 -82 111 -96v-66l108 88l55 43l44 33l14 12l10 -16q82 -127 127 -127q14 0 37 10l23 11q0 -8 2 -17v-14l-37 -33l-39 -36q-23 -22 -29 -26.5t-19.5 -13t-22.5 -9.5t-25 -1q-68 0 -142 74l-20 16q-8 -8 -20.5 -18 t-32.5 -31l-33 -31v-198q0 -162 2 -187.5t12 -46.5q12 -25 45 -59.5t58.5 -58t29.5 -23.5t90 43q90 41 92 41q2 -2 5.5 -19.5t1.5 -19.5l-299 -211q-53 33 -170 156l-41 41l4 34q14 113 14 213q0 41 -5 176.5t-13 149.5q-4 8 -4 12q0 6 -37 35l-25 19l-35 -15 q-37 -16 -39 -16q-2 -2 -13 6t-11 10z" />
<glyph unicode="s" horiz-adv-x="907" d="M-37 47l35 37q96 98 130 119.5t101 21.5q59 0 93 -14t139 -84q88 -59 96 -59q25 0 37 75.5t12 139.5q0 88 -12 122.5t-57 65.5q-10 4 -33 4q-31 0 -57.5 -11t-127.5 -67l-98 -55l-14 18q-23 33 -53 89l-13 22v111q0 127 2 149v41l156 102l115 76q43 29 43 27l4 -2l8 -4 q4 -4 28 -18l56 -32q33 -19 53 -38q27 -27 62 -27q33 0 72.5 23.5t62 43t22.5 17.5q6 -29 6 -35l-184 -162q-2 -2 -12 -2q-37 0 -121 18.5t-160 51.5q-35 14 -37 14q-25 -35 -24 -125q0 -76 15.5 -131t35.5 -69q6 -4 27 -4l18 2l256 116q31 -10 86 -53q2 -2 10.5 -8t9.5 -8 t6 -10.5t5 -17.5t2 -28.5t2 -45.5v-64q0 -57 -4 -106.5t-8 -73t-11.5 -55t-9.5 -42.5l-45 -20q-98 -41 -166.5 -78t-90 -50t-25.5 -13l-17 14q-18 16 -46 38.5t-60.5 46t-70.5 39t-69 15.5q-41 0 -78.5 -18.5t-59 -35.5t-23.5 -17z" />
<glyph unicode="t" horiz-adv-x="681" d="M55 723l72 74h111l2 86v260l227 168l29 -27l-31 -29q-29 -29 -34 -41t-15 -81q-12 -109 -15 -242v-94h215l-59 -74h-158v-162q0 -197 2 -235l2 -74q106 -106 156 -113h14l66 31q66 33 68 33q6 0 6 -43l-279 -201q-2 0 -99 80t-106 88q0 123 2 274q0 66 1 136.5t1 114.5 v46v25h-178z" />
<glyph unicode="u" horiz-adv-x="1058" d="M18 791l226 180q61 -76 106 -109v-168v-49q0 -291 -49 -434q0 -2 100 -47l99 -47l186 102v19q8 92 8 311q0 94 -2 168t-2 127v24l170 90q8 -6 14 -14l-6 -53q-25 -213 -24 -428q0 -115 7 -166t38 -100q16 -25 37 -27q18 0 82 27l28 12q2 0 8.5 -12.5t6.5 -16.5l-41 -35 q-98 -80 -189 -163q-18 -18 -26 -17l-9 2q-53 113 -59 123q-39 68 -45 68q-147 -66 -266 -176q-35 -29 -45 -29q-8 0 -39 25.5t-84 59.5t-107 52l-24 8l8 13q8 12 21.5 39.5t21.5 58.5q37 111 37 328q0 88 -15.5 149.5t-26.5 78.5t-36 46l-80 -41q-11 3 -29 21z" />
<glyph unicode="v" horiz-adv-x="1048" d="M113 856q0 51 92 174q43 55 47 55q4 -4 9 -4h8q3 0 5 -1t1 -7t-7 -16q-16 -35 -16 -62q0 -59 74 -143l20 -23l2 -34l2 -33q0 -2 150 106l149 109l35 -23q123 -78 201 -102l2 -29q0 -4 1 -51t1 -84v-63q0 -225 -29 -357q-14 -76 -29 -90q-6 -6 -221 -119l-217 -116l-41 41 q-68 68 -135 122l-29 25v12q6 55 7 263q0 195 -2 245l-5 76l-16 25q-59 79 -59 104zM350 377q0 -63 9.5 -99t46.5 -73q18 -12 54 -42t63.5 -46.5t54.5 -16.5q45 0 94 64q63 100 63 334q0 84 -14 209q-2 27 -8 30q-31 27 -90.5 50.5t-79.5 23.5l-29 -12q-74 -37 -133 -80 l-23 -14v-15q0 -37 -2 -63q0 -18 -3 -105.5t-3 -144.5z" />
<glyph unicode="w" horiz-adv-x="1585" d="M92 870q0 29 77 124.5t89 95.5q2 0 4 -1.5t7 -2.5t12 -3l-11 -20q-23 -41 -22 -74q0 -20 21.5 -60t49.5 -71l23 -22l4 -66l33 25q106 76 217 174l20 -15q74 -47 191 -102l51 -23l-2 -36v-37q2 0 141.5 100t149.5 109l43 -25l83 -45l87 -45q37 -18 41 -19q8 0 8 -169 q0 -141 -18.5 -267.5t-36 -184.5t-27.5 -65q-2 -2 -192 -104l-185 -98l-43 26q-55 33 -116 66l-89 47q-27 14 -24 18q0 6 4 50.5t8 123t4 168.5q0 190 -10 252q-2 4 -37 29t-80 49.5t-63 24.5q-23 0 -92.5 -41t-71.5 -47q0 -2 -4 -203q0 -31 -1 -77t-1 -62 q0 -82 15.5 -130.5t70.5 -119.5l14 -19l-155 -153q-43 88 -101 145l-18 19l4 28q16 117 16 295q0 145 -3 214t-8 83t-17 31q-60 79 -60 110zM854 397q0 -37 1 -49t2 -37.5t4 -36.5l8 -28q5 -18 13.5 -28.5l19.5 -23t28 -24.5q111 -80 184 -80q45 0 80 68q41 88 45 323 q0 111 -10 178q-4 43 -6 48.5t-13 13.5q-23 14 -53.5 26.5t-52 19.5t-46 14t-26.5 7l-176 -88l-2 -49v-200v-54z" />
<glyph unicode="x" horiz-adv-x="796" d="M20 -197q0 33 25 88q45 88 150 209q4 4 10 11.5t8 9.5t6 10t5 14.5t3 21.5t3 31.5t2 45t1 61.5v80q0 197 -12 326v14l-24 23q-41 41 -60 40q-10 0 -45 -16l-37 -18l-26 18q100 104 211 195q27 -20 55 -47l100 -84v-33v-33l111 90q109 90 110 90l19 -26q43 -70 108 -125 l-61 -51q-61 -51 -66 -52q-16 6 -50 50.5t-54 44.5q-18 0 -72 -52l-41 -41q-2 -16 -5 -28.5t-4 -18.5t-2 -29l-3 -71q0 -100 8 -248q2 -53 6 -62.5t31 -33.5q92 -84 125 -84q10 0 14 2l82 43q18 8 38 18.5t30 14.5l10 6q6 -39 0 -45q-4 -4 -150.5 -107.5t-148.5 -103.5 l-37 35q-66 61 -112 96l-23 18l-20 -18q-102 -109 -103 -193q0 -129 207 -176l25 -4v-10l2 -10l-117 -74l-23 6q-111 31 -166 82q-43 47 -43 100z" />
<glyph unicode="y" horiz-adv-x="1021" d="M92 838q35 92 109 200l30 43q31 0 31 -8q0 -2 -6 -13t-11 -29.5t-5 -41.5v-24q12 -31 26 -54l21 -27l16 -20.5t11 -14.5l9 -11l6 -9q3 -4 4 -7t1 -6v-7v-23v-38q4 0 151 110l152 111q147 -88 223 -117q12 -4 12 -10v-15q0 -12 1 -33.5t1 -41.5q8 -274 9 -340 q0 -418 -82 -518q-8 -12 -176 -176t-172 -164l-7 2q-4 2 -14 6t-18 8l-37 16l31 17q123 66 183 137.5t93 221t33 415.5q0 150 -17 295l-4 57q-119 70 -159 70q-29 0 -172 -90l-31 -21v-461l108 -135l-174 -145l-14 22q-20 37 -80 121l-22 29q31 135 30 375v76v55q0 27 -2 40 t-3 24t-5 19.5t-6 13.5t-9 14t-12 18q-29 41 -39 61z" />
<glyph unicode="z" horiz-adv-x="800" d="M-14 -240q98 197 389 490l49 51q-4 4 -44 20.5t-93.5 32t-81.5 15.5h-6v24l88 80q106 100 121 127q12 20 12 45q0 49 -42 99.5t-97 50.5q-37 0 -152 -84l-33 -25l-22 25l32 30q123 121 236 203l29 21l22 -13q90 -43 139.5 -98t49.5 -98q0 -29 -17.5 -54.5t-87.5 -105.5 q-78 -92 -78 -94t20.5 -7.5t75 -29t119.5 -59.5l4 -23q25 -100 25 -231q0 -201 -47 -347q-2 -10 -141 -127l-140 -116h-18q-88 0 -189.5 52t-121.5 146zM147 -143q0 -59 69 -114.5t151 -55.5q68 0 96.5 83t28.5 259q0 109 -14.5 172t-20.5 69t-25 23l23 -27l-33 -28 q-20 -18 -73.5 -70.5t-94.5 -101t-74 -107.5t-33 -102z" />
<glyph unicode="&#xad;" horiz-adv-x="1548" d="M94 483l33 78q0 2 659 2h660l-14 -41l-13 -39h-1325z" />
<glyph unicode="&#x2000;" horiz-adv-x="757" />
<glyph unicode="&#x2001;" horiz-adv-x="1515" />
<glyph unicode="&#x2002;" horiz-adv-x="757" />
<glyph unicode="&#x2003;" horiz-adv-x="1515" />
<glyph unicode="&#x2004;" horiz-adv-x="503" />
<glyph unicode="&#x2005;" horiz-adv-x="378" />
<glyph unicode="&#x2006;" horiz-adv-x="251" />
<glyph unicode="&#x2007;" horiz-adv-x="251" />
<glyph unicode="&#x2008;" horiz-adv-x="188" />
<glyph unicode="&#x2009;" horiz-adv-x="303" />
<glyph unicode="&#x200a;" horiz-adv-x="83" />
<glyph unicode="&#x2010;" horiz-adv-x="1548" d="M94 483l33 78q0 2 659 2h660l-14 -41l-13 -39h-1325z" />
<glyph unicode="&#x2011;" horiz-adv-x="1548" d="M94 483l33 78q0 2 659 2h660l-14 -41l-13 -39h-1325z" />
<glyph unicode="&#x2012;" horiz-adv-x="1548" d="M94 483l33 78q0 2 659 2h660l-14 -41l-13 -39h-1325z" />
<glyph unicode="&#x2013;" horiz-adv-x="1220" d="M94 483l25 78q0 2 500 2h499l-11 -41l-9 -39h-1004z" />
<glyph unicode="&#x2014;" horiz-adv-x="2244" d="M94 483l50 78q0 2 999 2h999l-22 -41l-18 -39h-2008z" />
<glyph unicode="&#x2018;" horiz-adv-x="440" d="M92 1104q0 100 172 317l23 29q4 0 26 -29l-12 -24q-84 -150 -84 -205v-10v-13q0 -47 53.5 -123.5t53.5 -113.5q0 -43 -32 -67.5t-52 -24.5q-41 0 -94.5 93t-53.5 171z" />
<glyph unicode="&#x2019;" horiz-adv-x="440" d="M100 1333q0 14 4 31q4 12 33 32.5t51 20.5q39 0 92.5 -99t53.5 -165q0 -59 -41 -136t-91 -141.5t-50 -66.5q-4 0 -18.5 11t-14.5 14q96 141 96 237v12q0 35 -57.5 121t-57.5 129z" />
<glyph unicode="&#x202f;" horiz-adv-x="303" />
<glyph unicode="&#x205f;" horiz-adv-x="378" />
<glyph unicode="&#xe000;" horiz-adv-x="965" d="M0 965h965v-965h-965v965z" />
<glyph unicode="&#xe300;" horiz-adv-x="1017" d="M154 354q0 147 24 357l98 77q88 68 101 80l-15 9q-6 2 -14 6q-111 47 -152.5 87t-41.5 124q8 152 161 305q20 -12 21 -21q0 -6 -14.5 -23.5t-27.5 -51t-13 -78.5q0 -94 92 -164t201.5 -98.5t203.5 -48t96 -21.5q0 -4 1.5 -23.5t3.5 -54.5t2 -74q0 -287 -70 -518l-6 -20 l-180 -135q-178 -133 -183 -134q-16 6 -151 111l-105 94l-26 27l-2 27q-4 73 -4 161zM313 322q0 -33 6 -46q4 -20 106.5 -96t147.5 -76q53 0 94.5 142.5t41.5 361.5q0 86 -4.5 117t-4.5 35l-137 47l-137 47q-10 0 -33.5 -38t-48.5 -133t-25 -214q-6 -86 -6 -147z" />
<glyph unicode="&#xe301;" horiz-adv-x="1019" d="M72 1165l34 17q41 18 95 38l86 30q33 11 37 12q33 -8 86 -25.5t191 -90.5t243 -169l10 -10q23 -20 27 -46t4 -151q0 -313 -64 -516q-12 -37 -16 -44t-23 -22q-63 -49 -207.5 -148t-152.5 -99q-10 -4 -141 112l-76 70l-45 47l-2 59q-2 41 -2 119q0 182 20 352l4 37l27 23 q31 31 128 105.5t105 74.5q2 0 19.5 -8t17.5 -10l-8 -9l-24 -24l-29 -31q-49 -51 -57.5 -61.5t-14.5 -34.5q-25 -78 -25 -225q0 -195 17 -256q8 -25 66.5 -72t113.5 -82l53 -35q2 0 15.5 14.5t35 54.5t41 98t34 160.5t14.5 227.5q0 104 -4 150l-3 34l-34 35 q-201 199 -437 279l-26 10l-62 -14l-63 -13z" />
<glyph unicode="&#xe302;" horiz-adv-x="681" d="M59 725l62 63h65q66 0 66 3l-6 92q-8 92 -8 164v18q0 150 118 264q68 63 127 64q45 0 98.5 -33t57.5 -33q12 0 31 16l6 7q14 10 14 4q0 -2 2 -8q0 -10 2 -19l-145 -168l-17 17q-53 53 -110 53q-49 0 -87 -32t-38 -89q0 -100 135 -317l115 -3h117l-52 -63h-174v-86 q0 -463 -43 -758l-2 -22l-155 -299h-17q-33 0 -33 6q2 2 17.5 47t33 110.5t23.5 112.5q12 80 12 209q0 66 -9 334t-9 336v10h-197z" />
<glyph unicode="&#xe303;" horiz-adv-x="673" d="M57 731l78 64h53q53 0 54 2l-19 90q-37 166 -37 198q0 70 51.5 145t98.5 114.5t61 44.5q2 0 13.5 1t17.5 1q121 0 219 -82l-47 -95q-53 -94 -61 -96h-2q-4 0 -13 15q-70 123 -155 122q-41 0 -70 -28.5t-29 -71.5t78 -185.5t82 -174.5h221l-45 -66h-184v-70 q-4 -78 -4 -137q-4 -70 -4 -192v-127q0 -145 -16.5 -249t-69.5 -208q-25 -45 -90 -154l-31 -51l-21 8q-12 4 -15 6.5t-1 4.5l37 110q31 96 37 180t6 371q-6 463 -10 500v8h-93z" />
<glyph unicode="&#xe304;" horiz-adv-x="1030" d="M106 -293q0 10 78 195q0 2 11 2h12q14 -70 93 -140.5t220 -70.5q80 0 151.5 49t71.5 147q0 33 -22.5 170.5t-26.5 141.5l-182 -131q-184 -131 -186 -131l-168 192v14q-6 49 -6 211q0 78 3 141.5t7 105.5t8 68.5t9 50t5 28.5l56 36q182 127 247 164l25 15 q55 -33 114.5 -57.5t90.5 -33.5l31 -8q4 0 81.5 42t77.5 44l13 -20q-37 -84 -48.5 -190.5t-15.5 -329.5q0 -135 4 -164q37 -256 37 -287q0 -14 -1 -24.5t-7 -22.5t-10.5 -19.5t-18.5 -24.5t-24.5 -27.5t-34.5 -38.5l-43 -48l-50 -57l-42 -48q-10 -11 -34 -34t-36 -28 l-35 -14q-23 -9 -45 -11t-55 -2q-102 0 -190.5 36.5t-127.5 73.5zM324 465q0 -129 6 -203v-14l26 -31q59 -63 101 -96l241 139v19q0 43 6.5 217t6.5 217v14l-27 2q-72 6 -147.5 23.5t-121.5 33t-48 15.5q-4 0 -13.5 -29t-19.5 -111.5t-10 -195.5z" />
<glyph unicode="&#xe305;" horiz-adv-x="681" d="M53 729l97 70h38v114q0 322 -20 447q25 12 27 12l2 -8q4 -10 11 -31l13 -37q27 -72 27 -73l41 30q217 152 223 152q2 0 33 -14q-10 -10 -48 -42t-60.5 -55.5t-48.5 -70.5t-34 -105q-2 -10 -4 -32.5t-2 -38.5v-19q2 0 107 82l104 82q72 -123 86 -160l-74 -112l-20 26 q-78 90 -111 90q-27 0 -51 -32q-53 -66 -53 -195v-10h235l-26 -35l-25 -37h-178v-100q4 -111 4 -183q2 -45 2 -143v-61l62 -52q70 -57 75 -57q12 0 82 35l70 37v-49q-2 0 -141 -99l-140 -96l-37 35q-139 129 -153 129l-4 4q2 -4 6 0q10 10 10 467v133h-61z" />
<glyph unicode="&#xe306;" horiz-adv-x="684" d="M59 725l74 76h109v141q-2 78 -2 145q0 4 42 28t83 44l41 23q4 0 12 -4t8 -7v-4q0 -4 -1 -9t-1 -11q-20 -131 -21 -334v-10h254l-53 -80h-196v-191q0 -211 2 -235v-47l141 -111q4 -2 10 -2q16 0 74.5 34t64.5 34q2 0 6.5 -16.5t2.5 -18.5l-277 -213l-80 68 q-113 96 -112 104q0 4 1 49l3 130q2 85 2 179v236h-92z" />
<glyph unicode="&#xe307;" horiz-adv-x="1026" d="M20 788v3l224 182q63 -74 84 -92l22 -17v-26q4 -66 4 -224q0 -147 -14 -239t-28.5 -126t-14.5 -40q127 -43 199 -90l194 94v14q6 72 6 238q0 190 -2 254.5t-2 116.5v30l172 95q6 -8 15 -15l-7 -49q-27 -172 -26 -383q0 -203 20 -270q6 -18 24.5 -47t35.5 -29q4 0 116 43 q10 -10 11 -29q0 -4 -15.5 -16t-72 -61.5t-127.5 -118.5l-29 -27q-4 4 -10 6q-8 6 -17 23q-4 8 -6 14q-20 47 -37.5 80t-27 45t-14.5 22.5t-5 22.5l-2 14v-26l-26 -15q-74 -37 -141 -86l-101 -76q-35 -28 -53 -28q-12 0 -45 27q-156 113 -201 112h-2l8 10q8 10 21.5 35 t23.5 58q33 127 33 323q0 94 -12.5 155.5t-24.5 83t-35 48.5l-26 -12q-10 -6 -25.5 -12.5t-34.5 -16.5q-4 4 -9 8t-8 6l-6 4q-4 2 -6 4z" />
<glyph unicode="&#xeffd;" horiz-adv-x="614" d="M0 0v205h205v-205h-205zM410 0v205h204v-205h-204z" />
<glyph unicode="&#xeffe;" horiz-adv-x="614" d="M0 0v205h205v-205h-205zM410 0v205h204v-205h-204z" />
<glyph unicode="&#xefff;" horiz-adv-x="204" d="M0 0v205h205v-205h-205z" />
</font>
</defs>
</svg>
