<?xml version="1.0" standalone="no"?>
<!DOCTYPE svg PUBLIC "-//W3C//DTD SVG 1.1//EN" "http://www.w3.org/Graphics/SVG/1.1/DTD/svg11.dtd" >
<svg xmlns="http://www.w3.org/2000/svg">
<metadata>
This is a custom SVG webfont generated by Font Squirrel.
Copyright   : Copyright c 20092010 Design Science Inc
</metadata>
<defs>
<font id="MathJax_CaligraphicBold" horiz-adv-x="1177" >
<font-face units-per-em="2048" ascent="1638" descent="-410" />
<missing-glyph horiz-adv-x="512" />
<glyph unicode=" "  horiz-adv-x="512" />
<glyph unicode="&#x09;" horiz-adv-x="512" />
<glyph unicode="&#xa0;" horiz-adv-x="512" />
<glyph unicode="0" d="M94 449q0 55 3 94t20.5 109.5t50.5 118.5t100.5 94t161.5 65q49 12 100 12h41q150 0 254.5 -32.5t180.5 -135.5q76 -119 75 -325q0 -244 -108 -357q-119 -127 -385 -127q-276 0 -385 125.5t-109 358.5zM379 430q0 -209 18 -260q29 -98 191 -98q61 0 100 14 q74 27 91.5 89.5t17.5 242.5v51v86q0 164 -38 223.5t-186 59.5q-98 0 -147 -50q-29 -29 -38 -82t-9 -237v-39z" />
<glyph unicode="1" d="M164 791q0 37 3 43t28 20h49q147 0 247.5 22.5t144.5 45t56 22.5q31 0 39 -19.5t8 -105.5q0 -23 -1 -120t-1 -179v-393h123h74q55 0 66.5 -8t11.5 -47v-13q0 -33 -7.5 -46t-35.5 -13q-10 0 -101.5 2t-263.5 2t-263 -2t-101 -2q-6 0 -12.5 1t-8.5 1q-23 14 -22 53v17 q0 39 13 47t77 8h61h121v309q0 307 -2 307q-39 -12 -201 -16h-76q-18 10 -22 20.5t-4 43.5z" />
<glyph unicode="2" d="M104 66q0 45 11 53q8 8 239 149q252 156 297 191q102 82 103 172q0 70 -54.5 113.5t-120 58t-141.5 14.5q-25 0 -47 -3t-32.5 -6t-10.5 -5l2 -4q2 -2 6 -8.5l8.5 -14.5t6.5 -21.5t2 -27.5q0 -55 -35 -88t-86 -33q-49 0 -85 33t-36 90q0 84 84 148.5t303 64.5q98 0 172 -8 t153 -31.5t133 -77t77 -133.5q4 -20 4 -57v-12q0 -96 -94 -158q-29 -20 -88.5 -46t-104.5 -42l-45 -17l-59 -28l-99 -47l-47 -23q328 2 357 4h22q23 37 29 74t15 46t52 9h15q45 0 49 -30q0 -14 -32 -173t-36 -169q-6 -16 -25.5 -19.5t-125.5 -3.5h-289q-418 0 -424 4 q-14 6 -18.5 16.5t-4.5 45.5z" />
<glyph unicode="3" d="M98 -109q0 72 43 120t121 48q82 0 123 -50t41 -111q0 -18 -3 -35t-8 -29t-12.5 -23.5t-13.5 -18.5t-14 -15t-13.5 -11.5t-13.5 -7.5l-6 -6q-14 -8 -6 -12q6 -4 24 -12q80 -39 189 -39h10q131 0 170 123q16 47 16 159q0 121 -25.5 181.5t-98.5 93.5q-33 10 -129 10h-21 q-59 0 -69.5 5t-10.5 38v12q2 37 11.5 43t74.5 11q2 0 17.5 1t21.5 2t21.5 3t23.5 5l24 9q15 6 24 14l23 21q13 12 22.5 27.5t18.5 35t17 43.5q16 47 17 129v21q0 31 -4.5 52.5t-17.5 48t-47 42t-85 15.5q-90 0 -191 -62q100 -43 101 -137q0 -82 -45 -118t-105 -36 q-61 0 -105 38t-44 114q0 119 105.5 215t295.5 96q229 0 338 -91t109 -212q0 -98 -64.5 -184t-183.5 -140l-25 -8l31 -8q123 -31 214 -114t91 -218t-78.5 -229t-191.5 -133t-244 -39q-195 0 -329 90t-134 233z" />
<glyph unicode="4" d="M66 55v21q0 45 4 53t349 413.5t353 409.5q6 6 12 6h9q8 0 22 1.5t27 1.5q43 0 56 -3.5t22 -17.5q4 -8 4 -412v-401h77h19q68 0 79 -8t11 -56q0 -45 -11.5 -54t-66.5 -9h-31h-77v-270h77h19q66 0 78 -8.5t12 -55.5q0 -37 -8 -50t-33 -13q-8 0 -81 2t-214 2q-199 0 -250 -2 l-80 -2q-29 10 -28 51v12v10q0 37 12 45.5t76 8.5h39h100v270h-274q-51 0 -116 -1t-81 -1q-74 0 -90 9t-16 48zM215 129l225 -2h226v528z" />
<glyph unicode="5" d="M117 -90q0 66 40 107.5t111 41.5q57 -6 90 -34.5t39 -51t6 -45.5v-12q0 -35 -4 -51q-8 -20 -20 -37.5t-25.5 -27t-25 -15.5t-17.5 -8l-8 -2q0 -4 21.5 -23.5t75 -41t116.5 -21.5q45 0 57 2q113 29 141.5 96.5t28.5 230.5q0 156 -14 216.5t-70 87.5q-35 18 -73 18 q-72 0 -130.5 -24.5t-84 -47t-39.5 -45.5q-16 -23 -25.5 -28t-40.5 -5q-47 0 -57 23q-4 6 -4 358v189v108q0 76 20 76q8 0 28 -6l53 -17q34 -11 69 -18q104 -25 211 -24q55 0 111.5 7t96.5 16t71.5 18.5t51 16.5t21.5 7q29 0 29 -53q0 -31 -4 -35q-12 -27 -66.5 -80 t-176.5 -110.5t-257 -57.5q-76 0 -113 8h-6v-243q2 0 13.5 7t32 18.5t48 21.5t70.5 17t90 7q203 0 332 -119.5t129 -314.5q0 -199 -149.5 -320.5t-387.5 -121.5q-180 0 -292.5 104.5t-112.5 237.5z" />
<glyph unicode="6" d="M98 647q0 168 45 299t112 205t152 122t154.5 63.5t132.5 15.5q78 0 92 -2q231 -55 232 -260q0 -51 -32 -93.5t-103 -42.5q-70 0 -102.5 42t-32.5 89q0 80 81 129q-47 20 -49 21q-41 8 -63 8q-70 0 -146.5 -38t-117.5 -113q-45 -90 -52 -304l-2 -30q2 2 16.5 19.5t29 31.5 t41 31.5t53.5 27.5q41 14 102 15q197 0 317 -129q119 -119 119 -328q0 -158 -69.5 -260.5t-178.5 -155.5q-94 -45 -237 -45q-68 0 -128.5 13.5t-130 57.5t-118.5 114.5t-83 198.5t-34 298zM401 434q0 -221 41 -270q49 -80 156 -80q6 0 18.5 1t16.5 1q59 8 94 41 q35 39 42 95.5t7 248.5q-2 172 -14 211q-29 86 -150 96h-12q-100 0 -149.5 -100.5t-49.5 -243.5z" />
<glyph unicode="7" d="M131 461q0 8 37 245.5t41 245.5q8 23 47 23h12q63 0 64 -37q0 -14 104 -20q16 0 51 -2.5t45 -2.5q2 0 308 -4q53 0 119.5 1t82.5 1q72 0 86.5 -10t14.5 -55v-19q0 -18 -23.5 -48.5t-140.5 -162.5l-176 -202q-78 -106 -109.5 -248.5t-36.5 -378.5v-57q0 -113 -71 -146 q-27 -16 -64 -16q-39 0 -79 25.5t-54 78.5q-2 14 -2 62q10 301 191 585q55 90 180 234q70 76 61 76h-219q-291 -2 -301 -8q-12 -6 -28.5 -90.5t-24.5 -90.5q-10 -10 -51 -10h-15q-45 0 -49 31z" />
<glyph unicode="8" d="M98 336q0 72 23.5 131t66.5 100t74 62.5t72 44.5q-8 6 -17 14q-41 20 -92 94q-61 92 -61 195q0 178 137 293q113 82 240 82q4 0 22.5 1t30.5 1q193 0 305.5 -86t112.5 -232q0 -41 -11.5 -78.5t-23.5 -62.5t-38 -50.5l-38 -36.5t-39.5 -29.5l-30.5 -20.5l9 -4 q8 -6 22.5 -14.5t32.5 -21.5t38.5 -31.5t41 -40t39 -50.5t33 -59.5t22.5 -69.5t8 -80q0 -197 -136 -309.5t-363 -112.5q-82 0 -159 17.5t-153 56.5t-122 116t-46 181zM303 334q0 -96 64.5 -172t228.5 -76q152 0 213 57.5t61 130.5v15q0 59 -50 101t-167 106l-35 18l-74 42 q-42 24 -63 34l-20 12q-6 -4 -17.5 -10t-38 -30.5t-47 -52.5t-38 -76t-17.5 -99zM344 1098q0 -29 9 -48.5t46 -46t61 -39.5l103 -57l146 -82q123 88 122 211q0 80 -56 143.5t-195 63.5q-133 -2 -184.5 -46t-51.5 -99z" />
<glyph unicode="9" d="M98 481q0 78 23 168q45 131 169 213t275 82q6 0 18.5 -1t20.5 -1q63 0 121.5 -13.5t125.5 -56.5t115 -112.5t79.5 -193.5t31.5 -287q0 -193 -52 -336.5t-140 -221t-186.5 -114.5t-206.5 -37q-84 0 -146.5 19.5t-97.5 47t-56.5 65.5t-27.5 68.5t-6 61.5q0 63 37.5 100 t97.5 37q55 0 95 -37.5t40 -97.5q0 -72 -70 -121q47 -25 125 -24q119 0 197 73q49 51 69.5 127t26.5 238v33l-6 -8l-20 -22q-12 -13 -28.5 -28.5t-40.5 -31t-50 -23.5q-39 -12 -94 -12q-193 0 -316 122.5t-123 323.5zM401 371q0 -121 31 -175.5t137 -54.5h41q66 27 97 72 q45 61 63 176q2 20 2 111v61q0 53 -3 87t-15.5 74t-41 65.5t-73.5 41.5q-10 2 -59 2q-53 0 -92 -21.5t-51.5 -39.5t-16.5 -31q-18 -41 -19 -209v-53v-106z" />
<glyph unicode="A" horiz-adv-x="1886" d="M80 113q0 76 43 156.5t88 86.5q20 0 29.5 -15t13.5 -35.5t24.5 -44t61.5 -36.5q35 -10 49 -10q82 0 309 289q123 156 229.5 309.5t160 239.5t105.5 179t58 101h60v25q0 59 74.5 112.5t140.5 65.5q4 0 15 1t18 1q47 0 47 -47v-35q0 -289 22.5 -602t50.5 -463 q49 -236 93 -235q6 0 76.5 35.5t121.5 37.5h23q33 -16 32 -36q0 -4 -4 -17q-18 -80 -288 -199q-70 -29 -138 -30q-117 0 -145 71q-41 78 -80 312h-297l-297 2l-41 -53q-150 -190 -256 -284.5t-188 -94.5t-146.5 61.5t-64.5 151.5zM918 518q39 16 155 17h90h185v10 q-10 94 -18.5 227t-11.5 229.5t-5 106.5v31l-172 -289q-117 -185 -223 -332z" />
<glyph unicode="B" horiz-adv-x="1531" d="M82 2q0 12 26.5 58t70.5 145.5t75 224.5q78 334 135 748q-4 0 -33.5 -17.5t-73.5 -34t-81 -16.5q-47 0 -47 37q0 57 98 119q25 14 165 83.5t158 75.5q37 14 72 15q47 0 47 -37q0 -59 -22 -209l10 10l28 23q17 14 41.5 32.5t56.5 39l68.5 42t80.5 40t90.5 32.5t98.5 22.5 t105 8.5q82 -2 144 -33q119 -61 118 -186q0 -186 -294 -351l-23 -12q2 -2 23.5 -10t31 -12t33 -16.5t35.5 -20.5t33.5 -24.5t33.5 -32.5l29 -36q16 -22 24.5 -45.5t15.5 -53t9 -62.5v-11q0 -147 -102 -272q-88 -117 -275.5 -209t-373.5 -92q-150 0 -252 55 q-39 18 -52.5 28.5t-13.5 25.5q0 43 78 103.5t164 66.5h22q131 -74 244 -74q266 0 266 229q0 104 -67.5 172t-147.5 89.5t-163 21.5q-16 0 -59.5 -6t-57.5 -6q-45 0 -45 37q0 18 13 41.5t68.5 62.5t147.5 70q260 86 332 139q27 20 27 76q0 80 -56.5 110.5t-120.5 30.5 q-80 0 -135 -43q-106 -76 -205.5 -258t-156.5 -412q-57 -221 -162 -401q-39 -63 -86 -96q-80 -57 -156 -62h-6q-51 0 -51 37z" />
<glyph unicode="C" horiz-adv-x="1255" d="M41 446q0 127 40 259.5t121 257t193.5 225t269 167t334.5 83.5h5q2 0 6 1t10 1t19.5 -1t21.5 -1h16q150 0 150 -146q0 -70 -46 -167t-73 -130q-37 -47 -104.5 -80.5t-120.5 -33.5q-16 0 -25 6q-20 8 -20 35q2 12 47 101t45 138q0 39 -17.5 56.5t-62.5 17.5 q-203 0 -330 -145q-78 -92 -131 -228.5t-53 -279.5q0 -115 35 -201t92 -131t115.5 -65.5t117.5 -20.5q76 0 133.5 32.5t90 71.5t88 75t125.5 40h4q51 0 51 -39q0 -31 -60.5 -93.5t-152.5 -128t-224.5 -114.5t-252.5 -49q-221 0 -339 140t-118 347z" />
<glyph unicode="D" horiz-adv-x="1826" d="M41 952q0 35 29.5 92.5t85.5 112.5q94 88 198 137q221 111 561 111h68h76q358 0 547 -113q207 -123 206 -370q0 -227 -164.5 -432t-448.5 -337.5t-613 -150.5q-20 -2 -203 -2h-164q-31 10 -31 37q0 31 43 73t97 66q20 10 44.5 17.5t30.5 11.5l19 41q86 217 138 445.5 t62.5 336t10.5 170.5q-63 0 -153.5 -17.5t-112.5 -39.5q-14 -14 -27.5 -52t-20.5 -47q-33 -51 -105.5 -89t-123.5 -38q-49 0 -49 37zM653 205h11q383 0 622 153q123 82 177.5 206t54.5 237q0 68 -21.5 126t-76 117.5t-165 99.5t-270.5 52q-10 0 -27.5 1t-21.5 1l-16 2v-14 q-16 -160 -50 -317.5t-70 -271.5t-70 -203t-55.5 -138t-21.5 -51z" />
<glyph unicode="E" horiz-adv-x="1243" d="M76 227q0 59 26.5 133t114.5 178.5t225 190.5q-2 2 -18 12.5t-34.5 24.5t-38 36.5t-32 56.5t-12.5 75q0 133 120 254t271.5 185.5t272.5 64.5q2 2 51 2q59 0 99 -4t79 -17.5t59.5 -41t24.5 -72.5q0 -109 -95 -178.5t-175 -69.5q-20 0 -35.5 9t-15.5 24q0 10 12 36.5 t12 40.5q0 39 -36 53.5t-130 14.5q-117 0 -168 -43q-49 -49 -49 -129q0 -53 35 -93t89 -58.5t105.5 -28t98.5 -9.5q45 0 45 -36q0 -29 -49 -79t-131 -77q-18 -6 -91 -12t-135.5 -31t-113.5 -82q-86 -100 -86 -197q0 -92 90 -141t203 -49q86 0 145 30.5t109.5 79t78.5 62.5 q61 37 123 41h8q47 0 48 -35q0 -39 -81 -116.5t-232.5 -158.5t-307.5 -104q-23 -2 -92 -2q-92 0 -152 15q-98 27 -166.5 86t-68.5 159z" />
<glyph unicode="F" horiz-adv-x="1667" d="M35 74q0 47 81 106.5t160 63.5q20 0 29.5 -4t32.5 -27q45 -53 127 -66q10 0 14 9q23 35 80 142.5t157.5 364.5t151.5 504l9 33h-312q-23 -23 -76 -47.5t-100 -24.5q-20 0 -33.5 10.5t-13.5 26.5q0 23 24.5 57.5t70.5 75.5t132 71t191 34q6 2 518 2q489 -2 541 -8 q59 -8 79 -39q6 -10 7 -27q0 -53 -87 -111.5t-155 -58.5q-16 0 -34.5 7.5t-18.5 17.5q0 14 -285 14h-180l-2 -8q0 -14 -39 -148.5t-68 -209.5l-16 -48h567q27 -12 31 -32q0 -82 -90 -143.5t-166 -61.5q-39 0 -47 33h-379l-21 -47q-104 -227 -178 -342q-63 -98 -184 -176 t-248 -78q-53 0 -100 12t-77 29.5t-52.5 38t-31.5 35t-9 20.5z" />
<glyph unicode="G" horiz-adv-x="1396" d="M102 571q0 168 79 326t208 271.5t297 186t344 83.5h23q20 2 37 2q285 0 284 -158q0 -94 -117.5 -230.5t-242.5 -136.5q-47 0 -47 37q0 25 56 94.5t56 104.5q0 41 -41 61.5t-151 20.5q-168 0 -269 -68q-102 -70 -161.5 -205t-59.5 -255q0 -160 89 -260.5t235 -100.5 q100 0 184 76t129 227q20 59 95 106.5t145 51.5h6q49 0 49 -35q0 -10 -28.5 -118.5t-47.5 -166.5q-66 -221 -147.5 -358t-200.5 -227q-182 -133 -364 -133h-25l-12 2q-115 0 -213 12t-125 22q-20 12 -21 31q0 49 80 105.5t158 64.5q18 0 101 -13.5t208 -19.5q68 0 80 11 q68 68 141 249l11 29q-201 -121 -406 -121q-197 0 -306.5 125t-109.5 307z" />
<glyph unicode="H" horiz-adv-x="2021" d="M41 952q0 33 55.5 103.5t148.5 150.5t244.5 139.5t313.5 59.5q104 0 145 -45t43 -98q0 -211 -88 -525q0 -2 223 -2h226l6 23q43 133 108.5 311t85.5 209q27 45 99.5 86t130.5 41q49 0 49 -37q0 -2 -56.5 -146.5t-129 -370.5t-105.5 -405q-31 -168 -31 -256 q0 -33 19.5 -57t64.5 -24q43 0 52.5 3t21.5 17q35 47 103.5 82t121.5 35q45 0 45 -41q-2 -31 -31.5 -76t-87 -96t-168 -89t-249.5 -42h-6q-115 0 -160 78q-20 29 -21 79q0 86 21.5 209t42.5 203l20 80q-4 0 -20 -6q-29 -10 -49.5 -11.5t-190.5 -3.5h-196l-25 -75 q-113 -328 -158 -412q-43 -57 -110.5 -92t-120.5 -35h-4q-41 0 -45 33q0 16 15 55l57 142q41 103 84 231q47 147 47 151q0 2 -117 2h-117q-2 0 -8 5l-9 6l-7.5 5t-5.5 9t-1 12q0 39 60.5 89.5t134.5 72.5q18 4 74 6q53 0 53 2q4 25 12 51q29 133 43 289q0 8 1 19.5t1 15.5 q0 88 -90 88q-84 0 -142 -21.5t-80 -46t-46.5 -62.5t-38.5 -52q-39 -43 -101.5 -73t-111.5 -30q-45 0 -45 37z" />
<glyph unicode="I" horiz-adv-x="1314" d="M-55 37q0 39 59 88t117 65q37 14 170 15h115q117 158 206 551q78 295 170 420l19 24h-88q-178 0 -353 -20q-27 -68 -106.5 -113t-138.5 -45q-49 0 -49 35q0 49 66.5 132t205.5 140q156 68 410 74h23q22 0 58.5 1t81.5 1h105h117h366q29 -18 29 -37q0 -45 -72 -98 t-141 -68l-144 -2h-141q-49 -82 -92 -220t-70.5 -260t-84 -261.5t-132.5 -231.5l-18 -20l211 -2h209l18 18q90 84 195 90q53 0 53 -37q0 -6 -4 -22q-27 -78 -125 -148.5t-215 -93.5q-45 -8 -89 -9t-444 -3q-465 0 -473 4q-24 8 -24 33z" />
<glyph unicode="J" horiz-adv-x="1595" d="M109 66q0 55 10 83.5t43 59.5q96 92 200 92q47 0 48 -39q0 -10 -4.5 -32.5t-4.5 -32.5q0 -100 87 -162t219 -62q35 0 65.5 8.5t55 19.5t46 31.5t37 38t29.5 43t22.5 43t16.5 43t11 38t9 32.5l5 19l62 237q19 72 69.5 219.5t111 251t135.5 183.5l21 20h-105h-45 q-164 0 -262 -45q-63 -31 -99 -78t-54.5 -98t-28.5 -64q-35 -47 -102.5 -81.5t-120.5 -34.5q-47 0 -47 35q0 51 61.5 152t151.5 173q295 248 731 248q29 0 76 -1t65 -1h266q29 -18 29 -37q0 -41 -65.5 -92t-129.5 -70q-27 -4 -51 -6t-31.5 -3t-14.5 -4t-13 -9 q-162 -147 -320 -797q-20 -74 -34.5 -114t-55.5 -107.5t-104 -130.5q-113 -115 -273.5 -191.5t-320.5 -76.5q-113 0 -182 28q-215 81 -215 271z" />
<glyph unicode="K" horiz-adv-x="1783" d="M82 0l74 188q74 190 152.5 471t88.5 496v29l-53 -27q-88 -47 -143 -47q-47 0 -47 37q0 57 98 119q18 12 155.5 80.5t155.5 74.5q33 18 82 19q25 0 36 -8.5t12 -18.5t1 -41q0 -152 -33.5 -338t-81 -344t-94.5 -293t-79 -213l-35 -75q-23 -45 -92.5 -92.5t-139.5 -51.5h-6 q-51 0 -51 35zM633 815q0 27 2 40t20.5 50t55.5 82q111 123 349 273.5t394 177.5q4 0 22.5 1t28.5 1q76 0 115 -27q57 -33 57 -90t-56 -100t-120 -47h-22q-37 20 -37 51q4 16 -9.5 23t-56.5 14l-24 -9q-104 -37 -278.5 -153.5t-207.5 -179.5v-21q0 -131 133.5 -396 t237.5 -335q35 -27 74 -27q76 0 125 25q25 10 36 40t38.5 63.5t93.5 56.5q18 6 49 6q55 0 55 -43q0 -35 -31.5 -86t-92 -106.5t-168 -93.5t-236.5 -38h-33q-41 0 -107 45q-80 55 -177 210t-163.5 325t-66.5 268z" />
<glyph unicode="L" horiz-adv-x="1613" d="M84 0q0 45 90 111q33 29 58.5 79t39.5 100l44 160q30 110 57 195q98 301 254 488q80 94 175 161.5t177 95t133 39t80 11.5q4 0 15.5 -1t17.5 -1q92 0 139 -53.5t47 -129.5q0 -51 -12 -77q-18 -49 -104.5 -105.5t-164.5 -56.5q-45 0 -45 33q0 10 3.5 26.5t3.5 26.5 q0 43 -24 81t-85 38h-8q-29 0 -52.5 -17.5t-72.5 -89.5q-133 -199 -215 -539q-53 -205 -100 -296l-13 -25h62q117 -2 319.5 -35t290.5 -35l27 -2q14 55 104 113.5t168 58.5q45 0 45 -32q0 -80 -135 -199t-332 -154q-18 -2 -90 -2q-119 0 -325.5 33t-305.5 37h-33l-26 -17 q-90 -55 -162 -55q-45 0 -45 35z" />
<glyph unicode="M" horiz-adv-x="2822" d="M78 41q0 80 46 162t89 82q4 0 46 -30t101 -38h11q39 0 83 68.5t132 289.5q74 182 114.5 348.5t53 266.5t16.5 108q16 47 90 94.5t137 47.5q31 0 41.5 -15.5t30.5 -95.5q33 -123 66 -229q51 -172 113.5 -338t104.5 -255q44 -93 52 -93q4 0 108 86l187 159l688 656 q121 119 131 121l14 4q43 0 43 -74l-10 -61q-10 -61 -24.5 -162t-29.5 -219.5t-25.5 -257t-10.5 -252.5q0 -256 47 -256q10 0 76.5 34.5t116.5 36.5h6q49 0 49 -36q0 -27 -39 -70q-47 -47 -176 -109.5t-201 -62.5h-18h-13q-102 0 -124 102q-20 100 -21 221q0 215 45 598 q2 8 2 17l-53 -49q-389 -375 -569 -535l-183 -149q-84 -66 -97 -75t-32 -11q-23 0 -33 7t-42 52q-98 127 -164 277q-96 223 -187 514l-10 34l-12 -45q-74 -274 -217 -596q-57 -133 -112.5 -222t-102.5 -128t-79 -51t-65 -12q-59 2 -124.5 36.5t-65.5 104.5z" />
<glyph unicode="N" horiz-adv-x="1918" d="M-49 43q0 76 43 159t90 83h12q70 -70 154 -70q31 0 51 25q25 35 73 169t106.5 372.5t80.5 467.5q2 49 21 76q27 39 88 77t127 38q29 0 40 -17.5t40 -101.5q106 -317 284 -711q125 -276 217 -399q2 -2 2 -1t2 7q117 461 263 911q80 252 147 357q68 102 186.5 168.5 t235.5 66.5h6q43 0 43 -75q0 -72 -36 -143.5t-75 -90.5q-12 -6 -38 -6q-94 -6 -173 -48t-96 -79q-41 -92 -131 -397.5t-158 -565.5l-69 -258q-2 0 -6 -6q-14 -51 -85 -100t-145 -49q-23 0 -33 7t-38 44q-111 137 -197 301q-129 244 -303 694l-8 21l-6 -33 q-70 -336 -201 -682q-139 -354 -318 -354q-70 0 -137 43q-59 41 -59 100z" />
<glyph unicode="O" horiz-adv-x="1855" d="M129 526q0 162 64.5 312.5t161 256t204 186.5t194.5 120t132 39h2q47 0 47 -37q0 -27 -32 -61.5t-68 -57.5q-10 -8 -59.5 -32.5t-104 -66.5t-105.5 -112q-141 -184 -141 -409q0 -209 129 -350.5t350 -141.5q256 0 431 191.5t175 455.5v10q0 186 -90 296t-239 110 q-70 0 -136 -88q-41 -47 -77.5 -120t-61.5 -97q-92 -86 -196 -92q-53 0 -54 36q0 6 4 19q18 59 78 145t150 179.5t224 158t275 64.5q203 0 311.5 -137.5t108.5 -344.5q0 -203 -104.5 -391t-265 -317t-356 -207t-378.5 -78q-264 0 -418.5 159.5t-154.5 401.5z" />
<glyph unicode="P" horiz-adv-x="1658" d="M41 952q0 35 29.5 92.5t85.5 112.5q94 88 198 137q217 111 564 111h96h86q174 0 288.5 -18.5t217.5 -81.5q127 -80 127 -213q0 -166 -144.5 -324t-367 -252t-447.5 -94h-24l-17 -51q-35 -104 -87 -232.5t-68 -152.5q-41 -53 -108 -88t-122 -35q-47 0 -47 37q0 14 32 84.5 t86 218t99 317.5q96 356 113 678q-63 0 -152.5 -17.5t-111.5 -39.5q-14 -14 -27.5 -52t-20.5 -47q-33 -51 -105.5 -89t-123.5 -38q-49 0 -49 37zM797 573q2 0 19.5 9.5t43 21.5t43.5 17q4 2 88 7t181.5 29.5t160.5 77.5q102 88 103 223q0 90 -83 147.5t-185.5 76 t-223.5 18.5h-26v-8q-4 -12 -11.5 -76.5t-31 -200t-66.5 -299.5z" />
<glyph unicode="Q" horiz-adv-x="1923" d="M246 594q0 188 128 370.5t329.5 306.5t418.5 156q61 12 109 13q6 0 21.5 -1t23.5 -1q82 0 131 -13q150 -35 266.5 -159.5t116.5 -337.5q0 -166 -78 -317.5t-177 -248t-229 -180.5t-194.5 -114.5t-116.5 -51.5l-6 -2q4 -4 83 -28.5t203 -52t212 -27.5q31 0 41 2t18 9 t15 28q16 53 90.5 103t146.5 54h25q31 -16 30 -34q0 -84 -137 -207t-344 -158q-16 -2 -86 -2q-184 0 -490.5 95t-459.5 102q-66 0 -66 36.5t61.5 89t133.5 72.5q8 2 120.5 9.5t221 22.5t255 76.5t251.5 164.5q182 186 182 424q0 186 -116.5 313t-313.5 127 q-225 0 -374.5 -157.5t-149.5 -348.5q0 -145 95 -228t224 -83q115 0 303 39q53 0 54 -37q0 -41 -59.5 -88t-117.5 -68q-154 -51 -393 -51q-182 0 -291.5 110.5t-109.5 272.5z" />
<glyph unicode="R" horiz-adv-x="2027" d="M41 952q0 35 29.5 92.5t85.5 112.5q94 88 198 137q217 111 564 111h116h158q207 0 335 -28.5t181 -125.5q16 -35 16 -94q0 -86 -37.5 -166t-89 -133t-119 -101t-108.5 -69.5t-76 -36.5l-26 -12l14 -21q29 -47 84 -153.5t59 -112.5q43 -80 80 -123t56.5 -50t44.5 -7 q82 0 181 70.5t173 70.5q49 0 49 -34q0 -45 -91 -119t-238.5 -134.5t-278.5 -60.5q-78 0 -139.5 52.5t-96.5 118.5l-89 173q-54 106 -99 170q-33 45 -64 64q-18 14 -51 18q-43 0 -43 35q0 41 61.5 92t133.5 72q2 0 99 7t172 35.5t110 90.5q37 63 37 137q0 96 -114 133 t-353 37h-45v-8q0 -2 -5.5 -48t-17.5 -123t-32.5 -176.5t-60.5 -234.5t-91 -272q-72 -188 -107 -246q-29 -43 -97.5 -85t-129.5 -42q-53 0 -53 35q0 10 26.5 70.5t67.5 164t83 235.5t78.5 321.5t51.5 386.5v20h-10q-2 0 -18.5 -1t-26.5 -1q-100 -10 -153.5 -28.5t-66 -35 t-20.5 -46t-19 -44.5q-33 -51 -105.5 -89t-123.5 -38q-49 0 -49 37z" />
<glyph unicode="S" horiz-adv-x="1425" d="M51 258q0 121 117 224.5t248 111.5h8q45 0 49 -33q0 -63 -104 -125q-14 -8 -17.5 -15t-3.5 -34t2 -40t24.5 -40.5t67.5 -58.5q117 -78 287 -78q115 0 211 35q70 23 98 84q23 49 23 90q0 47 -25.5 89t-56.5 68.5t-84 53t-81 38t-77 27.5q-90 31 -153.5 67t-95 65.5 t-49 65.5t-19.5 55.5t-2 47.5v19q0 100 91 207.5t253 182.5t342 75t276.5 -41t96.5 -146q0 -49 -15 -88q-20 -45 -93 -92t-138 -51q-57 0 -57 35q0 10 4 23.5t4 31.5q0 41 -19.5 64.5t-40.5 27.5l-18 4q-100 27 -195 27q-53 0 -102 -12.5t-62 -28.5q-33 -33 -32 -102 q0 -82 69.5 -138.5t158.5 -83t195.5 -78t159.5 -116.5q59 -78 60 -166q0 -197 -242 -370t-588 -173q-80 0 -100 2q-184 33 -295 125q-80 62 -80 164z" />
<glyph unicode="T" horiz-adv-x="1318" d="M78 981q0 100 145.5 236.5t368.5 181.5l31 4l1091 4l19 12q88 55 157 56q49 0 49 -37q-4 -63 -113.5 -146.5t-236.5 -97.5q-4 0 -8 -1t-7 -1h-5l-4 -2h-13q-10 0 -29.5 -1t-44.5 -1h-59h-63h-203l-100 -400l-43 -177l-38 -151q-9 -36 -29.5 -108.5t-35.5 -108.5l-36 -88 q-22 -52 -48 -106q-33 -72 -96 -118t-104 -57t-78 -15q-49 0 -49 39q2 10 22.5 51t52 117.5t58.5 169.5l116 460q84 350 101.5 406.5t46.5 85.5h-469l-15.5 -25.5t-6.5 -14.5t-4 -18.5t-9 -29.5q-29 -53 -114 -103.5t-150 -50.5h-4q-43 0 -43 35z" />
<glyph unicode="U" horiz-adv-x="1464" d="M-20 242q0 94 48 237.5t104 264t104.5 241.5t48.5 176q0 39 -31 39q-35 0 -102.5 -35t-120.5 -35h-4q-47 0 -47 37q0 72 164.5 155t310.5 83q125 0 125 -113q0 -84 -76 -261l-152 -364q-76 -187 -76 -296q0 -104 45.5 -152.5t98.5 -48.5q33 0 110 47q180 121 398.5 399.5 t308.5 505.5q6 18 16 44l15 36q4 10 10 27.5t9 25t8 17.5t9.5 15t9.5 12.5t12 12.5t13 10l17 13q90 70 176 70q47 0 47 -35q0 -27 -36 -114t-109.5 -300t-143.5 -487q-31 -125 -41 -254q0 -35 15 -55l49 24q82 43 133 45q55 0 55 -34q0 -27 -39 -72q-41 -41 -166 -103 q-135 -68 -206 -69q-51 0 -76 14q-59 27 -60 101q0 131 70 395q-457 -496 -815 -496q-94 0 -161.5 70t-67.5 207z" />
<glyph unicode="V" horiz-adv-x="1509" d="M51 1245q0 41 73 100.5t179 59.5q74 -6 133.5 -31.5t124 -94.5t109.5 -178.5t74.5 -293.5t33.5 -430l2 -103l37 29q213 160 358.5 315.5t190.5 232.5t45 105q-2 23 -14.5 46.5t-56.5 51t-111 36.5q-49 0 -49 71q0 76 44 159t89 83h16q106 0 181 -76t75 -211 q0 -180 -146.5 -434t-494.5 -547q-131 -109 -264 -201t-158 -92q-37 0 -37 97v14q8 88 9 270q0 766 -258 942q-49 35 -134 41q-51 0 -51 39z" />
<glyph unicode="W" horiz-adv-x="2394" d="M51 1243q0 45 76 103.5t164 58.5q129 0 218 -80t130 -218t56.5 -266t15.5 -278q0 -53 -4 -147v-29q61 61 213.5 261t281.5 409q86 139 86 145q0 4 -7 20.5t-7 20.5q0 45 74.5 100.5t150.5 61.5h25q23 -12 26 -16q0 -2 26 -59.5t60.5 -147.5t74.5 -209t79 -278.5 t61 -319.5q8 -53 13 -66l30 37q147 170 274.5 357.5t127.5 267.5q-2 49 -37 80.5t-90 38.5q-47 0 -47 73q0 66 34.5 140.5t75.5 95.5l15 6h24q78 -4 138.5 -69.5t60.5 -207.5q0 -186 -153.5 -473.5t-479.5 -640.5l-117 -120q-39 -39 -50 -45.5t-23 -6.5q-33 0 -41 92 q-2 8 -2 13q-18 274 -80 543.5t-109 402.5t-53 133q-2 0 -33 -53t-96 -155l-152 -226q-86 -125 -222 -294t-286 -329q-76 -84 -100 -105.5t-43 -21.5q-39 0 -39 76q0 4 9.5 74.5t18.5 194.5t9 257q0 150 -15.5 276t-51 240.5t-104.5 180t-165 65.5q-41 0 -41 37z" />
<glyph unicode="X" horiz-adv-x="1673" d="M115 123q0 92 157.5 221t575.5 363q29 14 35 19t4 9q-23 274 -39 334q-14 59 -40 90t-44.5 36t-46.5 5h-19l-18 -12q-86 -41 -137 -41q-45 0 -45 35q0 16 11 39.5t42 56.5t76 60.5t120.5 47t167.5 19.5h19q33 0 58.5 -6t60 -25.5t60.5 -69t38 -124.5q6 -39 16 -154 l15 -131q0 -2 74.5 41t165.5 101.5t126 90.5q12 14 13 23q0 35 -52.5 45t-52.5 41q0 53 87 110.5t165 57.5q61 0 104 -35t43 -86q0 -96 -148 -216t-450 -292l-61 -35v-10q2 -6 10 -86l17 -168q8 -88 12 -102q14 -104 50 -137t89 -33q14 0 67.5 26.5t102.5 26.5t49 -39 q-4 -57 -93 -126.5t-218 -88.5q-23 -2 -98 -2q-74 0 -88 4q-29 8 -52.5 25.5t-39 33t-28.5 46t-20.5 50t-13.5 60.5t-9 59.5t-7 67.5t-6 64l-9 80l-6 61l-2 22q-12 0 -172 -98q-240 -139 -309 -201q-12 -14 -12 -22q0 -23 16 -34t36.5 -13t37 -11.5t16.5 -27.5 q0 -43 -78 -104.5t-174 -61.5h-18q-47 0 -89 32t-42 89z" />
<glyph unicode="Y" horiz-adv-x="1554" d="M74 -59q0 70 40 133t81 63q18 0 27 -17.5t14.5 -41t26 -54t52.5 -49.5q59 -37 127 -36q47 0 183 75l114 76l13 10v11q0 84 -6.5 182t-28 266t-78.5 319.5t-141 239.5q-76 72 -179 86l-20 -14q-78 -53 -149 -53q-49 0 -50 37q0 59 125 145t264 86q164 0 281 -127 q82 -82 139.5 -232.5t81 -306t31.5 -248t8 -137.5q0 -16 2 -16q4 0 42 39l65 69q154 162 242.5 326t88.5 221q0 41 -38 84q-53 53 -146 53q-18 0 -30.5 22t-12.5 56q0 55 30 112.5t75 82.5q6 2 26 2q96 0 177 -69.5t81 -219.5q0 -141 -99 -361t-300 -456 q-209 -240 -473 -437.5t-400 -197.5q-131 0 -208.5 90.5t-77.5 186.5z" />
<glyph unicode="Z" horiz-adv-x="1675" d="M94 35q0 23 25 55q20 25 87 74l225 174l353 291l52 45h-97l-96 2q-35 16 -35 41q0 37 47 78t99 51q14 4 149 4h133l289 287l35 39h-86q-205 10 -414 10h-49q-47 0 -65.5 -10.5t-26.5 -49.5q-25 -70 -112 -123t-161 -57q-47 0 -47 35q0 16 4 27q43 150 239 272.5 t400 122.5q113 0 290 -5t214 -5q66 0 108 6t48 6q45 0 45 -35q0 -25 -55 -88q-172 -193 -379 -387l-45 -45l6 -2h19h22q113 -6 112 -53q0 -43 -56 -88t-128 -45q-4 0 -31.5 5t-93.5 7h-49l-65 -56l-186 -155l-226 -184l-60 -48l119 -2q55 -2 275.5 -6t275.5 -6h82 q47 76 59 131q20 55 111.5 112.5t159.5 57.5q47 0 47 -33q0 -53 -61.5 -158.5t-145.5 -168.5q-186 -158 -399 -158q-16 0 -37 1t-27 1q-102 0 -337.5 5t-291.5 5q-111 0 -167 -8q-25 0 -50 -4h-6q-45 0 -45 35z" />
<glyph unicode="&#x2000;" horiz-adv-x="860" />
<glyph unicode="&#x2001;" horiz-adv-x="1720" />
<glyph unicode="&#x2002;" horiz-adv-x="860" />
<glyph unicode="&#x2003;" horiz-adv-x="1720" />
<glyph unicode="&#x2004;" horiz-adv-x="573" />
<glyph unicode="&#x2005;" horiz-adv-x="430" />
<glyph unicode="&#x2006;" horiz-adv-x="286" />
<glyph unicode="&#x2007;" horiz-adv-x="286" />
<glyph unicode="&#x2008;" horiz-adv-x="215" />
<glyph unicode="&#x2009;" horiz-adv-x="344" />
<glyph unicode="&#x200a;" horiz-adv-x="94" />
<glyph unicode="&#x202f;" horiz-adv-x="344" />
<glyph unicode="&#x205f;" horiz-adv-x="430" />
<glyph unicode="&#xe000;" horiz-adv-x="500" d="M0 0v0v0v0v0z" />
<glyph unicode="&#xeffd;" horiz-adv-x="1024" d="M0 0v205h205v-205h-205zM819 0v205h205v-205h-205z" />
<glyph unicode="&#xeffe;" horiz-adv-x="614" d="M0 0v205h205v-205h-205zM410 0v205h204v-205h-204z" />
<glyph unicode="&#xefff;" horiz-adv-x="204" d="M0 0v205h205v-205h-205z" />
</font>
</defs>
</svg>
