<?xml version="1.0" standalone="no"?>
<!DOCTYPE svg PUBLIC "-//W3C//DTD SVG 1.1//EN" "http://www.w3.org/Graphics/SVG/1.1/DTD/svg11.dtd" >
<svg xmlns="http://www.w3.org/2000/svg">
<metadata>
This is a custom SVG webfont generated by Font Squirrel.
Copyright   : Copyright c 20092010 Design Science Inc
</metadata>
<defs>
<font id="MathJax_AMSRegular" horiz-adv-x="1593" >
<font-face units-per-em="2048" ascent="1638" descent="-410" />
<missing-glyph horiz-adv-x="512" />
<glyph unicode=" "  horiz-adv-x="512" />
<glyph unicode="&#x09;" horiz-adv-x="512" />
<glyph unicode="&#xa0;" horiz-adv-x="512" />
<glyph unicode="A" horiz-adv-x="1478" d="M35 35q0 14 11 25.5t26 11.5q29 0 60.5 18.5t47.5 44.5q27 55 250 649q248 635 256 643.5t22.5 8.5t22.5 -9q2 -2 279 -610q262 -604 286 -647q47 -98 109 -98q14 0 24.5 -11.5t10.5 -25.5q0 -25 -20.5 -31t-102.5 -6h-209q-313 0 -317 4q-16 10 -17 31q0 16 11.5 27.5 t27.5 11.5q31 0 76 20.5t45 40.5q0 57 -57 215l-19 55h-455l-4 -36q-23 -92 -22 -168q0 -31 4 -53.5t9 -34t15.5 -20.5t15.5 -11t17 -6l11 -2q45 -8 45 -37q0 -25 -17.5 -31t-75.5 -6h-135h-137q-59 0 -76.5 6t-17.5 31zM225 76l51 -4h50l-9 26q-8 14 -14 82v60l-27 -64 q-35 -80 -36 -82zM426 475h201q201 0 200 6q0 8 -101 247t-122 271l-41 -118q-69 -168 -137 -406zM641 1112q0 -10 92 -220t184.5 -444.5t92.5 -308.5q0 -35 -25 -67h283q-31 43 -213 452l-97 215l-245 566q-2 0 -37 -93.5t-35 -99.5z" />
<glyph unicode="B" horiz-adv-x="1366" d="M23 37q0 35 81 35q57 4 76 9t29 25q10 37 10 592t-10 592q-10 20 -29.5 27.5t-75.5 9.5h-10q-72 0 -71 35q0 14 22 37h391q397 -4 447 -13q309 -57 309 -331q0 -55 -18 -97q-39 -113 -183 -196l-20 -12h2q297 -100 297 -385q0 -129 -107.5 -223.5t-302.5 -129.5 q-55 -10 -436 -14h-379q-22 23 -22 39zM272 72h220l-15 26l-8 27v1151l8 24l15 27h-220l11 -18q8 -37 8 -611q0 -434 -2 -519t-15 -103q-2 -2 -2 -4zM541 408q4 -268 12 -291q10 -14 39 -29q23 -12 72 -12q256 0 256 301q0 270 -187 303q-6 0 -47 3t-68 3h-77v-278zM541 758 h41q166 16 219 84.5t53 197.5q0 88 -22.5 149.5t-57.5 89.5t-63.5 38t-55.5 10q-45 0 -86 -27q-23 -14 -25.5 -48.5t-2.5 -243.5v-250zM842 1317l18 -27q39 -53 52.5 -104t13.5 -142v-12q0 -47 -3 -75.5t-20.5 -75.5t-52.5 -97q10 0 49 16.5t90 46.5t90 86t39 122 q0 74 -30.5 128t-75.5 80.5t-82 38t-66 11.5zM891 688l10 -12q10 -10 25.5 -31.5t30 -54.5t24.5 -87t10 -118q0 -88 -21.5 -159.5t-41 -99.5t-23.5 -28q0 -2 4 -2q12 0 53.5 14.5t96.5 44t97 89t42 135.5q0 74 -31.5 132t-73.5 91t-90.5 54.5t-76 27.5t-33.5 6z" />
<glyph unicode="C" horiz-adv-x="1478" d="M80 698.5q0 118.5 10 163.5q45 240 204 389.5t404 180.5q6 0 47 2t64 2q111 -6 222.5 -50.5t166.5 -44.5q37 0 53.5 15.5t18.5 33t10 33t29 15.5q23 0 37 -25v-428l-9 -14q-27 -14 -51 -4q-8 8 -21.5 49t-45.5 92q-68 94 -181.5 172t-238.5 78h-19q-90 0 -168 -78 q-178 -160 -178 -592q0 -178 43 -321q84 -305 352 -306q262 0 484 205q35 35 51 35q10 0 23.5 -9t13.5 -24q0 -12 -25.5 -46t-79 -78t-123 -85t-172 -69.5t-210.5 -28.5q-115 0 -225.5 34t-209 100.5t-170 180t-96.5 259.5q-10 45 -10 163.5zM152 698q0 -88 10 -149 q20 -113 69.5 -203t105.5 -139t108.5 -83t86.5 -44l35 -10q-14 14 -26 28q-133 129 -170 422q-6 55 -6 184.5t6 184.5q39 256 141 391q29 37 23 37q-47 -16 -96.5 -47t-109 -84t-104.5 -141.5t-63 -196.5q-10 -62 -10 -150zM1178 1268l26 -29q41 -45 45 -53l23 -29v123 q-8 -4 -17 -4q-20 -8 -47 -8h-30z" />
<glyph unicode="D" horiz-adv-x="1478" d="M33 33q0 39 76 39q31 2 46 5t24 9t16 20q6 18 6 592t-6 592q-8 20 -24.5 26.5t-61.5 10.5q-76 0 -76 37q0 18 24 35h338q279 0 350.5 -3t135.5 -20q213 -45 349 -178t175 -332q4 -35 4 -145q0 -160 -31 -258q-66 -197 -221.5 -316.5t-376.5 -144.5q-27 -4 -381 -4h-342 q-24 12 -24 35zM262 72h223l-14 26l-8 27v577q4 567 10 594q2 6 12 27q0 4 -108 4h-115q0 -2 10 -33q6 -25 7 -596q0 -567 -7 -596zM541 125q29 -43 94 -53q109 0 186.5 41t123.5 116.5t70.5 166.5t35.5 208q4 78 4 111q0 127 -23 225q-47 285 -268 373q-45 14 -107 14 q-35 0 -59.5 -10t-31.5 -16.5t-25 -28.5v-1147zM944 1286q2 -2 21.5 -24.5t37 -46t41 -71.5t41 -102.5t29.5 -139.5t12 -181q0 -383 -145 -567l-23 -33q12 4 34 12t78 45t103.5 85t93.5 136t64 195q8 66 8 131q0 131 -33.5 226.5t-115.5 178.5q-99 109 -246 156z" />
<glyph unicode="E" horiz-adv-x="1366" d="M25 33q0 39 79 39q84 6 95 34q10 16 10 592t-10 596q-12 27 -95 33q-80 0 -79 37q0 18 24 35h1143q16 -6 22 -23v-172q0 -152 -5 -176t-31 -24q-16 0 -24.5 11t-16.5 44q-6 80 -78 149q-63 68 -148.5 91.5t-214.5 27.5h-118q-33 -25 -37 -58.5t-9 -260.5v-250h35 q106 10 166 43t94 98q33 84 33 137q0 47 33 47q18 0 31 -16q8 -8 8 -328q0 -57 1 -129.5t1 -91.5q0 -74 -7 -94.5t-32 -20.5q-35 -2 -35 41q0 47 -29 109q-59 119 -249 133h-50v-274q2 -55 3 -138q2 -125 6 -150.5t28 -45.5l9 -6h100q141 0 242 30q250 88 313 265 q6 49 41 49q14 0 25.5 -13.5t11.5 -27.5q-4 -4 -33 -180.5t-41 -188.5l-8 -8h-1180q-24 12 -24 35zM264 72h217q-4 12 -8 26l-10 27v1151l10 24l8 27h-217q6 -14 8 -21.5t5.5 -71t3.5 -176.5v-360q0 -430 -2.5 -517t-12.5 -105q-2 -2 -2 -4zM750 727q14 -10 32 -18 q37 -27 56 -37l22 -23v164l-29 -29q-25 -27 -53 -41zM1032 1327q0 -4 23 -18q25 -10 55 -41l31 -33v92h-109zM1047 76l63 -4h72q0 2 2 9t4 19l4 25l8 55q-2 0 -8 -10q-51 -45 -115 -76z" />
<glyph unicode="F" horiz-adv-x="1251" d="M25 33q0 39 79 39q84 6 95 34q10 16 10 592t-10 596q-12 27 -95 33q-80 0 -79 37q0 18 24 35h1125q6 -10 22 -27v-350q-31 -18 -37 -18q-16 0 -28.5 14t-12.5 37q0 41 -26 90q-14 31 -55.5 70.5t-75.5 56.5q-111 55 -293 55q-68 0 -81.5 -2t-23.5 -12q-23 -23 -24 -49 q-2 -16 -7 -256v-250l31 4q98 8 154.5 41t87.5 100q33 66 33 133q0 47 36 47q20 0 31 -20q4 -16 4 -322q0 -307 -4 -319q-12 -18 -33 -19q-35 0 -34 41q0 98 -70 168q-59 59 -195 74h-41v-264q0 -279 5 -293q6 -35 29.5 -45t101.5 -12q74 0 82 -15q23 -23 0 -51l-13 -8h-688 q-24 12 -24 35zM264 72h109q104 0 104 8q-14 31 -16 109.5t-2 519.5l4 567l10 24l8 27h-217q6 -14 8 -21.5t5.5 -71t3.5 -176.5v-360q0 -430 -2.5 -517t-12.5 -105q-2 -2 -2 -4zM731 727l33 -18q43 -31 49 -37l25 -23v160l-19 -18q-20 -20 -51 -41zM1014 1327l22 -14l56 -45 l32 -33v92h-110z" />
<glyph unicode="G" d="M80 698.5q0 118.5 10 163.5q45 240 204 389.5t404 180.5q6 0 47 2t64 2q111 -6 222.5 -50.5t166.5 -44.5q37 0 53.5 15.5t18.5 33t10 33t29 15.5q23 0 37 -25v-428l-9 -14q-27 -14 -51 -4q-8 8 -21.5 49t-45.5 92q-68 94 -181.5 172t-238.5 78h-19q-90 0 -168 -78 q-176 -160 -176 -590q0 -537 262 -643q33 -8 115 -8q88 0 134 7t61.5 15.5t42.5 30.5v152q0 133 -15 172q-31 70 -145 96q-29 0 -41 14q-23 20 0 49l12 9h647q25 -16 25 -35q0 -16 -11.5 -26.5t-27.5 -10.5q-72 0 -109 -68q-23 -45 -22 -200q0 -137 -4 -142 q-16 -29 -223 -96q-147 -39 -287 -45q-104 0 -137 4q-250 29 -414 178.5t-209 391.5q-10 45 -10 163.5zM152 698q0 -88 10 -149q55 -309 309 -443l41 -18q0 4 -15.5 25.5t-37 64.5t-44 107.5t-38 174t-15.5 242.5v37q14 352 150 541q29 37 23 37q-47 -16 -96.5 -47t-109 -84 t-104.5 -141.5t-63 -196.5q-10 -62 -10 -150zM1059 512l14 -18q49 -57 49 -189v-72v-153q2 0 30 10l61 23q34 12 47 16l30 14v131q4 115 9.5 145t27.5 66q14 16 14 27h-282zM1178 1268l26 -29q41 -45 45 -53l23 -29v123q-8 -4 -17 -4q-20 -8 -47 -8h-30z" />
<glyph unicode="H" d="M29 33q0 39 80 39q84 6 94 34q10 16 10 592t-10 596q-12 27 -94 33q-80 0 -80 37q0 18 24 35h652l14 -8q20 -29 0 -50q-14 -14 -70 -14q-61 -6 -71 -14q-25 -8 -27 -38t-6 -257v-260h502v260q0 45 -3 115q-2 127 -6 150.5t-22 29.5h-2q-12 8 -74 14q-80 0 -80 35 q0 14 12 29l15 8h651q23 -14 23 -35q0 -37 -78 -37q-82 -6 -97 -33q-4 -12 -4 -596q0 -582 4 -592q14 -29 97 -34q78 0 78 -39q0 -20 -23 -35h-651l-15 8q-12 14 -12 29q0 37 80 37q86 6 96 34q10 25 11 283v273h-502v-273q0 -266 10 -283q10 -29 94 -34q51 0 70 -15 q18 -23 0 -51l-14 -8h-652q-24 12 -24 35zM268 72h221q-12 25 -12 192v434v435q0 168 12 194h-221q6 -14 8.5 -21.5t5.5 -71t3 -176.5v-360q0 -430 -2 -517t-13 -105q-2 -2 -2 -4zM1100 72h223q-6 12 -7 15t-4 25.5t-3 59.5v115v411v303v179q0 57 3 91t4 38t7 18h-223 l10 -18q8 -29 8 -611q0 -432 -2 -518t-14 -104q-2 -2 -2 -4z" />
<glyph unicode="I" horiz-adv-x="796" d="M41 33q0 39 78 39q53 4 72.5 9t27.5 21q12 20 12 596q0 578 -12 596q-12 27 -100 33q-78 0 -78 37q0 20 22 35h670q23 -14 23 -35q0 -37 -78 -37q-88 -6 -100 -33q-8 -12 -9 -596q0 -582 9 -596q8 -16 27.5 -21t72.5 -9q78 0 78 -39q0 -20 -23 -35h-670q-22 10 -22 35z M287 72h223q-6 10 -7 13t-4 25.5t-3 59.5v115v413q0 596 4 611l10 18h-223q12 -29 15 -107.5t3 -521.5q0 -444 -3 -522.5t-15 -103.5z" />
<glyph unicode="J" horiz-adv-x="1024" d="M12 61q0 66 42 108t108 42q59 0 103 -41t44 -92q0 -59 -43 -109q-29 -39 0 -45q6 -4 56 -4q104 0 127 64l14 22v619q0 629 -4 647q-8 31 -27.5 41t-91.5 12q-59 0 -78 14q-18 23 0 52l14 8h678q25 -12 25 -35q0 -39 -80 -39q-82 -6 -94 -31q-10 -25 -10 -583 q-4 -569 -9 -590q-41 -133 -140 -200.5t-269 -78.5h-25q-143 0 -238.5 60.5t-101.5 158.5zM90 70q0 -51 37 -86l19 -16q11 -9 20.5 -14t9.5 -3l8 22q20 33 25 37q27 35 27 64q0 23 -21.5 43t-52.5 20q-12 0 -25.5 -3t-30 -19t-16.5 -45zM512 -59q6 0 16.5 3t39 15t52 30.5 t51 56.5t42.5 87q4 18 10 592q0 414 2 496t14 100q2 2 2 4h-223q8 -16 11 -39.5t5.5 -166t2.5 -480.5v-647l-15 -27q-14 -24 -10 -24z" />
<glyph unicode="K" d="M45 33q0 39 78 39q84 6 94 34q10 16 10 592t-10 596q-12 27 -94 33q-78 0 -78 37q0 20 23 35h651l14 -8q20 -29 0 -50q-14 -14 -69 -14q-74 -6 -91 -22q-10 -12 -12 -65.5t-2 -262.5l4 -275l219 211q186 172 226.5 220.5t40.5 93.5q0 37 -20.5 65.5t-55.5 34.5 q-41 6 -41 37q0 23 21.5 29t90.5 6h170h261q25 -14 24 -35q0 -14 -11 -25.5t-28 -11.5q-88 0 -254 -137q-45 -39 -202.5 -188.5t-157.5 -151.5q0 -4 288.5 -348t321.5 -377q53 -53 82 -53q14 0 24.5 -12.5t10.5 -28.5q0 -18 -21 -33h-274q-272 0 -283 8q-12 14 -12 29 q0 16 15.5 26.5t37.5 10.5q25 2 30 7t-1 19l-246 301l-201 236l-32 -27l-27 -28v-232q4 -215 8 -231q6 -33 47 -39q4 -2 50 -6q51 0 69 -15q18 -23 0 -51l-14 -8h-651q-23 10 -23 35zM283 72h221q-12 25 -12 192v434v435q0 168 12 194h-221q6 -14 8 -21.5t5 -71t3 -176.5 v-360q0 -430 -2 -517t-12 -105q-2 -2 -2 -4zM676 680l2 -4l414 -492q51 -72 51 -100v-12h258l-27 30q-8 8 -301 361l-282 332q0 2 -16.5 -13.5t-41.5 -42.5q-57 -47 -57 -57v-2zM1096 1327l14 -22q0 -2 5 -25t9 -31v-30l27 22q6 4 30.5 25.5t37.5 27.5l41 33h-164z" />
<glyph unicode="L" horiz-adv-x="1366" d="M25 33q0 39 79 39q84 6 95 34q10 16 10 592t-10 596q-12 27 -95 33q-80 0 -79 37q0 18 24 35h633l14 -8q20 -29 0 -50q-14 -14 -63 -14q-45 -4 -62.5 -10t-25.5 -27q-4 -14 -4 -581q0 -569 4 -592q16 -35 37 -45h114q150 4 246 41q111 47 190.5 128t100.5 162q6 49 41 50 q14 0 25.5 -13.5t11.5 -27.5q-4 -14 -32 -197.5t-28 -189.5q0 -12 -22 -27h-1180q-24 12 -24 35zM264 72h221q-4 12 -8 26l-8 27l-6 569q0 578 6 592q2 4 4 16.5t4 14.5v10h-213q6 -14 8 -21.5t5.5 -71t3.5 -176.5v-360q0 -430 -2.5 -517t-12.5 -105q-2 -2 -2 -4zM1024 72 h158l6 26q0 23 6 54.5t6 46.5q0 2 -3 -1l-11 -10.5t-17 -11.5q-45 -45 -118 -88z" />
<glyph unicode="M" horiz-adv-x="1933" d="M35 35q0 37 45 37q92 14 119 67l14 23v1147l-33 4q-33 6 -71 14q-39 0 -55.5 6t-16.5 31q0 23 19.5 29t93.5 6h149q236 0 246 -8l407 -951q8 0 207 467q199 477 209 488q10 4 250 4h242l14 -8q18 -31 0 -50q-6 -14 -37 -14q-94 -18 -127 -86l-4 -532q0 -532 4 -547 q6 -20 29.5 -44t48.5 -34q8 -2 28.5 -6t28.5 -6q51 0 51 -39q0 -20 -22 -35h-637l-14 8q-18 33 0 51q6 14 37 15q92 14 118 67l13 23v532v213v158q0 88 -1 124t-4 34l-191 -456l-226 -528q-98 -228 -101 -233q-16 -8 -28.5 -8t-18.5 4q-4 4 -262 614l-256 611l-4 -525 q0 -526 4 -540q8 -20 30.5 -44t47.5 -34q8 -2 29 -6l30 -6q23 0 41 -15q18 -23 0 -51l-14 -8h-410q-22 10 -22 37zM244 78q0 -6 18 -6q8 0 8 2q-14 12 -16 12q-10 0 -10 -8zM322 1327l18 -22q6 -8 260 -596l246 -574q23 45 45 105l45 100q-12 6 -17.5 11t-29 54.5 t-63.5 144.5l-121 294l-205 483h-178zM1423 76q0 -4 127 -4h127l-12 22q-23 31 -27 62q-6 59 -6 553l4 544l11 29q16 25 22 31l4 10q0 4 -104 4h-105v-1180l-14 -30q-14 -25 -23 -33z" />
<glyph unicode="N" horiz-adv-x="1478" d="M41 1360q0 4 22 39h228q233 0 237 -4q2 -2 44 -58l128 -167l164 -212l328 -428v340q0 53 1 133t1 105q0 143 -20.5 178t-104.5 41q-45 0 -59 12q-18 23 0 52l14 8h391q23 -14 23 -35q0 -18 -8 -29q-20 -8 -37 -8q-96 0 -109 -74q-6 -23 -6 -651v-618q-16 -25 -35 -25 q-12 0 -22 10q-6 4 -461 584l-441 569l-6 -469q0 -72 -1 -175t-1 -136q0 -131 9.5 -183.5t32 -68.5t83.5 -20q47 0 60 -13q23 -23 0 -51l-13 -8h-409q-25 14 -25 35q0 37 66 37q4 2 26.5 5t35.5 7t27.5 21.5t18.5 43.5q4 23 4 560v528l-30 33q-49 49 -107 59q-49 0 -49 33z M246 1327l33 -41q2 -4 461.5 -588.5t461.5 -586.5l4 28v109v145l-360 465l-354 469h-246z" />
<glyph unicode="O" d="M70 698q0 104 6 142q43 242 192 391q100 104 241.5 154.5t283.5 50.5q201 0 358 -82q135 -66 224 -177.5t122 -258.5q23 -78 23 -219.5t-23 -219.5q-49 -193 -174 -313q-199 -205 -526 -205q-330 0 -529 205q-152 152 -192 395q-6 37 -6 137zM141 705q0 -432 332 -599 q27 -14 31 -14t0 6q-31 43 -49.5 76t-45 116t-47.5 199q-6 61 -6 209q0 127 6.5 206t42 191.5t105.5 213.5q-6 0 -52 -26t-63 -38q-8 -4 -20 -14l-30 -26q-17 -15 -28 -23q-176 -182 -176 -477zM430 698q0 -135 6 -196q39 -274 150 -385q47 -41 114 -70q31 -8 97 -8 q63 0 98 8q66 31 111 70q158 154 157 581q0 557 -268 652q-63 10 -86 12q-135 0 -223 -82q-111 -111 -150 -381q-6 -64 -6 -201zM1085 94q0 -2 2 -2q4 0 33 15.5t75 46t79 61.5q176 184 176 483q0 152 -49 276t-100.5 180t-108.5 95q-8 4 -35 19.5t-39 21.5q-27 14 -31 15 q-2 0 -2 -2v-3l2 -2q63 -88 95 -186q51 -150 51 -414v-51q0 -106 -6 -177t-40 -176.5t-100 -195.5l-2 -2v-2z" />
<glyph unicode="P" horiz-adv-x="1251" d="M33 33q0 39 76 39q31 2 46 5t24 9t16 20q6 18 6 592t-6 592q-8 20 -24.5 26.5t-61.5 10.5q-76 0 -76 37q0 18 24 35h342q285 0 360 -3t136 -20q152 -31 240 -125t88 -237q0 -311 -396 -381q-4 -2 -6 -2q-41 -10 -168 -10h-118v-250q0 -49 2 -125q0 -123 10 -144.5 t76 -27.5q12 -2 18 -2q80 0 80 -37q0 -14 -12 -29l-15 -8h-637q-24 12 -24 35zM262 72h219q-14 23 -16 100q-2 92 -2 518v582l8 28l14 27h-223q0 -2 10 -33q6 -25 7 -596q0 -567 -7 -596zM535 698h81h25q53 0 85 7.5t71 36t57 98t18 180.5q0 180 -52 242.5t-161 62.5 q-43 0 -59 -8q-45 -12 -59 -45q-6 -8 -6 -291v-283zM877 717h2q4 0 29.5 7t67.5 27.5t80 50t66.5 83t28.5 119.5q0 123 -78 208q-35 31 -82 56q-6 4 -73 32l-31 9l12 -37q47 -88 47 -236q0 -119 -17.5 -190.5t-34.5 -97t-17 -31.5z" />
<glyph unicode="Q" d="M70 700.5q0 102.5 6 139.5q43 242 192 391q98 104 239.5 154.5t287.5 50.5q199 0 356 -82q279 -135 346 -436q23 -78 23 -219.5t-23 -217.5q-49 -193 -174 -315q-61 -63 -146 -111.5t-167 -64.5l-27 -10q0 -6 13.5 -29t43 -54.5t68.5 -60.5t97.5 -49t121.5 -20q37 0 82 8 t53 8q20 0 29.5 -16.5t1.5 -32.5q-12 -31 -135 -68t-236 -37q-92 0 -175 26t-139 61.5t-105.5 84.5t-75 85t-45.5 75l-9 33l-36 8q-152 47 -269 164q-152 152 -192 397q-6 35 -6 137.5zM141 705q0 -432 332 -599q33 -20 33 -12l-2 4q-31 43 -49.5 76t-45 116t-47.5 199 q-6 61 -6 209v27q0 80 3 133t16.5 134t45.5 158t83 150l6 9q-6 0 -52 -26t-63 -38q-8 -4 -20 -14l-30 -26q-17 -15 -28 -23q-176 -176 -176 -477zM430 700.5q0 -135.5 6 -196.5q37 -272 150 -387q47 -41 114 -70q31 -8 97 -8q63 0 98 8q66 31 111 70q158 158 157 583 q0 555 -268 650l-86 14q-135 0 -223 -82q-111 -115 -150 -383q-6 -63 -6 -198.5zM664 -35q0 -8 77 -104q127 -127 295 -154q25 -2 78 -2q51 0 68 2l24 4l-28 4q-63 25 -136 79t-114 130l-23 37l-104 4h-119q-8 4 -14 4q-4 0 -4 -4zM1087 98q-1 -3 -1 -4.5t2 -1.5h3 q7 2 27 14q59 33 102.5 66t94.5 91.5t85 146.5t46 202q4 57 4 86q0 141 -40 258t-99.5 183.5t-107.5 102.5t-85 48q-29 16 -31 17q-1 0 -1 -1.5t1 -5.5q66 -92 95 -188q51 -145 51 -414v-51q0 -106 -6 -177t-40 -176.5t-100 -195.5z" />
<glyph unicode="R" horiz-adv-x="1478" d="M33 33q0 39 80 39q84 6 94 34q10 16 10 592t-10 596q-12 27 -94 33q-78 0 -78 35q0 14 22 37h396q397 -4 446 -13q45 -8 86 -21t71.5 -26.5t57.5 -31t46.5 -31.5t36.5 -32.5t26.5 -31t19.5 -30l14.5 -25.5t8.5 -22l6 -13q10 -37 10 -104q0 -102 -27 -160 q-72 -145 -286 -190l-37 -11l38 -60q24 -38 90 -135t123.5 -173t121 -142.5t100.5 -74.5q39 -10 39 -39q0 -18 -25 -35h-375q-14 14 -217 328l-200 309h-78v-260q4 -238 6 -254q6 -35 41 -43q8 -2 57 -6q51 0 70 -15q18 -23 0 -51l-14 -8h-652q-24 12 -24 35zM272 72h222 l-8.5 20t-5.5 68.5t-3 174.5v355v582l8 28l15 27h-228q6 -14 8.5 -21.5t5.5 -71t3 -176.5v-360q0 -430 -2 -517t-13 -105q-2 -2 -2 -4zM549 709h33q88 0 186 12q94 25 131 82t37 213q0 90 -17.5 152.5t-49 91t-51 39t-46.5 18.5q-6 0 -78 10q-80 0 -119 -27q-20 -14 -23 -52 t-3 -263v-276zM709 639l368 -567h191l-27 30q-106 121 -291 396q-109 152 -110 151q-12 0 -19 -4q-35 0 -63 -6h-49zM936 1305l8 -23q27 -31 55 -133q8 -49 8.5 -133t-9 -141.5t-19.5 -79t-19.5 -36t-9.5 -20.5q0 -2 2 -2q8 0 66 21q197 61 196 256q0 199 -237 276z" />
<glyph unicode="S" horiz-adv-x="1138" d="M57 1026q0 123 56 223q88 147 321 183q4 0 40 2t61 2q98 -6 162.5 -30t138.5 -24q47 6 76.5 31t39.5 25q18 0 33 -25v-395l-8 -14q-27 -18 -55 0q-8 20 -9 22q0 92 -123.5 215t-257.5 123q-92 0 -160.5 -55.5t-68.5 -151.5q0 -76 79 -141.5t271 -138.5q68 -29 106 -47.5 t97 -54.5t103.5 -84t76.5 -109q45 -92 45 -191q0 -182 -147.5 -296.5t-388.5 -114.5q-113 0 -185.5 25.5t-134.5 25.5q-49 -12 -75.5 -34t-40.5 -22q-18 0 -33 23v231v144q0 66 6 90t29 24q37 0 36 -53q0 -78 70 -186q14 -23 54 -65t69 -62q113 -74 201 -74q104 0 172 37 q41 18 73 78q18 47 19 102q0 106 -77 185t-275 163q-207 90 -301.5 187.5t-94.5 226.5zM131 1028q0 -27 3 -48.5t22.5 -60t52.5 -72.5t99.5 -78t158.5 -83q219 -90 313 -184t94 -240q0 -70 -16 -108l-8 -29q12 0 68 55q86 80 86 209q0 88 -31 152q-39 72 -92 116 q-57 57 -126 94t-168.5 76t-168.5 76q-135 82 -174 174q-12 37 -13 80q0 63 23 111l8 32q-4 0 -41 -36q-90 -84 -90 -236zM147 147.5q0 -59.5 7 -59.5q2 0 30.5 7t40.5 7h19l-27 29l-65 76q-5 0 -5 -59.5zM827 1309l27 -31q37 -37 45 -47l14 -19v56q0 59 -4 59 q-10 -4 -18 -8q-20 0 -41 -10h-23z" />
<glyph unicode="T" horiz-adv-x="1366" d="M68 1004v372q6 16 22 23h1188q16 -6 22 -23v-372l-8 -15q-20 -8 -28 -8q-12 0 -23.5 12.5t-11.5 28.5q0 53 -33 108q-14 31 -53 74t-70 60q-92 51 -201 59l-22 4v-600q0 -600 14 -621q6 -20 25.5 -25t79.5 -9q55 0 73 -15q18 -23 0 -51l-14 -8h-688l-12 8q-23 29 0 51 q14 14 71 15q59 4 80 9t31 25q8 29 8 621v600l-22 -4q-102 -8 -201 -59q-31 -16 -70 -59.5t-53 -74.5q-31 -51 -31 -108q0 -18 -11 -30.5t-28 -12.5q-22 0 -34 25zM141 1223l31 30q18 23 59 56l27 18h-117v-104zM573 72h224q-14 23 -17 104q-2 98 -2 541v610h-186v-610 q0 -309 -2 -449.5t-5.5 -160t-11.5 -35.5zM1110 1327l27 -18q41 -33 59 -56l33 -30v104h-119z" />
<glyph unicode="U" horiz-adv-x="1478" d="M33 1364q0 23 24 35h641l15 -8q23 -29 0 -52q-12 -12 -68 -12q-92 -8 -100 -33q-8 -10 -9 -70.5t-1 -406.5q0 -55 -1.5 -151.5t-1.5 -133.5q0 -227 30 -330.5t132 -140.5q33 -10 111 -10q76 0 131 17.5t75.5 33t51.5 45.5q88 88 115 273q2 29 2 356q0 326 -2 350 q-14 96 -51 148.5t-91 52.5q-16 0 -27.5 12.5t-11.5 26.5t25 33h405q25 -16 25 -32.5t-11 -28t-28 -11.5q-76 0 -117 -104q-18 -49 -22 -104.5t-6 -346.5q-4 -377 -13 -416q-35 -162 -141 -272q-139 -123 -387 -123h-22q-141 6 -242 49t-150 107.5t-67.5 107.5t-28.5 90 q-10 37 -14 502q0 449 -8 477q-14 25 -86 33q-76 0 -76 37zM262 1327q0 -2 10 -33q4 -23 4 -450q0 -440 5 -465q23 -143 90 -217q57 -57 110 -78q14 -10 48 -21.5t38 -11.5q-2 4 -18.5 26.5t-28.5 43t-27.5 69t-25.5 107.5q-4 33 -4 520q0 477 4 492l10 18h-215zM1182 1327 l18 -29q2 -4 10.5 -19t8.5 -22l4 -12l14 27q4 10 31 55h-86z" />
<glyph unicode="V" horiz-adv-x="1478" d="M0 1364q0 23 19.5 29t101.5 6h215h311q23 -14 23 -35q0 -37 -52 -37q-61 -12 -90 -41q-18 -14 -18 -41q6 -39 28.5 -106.5t54.5 -145.5l67 -163l71 -164l64 -143l47 -103l18 -41q6 0 109 270q152 369 151 559q0 63 -13 87t-50 32q-31 0 -37 12q-20 20 0 52l12 8h211h109 q72 0 96.5 -6.5t24.5 -26.5q0 -14 -11.5 -26.5t-27.5 -12.5q-45 0 -86 -41l-33 -29l-264 -641l-132 -314l-106 -251q-33 -80 -35 -82q-14 -10 -24 -10q-14 0 -21 10q-8 4 -145 307l-283 622q-145 318 -168 351q-45 78 -100 78q-14 0 -25.5 11.5t-11.5 25.5zM172 1327l25 -33 q45 -82 286 -618l269 -588l41 92l34 90l-49 109q-266 580 -323 784q-12 45 -13 94v18v12q0 7 1 9t1 5.5t2.5 5.5t3.5 5t4 7t5 8h-287zM1180 1321q16 -35 16 -98l6 -60l23 60q23 55 41 82l12 22h-49q-49 0 -49 -6z" />
<glyph unicode="W" horiz-adv-x="2048" d="M10 1362q0 25 25 37h264h111q115 0 144.5 -5t29.5 -30q0 -14 -10.5 -25.5t-24.5 -11.5q-31 0 -60 -29q-18 -8 -18 -30q0 -43 70 -283l200 -592q2 2 135.5 306.5t133.5 308.5q0 8 -42 110.5t-55 126.5q-41 82 -96 82q-14 0 -24.5 11.5t-10.5 27.5q0 23 23 33h586 q23 -27 22 -37q0 -6 -10 -20.5t-25 -14.5q-41 0 -82 -33l-22 -14v-31q8 -70 72.5 -269.5t126 -366.5t65.5 -167q6 0 57 156q139 406 140 588q0 137 -93 137q-12 0 -23 9.5t-11 23.5q0 12 20 39h383q25 -16 25 -37q0 -31 -39 -35q-45 -10 -74 -59q-16 -53 -237.5 -670.5 t-231.5 -628.5q-8 -8 -22.5 -8t-22.5 8q-12 18 -100 250l-172 454q-84 222 -86 222q0 2 -28 -57l-78 -173l-99 -231q-201 -463 -211 -469q-4 -4 -16.5 -4t-28.5 8q-12 18 -473 1299q-25 49 -68 59q-39 4 -39 35zM168 1327l16 -33q18 -33 224 -614l210 -578q2 0 42 91.5 t40 95.5q0 2 -75.5 214t-151.5 453.5t-76 319.5q0 14 11 51h-240zM954 1321q27 -27 265 -659l213 -551q4 4 38.5 101t34.5 103l-67 187q-240 649 -240 768q0 29 16 57h-129q-131 0 -131 -6zM1778 1327l14 -29q16 -74 16 -118q0 -8 2 -9l13 31l27 68q15 37 24 51q0 6 -45 6 h-51z" />
<glyph unicode="X" horiz-adv-x="1478" d="M33 30.5q0 16.5 11 29t28 12.5q53 0 168 108q352 391 383 428q6 12 -101 164q-283 428 -360 510q-39 45 -82 45q-14 0 -24.5 11.5t-10.5 25.5q0 23 19.5 29t99.5 6h213h309q23 -16 23 -33q0 -14 -11 -25q-12 -14 -53 -14q-72 -8 -86 -22q0 -14 56.5 -111.5t113.5 -186.5 t62 -89q90 115 132 179t49 84.5t7 49.5q0 39 -19.5 67.5t-50.5 28.5q-33 0 -32 37q0 25 17 30t105 5h146h145q88 0 105.5 -5t17.5 -30q0 -37 -35 -37q-43 0 -110 -22q-98 -45 -209 -179l-137 -176q-82 -109 -82 -114q10 -18 186 -277.5t238 -341.5q63 -92 89.5 -118.5 t55.5 -26.5q35 0 35 -39q0 -23 -21 -35h-319q-317 0 -328 8q-12 14 -12 29q0 20 14.5 28.5t57.5 8.5q104 10 104 28q0 20 -85 165t-169 265q-2 2 -6 2q-8 0 -121 -129q-129 -143 -133 -163q-18 -27 -18 -72q0 -51 28.5 -73.5t52.5 -22.5q16 0 26.5 -12.5t10.5 -28.5 q0 -10 -3 -16.5t-6 -8.5l-9 -6l-4 -2h-447q-24 16 -24 32.5zM231 72h127q0 6 -10 22q-2 6 -6 24.5t-6 24.5v27l-55 -49zM231 1323q0 -8 50 -70q100 -135 337.5 -489t309.5 -479q90 -156 90 -197q0 -8 -4 -16h131q129 0 129 4q0 2 -81 118l-198 283l-232 341 q-116 173 -197 313.5t-81 177.5v18h-131q-123 -2 -123 -4zM1032 1327l8 -22q4 -14 15 -45v-25l26 25q2 2 22.5 20t29.5 25l26 22h-127z" />
<glyph unicode="Y" horiz-adv-x="1478" d="M33 1366q0 16 24 33h547q23 -14 23 -35q0 -37 -45 -37q-53 0 -60 -14q0 -14 21 -53l151 -279q162 -287 168 -287l70 113l139 221l70 113q6 18 6 51q0 113 -115 135q-31 0 -37 14q-23 18 0 50l15 8h409q23 -16 23 -33q0 -35 -41 -39q-25 -6 -64 -51q-41 -39 -80.5 -97.5 l-197.5 -306.5l-160 -256v-241q6 -248 10 -254q10 -49 123 -49q35 0 49 -11q20 -29 0 -55l-14 -8h-668l-14 8q-20 27 0 55q14 10 51 11q109 0 123 49q2 4 8 213v201l-413 737q-23 35 -36.5 45t-41.5 10q-18 0 -30.5 11.5t-12.5 27.5zM207 1327q18 -29 233 -414l201 -360 v-213q-6 -219 -14 -242l-11 -26h234l-10 26q-12 33 -13 260v236l-178 313q-178 324 -186 346q-14 27 -14 52v22h-242zM1178 1327q18 -33 26 -51l15 -27l26 41l33 37h-100z" />
<glyph unicode="Z" horiz-adv-x="1366" d="M59 25q0 23 65 133l325 532l391 637h-95q-211 0 -315 -41q-86 -33 -139 -82t-67.5 -89t-25 -73.5t-18.5 -37.5q-6 -2 -16 -3q-16 0 -39 29l18 174q4 39 10.5 83t9.5 68.5t3 26.5q6 4 14 13q4 4 518 4h514q25 -20 25 -35q0 -8 -393 -651l-391 -637q0 -4 163 -4 q215 0 297 26q119 41 200 129t110 207q10 55 41 55q14 0 25 -11t11 -21q0 -16 -29.5 -225t-33.5 -216l-14 -14q-4 -4 -574 -4h-569q-21 21 -21 27zM158 76q0 -4 104 -4h105l383 622l380 629q0 4 -98 4q-106 0 -110 -10q-4 -8 -378 -615.5t-386 -625.5zM221 1253q0 -8 4 -8 t12.5 8.5t27 23.5t38.5 28l37 22h-111v-33q-2 -6 -4 -21.5t-4 -19.5zM1040 76l64 -4h67q18 111 19 127l-41 -41q-39 -39 -72 -60z" />
<glyph unicode="k" horiz-adv-x="1138" d="M35 35q0 14 11 25.5t26 11.5q41 0 53 71q4 16 4 555t-4 555q-12 74 -53 74q-16 0 -26.5 12.5t-10.5 28.5q0 8 3 14.5t6 8.5l9 6l4 2h164h80h32h23q10 0 16.5 -1t10.5 -1t9 -2t6 -3t6.5 -4.5t7.5 -5.5v-438l6 -440l82 71q20 20 57 54q92 86 111.5 108.5t25.5 53.5 q2 8 2 24q0 57 -39 57q-14 0 -24 11.5t-10 27.5q0 23 22 33h395q23 -27 23 -37q0 -35 -45 -35q-80 -8 -279 -186q-68 -55 -94 -82q-16 -12 -10 -18t150.5 -191.5t168.5 -214.5q84 -109 105 -108q35 0 35 -39q0 -23 -21 -35h-450l-15 8q-18 33 0 51q6 14 41 15q6 2 14.5 3 t13.5 2t5 3q2 0 2 2q0 14 -61 95l-123 155l-60 76q-6 6 -18 0q-10 -8 -10 -127v-33q0 -176 59 -176q16 0 26.5 -12.5t10.5 -28.5q0 -23 -23 -33h-428l-14 8q-8 21 -8 29zM182 76q0 -4 90 -4q88 0 88 4q-2 2 -2 4q0 6 -10 37q-8 27 -8 618v592h-82q-76 0 -76 -6q0 -2 1 -2 t1 -2t2 -6t4 -13l5 -16q8 -29 8 -584t-8 -581l-5 -17q-2 -8 -4 -13t-2 -7zM489 467q121 -145 238 -305q31 -37 31 -78v-12h96q88 0 88 4q0 8 -188 235l-179 228q-2 0 -45 -35zM764 866q2 -2 4 -12t4 -14q0 -23 4 -23q55 41 64 49q1 1 1 2q0 3 -7 4h-29q-41 0 -41 -6z" />
<glyph unicode="&#xa5;" horiz-adv-x="1536" d="M23 1305v94h18q94 -4 272 -4q33 0 100.5 1t123.5 1l53 2h20v-94h-37q-102 -2 -102 -33q0 -4 41 -76l30 -47l44 -73l39 -64l71 -117l129 -2h131l95 160q104 168 104 186q0 6 -8 23q-20 37 -88 43h-19v94h17q31 -6 239 -6q182 0 201 6h14v-94h-30q-162 -10 -217 -86 q-6 -8 -101.5 -165t-95.5 -159t155.5 -2t161.5 -4q10 -4 14.5 -17.5t-1.5 -23.5t-22.5 -11t-168.5 -3h-176l-166 -275v-63h256q258 0 264 -4q10 -4 14.5 -17.5t-1.5 -23.5q0 -2 -1 -4.5t-2 -3.5t-3 -2t-5.5 -2t-10.5 -2t-16 -1h-24h-31h-42h-398v-151v-107q0 -47 6.5 -59.5 t32.5 -18.5q31 -6 127 -6h45v-94h-20q-43 6 -289 6q-242 0 -285 -6h-22v94h67q121 2 138 25q6 8 6 162v155h-398h-42h-31h-24q-9 0 -16 1t-10.5 2t-5.5 2t-3 2t-2 3.5t-1 4.5q-6 10 -2 23t15 18q6 4 264 4h256v63l-164 275h-270q-70 0 -82.5 2t-16.5 12q-6 10 -2 23.5 t15 17.5q6 4 163 4q154 0 154 2q-2 6 -113.5 190.5t-117.5 190.5q-29 29 -173 29h-40zM733 831l25 -38l45 -76l24 -39q88 150 93 153q0 2 -95 3q-92 -1 -92 -3z" />
<glyph unicode="&#xae;" horiz-adv-x="1939" d="M66 545v43q0 119 51 265t147 263q129 162 314.5 249t371.5 87q100 0 119 -2q158 -20 294 -86t227 -156t156.5 -199.5t96.5 -216t31 -204.5v-43q0 -258 -129 -468t-335 -322.5t-439 -112.5q-332 0 -586 213t-307 534q-12 62 -12 156zM147 524q0 -272 187 -501 q260 -299 637 -299q287 0 518 182q303 260 303 639v39q0 111 -46 234.5t-131 240.5t-230.5 203t-321.5 106q-18 2 -111 2q-174 0 -341 -80t-294 -238.5t-159 -363.5q-10 -49 -11 -104v-39v-21zM418 0v82h28q49 0 73 4t30 10t16 23v817q-2 2 -5 6t-4 6t-4 5t-5 4t-7 4.5 t-11.5 4.5l-13.5 2t-17.5 2t-22.5 1h-29h-28v82h268q291 0 336 -9q125 -16 228.5 -88.5t103.5 -187.5q0 -27 -7.5 -52.5t-19.5 -46t-26.5 -39t-34.5 -32.5l-36 -26q-15 -11 -35.5 -21l-32 -15.5t-27.5 -11.5l-15 -6q2 -2 18.5 -12t30 -21.5t32 -29t32.5 -43t24 -56.5 q4 -10 25 -104t25 -105q29 -100 92 -100q66 0 76 92q2 20 9 26.5t31.5 6.5t32.5 -5t8 -24q0 -47 -26.5 -92t-65.5 -65q-31 -14 -86 -15q-2 0 -22.5 1t-40 4.5t-48 9.5t-54 18t-50 28.5t-43 43t-26.5 61.5q-6 27 -7 62q0 12 1.5 38.5t1.5 41.5q0 168 -123 204q-12 4 -121 6 h-109v-186l2 -184q10 -23 29.5 -30t87.5 -7h29v-82h-17q-31 6 -217 6t-217 -6h-16zM737 565h115h38q28 0 38 1t33.5 2t35 3t31 7.5t31.5 10.5t25.5 14t25.5 22q39 39 39 143q0 100 -34 141t-128 58q-8 2 -113 4h-49h-39l-16 -2q-23 -4 -28 -18.5t-5 -69.5v-131v-185z" />
<glyph unicode="&#xf0;" horiz-adv-x="1138" d="M86 465q0 215 121 360.5t295 145.5q76 0 141.5 -28t92 -50.5t42.5 -42.5q12 -20 19 -14q0 37 -23 137q-20 61 -48 111.5t-53.5 78t-47 47t-35.5 25.5l-12 6l-332 -215q-8 -2 -37 -2q-37 0 -55 12v123v78q0 41 9 52t46 11q45 0 52 -12t7 -84l4 -78l119 78l119 82l-37 14 q-113 39 -219 46q-16 0 -37 2l-22 2q-2 4 -2 57t2 57q8 4 36 4q168 0 347 -77l55 -23l45 27q41 33 123 82q76 55 90 55q4 2 22 2q49 0 56 -6q10 -4 10 -133v-123q-25 -12 -45 -12q-43 0 -66 18l-4 76v78l-82 -50l-77 -55q18 -18 45 -37q233 -188 282 -444q10 -41 10 -164 v-41q0 -59 -4 -115.5t-25.5 -149.5t-58 -167t-109.5 -142.5t-171 -99.5q-37 -10 -111 -10q-100 0 -164 23q-92 35 -174 122.5t-116 186.5q-23 78 -23 176zM332 446q0 -217 45 -284q57 -82 182 -82q80 0 142.5 48t76.5 120q16 78 17 213q0 309 -162 379q-20 12 -74 18 q-117 0 -168 -59q-35 -39 -47 -98.5t-12 -254.5z" />
<glyph unicode="&#x127;" horiz-adv-x="1105" d="M86 53l254 1032q0 8 -10.5 9.5t-65.5 1.5q-4 0 -15 -1t-20 -1q-78 0 -77 57q0 16 7 28.5t14 18.5t24.5 9t26.5 4t31 1h28l90 7v8q0 25 -17.5 33t-83.5 8q-31 0 -40 4t-9 18q0 12 11.5 54t15.5 51q6 8 164 14q143 14 172 14q37 0 37 -22q0 -4 -19.5 -83t-25.5 -95 q0 -10 159 -11h80q63 0 94 -11t31 -48q0 -23 -18 -45l-19 -12h-360l-31 -138l-17 -66l-15 -54q-5 -18 -5 -21q0 -8 23 10q104 76 231 76q98 0 180 -50t82 -171q0 -100 -74.5 -317.5t-74.5 -246t28 -28.5q41 0 82 49q39 39 70 127l18 45h45h25q39 0 39 -16q0 -33 -33 -104.5 t-107.5 -144.5t-160.5 -73q-61 0 -115.5 33t-75.5 84q-8 16 -8 68q0 45 70 243.5t70 288.5q0 100 -82 101q-57 0 -123 -33q-39 -18 -85 -65.5t-69 -94.5q-8 -10 -37 -118l-64 -249l-48 -188q-20 -29 -33 -35q-35 -33 -80 -33q-35 0 -59.5 21.5t-24.5 56.5z" />
<glyph unicode="&#x2c6;" horiz-adv-x="4777" d="M-29 1266q0 14 14.5 20t61.5 14q16 2 27 5q55 8 1198 221q1079 205 1114 205q4 0 1202 -218l1200 -223q16 0 17 -24q-12 -109 -29 -117q-6 0 -1194 190l-581 94l-459 74q-150 25 -152 25q-4 0 -152 -24l-463 -74l-581 -95q-1188 -190 -1192 -190q-8 4 -15 32.5t-12 55.5z " />
<glyph unicode="&#x2dc;" horiz-adv-x="4777" d="M4 1442q0 18 70 57q39 14 422 129q778 211 1196 211q137 0 247 -6q127 -16 223.5 -47t268.5 -109q203 -88 346 -126t350 -38q178 0 405.5 34t429.5 82t376 96.5t283.5 82t115.5 33.5q14 0 14 -8q6 -10 15 -73q5 -42 5 -60q0 -9 -1 -12q0 -12 -68 -60q-47 -16 -424 -129 q-571 -154 -1005 -205q-74 -6 -217 -6q-211 0 -353.5 32t-359.5 130q-197 88 -342.5 126t-353.5 38q-178 0 -405.5 -34t-429.5 -82t-376 -96t-283.5 -82t-115.5 -34q-14 0 -14 8q-6 10 -15 74q-5 42 -5 61q0 10 1 13z" />
<glyph unicode="&#x302;" horiz-adv-x="0" d="M-4807 1266q0 14 14.5 20t61.5 14q16 2 27 5q55 8 1198 221q1079 205 1114 205q4 0 1202 -218l1200 -223q16 0 17 -24q-12 -109 -29 -117q-6 0 -1194 190l-581 94l-459 74q-150 25 -152 25q-4 0 -152 -24l-463 -74l-581 -95q-1188 -190 -1192 -190q-8 4 -16.5 32.5 t-12.5 55.5z" />
<glyph unicode="&#x303;" horiz-adv-x="0" d="M-4774 1442q0 18 70 57q39 14 422 129q778 211 1196 211q137 0 247 -6q127 -16 223.5 -47t268.5 -109q203 -88 346 -126t350 -38q178 0 405.5 34t429.5 82t376 96.5t283.5 82t115.5 33.5q14 0 14 -8q6 -10 15 -73q5 -42 5 -60q0 -9 -1 -12q0 -12 -68 -60 q-47 -16 -424 -129q-571 -154 -1005 -205q-74 -6 -217 -6q-211 0 -353.5 32t-359.5 130q-197 88 -342 126t-354 38q-178 0 -405.5 -34t-429.5 -82t-376 -96t-283.5 -82t-115.5 -34q-14 0 -14 8q-6 10 -15 74q-5 42 -5 61q0 10 1 13z" />
<glyph unicode="&#x3dd;" d="M113 -158l172 693q174 686 178 690q6 10 26 10h31q29 0 75 1t103.5 2t131.5 1h147q367 -4 431.5 -6t64.5 -12q0 -14 -56.5 -16.5t-365.5 -6.5h-398l-75 -324l-82 -317q0 -4 223 -4h121q45 0 70.5 -3t32.5 -3t18.5 -5t15.5 -7q0 -8 -8 -11.5t-37 -6.5t-79 -4t-140 -1h-232 l-164 -670l-18 -10q-18 -6 -76 -6q-110 0 -110 16z" />
<glyph unicode="&#x3f0;" horiz-adv-x="1366" d="M76 43q0 31 24.5 51.5t153.5 102.5l145 92l19 30q31 47 81 189q43 121 43 148q0 4 -1 6q0 4 -74 4q-119 -6 -148.5 -19.5t-58.5 -13.5q-39 0 -47 10q-10 10 -9 17.5t17 37.5q35 72 129 122t199 50h6q63 0 98 -59q18 -39 19 -78q0 -53 -8 -90q-27 -90 -78 -190 q-25 -55 -25 -60h2l429 274q298 187 317 195q61 27 106 27t66.5 -18.5t21.5 -39.5q0 -25 -30 -51q-8 -10 -154 -104l-141 -88l-19 -41q-47 -70 -82 -187q-12 -33 -22.5 -68.5t-15.5 -56t-3 -20.5q0 -4 56 -4q106 0 151 15.5t70 15.5q59 0 59 -23q0 -14 -18 -45 q-37 -72 -130.5 -120t-191.5 -48q-80 0 -110 68q-18 31 -19 76q0 23 6 47q16 102 82 223l27 63l-354 -227q-371 -231 -388 -236q-66 -33 -118 -32q-33 0 -57.5 16t-24.5 39z" />
<glyph unicode="&#x2000;" horiz-adv-x="1026" />
<glyph unicode="&#x2001;" horiz-adv-x="2054" />
<glyph unicode="&#x2002;" horiz-adv-x="1026" />
<glyph unicode="&#x2003;" horiz-adv-x="2054" />
<glyph unicode="&#x2004;" horiz-adv-x="684" />
<glyph unicode="&#x2005;" horiz-adv-x="512" />
<glyph unicode="&#x2006;" horiz-adv-x="342" />
<glyph unicode="&#x2007;" horiz-adv-x="342" />
<glyph unicode="&#x2008;" horiz-adv-x="256" />
<glyph unicode="&#x2009;" horiz-adv-x="409" />
<glyph unicode="&#x200a;" horiz-adv-x="112" />
<glyph unicode="&#x202f;" horiz-adv-x="409" />
<glyph unicode="&#x2035;" horiz-adv-x="563" d="M25 1026q0 53 39.5 85t64.5 32q20 4 29 4q76 0 104 -66q10 -20 124 -481t114 -475q0 -10 -44 -23.5t-57 -13.5q-6 0 -10 4t-181 446.5t-179 456.5q-4 21 -4 31z" />
<glyph unicode="&#x205f;" horiz-adv-x="512" />
<glyph unicode="&#x210f;" horiz-adv-x="1105" d="M86 53q0 39 115 473l108 447h-2q-6 0 -65.5 -18.5t-73.5 -18.5q-18 0 -37.5 20.5t-19.5 40.5q0 6 2 11q16 29 18 28q6 12 111 41q90 31 104 41q8 27 12 60q12 43 13 59q0 18 -31 27q-4 0 -27.5 2t-36.5 2q-33 0 -43 4t-10 18q0 12 11.5 54t15.5 51q6 8 164 14 q143 14 172 14q37 0 37 -22q0 -4 -27 -115l-27 -104l222 71q164 47 184 47t33.5 -17t13.5 -40q0 -29 -21 -43q-8 -6 -237 -82l-227 -69q0 -2 -30 -118t-30 -118t6 1t17 13q104 76 231 76q98 0 180 -50t82 -171q0 -100 -74.5 -317.5t-74.5 -246t28 -28.5q41 0 82 49 q39 39 70 127l18 45h45h25q39 0 39 -16q0 -33 -33 -104.5t-107.5 -144.5t-160.5 -73q-61 0 -115.5 33t-75.5 84q-8 16 -8 68q0 45 70 243.5t70 288.5q0 100 -82 101q-57 0 -123 -33q-39 -18 -85 -65.5t-69 -94.5q-8 -10 -37 -118l-64 -249l-48 -188q-20 -29 -33 -35 q-35 -33 -80 -33q-35 0 -59.5 21.5t-24.5 56.5z" />
<glyph unicode="&#x2127;" horiz-adv-x="1478" d="M90 1026q0 29 37 182q27 168 41 183q4 10 194 10q33 0 76 1t56 1q49 0 61 -7t12 -36v-33q-12 -156 -99 -438.5t-87 -415.5q0 -119 35 -204t91 -126t112.5 -58t117.5 -17q63 0 120.5 18t113 61t88.5 126t33 200q0 135 -87 422t-100 432q0 55 8 64q4 10 197 10 q190 0 195 -6q6 -6 41.5 -179.5t35.5 -189.5q0 -23 -59 -22q-45 0 -49 6q-4 0 -26.5 93t-33.5 93q-4 2 -16 3t-32.5 2t-37.5 3h-77q2 -4 11 -30.5t40 -87t90 -158.5q133 -231 160 -361q6 -37 6 -92q0 -78 -12 -113q-10 -53 -57.5 -134t-141.5 -148q-133 -90 -279 -119 q-43 -6 -131 -6q-86 0 -129 6q-119 23 -214 76t-149.5 115.5t-82 116t-35.5 93.5q-12 35 -12 107q0 106 36.5 203.5t129.5 255.5q47 78 76.5 133t39 76.5t16.5 41t9 25.5h-78q-16 -2 -36.5 -3t-33 -2t-16.5 -3q-14 0 -33.5 -93t-25.5 -93q-4 -6 -49 -6q-60 -1 -60 22z" />
<glyph unicode="&#x2132;" horiz-adv-x="1138" d="M113 39q0 10 26 41h797v592h-496l-8 14q-27 23 0 49l12 19h492v641q29 29 41 28q16 0 41 -28v-1370l-27 -27h-852q-26 31 -26 41z" />
<glyph unicode="&#x2136;" horiz-adv-x="1366" d="M-45 -2q0 10 18.5 30.5t112.5 118.5l133 134h946v413q0 414 -4 424q-18 18 -26 23l-19 12h-442q-432 6 -467 12q-23 8 -47 35q-49 49 -49 154q0 18 4 92v41q0 76 41 76q14 0 22 -9.5t23 -35.5q20 -31 37 -41l22 -9l436 -4q424 -6 459 -12q23 -8 47 -35q25 -25 37 -59 l8 -27v-1050h137q23 -27 23 -45q0 -10 -19.5 -32t-113.5 -116l-131 -131h-1161q-27 31 -27 41z" />
<glyph unicode="&#x2137;" horiz-adv-x="909" d="M-45 -2q0 10 17.5 30.5t113.5 121.5l133 131h418v874h-205h-96q-100 0 -145.5 18.5t-67.5 86.5q-8 31 -8 153v123q25 29 41 29q25 0 44 -43t56 -54q12 -4 235.5 -4t241.5 -4q129 -45 129 -149q0 -66 -46 -107t-83 -45q-10 0 -12 -2t-2 -16l10 -64q0 -78 47 -368.5 t47 -509.5q-4 -156 -35 -224q-39 -63 -69 -63q-33 0 -45 68q-27 102 -27 151q0 6 -2 6q-4 0 -94 -84l-96 -96h-473q-27 29 -27 41z" />
<glyph unicode="&#x2138;" horiz-adv-x="1366" d="M111 1358q0 53 2 88q0 66 2 80t12 24q14 14 27 15q25 0 45 -47q10 -20 17 -26.5t24 -14.5l24 -13h451q451 0 473 -10q78 -18 112 -82q10 -18 11 -63q0 -61 -37 -101q-10 -14 -38 -30.5t-48 -18.5h-14v-26q4 -12 6 -45t13 -128.5t36 -236.5q49 -303 49 -510 q0 -119 -15.5 -179.5t-52.5 -99.5q-20 -23 -36 -22q-47 0 -68 178q-10 59 -14 563v502h-433q-420 4 -454 12q-20 6 -47 33q-47 47 -47 158z" />
<glyph unicode="&#x2141;" horiz-adv-x="1308" d="M76 72v536l26 27h379q27 -27 27 -41q0 -10 -27 -41h-323v-342v-48v-35q0 -17 3 -25.5t2 -15.5t5 -10t6 -5t9.5 -6.5t11.5 -4.5q63 -20 227 -26q170 0 254 26q158 51 267.5 184.5t148.5 317.5q10 61 10 137q0 295 -177 478.5t-436 183.5q-92 0 -175 -24.5t-130 -49 t-49 -24.5q-14 0 -27.5 13t-13.5 28q0 31 41 45q129 74 268 86q43 8 105 8q92 0 178 -25q74 -18 205 -100q221 -168 283 -465q8 -49 8 -156q0 -104 -8 -153q-86 -375 -388 -525q-78 -39 -141 -53t-166 -14h-57q-8 0 -48 1t-63.5 3t-64.5 7t-66.5 15.5t-51.5 28t-38 41.5z " />
<glyph unicode="&#x2190;" horiz-adv-x="1024" d="M131 512q0 16 10.5 27.5t26.5 18.5t49 31.5t68 61.5q47 49 78.5 97.5t42 76t22.5 46t29 22.5q2 2 59 2h12q70 0 70 -37q0 -39 -63.5 -147.5t-102.5 -147.5h195q27 0 66.5 1t51.5 1q72 0 95.5 -10t23.5 -43t-23.5 -42t-90.5 -9h-123h-195q6 -6 44 -57.5t80 -125t42 -110.5 q0 -23 -14.5 -30t-46.5 -7h-25h-18q-41 0 -52.5 6t-21.5 33q-39 90 -107.5 172t-152.5 129q-29 16 -29 41z" />
<glyph unicode="&#x2192;" horiz-adv-x="1024" d="M119 512q0 33 24.5 43t89.5 10q14 0 54.5 -1t68.5 -1h195l-4 4q-2 6 -21.5 30t-49.5 69t-56 100q-35 70 -35 88q0 41 68 41h24q47 0 61.5 -6t24.5 -35q39 -90 107.5 -172t152.5 -129q31 -18 31 -41q0 -18 -15.5 -29.5t-56.5 -39t-84 -70.5q-53 -55 -86.5 -111.5 t-48 -88.5t-24.5 -38q-8 -4 -66 -4h-24q-45 0 -58.5 16.5t4.5 57.5q18 49 46 97t48 77l38 52q17 24 20 26l4 4h-195h-118q-74 0 -96.5 9t-22.5 42z" />
<glyph unicode="&#x219a;" horiz-adv-x="2048" d="M115 512q0 12 16 23q104 68 159.5 127t100.5 151l31 64h51q49 0 58.5 -4.5t9.5 -24.5q-8 -35 -60.5 -122t-95.5 -136l-27 -33l320 -4q322 0 328 4q0 6 104 165t113 163q10 10 24 10q16 0 27.5 -11.5t11.5 -29.5t-94 -156l-92 -141l405 -4h402q23 -27 22 -41 q0 -12 -28 -41h-854l-111 -168q-35 -49 -76 -113q-33 -51 -41 -59t-22 -8q-16 0 -29.5 12t-13.5 31q0 14 96 160l96 145h-588l27 -33q45 -53 96 -141t60 -123q0 -20 -9.5 -23.5t-58.5 -3.5l-51 5l-31 59q-45 80 -55 96q-70 92 -205 182q-16 11 -16 23z" />
<glyph unicode="&#x219b;" horiz-adv-x="2048" d="M111 512q0 16 24 41h432l432 4l111 160q111 166 123 174q4 4 14 4q16 0 27.5 -11.5t11.5 -29.5t-94 -156l-92 -141l145 -4h293l145 4l-28 33q-45 51 -96.5 137t-57.5 121q0 20 9.5 24.5t58.5 4.5h55l27 -64q47 -88 118 -170q66 -61 132 -104q29 -12 28.5 -26.5 t-28.5 -27.5q-84 -59 -132 -106q-72 -78 -118 -168l-27 -59l-55 -5q-49 0 -58.5 3.5t-9.5 23.5q8 78 172 287l10 10h-636l-111 -168q-35 -49 -76 -113q-33 -51 -41 -59t-22 -8q-16 0 -29.5 12t-13.5 31q0 14 96 160l96 145h-405l-406 4q-24 14 -24 37z" />
<glyph unicode="&#x219e;" horiz-adv-x="2048" d="M115 512q96 55 176 147.5t117 194.5h45q47 0 47 -2q0 -4 -15.5 -40t-59.5 -107.5t-101 -135.5l-15 -16h256l19 14q76 59 132 139t79 148h94q0 -8 -20.5 -51t-63.5 -111.5t-90 -120.5l-19 -18h602q612 0 621 -8l2 -2q12 -12 12 -30.5t-12 -31.5l-2 -2q-8 -8 -621 -8h-602 l19 -18q47 -51 90 -120t63.5 -112t20.5 -51h-94q-23 68 -79.5 147.5t-131.5 139.5l-19 14h-256l15 -16q57 -63 101 -135t59.5 -108t15.5 -40q0 -2 -47 -2h-45q-37 102 -117 194.5t-176 147.5z" />
<glyph unicode="&#x21a0;" horiz-adv-x="2048" d="M113 512q0 18 12 31l2 2q8 8 621 8h602l-19 18q-47 51 -90 120t-63.5 112t-20.5 51h94q23 -68 79 -147.5t132 -139.5l19 -14h256l-15 16q-57 63 -101 135t-59.5 108t-15.5 40q0 2 47 2h47q33 -102 113 -192.5t178 -149.5q-98 -59 -178 -149.5t-113 -192.5h-47 q-47 0 -47 2q0 4 15.5 40t59.5 107.5t101 135.5l15 16h-256l-19 -14q-76 -59 -132 -139t-79 -148h-94q0 8 20.5 51t63.5 111.5t90 120.5l19 18h-602q-612 0 -621 8l-2 2q-12 13 -12 31z" />
<glyph unicode="&#x21a2;" horiz-adv-x="2275" d="M115 512q96 55 176 147.5t117 194.5h45q47 0 47 -2q0 -4 -15.5 -40t-59.5 -107.5t-101 -135.5l-15 -16h1479l18 14q76 59 132.5 139t78.5 148h94q0 -8 -20 -51t-63 -111.5t-91 -120.5l-18 -18v-82l18 -18q47 -51 90.5 -120t63.5 -112t20 -51h-94q-23 68 -79 147.5 t-132 139.5l-18 14h-1479l15 -16q57 -63 101 -135t59.5 -108t15.5 -40q0 -2 -47 -2h-45q-37 102 -117 194.5t-176 147.5z" />
<glyph unicode="&#x21a3;" horiz-adv-x="2275" d="M162 170q0 8 20.5 51t63.5 111.5t90 120.5l18 18v82l-18 18q-47 51 -90 120t-63.5 112t-20.5 51h94q23 -68 79 -147.5t132 -139.5l18 -14h1479l-14 16q-57 63 -101.5 135t-59.5 108t-15 40q0 2 47 2h47q33 -102 112.5 -192.5t178.5 -149.5q-98 -59 -178 -149.5 t-113 -192.5h-47q-47 0 -47 2q0 4 15 40t59 107.5t102 135.5l14 16h-1479l-18 -14q-76 -59 -132 -139t-79 -148h-94z" />
<glyph unicode="&#x21ab;" horiz-adv-x="2048" d="M115 512q96 55 176 147.5t117 194.5h45q47 0 47 -2q0 -4 -15.5 -40t-59.5 -107.5t-101 -135.5l-15 -16h965v72q0 104 4 170.5t22.5 146.5t53.5 126t98.5 78t155.5 32q57 0 99 -5.5t96.5 -25t88 -55t58 -103t24.5 -160.5q0 -63 -11 -113t-34.5 -87t-49.5 -63.5t-69 -43 t-76.5 -27t-88 -15.5t-90 -7t-95.5 -2h-104v-526q-16 -29 -37 -29h-4h-4q-25 0 -37 29v526h-965l15 -16q57 -63 101 -135t59.5 -108t15.5 -40q0 -2 -47 -2h-45q-37 102 -117 194.5t-176 147.5zM1356 553h76q260 0 360 52t100 220q0 145 -62.5 209t-203.5 64 q-74 0 -124 -21.5t-77.5 -53.5t-43 -96.5t-19.5 -118.5t-6 -155v-100z" />
<glyph unicode="&#x21ac;" horiz-adv-x="2048" d="M72 829q0 100 27.5 172t77.5 109t103.5 52.5t118.5 15.5q70 0 116 -8.5t101.5 -35t91 -91t50.5 -164.5q14 -92 14 -254v-72h965l-15 16q-57 63 -101 135t-59.5 108t-15.5 40q0 2 47 2h47q33 -102 113 -192.5t178 -149.5q-96 -59 -177 -149.5t-114 -192.5h-47q-47 0 -47 2 q0 4 15.5 40t59.5 107.5t101 135.5l15 16h-965v-526q-16 -29 -37 -29h-4q-31 0 -41 33v522h-104q-80 2 -125 4t-115 13.5t-110.5 34t-82.5 60.5t-61.5 100t-19.5 146zM154 831q0 -172 98 -225t362 -53h76v100q-4 231 -42 324.5t-156 116.5q-16 2 -89 2q-117 0 -183 -59 t-66 -206z" />
<glyph unicode="&#x21ad;" horiz-adv-x="2844" d="M117 512q209 125 293 342h94l-8 -20q-55 -137 -170 -265l-15 -16h254l80 82q80 80 88 84q16 10 37 0q4 -2 162 -160l153 -158l156 158q158 158 164 160q16 6 35 0q4 -2 162 -160l155 -158l154 158q158 158 162 160q20 10 36 0q8 -4 89 -84l79 -82h254l-14 16 q-115 127 -170 265l-8 20h94q92 -227 293 -342q-205 -119 -293 -342h-94l8 20q55 137 170 265l14 16h-139q-27 0 -59.5 -1t-40.5 -1h-23q-8 0 -18 4t-14.5 5t-14.5 10.5t-14 14.5t-20.5 21.5t-24.5 26.5l-72 72l-76 -76l-152 -156q-79 -80 -87 -86q-20 -10 -39 2 q-8 2 -161 159t-155 157t-155.5 -157t-159.5 -159q-18 -12 -39 -2q-8 6 -87 86l-153 156l-75 76l-72 -72q-8 -10 -24.5 -26.5t-20.5 -21.5t-14.5 -14.5t-14.5 -10.5t-14 -5t-19 -4h-22q-8 0 -41 1t-59 1h-140l15 -16q115 -127 170 -265l8 -20h-47l-47 2l-11 25 q-87 192 -282 315z" />
<glyph unicode="&#x21ae;" horiz-adv-x="2048" d="M115 512q0 12 16 23q104 68 159.5 127t100.5 151l31 64h51q49 0 58.5 -4.5t9.5 -24.5q-8 -35 -60.5 -122t-95.5 -136l-27 -33l320 -4q322 0 328 4q0 6 104 165t113 163q10 10 24 10q16 0 27.5 -11.5t11.5 -29.5t-94 -156l-92 -141l145 -4h293l145 4l-28 33 q-45 51 -96.5 137t-57.5 121q0 20 9.5 24.5t58.5 4.5h55l27 -64q47 -88 118 -170q66 -61 132 -104q29 -12 28.5 -26.5t-28.5 -27.5q-84 -59 -132 -106q-72 -78 -118 -168l-27 -59l-55 -5q-49 0 -58.5 3.5t-9.5 23.5q8 78 172 287l10 10h-636l-111 -168q-35 -49 -76 -113 q-33 -51 -41 -59t-22 -8q-16 0 -29.5 12t-13.5 31q0 14 96 160l96 145h-588l27 -33q45 -53 96 -141t60 -123q0 -20 -9.5 -23.5t-58.5 -3.5l-51 5l-31 59q-45 80 -55 96q-70 92 -205 182q-16 11 -16 23z" />
<glyph unicode="&#x21b0;" horiz-adv-x="1024" d="M115 1137l48 31q11 7 56 44t70.5 69t59.5 85t57 113h47q47 0 47 -2q0 -6 -17.5 -45t-59.5 -108t-93 -122l-21 -22l287 -2h2h2h2h4h2h2h2h2h2h2h5h2h2h2h2h2h2h2h2h4h2h2h2h2h2h2h2h2h3h2h2h4h2h2h2h2h2h2h2h2h2h2h2h2h2h2h2h2h5q184 -2 190 -11l2 -2l2 -2q8 -8 8 -575 q0 -557 -4 -563q-12 -25 -36.5 -25t-37.5 25q-4 6 -4 538v533h-518l23 -25q51 -57 93 -125.5t58.5 -105.5t16.5 -43h-94l-11 26q-45 113 -127.5 195t-152.5 119z" />
<glyph unicode="&#x21b1;" horiz-adv-x="1024" d="M113 588q0 567 8 575l2 2q8 8 32.5 9.5t270.5 3.5l287 2l-21 22q-49 53 -91 121t-60.5 107.5t-18.5 46.5q0 2 47 2h47q78 -213 291 -342l-12 -9l-31 -20q-18 -12 -42.5 -30.5t-50.5 -45t-51.5 -56.5t-50 -70t-42.5 -83l-11 -26h-94q0 6 16.5 43t58.5 105.5t93 125.5 l23 25h-518v-533q0 -532 -5 -538q-12 -25 -36.5 -25t-36.5 25q-4 6 -4 563z" />
<glyph unicode="&#x21b6;" horiz-adv-x="2048" d="M35 367q0 49 8 59q14 4 37 -4q137 -57 242 -146l36 -32v14q8 8 9 59q6 37 28 95q72 213 245 354t404 174q45 4 84 4h33q227 0 445 -153q104 -86 157 -175q84 -115 133.5 -263t49.5 -287q0 -35 -13 -50q-14 -14 -28 -14t-27 14q-14 8 -14 72q-18 338 -224 556t-491 218 q-221 0 -414 -127q-121 -82 -197.5 -207t-93.5 -270l-2 -2v-4q0 -2 2 -2q4 0 26 19.5t62.5 50t83.5 51.5q27 16 72 37.5t51 21.5q25 0 25 -57v-11q0 -45 -6 -54t-45 -23q-92 -43 -167 -113t-104.5 -115t-29.5 -55q-8 -4 -11 -4q-14 0 -24 18q-37 63 -84 115.5t-90 82.5 t-79 50.5t-59.5 30.5t-25.5 12q-4 5 -4 60z" />
<glyph unicode="&#x21b7;" horiz-adv-x="2048" d="M94 61q0 147 63.5 333t223.5 345q180 168 410 201q20 2 81 2q182 0 332 -59.5t236 -144.5t144 -184t78.5 -171t20.5 -113q0 -18 7 -18q227 176 301 176q16 0 18 -10t2 -51q0 -49 -6 -58.5t-45 -23.5q-86 -37 -163 -109t-128 -160q-14 -18 -24 -18q-4 0 -13 4 q0 10 -29.5 55t-104.5 115t-167 113l-45 22q-4 4 -4 55q0 49 8 60q12 8 15 8q27 0 122 -59q61 -31 138 -90l41 -37l-4 26q-31 219 -192 381t-388 203q-51 8 -117 8q-203 0 -370.5 -107.5t-268.5 -305.5q-90 -201 -90 -392q0 -27 -14 -41q-12 -14 -26.5 -14t-26.5 14 q-15 14 -15 45z" />
<glyph unicode="&#x21ba;" d="M115 512q0 219 110.5 374.5t255.5 229.5q18 10 35 10q37 0 37 -39q0 -18 -18.5 -33.5t-47 -28.5t-74.5 -49t-87 -89q-131 -166 -131 -375q0 -244 171 -421t429 -177q252 0 427 174t175 424q0 184 -95.5 324.5t-232.5 210.5q-57 31 -70 30q0 -2 -1 -3t-2 -6t-3 -13l11 -19 q31 -51 53 -113.5t30.5 -96t8.5 -40.5l-6 2q-6 2 -17.5 5.5t-21.5 5.5l-45 14l-7 23q-33 154 -153 274l-29 2q-61 0 -61 41t57 41q23 0 88 -8l29 -4l20 8q57 23 106.5 58.5t74 59t26.5 23.5q80 -25 86 -26q-2 -2 -18.5 -19.5l-27.5 -28.5l-31 -27q-19 -17 -44 -34l-51 -33 l-27 -16l13 -4l23 -11l29 -14q17 -8 37 -20l42 -27q23 -14 47.5 -34.5t46.5 -43.5q197 -207 197 -481q0 -295 -205 -488.5t-481 -193.5q-274 0 -476 194.5t-202 487.5z" />
<glyph unicode="&#x21bb;" d="M115 512q0 276 194 481q27 27 57.5 50.5t54 39t47.5 27.5l38 19l26 14l15 4l-27 16q-80 45 -172 142l88 26q117 -109 205 -141l21 -8l28 4q66 8 88 8q57 0 57.5 -41t-57.5 -41h-4l-29 -2q-121 -121 -153 -274l-6 -23l-45 -14q-10 -2 -21.5 -5t-17.5 -6l-6 -2q0 6 8 40 t30.5 96.5t53.5 113.5l10 19q-2 8 -3 13t-2 6t-1 3q-10 0 -50 -18.5t-100.5 -63.5t-115 -107.5t-93 -162.5t-38.5 -215q0 -240 170 -418t430 -178q256 0 429 176t173 422q0 178 -90 316.5t-217 207.5q-6 4 -15.5 9.5t-12.5 7.5t-8 5t-7.5 5t-4.5 6t-3 8t-1 10q0 39 37 39 q16 0 35 -10q55 -27 110.5 -71t117 -115.5t100.5 -181t39 -236.5q0 -203 -101.5 -361.5t-255 -239.5t-325.5 -81q-274 0 -477 194.5t-203 487.5z" />
<glyph unicode="&#x21be;" horiz-adv-x="854" d="M385 528v893h41l14 -24q63 -111 159.5 -180.5t168.5 -88.5v-47q0 -47 -2 -47q-10 0 -47 11.5t-106.5 48t-127.5 90.5l-18 18v-782q0 -784 -4 -793q-10 -25 -37 -24.5t-37 24.5q-4 8 -4 901z" />
<glyph unicode="&#x21bf;" horiz-adv-x="854" d="M84 1081v47q72 16 168 85t160 184l14 24h41v-893q0 -893 -4 -901q-10 -25 -37 -24.5t-37 24.5q-4 8 -4 793v782l-18 -18q-57 -53 -127 -90t-107 -48.5t-47 -11.5q-2 0 -2 47z" />
<glyph unicode="&#x21c2;" horiz-adv-x="854" d="M385 -397v893q0 893 4 901q10 25 37 24.5t37 -22.5q4 -8 4 -793v-784l18 18q57 53 127 90t107 48.5t47 11.5q2 0 2 -47v-47q-72 -18 -168 -85t-160 -184l-14 -24h-41z" />
<glyph unicode="&#x21c3;" horiz-adv-x="854" d="M84 -57q0 47 2 47q10 0 47 -11.5t106.5 -48t127.5 -90.5l18 -18v782v570q0 172 3 203.5t22 39.5q12 4 16 4q27 0 37 -22q4 -8 4 -903v-893h-41l-14 24q-63 111 -159.5 180.5t-168.5 88.5v47z" />
<glyph unicode="&#x21c4;" horiz-adv-x="2048" d="M113 1024q0 25 24 37q6 4 803 4h797l-15 16q-57 63 -101 135t-59.5 108t-15.5 40q0 2 47 2h47q33 -102 113 -192.5t178 -149.5q-98 -59 -178 -149.5t-113 -192.5h-47q-47 0 -47 2q0 4 15.5 40t59.5 107.5t101 135.5l15 16h-797q-797 0 -803 4q-24 12 -24 37zM115 342 q94 55 174 146.5t117 193.5h47q47 0 47 -2q-47 -137 -170 -274l-21 -23h795q797 0 801 -2q29 -8 28 -39q0 -25 -20 -37q-8 -4 -805 -4h-799l19 -20q51 -55 93 -124t60.5 -109t18.5 -46q0 -2 -47 -2h-45q-84 217 -293 342z" />
<glyph unicode="&#x21c6;" horiz-adv-x="2048" d="M113 342q0 31 28 39q4 2 801 2h795l-21 23q-55 61 -97 129.5t-58 107.5l-15 37q0 2 47 2h47q82 -217 291 -340q-221 -135 -291 -342h-47q-47 0 -47 2t6 16l15 34l12 28q59 113 139 201l19 20h-799q-799 0 -803 4q-22 10 -22 37zM115 1024q96 55 176 147.5t117 194.5h45 q47 0 47 -2q0 -4 -15.5 -40t-59.5 -107.5t-101 -135.5l-15 -16h795q797 0 805 -4q25 -10 24.5 -37t-24.5 -37q-8 -4 -805 -4h-795l15 -16q57 -63 101 -135t59.5 -108t15.5 -40q0 -2 -47 -2h-45q-37 102 -117 194.5t-176 147.5z" />
<glyph unicode="&#x21c7;" horiz-adv-x="2048" d="M113 170l20 12q188 115 270 322q4 8 -14 47q-82 184 -256 291l-20 12l22 12q82 49 156 135t115 193h94q-86 -195 -191 -299h1596q29 -23 28.5 -43.5t-20.5 -34.5q-8 -4 -807 -4h-799l19 -20q53 -55 95 -121t59.5 -106t17.5 -50q0 -31 -54.5 -125t-117.5 -160l-19 -20h799 q799 0 807 -4q20 -14 20 -35q0 -27 -28 -41l-799 -2h-797q59 -59 107.5 -134t66.5 -120l17 -45h-94q-41 106 -115 192.5t-156 135.5z" />
<glyph unicode="&#x21c8;" horiz-adv-x="1705" d="M170 1081v47q219 80 342 293q2 -10 26.5 -48t91 -102.5t148.5 -109.5q59 -33 74 -33q12 0 63.5 25t132 92.5t134.5 155.5l10 20q123 -211 342 -293v-47q0 -47 -2 -47q-6 0 -50 20.5t-113 64.5t-116 89l-20 19v-1598q-14 -25 -35 -24h-6h-2q-27 0 -33 20l-4 8l-2 795v797 l-21 -19q-72 -68 -162.5 -119t-119.5 -51h-4q-2 0 -40 17.5t-65.5 32t-76 48t-89.5 72.5l-20 19v-1592q-31 -27 -41 -28h-6q-20 0 -35 24v1598l-20 -19q-47 -47 -115 -90t-112 -63.5t-52 -20.5q-2 0 -2 47z" />
<glyph unicode="&#x21c9;" horiz-adv-x="2048" d="M113 172q0 20 20 35q8 4 807 4h799l-19 20q-70 72 -125 171q-48 87 -48 112q0 4 1 6q0 2 8.5 21.5t21.5 45.5l32 59q18 34 47 73t63 74l19 20h-799q-799 0 -807 4q-20 14 -20 35q0 23 30 43h1594q-59 59 -107.5 134t-64.5 120l-19 45h94q41 -106 115 -192.5t156 -135.5 l22 -12l-20 -12q-186 -115 -271 -322q-4 -8 15 -47q82 -184 256 -291l20 -12l-22 -12q-82 -49 -156 -135t-115 -193h-94q86 195 191 299h-797l-797 2q-30 12 -30 41z" />
<glyph unicode="&#x21ca;" horiz-adv-x="1705" d="M170 -57q0 47 2 47q8 0 52 -20.5t111.5 -64.5t115.5 -89l20 -19v1598q20 27 43 26q18 -2 39 -28v-1594l20 19q35 33 71 59.5t69 44.5l53 30q20 11 48 22.5t30 13.5h4q29 0 122 -53.5t160 -116.5l21 -19v797l2 797q14 27 39 26q23 2 41 -24v-1598l20 19q47 45 116 89 t113 64.5t50 20.5q2 0 2 -47v-47q-219 -82 -342 -293l-10 20q-53 88 -134 155.5t-132.5 92.5t-63.5 25t-63.5 -25t-132.5 -92.5t-134 -155.5l-10 -20q-125 215 -342 293v47z" />
<glyph unicode="&#x21cb;" horiz-adv-x="2048" d="M113 313q0 25 24 37q6 4 901 4h895v-41l-24 -14q-190 -104 -262 -307l-7 -21h-47q-47 0 -47 4q27 145 150 279l18 18h-784q-784 0 -793 4q-24 10 -24 37zM113 670v41l24 14q94 51 162 135t100 172l7 21h47q47 0 47 -4q0 -8 -11.5 -46t-49.5 -108t-89 -125l-18 -18h784 q784 0 793 -4q25 -10 24.5 -37t-24.5 -37q-8 -4 -901 -4h-895z" />
<glyph unicode="&#x21cc;" horiz-adv-x="2048" d="M113 313v41h895q893 0 901 -4q25 -10 24.5 -36.5t-24.5 -37.5q-8 -4 -793 -4h-784l18 -18q55 -59 92 -129t47 -109l11 -41q0 -4 -47 -4h-47l-7 21q-72 203 -262 307zM113 710.5q0 24.5 24 37.5q6 4 793 4h784l-18 18q-51 55 -89 125t-49.5 107.5t-11.5 46.5q0 4 47 4h47 l7 -23l17 -36l24 -48q8 -16 31.5 -51t47 -59.5t61.5 -55t81 -55.5l24 -14v-41h-895q-895 0 -901 4q-24 12 -24 36.5z" />
<glyph unicode="&#x21cd;" horiz-adv-x="2048" d="M113 502q-2 16 8 23t55 22q399 123 596 502l14 26h27q27 0 35 -3t8 -15q0 -20 -50 -100t-128 -177l-25 -28h316l309 4l68 155q35 86 56 128t29.5 48.5t20.5 6.5q16 0 27.5 -13.5t11.5 -23.5q0 -12 -68 -168l-25 -67q-13 -34 -21.5 -51t-8.5 -19h533q29 -25 28 -41 q0 -12 -28 -41h-281q-287 0 -287 -4q-4 -2 -64.5 -151.5t-68.5 -158.5q0 -4 350 -4h351q29 -29 28 -41q0 -18 -28 -41h-738l-63 -159q-55 -129 -69.5 -156t-35.5 -27q-14 0 -27.5 13.5t-13.5 23.5t60 160l63 145h-424l25 -28q68 -76 123 -166t55 -111q0 -12 -7 -15t-28 -3 h-8l-27 4l-14 22q-68 127 -156 225.5t-169.5 149.5t-153.5 82t-122 47.5t-58 24.5zM303 510q164 -88 234 -139l26 -19h551l64 154l63 160q0 4 -342 4h-336q-35 -31 -196 -127z" />
<glyph unicode="&#x21ce;" horiz-adv-x="2048" d="M68 520q14 14 32 19q100 41 190.5 106.5t148 131t100.5 129t61 104.5t18 53q6 12 37 12t35 -8q10 -10 6 -33q-66 -143 -151 -250l-23 -26l264 -6h269q94 317 110 333q10 8 23 9q14 0 29.5 -13.5t15.5 -23.5q0 -8 -46 -153.5t-46 -151.5h192l187 6l-23 26 q-86 106 -151 250q-4 23 6 33q4 8 34.5 8t36.5 -12q0 -8 17.5 -47t58.5 -102.5t98.5 -130t149.5 -135t197 -109.5q37 -10 30 -37q-10 -10 -30 -19q-106 -43 -199.5 -111.5t-150 -135t-97.5 -130t-57.5 -101.5t-16.5 -44q-6 -14 -36.5 -14t-34.5 10q-10 8 -6 31q27 55 51 99 t40.5 70.5t31 46l22.5 30t14 16.5t8.5 9t2.5 7t-261 4h-268l-45 -159q-41 -129 -55.5 -158t-36.5 -29q-14 0 -27.5 13.5t-13.5 23.5t46 156.5t46 152.5h-379l23 -32q86 -106 151 -250q4 -23 -6 -31q-4 -10 -34.5 -10t-37.5 14q0 8 -17 47t-58 102.5t-98.5 130t-148.5 133 t-196 109.5q-38 14 -32 37zM227 512l67 -44q60 -40 105 -79l45 -37h242l242 4l100 310q0 4 -291 4h-293l-45 -35q-45 -39 -153 -111zM1014 356l291 -4h292l45 37q84 72 154 109l19 14q-2 2 -43 27.5t-71 47t-59 48.5l-45 35h-483l-18 -58q-8 -33 -49 -155z" />
<glyph unicode="&#x21cf;" horiz-adv-x="2048" d="M113 311q0 8 3 13.5t11 13.5t12 14h283q287 0 287 4q4 4 65.5 155t67.5 155q0 4 -353 4h-350q-27 31 -26 41q0 14 26 41h738l63 159q57 131 72.5 157t31.5 26q14 0 28.5 -14.5t14.5 -22.5q0 -2 -59 -160l-63 -145h421l-22 28q-72 82 -126 169t-54 108q0 12 8 15t35 3h33 l8 -26q82 -154 195.5 -264.5t199.5 -152.5t172 -75t94 -37q2 -16 -8 -23.5t-55 -21.5q-395 -123 -598 -502l-8 -22l-33 -4q-43 0 -43 18q0 12 18.5 47t61.5 97.5t100 132.5l22 28h-622l-70 -159q-33 -86 -54.5 -128t-29.5 -48.5t-20 -6.5q-16 0 -27.5 12.5t-11.5 24.5 q0 6 60.5 151.5t60.5 153.5h-533q-26 27 -26 41zM801 356q0 -4 340 -4h338l26 19q78 59 172 108l60 31q-174 98 -232 141l-26 19h-547l-68 -154z" />
<glyph unicode="&#x21da;" horiz-adv-x="2048" d="M156 512l22 14q403 246 580 703l8 22h70q70 0 69 -2q-39 -123 -125 -266l-5 -10q-3 -6 -5 -9l-4 -7q-2 -3 -4 -5v-2h1141q27 -16 30 -37q0 -8 -2 -14t-4 -10t-6 -8t-7 -5.5t-7 -4.5t-6 -3h-1196l-17 -20q-121 -160 -278 -281l-19 -14h756q756 0 764 -4q23 -12 22 -37 q0 -27 -22 -37q-8 -4 -764 -4h-756l19 -14q162 -125 278 -281l17 -20h1196q2 0 6 -3t7 -4.5t7 -5.5t6 -8t4 -10t2 -14q-4 -20 -30 -37h-1141q0 -4 11 -20.5t37 -62.5t54 -110q41 -104 41 -106t-69 -2h-70l-8 22q-180 459 -580 703z" />
<glyph unicode="&#x21db;" horiz-adv-x="2048" d="M113 114.5q0 24.5 26 37.5q6 4 604 4h598l17 20q121 160 278 281l19 14h-758l-758 2q-25 10 -24 39q0 20 24 41h1516l-19 14q-162 125 -278 281l-17 20h-598q-598 0 -604 4q-27 12 -26.5 37t26.5 37q6 4 576 4h569q0 4 -11 20.5t-37 62.5t-54 110q-41 104 -41 106t69 2 h72l6 -22q180 -459 580 -703l22 -14l-22 -14q-403 -246 -580 -703l-6 -22h-72q-70 0 -69 2q39 123 125 266l5 10q3 6 5 9l4 7q2 3 2 5l2 2h-569q-569 0 -576 4q-26 12 -26 36.5z" />
<glyph unicode="&#x21dd;" horiz-adv-x="2048" d="M115 512q0 14 14 29.5t57 54.5q23 18 35 31l105 92q18 10 36 0l84 -72l175 -158l102 -90q47 39 102 90l174 158l84 72q18 10 35 0q4 -2 99 -84l90 -82h430l-15 16q-57 63 -101 135t-59.5 108t-15.5 40q0 2 47 2h47q33 -102 113 -192.5t178 -149.5q-98 -59 -178 -149.5 t-113 -192.5h-47q-47 0 -47 2q0 4 15.5 40t59.5 107.5t101 135.5l15 16h-228q-229 0 -235 4q-4 2 -47 40l-84 75l-43 37q0 -2 -177.5 -161t-181.5 -161q-18 -6 -34 0q-8 2 -184.5 160t-176.5 162q-4 0 -82 -74q-12 -10 -30 -27l-25 -24q-8 -8 -18.5 -16.5t-18.5 -11.5 t-16 -3q-16 0 -28.5 14.5t-12.5 26.5z" />
<glyph unicode="&#x21e0;" horiz-adv-x="2732" d="M131 512q0 16 10.5 27.5t26.5 18.5t49 31.5t68 61.5q47 49 78.5 97.5t42 76t22.5 46t29 22.5q2 2 59 2h12q70 0 70 -37q0 -39 -63.5 -147.5t-102.5 -147.5h195h118q74 0 96.5 -9t22.5 -42t-23.5 -42t-90.5 -9h-123h-195q6 -6 44 -57.5t80 -125t42 -110.5q0 -23 -14.5 -30 t-46.5 -7h-25h-18q-41 0 -52.5 6t-21.5 33q-39 90 -107.5 172t-152.5 129q-29 16 -29 41zM1026 512q0 27 29 41h622q31 -16 31 -41t-31 -41h-622q-29 14 -29 41zM1880 512q0 27 29 41h622q31 -16 31 -41t-31 -41h-622q-29 14 -29 41z" />
<glyph unicode="&#x21e2;" horiz-adv-x="2732" d="M172 512q0 27 29 41h622q31 -16 31 -41t-31 -41h-622q-29 14 -29 41zM1026 512q0 27 29 41h622q31 -16 31 -41t-31 -41h-622q-29 14 -29 41zM1827 512q0 33 23.5 42t91.5 9h122h195l-4 4q-2 6 -21.5 30t-49.5 69t-56 100q-35 70 -35 88q0 41 68 41h24q47 0 61.5 -6 t24.5 -35q39 -90 107.5 -172t152.5 -129q31 -18 31 -41q0 -18 -15.5 -29.5t-56.5 -39t-84 -70.5q-53 -55 -86.5 -111.5t-48 -88.5t-24.5 -38q-8 -4 -66 -4h-24q-45 0 -58.5 16.5t4.5 57.5q18 49 46 97t49 77l37 52q17 24 20 26l4 4h-195h-118q-74 0 -96.5 9t-22.5 42z" />
<glyph unicode="&#x2201;" horiz-adv-x="1024" d="M115 846q0 633 4 647q33 190 321 238q12 2 29 2h29q80 0 96 -2q270 -39 313 -238q2 -14 2 -156v-137l-4 -6q-2 -6 -5 -10l-8 -12q-5 -7 -11.5 -12t-14.5 -10t-17 -8t-22 -3q-55 0 -75 55q-6 14 -7 145v134q-2 4 -9 15t-9 13q-59 68 -215 68h-2q-29 0 -62.5 -3t-92 -26.5 t-74.5 -66.5v-1254q16 -49 84.5 -74.5t148.5 -25.5h6q176 0 225 100v133q0 8 -1 31t-1 35q0 133 84 133q16 0 28.5 -4t22 -13.5t14.5 -15.5t11 -16l6 -10v-140q0 -141 -2 -155q-6 -31 -24.5 -65t-58.5 -77t-120.5 -70.5t-191.5 -27.5t-192.5 27.5t-121.5 71.5t-56.5 77 t-22.5 64q-4 14 -4 649z" />
<glyph unicode="&#x2204;" horiz-adv-x="1138" d="M113 41q0 16 22 39h123l123 4l68 287l30 143q16 74 25.5 112t9.5 40q0 6 -174 6h-178q-23 33 -23 39q0 10 15 24l14 19h369l59 280q14 70 32 145l26 112q9 38 10 40v8h-525q-27 31 -26 45q0 25 22 37h273l274 4l37 156q27 113 39 146.5t33 33.5q14 0 27 -12t13 -27 q0 -10 -30 -155l-33 -142q0 -4 115 -4h108q14 -12 27 -26v-1370l-8 -15l-15 -8l-272 -4h-274l-35 -160q-37 -152 -45 -164q-10 -14 -31 -14q-39 0 -39 37q0 14 31.5 147t31.5 148q0 6 -112 6h-111q-26 27 -26 43zM467 84q0 -4 238 -4h231v592h-168q-168 0 -168 -6 q-2 -6 -67.5 -292t-65.5 -290zM618 754h318v585h-94q-92 0 -92 -4q-2 -2 -11 -37l-25 -110l-32 -135q-61 -289 -64 -291v-8z" />
<glyph unicode="&#x2205;" d="M113 35q0 14 13 26.5t101 88.5q88 82 82 81q0 2 -22.5 36t-51 96.5t-40.5 130.5q-2 25 -2 102.5t2 101.5q35 184 159 316q188 188 434 188q51 0 107 -12q174 -20 297 -139l27 -25l96 82q96 92 108 92q2 0 4.5 1t4.5 1q14 0 28.5 -9t14.5 -30q0 -16 -19.5 -35.5 t-95.5 -83.5q-27 -23 -46.5 -42t-28.5 -29t-7 -10q0 -4 30.5 -50.5t60.5 -131.5t30 -185q0 -225 -145.5 -393t-358.5 -205q-25 -2 -102.5 -2t-102.5 2q-188 39 -295 145l-28 23l-99 -86q-72 -63 -86 -74.5t-28 -11.5q-41 0 -41 41zM272 571q6 -104 37 -172q12 -33 36 -71.5 t32 -38.5q4 0 391 341t387 347q-96 92 -237 127q-41 14 -150 14q-174 0 -300 -111.5t-173 -248.5q-23 -78 -23 -187zM436 221q0 -8 37 -39.5t128 -68.5t202 -37q211 0 361.5 151.5t150.5 366.5q0 57 -10.5 109.5t-24.5 87t-29.5 61.5t-26 41t-10.5 16q-6 0 -392 -342 t-386 -346z" />
<glyph unicode="&#x220d;" horiz-adv-x="878" d="M209 53q0 76 115 76h41l58 4l45 3q15 1 24 3q125 35 172 160l10 23h-174q-176 0 -187 8q-8 2 -17 17t-9 28q0 37 37 65l18 13h182l181 4l10 28q6 51 6 103q0 43 -2 57q-20 76 -73.5 109.5t-121.5 33.5q-51 0 -102 -19t-82 -39.5t-35 -20.5q-12 0 -23.5 36.5t-11.5 49.5 q0 16 31 36q104 70 215 70q80 0 135 -10q211 -63 273 -275q10 -27 10 -108v-29q0 -170 -133 -303q-125 -125 -309 -170q-57 -8 -177 -8q-66 0 -86 8t-20 47z" />
<glyph unicode="&#x2212;" horiz-adv-x="1024" d="M172 512q0 27 29 41h622q31 -16 31 -41t-31 -41h-622q-29 14 -29 41z" />
<glyph unicode="&#x2214;" d="M117 512q0 27 28 41h611v317l2 320q20 27 39 27q27 0 41 -31v-633h610q31 -16 31 -41t-31 -41h-610v-633q-16 -29 -37 -28h-4h-4q-25 0 -37 28v633h-611q-28 14 -28 41zM694 1468q0 45 32 73t69 28q45 0 74.5 -31t29.5 -72t-30.5 -71.5t-69.5 -30.5q-43 0 -74 30.5 t-31 73.5z" />
<glyph unicode="&#x2216;" d="M186 839.5q0 12.5 13.5 27t27.5 14.5q12 0 582 -422q575 -432 580 -439q14 -14 14 -26t-14.5 -26.5t-28.5 -14.5q-12 0 -582.5 425t-576.5 435q-15 14 -15 26.5z" />
<glyph unicode="&#x221d;" d="M115 512q0 197 136 326t314 129q150 0 269.5 -87t160.5 -212l6 -21q2 2 9.5 21.5t16.5 38t25.5 46t34.5 52.5q53 66 146.5 114t196.5 48q49 0 49 -41q0 -31 -42 -36t-122 -27.5t-146 -90.5q-104 -111 -104 -260q0 -145 98.5 -253.5t255.5 -119.5q59 -4 60 -41 q0 -41 -49 -41q-127 0 -250 80t-170 219l-6 21q-2 -6 -15.5 -36t-16.5 -35t-14.5 -28.5t-19.5 -31.5t-22.5 -27.5t-31.5 -35.5l-40 -33q-127 -92 -277 -93q-182 0 -317 130t-135 325zM197 512q0 -152 105.5 -262.5t267 -110.5t266 110.5t104.5 262.5q0 147 -93 246.5 t-216 122.5q-12 2 -72 2q-141 0 -251.5 -104.5t-110.5 -266.5z" />
<glyph unicode="&#x2220;" horiz-adv-x="1478" d="M113 41q0 4 4 16q20 31 592 682l262 301q248 287 292 334t62 47t28.5 -12t10.5 -29q0 -12 -6 -22q-2 -2 -74 -84l-212 -244l-273 -313l-553 -633l545 -2h546q27 -20 27 -41q0 -25 -31 -41h-1188l-6 4q-6 2 -11 6t-10 12.5t-5 18.5z" />
<glyph unicode="&#x2221;" horiz-adv-x="1478" d="M113 41q0 4 4 16q14 20 595.5 707.5t594.5 693.5q12 4 16 4q14 0 27.5 -11t13.5 -30v-2q0 -12 -68 -94l-116 -137l-166 -195l-177.5 -209l-127 -148t-35.5 -44q0 -4 39 -52q41 -50 97 -168t77 -261l2 -29h444q31 -16 31 -41t-31 -41h-440q-10 -41 -41 -41q-33 0 -41 33v8 h-666l-6 4q-6 2 -11 6t-10 12.5t-5 18.5zM244 84l280 -2h283q0 23 -10.5 75t-48 149t-95.5 173l-35 45z" />
<glyph unicode="&#x2222;" horiz-adv-x="1478" d="M113 512q0 14 9 24.5t17 12.5l8 4l1104 545q63 31 73.5 30.5t25 -9.5t14.5 -29q0 -23 -18 -35l-271 -135q0 -2 21.5 -52.5t42 -146.5t20.5 -209t-20.5 -209t-42 -146.5t-21.5 -52.5l271 -135q18 -12 18 -35q0 -39 -41 -38q-14 0 -575 278l-594 293q-41 20 -41 45z M248 512q0 -2 374.5 -186.5t376.5 -184.5q78 152 78 371q0 96 -19.5 189.5t-36.5 137.5t-22 44q-2 0 -376.5 -184.5t-374.5 -186.5z" />
<glyph unicode="&#x2223;" horiz-adv-x="454" d="M186 -20v874q27 27 41.5 27t40.5 -27v-874q-31 -27 -41 -27t-41 27z" />
<glyph unicode="&#x2224;" horiz-adv-x="569" d="M-41 512q0 14 18 32l150 136l115 106v723q27 27 41 27l26 -8l15 -15v-327l4 -324l108 101q115 100 129 100q16 0 28.5 -12.5t12.5 -28.5v-2q0 -10 -11 -21.5t-95 -87.5l-64 -57l-112 -100v-1243q-31 -27 -45 -27l-25 8l-8 14l-4 584v582l-115 -101q-119 -98 -127 -100 q-16 0 -28.5 12.5t-12.5 28.5z" />
<glyph unicode="&#x2225;" horiz-adv-x="796" d="M113 -20v874q29 29 43 29t39 -25v-883q-23 -23 -39 -22q-8 0 -14.5 3t-15.5 11.5zM600 -25v883q14 25 35 25l29 -15l14 -14v-874q-31 -27 -45 -27l-25 8z" />
<glyph unicode="&#x2226;" horiz-adv-x="1024" d="M-41 -4q0 14 26.5 43t129.5 127l153 160v1183q6 4 14.5 12.5t13.5 11.5t13 3t41 -27v-1101l320 323v778q27 27 41 27q8 0 13 -3t13 -11.5t15 -12.5v-696l127 123q131 125 141 127q16 0 28.5 -15.5t12.5 -23.5q0 -23 -156 -170l-153 -160v-1179q-31 -27 -43 -27l-27 14 l-12 13v1101l-320 -323v-778q-31 -27 -41 -27t-41 27v692l-127 -123q-92 -92 -111.5 -109.5t-29.5 -17.5q-16 0 -28.5 15.5t-12.5 23.5z" />
<glyph unicode="&#x2234;" horiz-adv-x="1366" d="M49 -45q0 53 36 88t87 35q53 0 87 -36t34 -87q0 -49 -34 -86t-89 -37q-53 0 -87 36t-34 87zM559 842q0 53 37 88t88 35q49 0 85 -35t36 -88.5t-36 -88t-87 -34.5q-53 0 -88 36t-35 87zM1073 -45q0 53 36 88t87 35q49 0 85 -35t36 -88q0 -47 -34 -85t-89 -38q-53 0 -87 36 t-34 87z" />
<glyph unicode="&#x2235;" horiz-adv-x="1366" d="M47 842q0 53 37 88t88 35q49 0 85 -35t36 -88.5t-36 -88t-87 -34.5q-53 0 -88 36t-35 87zM561 -45q0 53 36 88t87 35q45 0 82 -34t37 -89t-35 -89t-86 -34q-53 0 -87 36t-34 87zM1071 842q0 53 37 88t88 35q49 0 85 -35t36 -88.5t-36 -88t-87 -34.5q-53 0 -88 36t-35 87z " />
<glyph unicode="&#x223c;" d="M113 352q0 98 49 205q33 59 65 96q76 70 172 90q8 2 35 2q102 0 169 -29.5t233 -158.5q131 -102 233 -123q31 -8 68 -8q104 0 186 72q51 51 69.5 108.5t22.5 94t23 47.5q23 0 29 -24t6 -81q-10 -160 -113 -276l-8 -7q-6 -6 -13.5 -12t-20.5 -15l-26.5 -17.5t-33 -16.5 t-39 -14t-45 -10.5t-50.5 -4.5q-80 0 -172 50.5t-161.5 112t-161.5 111.5t-172 50q-125 0 -203 -85t-78 -171q0 -20 -9 -43t-17 -25q-37 0 -37 82z" />
<glyph unicode="&#x223d;" d="M115 686q0 55 20 62q10 8 23 -3q12 -16 14 -60t12 -75q25 -90 96.5 -156.5t176.5 -66.5q72 0 142.5 36t128.5 89l118 105q59 52 132 91.5t148 43.5q160 0 252 -119t101 -283q0 -78 -29 -78q-10 0 -19.5 17.5t-9.5 42.5q0 119 -80.5 212t-203.5 93q-74 0 -144.5 -38 t-130.5 -91l-119 -107q-59 -53 -133.5 -91t-154.5 -38q-154 0 -247 131t-93 283z" />
<glyph unicode="&#x2241;" d="M113 352q0 98 49 205q33 59 65 96q102 96 224 97q78 0 157.5 -40t132 -80t60.5 -40q6 0 149 168l94 113l52 59q18 20 23 23t11 3h3q14 0 27.5 -12t13.5 -26q0 -18 -152 -201q-154 -172 -154 -182q0 -4 37 -29t103.5 -51.5t126.5 -26.5q109 0 188 70q51 51 69.5 107.5 t21.5 93t24 51.5q35 0 35 -107q-6 -100 -50 -180q-27 -55 -63 -96q-102 -96 -223 -97q-78 0 -160 40t-134 80t-58.5 40t-73.5 -79l-143 -169q-75 -90 -91 -106q-10 -10 -26 -10q-20 0 -29.5 12t-9.5 20q0 18 133 183q12 14 18 22q156 170 156 182q0 4 -37 29t-103.5 51.5 t-125.5 26.5q-127 0 -202 -84t-75 -168q0 -20 -8 -43t-18 -27q-37 0 -37 82z" />
<glyph unicode="&#x2242;" d="M113 907q0 8 3 13.5t11 13.5t12 14h1307q29 -29 29 -41t-29 -41h-1307q-26 33 -26 41zM115 147q0 82 34.5 165t116.5 148.5t193 65.5q72 0 144.5 -34.5t133.5 -84.5l122 -102q60 -51 132 -86t142 -35q102 0 185 72t97 201q4 70 27 69q27 0 26 -73q0 -152 -94 -267.5 t-239 -115.5q-76 0 -151 34.5t-136 85.5l-122 102q-60 50 -131 85t-140 35q-102 0 -186.5 -70t-96.5 -205q-6 -68 -27 -67q-30 5 -30 77z" />
<glyph unicode="&#x2246;" d="M111 41q0 18 24 43h369l178 313q0 4 -268 4h-275q-27 31 -26.5 45.5t22.5 36.5h301l295 4l205 351l-41 24q-10 4 -90 59.5t-177.5 102.5t-172.5 47q-104 0 -190.5 -65.5t-92.5 -157.5q-4 -63 -29 -64q-31 0 -30 70q0 127 94 228.5t248 101.5q76 0 148.5 -30t201.5 -116 q41 -29 85 -55.5t71.5 -40.5t29.5 -12l109 194q102 184 119 201q10 10 24 10q16 0 29.5 -11t13.5 -26q0 -18 -108 -200q-104 -184 -105 -191q6 -6 64 -6q98 0 182 59.5t96 159.5q6 63 30.5 63.5t24.5 -44.5q0 -2 -1 -10.5t-1 -12.5q0 -117 -68.5 -205t-180.5 -118 q-27 -6 -76 -7q-57 0 -103 11l-30 10l-183 -320l314 -4h309q25 -25 25 -39t-29 -43h-670l-180 -313l426 -4h428q25 -25 25 -41t-29 -41h-897l-86 -147q-82 -147 -96 -158q-12 -14 -28.5 -14t-28 11t-11.5 25q0 8 78 150l78 133h-160l-160 4l-14 8q-10 15 -10 27z" />
<glyph unicode="&#x2248;" d="M113 184q0 152 103 236t247 84q88 -6 180 -45t159.5 -84t160 -81t180.5 -36q131 0 213 82q49 43 53 98q10 61 33 62q25 0 31 -70q0 -92 -35 -160.5t-90.5 -102.5t-109.5 -49.5t-107.5 -15.5t-111.5 17.5t-103.5 39t-129.5 66.5q-127 74 -168 86q-80 33 -167 33 q-84 0 -156 -33q-33 -10 -76 -55t-43 -90q0 -59 -31 -60q-32 0 -32 78zM113 668q0 139 95 228t255 89q86 -4 179 -43t160.5 -84t159 -82t175.5 -37q137 0 219 82q49 45 53 101q10 59 29 59h6q29 0 29 -76q0 -154 -101.5 -236.5t-236.5 -82.5q-86 0 -180.5 38t-164 83 t-162.5 82.5t-177 37.5q-156 -4 -224 -84q-51 -49 -51 -94q0 -59 -31 -59q-32 0 -32 78z" />
<glyph unicode="&#x224a;" d="M104 -39q0 27 23 37h666q668 0 671 -4q20 -14 21 -35q0 -14 -15 -29q-8 -8 -94 -9t-583 -1h-666q-23 29 -23 41zM115 365q0 57 22 116q23 80 90.5 138.5t155.5 74.5q23 8 68 8q49 0 80.5 -5t100 -38.5t173.5 -101.5q211 -141 328 -141q121 0 201.5 77.5t80.5 145.5 q4 63 29 63q29 0 29 -61q0 -139 -95 -233q-96 -104 -248 -105q-80 0 -174 45t-167.5 98.5t-166 98.5t-167.5 45q-119 0 -201 -76t-82 -152q-6 -59 -31 -59q-26 1 -26 62zM115 846q0 57 22 117q23 78 90.5 137t155.5 78q33 8 66 8q59 0 106 -15q68 -14 250 -131 q215 -141 323 -141q141 0 228 96q53 53 63 146q0 16 9.5 30.5t19.5 14.5q25 0 25 -64q0 -133 -95.5 -234.5t-251.5 -101.5q-78 0 -171 44t-165.5 98.5t-166 98.5t-172.5 44q-117 0 -198 -75.5t-81 -151.5q-6 -59 -31 -60q-26 1 -26 62z" />
<glyph unicode="&#x224e;" d="M115 313q0 31 32 41h402q18 -10 22 -18q4 -4 11.5 -56.5t42.5 -97.5q59 -82 172 -82h4q104 0 166 82q31 39 38 77t10 60.5t27 34.5h203h119q72 0 93.5 -7t21.5 -33.5t-31 -41.5h-358q-12 -106 -94.5 -181t-198.5 -75q-119 0 -201 76t-94 180h-359q-28 14 -28 41zM115 711 q0 27 28 41h359q12 98 89 177t212 79q109 0 190.5 -75t96.5 -181h358q31 -16 31 -41q0 -27 -22.5 -34t-94.5 -7h-117h-203q-18 10 -22 18q-4 4 -11.5 56.5t-41.5 97.5q-59 82 -170 82h-4q-106 0 -168 -82q-31 -39 -38 -77t-10.5 -60.5t-27.5 -34.5h-402q-32 10 -32 41z" />
<glyph unicode="&#x224f;" d="M115 313q0 31 32 41h1303q2 -2 6 -5t6 -4t5 -4l6 -5q2 -2 3 -5t2 -7.5t1 -10.5q0 -27 -31 -41h-1305q-28 14 -28 41zM115 711q0 27 28 41h359q12 98 89 177t212 79q109 0 190.5 -75t96.5 -181h358q31 -16 31 -41q0 -27 -22.5 -34t-94.5 -7h-117h-203q-18 10 -22 18 q-4 4 -11.5 56.5t-41.5 97.5q-59 82 -170 82h-4q-106 0 -168 -82q-31 -39 -38 -77t-10.5 -60.5t-27.5 -34.5h-402q-32 10 -32 41z" />
<glyph unicode="&#x2251;" d="M115 313q0 31 32 41h1303q2 -2 6 -5t6 -4t5 -4l6 -5q2 -2 3 -5t2 -7.5t1 -10.5q0 -27 -31 -41h-1305q-28 14 -28 41zM115 711q0 27 28 41h1305q31 -16 31 -41q0 -23 -29 -39l-651 -2h-652q-32 10 -32 41zM657 -84q0 51 34 95t110 44q133 -14 133 -139q0 -59 -36 -98 t-101.5 -39t-102.5 39t-37 98zM657 1108q0 51 34 95t110 44q133 -14 133 -139q0 -59 -36 -98t-101.5 -39t-102.5 39t-37 98z" />
<glyph unicode="&#x2252;" d="M31 1108q0 57 36.5 90t86 33t86 -33t36.5 -90q0 -55 -34.5 -89t-88 -34t-88 36t-34.5 87zM115 313q0 31 32 41h1303q2 -2 6 -5t6 -4t5 -4l6 -5q2 -2 3 -5t2 -7.5t1 -10.5q0 -27 -31 -41h-1305q-28 14 -28 41zM115 711q0 27 28 41h1305q31 -16 31 -41q0 -23 -29 -39 l-651 -2h-652q-32 10 -32 41zM1315 -84q0 49 33.5 85t89.5 36q49 0 86 -32t37 -89q0 -53 -36 -88t-87 -35q-53 0 -88 34t-35 89z" />
<glyph unicode="&#x2253;" d="M29 -84q0 53 35.5 87t87.5 34q55 0 89.5 -38t34.5 -83q0 -47 -34.5 -86t-87.5 -39q-49 0 -87 35t-38 90zM115 313q0 31 32 41h1303q2 -2 6 -5t6 -4t5 -4l6 -5q2 -2 3 -5t2 -7.5t1 -10.5q0 -27 -31 -41h-1305q-28 14 -28 41zM115 711q0 27 28 41h1305q31 -16 31 -41 q0 -23 -29 -39l-651 -2h-652q-32 10 -32 41zM1315 1108q0 57 37 90t86 33t86 -34t37 -89q0 -53 -36 -88t-87 -35q-53 0 -88 34t-35 89z" />
<glyph unicode="&#x2256;" d="M115 313q0 31 32 41h492l-14 19q-49 61 -49.5 139t49.5 139l14 19h-492q-33 10 -32 41q0 27 28 41h1305q31 -16 31 -41q0 -27 -22.5 -34t-108.5 -7h-148h-248l15 -19q49 -61 49 -139t-49 -139l-15 -19h248h158q76 0 98.5 -7t22.5 -33.5t-31 -41.5h-1305q-28 14 -28 41z M623 512q0 -31 3 -48.5t24.5 -49t64.5 -60.5h162q43 29 64.5 60.5t24.5 50t3 47.5q0 31 -3 48.5t-24.5 49t-64.5 60.5h-162q-43 -29 -64.5 -60.5t-24.5 -50t-3 -47.5z" />
<glyph unicode="&#x2257;" d="M115 313q0 31 32 41h1303q2 -2 6 -5t6 -4t5 -4l6 -5q2 -2 3 -5t2 -7.5t1 -10.5q0 -27 -31 -41h-1305q-28 14 -28 41zM115 711q0 27 28 41h1305q31 -16 31 -41q0 -23 -29 -39l-651 -2h-652q-32 10 -32 41zM571 1253q0 90 64.5 157t159.5 67q92 0 158.5 -65.5t66.5 -158.5 q0 -80 -58.5 -151.5t-164.5 -71.5q-109 0 -167.5 71.5t-58.5 151.5zM655 1251q0 -37 3.5 -56t21.5 -44t55 -35q14 -4 62 -4h4q31 0 48 3t41.5 15.5t36 44t11.5 82.5q0 47 -12.5 77t-39 42.5t-46 14.5t-56 2t-63.5 -10.5t-39 -22.5t-18.5 -36t-7.5 -36t-1 -37z" />
<glyph unicode="&#x225c;" d="M115 313q0 31 32 41h1305q2 -2 6 -5t6 -4t5 -4l6 -5q2 -2 3 -5t2 -7.5t1 -10.5q0 -27 -31 -41h-1307q-28 14 -28 41zM115 711q0 27 28 41h1307q31 -16 31 -41q0 -23 -29 -39l-653 -2h-652q-32 10 -32 41zM358 1026q0 10 7 23q12 23 205.5 358.5t197.5 339.5q8 8 16 8 q4 0 8.5 2t6.5 2q14 0 26 -12q4 -4 198 -340t206 -358q6 -12 6 -23q0 -27 -33 -39h-809h-4q-6 2 -10 5l-9 7q-5 4 -8.5 11.5t-3.5 15.5zM471 1071q0 -2 325.5 -2t325.5 2l-325 563q-2 0 -164 -280.5t-162 -282.5z" />
<glyph unicode="&#x2266;" d="M170 -322q0 8 2 14.5t4 10.5t6 8t7.5 5t7.5 4.5t6 3.5h1186q33 -23 32 -41q0 -27 -30 -41h-1190q-29 13 -31 36zM170 952q2 23 27 35q16 8 585.5 277.5t579.5 273.5q8 4 18 4q16 0 28.5 -13t12.5 -29.5t-14 -29.5q-2 -2 -553 -264l-545 -258l508 -241q590 -279 598 -289 q6 -12 6 -23q0 -37 -37 -41h-12l-590 279q-594 281 -598 285q-14 9 -14 34zM172 80q0 20 31 41h1186q33 -12 32 -41q0 -27 -30 -41h-1190q-29 14 -29 41z" />
<glyph unicode="&#x2267;" d="M170 -322q0 8 2 14.5t4 10.5t6 8t7.5 5t7.5 4.5t6 3.5h1186q33 -23 32 -41q0 -27 -30 -41h-1190q-29 13 -31 36zM170 395v4v4q0 14 31 31q39 20 307 148l266 125l508 241l-545 258l-327 156q-180 84 -210 101.5t-30 37.5q0 16 13.5 28.5t19.5 12.5q16 0 316 -140 l593 -281q293 -140 295 -142q14 -10 14 -30.5t-14 -30.5q-4 -4 -598 -285l-590 -279h-12q-37 4 -37 41zM172 80q0 20 31 41h1186q33 -12 32 -41q0 -27 -30 -41h-1190q-29 14 -29 41z" />
<glyph unicode="&#x2268;" d="M168 68q0 8 3 14t11 15t13 14h774l96 104q100 104 104 104q4 2 15 3q16 0 28.5 -12.5t12.5 -30.5q0 -12 -74 -91l-74 -73l160 -4h160q23 -23 22 -39q0 -8 -3 -14.5t-11 -15.5t-12 -13h-392l-301 -314l351 -6h346q23 -12 22 -37q0 -14 -26 -45h-770l-95 -98l-43 -44 l-32 -34l-21 -20q-10 -10 -16 -13.5t-13 -3.5q-16 0 -27 13.5t-11 31.5q0 14 71 92l74 76h-160l-160 6l-14 9q-8 10 -8 24q0 16 27 43h397l145 160l150 160h-350l-347 4q-22 15 -22 35zM168 944q0 12 8 23q14 10 605 291.5t597 281.5q14 0 27.5 -13.5t13.5 -27.5t-8 -22 q-6 -12 -555 -269l-547 -264l547 -264q545 -256 555 -268q8 -12 8 -23q0 -14 -13 -27.5t-24 -13.5q-14 0 -605 281.5t-601 292.5q-8 8 -8 22z" />
<glyph unicode="&#x2269;" d="M168 68q0 8 3 14t11 15t13 14h774l96 104q100 104 104 104q4 2 15 3q16 0 28.5 -12.5t12.5 -30.5q0 -12 -74 -91l-74 -73l160 -4h160q23 -23 22 -39q0 -8 -3 -14.5t-11 -15.5t-12 -13h-392l-301 -314l351 -6h346q23 -12 22 -37q0 -14 -26 -45h-770l-95 -98l-43 -44 l-32 -34l-21 -20q-10 -10 -16 -13.5t-13 -3.5q-16 0 -27 13.5t-11 31.5q0 14 71 92l74 76h-160l-160 6l-14 9q-8 10 -8 24q0 16 27 43h397l145 160l150 160h-350l-347 4q-22 15 -22 35zM168 389q0 10 8 23q10 14 557 268l545 264l-545 264q-549 256 -557 269q-8 8 -8 20 q0 16 14 29q12 14 23 14q12 0 603 -281.5t603 -291.5q8 -8 8 -22.5t-8 -22.5q-10 -10 -601 -292t-605 -282q-10 0 -23.5 13.5t-13.5 27.5z" />
<glyph unicode="&#x226c;" horiz-adv-x="1024" d="M152 512q0 418 270 741q23 27 25 30t-5 11q-35 49 -194 158q-35 20 -35 43q0 39 39 39q14 0 31 -8q98 -57 202 -152l27 -24l23 22q74 68 145.5 116t87.5 48t28.5 -12.5t12.5 -28.5q0 -18 -10.5 -27.5t-53.5 -37t-86 -62.5q-66 -55 -79 -74q-6 -8 -4 -11t24 -30 q270 -324 270 -741q0 -217 -75.5 -408.5t-194.5 -332.5q-23 -27 -25 -30t5 -11q47 -61 196 -158q33 -20 33 -43q0 -16 -12.5 -28.5t-28.5 -12.5t-83 45t-148 117l-25 24l-25 -22q-74 -68 -145.5 -116t-87.5 -48t-28.5 12.5t-12.5 28.5q0 23 35 43q160 109 194 158q6 8 4 11 t-24 30q-270 323 -270 741zM274 512q0 -279 119 -514q41 -88 103 -168l14 -23q236 317 235 705q0 369 -202 664q-25 33 -33 41l-14 -23q-222 -295 -222 -682z" />
<glyph unicode="&#x226e;" d="M168 510q0 8 8 25q12 12 393 196l381 176l133 264l99 196q33 62 42 72.5t19 10.5q16 0 30.5 -13.5t14.5 -27.5q0 -16 -110 -223l-105 -215q0 -2 43 17.5l109 51.5q139 68 153.5 68t27.5 -13.5t13 -27.5q0 -18 -28.5 -35.5t-184.5 -91.5l-196 -92l-273 -541 q12 -4 38 -17.5t108 -51.5l200 -95l328 -163q8 -8 8 -20.5t-13 -28t-24 -15.5q-16 0 -346 160l-331 153q-4 0 -168 -323q-160 -307 -177 -326q-8 -8 -16 -8t-12 2q-14 0 -23.5 11.5t-9.5 25.5q0 25 51 108q45 94 164 324l113 227l-221 105q-115 51 -165.5 76.5t-61.5 36 t-11 22.5zM309 512q0 -4 176.5 -85t178.5 -79l114 219l109 217q-2 4 -290 -132t-288 -140z" />
<glyph unicode="&#x226f;" d="M168 -43q0 18 28.5 35.5t184.5 91.5l201 96l133 264l95 194q38 79 36 79q0 2 -328 160q-311 143 -342 167q-8 8 -8 20.5t14.5 28t22.5 15.5q12 0 350 -160q334 -158 336 -157l164 321q160 319 174 334q8 4 14 4q16 0 30.5 -13.5t14.5 -27.5t-164 -332l-119 -244 q-36 -75 -36 -79q0 -5 19 -16.5t49 -25l59 -25.5l57 -23.5l35 -14.5q115 -53 164 -79.5t58 -36t9 -21.5v-2q0 -16 -25.5 -31.5t-205.5 -101.5l-160 -78q-379 -178 -383 -178q-6 -6 -141 -273q-100 -197 -123 -236.5t-37 -39.5q-8 0 -12 2q-14 0 -23.5 11.5t-9.5 25.5 q0 6 111 227l108 219l-72 -34l-151 -71q-78 -36 -90 -36q-10 0 -23.5 13.5t-13.5 27.5zM700 233l578 279q-334 164 -346 164q-1 1 -1 0q-2 0 -4 -3q-3 -5 -9 -17l-15 -26l-22 -42l-28.5 -57.5t-37.5 -73.5z" />
<glyph unicode="&#x2270;" d="M168 -254q0 8 3 14.5t11 15.5t13 13h256l131 313q127 315 123 320l-259 127q-133 59 -195.5 92t-72.5 42t-10 21.5t8 22.5q37 29 420 205q410 199 410 201l104 245q80 193 98.5 227.5t38.5 34.5q14 0 27.5 -13t13.5 -28q0 -16 -88 -213q-82 -197 -82 -204l129 59 q123 59 131 59q14 0 27.5 -13t13.5 -27q0 -10 -3 -15.5t-45 -30t-134 -65.5l-164 -82l-254 -604l291 -141q154 -70 219.5 -104t78.5 -45t13 -26q0 -12 -9 -24t-21 -12q-31 0 -314 137l-64 31l-63 29l-53 25l-46 21l-34 16q-16 7 -22 9l-9 2q-2 0 -127 -297l-122 -295h856 q4 -4 9 -10t8 -10.5t6 -10.5t3 -12q0 -20 -22 -35l-447 -4h-446l-68 -156q-63 -150 -71 -163q-12 -8 -24.5 -8.5t-27 13t-14.5 27.5q0 2 57.5 143.5t57.5 143.5h-115l-109 4q-22 15 -22 35zM309 704.5q0 -2.5 110 -55.5l218 -102q109 -49 108 -47q0 6 111 258l98 256 q-4 0 -324.5 -153.5t-320.5 -156z" />
<glyph unicode="&#x2271;" d="M168 147q0 14 8 25q18 14 279 141l264 127l96 224l90 223l-377 176q-334 160 -350 174q-10 8 -10 22.5t13.5 27.5t27.5 13q10 0 659 -309l70 -33l135 332q141 326 150 338q8 12 24 12q14 0 27.5 -13t13.5 -28l-137 -339l-141 -338l196 -91q156 -72 185.5 -90t29.5 -36 q0 -10 -3 -14.5t-32.5 -23t-94.5 -50.5l-189 -91l-151 -70l-120 -57q-39 -18 -40 -18q-4 -2 -132 -301l-122 -291h856q4 -4 9 -10t8 -10.5t6 -10.5t3 -12q0 -20 -22 -35l-447 -4h-446l-68 -156q-63 -150 -71 -163q-12 -8 -24.5 -8.5t-27 13t-14.5 27.5q0 2 57.5 143.5 t57.5 143.5h-115l-109 4q-23 14 -22 35q0 8 3 14.5t11 15.5t13 13h256l108 264q109 266 109 269l-222 -105q-223 -106 -247 -106q-31 -1 -31 36zM831 494q4 -2 225.5 102t221.5 109l-145 71q-150 68 -150 74q-2 0 -41 -89l-76 -178q-37 -89 -35 -89z" />
<glyph unicode="&#x2272;" d="M115 -397q0 178 103.5 293.5t236.5 115.5q78 0 152.5 -36.5t133.5 -90.5l119 -107q59 -54 130 -91t145 -37q127 0 204.5 89t81.5 202q4 72 29 71q29 0 29 -65q0 -156 -94.5 -284t-243.5 -128q-80 0 -156 37t-135 90l-118 107q-58 53 -130 90t-145 37q-123 0 -202 -87.5 t-85 -209.5q-4 -66 -29 -66q-27 0 -26 53v17zM170 909q2 23 27 35q16 8 585.5 277.5t579.5 273.5q8 4 18 4q16 0 28.5 -13t12.5 -29.5t-14 -29.5q-2 -2 -553 -264l-545 -258l508 -241q590 -279 598 -289q6 -12 6 -23q0 -37 -37 -41h-12l-590 279q-594 281 -598 284 q-14 10 -14 35z" />
<glyph unicode="&#x2273;" d="M115 -397q0 178 103.5 293.5t236.5 115.5q78 0 152.5 -36.5t133.5 -90.5l119 -107q59 -54 130 -91t145 -37q127 0 204.5 89t81.5 202q4 72 29 71q29 0 29 -65q0 -156 -94.5 -284t-243.5 -128q-80 0 -156 37t-135 90l-118 107q-58 53 -130 90t-145 37q-123 0 -202 -87.5 t-85 -209.5q-4 -66 -29 -66q-27 0 -26 53v17zM170 352v4v4q0 14 31 31q39 20 307 148l266 125l508 241l-545 258q-551 262 -553 264q-14 14 -14 31t11.5 29t21.5 12q16 0 316 -140l593 -281q293 -140 295 -142q14 -10 14 -30.5t-14 -31.5q-4 -4 -598 -284l-590 -279h-12 q-37 4 -37 41z" />
<glyph unicode="&#x2276;" d="M90 -477q0 20 23 33q25 14 536 202l82 31l610 225l-610 226l-620 231q-20 12 -21 35q0 16 12.5 28.5t26.5 12.5q6 0 671.5 -245t680.5 -253q23 -12 22.5 -34.5t-22.5 -34.5q-14 -8 -680 -253t-672 -245q-14 0 -26.5 12.5t-12.5 28.5zM90 862q0 23 16 33q29 12 688.5 256 t667.5 244q14 0 27.5 -12.5t13.5 -28.5q0 -20 -24 -33q-23 -12 -533 -203q-43 -14 -86 -31l-610 -225l610 -225l621 -231q23 -12 22 -35q0 -16 -13 -28.5t-28 -12.5q-6 0 -671.5 244.5t-679.5 252.5q-21 8 -21 35z" />
<glyph unicode="&#x2277;" d="M170 14q0 25 23 35q6 2 581.5 246t591.5 250q4 2 12 2q43 0 43 -39q0 -23 -14 -33q-6 -6 -547 -233l-541 -228l533 -225l547 -229q23 -14 22 -37q0 -37 -37 -41q-12 0 -311 125l-593 250q-294 125 -296 127q-14 14 -14 30zM170 369q0 29 25 39q2 0 71 29l210 89l263 111 l533 225l-541 228l-254 106q-229 96 -268 115.5t-39 42.5q0 14 10 27.5t33 13.5q14 -4 598 -248q594 -252 596 -254q14 -10 14 -30.5t-14 -31.5q-2 -2 -296 -126l-594 -250q-300 -125 -310 -125q-37 4 -37 39z" />
<glyph unicode="&#x227c;" d="M170 278.5q0 40.5 55 40.5h6q43 0 96.5 -3t146.5 -17t178 -36.5t181.5 -67.5t168 -104.5t125 -153t67.5 -205.5q0 -45 -41 -45q-14 0 -20.5 2t-13.5 14t-9 37q-23 150 -131 260q-109 109 -298 170t-429 68h-27q-55 0 -55 40.5zM170 594q0 23 23 35q8 6 49 6 q815 0 1028 315q31 45 46 94.5t17 78t13.5 47t35.5 18.5q37 -6 37 -43v-15q-18 -164 -133 -290.5t-334 -196.5q-59 -23 -190 -49q2 0 34 -7l74 -18q43 -10 82 -24q428 -137 467 -488l2 -22q-12 -25 -22 -29q-12 -6 -21 -6q-35 0 -41 49q-61 504 -1095 504h-13q-59 0 -59 41z " />
<glyph unicode="&#x227d;" d="M170 33q0 10 1 30.5t17.5 77t44 107.5t90 115.5t146.5 109.5q135 76 360 121q-2 0 -33 7l-75 17q-43 10 -82 25q-356 117 -442 381q-27 84 -27 127q0 12 12.5 24.5t28.5 12.5q25 0 35 -21.5t12 -56.5t25.5 -92t70.5 -113q238 -270 996 -270h18q53 0 53 -41q0 -10 -6 -23 q-14 -16 -55 -18q-233 -4 -410.5 -26.5t-334 -76t-249 -152.5t-112.5 -243q-10 -55 -43 -55t-41 33zM397 -268q14 145 96 256.5t210 179.5t274.5 104.5t308.5 44.5q8 0 32.5 1t35.5 1q49 -2 59 -18q8 -8 8 -22q0 -8 -3 -15.5t-7 -10.5l-9 -7q-5 -4 -7 -6l-52 -2 q-123 -4 -232.5 -21.5t-219 -54.5t-192.5 -91.5t-142 -139.5t-76 -191q-8 -55 -47 -55q-18 2 -27.5 14t-9.5 22v11z" />
<glyph unicode="&#x227e;" d="M115 -397q0 178 103.5 293.5t236.5 115.5q78 0 152.5 -36.5t133.5 -90.5l119 -107q59 -54 130 -91t145 -37q127 0 204.5 89t81.5 202q4 72 29 71q29 0 29 -65q0 -156 -94.5 -284t-243.5 -128q-80 0 -156 37t-135 90l-118 107q-58 53 -130 90t-145 37q-123 0 -202 -87.5 t-85 -209.5q-4 -66 -29 -66q-27 0 -26 53v17zM172 905q0 27 15.5 35t52.5 8q6 0 19 -1t22 -1q514 8 769 132t287 366q8 55 47 55q38 -5 38 -39q0 -79 -46 -183q-35 -79 -94 -133t-117.5 -94t-140.5 -69t-134 -44t-126 -32q12 -2 63.5 -14t74 -18.5t75.5 -25t115 -44.5 q121 -61 199.5 -149.5t104 -160t25.5 -137.5q0 -43 -41 -43q-25 0 -35 20.5t-11 52.5t-24.5 88t-68.5 114q-217 264 -960 276h-48q-20 0 -32.5 2t-20.5 11.5t-8 27.5z" />
<glyph unicode="&#x227f;" d="M115 -397q0 178 103.5 293.5t236.5 115.5q78 0 152.5 -36.5t133.5 -90.5l119 -107q59 -54 130 -91t145 -37q127 0 204.5 89t81.5 202q4 72 29 71q29 0 29 -65q0 -156 -94.5 -284t-243.5 -128q-80 0 -156 37t-135 90l-118 107q-58 53 -130 90t-145 37q-123 0 -202 -87.5 t-85 -209.5q-4 -66 -29 -66q-27 0 -26 53v17zM170 360q10 94 45 173t94.5 133.5t117.5 94.5t140 68.5t134.5 44t125.5 31.5q-6 2 -49 11.5t-72.5 17.5t-87 27.5t-116.5 46.5q-246 121 -314 346q-16 70 -16 100q0 45 37 45q27 0 36 -20.5t11 -53t25.5 -90t68.5 -112.5 q217 -264 961 -277h43q68 0 67.5 -41t-67.5 -41h-43q-127 -2 -233.5 -11t-228.5 -28.5t-216 -55.5t-178 -88t-135.5 -132t-65.5 -182q-4 -35 -13.5 -44.5t-29.5 -9.5h-10q-4 0 -7.5 2t-4.5 3l-6 7l-9 9q-4 8 -4 26z" />
<glyph unicode="&#x2280;" d="M168 508q0 10 27 41h59q98 0 229 10t219.5 21.5t88.5 17.5q4 0 109 208l212 419q106 211 113 215q2 0 10 2t12 2q14 0 27.5 -13.5t13.5 -27.5t-196 -391q-190 -381 -191 -387q23 10 45 14q174 61 266.5 156.5t120.5 238.5q6 41 15.5 55.5t29.5 14.5q14 0 27.5 -13.5 t13.5 -27.5q0 -49 -30 -141q-82 -223 -365 -342q-137 -49 -168 -50q-4 0 -14.5 -16t-10.5 -20.5t19 -4.5q137 -31 264 -100q266 -141 301 -409q4 -37 0 -46q-14 -23 -39 -22q-16 0 -28 12q-4 8 -16.5 63.5t-33 110t-92 126t-182.5 120.5q-55 23 -132 45.5t-97 22.5h-4 l-209 -414l-107 -206l-84 -164l-26 -50q-4 0 -12.5 -2t-12.5 -2q-12 0 -26.5 13.5t-14.5 27.5q0 6 205 410q201 397 201 405q0 6 -80 15.5t-188.5 15.5t-182.5 6h-59q-27 27 -27 41z" />
<glyph unicode="&#x2281;" d="M168 -53l4 33q43 309 391 454q137 49 164 49q10 0 18 19l11 22h-19l-174 56q-328 139 -387 424q-8 35 -8 55q0 18 13.5 30.5t29.5 12.5q14 0 25 -8q8 -6 14 -35t12 -65t31.5 -85t63.5 -96t116 -95t182 -83q104 -37 142 -37l209 418q213 420 219 424q2 0 10 2t12 2 q14 0 27.5 -13.5t13.5 -27.5q0 -2 -201 -410q-205 -387 -204 -403q0 -20 182 -30.5t268 -10.5h60q27 -31 26 -41q0 -14 -26 -41h-60q-123 0 -327.5 -20.5t-214.5 -34.5l-209 -414l-107 -206l-84 -164l-26 -50q-4 0 -12.5 -2t-12.5 -2q-12 0 -26.5 13.5t-14.5 27.5 q0 12 319 641l68 133l-22 -10q-23 0 -72 -27q-98 -39 -167 -90t-100.5 -103.5t-48 -95.5t-23.5 -86t-11 -53q-12 -12 -31 -12q-14 0 -28.5 9.5t-14.5 25.5z" />
<glyph unicode="&#x2288;" d="M170 705q0 74 6 112q43 166 152 287q127 127 282 168q61 18 97 21t184 7l186 5l70 159q55 129 68.5 152.5t31.5 23.5q14 0 27.5 -13t13.5 -28q0 -2 -8 -21l-24 -58q-15 -39 -27 -74l-60 -141q0 -4 113 -5h111q27 -31 26.5 -45t-8.5 -24l-14 -8l-131 -4h-133l-213 -510 l-104 -252l-81 -197q-27 -63 -26 -65h20q18 0 51 -1t74 -2.5t95 -1.5h106h342q23 -23 22.5 -39t-26.5 -42h-346q-186 4 -361 4l-12 4l-137 -328h856q4 -4 9 -10t8 -10.5t6 -10.5t3 -12q0 -20 -22 -35l-447 -4h-446l-68 -156q-63 -150 -71 -163q-12 -8 -24.5 -8.5t-27 13 t-14.5 27.5q0 2 57.5 143.5t57.5 143.5h-178q-27 33 -27 41t27 41h215l145 350l-27 11q-154 57 -256 171.5t-137 268.5q-6 43 -6 115zM252 704.5q0 -69.5 6 -104.5q31 -131 119 -229.5t219 -145.5l31 -12l204 496l211 499q0 10 -145 11q-172 0 -246 -19 q-147 -39 -252.5 -143.5t-140.5 -247.5q-6 -35 -6 -104.5z" />
<glyph unicode="&#x2289;" d="M168 145.5q0 14.5 27 44.5h423l201 492q201 483 201 492l-111 34q-27 6 -377 11l-342 4l-14 8q-8 10 -8 24.5t27 44.5h319h199q123 0 179 -7t136 -33l27 -15l10 19q0 4 78 186q53 135 68.5 162.5t35.5 27.5q14 0 27.5 -13t13.5 -28q0 -12 -137 -339l-23 -52l37 -26 q158 -102 224 -287q27 -80 26.5 -190.5t-26.5 -192.5q-51 -139 -167 -241.5t-261 -139.5q-86 -23 -211 -22h-82l-64 -160l-67 -160h815q27 -31 26 -43q0 -10 -8 -25l-14 -10l-428 -4h-424l-68 -156q-63 -150 -71 -163q-12 -8 -24.5 -8.5t-27 13t-14.5 27.5q0 2 57.5 143.5 t57.5 143.5h-219q-27 31 -27 41t27 41h256l63 160l68 160h-195l-197 4l-14 8q-8 10 -8 24.5zM705 195l55 -5h31q207 0 350 118t188 292q6 35 6 105v20q0 199 -157 342q-8 10 -38 35.5t-40 25.5q-6 0 -8 -6q0 -10 -195 -469z" />
<glyph unicode="&#x228a;" d="M172 702q0 111 29 193q57 160 195.5 268.5t312.5 130.5q2 0 55 2t138 3t163 1h328q27 -31 26 -40q0 -14 -26 -41h-316q-332 0 -354 -7q-152 -20 -270.5 -109t-169.5 -222q-29 -78 -29 -179q0 -96 29 -176q51 -133 169.5 -222t270.5 -109q23 -6 354 -7h316q27 -27 26 -41 q0 -8 -3 -13t-11 -13t-12 -15h-320q-258 0 -321.5 3.5t-118.5 19.5q-150 39 -265.5 141.5t-166.5 241.5q-29 77 -29 190zM209 -256q0 14 27 45h546l78 72l37 33l30 27l22 22l17.5 16l13.5 12t10 9.5t7 5.5t7.5 3t5.5 1h6q12 0 25.5 -14.5t13.5 -32.5q0 -12 -4 -19 q-2 -2 -13.5 -11t-29.5 -26l-35 -30l-72 -64l250 -4h246q23 -23 22.5 -39t-26.5 -43h-584l-82 -74q-135 -127 -154 -127q-14 0 -27.5 13.5t-13.5 28t11.5 27.5t70.5 69l72 63h-227l-228 4l-14 8q-8 11 -8 25z" />
<glyph unicode="&#x228b;" d="M168 147q0 14 27 41h315q332 0 354 7q152 20 271.5 109t171.5 222q27 80 26 176q0 98 -26 179q-51 133 -171 222t-272 109q-23 6 -354 7h-315q-27 27 -27 41q0 10 27 40h319q260 0 323.5 -3t123.5 -21q145 -37 260.5 -139.5t167.5 -241.5q27 -82 26.5 -192.5 t-26.5 -190.5q-59 -160 -198.5 -268.5t-318.5 -130.5q-23 -6 -358 -7h-319q-4 6 -12.5 14.5t-11.5 13.5t-3 13zM168 -256q0 14 27 45h583l82 94q66 74 82 89.5t29 15.5q16 0 29.5 -12.5t13.5 -27t-90 -114.5l-37 -41l237 -4h232q23 -23 22.5 -39t-26.5 -43h-543l-82 -96 q-90 -100 -94 -100q-8 -4 -15 -5q-16 0 -30.5 13.5t-14.5 28t91 118.5l36 41h-254l-256 4l-14 8q-8 11 -8 25z" />
<glyph unicode="&#x228f;" d="M170 506v565q8 25 33 33h1188q31 -16 30 -41q0 -27 -30 -41h-1139v-1024h1137q33 -12 32 -41q0 -27 -30 -41h-1190q-10 6 -29 27z" />
<glyph unicode="&#x2290;" d="M131 -43q0 31 33 41h1216v1024h-1220q-29 14 -29 41t29 41h1272q14 -6 30 -27v-1134q-16 -20 -30 -27h-1272q-29 14 -29 41z" />
<glyph unicode="&#x229a;" d="M117 512q0 158 62.5 291t160.5 216t214 128t228 45h25q242 0 442 -168q227 -203 228 -512q0 -283 -196 -481.5t-484 -198.5q-283 0 -481.5 194.5t-198.5 485.5zM197 512q0 -242 173 -421t427 -179q250 0 425 176t175 424t-177.5 424t-420.5 176q-248 0 -425 -176 t-177 -424zM512 512q0 135 92 209t182 74q137 0 216 -85t79 -198q0 -119 -84 -201t-200 -82q-119 0 -202 83t-83 200zM594 512q0 -86 61.5 -144.5t141.5 -58.5q86 0 144 61.5t58 141.5q0 82 -58 142.5t-144 60.5q-84 0 -143.5 -60.5t-59.5 -142.5z" />
<glyph unicode="&#x229b;" d="M117 512q0 158 62.5 291t160.5 216t214 128t228 45h25q242 0 442 -168q227 -203 228 -512q0 -283 -196 -481.5t-484 -198.5q-283 0 -481.5 194.5t-198.5 485.5zM197 512q0 -242 173 -421t427 -179q250 0 425 176t175 424t-177.5 424t-420.5 176q-248 0 -425 -176 t-177 -424zM418 329.5q0 32.5 18.5 46t141.5 73.5l135 63l-135 63q-115 55 -130.5 64.5t-25.5 26.5q-4 10 -4 28q0 37 22.5 55.5t46.5 18.5q18 0 93 -55l57 -41l117 -86q2 0 -5 76l-15 153q-7 78 -7 80q4 39 49 57q2 0 10.5 1t14.5 1q25 -2 44 -19t21 -40q0 -2 -7 -81 l-14 -154q-7 -75 -5 -74l116 86l39 27l32 24l25 17l19 14q6 4 13.5 8t12.5 5t11 1q27 0 48.5 -21.5t21.5 -52.5q0 -29 -18.5 -44t-96.5 -52l-47 -23l-135 -63l135 -63q115 -55 130 -64.5t25 -26.5q6 -14 7 -28q0 -27 -19.5 -49.5t-50.5 -22.5h-6q-16 0 -80 47l-66 47 l-116 86q-2 0 5 -76l14 -153q7 -78 7 -80q0 -8 -4 -18.5t-21.5 -23.5t-44 -13t-44 13t-21.5 24.5t-4 17.5q0 2 7 81l15 154q7 75 5 74l-117 -86l-37 -27l-30 -22l-22 -16q-11 -8 -16.5 -12.5t-11.5 -7.5t-9 -5t-8 -3t-7 -1h-9q-31 0 -50 19.5t-19 52z" />
<glyph unicode="&#x229d;" d="M117 512q0 158 62.5 291t160.5 216t214 128t228 45h25q242 0 442 -168q227 -203 228 -512q0 -283 -196 -481.5t-484 -198.5q-283 0 -481.5 194.5t-198.5 485.5zM197 512q0 -242 173 -421t427 -179q250 0 425 176t175 424t-177.5 424t-420.5 176q-248 0 -425 -176 t-177 -424zM457 512q0 27 21.5 35t94.5 8q18 0 92 -1t132 -1h207q92 0 112.5 -6t20.5 -35q0 -18 -13 -31q-10 -8 -46 -9t-281 -1q-307 0 -316 4q-24 8 -24 37z" />
<glyph unicode="&#x229e;" d="M113 33v676l2 675q16 20 28 27h1309q20 -16 27 -31v-1349q-6 -10 -27 -29l-653 -2h-654q-24 8 -32 33zM195 82h561v584h-561v-584zM195 748h561v581h-561v-581zM838 82h559v584h-559v-584zM838 748h559v581h-559v-581z" />
<glyph unicode="&#x229f;" d="M113 33v676l2 675q16 20 28 27h1309q20 -16 27 -31v-1349q-6 -10 -27 -29l-653 -2h-654q-24 8 -32 33zM195 82h1202v584h-1202v-584zM195 748h1202v581h-1202v-581z" />
<glyph unicode="&#x22a0;" d="M113 33v676l2 675q16 20 28 27h1305q14 -6 31 -27v-1357q-16 -20 -31 -27h-1303q-24 8 -32 33zM195 143l275 285q267 276 267 279l-542 561v-1125zM252 84l272 -2h545l270 2l-520 539l-24 22zM252 1329l187 -192l247 -257q109 -114 111 -114l542 563h-1087zM856 709 q-2 -4 268 -285l273 -281v1125z" />
<glyph unicode="&#x22a1;" d="M113 33v676l2 675q16 20 28 27h1309q20 -16 27 -31v-1349q-6 -10 -27 -29l-653 -2h-654q-24 8 -32 33zM195 82h1202v1247h-1202v-1247zM676 707q0 53 36 87.5t87 34.5q45 0 82 -33.5t37 -88.5q0 -57 -37 -90t-84 -33t-84 33t-37 90z" />
<glyph unicode="&#x22a8;" horiz-adv-x="1251" d="M113 33v1356q0 2 3 6t4 7t5 7t8 6t10.5 4t14.5 2q23 -4 37 -30v-441h911q29 -16 31 -37q0 -8 -2 -14t-4.5 -10t-6.5 -8t-7 -5.5t-7 -4.5t-6 -3h-909v-315h909q2 0 6 -3t7 -4t7 -5t6.5 -8.5t4.5 -10.5t2 -14q-2 -20 -31 -37h-911v-440q-14 -27 -37 -31q-8 0 -14.5 2 t-10.5 4t-8 6t-5 7.5t-4 7.5t-3 6z" />
<glyph unicode="&#x22a9;" horiz-adv-x="1478" d="M113 33v1356q0 2 3 6t4 7t5 7t8 6t10.5 4t14.5 2q23 -4 37 -30v-1360q-14 -27 -37 -31q-8 0 -14.5 2t-10.5 4t-8 6t-5 7.5t-4 7.5t-3 6zM510 33v1356q0 2 3 6t4 7t5 7t8.5 6t10.5 4t14 2q23 -4 37 -30v-639h741q31 -16 31 -41q0 -27 -31 -41h-741v-639q-14 -27 -37 -31 q-8 0 -14 2t-10.5 4t-8.5 6t-5 7.5t-4 7.5t-3 6z" />
<glyph unicode="&#x22aa;" horiz-adv-x="1820" d="M113 33v1356q0 2 3 6t4 7t5 7t8 6t10.5 4t14.5 2q23 -4 37 -30v-1360q-14 -27 -37 -31q-8 0 -14.5 2t-10.5 4t-8 6t-5 7.5t-4 7.5t-3 6zM485 33v1356q0 2 3.5 6t4.5 7t5 7t8 6t10 4t14 2q23 -4 37 -30v-1360q-14 -27 -37 -31q-8 0 -14 2t-10 4t-8 6t-5 7.5t-4.5 7.5 t-3.5 6zM858 33v1356q0 2 3 6t4 7t5 7t8.5 6t10.5 4t14 2q23 -4 37 -30v-639h735q31 -16 31 -41q0 -27 -31 -41h-735v-639q-14 -27 -37 -31q-8 0 -14 2t-10.5 4t-8.5 6t-5 7.5t-4 7.5t-3 6z" />
<glyph unicode="&#x22ac;" horiz-adv-x="1251" d="M-113 39q0 10 17.5 31.5t120.5 140.5l90 106v1078q29 29 41 28.5t41 -28.5v-641h301l282 331q287 332 295 332q10 7 19 7q14 0 26 -15q14 -12 15 -29q0 -6 -2.5 -11t-10.5 -16.5t-19 -23.5l-34 -38l-48 -55l-69 -80l-90 -107q-256 -285 -256 -295h246h123q100 0 130 -7.5 t30 -33.5q0 -29 -23 -41h-577l-338 -383v-264q-31 -27 -43 -27q-20 0 -35 22l-4 82v86l-78 -90q-23 -23 -39 -41t-24.5 -28.5t-13.5 -17.5t-8 -9t-7 -3t-13 -1q-18 0 -31.5 11.5t-13.5 29.5zM197 539q0 -123 4 -123q2 0 51 57l104 122q55 65 64 73q0 4 -109 4h-114v-133z " />
<glyph unicode="&#x22ad;" horiz-adv-x="1251" d="M-113 39q0 10 17.5 31.5t120.5 140.5l90 106v1078q29 29 41 28.5t41 -28.5v-441h473l200 232q199 231 209 231q4 2 15 2q16 0 27.5 -11t11.5 -28q0 -12 -9 -22q0 -2 -22 -28l-70 -79l-84 -98l-168 -195l164 -4h168q23 -27 23 -41t-27 -41h-401l-279 -315l342 -4h342 q23 -27 23 -39t-27 -43h-752l-159 -182v-264q-31 -27 -43 -27q-20 0 -35 22l-4 82v86l-78 -90q-23 -23 -39 -41t-24.5 -28.5t-13.5 -17.5t-8 -9t-7 -3t-13 -1q-18 0 -31.5 11.5t-13.5 29.5zM197 412l22 22q23 31 23 33l2 2q0 2 -21 2h-26v-59zM197 553h127l88 104 q113 125 135 160l51 55h-401v-319z" />
<glyph unicode="&#x22ae;" horiz-adv-x="1478" d="M-113 39q0 12 9.5 23.5t72.5 72.5l68 68l78 73v1119q29 29 43 28.5t39 -24.5v-522l4 -519l315 304v733q25 29 41 28q12 0 41 -28v-318q0 -324 8 -323q4 0 309 290q391 379 400 379h6q12 0 26.5 -14t14.5 -31q0 -14 -8 -24q-4 -2 -45 -41l-125 -121l-150 -143l-305 -291 l305 -4h305q23 -23 23 -39q0 -12 -27 -43h-692l-22 -23l-23 -18v-606q-6 -4 -14.5 -12.5t-13.5 -11.5t-13 -3q-14 0 -41 27v260q0 260 -6 260l-313 -301v-219q-33 -27 -41.5 -27t-13.5 3t-13 11t-14 13v137l-56 -49q-113 -115 -131 -115q-14 0 -27.5 13.5t-13.5 27.5z" />
<glyph unicode="&#x22af;" horiz-adv-x="1478" d="M-113 39q0 12 9.5 23.5t72.5 72.5l68 68l78 73v1119q29 29 43 28.5t39 -24.5v-522l4 -519l315 304v733q25 29 41 28q12 0 41 -28v-441h223l209 199l242 238q33 33 49 32q14 0 27.5 -14t13.5 -31q0 -6 -4 -14q0 -2 -26 -29l-82 -82l-101 -100l-211 -195l201 -4h200 q23 -23 23 -39t-27 -43h-483l-250 -241l-4 -41v-37h737q27 -31 27 -41t-27 -41h-737v-446q-6 -4 -14.5 -12.5t-13.5 -11.5t-13 -3q-14 0 -41 27v260q0 260 -6 260l-313 -301v-219q-33 -27 -41.5 -27t-13.5 3t-13 11t-14 13v137l-56 -49q-113 -115 -131 -115 q-14 0 -27.5 13.5t-13.5 27.5zM598 739l68 64l67 69h-135v-133z" />
<glyph unicode="&#x22b2;" d="M170 510q0 27 27 37q10 6 579.5 275.5t585.5 277.5q12 4 18 4q25 0 41 -31v-1126q-16 -29 -37 -31h-12l-590 279q-594 281 -598 284q-14 11 -14 31zM309 510l254 -121l511 -243q257 -122 261 -123q4 0 4 487t-2 487t-515 -242.5t-513 -244.5z" />
<glyph unicode="&#x22b3;" d="M170 -53v1124q0 2 4 9t14.5 15.5t22.5 8.5q8 0 585.5 -272.5t596.5 -282.5q29 -16 28 -39q0 -20 -14 -31q-4 -4 -598 -284l-590 -279h-12q-23 2 -37 31zM252 510q0 -487 4 -487q4 2 261 123l511 243l254 121l-512 244l-250 117l-203 96l-61 30q-4 0 -4 -487z" />
<glyph unicode="&#x22b4;" d="M170 -246q0 8 2 14.5t4 10.5t6 8t7.5 5t7.5 4t6 3h1186q2 0 6 -3t7 -4t7 -5t6 -8t4 -10.5t2 -14.5q-4 -20 -30 -37h-1190q-29 17 -31 37zM170 709q0 27 27 36q10 6 579.5 275.5t585.5 277.5q12 4 18 5q25 0 41 -31v-1127q-16 -27 -37 -30h-12l-590 278q-594 281 -598 285 q-14 11 -14 31zM309 709l254 -121l511 -243q257 -122 261 -124q4 0 4 487.5t-2 487.5t-515 -242.5t-513 -244.5z" />
<glyph unicode="&#x22b5;" d="M170 145v1125q0 2 4 9t14.5 15.5t22.5 8.5q8 0 585.5 -272.5t596.5 -282.5q29 -16 28 -39q0 -20 -14 -31q-4 -4 -598 -285l-590 -278h-12q-23 3 -37 30zM170 -246q0 8 2 14.5t4 10.5t6 8t7.5 5t7.5 4t6 3h1186q2 0 6 -3t7 -4t7 -5t6 -8t4 -10.5t2 -14.5q-4 -20 -30 -37 h-1190q-29 17 -31 37zM252 708.5q0 -487.5 4 -487.5q4 2 261 124l511 243l254 121l-512 243l-250 118l-203 97l-61 29q-4 0 -4 -487.5z" />
<glyph unicode="&#x22b8;" horiz-adv-x="2275" d="M113 512q0 25 26 37q6 4 690 4h682v4l5 16q4 14 11 36t18 49.5t34 55t51.5 53.5t73.5 44t100 25h21q160 0 248 -99.5t88 -224.5q0 -123 -88 -223.5t-238 -100.5q-78 0 -140.5 29t-95 70t-54 82t-27.5 69l-7 29v4h-682q-684 0 -690 4q-26 12 -26 37zM1593 512 q0 -106 70 -174t172 -68q106 0 174 70t68 172q0 104 -59.5 163.5t-133.5 76.5q-12 2 -59 2q-78 0 -155 -61.5t-77 -180.5z" />
<glyph unicode="&#x22ba;" horiz-adv-x="1138" d="M117 800.5q0 59.5 55 78.5q10 4 401 4h390l8 -4l10 -6.5t11 -7.5t12.5 -11t10.5 -14.5t7 -17.5t2 -21q0 -53 -61 -80l-156 -2h-156v-1092q-33 -61 -78 -61h-4h-6q-53 0 -74 61l-2 545v547h-155l-154 2q-61 20 -61 79.5z" />
<glyph unicode="&#x22bb;" horiz-adv-x="1251" d="M113 41q0 12 8 22.5t15 14.5t9 4h961q31 -16 31 -41t-31 -41h-961q-2 0 -9 4t-15 14.5t-8 22.5zM115 1427q0 18 12 28.5t27 10.5q23 0 30 -14q2 -2 30 -59l87 -182l107 -222l217 -454l217 454l143 299q63 133 76.5 155.5t34.5 22.5q16 0 28.5 -12t12.5 -20 q0 -14 -112 -252l-231 -486q-120 -248 -128 -266q-18 -33 -41 -33q-27 0 -41 33q-6 18 -125 264l-232 483q-112 236 -112 250z" />
<glyph unicode="&#x22bc;" horiz-adv-x="1251" d="M113 43q6 20 236.5 501.5t234.5 493.5q20 31 40.5 31t30.5 -14q4 -4 244 -506l238 -500v-12q-2 -12 -13.5 -24.5t-25.5 -12.5h-2q-20 0 -41 36t-115 234l-100 211l-215 451l-217 -455l-107 -222l-87 -181q-28 -57 -30 -60q-10 -14 -30 -14q-25 0 -35 23q-6 8 -6 20z M113 1430q2 20 30 36h963q29 -16 31 -36q0 -8 -2 -14.5t-4.5 -10.5t-6.5 -8t-7 -5t-7 -4.5t-6 -3.5h-959q-2 0 -6 3.5t-7 4.5t-7 5t-6 8t-4 10.5t-2 14.5z" />
<glyph unicode="&#x22c5;" horiz-adv-x="569" d="M113 33v164l2 163q6 8 20 23l8 4h285q20 -16 27 -31v-325q-6 -10 -27 -29l-141 -2h-142q-24 8 -32 33z" />
<glyph unicode="&#x22c7;" d="M113 512q0 10 26 41h555l-194 199l-171 172.5t-30 42.5q0 14 14.5 27.5t26.5 13.5q10 0 44 -33l187 -187l220 -219l223 219q215 219 231 220q14 0 27.5 -13.5t13.5 -27.5q0 -10 -28.5 -42t-170.5 -173l-196 -199h555q29 -29 29 -41q0 -18 -29 -41h-555l196 -201 q141 -141 170 -172.5t29 -42.5q0 -14 -13 -27.5t-28 -13.5q-16 0 -231 219l-223 220l-220 -220l-187 -186q-34 -33 -44 -33q-14 0 -27.5 13.5t-13.5 27.5q0 10 29.5 42t171.5 173l194 201h-555q-26 27 -26 41zM637 70q0 66 41 104q33 33 72 51q16 4 32 4q47 0 76 -14 q20 -10 49 -37.5t39 -48.5q8 -37 8 -59q0 -61 -40 -110.5t-119 -49.5q-72 0 -117 45q-41 45 -41 115zM637 956q0 66 41 105q29 31 72 51q16 4 32 4q47 0 76 -14q20 -8 49 -36t39 -50q8 -37 8 -60q0 -59 -45 -112q-45 -45 -114 -45q-74 0 -117 45q-41 44 -41 112z" />
<glyph unicode="&#x22c9;" d="M299 43v938q27 27 41 27q10 0 48 -35t183 -182l220 -220l223 220q211 217 231 217q14 0 27.5 -13.5t13.5 -27.5q0 -16 -217 -236l-219 -219l219 -217q217 -219 217 -238q0 -14 -13 -27.5t-28 -13.5q-18 0 -231 220l-223 217l-220 -217l-187 -187q-34 -33 -44 -33 q-8 0 -13 3.5t-13.5 11.5t-14.5 12zM381 158l354 354l-354 356v-710z" />
<glyph unicode="&#x22ca;" d="M299 57q0 18 219 238l217 217l-217 219q-219 219 -219 236q0 14 13.5 27.5t27.5 13.5q10 0 48 -35t183 -182l220 -220l223 220q211 217 231 217q14 0 41 -27v-938q-27 -27 -41 -27q-18 0 -231 220l-223 217l-220 -217l-187 -187q-34 -33 -44 -33q-14 0 -27.5 13.5 t-13.5 27.5zM850 512l354 -354v710l-182 -178z" />
<glyph unicode="&#x22cb;" d="M113 -4q0 12 25.5 43t185.5 201l104 112l311 336l-311 336q-301 322 -311 342q-4 8 -4 14q0 16 14 28.5t29 12.5h2q12 0 47 -34.5t221 -237.5l414 -449l268 -288l325 -352q46 -52 46 -64q0 -14 -13.5 -27.5t-30 -13.5t-26.5 10q-2 4 -300 324.5t-302 326.5l-12 11 l-303 -328l-285 -306q-37 -38 -53.5 -38t-28.5 13.5t-12 27.5z" />
<glyph unicode="&#x22cc;" d="M113 -4q0 12 47 65l350 379l242 260q625 676 647 697q25 25 39 24q16 0 28.5 -13t12.5 -28q0 -12 -26 -42.5t-185 -200.5l-105 -113l-311 -336l311 -336q301 -322 312 -342q4 -8 4 -14q0 -14 -12.5 -27.5t-28.5 -13.5h-4q-14 0 -60 47l-274 297l-303 328q-4 -4 -102 -109 l-211 -226l-208 -224l-94 -103q-10 -10 -26.5 -10t-29.5 13.5t-13 27.5z" />
<glyph unicode="&#x22cd;" d="M115 887q0 63 30 63q6 0 13 -6q10 -14 11 -48t17.5 -83t65.5 -102q88 -82 203 -82q86 0 177 50t158.5 109.5t162 109.5t186.5 50q154 0 247 -112.5t93 -255.5q0 -68 -29 -68q-8 0 -18 14q-8 16 -12.5 59.5t-22.5 90.5q-25 41 -56 76q-88 82 -202 82q-86 0 -177.5 -50.5 t-158 -110t-161.5 -109.5t-187 -50q-152 0 -246 114t-94 259zM117 115q0 31 33 41h1296q33 -12 33 -41q0 -25 -31 -41h-1303q-28 14 -28 41z" />
<glyph unicode="&#x22ce;" horiz-adv-x="1556" d="M170 1143q0 16 12.5 28.5t30.5 12.5q8 0 24.5 -2t62.5 -14.5t90 -32t99.5 -59.5t96.5 -93q45 -55 79.5 -123.5t54 -127t33 -110t18.5 -80t7 -28.5t2 4q0 18 29 121q68 250 199 384t307 157q25 4 26 4q18 0 30.5 -12.5t12.5 -28.5q0 -31 -38.5 -37t-118.5 -32.5 t-152 -98.5q-244 -233 -256 -916v-43q0 -59 -41 -59q-23 0 -37 20q-4 8 -4 48q0 211 -25.5 386t-81 326.5t-158.5 246.5t-245 116q-57 6 -57 43z" />
<glyph unicode="&#x22cf;" horiz-adv-x="1556" d="M170 -4q0 27 30.5 37t77 15t116 46t130.5 117q213 266 213 913q0 10 1 17.5t1 11.5t2 8t4.5 5t7.5 6l7 8q12 4 18 4q43 0 43 -64q0 -8 -1 -21.5t-1 -19.5q18 -971 508 -1040q57 -6 57 -43q0 -16 -12 -28.5t-31 -12.5q-2 0 -26 4q-176 23 -307 157t-199 384 q-29 102 -29 121q0 4 -2 4t-13 -61.5t-44 -153t-86 -185.5t-156.5 -169.5t-238.5 -96.5q-25 -4 -27 -4q-18 0 -30.5 12.5t-12.5 28.5z" />
<glyph unicode="&#x22d0;" d="M172 512q0 250 169 409.5t396 182.5h22q19 0 51 1t72 1h91h100h318q31 -16 30 -41q0 -18 -26 -39l-326 -2h-106h-60q-154 0 -212 -9t-146 -48q-45 -23 -87 -54.5t-92.5 -86t-81 -136.5t-30.5 -178v-10q0 -180 125 -320q121 -131 293 -168q41 -10 77.5 -11t319.5 -3h326 q27 -20 26 -41q0 -25 -30 -41h-314q-33 0 -95 -1t-93 -1q-172 0 -298 34t-239 142q-180 168 -180 420zM487 514q0 145 117 225q47 35 90 44.5t150 9.5q23 0 96.5 -1t124.5 -1h326q31 -18 30 -41q0 -25 -30 -41h-328q-53 0 -126 1t-95 1q-104 0 -144.5 -11.5t-76.5 -54.5 q-51 -57 -52 -133q0 -82 47.5 -130t102.5 -63q14 -4 344 -4h328q31 -16 30 -41q0 -23 -30 -41h-521h-84q-70 0 -119 15.5t-100 66.5q-80 80 -80 199z" />
<glyph unicode="&#x22d1;" d="M170 -41q0 20 27 41h325h109h59q154 0 210 8t149 49q43 23 85 54.5t93 86t81.5 136.5t30.5 178q0 186 -127 330q-72 78 -163 125q-90 39 -150.5 48t-212.5 9h-59h-105l-325 2q-27 20 -27 39q0 25 31 41h313q33 0 95.5 1t92.5 1q172 0 298 -34t239 -142q180 -166 180 -420 q0 -174 -89 -309t-215 -203t-265 -80q-16 -2 -336 -2h-313q-31 16 -31 41zM170 750q0 20 27 41h303h150h124l49 2q111 0 197 -81t86 -200q0 -96 -57.5 -169t-135.5 -97q-39 -12 -190 -13h-520q-31 12 -31 41q0 27 29 41h327q53 0 126 -1t96 -1q102 0 143 11.5t78 54.5 q53 59 53 133q0 82 -48 130t-104 63q-14 4 -344 4h-327q-31 16 -31 41z" />
<glyph unicode="&#x22d2;" horiz-adv-x="1366" d="M113 -14v424v163q2 274 10 304q2 4 2 6q33 141 186.5 241.5t368.5 100.5q227 0 389 -110.5t180 -285.5q2 -12 2 -432v-411q-14 -31 -41 -31q-18 0 -39 27l-4 847q-14 57 -29.5 90t-54.5 74q-63 70 -171.5 110t-227.5 40q-170 0 -318.5 -83t-168.5 -239q-2 -10 -2 -426 v-409q-14 -29 -41 -29t-41 29zM428 -14v354q0 283 1 330t11 73q23 72 90.5 119t151.5 47q96 0 166 -57t84 -141q4 -16 4 -371v-354q-16 -29 -37 -29h-4h-4q-25 0 -37 29v350q0 285 -1 330t-11 67q-49 92 -160 92t-160 -92q-10 -23 -11 -67.5t-1 -329.5v-350q-16 -29 -37 -29 h-4h-4q-25 0 -37 29z" />
<glyph unicode="&#x22d3;" horiz-adv-x="1366" d="M113 786l2 412q20 27 39 27q20 0 41 -27v-424l2 -422l4 -20q29 -137 170 -216t309 -79q170 0 318.5 83t168.5 238q2 10 2 426v410q16 31 41 31h2q25 0 39 -31v-424v-164q-2 -274 -10 -303q-2 -4 -2 -6q-39 -158 -200.5 -250t-356.5 -92q-133 0 -255 44t-211 137t-101 218 q-2 14 -2 432zM428 844l2 354q20 27 39 27q27 0 41 -31v-350q0 -285 1 -330t11 -68q49 -92 160 -92t160 92q10 23 11 68t1 330v350q16 31 41 31q27 0 41 -31v-354q0 -354 -4 -371q-14 -82 -84 -140.5t-166 -58.5q-86 0 -159.5 51.5t-90.5 149.5q-4 15 -4 373z" />
<glyph unicode="&#x22d4;" horiz-adv-x="1366" d="M115 -14v374l2 377l4 21q14 63 50 115.5t82 85t97 56t102.5 36t91.5 19.5t66 9l27 2h6v199l2 201q20 27 39 26q25 0 41 -30v-396h4l25 -2q25 -2 63.5 -8t86.5 -17.5t99.5 -34t97.5 -53t84 -79.5t56 -111q10 -41 10 -426v-364q-14 -29 -40.5 -29t-41.5 29v362 q0 293 -1 342t-11 78q-20 68 -80.5 117t-133.5 71.5t-120 30.5t-75 10h-23v-1011q-14 -29 -41 -29t-41 29v1011h-22q-106 -6 -197 -41q-176 -59 -221 -204l-4 -21l-2 -375v-374q-20 -27 -41 -27q-25 0 -41 31z" />
<glyph unicode="&#x22d6;" d="M168 512q0 14 8 23q12 12 605 292.5t597 280.5q14 0 27.5 -13.5t13.5 -27.5t-8 -23q-10 -12 -555 -268l-547 -264l547 -264q549 -256 555 -268q8 -8 8 -22.5t-13 -28t-24 -13.5q-14 0 -605 281.5t-601 291.5q-8 11 -8 23zM928 512q0 119 123 160q4 4 45 4 q70 -4 111.5 -54.5t41.5 -109.5q0 -53 -37.5 -106.5t-124.5 -53.5q-68 0 -114 47q-45 39 -45 113z" />
<glyph unicode="&#x22d7;" d="M168 -43q0 18 29 35q45 27 536 256l545 264l-545 264q-547 254 -557 268q-8 8 -8 23q0 16 14.5 28.5t22.5 12.5q14 0 605 -281.5t601 -291.5q8 -8 8 -22.5t-8 -23.5q-10 -10 -601 -291.5t-605 -281.5q-10 0 -23.5 13.5t-13.5 27.5zM338 512q0 66 47 115t104 49 q47 0 74 -14q57 -23 88 -82q8 -23 8 -68q0 -76 -45 -113q-47 -47 -110 -47q-45 0 -68 10q-98 48 -98 150z" />
</font>
</defs>
</svg>
