<?xml version="1.0" standalone="no"?>
<!DOCTYPE svg PUBLIC "-//W3C//DTD SVG 1.1//EN" "http://www.w3.org/Graphics/SVG/1.1/DTD/svg11.dtd" >
<svg xmlns="http://www.w3.org/2000/svg">
<metadata>
This is a custom SVG webfont generated by Font Squirrel.
Copyright   : Copyright c 20092010 Design Science Inc
</metadata>
<defs>
<font id="MathJax_Size1Regular" horiz-adv-x="966" >
<font-face units-per-em="2048" ascent="1638" descent="-410" />
<missing-glyph horiz-adv-x="512" />
<glyph unicode=" "  horiz-adv-x="512" />
<glyph unicode="&#x09;" horiz-adv-x="512" />
<glyph unicode="&#xa0;" horiz-adv-x="512" />
<glyph unicode="(" horiz-adv-x="937" d="M311 514q0 809 484 1227h57q12 -12 12 -19q0 -6 -59 -77q-76 -90 -131 -197q-190 -362 -191 -936q0 -573 191 -934q55 -106 131 -196q59 -72 59 -78t-12 -19h-57q-484 400 -484 1229z" />
<glyph unicode=")" horiz-adv-x="937" d="M72 -692l73 94q76 92 129 201q178 354 179 909q0 557 -179 911q-53 109 -129 201l-73 94q0 23 30 23h39q262 -219 383 -582q100 -289 101 -645q0 -811 -484 -1229h-26q-43 0 -43 23z" />
<glyph unicode="/" horiz-adv-x="1183" d="M113 -668q182 725 872 2384q16 25 39 25q45 0 45 -47q-180 -725 -872 -2384q-12 -25 -39 -25q-45 0 -45 47z" />
<glyph unicode="[" horiz-adv-x="854" d="M414 -715v2456h393v-82h-311v-2292h311v-82h-393z" />
<glyph unicode="\" horiz-adv-x="1183" d="M115 1694q-4 47 43 47q27 0 41 -25q692 -1659 872 -2384q0 -47 -45 -47q-27 0 -39 25q-690 1659 -872 2384z" />
<glyph unicode="]" horiz-adv-x="854" d="M45 -633h311v2292h-311v82h393v-2456h-393v82z" />
<glyph unicode="{" horiz-adv-x="1193" d="M213 512q0 31 12 39q-1 -1 0 -1q6 0 105 46q127 68 166 164q10 27 12 370l2 332q45 180 352 264l51 15h50l12 -12v-29q0 -37 -23 -43q-74 -20 -127 -49q-104 -51 -135 -125q-10 -29 -10 -357l2 -211q0 -184 -80 -264q-78 -78 -233 -129l-25 -8l31 -12q274 -96 303 -273 q2 -12 2 -329q0 -328 10 -357q49 -121 268 -176q16 -4 17 -41v-28l-12 -13h-27q-53 0 -170 43q-150 55 -209 133q-31 37 -47 105l-2 330q-2 344 -12 370q-47 121 -250 201q-33 12 -33 45z" />
<glyph unicode="}" horiz-adv-x="1193" d="M213 -674q0 31 6 35q4 6 45 16q211 68 242 195q2 12 2 328v217q0 154 49 225q70 94 256 160l31 12l-25 8q-279 92 -309 275q-2 12 -2 329q0 328 -10 357q-41 102 -271 178q-14 4 -14 39q0 31 10 39l31 2q53 0 168 -43q150 -55 209 -133q31 -35 47 -103l2 -332 q2 -344 12 -370q53 -141 266 -205q16 -6 17 -41q0 -35 -12 -41l-31 -12q-29 -10 -58 -23q-145 -72 -182 -172q-10 -27 -12 -370l-2 -330q-39 -174 -322 -258q-74 -23 -102 -23q-29 0 -35 6t-6 35z" />
<glyph unicode="&#x2c6;" horiz-adv-x="1138" d="M-14 1202q0 2 2 2q-4 0 293 160l288 160l588 -322l-18 -37q-18 -37 -23 -35q-479 240 -543 240q-12 0 -278 -119q-272 -123 -275 -123l-18 37q-16 33 -16 37z" />
<glyph unicode="&#x2dc;" horiz-adv-x="1138" d="M2 1282q0 2 53 47q53 43 58 45q133 104 260 105q76 0 215 -62q137 -63 221 -63q121 0 258 106l20 19l25 -29q23 -27 23 -31q0 -2 -54 -45q-53 -45 -57 -47q-135 -104 -258 -104q-76 0 -215 63q-141 61 -223 62q-121 0 -258 -107l-21 -18l-24 28q-23 27 -23 31z" />
<glyph unicode="&#x302;" horiz-adv-x="0" d="M-1153 1202q0 2 2 2q-4 0 293 160l289 160l587 -322l-18 -37q-18 -37 -23 -35q-479 240 -542 240q-12 0 -279 -119q-272 -123 -274 -123l-19 37q-16 33 -16 37z" />
<glyph unicode="&#x303;" horiz-adv-x="0" d="M-1137 1282q0 2 54 47q53 43 57 45q133 104 260 105q76 0 215 -62q137 -63 221 -63q121 0 258 106l21 19l24 -29q23 -27 23 -31q0 -2 -53 -45q-53 -45 -58 -47q-135 -104 -258 -104q-76 0 -215 63q-141 61 -223 62q-121 0 -258 -107l-21 -18l-24 28q-23 27 -23 31z" />
<glyph unicode="&#x2000;" horiz-adv-x="870" />
<glyph unicode="&#x2001;" horiz-adv-x="1740" />
<glyph unicode="&#x2002;" horiz-adv-x="870" />
<glyph unicode="&#x2003;" horiz-adv-x="1740" />
<glyph unicode="&#x2004;" horiz-adv-x="579" />
<glyph unicode="&#x2005;" horiz-adv-x="434" />
<glyph unicode="&#x2006;" horiz-adv-x="288" />
<glyph unicode="&#x2007;" horiz-adv-x="288" />
<glyph unicode="&#x2008;" horiz-adv-x="217" />
<glyph unicode="&#x2009;" horiz-adv-x="348" />
<glyph unicode="&#x200a;" horiz-adv-x="96" />
<glyph unicode="&#x2016;" horiz-adv-x="1593" d="M526 0v1233h88v-1233h-88zM979 0v1233h88v-1233h-88z" />
<glyph unicode="&#x202f;" horiz-adv-x="348" />
<glyph unicode="&#x205f;" horiz-adv-x="434" />
<glyph unicode="&#x2191;" horiz-adv-x="1366" d="M229 772v90l17 6q16 6 33 15q57 23 112 55q172 106 281 272l10 19l14 -23q145 -225 441 -344v-90l-25 8q-201 76 -358 228l-27 24v-1032h-88v1032l-27 -24q-158 -152 -358 -228z" />
<glyph unicode="&#x2193;" horiz-adv-x="1366" d="M229 367v90l25 -8q201 -76 358 -228l27 -24v1032h88v-1032l27 24q158 152 358 228l25 8v-90q-307 -137 -443 -349l-10 -18l-14 23q-146 225 -441 344z" />
<glyph unicode="&#x21d1;" horiz-adv-x="1593" d="M117 504v88l26 10q63 23 148 72q324 184 506 553l129 -217q154 -207 377 -336q84 -49 147 -72l27 -10v-88q-113 0 -387 225l-21 16l-2 -745h-88v829l-25 25q-61 68 -157 203q-4 -4 -17 -25l-28 -43q-49 -66 -113 -135l-25 -25v-829h-88v745l-20 -16q-207 -168 -389 -225z " />
<glyph unicode="&#x21d3;" horiz-adv-x="1593" d="M117 637v88q113 0 389 -225l20 -17v746h88v-830l25 -24q61 -68 158 -203q4 4 16 25l29 43q49 66 112 135l25 24v830h88l2 -746l21 17q201 166 387 225v-88l-27 -10q-63 -23 -147 -72q-324 -184 -506 -553l-129 217q-154 207 -377 336q-84 49 -148 72z" />
<glyph unicode="&#x220f;" horiz-adv-x="1933" d="M113 -430h28q145 10 183 113v1660q-41 100 -183 111h-28v82h1706v-82h-29q-154 -8 -180 -111v-1660q25 -104 180 -113h29v-82h-652v82h29q145 10 182 113v1771h-825l2 -1771q25 -104 180 -113h29v-82h-651v82z" />
<glyph unicode="&#x2210;" horiz-adv-x="1933" d="M113 -430h28q145 10 183 113v1660q-41 100 -183 111h-28v82h651v-82h-29q-154 -8 -180 -111l-2 -1773h825v1773q-41 100 -182 111h-29v82h652v-82h-29q-154 -8 -180 -111v-1660q25 -104 180 -113h29v-82h-1706v82z" />
<glyph unicode="&#x2211;" horiz-adv-x="2162" d="M115 -489q0 8 387 466l375 445q0 2 -381 524l-379 522l-2 23q0 33 10 41q6 4 876 4h869l176 -479l-82 2q-94 248 -373 338q-168 57 -698 57h-240q-279 0 -278 -2q422 -422 672 -922q12 -18 4 -30q12 12 -375 -445l-371 -438q0 -2 436 -2l295 -2q354 0 527 47 q236 66 354 252q20 33 47 100h82l-176 -522l-869 -2q-868 0 -874 4q-12 5 -12 19z" />
<glyph unicode="&#x221a;" horiz-adv-x="2048" d="M227 266l312 244q2 0 213 -487q209 -487 211 -490l1048 2185q14 23 39 23q33 0 39 -37v-12l-571 -1194q-582 -1206 -590 -1211q-8 -4 -35 -4l-25 2l-223 518q-223 516 -225 516l-70 -53q-68 -53 -69 -53z" />
<glyph unicode="&#x2223;" horiz-adv-x="681" d="M297 627l2 626q10 31 41 31q33 0 43 -31q2 -4 2 -626q0 -623 -2 -627q-6 -31 -43 -31q-35 0 -41 31z" />
<glyph unicode="&#x2225;" horiz-adv-x="1138" d="M297 627l2 626q10 31 41 31q33 0 43 -31q2 -4 2 -626q0 -623 -2 -627q-6 -31 -43 -31q-35 0 -41 31zM752 627l2 626q10 31 41 31q33 0 43 -31q2 -4 2 -626q0 -623 -2 -627q-6 -31 -41 -31q-37 0 -43 31z" />
<glyph unicode="&#x222b;" d="M113 -401q0 53 39 82q29 20 61 20q39 0 68 -25q33 -29 32 -75q0 -51 -41 -80t-41 -21q0 -8 31 -28q39 -23 80 -23q39 0 66 19q90 55 118 370l31 383q23 285 51 531q63 483 88 573q82 285 285 322l45 2q104 -6 168 -78q55 -63 55 -148q0 -53 -39 -82q-29 -20 -61 -20 q-39 0 -68 25q-33 29 -32 75q0 53 41 82t40 19q0 8 -32 28q-39 23 -78 23q-80 0 -121 -82q-35 -72 -55 -244q-8 -76 -35 -407q-25 -322 -53 -568q-63 -557 -135 -696q-96 -203 -275 -203q-102 0 -170 72q-63 68 -63 154z" />
<glyph unicode="&#x222c;" horiz-adv-x="1677" d="M113 -401q0 53 39 82q29 20 61 20q39 0 68 -25q33 -29 32 -75q0 -51 -41 -80t-41 -21q0 -8 31 -28q39 -23 80 -23q39 0 66 19q90 55 118 370l31 383q23 285 51 531q63 483 88 573q82 285 285 322l45 2q104 -6 168 -78q55 -63 55 -148q0 -53 -39 -82q-29 -20 -61 -20 q-39 0 -68 25q-33 29 -32 75q0 53 41 82t40 19q0 8 -32 28q-39 23 -78 23q-80 0 -121 -82q-35 -72 -55 -244q-8 -76 -35 -407q-25 -322 -53 -568q-63 -557 -135 -696q-96 -203 -275 -203q-102 0 -170 72q-63 68 -63 154zM823 -401q0 53 39 82q29 20 62 20q39 0 67 -25 q33 -29 33 -75q0 -51 -41 -80t-41 -21q0 -8 31 -28q39 -23 80 -23q39 0 65 19q90 55 119 370l31 383q23 285 51 531q63 483 88 573q82 285 285 322l45 2q104 -6 168 -78q55 -63 55 -148q0 -53 -39 -82q-29 -20 -61 -20q-39 0 -68 25q-33 29 -33 75q0 53 41 82t41 19 q0 8 -33 28q-39 23 -77 23q-80 0 -121 -82q-35 -72 -56 -244q-8 -76 -34 -407q-25 -322 -54 -568q-63 -557 -135 -696q-96 -203 -274 -203q-102 0 -170 72q-64 68 -64 154z" />
<glyph unicode="&#x222d;" horiz-adv-x="2387" d="M113 -401q0 53 39 82q29 20 61 20q39 0 68 -25q33 -29 32 -75q0 -51 -41 -80t-41 -21q0 -8 31 -28q39 -23 80 -23q39 0 66 19q90 55 118 370l31 383q23 285 51 531q63 483 88 573q82 285 285 322l45 2q104 -6 168 -78q55 -63 55 -148q0 -53 -39 -82q-29 -20 -61 -20 q-39 0 -68 25q-33 29 -32 75q0 53 41 82t40 19q0 8 -32 28q-39 23 -78 23q-80 0 -121 -82q-35 -72 -55 -244q-8 -76 -35 -407q-25 -322 -53 -568q-63 -557 -135 -696q-96 -203 -275 -203q-102 0 -170 72q-63 68 -63 154zM823 -401q0 53 39 82q29 20 62 20q39 0 67 -25 q33 -29 33 -75q0 -51 -41 -80t-41 -21q0 -8 31 -28q39 -23 80 -23q39 0 65 19q90 55 119 370l31 383q23 285 51 531q63 483 88 573q82 285 285 322l45 2q104 -6 168 -78q55 -63 55 -148q0 -53 -39 -82q-29 -20 -61 -20q-39 0 -68 25q-33 29 -33 75q0 53 41 82t41 19 q0 8 -33 28q-39 23 -77 23q-80 0 -121 -82q-35 -72 -56 -244q-8 -76 -34 -407q-25 -322 -54 -568q-63 -557 -135 -696q-96 -203 -274 -203q-102 0 -170 72q-64 68 -64 154zM1534 -401q0 53 39 82q29 20 61 20q39 0 68 -25q33 -29 33 -75q0 -51 -41 -80t-41 -21q0 -8 30 -28 q39 -23 80 -23q39 0 66 19q90 55 119 370l30 383q23 285 52 531q63 483 88 573q82 285 284 322l45 2q104 -6 168 -78q55 -63 56 -148q0 -53 -39 -82q-29 -20 -62 -20q-39 0 -67 25q-33 29 -33 75q0 53 41 82t41 19q0 8 -33 28q-39 23 -78 23q-80 0 -121 -82 q-35 -72 -55 -244q-8 -76 -35 -407q-25 -322 -53 -568q-63 -557 -135 -696q-96 -203 -275 -203q-102 0 -170 72q-63 68 -63 154z" />
<glyph unicode="&#x222e;" d="M113 -401q0 53 39 82q29 20 61 20q39 0 68 -25q33 -29 32 -75q0 -51 -41 -80t-41 -21q0 -8 31 -28q39 -23 80 -23q39 0 66 19q66 39 94 184q18 92 43 416l6 84l-39 18q-47 25 -84 57q-125 109 -125 285q0 168 117 276q92 86 198 99l9 2l2 20q49 358 78 449 q82 254 274 289l45 2q104 -6 168 -78q55 -63 55 -148q0 -53 -39 -82q-29 -20 -61 -20q-39 0 -68 25q-33 29 -32 75q0 53 41 82t40 19q0 8 -32 28q-39 23 -78 23q-104 0 -148 -154q-25 -88 -43 -340l-16 -209q0 2 39 -18q47 -25 86 -57q123 -109 123 -283q0 -172 -119 -281 q-90 -84 -197 -96l-8 -2l-2 -20q-59 -426 -114 -537q-96 -203 -275 -203q-102 0 -170 72q-63 68 -63 154zM383 510q0 -188 174 -272v12q0 70 57 551q0 2 -2 2q-51 0 -127 -66q-102 -90 -102 -227zM750 219q51 0 129 66q102 88 102 225q0 188 -174 274v-12l1 3q5 0 -52 -503 q-6 -43 -6 -53z" />
<glyph unicode="&#x22c0;" horiz-adv-x="1705" d="M113 -424q0 12 2 18q342 1257 663 1899q25 43 74 43q45 0 72 -37q6 -10 336 -952l327 -944q4 -20 4 -29q0 -29 -18 -53q-25 -31 -68 -31q-45 0 -71 37q-8 12 -293 835l-289 824l-287 -824q-287 -825 -295 -835q-27 -37 -71 -37q-86 0 -86 86z" />
<glyph unicode="&#x22c1;" horiz-adv-x="1705" d="M113 1450q0 43 30 68q25 18 54 18q47 0 73 -39q8 -10 295 -835l287 -824l289 824q285 823 293 835q27 37 71 37q43 0 68 -31q18 -25 18 -53q0 -23 -334 -975q-328 -938 -333 -950q-31 -35 -72 -35q-29 0 -51 16q-23 16 -352 965q-336 956 -336 979z" />
<glyph unicode="&#x22c2;" horiz-adv-x="1705" d="M111 639q0 346 75 496q111 219 338 327q154 72 279 72q2 2 20 2q25 0 41 -2q276 0 486 -182q215 -188 239 -471q2 -16 2 -672q0 -647 -4 -660q-20 -59 -82 -59q-61 0 -84 66l-4 1321l-4 26q-33 203 -190 332q-158 129 -371 129h-14q-229 0 -404 -174q-115 -119 -143 -287 l-4 -26l-2 -1321q-33 -66 -86 -66q-61 0 -82 59q-4 12 -4 660z" />
<glyph unicode="&#x22c3;" horiz-adv-x="1705" d="M113 815q0 647 4 660q6 29 26 41q20 20 54 20q51 0 88 -66l2 -1320l4 -27q35 -211 198 -340q156 -123 363 -123q215 0 373 131q156 129 188 332l4 27l4 1320q29 63 84 64q61 0 82 -59q4 -12 4 -660q0 -655 -2 -670q-20 -250 -196 -432q-223 -223 -541 -223h-10 q-307 0 -531 223q-176 182 -196 432q-2 15 -2 670z" />
<glyph unicode="&#x2308;" d="M414 -715v2456h506v-82h-424v-2374h-82z" />
<glyph unicode="&#x2309;" d="M45 1659v82h506v-2456h-82v2374h-424z" />
<glyph unicode="&#x230a;" d="M414 -715v2456h82v-2374h424v-82h-506z" />
<glyph unicode="&#x230b;" d="M45 -633h424v2374h82v-2456h-506v82z" />
<glyph unicode="&#x23d0;" horiz-adv-x="1366" d="M639 0v1233h88v-1233h-88z" />
<glyph unicode="&#x27e8;" d="M199 512q0 12 260 596q266 592 270 608q12 25 35 25q39 0 43 -37q0 -14 -260 -602l-262 -590l262 -590q260 -588 260 -602q-4 -37 -39 -37q-29 0 -39 25q-4 16 -270 608q-260 584 -260 596z" />
<glyph unicode="&#x27e9;" d="M158 -680q0 14 260 602l262 590l-262 590q-260 588 -260 602q0 37 43 37q25 -2 35 -25q4 -16 270 -608q260 -584 260 -596t-260 -596q-266 -592 -270 -608q-10 -25 -39 -25q-35 0 -39 37z" />
<glyph unicode="&#x2a00;" horiz-adv-x="2275" d="M115 512q0 416 284 711q279 289 678 311q4 2 27 2q31 0 47 -2q401 0 698 -287q309 -299 310 -735q0 -430 -299 -727t-723 -297q-422 0 -721 295q-301 299 -301 729zM287 498q0 -317 221 -559q240 -276 629 -277q362 0 608 254q242 246 242 596q0 344 -232 586 q-215 225 -526 262q-18 2 -107 2q-326 0 -573 -236q-262 -248 -262 -614v-14zM979 512q0 78 59 121q45 35 90 35q72 0 119 -43t47 -113q0 -68 -45 -111q-45 -45 -112 -45q-68 0 -113 45t-45 111z" />
<glyph unicode="&#x2a01;" horiz-adv-x="2275" d="M115 512q0 416 284 711q279 289 678 311q4 2 27 2q31 0 47 -2q401 0 698 -287q309 -299 310 -735q0 -430 -299 -727t-723 -297q-422 0 -721 295q-301 299 -301 729zM289 426q59 -293 180 -444q195 -244 582 -318v762h-762zM289 598h762v381q0 381 -2 381 q-195 0 -408 -156q-203 -147 -293 -373q-18 -45 -59 -233zM1223 -336q246 51 364 125q319 199 398 637h-762v-762zM1223 598h762q-41 184 -60 233q-90 225 -291 373q-217 154 -401 154l-10 2v-762z" />
<glyph unicode="&#x2a02;" horiz-adv-x="2275" d="M115 512q0 416 284 711q279 289 678 311q4 2 27 2q31 0 47 -2q401 0 698 -287q309 -299 310 -735q0 -430 -299 -727t-723 -297q-422 0 -721 295q-301 299 -301 729zM287 512q0 -293 170 -512l18 -27l539 539l-539 539l-18 -27q-170 -223 -170 -512zM598 -150l29 -20 q225 -170 510 -170t510 170l28 20l-538 539zM598 1174l539 -539l538 539l-28 20q-184 137 -418 166q-18 2 -107 2q-274 0 -495 -168zM1260 512l538 -539l19 27q170 223 170 512q0 285 -170 514l-19 23q0 6 -270 -269z" />
<glyph unicode="&#x2a04;" horiz-adv-x="1705" d="M113 815q0 647 4 660q6 29 26 41q20 20 54 20q51 0 88 -66l2 -1320l4 -27q35 -211 198 -340q156 -123 363 -123q215 0 373 131q156 129 188 332l4 27l4 1320q29 63 84 64q61 0 82 -59q4 -12 4 -660q0 -655 -2 -670q-20 -250 -196 -432q-223 -223 -541 -223h-10 q-307 0 -531 223q-176 182 -196 432q-2 15 -2 670zM457 565q0 49 63 88h246v178q0 131 90 132q82 -8 82 -123v-187h248q61 -41 61 -88t-45 -71q-20 -12 -151 -13h-113l2 -178q0 -131 -90 -131q-68 0 -82 68q-2 6 -2 125v116l-172 -2q-137 0 -137 86z" />
<glyph unicode="&#x2a06;" horiz-adv-x="1705" d="M113 512q0 950 4 963q6 29 26 41q20 20 54 20q63 0 84 -61q4 -12 4 -914v-901h1134v901q0 901 4 914q20 59 82 59q63 0 82 -61q4 -12 4 -965v-952q-23 -55 -65 -66h-1346q-49 14 -63 59q-4 13 -4 963z" />
<glyph unicode="&#xe000;" horiz-adv-x="500" d="M0 0v0v0v0v0z" />
<glyph unicode="&#xeffd;" horiz-adv-x="614" d="M0 0v205h205v-205h-205zM410 0v205h204v-205h-204z" />
<glyph unicode="&#xeffe;" horiz-adv-x="614" d="M0 0v205h205v-205h-205zM410 0v205h204v-205h-204z" />
<glyph unicode="&#xefff;" horiz-adv-x="204" d="M0 0v205h205v-205h-205z" />
</font>
</defs>
</svg>
