<?xml version="1.0" standalone="no"?>
<!DOCTYPE svg PUBLIC "-//W3C//DTD SVG 1.1//EN" "http://www.w3.org/Graphics/SVG/1.1/DTD/svg11.dtd" >
<svg xmlns="http://www.w3.org/2000/svg">
<metadata>
This is a custom SVG webfont generated by Font Squirrel.
Copyright   : Copyright c 20092010 Design Science Inc
</metadata>
<defs>
<font id="MathJax_ScriptRegular" horiz-adv-x="512" >
<font-face units-per-em="2048" ascent="1638" descent="-410" />
<missing-glyph horiz-adv-x="500" />
<glyph unicode=" " />
<glyph unicode="A" horiz-adv-x="1644" d="M72 108.5q0 61.5 51 124t129 62.5q43 0 61.5 -25.5t18.5 -52.5q0 -35 -40 -63.5t-89 -28.5q-18 0 -47 8v-10q14 -63 120 -64q113 0 265 107q33 25 32.5 29t-7.5 8l-24 14q-17 10 -34 25q-121 98 -121 243q0 143 115 310q45 68 110 98q76 39 179 39q209 0 335 -107l19 -16 l24 20q319 285 764 562l27 16l18 29l8.5 13t6.5 9l5 5q3 3 6 4t8 1h13h13q18 0 25.5 -1t12.5 -5t5 -12q0 -6 -383 -625l-395 -637l-13 -18q59 20 113.5 56t87.5 67l35 31q27 0 14 -41l-8 -23l-16 -16q-131 -125 -277 -158l-25 -41q-6 -10 -13 -20.5t-8 -13.5t-7 -7t-12 -4 h-19h-70h-94q-8 6 -8 16q0 14 18.5 38t18.5 26t-2 2q-41 0 -151.5 18.5t-196.5 51.5l-23 8l-29 -21q-209 -156 -370 -155q-74 0 -125 31.5t-51 93zM514 479q0 -123 113 -198q25 -18 32 -13q2 2 15 17q45 45 67 84q139 190 301 344l33 30q-66 86 -299 113h-8q-68 0 -135 -82 q-119 -160 -119 -295zM723 227q152 -53 299 -65q37 -4 43 -4l10 -2l49 71q4 6 16 22l14 19q3 4 10 15.5t9.5 18.5t5.5 19.5t4 25.5t2 31.5t1 41.5q0 82 -17.5 150.5t-31 91t-19.5 28.5l-51 -53q-123 -129 -203 -236.5t-123 -152.5zM1190 756l12 -21q27 -39 43.5 -90 t21.5 -86t8 -72.5t3 -44.5l287 406q287 406 286 409l2 3q-8 0 -133 -87.5t-287.5 -212t-242.5 -204.5z" />
<glyph unicode="B" horiz-adv-x="1859" d="M63 111q0 70 54.5 141.5t134.5 71.5q43 0 63.5 -26t20.5 -54q0 -35 -45 -62.5t-86 -27.5q-12 0 -26.5 4t-22.5 6l-9 2q-6 -6 -6 -33q0 -61 67.5 -88t149.5 -27q18 0 48 5q102 25 208.5 121t211.5 239l215 296q110 153 262.5 322.5t312.5 286.5l24 21q-10 6 -31.5 17 t-110.5 28.5t-202 17.5q-84 0 -153 -10q-158 -29 -305.5 -106.5t-251.5 -190.5q-25 -27 -58.5 -72t-73.5 -126t-40 -142q0 -113 137 -113q27 0 53.5 5.5t47 11.5t43.5 21l38 25q14 9 37 33l32 33q9 10 31 38l27 36q6 8 26.5 40t24.5 36q104 158 105 229v4q0 18 2 22.5 t20 10.5q10 4 19 8q20 10 28 11q16 0 17 -70q0 -258 -228 -440q-174 -129 -350 -129q-195 0 -194 182q0 117 86 247t176 201q186 154 380.5 217.5t291.5 63.5l20 2h35q236 0 383 -68l27 -12l26 16q72 47 80 48q12 0 23 -31q0 -4 1 -8t2 -6.5t1 -5.5v-5q0 -4 -1 -7t-5.5 -6 l-7.5 -5l-12 -8l-15 -11l-23 -16l23 -22q80 -78 80 -181q0 -39 -11.5 -77.5t-33 -74.5t-43 -66t-51 -61.5t-48 -49t-45.5 -40t-31 -26.5q96 -66 97 -174v-14q0 -119 -84 -242q-82 -129 -227.5 -221t-268.5 -92q-76 0 -120 36.5t-44 98.5q0 55 35 121.5t86 111.5 q131 111 291 115q20 0 27 -4q10 -12 -13 -41q-16 -25 -21 -27t-34 -4q-82 -4 -144.5 -39t-92 -81t-43 -80.5t-13.5 -55.5q0 -76 111 -76q135 0 264 164q164 209 164 330q0 35 -13.5 62.5t-20.5 32.5t-28 22l-30 -17q-119 -59 -218 -59q-47 0 -86 8h-8l-47 -67l-44 -63 l-44 -60l-37 -47l-47 -57q-23 -26 -53 -56q-125 -123 -290 -216t-316 -93q-115 0 -189 45t-74 123zM1309 670h28q35 4 47 6q61 25 62 26q-8 2 -19 3q-10 2 -32 2h-13q-12 0 -30 -2h-21l-4 -5q-4 -6 -6 -8q-4 -10 -12 -22zM1333 778q8 2 19 2q8 2 59 2q39 0 131 -14l25 25 q195 195 194 344q0 80 -43 112l-35 -37q-57 -59 -144 -166l-146 -186q-60 -78 -60 -82z" />
<glyph unicode="C" horiz-adv-x="1363" d="M53 983q0 109 93.5 208t219.5 153.5t238 54.5q35 0 35 -15q0 -4 -2 -8l-19 -24q-16 -25 -20 -27l-12 -2h-21q-162 -10 -268.5 -130t-106.5 -218q0 -182 353 -182q12 0 24.5 1t20.5 1h10q2 0 44 53t122 142t160 161q342 307 575 338q2 0 17.5 1t25.5 1q76 -2 105.5 -41 t29.5 -88q0 -45 -18.5 -99.5t-76.5 -131t-150.5 -146.5t-260 -137.5t-383.5 -108.5q-8 0 -36 -41q-246 -346 -246 -522q0 -154 160 -153q162 0 286 172q109 143 129 231q2 8 2 25q0 35 -23.5 59.5t-76.5 24.5q-100 0 -190.5 -106.5t-90.5 -170.5q0 -31 25 -51.5t25 -24.5 q0 -10 -29 -24.5t-39 -14.5q-18 0 -46 28t-28 75q0 100 135.5 232t270.5 132q86 0 137 -48t51 -111v-15q0 -166 -179 -327.5t-398 -161.5q-113 0 -196 65.5t-83 220.5q2 70 23.5 145t49.5 131t55.5 102t47 74t19.5 30t-39 2q-244 0 -347.5 82t-103.5 184zM840 819h2 q10 0 59 10.5t134 38t172 65.5t175 103.5t140 143.5q70 104 69 168q0 68 -80 67q-70 0 -165 -60.5t-180 -147.5t-160.5 -175t-120.5 -148.5t-45 -64.5z" />
<glyph unicode="D" horiz-adv-x="1585" d="M139 29q0 12 10.5 28.5t41 35t77.5 26.5q43 8 135 8q88 0 154 -29l21 -8q53 43 106 100q94 106 272.5 354.5t317.5 385.5q45 45 86 79.5t62.5 50t53 35t40.5 25.5q-84 254 -410 254q-162 0 -318.5 -95t-222.5 -185q-23 -29 -52.5 -73t-64 -125t-34.5 -142 q0 -121 133 -121q119 0 264 152.5t195 330.5q2 6 4 14q2 12 6 15.5t31 9.5q4 2 6 2q18 6 26 6q14 0 15 -16q0 -12 -11 -47q-45 -195 -223 -369t-346 -174q-106 0 -170.5 53.5t-64.5 155.5q0 119 79.5 250t188.5 219q111 86 263.5 150.5t319.5 64.5q119 0 211.5 -29.5 t141.5 -71.5t79.5 -83t43.5 -70l12 -31q4 0 21.5 6.5t38 9.5t42.5 3q31 0 31 -15q0 -10 -18.5 -35.5t-34.5 -25.5q-10 0 -25.5 -5t-26 -11.5t-10.5 -8.5q6 -25 6 -94q0 -219 -122.5 -464.5t-321.5 -416.5t-395 -171q-80 0 -189 49l-22 10l-25 -8q-72 -23 -174 -23 q-104 0 -161.5 8.5t-75 22t-17.5 33.5zM311 47q37 -4 92 -4q16 0 34 -1t20 -1h6q0 10 -82 10q-10 0 -25 -2h-16q-10 0 -16 -2h-13zM680 41q0 -2 19.5 -11.5t54 -17.5t65.5 -8q51 0 118 22.5t150.5 74t171 156.5t154.5 251q123 262 123 467v29l-25 -23q-82 -88 -189 -232 l-188 -261q-81 -116 -203 -241.5t-251 -205.5z" />
<glyph unicode="E" horiz-adv-x="1150" d="M94 272q0 162 126 311.5t331 223.5l22 8l-2 4q-2 4 -4 11.5t-5 16.5t-5 25.5t-2 34.5q0 104 64.5 208t157.5 174.5t190.5 114.5t165.5 44h24h17q117 0 186 -37q111 -57 110 -174q0 -115 -114.5 -229.5t-222.5 -114.5q-57 0 -93 30.5t-36 84.5q0 86 83.5 178t180.5 104 q27 0 26 -14q0 -8 -16 -35q-20 -27 -45 -30t-49 -23q-25 -25 -59.5 -80t-34.5 -90q0 -47 67 -47q25 0 45 4q27 10 49 26q39 29 82 94.5t43 125.5q0 131 -243 131h-11q-111 0 -200 -90q-59 -59 -136 -175t-84 -188q-4 -39 3 -49h2q2 0 15 1t34.5 3t44.5 2q61 0 101 -13.5 t53.5 -28.5t13.5 -32q0 -31 -44 -59.5t-110 -28.5q-57 0 -102 13.5t-68 27.5l-22 15q-14 -2 -41 -13.5t-104 -80t-144 -177.5q-88 -152 -88 -239q0 -70 60.5 -124.5t209.5 -54.5q121 0 215 62q59 39 116.5 111.5t78.5 132.5q4 14 4 43q0 61 -80 86q-29 8 -86 8q-41 0 -53 -4 q-39 -16 -71 -51t-50.5 -72t-29.5 -72t-17 -58.5t-8 -23.5q-2 -4 -29 -14t-35 -10q-14 0 -14 16q0 88 98 227.5t236 139.5q123 0 198.5 -50.5t75.5 -132.5q0 -152 -190.5 -283.5t-385.5 -131.5q-96 0 -178 21.5t-149.5 89.5t-67.5 177zM791 776l79 -8l4 2q0 2 -51 8 q-32 0 -32 -2z" />
<glyph unicode="F" horiz-adv-x="1832" d="M80 102q0 74 52 145.5t130 76.5q88 0 88 -76q0 -49 -61 -78q-33 -16 -70 -16q-29 0 -55 16q-8 -25 -8 -43q0 -68 84 -97.5t184 -29.5q240 0 588 508l14 20h-12q-260 -39 -338 -129q-12 -16 -51 -16t-39 18q0 12 30 43q53 51 169 92.5t206 57.5l88 14l82 121 q117 174 157 228.5t91 109.5q55 59 131 123.5t88 64.5t19.5 -21.5t7.5 -31.5t-61.5 -81.5t-156 -211t-155.5 -295.5h23q53 4 98 13l24 4l13 18q86 121 182 170q29 12 53 12q63 0 64 -63q-4 -41 -37 -76t-70 -53l-69 -33l-33 -12q-6 -2 -24.5 -49t-22.5 -51q-4 -2 -45 -19 l-78 -31q-37 -14 -39 -14q-14 0 -14 16q0 12 31.5 57.5t31.5 49.5q0 2 -2 2q-10 -2 -90 -14l-35 -2q-76 -131 -160 -228q-33 -39 -93 -94t-153.5 -126t-212 -118t-229.5 -47q-172 0 -243.5 54t-71.5 122zM528 877q0 125 132.5 274t328 251.5t365.5 102.5q133 0 333.5 -86 t313.5 -86q27 0 27 -14q0 -10 -39 -65.5t-47 -63.5q-2 -2 -21 -2q-123 0 -316.5 85t-340.5 85q-150 0 -281 -57.5t-208 -137.5t-120 -155.5t-43 -124.5q0 -90 129 -90q86 0 157 30.5t112 74.5t69.5 97.5t38.5 93t10 64.5q0 12 -2 25.5t-3 18.5t1 11q4 6 30 24.5t32 18.5 q10 0 26.5 -12t33 -44t16.5 -73q0 -72 -43 -145.5t-84 -110.5q-74 -63 -184.5 -105t-235.5 -42q-187 0 -187 158zM1587 686q63 47 64 68q-2 2 -4 2q-8 0 -27 -19q-35 -49 -33 -51z" />
<glyph unicode="G" horiz-adv-x="1249" d="M25 838q0 98 63.5 203.5t153.5 182t189 126t173 49.5q27 0 27 -17q0 -10 -18.5 -34.5t-34.5 -24.5q-33 0 -86 -27q-119 -55 -250 -249q-86 -129 -86 -228q0 -66 59 -117t207 -51l88 4q0 14 20.5 66.5t47.5 95.5q61 98 171.5 227.5t202.5 204.5q252 219 402 219 q70 0 113.5 -32.5t43.5 -98t-69 -155.5q-84 -113 -192.5 -211.5t-202 -158.5t-179.5 -104t-133 -62.5t-53 -18.5q-4 -4 -12 -34t-8 -46q0 -78 92 -78q70 0 146.5 52t135 119t135 142.5t136.5 108.5q8 4 12 4q29 0 29 -57q-6 -12 -23.5 -20.5t-46.5 -42.5t-59 -107 q-25 -61 -65 -122t-83 -179q-39 -109 -82 -180.5t-123 -131.5q-180 -131 -393 -131q-82 0 -151.5 14.5t-127 57.5t-57.5 113q0 74 55.5 144.5t133.5 70.5q43 0 63.5 -26t20.5 -54q0 -35 -45.5 -62.5t-85.5 -27.5q-16 0 -34 6t-20 6q-10 0 -10 -39q0 -49 49 -79t104.5 -38 t118.5 -8h13q78 0 153 64q61 47 106.5 108.5t133.5 214.5l59 100q-106 -96 -227 -96q-111 0 -164 51.5t-59 120.5q0 16 -6 17q-45 -8 -113 -9q-166 0 -262 73t-96 192zM737 727q12 4 54 25q158 80 304 217t218.5 241.5t72.5 141.5q0 41 -63 41q-61 0 -166 -105 q-57 -57 -104 -119l-121 -162l-136 -192q-59 -84 -59 -88z" />
<glyph unicode="H" horiz-adv-x="1984" d="M59 94q0 74 54.5 152t138.5 78q43 0 63.5 -26t20.5 -54q0 -35 -44 -62.5t-87 -27.5q-16 0 -28.5 3t-19.5 7t-10 4q-10 0 -10 -45q0 -66 65.5 -94.5t145.5 -28.5q90 0 209 97.5t301 361.5l176 237l27 35q-10 0 -29.5 -3t-75 -17.5t-106.5 -35t-112.5 -62.5t-106.5 -95 q-25 -31 -27 -33h-35h-8q-37 0 -37 13q0 10 15 26q57 78 138 134.5t156.5 83t142 42t109.5 21.5t45 10q8 8 44 52t55 63q4 6 9 12t7 10l4 4q-92 -25 -159 -24q-137 0 -170 57q-4 8 -5 31q0 31 33 82t33 84q0 29 -33 28q-55 0 -160 -151q-23 -31 -28.5 -36t-22.5 -5h-14h-8 q-37 0 -37 12q0 29 105.5 141.5t183.5 112.5h16q66 0 101.5 -30.5t35.5 -77.5q0 -43 -27.5 -91.5t-27.5 -56.5q0 -23 59 -22q84 0 151.5 27.5t92.5 54.5l27 26l187 196l122 120q37 35 41 34q10 0 17 -13t10 -28l2 -14q0 -4 -109 -150l-216 -291q-108 -144 -106 -147 q53 0 119 2h117l18 25q459 596 793 596q86 0 119 -38t33 -87q0 -86 -67 -204t-185 -204q-76 -51 -173.5 -86.5t-168 -46t-131 -17.5t-62.5 -7h-10l-53 -74q-190 -266 -242 -389q-35 -82 -35 -139q0 -96 117 -97q41 4 89 39t81 73t64.5 80t37.5 48q4 4 39 4h35q8 -10 8 -17 t-14 -26q-213 -276 -391 -276q-229 8 -230 221q0 86 42 186.5t92 171.5l93 127q42 55 42 62q-53 0 -117 -2h-117l-16 -23q-4 -6 -127 -178q-147 -205 -199 -260q-115 -127 -250 -220.5t-254 -125.5q-55 -16 -127 -17q-137 0 -195.5 51t-58.5 117zM1806 838l19 2l46 5 q28 3 42 5q301 49 430 215q104 143 104 233q0 18 -1 29.5t-20.5 29t-55.5 17.5q-55 0 -133 -55t-151 -134t-137.5 -158t-103.5 -134z" />
<glyph unicode="I" horiz-adv-x="1656" d="M121 121q0 76 54 139.5t128 63.5q43 0 63.5 -26t20.5 -54q0 -35 -45 -62.5t-86 -27.5q-18 0 -32.5 5t-16.5 7t-8 -2q-2 -6 -2 -17q0 -45 55 -74.5t166 -29.5h24q68 0 177.5 58.5t222.5 172.5q59 55 98 109q57 68 57 78q-182 61 -182 239q0 139 117 308 q74 109 199.5 185.5t238.5 109.5l269 76q157 44 241 79q25 10 31 10q12 0 19 -23.5t7 -33.5q0 -6 -63.5 -52t-175 -149.5t-205.5 -226.5q-78 -104 -147.5 -264t-85.5 -187q27 0 98.5 39t144 123t72.5 178q0 33 -5 69t-5 40q0 10 4 14q6 4 31.5 14.5t31.5 10.5q10 0 13.5 -8 t9.5 -45q10 -61 10 -97q0 -115 -106 -225q-141 -141 -320 -186l-27 -8l-16 -23q-76 -111 -200 -212t-263 -165q-180 -86 -342 -86q-98 0 -184 37t-86 119zM942 684q0 -53 25.5 -90t52.5 -45l24 -10q10 0 72 102t166 257t199 251q57 57 106 99t67.5 55.5t18.5 15.5h-2 q-6 0 -172 -53q-104 -35 -178 -70t-123 -75t-74.5 -68.5t-62.5 -77.5q-119 -176 -119 -291z" />
<glyph unicode="J" horiz-adv-x="2154" d="M188 -502q0 86 52.5 174t117.5 138q80 57 216.5 107t224.5 71.5t243 56.5l48 10l30 41q258 352 258 365l-16 6q-16 6 -34.5 15.5t-43 28.5t-43 43t-32 61.5t-13.5 82.5q0 98 61.5 218t147.5 198q100 90 232 145.5t328 107.5t304 93q20 8 23 8q12 0 20 -24.5t8 -32.5 q0 -6 -36 -33q-131 -94 -233.5 -193.5t-171.5 -199.5t-104.5 -159.5t-78.5 -153.5t-47 -105q-6 -12 -9.5 -20l-5.5 -12.5t0 -4.5q104 23 209 119q115 111 115 213q0 35 -6 75t-6 46v4l2 4q4 6 31.5 17.5t37.5 11.5q8 0 19 -51q12 -63 12 -103q0 -125 -136 -248.5 t-294 -160.5l-31 -6l-16 -27q-20 -33 -74 -100l-95 -123q-42 -55 -46 -72q0 -4 57 14.5t134 59.5t114 88l10 12h27q33 0 33 -10t-9.5 -26.5t-37 -43t-70.5 -53.5t-120 -60.5t-175 -64.5q-14 -4 -21.5 -7t-13.5 -5t-11 -6t-8 -7.5t-12.5 -13.5t-15.5 -18 q-193 -217 -426 -404.5t-399 -222.5q-23 -4 -62 -4h-10q-20 0 -39.5 4t-48.5 16.5t-46.5 43t-17.5 77.5zM260 -475q0 -94 117 -94q100 0 261 135t271 270l111 133h-4q-57 -10 -147.5 -30.5t-269.5 -83t-243 -127.5q-14 -14 -32.5 -41t-41 -76t-22.5 -86zM1323 680 q0 -100 96 -137l11 -4l75 116q190 297 267 392q119 145 282 270l4 4q-2 0 -166 -51q-305 -98 -426 -262q-143 -187 -143 -328z" />
<glyph unicode="K" horiz-adv-x="1871" d="M59 90q0 78 54.5 156t138.5 78q43 0 63.5 -26t20.5 -54q0 -35 -44 -62.5t-87 -27.5q-16 0 -28.5 3t-19.5 7t-10 4q-8 0 -8 -47q0 -45 36 -74t78 -38t89 -9q74 0 145.5 43t149.5 132t146 181l175 235q106 142 195 249l52 62l38 44q12 14 17 21l-21 -9q-76 -25 -147 -24 h-13q-76 0 -131 55q-25 27 -24.5 51.5t36 76.5t35.5 73q0 25 -43 24q-35 0 -83 -51t-83.5 -102t-40.5 -51q0 -2 -34 -2q-43 0 -43 14t52 78.5t129 127t128 62.5q66 0 104.5 -30.5t38.5 -79.5q0 -41 -26.5 -88.5t-26.5 -55.5q0 -27 57 -26q121 0 228 69q14 8 61 58l94 100 l84 86l99 98q43 43 47 45t8 2q10 0 17 -13t10 -28l2 -14q0 -6 -111 -153q-324 -432 -324 -439q2 0 5.5 1t5.5 2t13 2t30 1q78 0 110 -61q2 -8 19 4q4 2 18 12q111 70 206 172.5t165.5 198.5t99.5 123q94 88 190.5 129t163.5 41q20 0 38 -2t27 -5t16.5 -7.5t10.5 -8.5t4 -7 t1 -7v-2l4 -21q0 -20 -27 -14q-4 0 -16.5 1t-18.5 1q-76 0 -180 -57t-174 -162q-63 -96 -209.5 -235.5t-306.5 -225.5l-21 -12l-6 -23q-12 -55 -68.5 -142t-104.5 -180t-48 -179q0 -115 109 -115q23 0 35 4q109 47 243 227l21 29h35q35 0 40 -4q10 -12 -10 -39 q-84 -106 -200.5 -200.5t-196.5 -94.5q-33 0 -66.5 10.5t-70.5 34t-59.5 73.5t-22.5 122q0 57 11 106t45 108.5t49.5 83l68.5 99.5q8 12 4 12q-25 -6 -61 -6q-16 0 -31 2t-23 4t-10 2q-6 0 -31 -35l-67 -99q-43 -62 -99.5 -132.5t-142.5 -150.5t-178 -142 q-201 -133 -361 -133q-104 0 -179 41t-79 125zM1262 682h24q25 2 90 16q6 27 6 33q0 23 -20 23q-18 0 -43 -11q-26 -16 -57 -61z" />
<glyph unicode="L" horiz-adv-x="1789" d="M29 45q0 45 52 89t130 61q47 12 158 12q90 0 159.5 -7t105.5 -15.5t42 -8.5q4 0 47 35t74 65q25 23 48 49l39 43q15 17 38.5 47.5t33 45t39 55.5t39.5 57l62 86h-54q-242 0 -346 82t-104 185q0 88 66.5 194.5t152.5 169.5q86 72 184.5 112t175.5 40q72 0 72 -23 q0 -25 -35 -59h-4q-4 0 -9 -1t-11 -1q-152 -10 -296.5 -145.5t-144.5 -276.5q0 -63 48 -115q63 -61 194 -82q18 -2 94 -2h72q6 6 67.5 90t145.5 185.5t182.5 208t203.5 177t185 70.5q84 0 134.5 -43t50.5 -120q0 -90 -80 -218.5t-252 -238.5q-131 -74 -246 -112t-162 -44 t-47 -10q-2 0 -38 -51l-91 -129q-55 -78 -90 -123q-94 -121 -242 -219l-26 -21h2q172 -43 330 -43q104 0 206.5 56.5t161.5 132.5l15 18h34h9q39 0 38 -12q0 -10 -14 -27q-72 -98 -213 -197.5t-301 -99.5q-152 0 -364 74l-52 18l-20 -10q-188 -84 -361 -84h-28 q-104 0 -163.5 10.5t-78 26.5t-18.5 43zM180 63q0 -23 145.5 -22.5t235.5 61.5q0 2 -32.5 9.5t-87 14.5t-101.5 7q-12 0 -31.5 -1t-21.5 -1q-51 -12 -79 -33t-28 -35zM1397 772q2 0 59 17.5t91 31.5l93 41q59 27 113.5 66t101.5 86q43 43 95.5 128t52.5 158q0 18 -2 32 t-8 23t-10.5 14t-15.5 10t-14 6t-16.5 4.5t-15.5 3.5q-18 0 -27 -7q-66 -37 -266 -299t-231 -315z" />
<glyph unicode="M" horiz-adv-x="2211" d="M61 98.5q0 59.5 50.5 113.5t119.5 54q33 0 57.5 -19.5t24.5 -53.5q0 -47 -44 -72t-85 -25h-20q31 -35 108 -35q96 0 194.5 68t170.5 153l187 228q116 143 200 229q135 131 415.5 344t424.5 336q66 57 72 57.5t27.5 -10t23.5 -14.5q8 -10 -13 -37q-6 -6 -120.5 -141 t-118.5 -139l-516 -764q-193 -276 -211 -361q10 0 79 84q98 106 316.5 364.5t337.5 379.5l250 235q45 39 65 66q16 23 191.5 179.5t181.5 156.5q16 0 41 -11q20 -8 20 -19q0 -3 -2 -5q0 -4 -49 -66l-120 -148q-71 -87 -107 -141q-90 -141 -198.5 -355t-248.5 -419 q-123 -180 -129 -276q0 -20 3 -25.5t22 -5.5q51 0 146.5 73t177.5 181q6 8 11 16.5t8 9.5t9 2t27 1h33q12 -12 12 -17q0 -20 -76 -101t-189.5 -161t-191.5 -80q-70 0 -103.5 47.5t-33.5 122.5q0 152 108 291q106 162 224 369l75 131l-26 -25q-135 -127 -332 -362 q-223 -262 -349 -398.5t-171 -171t-76 -34.5q-76 4 -76 94q0 180 117 360l477 662q-252 -182 -391 -332q-33 -35 -190.5 -220.5t-239.5 -266.5q-102 -96 -188 -146.5t-122 -56.5t-85 -6h-17q-53 0 -110.5 26.5t-57.5 86z" />
<glyph unicode="N" horiz-adv-x="1847" d="M59 94q0 74 54.5 152t138.5 78q43 0 63.5 -26t20.5 -54q0 -35 -44 -62.5t-87 -27.5q-16 0 -28.5 3t-19.5 7t-10 4q-10 0 -10 -47q0 -45 46 -82t159 -37q41 0 61 4q49 12 100.5 40t94.5 60.5t90 79.5l81 84t74 87.5t59 77.5l47 67q28 39 30 43q616 879 627 885q4 4 36 4 h33q12 -12 12.5 -16.5t-30.5 -49.5t-61.5 -131t-30.5 -186q0 -63 16 -184.5t16 -190.5q0 -53 -4 -93t-7 -58.5t-3 -22.5q10 14 109.5 170.5t216 318.5t225.5 273q72 72 148.5 126t119.5 75.5t56 21.5q16 0 16 -19q0 -8 -2 -26.5t-5 -33.5t-3 -17l-8 -9q-4 0 -26 -10 t-53.5 -27.5t-56.5 -35.5q-170 -115 -356 -375l-207 -306q-98 -153 -162 -262l-110 -197q-47 -87 -69.5 -133t-24.5 -48q-4 -4 -39 -4h-9q-35 0 -34 14q0 10 14 37q80 156 80 319v47q0 76 -9.5 188.5t-9.5 188.5q0 119 23 219l-47 -67q-326 -459 -430 -582 q-180 -217 -337 -319.5t-259 -102.5h-23q-133 0 -192.5 52.5t-59.5 115.5z" />
<glyph unicode="O" horiz-adv-x="1511" d="M197 313q0 207 160.5 464t409.5 449.5t476 221.5h29q227 0 321 -94q55 -55 56 -129q0 -82 -61.5 -166t-162.5 -133l-24 -11v-12q0 -129 -120 -344t-290 -360q-215 -184 -401 -213q-18 -2 -60 -2q-59 2 -111 17t-105.5 49t-85 101.5t-31.5 161.5zM356 268 q0 -113 64.5 -161t150.5 -48q31 0 56 7q203 57 411 354q174 246 224 401q18 51 18 70q0 2 -8 3t-38 7t-69 19q-92 35 -110 53q-4 4 -4 12t24.5 31.5t32.5 23.5l14 -8l36 -15l45 -19q24 -9 45.5 -16t31.5 -7q4 0 2 10q0 10 -6 26.5t-20.5 40t-49.5 40t-84 16.5 q-109 0 -277.5 -179t-258.5 -354q-43 -82 -65.5 -163.5t-29 -122.5t-10.5 -43q-2 -4 -36.5 -18.5t-41.5 -14.5q-4 0 -10 6t-6 10q2 27 9 72t54.5 173t122.5 239q113 164 261.5 298t269.5 169q18 4 49 4q63 0 111.5 -20.5t73 -46t40 -57.5t18.5 -49.5t3 -23.5q0 -2 2 -2 q12 0 48 29.5t71.5 87t35.5 115.5q0 156 -311 155q-94 0 -236.5 -98t-297.5 -307q-355 -476 -355 -699z" />
<glyph unicode="P" horiz-adv-x="2074" d="M184 94q0 74 54.5 152t140.5 78q37 0 58.5 -22.5t21.5 -53.5q0 -23 -10 -39q-43 -55 -123 -55q-10 0 -20.5 2t-13.5 3t-5 -1q-6 -10 -6 -49q2 -33 25.5 -56.5t56 -34t58 -14.5t46.5 -4q174 0 392 151.5t374 374.5l37 49l-13 9q-14 8 -27 18t-27.5 24.5t-24 36t-9.5 44.5 q0 80 85 149.5t153 69.5q23 0 23 -15q0 -18 -39 -57q-4 -4 -19 -4q-41 -6 -76.5 -53t-35.5 -80q0 -20 13 -39t25.5 -26t18.5 -7l41 55q180 246 315 398q115 121 162 159l23 23q-131 113 -422 113q-219 0 -415 -98.5t-316 -237.5q-55 -61 -99.5 -137t-58.5 -134 q-10 -37 -10 -61q0 -45 29.5 -79t101.5 -34h2q96 0 202 80q113 78 229 242t122 291q0 37 4 39q4 4 31.5 15t31.5 11q18 0 19 -53v-35v-12q0 -127 -86 -256q-109 -162 -277 -279.5t-295 -117.5q-82 0 -139 40.5t-57 139.5q0 139 129 315q154 190 400.5 312t453.5 122 q145 0 251.5 -19.5t149.5 -37.5t109 -57q23 20 70.5 51t54.5 31q12 0 20 -21.5t8 -34.5q0 -6 -14 -18q-63 -63 -64 -68q0 -2 22.5 -27.5t44 -76.5t21.5 -119q0 -104 -57 -210.5t-153 -182.5q-152 -113 -334 -135q-16 -4 -66 -4h-39l-26 -35q-176 -254 -467 -416t-523 -162 q-121 0 -191.5 46t-70.5 124zM1518 612h20q109 2 194 72t160 213q51 106 54 186q0 96 -15 97q-6 0 -211.5 -282t-201.5 -286z" />
<glyph unicode="Q" horiz-adv-x="1808" d="M111 109q0 80 109.5 144t234.5 64q166 0 366 -100l62 -31l20 13q72 43 176 123q195 162 378 418.5t183 433.5q0 37 -12 70.5t-40.5 68.5t-89 56.5t-146.5 21.5q-139 0 -271.5 -72t-217.5 -172t-136 -197.5t-51 -156.5q0 -115 147 -115q125 0 229.5 83t153.5 180t49 169 q0 35 -10 58.5t-20.5 36t-10.5 16.5q0 10 50 28q31 14 39 13q80 -63 79 -183q0 -129 -95 -242.5t-230 -174t-264 -60.5q-238 0 -238 205v16q0 74 43 156q106 213 338.5 351t439.5 138q190 0 313 -86t123 -260q0 -236 -233 -512t-559 -454l-15 -10q-5 -3 -9.5 -6t-3.5 -3 t1 -2q111 -51 250 -51q98 0 196.5 61.5t157.5 139.5l15 18h35h10q35 2 35 -16q0 -25 -83 -101.5t-203 -147.5t-200 -71h-26q-150 0 -332 74l-37 14q-240 -90 -418 -90q-127 0 -204.5 40.5t-77.5 103.5zM227 109q0 -68 185 -68q63 0 134.5 14.5t112.5 27.5t41 17 q0 6 -55 23.5t-147 35t-170 17.5q-20 4 -33 4q-29 0 -46.5 -18.5t-19.5 -34.5z" />
<glyph unicode="R" horiz-adv-x="1740" d="M-4 117q0 78 54 142.5t130 64.5q37 0 58.5 -22.5t21.5 -53.5q0 -23 -10 -39q-12 -18 -47 -36.5t-74 -18.5q-10 0 -20.5 2t-13.5 1t-4 -4t-1 -16q2 -31 27.5 -52.5t63.5 -30.5t64.5 -12t49.5 -3q61 0 131 36t122 81t115.5 118.5t93.5 112.5l74 102l202 278t228.5 264.5 t284.5 260.5l31 27q-6 6 -35 20.5t-116 34t-193 19.5q-223 0 -416.5 -101.5t-310.5 -234.5q-59 -63 -110.5 -156.5t-51.5 -165.5q0 -63 42 -88.5t93 -25.5q43 0 81 24.5t62.5 52t79.5 99.5l97 121q78 86 104.5 126.5t30.5 77.5q0 18 4 23q2 2 38 17.5t40 15.5q18 0 18 -35 q0 -96 -145 -299q-10 -12 -15 -19q-61 -88 -100 -123q-74 -72 -161 -114.5t-154 -42.5q-80 0 -139.5 42t-59.5 138q0 133 101.5 273.5t216.5 218.5q131 98 310 174.5t372 76.5q240 0 382 -75l27 -15q18 14 52 35t40 21q8 0 15.5 -14.5t9.5 -26.5l2 -15q0 -10 -31 -28 l-26 -17l16 -18q70 -76 70 -166q0 -125 -97 -250q-102 -123 -325 -211q25 -49 24 -90q-2 -33 -9 -59.5t-33.5 -70.5t-40.5 -62l-66 -95l-92 -133q-37 -61 -37 -110q0 -18 7 -33t11 -19l6 -6q-47 0 -124.5 41t-77.5 105q0 14 6 32.5t148.5 217t144.5 229.5q0 14 -2.5 16 t-6.5 2q-18 0 -75 -8h-31l-31 -49q-109 -184 -237.5 -320.5t-311.5 -228.5q-154 -82 -276 -82h-25q-164 0 -233 70q-37 37 -37 82zM1204 -6q4 6 10 6h3l-3 -2q-2 0 -6 -2zM1210 748l39 -3q25 0 43.5 -3t20.5 -3q4 0 20 4q152 51 248 177.5t96 234.5q0 63 -39 113l-32 -27 q-113 -100 -189 -193.5t-178 -254.5zM1253 6q-3 0 -3 1t3 3l7 4q49 25 128.5 104t131.5 150l26 35h35h16q29 0 29 -14q0 -37 -142.5 -160t-230.5 -123z" />
<glyph unicode="S" horiz-adv-x="1777" d="M59 98q0 70 54.5 148t138.5 78q43 0 63.5 -26t20.5 -54q0 -35 -44 -62.5t-87 -27.5q-16 0 -28.5 3t-19.5 7t-10 4q-10 0 -10 -47q0 -63 63.5 -92t139.5 -29q135 0 316.5 113.5t349.5 349.5l122 162l15 18q0 2 -31 2q-258 12 -389 103.5t-131 193.5q0 217 407 352 q184 61 353 68h39q12 -10 11 -16.5t-18 -30.5q-12 -18 -20 -27l-4 -2h-7h-12q-100 0 -224 -26.5t-245.5 -96t-154.5 -168.5q-8 -23 -8 -47q0 -90 122.5 -158.5t348.5 -68.5h24l51 65l140 189q176 242 329.5 358.5t268.5 116.5q88 0 88 -96q0 -82 -59.5 -203t-190.5 -231 q-188 -152 -406 -228l-28 -8l-35 -45q-55 -68 -124 -163t-119 -152.5t-132 -124.5q-131 -104 -308 -188.5t-355 -84.5q-145 0 -205 52t-60 120zM1477 782l30 13q287 125 430 368q4 8 7 11q55 100 55 163q0 37 -35 37q-43 0 -82 -21.5t-73.5 -65.5t-52.5 -73l-46 -79 q-6 -12 -10 -19q-57 -102 -113.5 -184t-83 -114t-26.5 -36z" />
<glyph unicode="T" horiz-adv-x="1529" d="M188 109q0 74 55.5 144.5t133.5 70.5q43 0 63.5 -26t20.5 -54q0 -35 -45 -62.5t-86 -27.5q-16 0 -33.5 6t-20.5 6q-10 0 -10 -39q0 -47 47 -78t105.5 -40t128.5 -9q90 0 186 60.5t196.5 179t175.5 223.5l184 270q110 166 165 242q33 41 71 83t69 71l60 54l42 36l16 12 l-104 45q-86 39 -147.5 57.5t-92.5 21.5t-86 3q-127 0 -239.5 -40t-186.5 -97.5t-128 -125t-78.5 -122.5t-24.5 -90q0 -31 14 -47q23 -41 117 -41q123 0 197.5 48t131.5 140q55 94 56 174q0 16 -2 29.5t-3 15.5t1 6q0 2 26.5 21.5t32.5 21.5q8 2 33 -16q45 -45 45 -111 q0 -68 -45 -152.5t-131 -142.5q-168 -113 -373 -112q-184 0 -184 155q0 33 2 46q29 135 168 274t319 226t326 87q117 0 230 -43l220 -86q106 -43 207 -43q27 0 27 -14q0 -10 -39 -65.5t-47 -63.5q-2 -2 -33 -2q-59 4 -111 14l-30 8l2 -8q0 -8 -44 -62l-108 -135 q-63 -81 -98 -141q-39 -63 -115 -224t-147 -255q-133 -170 -341 -315.5t-411 -145.5q-80 0 -148.5 14.5t-125 57.5t-56.5 113z" />
<glyph unicode="U" horiz-adv-x="1638" d="M113 772q0 135 137 300t344 280.5t385 115.5q113 0 200 -58t87 -193q0 -59 -14.5 -114.5t-54.5 -125.5l-67 -113q-27 -43 -95 -137l-97 -137l-207 -291q-102 -160 -102 -236q0 -23 22 -22q16 0 27 2q74 12 165 73.5t161 145.5l567 762l192 240h97h63q29 0 36 -3.5 t7 -13.5q0 -8 -65 -89l-231 -293l-343 -459q-125 -174 -158 -230q-63 -106 -63 -133q0 -2 10 -2q72 10 161 71.5t148 141.5q12 16 17.5 18t36.5 2h34q10 -8 9.5 -15t-17.5 -28q-45 -68 -164.5 -153.5t-218.5 -106.5q-43 -6 -49 -6q-100 0 -104 131v33l-23 -16 q-201 -147 -328 -148q-137 0 -137 176q0 39 9.5 75t18.5 61.5t41 72.5l49 71l73 94l84 108l54 69l57 74l55 71q37 48 54 74l46 70q29 43 42 73l30 65q16 36 22 67t6 59q0 80 -53 114t-127 34q-215 0 -445.5 -183.5t-293.5 -378.5q-4 -14 -4 -47v-12q0 -78 114 -78q33 0 45 2 q82 20 135.5 68.5t116.5 144.5q72 106 105 187.5t37 108t14 30.5q57 27 70 27q16 0 16 -17q0 -92 -48 -238.5t-149 -232.5q-178 -156 -368 -156h-17q-117 0 -153 105q-4 16 -4 49z" />
<glyph unicode="V" horiz-adv-x="1273" d="M115 973q0 14 53 73.5t152.5 122t197.5 62.5q74 0 120 -22.5t46 -67.5q0 -29 -46 -83t-46 -79q0 -14 16 -14q61 0 166 88q12 10 25.5 35.5l45.5 82t79 123.5q63 88 149 174h33h10q35 0 35 -14q0 -4 -11.5 -17.5t-33 -48t-49 -94t-65.5 -180.5t-74 -280q-2 -4 -11 -40 l-10 -45l-10 -43t-13.5 -48.5t-14.5 -45t-18 -51.5l-22 -49q-12 -29 -26.5 -55.5l-30.5 -53.5q-18 -33 -17 -32l50 45q180 166 285.5 310t190.5 277.5t199 249.5q74 72 149 126.5t91 54.5l31 -78q0 -10 -17 -19q-80 -47 -151.5 -109.5t-141 -149.5t-94.5 -122l-88 -127 q-115 -170 -188.5 -252.5t-306.5 -293.5q-125 -111 -195 -178.5t-87 -87t-26 -27.5l-22 -25h-66q-12 12 -12 17q0 10 29 38q90 94 153.5 225.5t89.5 234.5l59 237q32 133 52 194q4 10 8 27l4 12q-92 -61 -176 -61q-113 6 -112 92q0 39 38.5 87t38.5 62q0 27 -49 27 q-53 0 -124.5 -39t-141.5 -131q-4 -4 -7 -9t-5 -7l-5 -5l-4 -4q-1 -1 -4.5 -3.5t-6.5 -2.5h-7h-10h-12q-39 1 -39 17z" />
<glyph unicode="W" horiz-adv-x="1648" d="M94 1036q0 8 36 57.5t99.5 110t118.5 80.5q16 4 51 4q82 0 118 -32.5t36 -73.5q0 -43 -39 -92.5t-39 -57.5q0 -25 64 -24q84 0 190 47l23 10l24 35q131 195 279 344l24 24h33h18q25 0 25 -16q0 -8 -5 -13t-16 -19l-29 -35q-17 -22 -45 -68.5t-60.5 -111t-82 -173 t-102.5 -244.5q-61 -156 -92 -213l-8 -22l356 414l299 331q117 125 140.5 147.5t39.5 22.5h17q43 0 43 -14q0 -12 -20.5 -40t-79 -131t-128.5 -265q-92 -211 -136 -294t-138 -224q-174 -254 -188 -273l-5 -8l3 2q373 270 516 449q70 84 180 278q68 117 108.5 178.5 t117.5 141.5t167 131q61 35 78 35q4 0 10 -6.5t6 -10.5q0 -8 -5 -43t-7 -39q-4 -4 -26.5 -14t-39.5 -21q-98 -53 -176 -144t-124 -180t-124.5 -210t-166.5 -209q-94 -94 -336 -285q-229 -176 -332 -276l-31 -31h-33q-45 0 -45 12q0 8 16.5 33t53.5 85.5t74 133.5 q53 100 100 216t100.5 222.5t155.5 260.5l51 76q-4 0 -136 -157l-349 -403l-381 -415q-57 -61 -59 -62q-2 -2 -35 -2q-29 0 -36 2t-7 15q0 8 3 13t11 11t22 24l31 42q18 25 46 75l61 117q33 66 79 171.5t97 234.5q82 203 137 295l-22 -9q-98 -25 -170 -24q-70 0 -113 15.5 t-55.5 31.5t-12.5 37q0 25 44.5 77t44.5 87q0 6 -1.5 11t-11.5 14t-28 9q-55 0 -160 -151q-23 -31 -29 -36t-22 -5h-15q-45 0 -45 14z" />
<glyph unicode="X" horiz-adv-x="1933" d="M211 121q0 70 53 136.5t133 66.5q78 0 78 -76q2 -6 1 -16.5t-23.5 -35t-67.5 -38.5q-12 -4 -41 -4t-37 6v-17q0 -55 58.5 -78.5t128.5 -23.5q203 0 585 545l51 71h-57q-72 0 -72 19q0 6 17.5 29.5t23.5 27.5q4 2 74 2h70q2 6 38 62.5t68.5 115t61 141.5t28.5 146 q0 104 -62.5 148.5t-148.5 44.5q-135 0 -263 -99.5t-196.5 -215t-68.5 -189.5q0 -94 96 -94h6h5q29 0 47 5t56 36.5t83 93.5q61 88 98 169t43 118l6 38q4 4 33 19.5t31 15.5q16 0 26.5 -35.5t10.5 -72.5q0 -121 -94 -250q-57 -86 -162 -149.5t-209 -63.5q-88 0 -125 46 t-37 107q0 125 118 287t304 250q123 59 217 59q104 0 198.5 -44t131.5 -154q14 -45 14 -115t-14 -135l-8 -27q2 2 58 63.5t114 118.5l132 123q75 68 149.5 113t131.5 55q16 2 68 2q47 -2 74.5 -6t49 -18t21.5 -39q0 -37 -46 -80t-109 -43q-41 0 -60.5 25.5t-19.5 50.5 q0 8 8 33h-10q-90 -16 -264.5 -184.5t-323.5 -360.5l-82 -109q0 -2 76 -2h51q25 0 33 -4t8 -18q-2 -6 -19.5 -27.5l-21.5 -26.5q-4 -2 -94 -2h-90q-18 -20 -58.5 -80.5t-88.5 -170t-48 -187.5q0 -168 180 -178q63 0 137 49t122 106l96 116q47 60 49 63l12 2h19q47 0 47 -23 q-10 -20 -88 -114q-154 -164 -250.5 -219.5t-173.5 -55.5q-111 6 -173.5 69.5t-62.5 172.5q0 94 23 135l-4 -2q-4 -4 -13.5 -12.5t-15.5 -14.5q-287 -283 -537 -344q-12 -2 -61 -2q-133 0 -192.5 47.5t-59.5 106.5z" />
<glyph unicode="Y" horiz-adv-x="1454" d="M117 754q0 84 62.5 201.5t213.5 250.5q158 131 314.5 195.5t259.5 64.5q205 0 288 -84q63 -63 64 -155q0 -29 -2 -51.5t-12.5 -50t-16.5 -42t-27.5 -49.5t-31.5 -49l-45 -63l-49 -70q-123 -176 -125 -180l-27 -45q-29 -57 -29 -103q0 -59 54 -59h8q37 0 78 14 q14 6 21 15.5l54 76.5l392 574q31 41 61 74q53 51 131 104t129 82t55 29q10 0 18.5 -17.5t8.5 -30.5q0 -8 -24.5 -24t-73.5 -54t-92 -89q-102 -117 -240.5 -383.5t-222.5 -374.5q-135 -178 -360.5 -337t-442.5 -159q-119 0 -213 38t-94 124q0 39 22.5 83t44.5 66 q51 43 107 48q88 0 88 -76q0 -20 -4 -29q-18 -29 -57.5 -48t-69.5 -19q-16 0 -31 6h-6v-15q4 -59 84 -80.5t160 -21.5q205 0 471 317l28 35h-6q-8 -2 -12 -2q-29 -4 -45 -4q-94 0 -146.5 62.5t-52.5 138.5q0 14 1 25.5t5 24.5l8 22q3 9 12 26l14 26q5 9 21 31l23 34l29 41 q20 30 33 46l40 56l38 54l33 48l33 49q9 14 25.5 42t23.5 44.5l15.5 38t11.5 39.5t3 35q0 123 -189 123q-133 0 -275 -71t-244.5 -170t-169 -206.5t-66.5 -181.5q0 -61 44 -88t101 -27q37 0 88 33q61 43 161.5 185.5t125.5 269.5q4 14 6 67q0 49 2 49q2 4 30.5 20.5 t33.5 16.5q8 0 20 -15t24.5 -52t12.5 -84q0 -100 -71.5 -222t-176.5 -212q-160 -131 -285 -132q-80 0 -140 41.5t-60 139.5z" />
<glyph unicode="Z" horiz-adv-x="1681" d="M170 40v19q0 12 7 31t28.5 44.5t55.5 46t94.5 34.5t138.5 14q92 0 206 -26l37 -8l25 20q127 106 309 338l76 102q0 2 -55 2l-54 2q-10 6 -10 17q0 18 39 57q4 2 72 2h65l166 236l27 35q-12 2 -36 7t-36 8t-30.5 9t-37 15.5t-36.5 21.5q-82 53 -82 100q0 31 48 99.5 t48 91.5q0 33 -72 33q-119 0 -237.5 -59.5t-201.5 -141.5t-135 -167t-52 -140q0 -49 36.5 -69.5t83.5 -20.5q20 0 42 6t39.5 17t31.5 22.5t28.5 28t21.5 25.5l18 23l10 15q88 123 94 221q0 27 2 29q0 2 30 20.5t34 18.5q8 0 22 -15.5t23 -32.5q12 -27 12 -67 q0 -135 -140.5 -260t-293.5 -125q-80 0 -129 40t-49 118q0 121 120.5 261t297 235t323.5 95h8q111 0 160 -45t49 -100q0 -43 -31.5 -95t-31.5 -73q0 -29 27.5 -47t48 -22.5t30.5 -4.5l16 23q125 152 211 219q150 125 293 125h13q82 0 112 -66q14 -29 15 -61q0 -39 -21 -78 q-29 -57 -86 -96t-170 -78q-61 -20 -125.5 -34.5t-97.5 -18.5l-35 -6q-6 0 -23 -33l-49 -98q-33 -66 -69 -121q-4 -6 -8 -15q-4 -6 -5 -8h224q8 -8 8 -18q0 -20 -37 -58q-4 -2 -129 -2h-123q-217 -291 -481 -477l-29 -20l31 -10q145 -39 246 -39q113 0 206 58t134 118h65 q12 -12 12 -17q0 -8 -22 -39q-74 -94 -184.5 -165.5t-215.5 -94.5q-25 -4 -71.5 -4t-75.5 3t-85 23.5t-130 61.5l-43 23l-33 -17q-166 -78 -301 -77h-14q-61 0 -104.5 6t-63 12t-29.5 19.5t-10 18.5zM266 82q0 -23 140 -23q66 0 121 15.5t77 31.5l23 15q0 8 -97 29 q-16 2 -102 2q-66 0 -105.5 -17.5t-48.5 -36.5zM1612 1087h2q27 0 110.5 17.5t151.5 44.5q150 63 149 166q0 51 -73 59q-98 0 -168 -55q-37 -25 -80 -83t-67.5 -101.5t-24.5 -47.5z" />
<glyph unicode="&#xa0;" />
<glyph unicode="&#x2000;" horiz-adv-x="751" />
<glyph unicode="&#x2001;" horiz-adv-x="1505" />
<glyph unicode="&#x2002;" horiz-adv-x="751" />
<glyph unicode="&#x2003;" horiz-adv-x="1505" />
<glyph unicode="&#x2004;" horiz-adv-x="501" />
<glyph unicode="&#x2005;" horiz-adv-x="374" />
<glyph unicode="&#x2006;" horiz-adv-x="249" />
<glyph unicode="&#x2007;" horiz-adv-x="249" />
<glyph unicode="&#x2008;" horiz-adv-x="186" />
<glyph unicode="&#x2009;" horiz-adv-x="301" />
<glyph unicode="&#x200a;" horiz-adv-x="81" />
<glyph unicode="&#x202f;" horiz-adv-x="301" />
<glyph unicode="&#x205f;" horiz-adv-x="374" />
<glyph unicode="&#xe000;" horiz-adv-x="500" d="M0 0v0v0v0v0z" />
<glyph unicode="&#xeffd;" horiz-adv-x="614" d="M0 0v205h205v-205h-205zM410 0v205h204v-205h-204z" />
<glyph unicode="&#xeffe;" horiz-adv-x="614" d="M0 0v205h205v-205h-205zM410 0v205h204v-205h-204z" />
<glyph unicode="&#xefff;" horiz-adv-x="204" d="M0 0v205h205v-205h-205z" />
</font>
</defs>
</svg>
